<?xml version="1.0" encoding="UTF-8"?>
<svg id="Capa_2" data-name="Capa 2" xmlns="http://www.w3.org/2000/svg" xmlns:xlink="http://www.w3.org/1999/xlink" viewBox="0 0 489.48 351.34">
  <defs>
    <style>
      .cls-1 {
        fill: #e73c67;
      }

      .cls-2, .cls-3, .cls-4, .cls-5, .cls-6, .cls-7, .cls-8, .cls-9 {
        fill: #3c3c3b;
      }

      .cls-2, .cls-10, .cls-11, .cls-5, .cls-7, .cls-12, .cls-13, .cls-8, .cls-14, .cls-9 {
        stroke: #be9c8e;
      }

      .cls-2, .cls-10, .cls-7, .cls-12, .cls-9 {
        stroke-width: .45px;
      }

      .cls-2, .cls-4, .cls-11, .cls-5, .cls-15, .cls-12, .cls-13, .cls-8, .cls-14, .cls-9 {
        stroke-miterlimit: 10;
      }

      .cls-16 {
        fill: #ab877b;
      }

      .cls-3, .cls-10, .cls-5, .cls-17, .cls-7, .cls-14 {
        stroke-linecap: round;
      }

      .cls-3, .cls-10, .cls-17, .cls-7 {
        stroke-linejoin: round;
      }

      .cls-3, .cls-17 {
        stroke: #e0d0c2;
        stroke-width: .39px;
      }

      .cls-18 {
        fill: #be9c8e;
      }

      .cls-19, .cls-15 {
        fill: #4d0e27;
      }

      .cls-20 {
        fill: #29223a;
      }

      .cls-21 {
        fill: #ca5e16;
      }

      .cls-22 {
        fill: #8e3614;
      }

      .cls-10, .cls-12, .cls-13, .cls-14 {
        fill: #e0d0c2;
      }

      .cls-4, .cls-15 {
        stroke: #4d0e27;
        stroke-width: .5px;
      }

      .cls-11 {
        fill: #c8bbae;
      }

      .cls-11, .cls-8 {
        stroke-width: .44px;
      }

      .cls-23 {
        clip-path: url(#clippath-1);
      }

      .cls-24, .cls-9 {
        opacity: .44;
      }

      .cls-5, .cls-14 {
        stroke-width: .38px;
      }

      .cls-25 {
        fill: #a44917;
      }

      .cls-17, .cls-26 {
        fill: none;
      }

      .cls-27 {
        fill: #6a1d5a;
      }

      .cls-28 {
        clip-path: url(#clippath);
      }

      .cls-13 {
        stroke-width: .54px;
      }
    </style>
    <clipPath id="clippath">
      <rect class="cls-26" width="489.48" height="351.34"/>
    </clipPath>
    <clipPath id="clippath-1">
      <rect class="cls-26" x="-19.89" y="-249.35" width="519.6" height="600"/>
    </clipPath>
  </defs>
  <g id="HAZLO_X_ELLOS" data-name="HAZLO X ELLOS">
    <g class="cls-28">
      <g>
        <g class="cls-24">
          <path class="cls-6" d="M477.61,237.13l-17.97-38.65c0-6.48-23.84-11.74-53.24-11.74s-53.24,5.26-53.24,11.74l-17.97,38.65c-.44,.52-.74,1.05-.74,1.6,0,6.48,32.22,11.74,71.96,11.74s71.96-5.26,71.96-11.74c0-.54-.3-1.07-.74-1.6Z"/>
          <ellipse class="cls-6" cx="406.39" cy="198.97" rx="48.56" ry="9.68"/>
          <g>
            <g>
              <path class="cls-6" d="M370.67,196.19c1.05-.18,2.09-.37,3.14-.55,.14-1.57-2.06-2.73-3.28-1.74"/>
              <path class="cls-6" d="M372.33,202.22c1.05-.18,2.09-.37,3.14-.55l1.49-.63c.73-.39,1.31-.93,1.75-1.61,.39-.39,.66-.85,.8-1.38,.39-.75,.57-1.55,.54-2.41,0-.07,0-.15,0-.22,0-.04,0-.09-.01-.13-.06-.57-.13-1.19-.24-1.75-.01-.07-.03-.14-.05-.21-.01-.04-.03-.08-.04-.12-.2-.52-.43-1.07-.67-1.58-.03-.07-.07-.13-.1-.19-.02-.03-.04-.06-.06-.09-.32-.45-.69-.92-1.04-1.35-.1-.12-.21-.24-.34-.34-.46-.37-.93-.75-1.41-1.09-.07-.05-.14-.09-.21-.13s-.14-.08-.22-.11c-.5-.22-1.05-.46-1.56-.66-.04-.02-.08-.03-.12-.05-.41-.14-.87-.16-1.28-.22s-.86-.16-1.29-.12c-.56,.05-1.2,.14-1.75,.23-.05,0-.09,.02-.14,.03-.08,.02-.16,.05-.24,.08-.26,.1-.61,.26-.78,.33-.19,.08-.54,.21-.8,.34-.04,.02-.08,.04-.11,.06-.04,.02-.08,.05-.12,.08-.46,.32-.92,.7-1.36,1.05-.61,.57-1.04,1.24-1.29,2.01-.39,.75-.57,1.55-.54,2.41-.03,.86,.15,1.66,.54,2.41,.25,.78,.68,1.45,1.29,2.01l1.27,.98c.98,.57,2.03,.85,3.16,.85l1.66-.22c1.06-.3,1.98-.83,2.76-1.61l.03-.02-1.27,.98c.11-.08,.22-.15,.35-.21l-1.49,.63c.15-.06,.29-.1,.45-.12l-1.66,.22c.17-.02,.34-.02,.51,0l-1.66-.22c.21,.03,.41,.08,.61,.16l-1.49-.63c.2,.08,.38,.19,.55,.32l-1.27-.98c.16,.12,.3,.26,.42,.42l-.98-1.27c.09,.13,.17,.26,.24,.4l-.63-1.49c.06,.13,.1,.27,.12,.42l-.22-1.66c.02,.12,.02,.25,0,.37l4.59-6.03c-1.05,.18-2.09,.37-3.14,.55-.81,.19-1.52,.57-2.13,1.12-.68,.44-1.22,1.03-1.61,1.75-.46,.72-.7,1.49-.74,2.32-.19,.83-.15,1.66,.11,2.49l.63,1.49c.56,.94,1.3,1.69,2.24,2.24l1.49,.63c1.11,.3,2.22,.3,3.32,0h0Z"/>
            </g>
            <path class="cls-6" d="M386.31,168.89h-1.31c-.86-.03-1.66,.15-2.41,.54-.78,.25-1.45,.68-2.01,1.29-.61,.57-1.04,1.24-1.29,2.01-.39,.75-.57,1.55-.54,2.41l.22,1.66c.3,1.06,.83,1.98,1.61,2.76l1.27,.98c.98,.57,2.03,.85,3.16,.85h1.31c.86,.03,1.66-.15,2.41-.54,.78-.25,1.45-.68,2.01-1.29,.61-.57,1.04-1.24,1.29-2.01,.39-.75,.57-1.55,.54-2.41l-.22-1.66c-.3-1.06-.83-1.98-1.61-2.76l-1.27-.98c-.98-.57-2.03-.85-3.16-.85h0Z"/>
            <g>
              <path class="cls-6" d="M389.73,194.69c.17,.83,1.15,1.38,1.94,1.1"/>
              <path class="cls-6" d="M383.7,196.36c.01,.06,.03,.11,.05,.17,.19,.55,.43,1.08,.68,1.61,.02,.05,.05,.1,.08,.15,.01,.02,.03,.04,.04,.06,0,.01,.02,.03,.03,.04l.98,1.27c.07,.09,.14,.17,.23,.24,.44,.38,.91,.73,1.39,1.07,.04,.03,.09,.06,.14,.09s.1,.05,.15,.07c.46,.21,1.07,.46,1.54,.65,.03,.01,.06,.02,.08,.03,.35,.12,.81,.14,1.14,.18s.78,.15,1.14,.12c.6-.06,1.21-.12,1.8-.24,.06-.01,.11-.03,.17-.05,.81-.19,1.52-.57,2.13-1.12,.68-.44,1.22-1.03,1.61-1.75,.46-.72,.7-1.49,.74-2.32,.19-.83,.15-1.66-.11-2.49l-.63-1.49c-.56-.94-1.3-1.69-2.24-2.24l-1.49-.63c-1.11-.3-2.22-.3-3.32,0-.08,.03-.16,.05-.25,.06l1.66-.22c-.13,.02-.25,.02-.38,0l1.66,.22c-.14-.02-.28-.06-.41-.11l1.49,.63c-.13-.06-.26-.13-.37-.22l1.27,.98c-.11-.08-.2-.18-.28-.29l.98,1.27c-.07-.09-.13-.19-.18-.3l.63,1.49c-.03-.08-.06-.16-.08-.24-.19-.81-.57-1.52-1.12-2.13-.44-.68-1.03-1.22-1.75-1.61-.72-.46-1.49-.7-2.32-.74-.83-.19-1.66-.15-2.49,.11l-1.49,.63c-.94,.56-1.69,1.3-2.24,2.24l-.63,1.49c-.3,1.11-.3,2.22,0,3.32h0Z"/>
            </g>
            <g>
              <path class="cls-6" d="M378.26,189.98c-.34,1.94,3.09,2.82,3.94,1.04,.85-1.77-1.37-3.95-3.24-3.34-1.87,.61-2.58,3.21-1.57,4.9s3.26,2.37,5.17,1.93,3.51-1.81,4.67-3.4"/>
              <path class="cls-6" d="M372.23,188.32c-.09,.58-.24,1.26-.25,1.85,0,.37,.07,.72,.12,1.1,.14,1.04,.35,1.8,.88,2.77,.04,.07,.09,.14,.13,.22,.31,.47,.72,1.03,1.11,1.43,.06,.06,.13,.12,.19,.18,.45,.39,.97,.83,1.48,1.13,.6,.36,1.29,.62,1.95,.85,.19,.07,.39,.11,.59,.15,.49,.09,1.49,.28,2.17,.25,.72-.04,1.5-.1,2.2-.32,3.41-1.04,5.74-4.04,5.82-7.63,.02-.76-.1-1.55-.29-2.28-.03-.11-.07-.22-.11-.33-.23-.6-.46-1.25-.79-1.81-.81-1.36-1.86-2.32-3.15-3.2-.62-.42-1.39-.69-2.08-.94-.74-.27-1.59-.35-2.36-.39-.14,0-.28-.01-.42,0-.6,.04-1.31,.12-1.9,.26-.14,.03-.27,.08-.4,.12-.59,.21-1.21,.46-1.76,.76-.12,.07-.23,.14-.34,.22-.48,.35-1.01,.72-1.44,1.13-.55,.52-1.02,1.17-1.43,1.79s-.67,1.37-.94,2.06c-.1,.26-.19,.52-.24,.8-.32,1.73-.34,2.93-.01,4.65,.1,.52,.3,.95,.51,1.44,.22,.52,.4,1.01,.72,1.46,.97,1.37,1.93,2.39,3.38,3.28,.67,.41,1.44,.68,2.16,.97,.3,.12,.6,.22,.92,.28,1.56,.33,2.82,.38,4.35,.17s2.8-.64,4.21-1.36c1.09-.56,2.09-1.37,2.99-2.19s1.7-1.9,2.44-2.91c.46-.72,.7-1.49,.74-2.32,.19-.83,.15-1.66-.11-2.49-.4-1.45-1.52-3.02-2.87-3.74-1.45-.77-3.21-1.15-4.82-.63l-1.49,.63c-.94,.56-1.69,1.3-2.24,2.24-.06,.08-.12,.16-.18,.24l.98-1.27c-.53,.68-1.13,1.31-1.81,1.84l1.27-.98c-.52,.4-1.08,.73-1.68,.99l1.49-.63c-.46,.18-.92,.32-1.41,.4l1.66-.22c-.51,.07-1.01,.07-1.52,0l1.66,.22c-.46-.07-.89-.19-1.32-.37l1.49,.63c-.33-.15-.64-.33-.94-.54l1.27,.98c-.29-.22-.54-.47-.76-.76l.98,1.27c-.18-.24-.32-.49-.44-.77l.63,1.49c-.1-.27-.17-.53-.21-.81l.22,1.66c-.04-.32-.04-.64,0-.96l-.22,1.66c.05-.36,.14-.7,.28-1.04l-.63,1.49c.11-.25,.25-.49,.42-.71l-.98,1.27c.15-.18,.3-.35,.49-.5l-1.27,.98c.19-.14,.38-.26,.6-.36l-1.49,.63c.19-.08,.38-.13,.58-.17l-1.66,.22c.2-.02,.39-.02,.59,0l-1.66-.22c.24,.04,.47,.1,.69,.19l-1.49-.63c.26,.12,.5,.26,.73,.43l-1.27-.98c.19,.16,.36,.33,.51,.52l-.98-1.27c.14,.19,.26,.39,.36,.61l-.63-1.49c.07,.18,.13,.36,.16,.55l-.22-1.66c.02,.19,.03,.38,0,.57l.22-1.66c-.03,.16-.07,.3-.12,.45l.63-1.49c-.07,.15-.15,.29-.25,.43l.98-1.27c-.08,.09-.16,.17-.25,.25l1.27-.98c-.12,.09-.24,.16-.38,.22l1.49-.63c-.17,.07-.34,.11-.52,.15l1.66-.22c-.25,.03-.49,.03-.74,0l1.66,.22c-.25-.04-.48-.1-.72-.2l1.49,.63c-.17-.08-.32-.16-.47-.27l1.27,.98c-.14-.11-.26-.22-.37-.36l.98,1.27c-.08-.12-.15-.23-.21-.36l.63,1.49c-.04-.11-.07-.21-.09-.33l.22,1.66c-.01-.12-.01-.24,0-.36l-.22,1.66v-.09c.27-.83,.31-1.66,.13-2.49-.04-.83-.29-1.61-.74-2.32-.76-1.3-2.25-2.53-3.74-2.87-1.6-.36-3.4-.29-4.82,.63l-1.27,.98c-.78,.78-1.31,1.7-1.61,2.76h0Z"/>
            </g>
            <g>
              <path class="cls-6" d="M390.87,202.58c2.82,.72,6.02-.35,7.84-2.62"/>
              <path class="cls-6" d="M389.21,208.61c.88,.22,1.79,.31,2.69,.41,.38,.04,.77,.05,1.16,.03,.88-.05,1.77-.18,2.64-.34,.38-.07,.76-.16,1.13-.29,.82-.27,1.63-.63,2.41-1,.35-.17,.69-.36,1.01-.58,1.03-.7,2.09-1.49,2.89-2.46,.61-.57,1.04-1.24,1.29-2.01,.39-.75,.57-1.55,.54-2.41,.03-.86-.15-1.66-.54-2.41-.25-.78-.68-1.45-1.29-2.01-1.19-1.09-2.76-1.91-4.42-1.83l-1.66,.22c-1.06,.3-1.98,.83-2.76,1.61-.37,.45-.78,.85-1.25,1.21l1.27-.98c-.53,.4-1.1,.73-1.7,.99l1.49-.63c-.65,.27-1.32,.46-2.01,.56l1.66-.22c-.69,.09-1.39,.1-2.08,.01l1.66,.22c-.27-.04-.53-.09-.8-.15-1.6-.39-3.38-.21-4.82,.63-.73,.39-1.31,.93-1.75,1.61-.55,.6-.93,1.31-1.12,2.13-.36,1.6-.29,3.4,.63,4.82s2.14,2.48,3.74,2.87h0Z"/>
            </g>
            <path class="cls-6" d="M398.71,208.16c3.27,0,6.4-2.88,6.25-6.25s-2.75-6.25-6.25-6.25c-3.27,0-6.4,2.88-6.25,6.25s2.75,6.25,6.25,6.25h0Z"/>
            <g>
              <path class="cls-6" d="M383.02,199.89l1.95-.69"/>
              <path class="cls-6" d="M384.69,205.92l1.95-.69c.81-.19,1.52-.57,2.13-1.12,.68-.44,1.22-1.03,1.61-1.75,.46-.72,.7-1.49,.74-2.32,.19-.83,.15-1.66-.11-2.49l-.63-1.49c-.56-.94-1.3-1.69-2.24-2.24l-1.49-.63c-1.11-.3-2.22-.3-3.32,0-.65,.23-1.3,.46-1.95,.69-.81,.19-1.52,.57-2.13,1.12-.68,.44-1.22,1.03-1.61,1.75-.46,.72-.7,1.49-.74,2.32-.19,.83-.15,1.66,.11,2.49l.63,1.49c.56,.94,1.3,1.69,2.24,2.24l1.49,.63c1.11,.3,2.22,.3,3.32,0h0Z"/>
            </g>
            <g>
              <path class="cls-6" d="M383.15,199.93c.21,.89-.51,1.87-1.41,1.95"/>
              <path class="cls-6" d="M377.12,201.59s.02,.09,.02,.13l-.22-1.66c.02,.13,.02,.26,0,.39l.22-1.66c-.02,.15-.06,.29-.12,.42l.63-1.49c-.06,.14-.13,.26-.22,.38l.98-1.27c-.09,.12-.2,.22-.31,.31l1.27-.98c-.11,.08-.23,.15-.36,.21l1.49-.63c-.11,.05-.23,.08-.35,.1l1.66-.22s-.05,0-.08,0c-.86-.03-1.66,.15-2.41,.54-.78,.25-1.45,.68-2.01,1.29-.61,.57-1.04,1.24-1.29,2.01-.39,.75-.57,1.55-.54,2.41l.22,1.66c.3,1.06,.83,1.98,1.61,2.76l1.27,.98c.98,.57,2.03,.85,3.16,.85,.61-.06,1.22-.13,1.82-.25,.06-.01,.12-.03,.17-.05,.03-.01,.06-.02,.1-.04l1.49-.63s.03-.01,.05-.02c.05-.03,.11-.05,.16-.08,.55-.34,1.06-.74,1.53-1.18,.04-.04,.08-.08,.12-.12,.39-.44,.73-.92,1.08-1.39,.07-.09,.13-.2,.18-.3,.25-.54,.49-1.08,.69-1.64,.02-.06,.04-.11,.05-.17,.35-1.46,.34-2.53,0-3.99-.19-.81-.57-1.52-1.12-2.13-.44-.68-1.03-1.22-1.75-1.61-.72-.46-1.49-.7-2.32-.74-.83-.19-1.66-.15-2.49,.11l-1.49,.63c-.94,.56-1.69,1.3-2.24,2.24l-.63,1.49c-.3,1.11-.3,2.22,0,3.32h0Z"/>
            </g>
            <path class="cls-6" d="M401.32,201.63h.65c.86,.03,1.66-.15,2.41-.54,.78-.25,1.45-.68,2.01-1.29,.61-.57,1.04-1.24,1.29-2.01,.39-.75,.57-1.55,.54-2.41l-.22-1.66c-.3-1.06-.83-1.98-1.61-2.76l-1.27-.98c-.98-.57-2.03-.85-3.16-.85h-.65c-.86-.03-1.66,.15-2.41,.54-.78,.25-1.45,.68-2.01,1.29-.61,.57-1.04,1.24-1.29,2.01-.39,.75-.57,1.55-.54,2.41l.22,1.66c.3,1.06,.83,1.98,1.61,2.76l1.27,.98c.98,.57,2.03,.85,3.16,.85h0Z"/>
            <g>
              <path class="cls-6" d="M396.04,188.64c.66-.19,1.32-.38,1.98-.57"/>
              <path class="cls-6" d="M397.7,194.67c.66-.19,1.32-.38,1.98-.57,.81-.19,1.52-.57,2.13-1.12,.68-.44,1.22-1.03,1.61-1.75,.46-.72,.7-1.49,.74-2.32,.19-.83,.15-1.66-.11-2.49l-.63-1.49c-.56-.94-1.3-1.69-2.24-2.24l-1.49-.63c-1.11-.3-2.22-.3-3.32,0-.66,.19-1.32,.38-1.98,.57-.81,.19-1.52,.57-2.13,1.12-.68,.44-1.22,1.03-1.61,1.75-.46,.72-.7,1.49-.74,2.32-.19,.83-.15,1.66,.11,2.49l.63,1.49c.56,.94,1.3,1.69,2.24,2.24l1.49,.63c1.11,.3,2.22,.3,3.32,0h0Z"/>
            </g>
            <g>
              <path class="cls-6" d="M410.57,201.65c1.25-.35,1.84,2.1,.57,2.35"/>
              <path class="cls-6" d="M412.23,207.68s.08-.02,.12-.03l-1.66,.22c.07,0,.14-.01,.22,0l-1.66-.22c.07,.01,.15,.03,.22,.06l-1.49-.63c.07,.03,.13,.07,.19,.11l-1.27-.98c.08,.06,.14,.13,.2,.2l-.98-1.27c.08,.1,.14,.21,.19,.33l-.63-1.49c.06,.14,.1,.29,.12,.44l-.22-1.66c.02,.14,.02,.29,0,.43l.22-1.66c-.02,.1-.04,.2-.08,.3l.63-1.49c-.03,.07-.07,.14-.12,.21l.98-1.27c-.04,.05-.09,.1-.15,.14l1.27-.98c-.05,.04-.11,.07-.17,.1l1.49-.63c-.06,.02-.12,.04-.18,.06-.81,.19-1.52,.57-2.13,1.12-.68,.44-1.22,1.03-1.61,1.75-.46,.72-.7,1.49-.74,2.32-.19,.83-.15,1.66,.11,2.49l.63,1.49c.56,.94,1.3,1.69,2.24,2.24l1.49,.63c1.11,.3,2.22,.3,3.32,0,.06-.01,.12-.03,.18-.06-.04,.02,1.18-.41,1.64-.71s.98-.66,1.38-1.07c.02-.02,.04-.04,.05-.06,.18-.22,.83-1.05,.99-1.28,.01-.02,.02-.03,.03-.05,.03-.05,.06-.1,.08-.15,.15-.32,.51-1.18,.64-1.51,0-.01,0-.02,.01-.04,.01-.03,.02-.07,.03-.1,0-.03,.01-.06,.02-.09,0-.01,0-.03,0-.04,.07-.42,.18-1.26,.23-1.68,0-.07,.01-.13,.01-.2,0-.06,0-.12,0-.18,0-.02,0-.03,0-.05-.06-.47-.15-1.22-.23-1.68,0-.03-.01-.07-.02-.1-.01-.06-.03-.12-.05-.18-.19-.57-.45-1.12-.69-1.66s-.92-1.28-1.16-1.57c-.04-.05-.07-.09-.12-.13-.02-.02-.04-.03-.06-.05-.21-.18-.59-.46-.66-.51-.1-.08-.44-.36-.66-.51-.27-.18-.67-.31-.91-.41-.22-.09-.61-.31-.92-.37-.59-.12-1.22-.26-1.84-.23-.02,0-.03,0-.05,0-.01,0-.02,0-.03,0l-1.66,.22s-.08,.02-.12,.03c-.81,.19-1.52,.57-2.13,1.12-.68,.44-1.22,1.03-1.61,1.75-.46,.72-.7,1.49-.74,2.32-.19,.83-.15,1.66,.11,2.49l.63,1.49c.56,.94,1.3,1.69,2.24,2.24l1.49,.63c1.11,.3,2.22,.3,3.32,0h0Z"/>
            </g>
            <g>
              <path class="cls-6" d="M403.93,206.48c3.26-.22,6.53-.44,9.79-.65"/>
              <path class="cls-6" d="M403.93,212.73c3.26-.22,6.53-.44,9.79-.65,1.67-.11,3.21-.62,4.42-1.83,1.08-1.08,1.9-2.86,1.83-4.42s-.6-3.29-1.83-4.42-2.77-1.94-4.42-1.83c-3.26,.22-6.53,.44-9.79,.65-1.67,.11-3.21,.62-4.42,1.83-1.08,1.08-1.9,2.86-1.83,4.42s.6,3.29,1.83,4.42,2.77,1.94,4.42,1.83h0Z"/>
            </g>
            <g>
              <path class="cls-6" d="M407.2,195.38c1.09-.22,2.18-.44,3.26-.65"/>
              <path class="cls-6" d="M408.86,201.41c1.09-.22,2.18-.44,3.26-.65,.81-.19,1.52-.57,2.13-1.12,.68-.44,1.22-1.03,1.61-1.75,.46-.72,.7-1.49,.74-2.32,.19-.83,.15-1.66-.11-2.49l-.63-1.49c-.56-.94-1.3-1.69-2.24-2.24l-1.49-.63c-1.11-.3-2.22-.3-3.32,0-1.09,.22-2.18,.44-3.26,.65-.81,.19-1.52,.57-2.13,1.12-.68,.44-1.22,1.03-1.61,1.75-.46,.72-.7,1.49-.74,2.32-.19,.83-.15,1.66,.11,2.49l.63,1.49c.56,.94,1.3,1.69,2.24,2.24l1.49,.63c1.11,.3,2.22,.3,3.32,0h0Z"/>
            </g>
            <path class="cls-6" d="M415.03,184.56h-.65c-.86-.03-1.66,.15-2.41,.54-.78,.25-1.45,.68-2.01,1.29-.61,.57-1.04,1.24-1.29,2.01-.39,.75-.57,1.55-.54,2.41l.22,1.66c.3,1.06,.83,1.98,1.61,2.76l1.27,.98c.98,.57,2.03,.85,3.16,.85h.65c.86,.03,1.66-.15,2.41-.54,.78-.25,1.45-.68,2.01-1.29,.61-.57,1.04-1.24,1.29-2.01,.39-.75,.57-1.55,.54-2.41l-.22-1.66c-.3-1.06-.83-1.98-1.61-2.76l-1.27-.98c-.98-.57-2.03-.85-3.16-.85h0Z"/>
            <path class="cls-6" d="M427.43,202.94c3.27,0,6.4-2.88,6.25-6.25s-2.75-6.25-6.25-6.25c-3.27,0-6.4,2.88-6.25,6.25s2.75,6.25,6.25,6.25h0Z"/>
            <g>
              <path class="cls-6" d="M428.09,201.91c-.44-.44-.87-.87-1.31-1.31"/>
              <path class="cls-6" d="M432.51,197.49c-.44-.44-.87-.87-1.31-1.31-.57-.61-1.24-1.04-2.01-1.29-.75-.39-1.55-.57-2.41-.54-.86-.03-1.66,.15-2.41,.54-.78,.25-1.45,.68-2.01,1.29l-.98,1.27c-.57,.98-.85,2.03-.85,3.16l.22,1.66c.3,1.06,.83,1.98,1.61,2.76,.44,.44,.87,.87,1.31,1.31,.57,.61,1.24,1.04,2.01,1.29,.75,.39,1.55,.57,2.41,.54,.86,.03,1.66-.15,2.41-.54,.78-.25,1.45-.68,2.01-1.29l.98-1.27c.57-.98,.85-2.03,.85-3.16l-.22-1.66c-.3-1.06-.83-1.98-1.61-2.76h0Z"/>
            </g>
            <path class="cls-6" d="M420.9,202.94c3.27,0,6.4-2.88,6.25-6.25s-2.75-6.25-6.25-6.25c-3.27,0-6.4,2.88-6.25,6.25s2.75,6.25,6.25,6.25h0Z"/>
            <path class="cls-6" d="M430.04,202.94h.65c.86,.03,1.66-.15,2.41-.54,.78-.25,1.45-.68,2.01-1.29,.61-.57,1.04-1.24,1.29-2.01,.39-.75,.57-1.55,.54-2.41l-.22-1.66c-.3-1.06-.83-1.98-1.61-2.76l-1.27-.98c-.98-.57-2.03-.85-3.16-.85h-.65c-.86-.03-1.66,.15-2.41,.54-.78,.25-1.45,.68-2.01,1.29-.61,.57-1.04,1.24-1.29,2.01-.39,.75-.57,1.55-.54,2.41l.22,1.66c.3,1.06,.83,1.98,1.61,2.76l1.27,.98c.98,.57,2.03,.85,3.16,.85h0Z"/>
            <path class="cls-6" d="M439.84,206.86c3.27,0,6.4-2.88,6.25-6.25s-2.75-6.25-6.25-6.25c-3.27,0-6.4,2.88-6.25,6.25s2.75,6.25,6.25,6.25h0Z"/>
            <g>
              <path class="cls-6" d="M432.63,191.54c-.65-.21-1.31-.43-1.96-.64"/>
              <path class="cls-6" d="M434.29,185.51c-.65-.21-1.31-.43-1.96-.64-.83-.26-1.66-.3-2.49-.11-.83,.04-1.61,.29-2.32,.74-.73,.39-1.31,.93-1.75,1.61-.55,.6-.93,1.31-1.12,2.13l-.22,1.66c0,1.13,.29,2.18,.85,3.16l.98,1.27c.78,.78,1.7,1.31,2.76,1.61,.65,.21,1.31,.43,1.96,.64,.83,.26,1.66,.3,2.49,.11,.83-.04,1.61-.29,2.32-.74,.73-.39,1.31-.93,1.75-1.61,.55-.6,.93-1.31,1.12-2.13l.22-1.66c0-1.13-.29-2.18-.85-3.16l-.98-1.27c-.78-.78-1.7-1.31-2.76-1.61h0Z"/>
            </g>
            <path class="cls-6" d="M422.86,195.76h.65c.86,.03,1.66-.15,2.41-.54,.78-.25,1.45-.68,2.01-1.29,.61-.57,1.04-1.24,1.29-2.01,.39-.75,.57-1.55,.54-2.41l-.22-1.66c-.3-1.06-.83-1.98-1.61-2.76l-1.27-.98c-.98-.57-2.03-.85-3.16-.85h-.65c-.86-.03-1.66,.15-2.41,.54-.78,.25-1.45,.68-2.01,1.29-.61,.57-1.04,1.24-1.29,2.01-.39,.75-.57,1.55-.54,2.41l.22,1.66c.3,1.06,.83,1.98,1.61,2.76l1.27,.98c.98,.57,2.03,.85,3.16,.85h0Z"/>
            <path class="cls-6" d="M435.54,185.59v.65c-.03,.86,.15,1.66,.54,2.41,.25,.78,.68,1.45,1.29,2.01,.57,.61,1.24,1.04,2.01,1.29,.75,.39,1.55,.57,2.41,.54l1.66-.22c1.06-.3,1.98-.83,2.76-1.61l.98-1.27c.57-.98,.85-2.03,.85-3.16v-.65c.03-.86-.15-1.66-.54-2.41-.25-.78-.68-1.45-1.29-2.01-.57-.61-1.24-1.04-2.01-1.29-.75-.39-1.55-.57-2.41-.54l-1.66,.22c-1.06,.3-1.98,.83-2.76,1.61l-.98,1.27c-.57,.98-.85,2.03-.85,3.16h0Z"/>
            <path class="cls-6" d="M446.36,189.13h-.65c-.86-.03-1.66,.15-2.41,.54-.78,.25-1.45,.68-2.01,1.29-.61,.57-1.04,1.24-1.29,2.01-.39,.75-.57,1.55-.54,2.41l.22,1.66c.3,1.06,.83,1.98,1.61,2.76l1.27,.98c.98,.57,2.03,.85,3.16,.85h.65c.86,.03,1.66-.15,2.41-.54,.78-.25,1.45-.68,2.01-1.29,.61-.57,1.04-1.24,1.29-2.01,.39-.75,.57-1.55,.54-2.41l-.22-1.66c-.3-1.06-.83-1.98-1.61-2.76l-1.27-.98c-.98-.57-2.03-.85-3.16-.85h0Z"/>
            <path class="cls-6" d="M443.75,206.2c3.27,0,6.4-2.88,6.25-6.25s-2.75-6.25-6.25-6.25c-3.27,0-6.4,2.88-6.25,6.25s2.75,6.25,6.25,6.25h0Z"/>
            <path class="cls-6" d="M416.34,206.86c3.27,0,6.4-2.88,6.25-6.25s-2.75-6.25-6.25-6.25c-3.27,0-6.4,2.88-6.25,6.25s2.75,6.25,6.25,6.25h0Z"/>
            <g>
              <path class="cls-6" d="M422.19,204.65c2.39,.44,4.78,.89,7.18,1.33"/>
              <path class="cls-6" d="M420.52,210.68c2.39,.44,4.78,.89,7.18,1.33,.83,.26,1.66,.3,2.49,.11,.83-.04,1.61-.29,2.32-.74,.73-.39,1.31-.93,1.75-1.61,.55-.6,.93-1.31,1.12-2.13,.36-1.6,.29-3.4-.63-4.82-.84-1.3-2.15-2.58-3.74-2.87-2.39-.44-4.78-.89-7.18-1.33-.83-.26-1.66-.3-2.49-.11-.83,.04-1.61,.29-2.32,.74-.73,.39-1.31,.93-1.75,1.61-.55,.6-.93,1.31-1.12,2.13-.36,1.6-.29,3.4,.63,4.82,.84,1.3,2.15,2.58,3.74,2.87h0Z"/>
            </g>
            <path class="cls-6" d="M435.27,209.47h.65c.86,.03,1.66-.15,2.41-.54,.78-.25,1.45-.68,2.01-1.29,.61-.57,1.04-1.24,1.29-2.01,.39-.75,.57-1.55,.54-2.41l-.22-1.66c-.3-1.06-.83-1.98-1.61-2.76l-1.27-.98c-.98-.57-2.03-.85-3.16-.85h-.65c-.86-.03-1.66,.15-2.41,.54-.78,.25-1.45,.68-2.01,1.29-.61,.57-1.04,1.24-1.29,2.01-.39,.75-.57,1.55-.54,2.41l.22,1.66c.3,1.06,.83,1.98,1.61,2.76l1.27,.98c.98,.57,2.03,.85,3.16,.85h0Z"/>
            <path class="cls-6" d="M442.45,208.82c3.27,0,6.4-2.88,6.25-6.25s-2.75-6.25-6.25-6.25c-3.27,0-6.4,2.88-6.25,6.25s2.75,6.25,6.25,6.25h0Z"/>
            <path class="cls-6" d="M447.02,205.55c3.27,0,6.4-2.88,6.25-6.25s-2.75-6.25-6.25-6.25c-3.27,0-6.4,2.88-6.25,6.25s2.75,6.25,6.25,6.25h0Z"/>
            <g>
              <path class="cls-6" d="M432.01,187.59c-.87,.22-1.74,.45-2.61,.67"/>
              <path class="cls-6" d="M430.35,181.56c-.87,.22-1.74,.45-2.61,.67-.81,.19-1.52,.57-2.13,1.12-.68,.44-1.22,1.03-1.61,1.75-.46,.72-.7,1.49-.74,2.32-.19,.83-.15,1.66,.11,2.49l.63,1.49c.56,.94,1.3,1.69,2.24,2.24l1.49,.63c1.11,.3,2.22,.3,3.32,0,.87-.22,1.74-.45,2.61-.67,.81-.19,1.52-.57,2.13-1.12,.68-.44,1.22-1.03,1.61-1.75,.46-.72,.7-1.49,.74-2.32,.19-.83,.15-1.66-.11-2.49l-.63-1.49c-.56-.94-1.3-1.69-2.24-2.24l-1.49-.63c-1.11-.3-2.22-.3-3.32,0h0Z"/>
            </g>
            <g>
              <path class="cls-6" d="M424.83,187.69c-1.74,.06-3.48,.12-5.22,.18"/>
              <path class="cls-6" d="M424.83,181.43c-1.74,.06-3.48,.12-5.22,.18-.86-.03-1.66,.15-2.41,.54-.78,.25-1.45,.68-2.01,1.29-.61,.57-1.04,1.24-1.29,2.01-.39,.75-.57,1.55-.54,2.41l.22,1.66c.3,1.06,.83,1.98,1.61,2.76l1.27,.98c.98,.57,2.03,.85,3.16,.85,1.74-.06,3.48-.12,5.22-.18,.86,.03,1.66-.15,2.41-.54,.78-.25,1.45-.68,2.01-1.29,.61-.57,1.04-1.24,1.29-2.01,.39-.75,.57-1.55,.54-2.41l-.22-1.66c-.3-1.06-.83-1.98-1.61-2.76l-1.27-.98c-.98-.57-2.03-.85-3.16-.85h0Z"/>
            </g>
            <g>
              <path class="cls-6" d="M413.07,188.2c-1.52,.44-3.05,.87-4.57,1.31"/>
              <path class="cls-6" d="M411.41,182.17c-1.52,.44-3.05,.87-4.57,1.31-.81,.19-1.52,.57-2.13,1.12-.68,.44-1.22,1.03-1.61,1.75-.46,.72-.7,1.49-.74,2.32-.19,.83-.15,1.66,.11,2.49l.63,1.49c.56,.94,1.3,1.69,2.24,2.24l1.49,.63c1.11,.3,2.22,.3,3.32,0,1.52-.44,3.05-.87,4.57-1.31,.81-.19,1.52-.57,2.13-1.12,.68-.44,1.22-1.03,1.61-1.75,.46-.72,.7-1.49,.74-2.32,.19-.83,.15-1.66-.11-2.49l-.63-1.49c-.56-.94-1.3-1.69-2.24-2.24l-1.49-.63c-1.11-.3-2.22-.3-3.32,0h0Z"/>
            </g>
            <g>
              <path class="cls-6" d="M403.28,189.51c-.65,.22-1.31,.44-1.96,.65"/>
              <path class="cls-6" d="M401.62,183.48c-.65,.22-1.31,.44-1.96,.65-.81,.19-1.52,.57-2.13,1.12-.68,.44-1.22,1.03-1.61,1.75-.46,.72-.7,1.49-.74,2.32-.19,.83-.15,1.66,.11,2.49l.63,1.49c.56,.94,1.3,1.69,2.24,2.24l1.49,.63c1.11,.3,2.22,.3,3.32,0,.65-.22,1.31-.44,1.96-.65,.81-.19,1.52-.57,2.13-1.12,.68-.44,1.22-1.03,1.61-1.75,.46-.72,.7-1.49,.74-2.32,.19-.83,.15-1.66-.11-2.49l-.63-1.49c-.56-.94-1.3-1.69-2.24-2.24l-1.49-.63c-1.11-.3-2.22-.3-3.32,0h0Z"/>
            </g>
            <g>
              <path class="cls-6" d="M402.61,189.4c-.32,.06-.3-.62,.02-.54"/>
              <path class="cls-6" d="M400.94,183.37s0,0,0,0l1.66-.22s-.04,0-.05,0l1.66,.22s-.03,0-.04-.01l1.49,.63s-.02-.01-.03-.02l1.27,.98s-.02-.02-.03-.03l.98,1.27s-.02-.03-.03-.05l.63,1.49s-.02-.06-.02-.09l.22,1.66s0-.07,0-.11l-.22,1.66s.01-.06,.02-.09l-.63,1.49s.02-.04,.04-.06l-.98,1.27s.02-.02,.03-.03l-1.27,.98s.02-.02,.04-.02l-1.49,.63s.03,0,.04-.01l-1.66,.22s.03,0,.05,0l-1.66-.22s.02,0,.03,0c.83,.26,1.66,.3,2.49,.11,.83-.04,1.61-.29,2.32-.74,.73-.39,1.31-.93,1.75-1.61,.55-.6,.93-1.31,1.12-2.13l.22-1.66c0-1.13-.29-2.18-.85-3.16l-.98-1.27c-.78-.78-1.7-1.31-2.76-1.61,0,0-.02,0-.03,0-.03,0-1.64-.22-1.67-.22,0,0,0,0-.01,0,0,0-.01,0-.02,0,0,0,0,0-.01,0l-1.66,.22s0,0,0,0c-.54,.12-1.07,.41-1.53,.64-.01,0-.02,.01-.03,.02-1.13,.83-1.55,1.08-2.29,2.3,0,.01-.01,.02-.02,.04-.22,.48-.49,1-.64,1.53,0,.01,0,.03,0,.04,0,0,0,0,0,.01-.02,.11-.21,1.56-.22,1.67,0,0,0,.02,0,.03,0,.02,0,.03,0,.05,0,0,0,.01,0,.02,0,0,0,0,0,.01l.22,1.66s0,0,0,0c0,.02,0,.03,0,.05,0,0,0,.01,0,.02,.18,.5,1.04,2.38,.64,1.51,0,.01,.01,.02,.02,.03,0,0,0,.01,.01,.02,.02,.03,.96,1.24,.98,1.27,0,0,0,0,0,.01,.81,.86,1.73,1.28,2.83,1.65,0,0,.01,0,.02,0,.55,.12,1.12,.18,1.68,.23,0,0,.02,0,.03,0,.57-.03,1.13-.13,1.69-.23,.81-.19,1.52-.57,2.13-1.12,.68-.44,1.22-1.03,1.61-1.75,.46-.72,.7-1.49,.74-2.32,.19-.83,.15-1.66-.11-2.49l-.63-1.49c-.56-.94-1.3-1.69-2.24-2.24l-1.49-.63c-1.11-.3-2.22-.3-3.32,0h0Z"/>
            </g>
            <path class="cls-6" d="M403.28,181.95h-.65c-.86-.03-1.66,.15-2.41,.54-.78,.25-1.45,.68-2.01,1.29-.61,.57-1.04,1.24-1.29,2.01-.39,.75-.57,1.55-.54,2.41l.22,1.66c.3,1.06,.83,1.98,1.61,2.76l1.27,.98c.98,.57,2.03,.85,3.16,.85h.65c.86,.03,1.66-.15,2.41-.54,.78-.25,1.45-.68,2.01-1.29,.61-.57,1.04-1.24,1.29-2.01,.39-.75,.57-1.55,.54-2.41l-.22-1.66c-.3-1.06-.83-1.98-1.61-2.76l-1.27-.98c-.98-.57-2.03-.85-3.16-.85h0Z"/>
            <path class="cls-6" d="M375.86,203.59c3.27,0,6.4-2.88,6.25-6.25s-2.75-6.25-6.25-6.25c-3.27,0-6.4,2.88-6.25,6.25s2.75,6.25,6.25,6.25h0Z"/>
            <g>
              <path class="cls-6" d="M379.18,200.67c-.87,.65-1.74,1.3-2.61,1.96"/>
              <path class="cls-6" d="M376.02,195.28c-.87,.65-1.74,1.3-2.61,1.96-.73,.39-1.31,.93-1.75,1.61-.55,.6-.93,1.31-1.12,2.13-.26,.83-.3,1.66-.11,2.49,.04,.83,.29,1.61,.74,2.32l.98,1.27c.78,.78,1.7,1.31,2.76,1.61l1.66,.22c1.13,0,2.18-.29,3.16-.85,.87-.65,1.74-1.3,2.61-1.96,.73-.39,1.31-.93,1.75-1.61,.55-.6,.93-1.31,1.12-2.13,.26-.83,.3-1.66,.11-2.49-.04-.83-.29-1.61-.74-2.32l-.98-1.27c-.78-.78-1.7-1.31-2.76-1.61l-1.66-.22c-1.13,0-2.18,.29-3.16,.85h0Z"/>
            </g>
            <g>
              <path class="cls-6" d="M368.68,199.3c-.65-.22-1.31-.44-1.96-.65"/>
              <path class="cls-6" d="M370.34,193.27c-.65-.22-1.31-.44-1.96-.65-.83-.26-1.66-.3-2.49-.11-.83,.04-1.61,.29-2.32,.74-.73,.39-1.31,.93-1.75,1.61-.55,.6-.93,1.31-1.12,2.13l-.22,1.66c0,1.13,.29,2.18,.85,3.16l.98,1.27c.78,.78,1.7,1.31,2.76,1.61,.65,.22,1.31,.44,1.96,.65,.83,.26,1.66,.3,2.49,.11,.83-.04,1.61-.29,2.32-.74,.73-.39,1.31-.93,1.75-1.61,.55-.6,.93-1.31,1.12-2.13l.22-1.66c0-1.13-.29-2.18-.85-3.16l-.98-1.27c-.78-.78-1.7-1.31-2.76-1.61h0Z"/>
            </g>
            <g>
              <path class="cls-6" d="M387.63,203.14c1.09,.21,2.18,.43,3.27,.64"/>
              <path class="cls-6" d="M385.96,209.17c1.09,.21,2.18,.43,3.27,.64,.83,.26,1.66,.3,2.49,.11,.83-.04,1.61-.29,2.32-.74,.73-.39,1.31-.93,1.75-1.61,.55-.6,.93-1.31,1.12-2.13l.22-1.66c0-1.13-.29-2.18-.85-3.16l-.98-1.27c-.78-.78-1.7-1.31-2.76-1.61-1.09-.21-2.18-.43-3.27-.64-.83-.26-1.66-.3-2.49-.11-.83,.04-1.61,.29-2.32,.74-.73,.39-1.31,.93-1.75,1.61-.55,.6-.93,1.31-1.12,2.13l-.22,1.66c0,1.13,.29,2.18,.85,3.16l.98,1.27c.78,.78,1.7,1.31,2.76,1.61h0Z"/>
            </g>
            <path class="cls-6" d="M398.71,211.43h.65c.86,.03,1.66-.15,2.41-.54,.78-.25,1.45-.68,2.01-1.29,.61-.57,1.04-1.24,1.29-2.01,.39-.75,.57-1.55,.54-2.41l-.22-1.66c-.3-1.06-.83-1.98-1.61-2.76l-1.27-.98c-.98-.57-2.03-.85-3.16-.85h-.65c-.86-.03-1.66,.15-2.41,.54-.78,.25-1.45,.68-2.01,1.29-.61,.57-1.04,1.24-1.29,2.01-.39,.75-.57,1.55-.54,2.41l.22,1.66c.3,1.06,.83,1.98,1.61,2.76l1.27,.98c.98,.57,2.03,.85,3.16,.85h0Z"/>
            <path class="cls-6" d="M364.77,199.02c3.27,0,6.4-2.88,6.25-6.25s-2.75-6.25-6.25-6.25c-3.27,0-6.4,2.88-6.25,6.25s2.75,6.25,6.25,6.25h0Z"/>
            <path class="cls-6" d="M407.57,186.24v-.65c.03-.86-.15-1.66-.54-2.41-.25-.78-.68-1.45-1.29-2.01-.57-.61-1.24-1.04-2.01-1.29-.75-.39-1.55-.57-2.41-.54l-1.66,.22c-1.06,.3-1.98,.83-2.76,1.61l-.98,1.27c-.57,.98-.85,2.03-.85,3.16v.65c-.03,.86,.15,1.66,.54,2.41,.25,.78,.68,1.45,1.29,2.01,.57,.61,1.24,1.04,2.01,1.29,.75,.39,1.55,.57,2.41,.54l1.66-.22c1.06-.3,1.98-.83,2.76-1.61l.98-1.27c.57-.98,.85-2.03,.85-3.16h0Z"/>
            <path class="cls-6" d="M405.89,189.88c3.27,0,6.4-2.88,6.25-6.25s-2.75-6.25-6.25-6.25c-3.27,0-6.4,2.88-6.25,6.25s2.75,6.25,6.25,6.25h0Z"/>
            <path class="cls-6" d="M414.38,197.06c3.27,0,6.4-2.88,6.25-6.25s-2.75-6.25-6.25-6.25c-3.27,0-6.4,2.88-6.25,6.25s2.75,6.25,6.25,6.25h0Z"/>
            <path class="cls-6" d="M422.21,197.06c3.27,0,6.4-2.88,6.25-6.25s-2.75-6.25-6.25-6.25c-3.27,0-6.4,2.88-6.25,6.25s2.75,6.25,6.25,6.25h0Z"/>
            <path class="cls-6" d="M424.82,190.54c3.27,0,6.4-2.88,6.25-6.25s-2.75-6.25-6.25-6.25c-3.27,0-6.4,2.88-6.25,6.25s2.75,6.25,6.25,6.25h0Z"/>
            <g>
              <path class="cls-6" d="M424.75,184.34c-.65-.87-1.3-1.75-1.95-2.62"/>
              <path class="cls-6" d="M430.15,181.18c-.65-.87-1.3-1.75-1.95-2.62-.39-.73-.93-1.31-1.61-1.75-.6-.55-1.31-.93-2.13-1.12-.83-.26-1.66-.3-2.49-.11-.83,.04-1.61,.29-2.32,.74l-1.27,.98c-.78,.78-1.31,1.7-1.61,2.76l-.22,1.66c0,1.13,.29,2.18,.85,3.16,.65,.87,1.3,1.75,1.95,2.62,.39,.73,.93,1.31,1.61,1.75,.6,.55,1.31,.93,2.13,1.12,.83,.26,1.66,.3,2.49,.11,.83-.04,1.61-.29,2.32-.74l1.27-.98c.78-.78,1.31-1.7,1.61-2.76l.22-1.66c0-1.13-.29-2.18-.85-3.16h0Z"/>
            </g>
            <path class="cls-6" d="M405.89,204.9c3.27,0,6.4-2.88,6.25-6.25s-2.75-6.25-6.25-6.25c-3.27,0-6.4,2.88-6.25,6.25s2.75,6.25,6.25,6.25h0Z"/>
            <path class="cls-6" d="M405.89,204.9h.65c.86,.03,1.66-.15,2.41-.54,.78-.25,1.45-.68,2.01-1.29,.61-.57,1.04-1.24,1.29-2.01,.39-.75,.57-1.55,.54-2.41l-.22-1.66c-.3-1.06-.83-1.98-1.61-2.76l-1.27-.98c-.98-.57-2.03-.85-3.16-.85h-.65c-.86-.03-1.66,.15-2.41,.54-.78,.25-1.45,.68-2.01,1.29-.61,.57-1.04,1.24-1.29,2.01-.39,.75-.57,1.55-.54,2.41l.22,1.66c.3,1.06,.83,1.98,1.61,2.76l1.27,.98c.98,.57,2.03,.85,3.16,.85h0Z"/>
            <path class="cls-6" d="M435.92,197.06c3.27,0,6.4-2.88,6.25-6.25s-2.75-6.25-6.25-6.25c-3.27,0-6.4,2.88-6.25,6.25s2.75,6.25,6.25,6.25h0Z"/>
            <path class="cls-6" d="M439.84,196.41c3.27,0,6.4-2.88,6.25-6.25s-2.75-6.25-6.25-6.25c-3.27,0-6.4,2.88-6.25,6.25s2.75,6.25,6.25,6.25h0Z"/>
            <path class="cls-6" d="M422.86,185.31c3.27,0,6.4-2.88,6.25-6.25s-2.75-6.25-6.25-6.25c-3.27,0-6.4,2.88-6.25,6.25s2.75,6.25,6.25,6.25h0Z"/>
            <path class="cls-6" d="M411.77,174.77h-.65c-.86-.03-1.66,.15-2.41,.54-.78,.25-1.45,.68-2.01,1.29-.61,.57-1.04,1.24-1.29,2.01-.39,.75-.57,1.55-.54,2.41l.22,1.66c.3,1.06,.83,1.98,1.61,2.76l1.27,.98c.98,.57,2.03,.85,3.16,.85h.65c.86,.03,1.66-.15,2.41-.54,.78-.25,1.45-.68,2.01-1.29,.61-.57,1.04-1.24,1.29-2.01,.39-.75,.57-1.55,.54-2.41l-.22-1.66c-.3-1.06-.83-1.98-1.61-2.76l-1.27-.98c-.98-.57-2.03-.85-3.16-.85h0Z"/>
            <path class="cls-6" d="M392.18,193.8c3.27,0,6.4-2.88,6.25-6.25s-2.75-6.25-6.25-6.25c-3.27,0-6.4,2.88-6.25,6.25s2.75,6.25,6.25,6.25h0Z"/>
            <path class="cls-6" d="M394.14,199.68c3.27,0,6.4-2.88,6.25-6.25s-2.75-6.25-6.25-6.25c-3.27,0-6.4,2.88-6.25,6.25s2.75,6.25,6.25,6.25h0Z"/>
            <path class="cls-6" d="M416.99,202.94c3.27,0,6.4-2.88,6.25-6.25s-2.75-6.25-6.25-6.25c-3.27,0-6.4,2.88-6.25,6.25s2.75,6.25,6.25,6.25h0Z"/>
            <path class="cls-6" d="M424.17,195.76c3.27,0,6.4-2.88,6.25-6.25s-2.75-6.25-6.25-6.25c-3.27,0-6.4,2.88-6.25,6.25s2.75,6.25,6.25,6.25h0Z"/>
            <path class="cls-6" d="M409.15,189.88c3.27,0,6.4-2.88,6.25-6.25s-2.75-6.25-6.25-6.25c-3.27,0-6.4,2.88-6.25,6.25s2.75,6.25,6.25,6.25h0Z"/>
            <path class="cls-6" d="M405.24,208.82c3.27,0,6.4-2.88,6.25-6.25s-2.75-6.25-6.25-6.25c-3.27,0-6.4,2.88-6.25,6.25s2.75,6.25,6.25,6.25h0Z"/>
            <path class="cls-6" d="M373.25,200.33c3.27,0,6.4-2.88,6.25-6.25s-2.75-6.25-6.25-6.25c-3.27,0-6.4,2.88-6.25,6.25s2.75,6.25,6.25,6.25h0Z"/>
            <path class="cls-6" d="M439.84,206.86c3.27,0,6.4-2.88,6.25-6.25s-2.75-6.25-6.25-6.25c-3.27,0-6.4,2.88-6.25,6.25s2.75,6.25,6.25,6.25h0Z"/>
            <path class="cls-6" d="M388.92,192.5c3.27,0,6.4-2.88,6.25-6.25s-2.75-6.25-6.25-6.25c-3.27,0-6.4,2.88-6.25,6.25s2.75,6.25,6.25,6.25h0Z"/>
            <path class="cls-6" d="M438.53,186.62c3.27,0,6.4-2.88,6.25-6.25s-2.75-6.25-6.25-6.25c-3.27,0-6.4,2.88-6.25,6.25s2.75,6.25,6.25,6.25h0Z"/>
            <g>
              <path class="cls-6" d="M393.55,202.59c-.22,.43-.44,.87-.66,1.3"/>
              <path class="cls-6" d="M388.15,199.44c-.22,.43-.44,.87-.66,1.3-.46,.72-.7,1.49-.74,2.32-.19,.83-.15,1.66,.11,2.49,.19,.81,.57,1.52,1.12,2.13,.44,.68,1.03,1.22,1.75,1.61l1.49,.63c1.11,.3,2.22,.3,3.32,0l1.49-.63c.94-.56,1.69-1.3,2.24-2.24,.22-.43,.44-.87,.66-1.3,.46-.72,.7-1.49,.74-2.32,.19-.83,.15-1.66-.11-2.49-.19-.81-.57-1.52-1.12-2.13-.44-.68-1.03-1.22-1.75-1.61l-1.49-.63c-1.11-.3-2.22-.3-3.32,0l-1.49,.63c-.94,.56-1.69,1.3-2.24,2.24h0Z"/>
            </g>
            <path class="cls-6" d="M407.2,193.8c3.27,0,6.4-2.88,6.25-6.25s-2.75-6.25-6.25-6.25c-3.27,0-6.4,2.88-6.25,6.25s2.75,6.25,6.25,6.25h0Z"/>
            <path class="cls-6" d="M430.7,212.73c3.27,0,6.4-2.88,6.25-6.25s-2.75-6.25-6.25-6.25c-3.27,0-6.4,2.88-6.25,6.25s2.75,6.25,6.25,6.25h0Z"/>
            <g>
              <path class="cls-6" d="M385.65,200.06c-1.31,0-2.61,0-3.92,0"/>
              <path class="cls-6" d="M385.65,193.81c-1.31,0-2.61,0-3.92,0-.86-.03-1.66,.15-2.41,.54-.78,.25-1.45,.68-2.01,1.29-.61,.57-1.04,1.24-1.29,2.01-.39,.75-.57,1.55-.54,2.41l.22,1.66c.3,1.06,.83,1.98,1.61,2.76l1.27,.98c.98,.57,2.03,.85,3.16,.85,1.31,0,2.61,0,3.92,0,.86,.03,1.66-.15,2.41-.54,.78-.25,1.45-.68,2.01-1.29,.61-.57,1.04-1.24,1.29-2.01,.39-.75,.57-1.55,.54-2.41l-.22-1.66c-.3-1.06-.83-1.98-1.61-2.76l-1.27-.98c-.98-.57-2.03-.85-3.16-.85h0Z"/>
            </g>
            <path class="cls-6" d="M420.9,208.16h.65c.86,.03,1.66-.15,2.41-.54,.78-.25,1.45-.68,2.01-1.29,.61-.57,1.04-1.24,1.29-2.01,.39-.75,.57-1.55,.54-2.41l-.22-1.66c-.3-1.06-.83-1.98-1.61-2.76l-1.27-.98c-.98-.57-2.03-.85-3.16-.85h-.65c-.86-.03-1.66,.15-2.41,.54-.78,.25-1.45,.68-2.01,1.29-.61,.57-1.04,1.24-1.29,2.01-.39,.75-.57,1.55-.54,2.41l.22,1.66c.3,1.06,.83,1.98,1.61,2.76l1.27,.98c.98,.57,2.03,.85,3.16,.85h0Z"/>
            <path class="cls-6" d="M441.14,203.59c3.27,0,6.4-2.88,6.25-6.25s-2.75-6.25-6.25-6.25c-3.27,0-6.4,2.88-6.25,6.25s2.75,6.25,6.25,6.25h0Z"/>
            <path class="cls-6" d="M432,193.8c3.27,0,6.4-2.88,6.25-6.25s-2.75-6.25-6.25-6.25c-3.27,0-6.4,2.88-6.25,6.25s2.75,6.25,6.25,6.25h0Z"/>
            <path class="cls-6" d="M419.6,185.31c3.27,0,6.4-2.88,6.25-6.25s-2.75-6.25-6.25-6.25c-3.27,0-6.4,2.88-6.25,6.25s2.75,6.25,6.25,6.25h0Z"/>
            <path class="cls-6" d="M376.52,193.15c3.27,0,6.4-2.88,6.25-6.25s-2.75-6.25-6.25-6.25c-3.27,0-6.4,2.88-6.25,6.25s2.75,6.25,6.25,6.25h0Z"/>
            <path class="cls-6" d="M404.58,199.68c3.27,0,6.4-2.88,6.25-6.25s-2.75-6.25-6.25-6.25c-3.27,0-6.4,2.88-6.25,6.25s2.75,6.25,6.25,6.25h0Z"/>
          </g>
        </g>
        <g>
          <path class="cls-20" d="M487.57,240.99l-17.97-38.65c0-6.48-23.84-11.74-53.24-11.74s-53.24,5.26-53.24,11.74l-17.97,38.65c-.44,.52-.74,1.05-.74,1.6,0,6.48,32.22,11.74,71.96,11.74s71.96-5.26,71.96-11.74c0-.54-.3-1.07-.74-1.6Z"/>
          <ellipse class="cls-27" cx="416.36" cy="202.84" rx="48.56" ry="9.68"/>
          <g>
            <path class="cls-25" d="M382.29,206.09c1.05-.18,2.09-.37,3.14-.55l1.49-.63c.73-.39,1.31-.93,1.75-1.61,.39-.39,.66-.85,.8-1.38,.39-.75,.57-1.55,.54-2.41,0-.07,0-.15,0-.22,0-.04,0-.09-.01-.13-.06-.57-.13-1.19-.24-1.75-.01-.07-.03-.14-.05-.21-.01-.04-.03-.08-.04-.12-.2-.52-.43-1.07-.67-1.58-.03-.07-.07-.13-.1-.19-.02-.03-.04-.06-.06-.09-.32-.45-.69-.92-1.04-1.35-.1-.12-.21-.24-.34-.34-.46-.37-.93-.75-1.41-1.09-.07-.05-.14-.09-.21-.13s-.14-.08-.22-.11c-.5-.22-1.05-.46-1.56-.66-.04-.02-.08-.03-.12-.05-.41-.14-.87-.16-1.28-.22s-.86-.16-1.29-.12c-.56,.05-1.2,.14-1.75,.23-.05,0-.09,.02-.14,.03-.08,.02-.16,.05-.24,.08-.26,.1-.61,.26-.78,.33-.19,.08-.54,.21-.8,.34-.04,.02-.08,.04-.11,.06-.04,.02-.08,.05-.12,.08-.46,.32-.92,.7-1.36,1.05-.61,.57-1.04,1.24-1.29,2.01-.39,.75-.57,1.55-.54,2.41-.03,.86,.15,1.66,.54,2.41,.25,.78,.68,1.45,1.29,2.01l1.27,.98c.98,.57,2.03,.85,3.16,.85l1.66-.22c1.06-.3,1.98-.83,2.76-1.61l.03-.02-1.27,.98c.11-.08,.22-.15,.35-.21l-1.49,.63c.15-.06,.29-.1,.45-.12l-1.66,.22c.17-.02,.34-.02,.51,0l-1.66-.22c.21,.03,.41,.08,.61,.16l-1.49-.63c.2,.08,.38,.19,.55,.32l-1.27-.98c.16,.12,.3,.26,.42,.42l-.98-1.27c.09,.13,.17,.26,.24,.4l-.63-1.49c.06,.13,.1,.27,.12,.42l-.22-1.66c.02,.12,.02,.25,0,.37l4.59-6.03c-1.05,.18-2.09,.37-3.14,.55-.81,.19-1.52,.57-2.13,1.12-.68,.44-1.22,1.03-1.61,1.75-.46,.72-.7,1.49-.74,2.32-.19,.83-.15,1.66,.11,2.49l.63,1.49c.56,.94,1.3,1.69,2.24,2.24l1.49,.63c1.11,.3,2.22,.3,3.32,0h0Z"/>
            <path class="cls-25" d="M396.27,172.76h-1.31c-.86-.03-1.66,.15-2.41,.54-.78,.25-1.45,.68-2.01,1.29-.61,.57-1.04,1.24-1.29,2.01-.39,.75-.57,1.55-.54,2.41l.22,1.66c.3,1.06,.83,1.98,1.61,2.76l1.27,.98c.98,.57,2.03,.85,3.16,.85h1.31c.86,.03,1.66-.15,2.41-.54,.78-.25,1.45-.68,2.01-1.29,.61-.57,1.04-1.24,1.29-2.01,.39-.75,.57-1.55,.54-2.41l-.22-1.66c-.3-1.06-.83-1.98-1.61-2.76l-1.27-.98c-.98-.57-2.03-.85-3.16-.85h0Z"/>
            <path class="cls-25" d="M393.67,200.22c.01,.06,.03,.11,.05,.17,.19,.55,.43,1.08,.68,1.61,.02,.05,.05,.1,.08,.15,.01,.02,.03,.04,.04,.06,0,.01,.02,.03,.03,.04l.98,1.27c.07,.09,.14,.17,.23,.24,.44,.38,.91,.73,1.39,1.07,.04,.03,.09,.06,.14,.09s.1,.05,.15,.07c.46,.21,1.07,.46,1.54,.65,.03,.01,.06,.02,.08,.03,.35,.12,.81,.14,1.14,.18s.78,.15,1.14,.12c.6-.06,1.21-.12,1.8-.24,.06-.01,.11-.03,.17-.05,.81-.19,1.52-.57,2.13-1.12,.68-.44,1.22-1.03,1.61-1.75,.46-.72,.7-1.49,.74-2.32,.19-.83,.15-1.66-.11-2.49l-.63-1.49c-.56-.94-1.3-1.69-2.24-2.24l-1.49-.63c-1.11-.3-2.22-.3-3.32,0-.08,.03-.16,.05-.25,.06l1.66-.22c-.13,.02-.25,.02-.38,0l1.66,.22c-.14-.02-.28-.06-.41-.11l1.49,.63c-.13-.06-.26-.13-.37-.22l1.27,.98c-.11-.08-.2-.18-.28-.29l.98,1.27c-.07-.09-.13-.19-.18-.3l.63,1.49c-.03-.08-.06-.16-.08-.24-.19-.81-.57-1.52-1.12-2.13-.44-.68-1.03-1.22-1.75-1.61-.72-.46-1.49-.7-2.32-.74-.83-.19-1.66-.15-2.49,.11l-1.49,.63c-.94,.56-1.69,1.3-2.24,2.24l-.63,1.49c-.3,1.11-.3,2.22,0,3.32h0Z"/>
            <path class="cls-25" d="M382.2,192.18c-.09,.58-.24,1.26-.25,1.85,0,.37,.07,.72,.12,1.1,.14,1.04,.35,1.8,.88,2.77,.04,.07,.09,.14,.13,.22,.31,.47,.72,1.03,1.11,1.43,.06,.06,.13,.12,.19,.18,.45,.39,.97,.83,1.48,1.13,.6,.36,1.29,.62,1.95,.85,.19,.07,.39,.11,.59,.15,.49,.09,1.49,.28,2.17,.25,.72-.04,1.5-.1,2.2-.32,3.41-1.04,5.74-4.04,5.82-7.63,.02-.76-.1-1.55-.29-2.28-.03-.11-.07-.22-.11-.33-.23-.6-.46-1.25-.79-1.81-.81-1.36-1.86-2.32-3.15-3.2-.62-.42-1.39-.69-2.08-.94-.74-.27-1.59-.35-2.36-.39-.14,0-.28-.01-.42,0-.6,.04-1.31,.12-1.9,.26-.14,.03-.27,.08-.4,.12-.59,.21-1.21,.46-1.76,.76-.12,.07-.23,.14-.34,.22-.48,.35-1.01,.72-1.44,1.13-.55,.52-1.02,1.17-1.43,1.79s-.67,1.37-.94,2.06c-.1,.26-.19,.52-.24,.8-.32,1.73-.34,2.93-.01,4.65,.1,.52,.3,.95,.51,1.44,.22,.52,.4,1.01,.72,1.46,.97,1.37,1.93,2.39,3.38,3.28,.67,.41,1.44,.68,2.16,.97,.3,.12,.6,.22,.92,.28,1.56,.33,2.82,.38,4.35,.17s2.8-.64,4.21-1.36c1.09-.56,2.09-1.37,2.99-2.19s1.7-1.9,2.44-2.91c.46-.72,.7-1.49,.74-2.32,.19-.83,.15-1.66-.11-2.49-.4-1.45-1.52-3.02-2.87-3.74-1.45-.77-3.21-1.15-4.82-.63l-1.49,.63c-.94,.56-1.69,1.3-2.24,2.24-.06,.08-.12,.16-.18,.24l.98-1.27c-.53,.68-1.13,1.31-1.81,1.84l1.27-.98c-.52,.4-1.08,.73-1.68,.99l1.49-.63c-.46,.18-.92,.32-1.41,.4l1.66-.22c-.51,.07-1.01,.07-1.52,0l1.66,.22c-.46-.07-.89-.19-1.32-.37l1.49,.63c-.33-.15-.64-.33-.94-.54l1.27,.98c-.29-.22-.54-.47-.76-.76l.98,1.27c-.18-.24-.32-.49-.44-.77l.63,1.49c-.1-.27-.17-.53-.21-.81l.22,1.66c-.04-.32-.04-.64,0-.96l-.22,1.66c.05-.36,.14-.7,.28-1.04l-.63,1.49c.11-.25,.25-.49,.42-.71l-.98,1.27c.15-.18,.3-.35,.49-.5l-1.27,.98c.19-.14,.38-.26,.6-.36l-1.49,.63c.19-.08,.38-.13,.58-.17l-1.66,.22c.2-.02,.39-.02,.59,0l-1.66-.22c.24,.04,.47,.1,.69,.19l-1.49-.63c.26,.12,.5,.26,.73,.43l-1.27-.98c.19,.16,.36,.33,.51,.52l-.98-1.27c.14,.19,.26,.39,.36,.61l-.63-1.49c.07,.18,.13,.36,.16,.55l-.22-1.66c.02,.19,.03,.38,0,.57l.22-1.66c-.03,.16-.07,.3-.12,.45l.63-1.49c-.07,.15-.15,.29-.25,.43l.98-1.27c-.08,.09-.16,.17-.25,.25l1.27-.98c-.12,.09-.24,.16-.38,.22l1.49-.63c-.17,.07-.34,.11-.52,.15l1.66-.22c-.25,.03-.49,.03-.74,0l1.66,.22c-.25-.04-.48-.1-.72-.2l1.49,.63c-.17-.08-.32-.16-.47-.27l1.27,.98c-.14-.11-.26-.22-.37-.36l.98,1.27c-.08-.12-.15-.23-.21-.36l.63,1.49c-.04-.11-.07-.21-.09-.33l.22,1.66c-.01-.12-.01-.24,0-.36l-.22,1.66v-.09c.27-.83,.31-1.66,.13-2.49-.04-.83-.29-1.61-.74-2.32-.76-1.3-2.25-2.53-3.74-2.87-1.6-.36-3.4-.29-4.82,.63l-1.27,.98c-.78,.78-1.31,1.7-1.61,2.76h0Z"/>
            <path class="cls-25" d="M399.17,212.47c.88,.22,1.79,.31,2.69,.41,.38,.04,.77,.05,1.16,.03,.88-.05,1.77-.18,2.64-.34,.38-.07,.76-.16,1.13-.29,.82-.27,1.63-.63,2.41-1,.35-.17,.69-.36,1.01-.58,1.03-.7,2.09-1.49,2.89-2.46,.61-.57,1.04-1.24,1.29-2.01,.39-.75,.57-1.55,.54-2.41,.03-.86-.15-1.66-.54-2.41-.25-.78-.68-1.45-1.29-2.01-1.19-1.09-2.76-1.91-4.42-1.83l-1.66,.22c-1.06,.3-1.98,.83-2.76,1.61-.37,.45-.78,.85-1.25,1.21l1.27-.98c-.53,.4-1.1,.73-1.7,.99l1.49-.63c-.65,.27-1.32,.46-2.01,.56l1.66-.22c-.69,.09-1.39,.1-2.08,.01l1.66,.22c-.27-.04-.53-.09-.8-.15-1.6-.39-3.38-.21-4.82,.63-.73,.39-1.31,.93-1.75,1.61-.55,.6-.93,1.31-1.12,2.13-.36,1.6-.29,3.4,.63,4.82s2.14,2.48,3.74,2.87h0Z"/>
            <path class="cls-25" d="M408.67,212.03c3.27,0,6.4-2.88,6.25-6.25s-2.75-6.25-6.25-6.25c-3.27,0-6.4,2.88-6.25,6.25s2.75,6.25,6.25,6.25h0Z"/>
            <path class="cls-25" d="M394.65,209.79c.65-.23,1.3-.46,1.95-.69,.81-.19,1.52-.57,2.13-1.12,.68-.44,1.22-1.03,1.61-1.75,.46-.72,.7-1.49,.74-2.32,.19-.83,.15-1.66-.11-2.49l-.63-1.49c-.56-.94-1.3-1.69-2.24-2.24l-1.49-.63c-1.11-.3-2.22-.3-3.32,0-.65,.23-1.3,.46-1.95,.69-.81,.19-1.52,.57-2.13,1.12-.68,.44-1.22,1.03-1.61,1.75-.46,.72-.7,1.49-.74,2.32-.19,.83-.15,1.66,.11,2.49l.63,1.49c.56,.94,1.3,1.69,2.24,2.24l1.49,.63c1.11,.3,2.22,.3,3.32,0h0Z"/>
            <path class="cls-25" d="M387.08,205.45s.02,.09,.02,.13l-.22-1.66c.02,.13,.02,.26,0,.39l.22-1.66c-.02,.15-.06,.29-.12,.42l.63-1.49c-.06,.14-.13,.26-.22,.38l.98-1.27c-.09,.12-.2,.22-.31,.31l1.27-.98c-.11,.08-.23,.15-.36,.21l1.49-.63c-.11,.05-.23,.08-.35,.1l1.66-.22s-.05,0-.08,0c-.86-.03-1.66,.15-2.41,.54-.78,.25-1.45,.68-2.01,1.29-.61,.57-1.04,1.24-1.29,2.01-.39,.75-.57,1.55-.54,2.41l.22,1.66c.3,1.06,.83,1.98,1.61,2.76l1.27,.98c.98,.57,2.03,.85,3.16,.85,.61-.06,1.22-.13,1.82-.25,.06-.01,.12-.03,.17-.05,.03-.01,.06-.02,.1-.04l1.49-.63s.03-.01,.05-.02c.05-.03,.11-.05,.16-.08,.55-.34,1.06-.74,1.53-1.18,.04-.04,.08-.08,.12-.12,.39-.44,.73-.92,1.08-1.39,.07-.09,.13-.2,.18-.3,.25-.54,.49-1.08,.69-1.64,.02-.06,.04-.11,.05-.17,.35-1.46,.34-2.53,0-3.99-.19-.81-.57-1.52-1.12-2.13-.44-.68-1.03-1.22-1.75-1.61-.72-.46-1.49-.7-2.32-.74-.83-.19-1.66-.15-2.49,.11l-1.49,.63c-.94,.56-1.69,1.3-2.24,2.24l-.63,1.49c-.3,1.11-.3,2.22,0,3.32h0Z"/>
            <path class="cls-25" d="M411.28,205.5h.65c.86,.03,1.66-.15,2.41-.54,.78-.25,1.45-.68,2.01-1.29,.61-.57,1.04-1.24,1.29-2.01,.39-.75,.57-1.55,.54-2.41l-.22-1.66c-.3-1.06-.83-1.98-1.61-2.76l-1.27-.98c-.98-.57-2.03-.85-3.16-.85h-.65c-.86-.03-1.66,.15-2.41,.54-.78,.25-1.45,.68-2.01,1.29-.61,.57-1.04,1.24-1.29,2.01-.39,.75-.57,1.55-.54,2.41l.22,1.66c.3,1.06,.83,1.98,1.61,2.76l1.27,.98c.98,.57,2.03,.85,3.16,.85h0Z"/>
            <path class="cls-25" d="M407.66,198.54c.66-.19,1.32-.38,1.98-.57,.81-.19,1.52-.57,2.13-1.12,.68-.44,1.22-1.03,1.61-1.75,.46-.72,.7-1.49,.74-2.32,.19-.83,.15-1.66-.11-2.49l-.63-1.49c-.56-.94-1.3-1.69-2.24-2.24l-1.49-.63c-1.11-.3-2.22-.3-3.32,0-.66,.19-1.32,.38-1.98,.57-.81,.19-1.52,.57-2.13,1.12-.68,.44-1.22,1.03-1.61,1.75-.46,.72-.7,1.49-.74,2.32-.19,.83-.15,1.66,.11,2.49l.63,1.49c.56,.94,1.3,1.69,2.24,2.24l1.49,.63c1.11,.3,2.22,.3,3.32,0h0Z"/>
            <path class="cls-25" d="M422.2,211.54s.08-.02,.12-.03l-1.66,.22c.07,0,.14-.01,.22,0l-1.66-.22c.07,.01,.15,.03,.22,.06l-1.49-.63c.07,.03,.13,.07,.19,.11l-1.27-.98c.08,.06,.14,.13,.2,.2l-.98-1.27c.08,.1,.14,.21,.19,.33l-.63-1.49c.06,.14,.1,.29,.12,.44l-.22-1.66c.02,.14,.02,.29,0,.43l.22-1.66c-.02,.1-.04,.2-.08,.3l.63-1.49c-.03,.07-.07,.14-.12,.21l.98-1.27c-.04,.05-.09,.1-.15,.14l1.27-.98c-.05,.04-.11,.07-.17,.1l1.49-.63c-.06,.02-.12,.04-.18,.06-.81,.19-1.52,.57-2.13,1.12-.68,.44-1.22,1.03-1.61,1.75-.46,.72-.7,1.49-.74,2.32-.19,.83-.15,1.66,.11,2.49l.63,1.49c.56,.94,1.3,1.69,2.24,2.24l1.49,.63c1.11,.3,2.22,.3,3.32,0,.06-.01,.12-.03,.18-.06-.04,.02,1.18-.41,1.64-.71s.98-.66,1.38-1.07c.02-.02,.04-.04,.05-.06,.18-.22,.83-1.05,.99-1.28,.01-.02,.02-.03,.03-.05,.03-.05,.06-.1,.08-.15,.15-.32,.51-1.18,.64-1.51,0-.01,0-.02,.01-.04,.01-.03,.02-.07,.03-.1,0-.03,.01-.06,.02-.09,0-.01,0-.03,0-.04,.07-.42,.18-1.26,.23-1.68,0-.07,.01-.13,.01-.2,0-.06,0-.12,0-.18,0-.02,0-.03,0-.05-.06-.47-.15-1.22-.23-1.68,0-.03-.01-.07-.02-.1-.01-.06-.03-.12-.05-.18-.19-.57-.45-1.12-.69-1.66s-.92-1.28-1.16-1.57c-.04-.05-.07-.09-.12-.13-.02-.02-.04-.03-.06-.05-.21-.18-.59-.46-.66-.51-.1-.08-.44-.36-.66-.51-.27-.18-.67-.31-.91-.41-.22-.09-.61-.31-.92-.37-.59-.12-1.22-.26-1.84-.23-.02,0-.03,0-.05,0-.01,0-.02,0-.03,0l-1.66,.22s-.08,.02-.12,.03c-.81,.19-1.52,.57-2.13,1.12-.68,.44-1.22,1.03-1.61,1.75-.46,.72-.7,1.49-.74,2.32-.19,.83-.15,1.66,.11,2.49l.63,1.49c.56,.94,1.3,1.69,2.24,2.24l1.49,.63c1.11,.3,2.22,.3,3.32,0h0Z"/>
            <path class="cls-25" d="M413.89,216.6c3.26-.22,6.53-.44,9.79-.65,1.67-.11,3.21-.62,4.42-1.83,1.08-1.08,1.9-2.86,1.83-4.42s-.6-3.29-1.83-4.42-2.77-1.94-4.42-1.83c-3.26,.22-6.53,.44-9.79,.65-1.67,.11-3.21,.62-4.42,1.83-1.08,1.08-1.9,2.86-1.83,4.42s.6,3.29,1.83,4.42,2.77,1.94,4.42,1.83h0Z"/>
            <path class="cls-25" d="M418.82,205.28c1.09-.22,2.18-.44,3.26-.65,.81-.19,1.52-.57,2.13-1.12,.68-.44,1.22-1.03,1.61-1.75,.46-.72,.7-1.49,.74-2.32,.19-.83,.15-1.66-.11-2.49l-.63-1.49c-.56-.94-1.3-1.69-2.24-2.24l-1.49-.63c-1.11-.3-2.22-.3-3.32,0-1.09,.22-2.18,.44-3.26,.65-.81,.19-1.52,.57-2.13,1.12-.68,.44-1.22,1.03-1.61,1.75-.46,.72-.7,1.49-.74,2.32-.19,.83-.15,1.66,.11,2.49l.63,1.49c.56,.94,1.3,1.69,2.24,2.24l1.49,.63c1.11,.3,2.22,.3,3.32,0h0Z"/>
            <path class="cls-25" d="M424.99,188.42h-.65c-.86-.03-1.66,.15-2.41,.54-.78,.25-1.45,.68-2.01,1.29-.61,.57-1.04,1.24-1.29,2.01-.39,.75-.57,1.55-.54,2.41l.22,1.66c.3,1.06,.83,1.98,1.61,2.76l1.27,.98c.98,.57,2.03,.85,3.16,.85h.65c.86,.03,1.66-.15,2.41-.54,.78-.25,1.45-.68,2.01-1.29,.61-.57,1.04-1.24,1.29-2.01,.39-.75,.57-1.55,.54-2.41l-.22-1.66c-.3-1.06-.83-1.98-1.61-2.76l-1.27-.98c-.98-.57-2.03-.85-3.16-.85h0Z"/>
            <path class="cls-25" d="M437.4,206.8c3.27,0,6.4-2.88,6.25-6.25s-2.75-6.25-6.25-6.25c-3.27,0-6.4,2.88-6.25,6.25s2.75,6.25,6.25,6.25h0Z"/>
            <path class="cls-25" d="M442.47,201.35c-.44-.44-.87-.87-1.31-1.31-.57-.61-1.24-1.04-2.01-1.29-.75-.39-1.55-.57-2.41-.54-.86-.03-1.66,.15-2.41,.54-.78,.25-1.45,.68-2.01,1.29l-.98,1.27c-.57,.98-.85,2.03-.85,3.16l.22,1.66c.3,1.06,.83,1.98,1.61,2.76,.44,.44,.87,.87,1.31,1.31,.57,.61,1.24,1.04,2.01,1.29,.75,.39,1.55,.57,2.41,.54,.86,.03,1.66-.15,2.41-.54,.78-.25,1.45-.68,2.01-1.29l.98-1.27c.57-.98,.85-2.03,.85-3.16l-.22-1.66c-.3-1.06-.83-1.98-1.61-2.76h0Z"/>
            <path class="cls-25" d="M430.87,206.8c3.27,0,6.4-2.88,6.25-6.25s-2.75-6.25-6.25-6.25c-3.27,0-6.4,2.88-6.25,6.25s2.75,6.25,6.25,6.25h0Z"/>
            <path class="cls-25" d="M440.01,206.8h.65c.86,.03,1.66-.15,2.41-.54,.78-.25,1.45-.68,2.01-1.29,.61-.57,1.04-1.24,1.29-2.01,.39-.75,.57-1.55,.54-2.41l-.22-1.66c-.3-1.06-.83-1.98-1.61-2.76l-1.27-.98c-.98-.57-2.03-.85-3.16-.85h-.65c-.86-.03-1.66,.15-2.41,.54-.78,.25-1.45,.68-2.01,1.29-.61,.57-1.04,1.24-1.29,2.01-.39,.75-.57,1.55-.54,2.41l.22,1.66c.3,1.06,.83,1.98,1.61,2.76l1.27,.98c.98,.57,2.03,.85,3.16,.85h0Z"/>
            <path class="cls-25" d="M449.8,210.72c3.27,0,6.4-2.88,6.25-6.25s-2.75-6.25-6.25-6.25c-3.27,0-6.4,2.88-6.25,6.25s2.75,6.25,6.25,6.25h0Z"/>
            <path class="cls-25" d="M444.25,189.38c-.65-.21-1.31-.43-1.96-.64-.83-.26-1.66-.3-2.49-.11-.83,.04-1.61,.29-2.32,.74-.73,.39-1.31,.93-1.75,1.61-.55,.6-.93,1.31-1.12,2.13l-.22,1.66c0,1.13,.29,2.18,.85,3.16l.98,1.27c.78,.78,1.7,1.31,2.76,1.61,.65,.21,1.31,.43,1.96,.64,.83,.26,1.66,.3,2.49,.11,.83-.04,1.61-.29,2.32-.74,.73-.39,1.31-.93,1.75-1.61,.55-.6,.93-1.31,1.12-2.13l.22-1.66c0-1.13-.29-2.18-.85-3.16l-.98-1.27c-.78-.78-1.7-1.31-2.76-1.61h0Z"/>
            <path class="cls-25" d="M432.83,199.62h.65c.86,.03,1.66-.15,2.41-.54,.78-.25,1.45-.68,2.01-1.29,.61-.57,1.04-1.24,1.29-2.01,.39-.75,.57-1.55,.54-2.41l-.22-1.66c-.3-1.06-.83-1.98-1.61-2.76l-1.27-.98c-.98-.57-2.03-.85-3.16-.85h-.65c-.86-.03-1.66,.15-2.41,.54-.78,.25-1.45,.68-2.01,1.29-.61,.57-1.04,1.24-1.29,2.01-.39,.75-.57,1.55-.54,2.41l.22,1.66c.3,1.06,.83,1.98,1.61,2.76l1.27,.98c.98,.57,2.03,.85,3.16,.85h0Z"/>
            <path class="cls-25" d="M445.5,189.45v.65c-.03,.86,.15,1.66,.54,2.41,.25,.78,.68,1.45,1.29,2.01,.57,.61,1.24,1.04,2.01,1.29,.75,.39,1.55,.57,2.41,.54l1.66-.22c1.06-.3,1.98-.83,2.76-1.61l.98-1.27c.57-.98,.85-2.03,.85-3.16v-.65c.03-.86-.15-1.66-.54-2.41-.25-.78-.68-1.45-1.29-2.01-.57-.61-1.24-1.04-2.01-1.29-.75-.39-1.55-.57-2.41-.54l-1.66,.22c-1.06,.3-1.98,.83-2.76,1.61l-.98,1.27c-.57,.98-.85,2.03-.85,3.16h0Z"/>
            <path class="cls-25" d="M456.33,192.99h-.65c-.86-.03-1.66,.15-2.41,.54-.78,.25-1.45,.68-2.01,1.29-.61,.57-1.04,1.24-1.29,2.01-.39,.75-.57,1.55-.54,2.41l.22,1.66c.3,1.06,.83,1.98,1.61,2.76l1.27,.98c.98,.57,2.03,.85,3.16,.85h.65c.86,.03,1.66-.15,2.41-.54,.78-.25,1.45-.68,2.01-1.29,.61-.57,1.04-1.24,1.29-2.01,.39-.75,.57-1.55,.54-2.41l-.22-1.66c-.3-1.06-.83-1.98-1.61-2.76l-1.27-.98c-.98-.57-2.03-.85-3.16-.85h0Z"/>
            <path class="cls-25" d="M453.71,210.07c3.27,0,6.4-2.88,6.25-6.25s-2.75-6.25-6.25-6.25c-3.27,0-6.4,2.88-6.25,6.25s2.75,6.25,6.25,6.25h0Z"/>
            <path class="cls-25" d="M426.3,210.72c3.27,0,6.4-2.88,6.25-6.25s-2.75-6.25-6.25-6.25c-3.27,0-6.4,2.88-6.25,6.25s2.75,6.25,6.25,6.25h0Z"/>
            <path class="cls-25" d="M430.49,214.54c2.39,.44,4.78,.89,7.18,1.33,.83,.26,1.66,.3,2.49,.11,.83-.04,1.61-.29,2.32-.74,.73-.39,1.31-.93,1.75-1.61,.55-.6,.93-1.31,1.12-2.13,.36-1.6,.29-3.4-.63-4.82-.84-1.3-2.15-2.58-3.74-2.87-2.39-.44-4.78-.89-7.18-1.33-.83-.26-1.66-.3-2.49-.11-.83,.04-1.61,.29-2.32,.74-.73,.39-1.31,.93-1.75,1.61-.55,.6-.93,1.31-1.12,2.13-.36,1.6-.29,3.4,.63,4.82,.84,1.3,2.15,2.58,3.74,2.87h0Z"/>
            <path class="cls-25" d="M445.23,213.33h.65c.86,.03,1.66-.15,2.41-.54,.78-.25,1.45-.68,2.01-1.29,.61-.57,1.04-1.24,1.29-2.01,.39-.75,.57-1.55,.54-2.41l-.22-1.66c-.3-1.06-.83-1.98-1.61-2.76l-1.27-.98c-.98-.57-2.03-.85-3.16-.85h-.65c-.86-.03-1.66,.15-2.41,.54-.78,.25-1.45,.68-2.01,1.29-.61,.57-1.04,1.24-1.29,2.01-.39,.75-.57,1.55-.54,2.41l.22,1.66c.3,1.06,.83,1.98,1.61,2.76l1.27,.98c.98,.57,2.03,.85,3.16,.85h0Z"/>
            <path class="cls-25" d="M452.41,212.68c3.27,0,6.4-2.88,6.25-6.25s-2.75-6.25-6.25-6.25c-3.27,0-6.4,2.88-6.25,6.25s2.75,6.25,6.25,6.25h0Z"/>
            <path class="cls-25" d="M456.98,209.42c3.27,0,6.4-2.88,6.25-6.25s-2.75-6.25-6.25-6.25c-3.27,0-6.4,2.88-6.25,6.25s2.75,6.25,6.25,6.25h0Z"/>
            <path class="cls-25" d="M440.31,185.43c-.87,.22-1.74,.45-2.61,.67-.81,.19-1.52,.57-2.13,1.12-.68,.44-1.22,1.03-1.61,1.75-.46,.72-.7,1.49-.74,2.32-.19,.83-.15,1.66,.11,2.49l.63,1.49c.56,.94,1.3,1.69,2.24,2.24l1.49,.63c1.11,.3,2.22,.3,3.32,0,.87-.22,1.74-.45,2.61-.67,.81-.19,1.52-.57,2.13-1.12,.68-.44,1.22-1.03,1.61-1.75,.46-.72,.7-1.49,.74-2.32,.19-.83,.15-1.66-.11-2.49l-.63-1.49c-.56-.94-1.3-1.69-2.24-2.24l-1.49-.63c-1.11-.3-2.22-.3-3.32,0h0Z"/>
            <path class="cls-25" d="M434.79,185.3c-1.74,.06-3.48,.12-5.22,.18-.86-.03-1.66,.15-2.41,.54-.78,.25-1.45,.68-2.01,1.29-.61,.57-1.04,1.24-1.29,2.01-.39,.75-.57,1.55-.54,2.41l.22,1.66c.3,1.06,.83,1.98,1.61,2.76l1.27,.98c.98,.57,2.03,.85,3.16,.85,1.74-.06,3.48-.12,5.22-.18,.86,.03,1.66-.15,2.41-.54,.78-.25,1.45-.68,2.01-1.29,.61-.57,1.04-1.24,1.29-2.01,.39-.75,.57-1.55,.54-2.41l-.22-1.66c-.3-1.06-.83-1.98-1.61-2.76l-1.27-.98c-.98-.57-2.03-.85-3.16-.85h0Z"/>
            <path class="cls-25" d="M421.37,186.04c-1.52,.44-3.05,.87-4.57,1.31-.81,.19-1.52,.57-2.13,1.12-.68,.44-1.22,1.03-1.61,1.75-.46,.72-.7,1.49-.74,2.32-.19,.83-.15,1.66,.11,2.49l.63,1.49c.56,.94,1.3,1.69,2.24,2.24l1.49,.63c1.11,.3,2.22,.3,3.32,0,1.52-.44,3.05-.87,4.57-1.31,.81-.19,1.52-.57,2.13-1.12,.68-.44,1.22-1.03,1.61-1.75,.46-.72,.7-1.49,.74-2.32,.19-.83,.15-1.66-.11-2.49l-.63-1.49c-.56-.94-1.3-1.69-2.24-2.24l-1.49-.63c-1.11-.3-2.22-.3-3.32,0h0Z"/>
            <path class="cls-25" d="M411.58,187.34c-.65,.22-1.31,.44-1.96,.65-.81,.19-1.52,.57-2.13,1.12-.68,.44-1.22,1.03-1.61,1.75-.46,.72-.7,1.49-.74,2.32-.19,.83-.15,1.66,.11,2.49l.63,1.49c.56,.94,1.3,1.69,2.24,2.24l1.49,.63c1.11,.3,2.22,.3,3.32,0,.65-.22,1.31-.44,1.96-.65,.81-.19,1.52-.57,2.13-1.12,.68-.44,1.22-1.03,1.61-1.75,.46-.72,.7-1.49,.74-2.32,.19-.83,.15-1.66-.11-2.49l-.63-1.49c-.56-.94-1.3-1.69-2.24-2.24l-1.49-.63c-1.11-.3-2.22-.3-3.32,0h0Z"/>
            <path class="cls-25" d="M410.91,187.23s0,0,0,0l1.66-.22s-.04,0-.05,0l1.66,.22s-.03,0-.04-.01l1.49,.63s-.02-.01-.03-.02l1.27,.98s-.02-.02-.03-.03l.98,1.27s-.02-.03-.03-.05l.63,1.49s-.02-.06-.02-.09l.22,1.66s0-.07,0-.11l-.22,1.66s.01-.06,.02-.09l-.63,1.49s.02-.04,.04-.06l-.98,1.27s.02-.02,.03-.03l-1.27,.98s.02-.02,.04-.02l-1.49,.63s.03,0,.04-.01l-1.66,.22s.03,0,.05,0l-1.66-.22s.02,0,.03,0c.83,.26,1.66,.3,2.49,.11,.83-.04,1.61-.29,2.32-.74,.73-.39,1.31-.93,1.75-1.61,.55-.6,.93-1.31,1.12-2.13l.22-1.66c0-1.13-.29-2.18-.85-3.16l-.98-1.27c-.78-.78-1.7-1.31-2.76-1.61,0,0-.02,0-.03,0-.03,0-1.64-.22-1.67-.22,0,0,0,0-.01,0,0,0-.01,0-.02,0,0,0,0,0-.01,0l-1.66,.22s0,0,0,0c-.54,.12-1.07,.41-1.53,.64-.01,0-.02,.01-.03,.02-1.13,.83-1.55,1.08-2.29,2.3,0,.01-.01,.02-.02,.04-.22,.48-.49,1-.64,1.53,0,.01,0,.03,0,.04,0,0,0,0,0,.01-.02,.11-.21,1.56-.22,1.67,0,0,0,.02,0,.03,0,.02,0,.03,0,.05,0,0,0,.01,0,.02,0,0,0,0,0,.01l.22,1.66s0,0,0,0c0,.02,0,.03,0,.05,0,0,0,.01,0,.02,.18,.5,1.04,2.38,.64,1.51,0,.01,.01,.02,.02,.03,0,0,0,.01,.01,.02,.02,.03,.96,1.24,.98,1.27,0,0,0,0,0,.01,.81,.86,1.73,1.28,2.83,1.65,0,0,.01,0,.02,0,.55,.12,1.12,.18,1.68,.23,0,0,.02,0,.03,0,.57-.03,1.13-.13,1.69-.23,.81-.19,1.52-.57,2.13-1.12,.68-.44,1.22-1.03,1.61-1.75,.46-.72,.7-1.49,.74-2.32,.19-.83,.15-1.66-.11-2.49l-.63-1.49c-.56-.94-1.3-1.69-2.24-2.24l-1.49-.63c-1.11-.3-2.22-.3-3.32,0h0Z"/>
            <path class="cls-25" d="M413.24,185.81h-.65c-.86-.03-1.66,.15-2.41,.54-.78,.25-1.45,.68-2.01,1.29-.61,.57-1.04,1.24-1.29,2.01-.39,.75-.57,1.55-.54,2.41l.22,1.66c.3,1.06,.83,1.98,1.61,2.76l1.27,.98c.98,.57,2.03,.85,3.16,.85h.65c.86,.03,1.66-.15,2.41-.54,.78-.25,1.45-.68,2.01-1.29,.61-.57,1.04-1.24,1.29-2.01,.39-.75,.57-1.55,.54-2.41l-.22-1.66c-.3-1.06-.83-1.98-1.61-2.76l-1.27-.98c-.98-.57-2.03-.85-3.16-.85h0Z"/>
            <path class="cls-25" d="M385.83,207.46c3.27,0,6.4-2.88,6.25-6.25s-2.75-6.25-6.25-6.25c-3.27,0-6.4,2.88-6.25,6.25s2.75,6.25,6.25,6.25h0Z"/>
            <path class="cls-25" d="M385.99,199.14c-.87,.65-1.74,1.3-2.61,1.96-.73,.39-1.31,.93-1.75,1.61-.55,.6-.93,1.31-1.12,2.13-.26,.83-.3,1.66-.11,2.49,.04,.83,.29,1.61,.74,2.32l.98,1.27c.78,.78,1.7,1.31,2.76,1.61l1.66,.22c1.13,0,2.18-.29,3.16-.85,.87-.65,1.74-1.3,2.61-1.96,.73-.39,1.31-.93,1.75-1.61,.55-.6,.93-1.31,1.12-2.13,.26-.83,.3-1.66,.11-2.49-.04-.83-.29-1.61-.74-2.32l-.98-1.27c-.78-.78-1.7-1.31-2.76-1.61l-1.66-.22c-1.13,0-2.18,.29-3.16,.85h0Z"/>
            <path class="cls-25" d="M380.31,197.13c-.65-.22-1.31-.44-1.96-.65-.83-.26-1.66-.3-2.49-.11-.83,.04-1.61,.29-2.32,.74-.73,.39-1.31,.93-1.75,1.61-.55,.6-.93,1.31-1.12,2.13l-.22,1.66c0,1.13,.29,2.18,.85,3.16l.98,1.27c.78,.78,1.7,1.31,2.76,1.61,.65,.22,1.31,.44,1.96,.65,.83,.26,1.66,.3,2.49,.11,.83-.04,1.61-.29,2.32-.74,.73-.39,1.31-.93,1.75-1.61,.55-.6,.93-1.31,1.12-2.13l.22-1.66c0-1.13-.29-2.18-.85-3.16l-.98-1.27c-.78-.78-1.7-1.31-2.76-1.61h0Z"/>
            <path class="cls-25" d="M395.93,213.04c1.09,.21,2.18,.43,3.27,.64,.83,.26,1.66,.3,2.49,.11,.83-.04,1.61-.29,2.32-.74,.73-.39,1.31-.93,1.75-1.61,.55-.6,.93-1.31,1.12-2.13l.22-1.66c0-1.13-.29-2.18-.85-3.16l-.98-1.27c-.78-.78-1.7-1.31-2.76-1.61-1.09-.21-2.18-.43-3.27-.64-.83-.26-1.66-.3-2.49-.11-.83,.04-1.61,.29-2.32,.74-.73,.39-1.31,.93-1.75,1.61-.55,.6-.93,1.31-1.12,2.13l-.22,1.66c0,1.13,.29,2.18,.85,3.16l.98,1.27c.78,.78,1.7,1.31,2.76,1.61h0Z"/>
            <path class="cls-25" d="M408.67,215.29h.65c.86,.03,1.66-.15,2.41-.54,.78-.25,1.45-.68,2.01-1.29,.61-.57,1.04-1.24,1.29-2.01,.39-.75,.57-1.55,.54-2.41l-.22-1.66c-.3-1.06-.83-1.98-1.61-2.76l-1.27-.98c-.98-.57-2.03-.85-3.16-.85h-.65c-.86-.03-1.66,.15-2.41,.54-.78,.25-1.45,.68-2.01,1.29-.61,.57-1.04,1.24-1.29,2.01-.39,.75-.57,1.55-.54,2.41l.22,1.66c.3,1.06,.83,1.98,1.61,2.76l1.27,.98c.98,.57,2.03,.85,3.16,.85h0Z"/>
            <path class="cls-25" d="M374.73,202.89c3.27,0,6.4-2.88,6.25-6.25s-2.75-6.25-6.25-6.25c-3.27,0-6.4,2.88-6.25,6.25s2.75,6.25,6.25,6.25h0Z"/>
            <path class="cls-25" d="M417.54,190.11v-.65c.03-.86-.15-1.66-.54-2.41-.25-.78-.68-1.45-1.29-2.01-.57-.61-1.24-1.04-2.01-1.29-.75-.39-1.55-.57-2.41-.54l-1.66,.22c-1.06,.3-1.98,.83-2.76,1.61l-.98,1.27c-.57,.98-.85,2.03-.85,3.16v.65c-.03,.86,.15,1.66,.54,2.41,.25,.78,.68,1.45,1.29,2.01,.57,.61,1.24,1.04,2.01,1.29,.75,.39,1.55,.57,2.41,.54l1.66-.22c1.06-.3,1.98-.83,2.76-1.61l.98-1.27c.57-.98,.85-2.03,.85-3.16h0Z"/>
            <path class="cls-25" d="M415.85,193.75c3.27,0,6.4-2.88,6.25-6.25s-2.75-6.25-6.25-6.25c-3.27,0-6.4,2.88-6.25,6.25s2.75,6.25,6.25,6.25h0Z"/>
            <path class="cls-25" d="M424.34,200.93c3.27,0,6.4-2.88,6.25-6.25s-2.75-6.25-6.25-6.25c-3.27,0-6.4,2.88-6.25,6.25s2.75,6.25,6.25,6.25h0Z"/>
            <path class="cls-25" d="M432.17,200.93c3.27,0,6.4-2.88,6.25-6.25s-2.75-6.25-6.25-6.25c-3.27,0-6.4,2.88-6.25,6.25s2.75,6.25,6.25,6.25h0Z"/>
            <path class="cls-25" d="M434.78,194.4c3.27,0,6.4-2.88,6.25-6.25s-2.75-6.25-6.25-6.25c-3.27,0-6.4,2.88-6.25,6.25s2.75,6.25,6.25,6.25h0Z"/>
            <path class="cls-25" d="M440.11,185.04c-.65-.87-1.3-1.75-1.95-2.62-.39-.73-.93-1.31-1.61-1.75-.6-.55-1.31-.93-2.13-1.12-.83-.26-1.66-.3-2.49-.11-.83,.04-1.61,.29-2.32,.74l-1.27,.98c-.78,.78-1.31,1.7-1.61,2.76l-.22,1.66c0,1.13,.29,2.18,.85,3.16,.65,.87,1.3,1.75,1.95,2.62,.39,.73,.93,1.31,1.61,1.75,.6,.55,1.31,.93,2.13,1.12,.83,.26,1.66,.3,2.49,.11,.83-.04,1.61-.29,2.32-.74l1.27-.98c.78-.78,1.31-1.7,1.61-2.76l.22-1.66c0-1.13-.29-2.18-.85-3.16h0Z"/>
            <path class="cls-25" d="M415.85,208.76c3.27,0,6.4-2.88,6.25-6.25s-2.75-6.25-6.25-6.25c-3.27,0-6.4,2.88-6.25,6.25s2.75,6.25,6.25,6.25h0Z"/>
            <path class="cls-25" d="M415.85,208.76h.65c.86,.03,1.66-.15,2.41-.54,.78-.25,1.45-.68,2.01-1.29,.61-.57,1.04-1.24,1.29-2.01,.39-.75,.57-1.55,.54-2.41l-.22-1.66c-.3-1.06-.83-1.98-1.61-2.76l-1.27-.98c-.98-.57-2.03-.85-3.16-.85h-.65c-.86-.03-1.66,.15-2.41,.54-.78,.25-1.45,.68-2.01,1.29-.61,.57-1.04,1.24-1.29,2.01-.39,.75-.57,1.55-.54,2.41l.22,1.66c.3,1.06,.83,1.98,1.61,2.76l1.27,.98c.98,.57,2.03,.85,3.16,.85h0Z"/>
            <path class="cls-25" d="M445.88,200.93c3.27,0,6.4-2.88,6.25-6.25s-2.75-6.25-6.25-6.25c-3.27,0-6.4,2.88-6.25,6.25s2.75,6.25,6.25,6.25h0Z"/>
            <path class="cls-25" d="M449.8,200.28c3.27,0,6.4-2.88,6.25-6.25s-2.75-6.25-6.25-6.25c-3.27,0-6.4,2.88-6.25,6.25s2.75,6.25,6.25,6.25h0Z"/>
            <path class="cls-25" d="M432.83,189.18c3.27,0,6.4-2.88,6.25-6.25s-2.75-6.25-6.25-6.25c-3.27,0-6.4,2.88-6.25,6.25s2.75,6.25,6.25,6.25h0Z"/>
            <path class="cls-25" d="M421.73,178.63h-.65c-.86-.03-1.66,.15-2.41,.54-.78,.25-1.45,.68-2.01,1.29-.61,.57-1.04,1.24-1.29,2.01-.39,.75-.57,1.55-.54,2.41l.22,1.66c.3,1.06,.83,1.98,1.61,2.76l1.27,.98c.98,.57,2.03,.85,3.16,.85h.65c.86,.03,1.66-.15,2.41-.54,.78-.25,1.45-.68,2.01-1.29,.61-.57,1.04-1.24,1.29-2.01,.39-.75,.57-1.55,.54-2.41l-.22-1.66c-.3-1.06-.83-1.98-1.61-2.76l-1.27-.98c-.98-.57-2.03-.85-3.16-.85h0Z"/>
            <path class="cls-25" d="M402.14,197.67c3.27,0,6.4-2.88,6.25-6.25s-2.75-6.25-6.25-6.25c-3.27,0-6.4,2.88-6.25,6.25s2.75,6.25,6.25,6.25h0Z"/>
            <path class="cls-21" d="M404.1,203.54c3.27,0,6.4-2.88,6.25-6.25s-2.75-6.25-6.25-6.25c-3.27,0-6.4,2.88-6.25,6.25s2.75,6.25,6.25,6.25h0Z"/>
            <path class="cls-21" d="M426.95,206.8c3.27,0,6.4-2.88,6.25-6.25s-2.75-6.25-6.25-6.25c-3.27,0-6.4,2.88-6.25,6.25s2.75,6.25,6.25,6.25h0Z"/>
            <path class="cls-21" d="M434.13,199.62c3.27,0,6.4-2.88,6.25-6.25s-2.75-6.25-6.25-6.25c-3.27,0-6.4,2.88-6.25,6.25s2.75,6.25,6.25,6.25h0Z"/>
            <path class="cls-21" d="M419.12,193.75c3.27,0,6.4-2.88,6.25-6.25s-2.75-6.25-6.25-6.25c-3.27,0-6.4,2.88-6.25,6.25s2.75,6.25,6.25,6.25h0Z"/>
            <path class="cls-21" d="M415.2,212.68c3.27,0,6.4-2.88,6.25-6.25s-2.75-6.25-6.25-6.25c-3.27,0-6.4,2.88-6.25,6.25s2.75,6.25,6.25,6.25h0Z"/>
            <path class="cls-21" d="M383.21,204.19c3.27,0,6.4-2.88,6.25-6.25s-2.75-6.25-6.25-6.25c-3.27,0-6.4,2.88-6.25,6.25s2.75,6.25,6.25,6.25h0Z"/>
            <path class="cls-21" d="M449.8,210.72c3.27,0,6.4-2.88,6.25-6.25s-2.75-6.25-6.25-6.25c-3.27,0-6.4,2.88-6.25,6.25s2.75,6.25,6.25,6.25h0Z"/>
            <path class="cls-21" d="M398.88,196.36c3.27,0,6.4-2.88,6.25-6.25s-2.75-6.25-6.25-6.25c-3.27,0-6.4,2.88-6.25,6.25s2.75,6.25,6.25,6.25h0Z"/>
            <path class="cls-21" d="M448.49,190.49c3.27,0,6.4-2.88,6.25-6.25s-2.75-6.25-6.25-6.25c-3.27,0-6.4,2.88-6.25,6.25s2.75,6.25,6.25,6.25h0Z"/>
            <path class="cls-22" d="M398.11,203.3c-.22,.43-.44,.87-.66,1.3-.46,.72-.7,1.49-.74,2.32-.19,.83-.15,1.66,.11,2.49,.19,.81,.57,1.52,1.12,2.13,.44,.68,1.03,1.22,1.75,1.61l1.49,.63c1.11,.3,2.22,.3,3.32,0l1.49-.63c.94-.56,1.69-1.3,2.24-2.24,.22-.43,.44-.87,.66-1.3,.46-.72,.7-1.49,.74-2.32,.19-.83,.15-1.66-.11-2.49-.19-.81-.57-1.52-1.12-2.13-.44-.68-1.03-1.22-1.75-1.61l-1.49-.63c-1.11-.3-2.22-.3-3.32,0l-1.49,.63c-.94,.56-1.69,1.3-2.24,2.24h0Z"/>
            <path class="cls-22" d="M417.16,197.67c3.27,0,6.4-2.88,6.25-6.25s-2.75-6.25-6.25-6.25c-3.27,0-6.4,2.88-6.25,6.25s2.75,6.25,6.25,6.25h0Z"/>
            <path class="cls-22" d="M440.66,216.6c3.27,0,6.4-2.88,6.25-6.25s-2.75-6.25-6.25-6.25c-3.27,0-6.4,2.88-6.25,6.25s2.75,6.25,6.25,6.25h0Z"/>
            <path class="cls-22" d="M395.62,197.68c-1.31,0-2.61,0-3.92,0-.86-.03-1.66,.15-2.41,.54-.78,.25-1.45,.68-2.01,1.29-.61,.57-1.04,1.24-1.29,2.01-.39,.75-.57,1.55-.54,2.41l.22,1.66c.3,1.06,.83,1.98,1.61,2.76l1.27,.98c.98,.57,2.03,.85,3.16,.85,1.31,0,2.61,0,3.92,0,.86,.03,1.66-.15,2.41-.54,.78-.25,1.45-.68,2.01-1.29,.61-.57,1.04-1.24,1.29-2.01,.39-.75,.57-1.55,.54-2.41l-.22-1.66c-.3-1.06-.83-1.98-1.61-2.76l-1.27-.98c-.98-.57-2.03-.85-3.16-.85h0Z"/>
            <path class="cls-22" d="M430.87,212.03h.65c.86,.03,1.66-.15,2.41-.54,.78-.25,1.45-.68,2.01-1.29,.61-.57,1.04-1.24,1.29-2.01,.39-.75,.57-1.55,.54-2.41l-.22-1.66c-.3-1.06-.83-1.98-1.61-2.76l-1.27-.98c-.98-.57-2.03-.85-3.16-.85h-.65c-.86-.03-1.66,.15-2.41,.54-.78,.25-1.45,.68-2.01,1.29-.61,.57-1.04,1.24-1.29,2.01-.39,.75-.57,1.55-.54,2.41l.22,1.66c.3,1.06,.83,1.98,1.61,2.76l1.27,.98c.98,.57,2.03,.85,3.16,.85h0Z"/>
            <path class="cls-22" d="M451.1,207.46c3.27,0,6.4-2.88,6.25-6.25s-2.75-6.25-6.25-6.25c-3.27,0-6.4,2.88-6.25,6.25s2.75,6.25,6.25,6.25h0Z"/>
            <path class="cls-22" d="M441.96,197.67c3.27,0,6.4-2.88,6.25-6.25s-2.75-6.25-6.25-6.25c-3.27,0-6.4,2.88-6.25,6.25s2.75,6.25,6.25,6.25h0Z"/>
            <path class="cls-22" d="M429.56,189.18c3.27,0,6.4-2.88,6.25-6.25s-2.75-6.25-6.25-6.25c-3.27,0-6.4,2.88-6.25,6.25s2.75,6.25,6.25,6.25h0Z"/>
            <path class="cls-22" d="M386.48,197.01c3.27,0,6.4-2.88,6.25-6.25s-2.75-6.25-6.25-6.25c-3.27,0-6.4,2.88-6.25,6.25s2.75,6.25,6.25,6.25h0Z"/>
            <path class="cls-22" d="M414.55,203.54c3.27,0,6.4-2.88,6.25-6.25s-2.75-6.25-6.25-6.25c-3.27,0-6.4,2.88-6.25,6.25s2.75,6.25,6.25,6.25h0Z"/>
          </g>
        </g>
      </g>
      <g class="cls-23">
        <g>
          <g>
            <g class="cls-24">
              <path class="cls-8" d="M223.59,56.32c-4.19-18.39-8.32-37.44-4.76-55.97,5.85,15.04,14.75,28.88,26,40.43"/>
              <path class="cls-6" d="M275.16,74.86c7.92-4.09,21.35-6.02,25.87-7.3,4.43-1.25,8.93-2.51,13.54-2.56,4.61-.05,9.42,1.24,12.7,4.46,4.56,4.48,5.26,11.59,4.51,17.94-.28,2.33-.75,4.73-2.15,6.61-1.41,1.88-3.98,3.06-6.16,2.2-2.33-.92-3.3-3.6-4.68-5.69-5.69-8.59-16.72-5.47-24.76-3.32-5.54,1.48-11.41,1.75-17.07,.79-1.9-.32-3.82-.8-5.38-1.93-1.56-1.13-2.67-3.04-2.39-4.94,.38-2.52,2.7-4.57,5.96-6.26Z"/>
              <path class="cls-8" d="M259.39,419.74c-1.41,2.27-6.7,2.64-6.7,2.64,0,0-6.64,.45-10.1-.99-7.16-2.97-12.54-9.05-14.64-16.52-11.62-41.3-42.59-138.85-48.3-167.01-2.83-10.46-5.72-23.1-.23-33.21,5.59-10.29,10.98-11.39,19.77-4.24,13.39,14.95,17.85,58.44,22.91,83.82,2.17,10.91,4.09,21.88,5.98,32.85,3.81,22.11,7.22,44.34,12.07,66.25,.9,4.07,1.83,8.2,3.85,11.84,3.84,6.91,15.39,5.41,17.05,14.06,.85,4.45,.79,6.57-1.66,10.52Z"/>
              <path class="cls-6" d="M224.14,297.43c.3-2.29,.67-4.56,.95-6.86,.66-5.37,1.59-11.52,2.57-18.02,3.69-24.3,8.29-54.55,1.7-69.58-3.32-5.17-6.48-7.79-9.95-8.22-3.53-.45-7.38,1.42-12.06,5.83-8.57,8.06-9.95,20.99-10.55,32.37-1.85,15.63-3.03,53.5-4.01,91.26,12.22-6.81,22.06-16.47,31.36-26.78Z"/>
              <path class="cls-5" d="M14.22,335.36c-46.62,54.69-130.31,56.62-202.34,51.65,36.34,17.58,93.14,13.38,127.44,8.17,34.3-5.21,52.21-13.44,80.36-29.91"/>
              <path class="cls-2" d="M175.85,132.36c-2.29,7.02-4.6,13.63-7.11,19.48-18.84,43.79-70.65,106.14-109.26,142.44-31.86,29.95-82.86,62.33-67.48,114.17,5.01,16.87,16.34,31.89,32.33,39.69,11.65,5.68,38.33,11.09,48.62,.82,4.08-4.08,6.22-9.65,8.5-14.95,15.39-35.81,52.07-82.67,85.03-100.73,15.27-8.37,26.57-10.2,38.95-23.69,13.58-14.79,26.17-30.69,35.32-48.65,9.48-18.62,15.26-39.93,14.06-61.98-1.04-19.14-3.03-37.7,1.13-53.85,6.27-24.34,30.08-36.46,49.87-51.68,1.31-1.01,2.76-2.4,2.29-3.96-.62-2.07-3.69-2.1-5.9-1.72-10.2,1.74-16.93,4.22-27.16,2.22-1.78-.35-8.65-2.18-8.92-3.89,8.32,.1,16.61-2.68,24.54-4.99,10.62-3.09,20.21-6.5,30.14-11.67,2.98-1.55,9.76-4.65,11.2-7.65,3.07-6.4,4.67-13.24,4.19-19.82l-.3-2.68c-.91-5.47-3.29-10.65-7.71-14.99-1.81,.96-34.24,18.6-52.05,17.48-16.52-1.04-29.13-9-44.72-1.94-33.63,15.21-44.51,58.78-55.55,92.57Z"/>
              <path class="cls-6" d="M222.99,267.43c-8.37-9.18-21.43-25.34-30.76-33.59,5.98,20.04,11.87,50.51,18.2,71.94,8.9-10.04,16.23-19.48,22.22-28.65-3.25-3.2-6.58-6.31-9.67-9.7Z"/>
              <path class="cls-4" d="M81.79,329.47c9.66-5.73,26.33-26.76,34.42-33.64,11.64-9.9,25.99-13.4,38.59-21.55,26.16-16.94,35.32-56.2,11.75-79.54-4.26-4.22-9.01-8.16-14.08-11.78-21.56,35.82-63.21,83.32-92.99,111.32-10.12,9.52-22.16,19.28-33.41,29.83,16.49,12.07,36.92,16.52,55.72,5.36Z"/>
              <path class="cls-6" d="M336.92,51.91c.64-3.46,.91-6.92,.66-10.31l-.32-2.93c-.96-5.97-3.43-11.62-8.01-16.36-.8,.45-7.55,4.28-16.49,8.41,9.15,6.19,18.19,12.65,24.15,21.19Z"/>
              <path class="cls-6" d="M278.86,56.42c.59,8.96-6.19,16.69-15.15,17.28s-16.69-6.19-17.28-15.15c-.59-8.96,6.19-16.7,15.15-17.28,8.96-.59,16.69,6.19,17.28,15.15Z"/>
              <path class="cls-3" d="M255.49,57.09c5.76,2.67,13.51-.91,15.21-7.04"/>
              <path class="cls-7" d="M211.71,72.27c-10.82-15.45-21.84-31.53-25.52-50.04,11.09,11.72,24.55,21.18,39.34,27.63"/>
              <path class="cls-6" d="M221.85,52.83c-9.83-4.67-26.58-15.34-26.58-15.34,0,0,9.02,16.32,16.02,27.36,2.78-4.56,6.3-8.88,10.55-12.02Z"/>
            </g>
            <path class="cls-9" d="M211.73,204.54c8.55,16.72,19.78,30.09,30.54,45.19,17.52-10.26,35.05-20.51,52.57-30.78,13.44-7.88,25.2-17.57,41.67-11.93,8.39,2.87,15.3,8.44,22.1,13.93,5.99,4.83,24.6,12.02,22.64,21.86-1.48,7.44-12.59,7.88-18.46,7.09-13.74-1.85-21.55-16.1-35.18-19.32-27.2-6.41-88.94,76.18-108.49,45.2-8.17-12.95-28.38-42.35-28.38-42.35"/>
          </g>
          <g>
            <g>
              <path class="cls-11" d="M240.15,62.75c-4.19-18.39-8.32-37.44-4.76-55.97,5.85,15.04,14.75,28.88,26,40.43"/>
              <path class="cls-1" d="M291.72,81.29c7.92-4.09,21.35-6.02,25.87-7.3,4.43-1.25,8.93-2.51,13.54-2.56,4.61-.05,9.42,1.24,12.7,4.46,4.56,4.48,5.26,11.59,4.51,17.94-.28,2.33-.75,4.73-2.15,6.61-1.41,1.88-3.98,3.06-6.16,2.2-2.33-.92-3.3-3.6-4.68-5.69-5.69-8.59-16.72-5.47-24.76-3.32-5.54,1.48-11.41,1.75-17.07,.79-1.9-.32-3.82-.8-5.38-1.93-1.56-1.13-2.67-3.04-2.39-4.94,.38-2.52,2.7-4.57,5.96-6.26Z"/>
              <path class="cls-11" d="M275.95,426.17c-1.41,2.27-6.7,2.64-6.7,2.64,0,0-6.64,.45-10.1-.99-7.16-2.97-12.54-9.05-14.64-16.52-11.62-41.3-42.59-138.85-48.3-167.01-2.83-10.46-5.72-23.1-.23-33.21,5.59-10.29,10.98-11.39,19.77-4.24,13.39,14.95,17.85,58.44,22.91,83.82,2.17,10.91,4.09,21.88,5.98,32.85,3.81,22.11,7.22,44.34,12.07,66.25,.9,4.07,1.83,8.2,3.85,11.84,3.84,6.91,15.39,5.41,17.05,14.06,.85,4.45,.79,6.57-1.66,10.52Z"/>
              <path class="cls-16" d="M240.7,303.86c.3-2.29,.67-4.56,.95-6.86,.66-5.37,1.59-11.52,2.57-18.02,3.69-24.3,8.29-54.55,1.7-69.58-3.32-5.17-6.48-7.79-9.95-8.22-3.53-.45-7.38,1.42-12.06,5.83-8.57,8.06-9.95,20.99-10.55,32.37-1.85,15.63-3.03,53.5-4.01,91.26,12.22-6.81,22.06-16.47,31.36-26.78Z"/>
              <path class="cls-14" d="M30.79,341.79c-46.62,54.69-130.31,56.62-202.34,51.65,36.34,17.58,93.14,13.38,127.44,8.17,34.3-5.21,52.21-13.44,80.36-29.91"/>
              <path class="cls-12" d="M192.41,138.78c-2.29,7.02-4.6,13.63-7.11,19.48-18.84,43.79-70.65,106.14-109.26,142.44-31.86,29.95-82.86,62.33-67.48,114.17,5.01,16.87,16.34,31.89,32.33,39.69,11.65,5.68,38.33,11.09,48.62,.82,4.08-4.08,6.22-9.65,8.5-14.95,15.39-35.81,52.07-82.67,85.03-100.73,15.27-8.37,26.57-10.2,38.95-23.69,13.58-14.79,26.17-30.69,35.32-48.65,9.48-18.62,15.26-39.93,14.06-61.98-1.04-19.14-3.03-37.7,1.13-53.85,6.27-24.34,30.08-36.46,49.87-51.68,1.31-1.01,2.76-2.4,2.29-3.96-.62-2.07-3.69-2.1-5.9-1.72-10.2,1.74-16.93,4.22-27.16,2.22-1.78-.35-8.65-2.18-8.92-3.89,8.32,.1,16.61-2.68,24.54-4.99,10.62-3.09,20.21-6.5,30.14-11.67,2.98-1.55,9.76-4.65,11.2-7.65,3.07-6.4,4.67-13.24,4.19-19.82l-.3-2.68c-.91-5.47-3.29-10.65-7.71-14.99-1.81,.96-34.24,18.6-52.05,17.48-16.52-1.04-29.13-9-44.72-1.94-33.63,15.21-44.51,58.78-55.55,92.57Z"/>
              <path class="cls-18" d="M239.56,273.85c-8.37-9.18-21.43-25.34-30.76-33.59,5.98,20.04,11.87,50.51,18.2,71.94,8.9-10.04,16.23-19.48,22.22-28.65-3.25-3.2-6.58-6.31-9.67-9.7Z"/>
              <path class="cls-15" d="M98.36,335.89c9.66-5.73,26.33-26.76,34.42-33.64,11.64-9.9,25.99-13.4,38.59-21.55,26.16-16.94,35.32-56.2,11.75-79.54-4.26-4.22-9.01-8.16-14.08-11.78-21.56,35.82-63.21,83.32-92.99,111.32-10.12,9.52-22.16,19.28-33.41,29.83,16.49,12.07,36.92,16.52,55.72,5.36Z"/>
              <path class="cls-19" d="M353.49,58.34c.64-3.46,.91-6.92,.66-10.31l-.32-2.93c-.96-5.97-3.43-11.62-8.01-16.36-.8,.45-7.55,4.28-16.49,8.41,9.15,6.19,18.19,12.65,24.15,21.19Z"/>
              <path class="cls-19" d="M295.42,62.85c.59,8.96-6.19,16.69-15.15,17.28-8.96,.59-16.69-6.19-17.28-15.15-.59-8.96,6.19-16.7,15.15-17.28,8.96-.59,16.69,6.19,17.28,15.15Z"/>
              <path class="cls-17" d="M272.06,63.51c5.76,2.67,13.51-.91,15.21-7.04"/>
              <path class="cls-10" d="M228.28,78.69c-10.82-15.45-21.84-31.53-25.52-50.04,11.09,11.72,24.55,21.18,39.34,27.63"/>
              <path class="cls-18" d="M238.41,59.25c-9.83-4.67-26.58-15.34-26.58-15.34,0,0,9.02,16.32,16.02,27.36,2.78-4.56,6.3-8.88,10.55-12.02Z"/>
            </g>
            <path class="cls-13" d="M228.29,210.97c8.55,16.72,19.78,30.09,30.54,45.19,17.52-10.26,35.05-20.51,52.57-30.78,13.44-7.88,25.2-17.57,41.67-11.93,8.39,2.87,15.3,8.44,22.1,13.93,5.99,4.83,24.6,12.02,22.64,21.86-1.48,7.44-12.59,7.88-18.46,7.09-13.74-1.85-21.55-16.1-35.18-19.32-27.2-6.41-88.94,76.18-108.49,45.2-8.17-12.95-28.38-42.35-28.38-42.35"/>
          </g>
        </g>
      </g>
    </g>
  </g>
</svg>