<?xml version="1.0" encoding="UTF-8"?>
<svg id="Capa_2" data-name="Capa 2" xmlns="http://www.w3.org/2000/svg" viewBox="0 0 243.16 174.27">
  <defs>
    <style>
      .cls-1 {
        fill: #cb8a2e;
      }

      .cls-2 {
        fill: #29223a;
      }

      .cls-3 {
        fill: #221e20;
      }

      .cls-4 {
        fill: #f8ae37;
      }
    </style>
  </defs>
  <g id="HAZLO_X_ELLOS" data-name="HAZLO X ELLOS">
    <g>
      <path class="cls-2" d="M101.58,21.98c-.38-4.29-4.25-12.59-7.48-15.52-3.23-2.93-7.4-4.54-11.74-4.54-.16,0-.31,0-.47,0l-4.99,.14c-4,.11-8.05,1.6-11.39,4.2-3.35,2.6-5.78,6.14-6.84,9.96l-1.18,4.23,.08-1.07c.33-4.57-1.19-9.11-4.17-12.47-2.86-3.22-6.78-5.13-11.03-5.36-.3-.02-.59-.02-.88-.02-4.01,0-7.84,1.49-10.87,4.21-2.87-2.72-6.61-4.21-10.63-4.21-.29,0-.58,0-.87,.02C10.61,2.01,3.46,9.25,2.85,18.01L.04,58.07c-.32,4.61,1.23,8.98,4.36,12.3,3.12,3.32,7.4,5.14,12.04,5.14,0,0,.02,0,.02,0,3.83-.01,7.48-1.29,10.47-3.63,1.11,.91,2.35,1.67,3.69,2.25,2.06,.9,4.28,1.36,6.59,1.37,0,0,.02,0,.02,0h.03c4.37,0,8.58-1.67,11.85-4.69,.6-.55,1.15-1.14,1.66-1.76,1.22,1.55,2.71,2.84,4.44,3.84,1.61,.93,3.37,1.57,5.24,1.91,1.24,2.26,2.75,4.4,4.47,6.33,1.54,1.73,3.22,3.27,5.01,4.59-1.83,1.44-3.53,3.12-5.04,5.01-2.31,2.9-4.08,6.16-5.2,9.57-1.43,.88-2.74,1.98-3.89,3.26-.31-.36-.64-.7-.99-1.04-3.14-3.03-7.29-4.7-11.7-4.7-.3,0-.61,0-.91,.02l-15.06,.81c-4.34,.23-8.45,2.1-11.58,5.25-3.13,3.15-4.94,7.26-5.1,11.56l-1.5,39.42c-.17,4.47,1.42,8.74,4.48,12.05,3.06,3.3,7.23,5.24,11.73,5.45l13.05,.61c.26,.01,.53,.02,.8,.02,4.15,0,8.24-1.5,11.51-4.22,.53-.44,1.03-.91,1.5-1.4,.17,.2,.34,.39,.52,.58,3.12,3.33,7.39,5.16,12.04,5.16,.02,0,.04,0,.07,0l15.77-.13c4.17-.03,8.24-1.5,11.44-4.11,.61-.5,1.18-1.03,1.7-1.58,.19,.23,.39,.45,.59,.66,3.12,3.33,7.39,5.16,12.04,5.16,.02,0,.04,0,.07,0l15.77-.13c4.17-.03,8.24-1.5,11.44-4.11,.97-.79,1.84-1.67,2.59-2.61,.96,.92,1.99,1.78,3.08,2.57,4.44,3.22,9.82,4.93,16,5.09,0,0,.01,0,.02,0h.03c.06,0,.13,0,.19,0h.03s.02,0,.03,0c6.35-.02,12.07-1.58,16.99-4.65,3.11-1.93,5.86-4.32,8.24-7.11,.41,1.04,.95,2.02,1.64,2.91,0,0,0,0,0,0l.1,.13c.29,.38,.62,.73,.98,1.05l1.35,1.21c1.97,1.77,4.39,3.31,7.19,4.57,.03,.02,.07,.03,.1,.05,3.27,1.42,6.77,2.14,10.4,2.14,.78,0,1.57-.03,2.36-.1,4.23-.35,8.29-1.58,12.06-3.66,3.93-2.16,7.2-5.12,9.7-8.82,2.71-4,4.12-8.65,4.18-13.83,0-.03,0-.07,0-.1,0-2.95-.54-5.92-1.6-8.85-.63-1.72-1.46-3.38-2.49-4.96,.55-.37,1.08-.76,1.59-1.17,3.44-2.79,5.5-6.23,5.95-9.96v-.12c.06-.37,.08-.74,.07-1.11l-.04-2.1c-.07-3.11-.65-6.1-1.75-8.89-1.22-3.11-3.21-5.94-5.92-8.42l-.05-.05c-.16-.14-.32-.28-.49-.41l-.06-.04c-3.86-3-8.33-4.69-13.28-5.02-.63-.04-1.27-.06-1.91-.06-3.83,0-7.65,.77-11.35,2.3-4.29,1.77-8.08,4.46-11.26,8.01-.69,.77-1.33,1.57-1.92,2.4-.81-4.28-2.6-8.58-5.21-12.44-2.13-3.14-4.73-5.88-7.61-8.05,1.89-1.49,3.63-3.24,5.17-5.22,2.22-2.85,3.9-6.01,4.99-9.32,1.58-.76,3.05-1.74,4.34-2.91,.4-.36,.77-.74,1.13-1.13,.68,.6,1.39,1.16,2.13,1.7,4.44,3.22,9.82,4.93,16,5.09,.01,0,.02,0,.04,0h.03c.06,0,.12,0,.18,0h.03s.02,0,.03,0c6.35-.02,12.07-1.58,16.99-4.65,4.62-2.88,8.47-6.74,11.43-11.47,2.74-4.38,4.74-9.23,5.95-14.41,1.18-5.07,1.61-10.2,1.28-15.27-.34-5.27-1.52-10.19-3.51-14.65-2.25-5.03-5.56-9.1-9.83-12.09-4.28-2.99-9.38-4.5-15.15-4.5-.46,0-.9,0-1.4,.03-.07,0-.14,0-.21,.01-6.11,.41-11.62,2.19-16.35,5.28-4.47,2.92-8.23,6.72-11.15,11.3-2.75,4.3-4.77,9.02-6.02,14.05-.35,1.4-.63,2.8-.86,4.21l1.68-16.3c.23-2.28,0-4.51-.68-6.65-.7-2.18-1.84-4.14-3.38-5.85-3.09-3.4-7.38-5.27-12.08-5.29,0,0-.01,0-.02,0-4.37,0-8.58,1.66-11.85,4.68-.59,.54-1.13,1.12-1.64,1.72-.15-.17-.31-.34-.47-.5-3.14-3.24-7.61-5.11-12.28-5.13h-.02c-.66,0-4.22-.03-9.1-.11-5.53-.1-9.41-.11-9.44-.11,0,0-.02,0-.03,0-4.36,0-8.55,1.63-11.81,4.6-3.3,3-5.28,7.02-5.58,11.34l-.29,4.7Z"/>
      <g>
        <g>
          <g>
            <g>
              <g>
                <path class="cls-3" d="M207.32,69.09c-4.52-.12-8.38-1.32-11.48-3.56-3.05-2.21-5.43-5.16-7.06-8.77-1.59-3.52-2.52-7.43-2.76-11.63-.24-4.16,.16-8.39,1.19-12.56,1.04-4.19,2.72-8.12,5-11.69,2.31-3.62,5.27-6.62,8.79-8.92,3.57-2.33,7.77-3.67,12.49-3.99,.39-.02,.73-.02,1.06-.02,4.09,0,7.63,1.03,10.53,3.05,3.08,2.15,5.47,5.11,7.13,8.81,1.61,3.59,2.56,7.61,2.84,11.94,.28,4.29-.09,8.66-1.09,12.97-1.01,4.34-2.67,8.38-4.95,12.01-2.31,3.7-5.3,6.7-8.89,8.93-3.64,2.26-7.93,3.42-12.76,3.43h-.05Zm5.54-44.13c-1.25,.16-2.31,.84-3.26,2.07-1.12,1.46-2.03,3.34-2.7,5.58-.7,2.34-1.14,4.82-1.32,7.38-.18,2.55-.09,4.96,.26,7.15,.33,2.06,.91,3.69,1.72,4.84,.67,.95,1.32,1.07,1.82,1.07,.09,0,.17,0,.26-.01,.96-.19,1.83-.87,2.68-2.08,1.02-1.47,1.89-3.35,2.57-5.6,.7-2.31,1.18-4.77,1.43-7.31,.25-2.53,.25-4.92,0-7.1-.24-2.04-.73-3.67-1.46-4.84-.64-1.01-1.31-1.15-1.88-1.15-.03,0-.07,0-.1,0Z"/>
                <path class="cls-4" d="M214.81,9.2c4.14-.16,7.62,.74,10.44,2.71,2.82,1.97,4.99,4.66,6.52,8.08,1.53,3.42,2.42,7.19,2.69,11.33,.27,4.14-.08,8.29-1.05,12.46-.97,4.17-2.55,7.99-4.73,11.48-2.18,3.48-4.95,6.27-8.32,8.37-3.36,2.09-7.3,3.15-11.81,3.16-4.17-.11-7.66-1.18-10.47-3.22-2.81-2.04-4.97-4.73-6.48-8.06-1.51-3.33-2.38-7-2.61-11.01-.23-4,.15-8.02,1.15-12.04,1-4.02,2.59-7.75,4.78-11.17,2.19-3.42,4.94-6.22,8.26-8.39,3.32-2.17,7.2-3.4,11.63-3.7Zm-3.71,45.07c1.46-.26,2.75-1.2,3.89-2.83,1.14-1.63,2.07-3.66,2.81-6.1,.74-2.43,1.23-4.98,1.5-7.65,.26-2.67,.26-5.16-.01-7.48-.27-2.32-.84-4.18-1.72-5.57-.88-1.4-2.1-2.06-3.65-1.97-1.76,.2-3.27,1.13-4.53,2.76-1.26,1.64-2.26,3.69-2.99,6.16-.74,2.47-1.2,5.05-1.39,7.75-.19,2.7-.1,5.22,.28,7.56,.38,2.34,1.05,4.2,2.02,5.57,.97,1.38,2.24,1.98,3.81,1.8Z"/>
                <path class="cls-1" d="M208.57,65.61c-3.89-.11-7.19-1.11-9.78-2.99-2.63-1.91-4.68-4.46-6.09-7.59-1.44-3.19-2.28-6.75-2.51-10.59-.23-3.87,.15-7.8,1.11-11.69,.96-3.88,2.52-7.52,4.63-10.82,2.09-3.26,4.75-5.97,7.91-8.03,3.13-2.04,6.85-3.23,11.05-3.51,.27-.01,.57-.02,.86-.02,3.46,0,6.43,.85,8.81,2.51,2.63,1.84,4.69,4.39,6.12,7.59,1.46,3.27,2.34,6.95,2.59,10.93,.26,4-.08,8.08-1.02,12.12-.94,4.02-2.48,7.76-4.58,11.12-2.07,3.31-4.74,6-7.94,7.99-3.15,1.96-6.91,2.96-11.17,2.98Zm5.59-44.13c-.1,0-.21,0-.32,0h-.08c-2.09,.25-3.88,1.33-5.34,3.23-1.34,1.74-2.41,3.94-3.19,6.54-.76,2.54-1.24,5.23-1.44,8-.2,2.78-.1,5.41,.29,7.83,.41,2.51,1.15,4.55,2.22,6.06,1.08,1.53,2.55,2.34,4.26,2.34,.21,0,.43-.01,.66-.04h.08c1.78-.33,3.34-1.45,4.66-3.34,1.2-1.72,2.2-3.89,2.97-6.43,.76-2.5,1.27-5.15,1.54-7.88,.27-2.74,.26-5.34-.01-7.73-.29-2.48-.93-4.52-1.9-6.07-1.05-1.66-2.57-2.54-4.41-2.54Z"/>
                <path class="cls-4" d="M209.78,64.42c-3.64-.1-6.7-1.03-9.09-2.77-2.46-1.78-4.38-4.18-5.71-7.12-1.38-3.06-2.19-6.48-2.41-10.18-.22-3.75,.14-7.56,1.08-11.34,.93-3.76,2.44-7.28,4.48-10.47,2-3.12,4.54-5.71,7.56-7.68,2.95-1.93,6.46-3.04,10.45-3.32,.27-.01,.54-.02,.81-.02,3.26,0,5.91,.75,8.13,2.3,2.45,1.71,4.37,4.1,5.71,7.11,1.41,3.14,2.24,6.69,2.49,10.53,.25,3.89-.08,7.85-1,11.77-.91,3.89-2.4,7.51-4.43,10.76-1.98,3.16-4.52,5.72-7.56,7.61-2.96,1.84-6.49,2.78-10.52,2.8Zm5.57-44.13c-.13,0-.25,0-.38,.01h-.08s-.08,.01-.08,.01c-2.42,.28-4.49,1.52-6.15,3.68-1.43,1.86-2.57,4.19-3.38,6.92-.78,2.62-1.28,5.4-1.49,8.26-.2,2.87-.1,5.59,.3,8.1,.43,2.68,1.25,4.89,2.42,6.55,1.65,2.35,3.76,2.84,5.24,2.84,.26,0,.53-.02,.79-.05h.08s.08-.02,.08-.02c2.1-.37,3.93-1.66,5.43-3.82,1.27-1.82,2.32-4.1,3.13-6.76,.78-2.57,1.31-5.3,1.59-8.1,.28-2.82,.27-5.5-.01-7.98-.31-2.66-1-4.86-2.07-6.56-1.28-2.02-3.15-3.09-5.42-3.09Z"/>
              </g>
              <g>
                <path class="cls-3" d="M128.37,67.74c-2.31,0-5.54,0-8.94,0-5.43-.01-9.14-.02-9.14-.02-3.05,0-5.82-.98-7.4-2.61-.95-.98-1.44-2.14-1.39-3.36l.17-4.25c.12-3.08,2.74-7.92,5.21-10.81l15.28-17.88c.86-1.01,.99-1.7,.92-1.86-.07-.14-.62-.46-1.84-.46h-.19s-.53,.01-4.21,.03c0,0-2.92,.03-2.92,.03-.64,0-1.5-.18-2.3-1.02-1.33-1.41-1.98-4.29-1.74-7.7,.33-4.71,4.54-8.54,9.39-8.54,.08,0,3.88,.02,9.33,.11,5.43,.09,9.19,.11,9.23,.11,2.51,.01,4.89,.99,6.53,2.69,1.47,1.52,2.24,3.49,2.17,5.53-.14,3.86-2.23,9.61-4.74,13.09l-12.5,17.29c-.73,1.01-.89,1.79-.73,2.11,.15,.29,.79,.57,1.9,.57,.09,0,.18,0,.28,0l6.13-.26s.1,0,.16,0c.63,0,1.57,.19,2.43,1.11,1.36,1.45,2.04,4.26,1.81,7.53-.33,4.73-4.56,8.58-9.42,8.58h-3.45Z"/>
                <path class="cls-4" d="M115.08,24.26c-1.5,.05-2.51-3.02-2.24-6.83s3.71-6.91,7.64-6.89c0,0,3.77,.02,9.27,.11,5.5,.1,9.25,.11,9.25,.11,3.94,.02,7.05,2.89,6.92,6.38-.13,3.49-2.11,8.95-4.41,12.12l-12.5,17.29c-2.29,3.17-.95,5.64,2.98,5.48,0,0,.08,0,3.11-.13l3.03-.13c1.66-.1,2.8,2.93,2.54,6.74-.27,3.81-3.71,6.93-7.64,6.93,0,0-5.89,0-12.39,0-5.43-.01-9.15-.02-9.15-.02-3.94,0-7.09-1.86-7.01-4.13l.08-2.07,.08-2.17c.09-2.37,2.25-6.75,4.79-9.73l15.28-17.88c2.54-2.98,1.41-5.33-2.53-5.23,0,0-.41,.01-4.18,.02l-2.93,.03Z"/>
                <path class="cls-1" d="M129.57,64.25c-2.31,0-5.54,0-8.93,0-5.43-.01-9.15-.02-9.15-.02-2.19,0-4.25-.67-5.26-1.7-.39-.4-.57-.8-.56-1.2l.17-4.24c.07-1.89,1.9-5.96,4.51-9.01l15.28-17.88c2.08-2.43,1.74-4.18,1.35-5.01-.38-.81-1.47-2.17-4.55-2.17-.09,0-.18,0-.27,0-.03,0-.53,.01-4.15,.02l-2.94,.03c-.38-.17-1.28-2.08-1.04-5.56,.22-3.19,3.1-5.79,6.42-5.79,.07,0,3.85,.02,9.28,.11,5.45,.09,9.23,.11,9.27,.11,1.7,0,3.3,.66,4.39,1.78,.91,.94,1.39,2.14,1.34,3.38-.12,3.25-2.04,8.5-4.18,11.47l-12.5,17.29c-1.37,1.89-1.71,3.73-.96,5.18,.42,.81,1.57,2.18,4.56,2.18,.13,0,.26,0,.4,0,0,0,6.14-.26,6.14-.26,.08,0,.18,.07,.28,.17,.62,.66,1.2,2.6,1.02,5.31-.22,3.21-3.12,5.83-6.45,5.83h-3.45Z"/>
                <path class="cls-4" d="M130.76,63.07c-2.31,0-5.54,0-8.93,0-5.43-.01-9.15-.02-9.15-.02-2.14,0-3.75-.68-4.4-1.34-.19-.2-.23-.32-.23-.34l.16-4.23c.06-1.65,1.88-5.55,4.23-8.29l15.28-17.88c2.5-2.93,2.03-5.19,1.52-6.27-.5-1.07-1.89-2.86-5.63-2.86-.1,0-.2,0-.3,0-.05,0-.6,.01-4.12,.02l-2.31,.02c-.27-.63-.62-2.1-.47-4.29,.18-2.54,2.57-4.69,5.23-4.69,.06,0,3.84,.02,9.26,.11,5.46,.09,9.24,.11,9.28,.11,1.38,0,2.67,.52,3.54,1.42,.48,.5,1.05,1.34,1.01,2.51-.11,3.06-1.93,8.02-3.96,10.83l-12.5,17.29c-2.21,3.06-1.61,5.33-1.05,6.41,.55,1.05,2,2.82,5.62,2.82,.15,0,.3,0,.45,0,0,0,5.64-.24,5.64-.24,.29,.56,.7,1.99,.55,4.19-.18,2.56-2.59,4.73-5.26,4.73h-3.45Z"/>
              </g>
              <g>
                <path class="cls-3" d="M64,67.17c-.4,0-.79-.02-1.18-.06l-.28-.03c-2.42-.26-4.47-1.44-5.76-3.32-1.29-1.88-1.66-4.2-1.03-6.53l5.16-19.03c1.03-3.8,2.72-9.94,3.77-13.7l1.72-6.17c1.27-4.54,5.98-8.2,10.73-8.34l4.99-.14c.08,0,.17,0,.25,0,4.83,0,8.94,3.73,9.36,8.49l3.45,38.68c.43,4.82-3.08,9.27-7.82,9.92-.47,.06-.93,.1-1.39,.1-4.29,0-7.61-2.76-7.71-6.42-.07-2.39-1.24-3.85-1.86-3.85-.73,0-2.48,1.6-3.13,4.21-.9,3.59-4.79,6.19-9.25,6.19Z"/>
                <path class="cls-4" d="M69.31,18.28c1.05-3.76,5.12-6.93,9.06-7.04l4.99-.14c3.93-.11,7.44,2.98,7.78,6.87l3.45,38.68c.35,3.89-2.48,7.49-6.28,8.01-3.8,.52-6.99-1.56-7.08-4.62-.09-3.06-1.73-5.57-3.64-5.57-1.91,0-4.1,2.49-4.87,5.55-.77,3.06-4.59,5.22-8.51,4.79l-.28-.03c-3.91-.42-6.28-3.86-5.26-7.62l5.16-19.03c1.02-3.77,2.71-9.93,3.76-13.69l1.72-6.17Zm9.12,19.92c-.86,2.73-.67,4.98,.41,5,1.08,.02,1.79-2.22,1.56-4.97-.23-2.75-1.11-2.76-1.97-.03Z"/>
                <path class="cls-1" d="M65.19,63.69c-.29,0-.58-.02-.86-.05l-.28-.03c-1.54-.17-2.83-.9-3.62-2.05-.8-1.15-1.01-2.61-.61-4.09l5.16-19.03c1.03-3.79,2.71-9.93,3.76-13.68l1.72-6.17c.91-3.25,4.54-6.07,7.94-6.17l4.99-.14h.17c3.24,0,6.11,2.6,6.39,5.79l3.45,38.68c.29,3.28-2.07,6.3-5.26,6.73-.33,.05-.66,.07-.99,.07-2.68,0-4.67-1.5-4.73-3.55-.11-3.76-2.23-6.71-4.83-6.72-2.48,0-5.13,2.83-6.03,6.45-.55,2.21-3.35,3.95-6.36,3.95Zm14.45-28.71c-1.28,0-1.91,1.45-2.36,2.87-.29,.94-1.17,4.13,0,5.72,.38,.51,.92,.8,1.54,.81h0c.44,0,1.03-.12,1.58-.72,.94-1.01,1.38-3.08,1.18-5.53-.07-.86-.26-3.16-1.94-3.16Z"/>
                <path class="cls-4" d="M66.38,62.5c-.24,0-.49-.01-.73-.04l-.28-.03c-1.19-.13-2.17-.68-2.77-1.54-.6-.86-.75-1.97-.44-3.12l5.16-19.03c1.03-3.79,2.71-9.92,3.76-13.67l1.72-6.17c.76-2.74,3.96-5.22,6.83-5.3l5.12-.14c2.64,0,4.97,2.12,5.21,4.72l3.45,38.68c.23,2.61-1.7,5.11-4.23,5.46-.28,.04-.56,.06-.83,.06-2.01,0-3.5-1.01-3.54-2.41-.13-4.4-2.77-7.86-6.02-7.87-3.48,0-6.3,3.79-7.19,7.35-.42,1.68-2.75,3.05-5.2,3.05Zm14.45-28.71c-2.33,0-3.18,2.69-3.5,3.7-.54,1.71-1.22,4.86,.17,6.77,.59,.81,1.5,1.29,2.48,1.3h0c.96,0,1.82-.39,2.48-1.1,1.68-1.8,1.6-5.1,1.49-6.43-.29-3.51-1.86-4.24-3.13-4.24Z"/>
              </g>
              <g>
                <path class="cls-3" d="M37.23,67.57c-2.4,0-4.56-.95-6.09-2.67-1.54-1.72-2.22-3.99-1.93-6.38l.42-3.41c.3-2.48,.11-4.28-.12-5.05h-2.99c-.37,.7-.91,2.6-.96,5.36l-.07,3.3c-.1,4.87-4.16,8.84-9.04,8.85h0c-2.4,0-4.59-.93-6.18-2.62-1.6-1.7-2.39-3.95-2.22-6.34l2.81-40.06c.33-4.76,4.25-8.84,8.72-9.08,.14,0,.29-.01,.43-.01,2.06,0,3.97,.82,5.38,2.3,1.56,1.64,2.34,3.88,2.19,6.31l-.55,9.06c-.16,2.69,.21,4.58,.52,5.3,.46,.01,.99,.02,1.55,.02,.62,0,1.21,0,1.7-.02,.44-.63,1.19-2.62,1.43-5.54l.75-9.08c.39-4.68,4.13-8.35,8.53-8.35,.14,0,.29,0,.43,.01,2.09,.12,4.03,1.07,5.46,2.68,1.57,1.77,2.37,4.2,2.19,6.65l-2.93,40.06c-.35,4.8-4.56,8.7-9.39,8.7h-.03Z"/>
                <path class="cls-4" d="M32.43,33.66c1.19-.05,2.43-3.26,2.75-7.15l.75-9.08c.32-3.89,3.5-6.91,7.07-6.71,3.57,.2,6.26,3.54,5.97,7.43l-2.93,40.06c-.28,3.89-3.72,7.07-7.63,7.06-3.91-.01-6.72-3.19-6.24-7.06l.42-3.41c.48-3.87-.08-7.04-1.23-7.04h-4.18c-1.15,0-2.15,3.19-2.24,7.09l-.07,3.31c-.08,3.9-3.35,7.1-7.26,7.11-3.91,.01-6.89-3.16-6.61-7.06l2.81-40.06c.27-3.89,3.44-7.24,7.04-7.44,3.6-.2,6.35,2.83,6.11,6.72l-.55,9.06c-.24,3.89,.53,7.12,1.71,7.16,1.17,.05,3.11,.05,4.3,0Z"/>
                <path class="cls-1" d="M38.43,64.08c-1.54,0-2.91-.6-3.86-1.67-.96-1.08-1.39-2.53-1.2-4.07l.42-3.41c.34-2.81,.27-6.3-.97-7.69-.39-.44-.9-.68-1.44-.68h-4.18c-3.16,0-3.41,7.41-3.43,8.25l-.07,3.31c-.07,3.27-2.79,5.95-6.07,5.96h0c-1.56,0-2.97-.6-3.99-1.68-1.03-1.1-1.54-2.56-1.43-4.11l2.81-40.06c.23-3.27,2.94-6.17,5.91-6.34,.09,0,.18,0,.26,0,1.23,0,2.37,.49,3.21,1.37,.99,1.04,1.48,2.5,1.38,4.11l-.55,9.05c-.17,2.79,.12,6.28,1.42,7.71,.51,.56,1.06,.69,1.43,.7,.58,.02,1.36,.03,2.19,.03s1.61-.01,2.2-.03c3.13-.12,3.83-7.41,3.89-8.24l.75-9.08c.26-3.11,2.75-5.64,5.56-5.64,.09,0,.18,0,.26,0,1.29,.07,2.49,.67,3.39,1.68,1.05,1.18,1.58,2.82,1.46,4.49l-2.93,40.06c-.24,3.29-3.12,5.96-6.41,5.96h-.02Z"/>
                <path class="cls-4" d="M39.63,62.9c-1.19,0-2.25-.45-2.97-1.27-.74-.83-1.06-1.94-.91-3.15l.42-3.41c.23-1.9,.58-6.55-1.26-8.62-.62-.69-1.45-1.08-2.34-1.08h-4.18c-4.1,0-4.57,7.2-4.62,9.41l-.07,3.31c-.06,2.64-2.25,4.79-4.88,4.8-1.22,0-2.32-.46-3.11-1.3-.8-.85-1.2-2-1.11-3.23l2.81-40.05c.19-2.71,2.38-5.11,4.79-5.24,.07,0,.13,0,.2,0,1.15,0,1.91,.54,2.34,1,.76,.8,1.14,1.95,1.06,3.23l-.55,9.05c-.09,1.47-.23,6.43,1.73,8.58,.61,.67,1.42,1.06,2.26,1.09,.6,.02,1.39,.04,2.24,.04s1.64-.01,2.25-.04c3.97-.15,4.86-7.17,5.04-9.32l.75-9.08c.21-2.51,2.17-4.55,4.37-4.55,.07,0,.13,0,.2,0,.97,.05,1.88,.51,2.56,1.28,.84,.95,1.26,2.26,1.16,3.62l-2.93,40.06c-.19,2.64-2.59,4.86-5.23,4.86h-.01Z"/>
              </g>
              <g>
                <path class="cls-3" d="M159.87,68.29c-2.39,0-4.58-.93-6.17-2.62-1.58-1.69-2.36-3.93-2.18-6.3l3.15-41.92c.36-4.79,4.58-8.7,9.41-8.7,2.42,0,4.6,.95,6.15,2.66,1.56,1.72,2.29,3.98,2.04,6.37l-3.03,29.42c-.14,1.37,.26,2.67,1.14,3.64,.88,.97,2.13,1.51,3.52,1.52l2.81,.02c2.58,.02,4.97,1.02,6.55,2.74,1.35,1.48,2,3.36,1.83,5.3-.38,4.23-4.63,7.7-9.47,7.74l-15.77,.13Z"/>
                <path class="cls-4" d="M165.3,9.99c3.92,.01,6.79,3.2,6.39,7.08l-3.03,29.42c-.4,3.88,2.49,7.08,6.43,7.11l2.81,.02c3.94,.03,6.91,2.78,6.61,6.12-.3,3.34-3.77,6.09-7.7,6.12l-15.69,.13c-3.94,.03-6.92-3.12-6.63-7.02l3.15-41.92c.29-3.89,3.73-7.07,7.65-7.05Z"/>
                <path class="cls-1" d="M161.06,64.8c-1.55,0-2.97-.6-3.98-1.68-1.01-1.08-1.51-2.53-1.39-4.07l3.15-41.92c.25-3.29,3.14-5.96,6.44-5.96,1.56,0,2.96,.6,3.94,1.68,.99,1.09,1.45,2.54,1.29,4.09l-3.03,29.42c-.23,2.21,.44,4.31,1.89,5.91,1.44,1.6,3.48,2.49,5.72,2.5l2.81,.02c1.75,.01,3.34,.66,4.36,1.78,.8,.87,1.17,1.93,1.07,3.05-.24,2.71-3.23,5.02-6.52,5.05l-15.74,.13Z"/>
                <path class="cls-4" d="M162.26,63.62c-1.22,0-2.32-.46-3.11-1.3-.79-.84-1.17-1.97-1.08-3.18l3.15-41.92c.2-2.64,2.6-4.86,5.25-4.86,1.22,0,2.3,.46,3.05,1.29,.76,.84,1.11,1.97,.99,3.18l-3.03,29.42c-.26,2.55,.51,4.97,2.19,6.82,1.67,1.85,4.02,2.88,6.6,2.9l2.81,.02c1.42,.01,2.69,.52,3.49,1.39,.4,.43,.85,1.16,.76,2.15-.19,2.13-2.64,3.95-5.35,3.97l-15.73,.13Z"/>
              </g>
            </g>
            <g>
              <g>
                <path class="cls-3" d="M155.32,166c-4.52-.12-8.38-1.32-11.48-3.56-3.05-2.21-5.43-5.16-7.06-8.77-1.59-3.52-2.52-7.43-2.76-11.63-.24-4.16,.16-8.39,1.19-12.56,1.04-4.19,2.72-8.12,5-11.69,2.31-3.62,5.27-6.62,8.79-8.92,3.57-2.33,7.77-3.67,12.49-3.99,.39-.02,.73-.02,1.06-.02,4.09,0,7.63,1.03,10.53,3.05,3.08,2.15,5.47,5.11,7.13,8.81,1.61,3.59,2.56,7.61,2.84,11.94,.28,4.29-.09,8.66-1.09,12.97-1.01,4.34-2.67,8.38-4.95,12.01-2.31,3.7-5.3,6.7-8.89,8.93-3.64,2.26-7.93,3.42-12.76,3.43h-.05Zm5.54-44.13c-1.25,.16-2.31,.84-3.26,2.07-1.12,1.46-2.03,3.34-2.7,5.58-.7,2.34-1.14,4.82-1.32,7.38-.18,2.55-.09,4.96,.26,7.15,.33,2.06,.91,3.69,1.72,4.84,.67,.95,1.32,1.07,1.82,1.07,.09,0,.17,0,.26-.01,.96-.19,1.83-.87,2.68-2.08,1.02-1.47,1.89-3.35,2.57-5.6,.7-2.31,1.18-4.77,1.43-7.31,.25-2.53,.25-4.92,0-7.1-.24-2.04-.73-3.67-1.46-4.84-.64-1.01-1.31-1.15-1.88-1.15-.03,0-.07,0-.1,0Z"/>
                <path class="cls-4" d="M162.82,106.11c4.14-.16,7.62,.74,10.44,2.71,2.82,1.97,4.99,4.66,6.52,8.08,1.53,3.42,2.42,7.19,2.69,11.33,.27,4.14-.08,8.29-1.05,12.46-.97,4.17-2.55,7.99-4.73,11.48-2.18,3.48-4.95,6.27-8.32,8.37-3.36,2.09-7.3,3.15-11.81,3.16-4.17-.11-7.66-1.18-10.47-3.22-2.81-2.04-4.97-4.73-6.48-8.06-1.51-3.33-2.38-7-2.61-11.01-.23-4,.15-8.02,1.15-12.04,1-4.02,2.59-7.75,4.78-11.17,2.19-3.42,4.94-6.22,8.26-8.39,3.32-2.17,7.2-3.4,11.63-3.7Zm-3.71,45.07c1.46-.26,2.75-1.2,3.89-2.83,1.14-1.63,2.07-3.66,2.81-6.1,.74-2.43,1.23-4.98,1.5-7.65,.26-2.67,.26-5.16-.01-7.48-.27-2.32-.84-4.18-1.72-5.57-.88-1.4-2.1-2.06-3.65-1.97-1.76,.2-3.27,1.13-4.53,2.76-1.26,1.64-2.26,3.69-2.99,6.16-.74,2.47-1.2,5.05-1.39,7.75-.19,2.7-.1,5.22,.28,7.56,.38,2.34,1.05,4.2,2.02,5.57,.97,1.38,2.24,1.98,3.81,1.8Z"/>
                <path class="cls-1" d="M156.58,162.51c-3.89-.11-7.19-1.11-9.78-2.99-2.63-1.91-4.68-4.46-6.09-7.59-1.44-3.19-2.28-6.75-2.51-10.59-.23-3.87,.15-7.8,1.11-11.69,.96-3.88,2.52-7.52,4.63-10.82,2.09-3.26,4.75-5.97,7.91-8.03,3.13-2.04,6.85-3.23,11.05-3.51,.27-.01,.57-.02,.86-.02,3.46,0,6.43,.85,8.81,2.51,2.63,1.84,4.69,4.39,6.12,7.59,1.46,3.27,2.34,6.95,2.59,10.93,.26,4-.08,8.08-1.02,12.12-.94,4.02-2.48,7.76-4.58,11.12-2.07,3.31-4.74,6-7.94,7.99-3.15,1.96-6.91,2.96-11.17,2.98Zm5.59-44.13c-.1,0-.21,0-.32,0h-.08c-2.09,.25-3.88,1.33-5.34,3.23-1.34,1.74-2.41,3.94-3.19,6.54-.76,2.54-1.24,5.23-1.44,8-.2,2.78-.1,5.41,.29,7.83,.41,2.51,1.15,4.55,2.22,6.06,1.08,1.53,2.55,2.34,4.26,2.34,.21,0,.43-.01,.66-.04h.08c1.78-.33,3.34-1.45,4.66-3.34,1.2-1.72,2.2-3.89,2.97-6.43,.76-2.5,1.27-5.15,1.54-7.88,.27-2.74,.26-5.34-.01-7.73-.29-2.48-.93-4.52-1.9-6.07-1.05-1.66-2.57-2.54-4.41-2.54Z"/>
                <path class="cls-4" d="M157.78,161.33c-3.64-.1-6.7-1.03-9.09-2.77-2.46-1.78-4.38-4.18-5.71-7.12-1.38-3.06-2.19-6.48-2.41-10.18-.22-3.75,.14-7.56,1.08-11.34,.93-3.76,2.44-7.28,4.48-10.47,2-3.12,4.54-5.71,7.56-7.68,2.95-1.93,6.46-3.04,10.45-3.32,.27-.01,.54-.02,.81-.02,3.26,0,5.91,.75,8.13,2.3,2.45,1.71,4.37,4.1,5.71,7.11,1.41,3.14,2.24,6.69,2.49,10.53,.25,3.89-.08,7.85-1,11.77-.91,3.89-2.4,7.51-4.43,10.76-1.98,3.16-4.52,5.72-7.56,7.61-2.96,1.84-6.49,2.78-10.52,2.8Zm5.57-44.13c-.13,0-.25,0-.38,.01h-.08s-.08,.01-.08,.01c-2.42,.28-4.49,1.52-6.15,3.68-1.43,1.86-2.57,4.19-3.38,6.92-.78,2.62-1.28,5.4-1.49,8.26-.2,2.87-.1,5.59,.3,8.1,.43,2.68,1.25,4.89,2.42,6.55,1.65,2.35,3.76,2.84,5.24,2.84,.26,0,.53-.02,.79-.05h.08s.08-.02,.08-.02c2.1-.37,3.93-1.66,5.43-3.82,1.27-1.82,2.32-4.1,3.13-6.76,.78-2.57,1.31-5.3,1.59-8.1,.28-2.82,.27-5.5-.01-7.98-.31-2.66-1-4.86-2.07-6.56-1.28-2.02-3.15-3.09-5.42-3.09Z"/>
              </g>
              <g>
                <path class="cls-3" d="M202.41,166.32c-2.52,0-4.94-.5-7.18-1.47-2.05-.93-3.77-2.01-5.14-3.23l-1.35-1.21-.1-.13c-1.87-2.43-.55-6.82,3.08-10.23l.92-.86c1.43-1.34,2.73-2.55,3.67-3.43q2.04-1.91,2.77-1.91h1.04l.48,.83,1.11,1.61,.51,.6c.45,.54,1.1,1.09,1.92,1.63,.57,.36,1.14,.55,1.63,.55,.05,0,.11,0,.16,0,.49-.04,.6-.18,.64-.24h0s-.03-.22-.28-.68c-.22-.41-.93-1.29-3.13-2.64-1.79-1.04-3.61-2.2-5.37-3.44-1.85-1.3-3.51-2.84-4.94-4.58-1.49-1.81-2.59-4-3.27-6.52-.68-2.5-.8-5.49-.38-8.89v-.08s.03-.08,.03-.08c.83-3.79,2.47-7.07,4.87-9.74,2.37-2.64,5.18-4.65,8.35-5.95,2.72-1.12,5.51-1.69,8.28-1.69,.45,0,.92,.02,1.37,.05,3.32,.22,6.3,1.35,8.88,3.35l.06,.04,.05,.05c1.8,1.65,3.11,3.49,3.89,5.47,.75,1.92,1.16,3.99,1.21,6.17l.04,2.1v.12c-.44,3.56-4.84,6.58-8.76,7.62l-.5,.13c-2.42,.64-4.65,1.04-6.07,1.09,.3,.18,.49,.3,.53,.33,.06,.03,2.12,1.26,4.57,2.72l.22,.13,1.7,1.84c1.67,1.82,2.91,3.79,3.66,5.87,.75,2.05,1.13,4.12,1.13,6.15-.05,3.62-1,6.81-2.82,9.5-1.79,2.64-4.12,4.76-6.93,6.3-2.78,1.53-5.76,2.43-8.86,2.69-.56,.05-1.13,.07-1.68,.07Zm3.36-40.34c.62,.93,1.48,2.02,2.11,2.69,0-.05,0-.1,0-.16l.09-.81c.15-1.07,.24-2.16,.27-3.29,.03-.92-.09-1.66-.35-2.21-.03-.04-.13-.07-.32-.07-.04,0-.07,0-.11,0-.32,.05-.73,.21-1.14,.82-.42,.63-.61,1.36-.58,2.25l.03,.77Z"/>
                <path class="cls-4" d="M221.05,108.79c1.61,1.47,2.76,3.08,3.44,4.81,.68,1.73,1.04,3.59,1.08,5.56l.04,1.98c-.28,2.36-3.63,5.11-7.43,6.12l-.5,.13c-3.8,1.01-6.88,1.34-6.83,.73l.08-.75c.15-1.09,.24-2.24,.28-3.44,.03-1.2-.14-2.2-.52-3.01-.38-.8-1.12-1.17-2.24-1.08-1,.14-1.82,.67-2.45,1.61-.63,.93-.92,2.03-.88,3.29l.04,1.26c.81,1.28,2.13,2.96,2.95,3.73l.87,.59,.87,.59c.98,.6,1.79,1.11,1.82,1.12,.02,.01,2.11,1.25,4.58,2.72l1.52,1.65c1.52,1.65,2.62,3.41,3.3,5.28,.68,1.87,1.02,3.72,1.02,5.54-.04,3.26-.88,6.1-2.52,8.51-1.64,2.41-3.74,4.33-6.31,5.74-2.57,1.41-5.29,2.24-8.14,2.48-2.85,.24-5.52-.18-8-1.26-1.87-.85-3.42-1.82-4.65-2.93l-1.23-1.1c-1.27-1.64,.03-5.18,2.89-7.86l.92-.86c2.86-2.68,5.2-4.87,5.21-4.85,0,.01,.55,.8,1.2,1.74l.56,.67c.56,.67,1.33,1.32,2.29,1.96,1.03,.64,2.02,.92,2.95,.84,.94-.08,1.6-.44,2-1.07,.4-.63,.32-1.45-.23-2.45-.55-1-1.8-2.1-3.76-3.3-1.79-1.04-3.55-2.16-5.27-3.38-1.73-1.21-3.26-2.63-4.59-4.25-1.33-1.62-2.31-3.58-2.93-5.86-.62-2.28-.73-5.02-.33-8.21,.77-3.5,2.26-6.48,4.46-8.94,2.2-2.45,4.77-4.29,7.7-5.49,2.93-1.21,5.88-1.71,8.84-1.51,2.96,.2,5.6,1.19,7.89,2.98Z"/>
                <path class="cls-1" d="M203.6,162.83c-2.1,0-4.12-.41-5.98-1.22-1.74-.78-3.2-1.7-4.33-2.72l-1.13-1.02c-.59-.95,.18-3.75,2.81-6.22l.92-.86c1.82-1.7,3.28-3.08,4.18-3.91l.45,.66,.6,.71c.63,.75,1.49,1.49,2.54,2.19,1.14,.71,2.23,1.05,3.3,1.05,.14,0,.28,0,.43-.02,1.65-.14,2.49-.96,2.91-1.63,.44-.7,.77-1.9-.19-3.65-.66-1.2-2.02-2.42-4.18-3.74-1.78-1.03-3.52-2.15-5.21-3.33-1.63-1.15-3.1-2.5-4.36-4.04-1.22-1.49-2.13-3.31-2.7-5.42-.57-2.11-.68-4.71-.31-7.71,.73-3.27,2.13-6.08,4.17-8.35,2.07-2.31,4.51-4.05,7.26-5.19,2.36-.97,4.76-1.46,7.13-1.46,.39,0,.78,.01,1.17,.04,2.69,.18,5.11,1.09,7.2,2.7,1.45,1.33,2.49,2.79,3.1,4.34,.63,1.59,.96,3.33,1,5.16l.04,1.88c-.27,1.65-2.98,4.1-6.54,5.05l-.5,.13c-2.43,.65-4.22,.93-5.22,.98,.13-1.02,.22-2.13,.25-3.27,.04-1.38-.17-2.57-.63-3.54-.54-1.15-1.61-1.78-3.02-1.78-.13,0-.25,0-.39,.01h-.07c-1.35,.19-2.46,.91-3.28,2.13-.76,1.14-1.12,2.48-1.08,3.99l.05,1.58,.17,.27c.87,1.38,2.25,3.12,3.14,3.96l.07,.06,1.81,1.24c1.04,.64,1.86,1.15,1.89,1.16,.03,.02,2.02,1.2,4.42,2.63l1.4,1.52c1.41,1.53,2.44,3.17,3.06,4.88,.63,1.73,.95,3.46,.95,5.14-.04,3-.82,5.64-2.31,7.85-1.52,2.25-3.51,4.05-5.9,5.36-2.41,1.32-4.99,2.11-7.66,2.33-.48,.04-.96,.06-1.43,.06Z"/>
                <path class="cls-4" d="M204.79,161.65c-1.94,0-3.79-.38-5.5-1.12-1.61-.73-2.97-1.58-4.01-2.51l-.95-.86c-.09-.54,.49-2.61,2.65-4.64l.92-.86c1.26-1.18,2.35-2.2,3.2-3l.3,.35c.71,.84,1.64,1.65,2.79,2.41l.06,.04c1.3,.81,2.61,1.21,3.9,1.21,.18,0,.35,0,.53-.02,2.14-.19,3.26-1.29,3.82-2.18,.61-.97,1.08-2.59-.16-4.84-.76-1.38-2.26-2.75-4.59-4.18l-.05-.03c-1.72-1-3.44-2.1-5.1-3.26-1.54-1.09-2.93-2.37-4.12-3.82-1.11-1.36-1.95-3.03-2.48-4.98-.53-1.95-.62-4.37-.28-7.2,.69-3.04,1.99-5.66,3.89-7.77,1.95-2.17,4.25-3.82,6.83-4.88,2.21-.91,4.46-1.37,6.68-1.37,.36,0,.73,.01,1.09,.04,2.47,.16,4.59,.96,6.51,2.42,1.3,1.2,2.23,2.5,2.76,3.86,.58,1.46,.89,3.06,.92,4.75l.04,1.76c-.27,1.11-2.55,3.18-5.66,4l-.5,.13c-1.44,.38-2.65,.63-3.57,.78,.05-.62,.08-1.25,.1-1.89,.04-1.56-.2-2.93-.74-4.07-.74-1.57-2.23-2.46-4.1-2.46-.15,0-.31,0-.48,.02h-.07s-.07,.02-.07,.02c-1.68,.23-3.1,1.14-4.11,2.64-.9,1.35-1.33,2.92-1.27,4.68l.06,1.9,.34,.54c.91,1.45,2.37,3.29,3.33,4.19l.13,.13,1.93,1.32s1.89,1.16,1.91,1.18c.01,0,1.93,1.14,4.26,2.54l1.29,1.4c1.3,1.41,2.25,2.92,2.82,4.49,.58,1.6,.88,3.2,.88,4.74-.04,2.79-.73,5.15-2.11,7.19-1.42,2.09-3.26,3.77-5.49,4.99-2.26,1.24-4.68,1.98-7.19,2.19-.45,.04-.9,.06-1.33,.06Z"/>
              </g>
              <g>
                <path class="cls-3" d="M39.01,165.07c-.14,0-.28,0-.42,0l-13.05-.61c-4.92-.23-8.77-4.38-8.58-9.26l1.5-39.42c.18-4.8,4.27-8.92,9.11-9.18l15.05-.81c.16,0,.32-.01,.48-.01,4.77,0,8.61,3.71,8.75,8.44v.06c.07,2.36-.8,4.6-2.46,6.29-1.66,1.69-3.88,2.62-6.28,2.63h-3.12c-3.23,0-5.6,1.82-5.7,3.44-.05,.81,.21,1.56,.73,2.12,.54,.57,1.3,.88,2.14,.88,0,0,.29,0,.36,0,3.81,0,6.9,3.78,7.04,8.61v.07c.08,2.61-.83,5.07-2.5,6.77-1.35,1.38-3.1,2.14-4.92,2.14-.8,0-1.51,.06-2.11,.15,.86,.14,1.94,.23,3.19,.23h2.92c2.44,0,4.59,.96,6.06,2.69,1.47,1.73,2.05,4,1.64,6.38l-.04,.25c-.79,4.56-5.09,8.14-9.79,8.14h0Z"/>
                <path class="cls-4" d="M51.26,113.8c.11,3.9-3.01,7.1-6.95,7.1h-3.12c-3.94,0-7.3,2.3-7.49,5.1-.18,2.8,2.01,4.99,4.87,4.88,2.86-.11,5.29,2.99,5.41,6.89v.08c.12,3.9-2.43,7.09-5.64,7.08-3.22,0-5.9,.87-5.96,1.95-.06,1.08,3.11,1.97,7.04,1.97h2.92c3.94,0,6.61,3.16,5.94,7l-.04,.26c-.67,3.85-4.43,6.84-8.36,6.66l-13.05-.61c-3.93-.18-7.03-3.52-6.88-7.42l1.5-39.42c.15-3.9,3.49-7.26,7.42-7.47l15.05-.81c3.93-.21,7.24,2.81,7.35,6.71v.06Z"/>
                <path class="cls-1" d="M40.2,161.58c-.1,0-.19,0-.29,0l-13.05-.61c-3.29-.15-5.87-2.93-5.74-6.19l1.5-39.42c.13-3.31,2.95-6.16,6.29-6.34l15.05-.81c.11,0,.22,0,.32,0,3.15,0,5.68,2.45,5.77,5.57,.05,1.62-.53,3.09-1.62,4.21-1.09,1.11-2.56,1.73-4.14,1.73h-3.12c-4.56,0-8.45,2.79-8.68,6.2-.11,1.64,.44,3.17,1.53,4.33,1.11,1.17,2.64,1.81,4.32,1.81,.09,0,.36,0,.36,0,2.15,0,3.97,2.58,4.06,5.74v.08c.05,1.81-.55,3.49-1.66,4.62-.55,.57-1.49,1.24-2.79,1.24-3.5,0-7.04,.95-7.16,3.07-.02,.35,.06,.88,.55,1.4,1.27,1.34,4.8,1.82,7.68,1.82h2.92c1.55,0,2.89,.59,3.79,1.64,.9,1.05,1.24,2.47,.98,3.98l-.04,.26c-.55,3.13-3.62,5.68-6.85,5.68Z"/>
                <path class="cls-4" d="M41.16,160.4l-13.05-.61c-2.64-.12-4.71-2.35-4.61-4.97l1.5-39.42c.1-2.67,2.47-5.06,5.16-5.2l15.05-.81c.09,0,.17,0,.26,0,2.5,0,4.51,1.94,4.58,4.42,.04,1.3-.42,2.47-1.28,3.35-.86,.88-2.03,1.37-3.28,1.37h-3.12c-5.27,0-9.6,3.22-9.86,7.31-.13,1.96,.53,3.82,1.85,5.21,1.33,1.41,3.18,2.19,5.19,2.19,.1,0,.2,0,.3,0h0c1.35,0,2.85,1.89,2.93,4.59v.08c.05,1.47-.45,2.87-1.32,3.76-.39,.4-1.05,.88-1.93,.88-3.94,0-8.18,1.1-8.35,4.18-.05,.83,.26,1.64,.87,2.28,1.88,1.97,6.6,2.19,8.55,2.19h2.92c1.19,0,2.21,.44,2.87,1.22,.66,.78,.92,1.85,.72,3.02l-.04,.26c-.45,2.59-3,4.7-5.67,4.7-.08,0-.15,0-.23,0Z"/>
              </g>
              <g>
                <path class="cls-3" d="M106.18,165.2c-2.39,0-4.58-.93-6.17-2.62-1.58-1.69-2.36-3.93-2.18-6.3l3.15-41.92c.36-4.79,4.58-8.7,9.41-8.7,2.42,0,4.6,.95,6.15,2.66,1.56,1.72,2.29,3.98,2.04,6.37l-3.03,29.42c-.14,1.37,.26,2.67,1.14,3.64,.88,.97,2.13,1.51,3.52,1.52l2.81,.02c2.58,.02,4.97,1.02,6.55,2.74,1.35,1.48,2,3.36,1.83,5.3-.38,4.23-4.63,7.7-9.47,7.74l-15.77,.13Z"/>
                <path class="cls-4" d="M111.6,106.9c3.92,.01,6.79,3.2,6.39,7.08l-3.03,29.42c-.4,3.88,2.49,7.08,6.43,7.11l2.81,.02c3.94,.03,6.91,2.78,6.61,6.12-.3,3.34-3.77,6.09-7.7,6.12l-15.69,.13c-3.94,.03-6.92-3.12-6.62-7.02l3.15-41.92c.29-3.89,3.73-7.07,7.65-7.05Z"/>
                <path class="cls-1" d="M107.37,161.71c-1.55,0-2.97-.6-3.98-1.68-1.01-1.08-1.51-2.53-1.39-4.07l3.15-41.92c.25-3.29,3.14-5.96,6.44-5.96,1.56,0,2.95,.6,3.94,1.68,.99,1.09,1.45,2.54,1.29,4.09l-3.03,29.42c-.23,2.21,.44,4.31,1.89,5.91,1.44,1.6,3.48,2.49,5.72,2.5l2.81,.02c1.75,.01,3.34,.66,4.36,1.78,.8,.87,1.17,1.93,1.07,3.05-.24,2.71-3.23,5.02-6.52,5.05l-15.74,.13Z"/>
                <path class="cls-4" d="M108.56,160.53c-1.22,0-2.32-.46-3.11-1.3-.79-.84-1.17-1.97-1.08-3.18l3.15-41.92c.2-2.64,2.6-4.86,5.25-4.86,1.22,0,2.3,.46,3.05,1.29,.76,.84,1.11,1.97,.99,3.18l-3.03,29.42c-.26,2.55,.51,4.97,2.19,6.82,1.67,1.85,4.02,2.88,6.6,2.9l2.81,.02c1.42,.01,2.69,.52,3.49,1.39,.4,.43,.85,1.16,.76,2.15-.19,2.13-2.64,3.95-5.35,3.97l-15.73,.13Z"/>
              </g>
              <g>
                <path class="cls-3" d="M64.58,165.2c-2.39,0-4.58-.93-6.17-2.62-1.58-1.69-2.36-3.93-2.18-6.3l3.15-41.92c.36-4.79,4.58-8.7,9.41-8.7,2.42,0,4.6,.95,6.15,2.66,1.56,1.72,2.29,3.98,2.04,6.37l-3.03,29.42c-.14,1.37,.26,2.67,1.14,3.64,.88,.97,2.13,1.51,3.52,1.52l2.81,.02c2.58,.02,4.97,1.02,6.55,2.74,1.35,1.48,2,3.36,1.83,5.3-.38,4.23-4.63,7.7-9.47,7.74l-15.77,.13Z"/>
                <path class="cls-4" d="M70,106.9c3.92,.01,6.79,3.2,6.39,7.08l-3.03,29.42c-.4,3.88,2.49,7.08,6.43,7.11l2.81,.02c3.94,.03,6.91,2.78,6.61,6.12-.3,3.34-3.77,6.09-7.7,6.12l-15.69,.13c-3.94,.03-6.92-3.12-6.62-7.02l3.15-41.92c.29-3.89,3.73-7.07,7.65-7.05Z"/>
                <path class="cls-1" d="M65.77,161.71c-1.55,0-2.97-.6-3.98-1.68-1.01-1.08-1.51-2.53-1.39-4.07l3.15-41.92c.25-3.29,3.14-5.96,6.44-5.96,1.56,0,2.95,.6,3.94,1.68,.99,1.09,1.45,2.54,1.29,4.09l-3.03,29.42c-.23,2.21,.44,4.31,1.89,5.91s3.48,2.49,5.72,2.5l2.81,.02c1.75,.01,3.34,.66,4.36,1.78,.8,.87,1.17,1.93,1.07,3.05-.24,2.71-3.23,5.02-6.52,5.05l-15.74,.13Z"/>
                <path class="cls-4" d="M66.96,160.53c-1.22,0-2.32-.46-3.11-1.3-.79-.84-1.17-1.97-1.08-3.18l3.15-41.92c.2-2.64,2.6-4.86,5.25-4.86,1.22,0,2.3,.46,3.05,1.29,.76,.84,1.11,1.97,.99,3.18l-3.03,29.42c-.26,2.55,.51,4.97,2.19,6.82,1.67,1.85,4.02,2.88,6.6,2.9l2.81,.02c1.42,.01,2.69,.52,3.49,1.39,.4,.43,.85,1.16,.76,2.15-.19,2.13-2.64,3.95-5.35,3.97l-15.73,.13Z"/>
              </g>
            </g>
          </g>
          <g>
            <path class="cls-3" d="M178.64,116.8c-.05,4.74-1.97,8.55-5.27,10.44-3.3,1.89-7.58,1.65-11.76-.66l-26.12-14.48c-5.62-3.12-15.36-3.6-21.27-1.05l-29.45,12.7c-4.28,1.84-8.72,1.72-12.2-.35-3.48-2.07-5.69-5.89-6.07-10.5l-.19-2.35c-.04-.48-.06-.96-.06-1.44,0-8.52,5.96-17.16,13.86-20.09l3.88-1.44c1.92-.71,2.77-1.43,3.03-1.77-.25-.35-1.07-1.1-2.96-1.89l-5.1-2.12c-8.11-3.37-14.46-12.86-14.46-21.61l.02-2.36c.04-4.71,1.97-8.56,5.28-10.58,3.31-2.02,7.65-1.98,11.91,.11l30.87,15.12c5.8,2.84,15.64,2.93,21.49,.21l24.38-11.36c4.24-1.98,8.66-1.96,12.14,.03,3.48,1.99,5.69,5.79,6.07,10.42l.2,2.39c.04,.48,.06,.97,.06,1.46,0,8.52-5.98,17.12-13.9,19.99l-3.42,1.24c-2.03,.74-2.87,1.5-3.09,1.81,.17,.23,.95,1.06,2.98,1.93l4.85,2.1c8.03,3.47,14.33,13.02,14.33,21.74l-.02,2.38Z"/>
            <path class="cls-4" d="M80.85,77.71c-6.88-2.86-12.45-11.25-12.38-18.65l.02-2.19c.07-7.4,5.6-10.77,12.29-7.49l30.87,15.12c6.69,3.28,17.69,3.38,24.44,.24l24.38-11.36c6.75-3.15,12.78,.31,13.39,7.68l.2,2.4c.61,7.37-4.62,15.48-11.63,18.02l-3.42,1.24c-7.01,2.54-7.14,7.03-.3,9.98l4.85,2.1c6.84,2.95,12.37,11.42,12.29,18.82l-.02,2.19c-.08,7.4-5.47,10.49-11.98,6.88l-26.12-14.48c-6.51-3.61-17.44-4.15-24.28-1.2l-29.45,12.7c-6.84,2.95-12.93-.67-13.54-8.04l-.19-2.35c-.6-7.37,4.62-15.52,11.61-18.11l3.88-1.44c6.99-2.59,7.08-7.05,.2-9.91l-5.1-2.12Z"/>
            <path class="cls-1" d="M173.55,115.76c-.03,2.75-.9,4.76-2.45,5.65-1.55,.89-3.74,.64-6.17-.7l-26.12-14.48c-7.19-3.99-18.73-4.56-26.28-1.3l-29.45,12.7c-2.62,1.13-5.12,1.12-7.04-.02-1.92-1.14-3.11-3.33-3.34-6.15l-.19-2.35c-.03-.33-.04-.66-.04-.99,0-6.2,4.48-12.72,10.19-14.84l3.88-1.44c5.89-2.18,6.77-5.33,6.77-7.01h0c0-1.63-.84-4.72-6.49-7.07l-5.1-2.12c-5.96-2.48-11-10.01-11-16.44l.02-2.31c.03-2.78,.94-4.86,2.58-5.86,1.64-1,3.93-.87,6.44,.36l30.87,15.12c7.37,3.61,18.96,3.72,26.4,.25l24.38-11.36c2.57-1.2,5.03-1.27,6.9-.19,1.88,1.08,3.04,3.22,3.27,6.03l.2,2.39c.03,.33,.04,.67,.04,1,0,6.19-4.48,12.66-10.19,14.73l-3.42,1.24c-5.94,2.15-6.83,5.33-6.83,7.03s.83,4.71,6.4,7.12l4.86,2.1c5.93,2.56,10.93,10.16,10.93,16.6l-.02,2.32Z"/>
            <path class="cls-4" d="M171.29,113.5c-.02,1.85-.53,3.28-1.32,3.74-.8,.46-2.3,.18-3.93-.72l-26.12-14.48c-7.74-4.29-20.16-4.9-28.29-1.4l-29.45,12.7c-1.93,.83-3.7,.87-4.98,.12-1.28-.76-2.08-2.32-2.25-4.41l-.19-2.35c-.02-.27-.03-.54-.03-.81,0-5.24,3.91-10.96,8.72-12.74l3.88-1.44c7.17-2.66,8.24-6.85,8.24-9.11h0c0-2.19-1.02-6.29-7.88-9.13l-5.1-2.12c-5.12-2.13-9.61-8.85-9.61-14.38l.02-2.28c.02-1.95,.57-3.4,1.51-3.97,.94-.57,2.49-.41,4.26,.46l30.87,15.12c7.92,3.88,20.37,4,28.36,.27l24.38-11.36c1.88-.88,3.59-.98,4.81-.28,1.22,.7,1.98,2.21,2.15,4.27l.2,2.39c.02,.27,.03,.54,.03,.82,0,5.22-3.91,10.88-8.71,12.62l-3.42,1.24c-7.24,2.62-8.32,6.85-8.32,9.13s1.01,6.26,7.76,9.17l4.86,2.1c5.1,2.2,9.58,9,9.58,14.55l-.02,2.3Z"/>
          </g>
        </g>
        <ellipse class="cls-3" cx="100.3" cy="84.29" rx="1.43" ry="1.42"/>
        <ellipse class="cls-3" cx="144.77" cy="84.29" rx="1.43" ry="1.42"/>
      </g>
    </g>
  </g>
</svg>