<?xml version="1.0" encoding="UTF-8"?>
<svg id="PROYECTO_CHANCHITO" data-name="PROYECTO CHANCHITO" xmlns="http://www.w3.org/2000/svg" viewBox="0 0 100 56.2">
  <defs>
    <style>
      .cls-1 {
        fill: #850337;
      }

      .cls-2 {
        fill: #fff;
      }

      .cls-3 {
        stroke-width: 1.12px;
      }

      .cls-3, .cls-4, .cls-5, .cls-6 {
        fill: none;
        stroke-miterlimit: 10;
      }

      .cls-3, .cls-6 {
        stroke: #850337;
      }

      .cls-4 {
        stroke-width: .67px;
      }

      .cls-4, .cls-5 {
        stroke: #ec6780;
      }

      .cls-7 {
        fill: #ec6780;
      }

      .cls-5 {
        stroke-width: 1.74px;
      }

      .cls-6 {
        stroke-width: 1.37px;
      }
    </style>
  </defs>
  <g>
    <path class="cls-2" d="M45.32,20.9s0,.02,0,.03c0,0,0,0,0,0,0,0,0-.02,0-.02Z"/>
    <path class="cls-2" d="M98.77,22c-1.44-4.53-4.14-8.63-7.7-11.74-.03-1.82-.4-3.59-.7-5l-.07-.35c-.01-.06-.03-.12-.04-.18-.35-1.31-1.14-2.49-2.24-3.33-1.37-1.14-3.12-1.62-4.84-1.33-1.84,.3-3.05,1.4-3.85,2.13-.06,.05-.12,.11-.17,.16-.43,.03-.97,.08-1.57,.23-.33,.07-.64,.15-.94,.27-.04,.02-.09,.03-.13,.05-.41,.17-.8,.39-1.17,.66-3.53-.15-7.11,.43-10.41,1.69-3.03,1.15-5.86,2.89-8.28,5.07-.85-.08-1.72,.03-2.54,.33-1.75,.62-2.75,1.92-3.41,2.78-.05,.06-.1,.12-.14,.18-.26,.07-.57,.15-.9,.27-1.29,.35-2.46,1.17-3.27,2.28-1.07,1.26-1.47,2.89-1.12,4.51h0c0,.06,.02,.1,.03,.15,0,.04,.02,.08,.03,.12,.28,1.04,.79,1.81,1.23,2.38,0,0,.01,.02,.02,.02,.15,.22,.32,.41,.5,.58-.25,.11-.5,.23-.74,.37-.25,.14-.48,.3-.71,.47-.24-.18-.49-.35-.74-.5-.54-.31-1.12-.56-1.73-.73-1.31-.37-2.75-.35-4.02,.02-.26,.08-.51,.17-.76,.27-.04-.02-.08-.04-.12-.06-.54-.25-1.13-.38-1.77-.38h-1.6c-.8,0-1.56,.22-2.2,.63,0,0,0,0-.01,0-.63-.41-1.37-.64-2.15-.64h-1.54c-.71,0-1.37,.16-1.94,.47-.93-.39-1.92-.58-2.94-.58-.69,0-1.37,.09-2.02,.27-.56,.15-1.1,.37-1.61,.64-.29-.17-.59-.33-.89-.45-.37-.15-.77-.27-1.18-.34-.39-.07-.81-.11-1.25-.11-.54,0-1.05,.08-1.54,.23-.29-.07-.6-.1-.9-.1h-.94c-.41,0-.82,.06-1.22,.18-.37,.12-.72,.28-1.04,.5-.14-.07-.28-.14-.42-.2-.92-.4-1.93-.61-2.98-.61-.63,0-1.23,.08-1.78,.25-.36-.11-.74-.16-1.13-.16h-.94c-.3,0-.61,.03-.9,.09-.62,.13-1.22,.42-1.71,.84-.07,.06-.14,.13-.21,.2-.26,.26-.49,.55-.68,.88-.34,.58-.52,1.26-.52,1.95v9.42c0,.7,.19,1.38,.54,1.97,.14,.23,.3,.45,.48,.64-.08,.12-.16,.25-.24,.38-.32,.56-.58,1.16-.75,1.8-.18,.65-.27,1.34-.27,2.03s.09,1.38,.27,2.03c.18,.63,.43,1.23,.75,1.78,.33,.57,.74,1.1,1.21,1.56,.45,.45,.96,.84,1.51,1.16,.56,.33,1.18,.59,1.82,.77,.65,.18,1.33,.27,2.01,.27,.85,0,1.68-.14,2.46-.41,.07-.03,.14-.06,.21-.08,.52,.23,1.1,.35,1.71,.35h1.41c.36,0,.72-.04,1.05-.13,.22-.06,.44-.14,.66-.23,.47,.21,1.05,.37,1.77,.37h1.44c.83,0,1.62-.25,2.27-.69,.46,.24,.95,.43,1.46,.57,.65,.18,1.33,.27,2.02,.27,.51,0,1.02-.06,1.51-.19,.06-.02,.12-.03,.18-.05,.3,.07,.6,.1,.92,.1h1.23c.28,0,.57-.03,.85-.09,.13-.03,.25-.06,.38-.1,.4,.12,.82,.18,1.25,.18h1.41c.36,0,.72-.04,1.05-.13,.27-.07,.53-.17,.78-.29,.49,.24,1.11,.43,1.89,.43h1.44c.83,0,1.62-.25,2.27-.69,.46,.24,.95,.43,1.46,.57,.65,.18,1.33,.27,2.01,.27,.85,0,1.68-.14,2.46-.41,.07-.03,.14-.06,.21-.08,.52,.23,1.1,.35,1.71,.35h1.41c.36,0,.72-.04,1.05-.13,.22-.06,.44-.14,.66-.23,.47,.21,1.05,.37,1.77,.37h1.44c.4,0,.8-.06,1.17-.17,.38,.11,.78,.17,1.21,.17h1.43c.51,0,1.01-.09,1.47-.26,.45,.17,.95,.26,1.48,.26h1.41c.55,0,1.08-.1,1.57-.3-.18,.78-.09,1.6,.26,2.32,.41,.83,1.13,1.47,2.02,1.77,2.71,.93,5.53,1.4,8.38,1.4,11.17,0,21.13-7.12,24.79-17.7,1.86-5.39,1.94-11.09,.22-16.49Z"/>
  </g>
  <g>
    <path class="cls-1" d="M74.25,35.58c3.01-1.08,6.73-3.04,7.93-6.05,.08-.35-.01-.58-.19-.84-2.95-4.8-10.71-2.99-12.2,2.27,.57-6.21,9.4-8.58,12.97-3.3,0,0,.26,.42,.26,.42,.35,.48,.44,1.19,.28,1.71-.44,1.42-1.43,2.26-2.38,3.03-1.96,1.49-4.28,2.46-6.66,2.75h0Z"/>
    <path class="cls-7" d="M74.17,35.59c1.87-.63,9.13-4.53,7.41-6.91-2.95-4.34-9.78-2.88-11.67,1.81,1.41-5.41,9.24-7.16,12.38-2.26,2.23,3.35-5.58,6.95-8.12,7.37h0Z"/>
    <g>
      <path class="cls-7" d="M3.92,26.98c.05-.05,.11-.07,.17-.09s.11-.02,.17-.02h.94c.08,0,.14,.01,.2,.04s.09,.06,.13,.1,.06,.09,.08,.15c.02,.06,.04,.12,.07,.18l.26,.75c.12-.15,.23-.3,.35-.46,.12-.16,.26-.3,.42-.42,.16-.13,.36-.23,.58-.31,.22-.08,.5-.12,.82-.12,.57,0,1.09,.1,1.57,.31s.89,.5,1.24,.86c.35,.37,.62,.8,.81,1.29,.2,.49,.29,1.03,.29,1.6s-.1,1.1-.29,1.6c-.2,.5-.47,.93-.81,1.29-.35,.37-.76,.65-1.24,.86s-1,.32-1.57,.32c-.27,0-.5-.03-.7-.1-.2-.06-.37-.15-.52-.25-.15-.1-.29-.22-.4-.34-.12-.12-.23-.25-.34-.37v2.89c0,.12-.04,.23-.11,.32-.07,.09-.19,.13-.35,.13h-1.43s-.1-.01-.16-.03c-.06-.02-.11-.05-.16-.09s-.09-.08-.12-.14-.05-.12-.05-.19v-9.42c0-.08,.02-.15,.05-.2s.07-.1,.12-.15Zm5.82,3.87c0-.26-.04-.52-.13-.75-.09-.24-.21-.45-.37-.62s-.35-.32-.57-.42c-.22-.1-.46-.16-.73-.16s-.51,.05-.74,.15c-.23,.1-.44,.23-.62,.4-.18,.17-.32,.37-.43,.59-.11,.23-.17,.47-.18,.73v.09c0,.27,.05,.53,.16,.77,.1,.24,.25,.45,.42,.62,.18,.18,.39,.32,.63,.42,.24,.1,.5,.16,.77,.16s.51-.05,.73-.16c.22-.1,.41-.24,.57-.42,.16-.18,.28-.38,.37-.62s.13-.5,.13-.77Z"/>
      <path class="cls-7" d="M13.27,27.37c0-.08,.01-.15,.04-.2s.07-.11,.12-.14c.05-.04,.1-.07,.16-.08,.06-.02,.12-.03,.18-.03h.94c.1,0,.19,.03,.25,.09s.12,.14,.16,.24c.04,.1,.08,.2,.12,.32,.03,.12,.07,.23,.12,.33,.12-.14,.25-.27,.37-.4,.12-.13,.25-.25,.4-.35,.14-.1,.3-.19,.46-.25,.17-.06,.36-.1,.58-.1s.42,.02,.6,.05c.18,.03,.34,.08,.5,.15,.16,.06,.31,.15,.47,.24,.16,.1,.32,.21,.51,.35,.18,.1,.27,.23,.27,.37,0,.09-.04,.2-.11,.32l-.57,.96c-.11,.16-.25,.24-.42,.24-.08,0-.18-.02-.28-.07-.18-.17-.36-.3-.54-.39-.18-.08-.4-.13-.63-.13-.16,0-.3,.02-.43,.07-.12,.05-.23,.11-.33,.19-.1,.08-.19,.18-.28,.3-.09,.12-.17,.24-.26,.38v4.49c0,.16-.04,.28-.12,.36-.08,.08-.2,.12-.38,.12h-1.4c-.32,0-.49-.16-.49-.48v-6.94Z"/>
      <path class="cls-7" d="M20.01,30.85c0-.38,.05-.75,.15-1.1,.1-.35,.23-.68,.41-.98,.18-.3,.39-.57,.64-.82,.25-.25,.52-.46,.83-.63,.3-.17,.63-.31,.98-.4,.35-.1,.72-.14,1.1-.14,.56,0,1.09,.1,1.59,.31,.5,.21,.93,.5,1.3,.86,.37,.37,.66,.8,.87,1.29,.21,.49,.32,1.03,.32,1.6,0,.38-.05,.74-.15,1.09-.1,.35-.23,.67-.41,.98-.18,.3-.39,.58-.64,.82-.25,.25-.52,.46-.83,.63-.3,.18-.63,.31-.97,.41-.35,.1-.71,.14-1.09,.14s-.75-.05-1.1-.14c-.35-.09-.68-.23-.98-.41-.3-.18-.58-.39-.83-.63-.25-.25-.46-.52-.64-.82-.18-.3-.31-.63-.41-.98-.1-.35-.15-.71-.15-1.09Zm2.27,0c0,.27,.04,.53,.13,.77,.08,.24,.21,.44,.36,.62,.16,.17,.34,.31,.57,.41,.22,.1,.47,.15,.75,.15s.51-.05,.73-.15c.22-.1,.4-.24,.55-.41s.27-.38,.35-.62c.08-.24,.12-.49,.12-.77s-.04-.52-.12-.76c-.08-.24-.2-.45-.35-.63-.15-.18-.34-.33-.55-.43-.22-.11-.46-.16-.73-.16s-.53,.05-.75,.16c-.22,.11-.41,.25-.57,.43-.16,.18-.28,.39-.36,.63-.09,.24-.13,.49-.13,.76Z"/>
      <path class="cls-7" d="M28.57,27.5c-.07-.17-.07-.31,0-.42s.21-.18,.43-.18h1.54c.1,0,.19,.03,.26,.1,.07,.06,.12,.14,.15,.24l1.76,4.99,1.73-4.99c.05-.13,.1-.22,.17-.27s.17-.07,.29-.07h1.6c.12,0,.21,.02,.27,.05,.07,.03,.11,.07,.14,.12s.04,.11,.03,.17c0,.06-.02,.13-.05,.19-.16,.39-.33,.81-.52,1.27-.19,.46-.38,.94-.58,1.44-.2,.5-.41,1-.61,1.52-.21,.51-.41,1.02-.61,1.52-.2,.5-.39,.97-.57,1.43s-.35,.88-.5,1.26c-.15,.38-.28,.72-.4,1.01-.11,.29-.2,.51-.26,.67l.02-.03c-.03,.11-.08,.2-.16,.27-.07,.07-.17,.1-.27,.1h-1.44c-.19,0-.31-.04-.38-.11s-.1-.18-.1-.32c0-.05,0-.1,.02-.12,.01-.03,.03-.05,.03-.06l.98-2.53-2.97-7.25Z"/>
      <path class="cls-7" d="M44.15,33.84c-.37,.33-.78,.6-1.23,.78-.46,.19-.94,.28-1.45,.28-.57,0-1.11-.1-1.61-.31s-.95-.49-1.33-.86c-.38-.37-.69-.8-.91-1.29-.22-.5-.34-1.04-.34-1.62,0-.36,.04-.72,.13-1.06,.09-.34,.22-.66,.38-.96,.16-.3,.36-.57,.6-.82,.23-.25,.5-.46,.79-.64,.29-.18,.61-.32,.95-.42,.34-.1,.7-.15,1.08-.15,.34,0,.68,.05,1,.14,.32,.09,.63,.22,.91,.38,.28,.17,.54,.36,.78,.59,.24,.23,.44,.48,.61,.76,.17,.27,.3,.57,.4,.88,.09,.31,.14,.63,.14,.96,0,.21,0,.39,0,.53,0,.14-.04,.25-.1,.33-.06,.08-.15,.14-.29,.17s-.33,.05-.59,.05h-4.48c.04,.26,.13,.49,.25,.66s.27,.32,.44,.42c.17,.11,.34,.18,.53,.23,.19,.05,.36,.07,.53,.07,.15,0,.3-.02,.46-.05,.16-.03,.31-.07,.46-.12,.15-.05,.28-.11,.4-.18,.12-.07,.22-.14,.3-.21,.07-.05,.12-.09,.17-.12,.05-.03,.1-.04,.15-.04s.11,.02,.16,.06c.06,.04,.12,.09,.19,.16l.66,.74c.05,.05,.07,.1,.09,.15s.02,.09,.02,.13c0,.08-.02,.15-.07,.21-.05,.06-.1,.11-.16,.16Zm-3-5.16c-.16,0-.32,.03-.47,.1-.15,.06-.29,.15-.43,.26-.13,.11-.25,.23-.36,.37-.11,.14-.19,.27-.26,.42h3.18c-.09-.16-.18-.31-.28-.45-.1-.14-.22-.26-.35-.36-.13-.1-.28-.18-.45-.24-.17-.06-.36-.09-.59-.09Z"/>
      <path class="cls-7" d="M51.41,32.36c.06-.04,.11-.07,.16-.08s.09-.02,.12-.02c.07,0,.13,.01,.19,.04,.06,.03,.12,.09,.18,.19l.7,1.05s.04,.07,.06,.11c.02,.04,.03,.07,.03,.1,0,.1-.03,.17-.09,.23-.06,.06-.13,.11-.2,.16-.34,.24-.71,.42-1.12,.57-.4,.14-.83,.21-1.29,.21-.37,0-.73-.05-1.08-.14-.35-.09-.67-.23-.97-.41-.3-.18-.57-.39-.82-.63-.25-.25-.46-.52-.64-.82-.17-.3-.31-.63-.41-.98-.1-.35-.15-.71-.15-1.09s.05-.75,.15-1.1c.1-.35,.23-.68,.41-.98,.17-.3,.39-.57,.64-.82,.25-.25,.52-.46,.82-.63,.3-.17,.62-.31,.97-.4,.35-.1,.71-.14,1.08-.14,.45,0,.87,.06,1.25,.18,.38,.12,.74,.3,1.08,.53l-.02-.02c.09,.05,.16,.12,.22,.19,.05,.07,.08,.16,.08,.27,0,.07-.02,.15-.07,.23l-.55,.94c-.12,.2-.26,.3-.42,.3-.04,0-.08,0-.14-.03-.05-.02-.11-.05-.18-.1-.18-.12-.38-.22-.59-.29-.21-.08-.43-.11-.67-.11-.26,0-.5,.05-.72,.16-.22,.11-.41,.25-.56,.43-.16,.18-.28,.39-.36,.63-.09,.24-.13,.49-.13,.76s.04,.53,.13,.77c.09,.24,.21,.44,.36,.62s.34,.31,.56,.41c.22,.1,.46,.15,.72,.15,.24,0,.46-.04,.67-.12,.21-.08,.4-.19,.59-.32Z"/>
      <path class="cls-7" d="M54.03,25.68c0-.13,.04-.22,.13-.29,.08-.06,.21-.12,.36-.18l1.41-.49s.04,0,.06,0h.05c.15,0,.26,.04,.31,.13,.05,.09,.08,.21,.08,.35v1.7s.85,0,.85,0c.13,0,.24,.04,.32,.12,.08,.08,.12,.2,.12,.35v1.2c0,.17-.04,.3-.12,.38s-.19,.12-.32,.12h-.85v5.23c0,.16-.04,.28-.13,.36-.09,.08-.22,.12-.38,.12h-1.41c-.32,0-.48-.16-.48-.48v-5.23h-.65c-.32,0-.48-.17-.48-.5v-1.2c0-.31,.16-.47,.48-.47h.64v-1.22Z"/>
      <path class="cls-7" d="M58.42,30.85c0-.38,.05-.75,.15-1.1,.1-.35,.23-.68,.41-.98,.18-.3,.39-.57,.64-.82,.25-.25,.52-.46,.83-.63,.3-.17,.63-.31,.98-.4,.35-.1,.72-.14,1.1-.14,.56,0,1.09,.1,1.59,.31,.5,.21,.93,.5,1.3,.86,.37,.37,.66,.8,.87,1.29,.21,.49,.32,1.03,.32,1.6,0,.38-.05,.74-.15,1.09-.1,.35-.23,.67-.41,.98-.18,.3-.39,.58-.64,.82-.25,.25-.52,.46-.83,.63-.3,.18-.63,.31-.97,.41-.35,.1-.71,.14-1.09,.14s-.75-.05-1.1-.14c-.35-.09-.68-.23-.98-.41-.3-.18-.58-.39-.83-.63-.25-.25-.46-.52-.64-.82-.18-.3-.31-.63-.41-.98-.1-.35-.15-.71-.15-1.09Zm2.27,0c0,.27,.04,.53,.13,.77,.08,.24,.21,.44,.36,.62,.16,.17,.34,.31,.57,.41,.22,.1,.47,.15,.75,.15s.51-.05,.73-.15c.22-.1,.4-.24,.55-.41,.15-.17,.27-.38,.35-.62,.08-.24,.12-.49,.12-.77s-.04-.52-.12-.76c-.08-.24-.2-.45-.35-.63-.15-.18-.34-.33-.55-.43-.22-.11-.46-.16-.73-.16s-.53,.05-.75,.16c-.22,.11-.41,.25-.57,.43s-.28,.39-.36,.63c-.09,.24-.13,.49-.13,.76Z"/>
    </g>
    <g>
      <path class="cls-7" d="M8.82,45.08c.06-.04,.11-.07,.16-.08s.09-.02,.12-.02c.07,0,.13,.01,.19,.04,.06,.03,.12,.09,.18,.19l.7,1.05s.04,.07,.06,.11c.02,.04,.03,.07,.03,.1,0,.1-.03,.17-.09,.23-.06,.06-.13,.11-.2,.16-.34,.24-.71,.42-1.12,.57-.4,.14-.83,.21-1.29,.21-.37,0-.73-.05-1.08-.14-.35-.09-.67-.23-.97-.41-.3-.18-.57-.39-.82-.63-.25-.25-.46-.52-.64-.82-.17-.3-.31-.63-.41-.98-.1-.35-.15-.71-.15-1.09s.05-.75,.15-1.1c.1-.35,.23-.68,.41-.98,.17-.3,.39-.57,.64-.82,.25-.25,.52-.46,.82-.63,.3-.17,.62-.31,.97-.4,.35-.1,.71-.14,1.08-.14,.45,0,.87,.06,1.25,.18,.38,.12,.74,.3,1.08,.53l-.02-.02c.09,.05,.16,.12,.22,.19,.05,.07,.08,.16,.08,.27,0,.07-.02,.15-.07,.23l-.55,.94c-.12,.2-.26,.3-.42,.3-.04,0-.08,0-.14-.03-.05-.02-.11-.05-.18-.1-.18-.12-.38-.22-.59-.29-.21-.08-.43-.11-.67-.11-.26,0-.5,.05-.72,.16-.22,.11-.41,.25-.56,.43-.16,.18-.28,.39-.36,.63-.09,.24-.13,.49-.13,.76s.04,.53,.13,.77c.09,.24,.21,.44,.36,.62,.16,.17,.34,.31,.56,.41,.22,.1,.46,.15,.72,.15,.24,0,.46-.04,.67-.12,.21-.08,.4-.19,.59-.32Z"/>
      <path class="cls-7" d="M13.84,40.46c.08-.12,.19-.23,.33-.34,.14-.11,.3-.21,.48-.3,.18-.09,.38-.16,.6-.22,.22-.06,.45-.08,.7-.08,.47,0,.88,.09,1.23,.27,.35,.18,.63,.43,.86,.74,.23,.31,.39,.68,.5,1.1,.11,.42,.16,.87,.16,1.34v4.06c0,.16-.03,.28-.1,.36-.07,.08-.18,.12-.33,.12h-1.44c-.18,0-.3-.03-.37-.09-.07-.06-.1-.18-.1-.35v-4.1c0-.18-.03-.34-.1-.5-.07-.15-.16-.29-.28-.4-.12-.11-.25-.2-.41-.27-.16-.06-.32-.1-.5-.1-.15,0-.3,.03-.44,.09-.14,.06-.27,.14-.39,.25-.11,.11-.21,.24-.29,.39-.08,.15-.12,.32-.13,.51v4.09c0,.07-.01,.14-.04,.21-.03,.07-.07,.12-.12,.16-.05,.03-.1,.06-.15,.07-.05,.01-.1,.02-.16,.02h-1.41c-.18,0-.31-.04-.39-.13-.08-.09-.12-.2-.12-.35v-9.26c0-.14,.04-.25,.12-.34,.08-.09,.21-.13,.39-.13h1.41c.1,0,.2,.03,.32,.1,.05,.04,.09,.09,.12,.16,.03,.07,.04,.14,.04,.2v2.71Z"/>
      <path class="cls-7" d="M28.34,47.05c0,.07-.01,.14-.04,.2-.02,.06-.07,.11-.12,.15-.05,.05-.1,.07-.16,.09s-.12,.02-.16,.02h-1.23c-.09,0-.16-.01-.21-.03-.05-.02-.1-.05-.13-.1s-.06-.09-.08-.15c-.02-.06-.05-.12-.07-.2l-.08-.28c-.11,.11-.24,.22-.38,.33-.14,.11-.3,.2-.47,.29-.17,.08-.36,.15-.55,.2s-.4,.08-.61,.08c-.38,0-.74-.05-1.09-.14-.35-.09-.67-.23-.97-.41-.3-.18-.57-.39-.82-.63s-.46-.52-.63-.82c-.18-.3-.31-.63-.41-.98-.1-.35-.14-.71-.14-1.09,0-.57,.11-1.11,.32-1.6,.21-.49,.5-.92,.87-1.29,.37-.37,.8-.65,1.29-.86,.49-.21,1.02-.31,1.59-.31,.26,0,.5,.03,.72,.09,.22,.06,.43,.14,.61,.24,.18,.1,.35,.22,.5,.36,.15,.14,.28,.29,.39,.45l.18-.56c.04-.1,.08-.19,.1-.25,.03-.06,.06-.11,.09-.14,.03-.03,.07-.05,.12-.06,.05-.01,.11-.02,.19-.02h.93s.1,0,.16,.02,.12,.04,.16,.09c.06,.05,.1,.1,.12,.16s.04,.12,.04,.2v6.99Zm-6.13-3.47c0,.27,.04,.53,.13,.77,.08,.24,.21,.44,.36,.62s.35,.31,.57,.41c.22,.1,.47,.15,.74,.15s.54-.05,.78-.15c.24-.1,.45-.24,.62-.41,.18-.17,.31-.38,.41-.62,.1-.24,.15-.49,.15-.77s-.05-.52-.15-.76c-.1-.24-.24-.45-.41-.63-.18-.18-.38-.33-.62-.43-.24-.11-.5-.16-.78-.16s-.52,.05-.74,.16c-.22,.11-.41,.25-.57,.43-.16,.18-.28,.39-.36,.63-.09,.24-.13,.49-.13,.76Z"/>
      <path class="cls-7" d="M30,39.74c.05-.05,.11-.07,.17-.09s.12-.02,.17-.02h.94c.07,0,.14,.01,.19,.04s.1,.06,.14,.11c.04,.05,.07,.1,.09,.15s.04,.12,.07,.18l.13,.54c.06-.13,.16-.26,.3-.4,.14-.14,.31-.26,.52-.37,.21-.11,.44-.2,.71-.27,.27-.07,.57-.11,.9-.11,.47,0,.9,.09,1.27,.27,.37,.18,.69,.43,.95,.74,.26,.31,.46,.68,.59,1.1,.13,.42,.2,.87,.2,1.34v4.06c0,.16-.03,.28-.1,.36-.07,.08-.18,.12-.33,.12h-1.44c-.18,0-.3-.03-.37-.09-.07-.06-.1-.18-.1-.35v-4.04c0-.18-.04-.35-.12-.51-.08-.16-.19-.3-.32-.42-.13-.12-.28-.22-.45-.29-.17-.07-.34-.11-.51-.11-.15,0-.3,.03-.46,.1-.16,.07-.3,.16-.43,.28-.13,.12-.24,.26-.33,.42-.09,.16-.14,.33-.15,.52v4.03c0,.07-.01,.14-.04,.21-.03,.07-.07,.12-.12,.16-.05,.03-.1,.06-.15,.07-.05,.01-.1,.02-.16,.02h-1.41c-.18,0-.31-.04-.39-.13-.08-.09-.12-.2-.12-.35v-6.93c0-.08,.02-.15,.05-.22s.08-.12,.15-.15l-.04,.02Z"/>
      <path class="cls-7" d="M43.9,45.08c.06-.04,.11-.07,.16-.08s.09-.02,.12-.02c.07,0,.13,.01,.19,.04,.06,.03,.12,.09,.18,.19l.7,1.05s.04,.07,.06,.11c.02,.04,.03,.07,.03,.1,0,.1-.03,.17-.09,.23-.06,.06-.13,.11-.2,.16-.34,.24-.71,.42-1.12,.57-.4,.14-.83,.21-1.29,.21-.37,0-.73-.05-1.08-.14-.35-.09-.67-.23-.97-.41-.3-.18-.57-.39-.82-.63-.25-.25-.46-.52-.64-.82-.17-.3-.31-.63-.41-.98-.1-.35-.15-.71-.15-1.09s.05-.75,.15-1.1c.1-.35,.23-.68,.41-.98,.17-.3,.39-.57,.64-.82,.25-.25,.52-.46,.82-.63,.3-.17,.62-.31,.97-.4,.35-.1,.71-.14,1.08-.14,.45,0,.87,.06,1.25,.18,.38,.12,.74,.3,1.08,.53l-.02-.02c.09,.05,.16,.12,.22,.19,.05,.07,.08,.16,.08,.27,0,.07-.02,.15-.07,.23l-.55,.94c-.12,.2-.26,.3-.42,.3-.04,0-.08,0-.14-.03-.05-.02-.11-.05-.18-.1-.18-.12-.38-.22-.59-.29-.21-.08-.43-.11-.67-.11-.26,0-.5,.05-.72,.16-.22,.11-.41,.25-.56,.43s-.28,.39-.36,.63c-.09,.24-.13,.49-.13,.76s.04,.53,.13,.77c.09,.24,.21,.44,.36,.62,.16,.17,.34,.31,.56,.41,.22,.1,.46,.15,.72,.15,.24,0,.46-.04,.67-.12,.21-.08,.4-.19,.59-.32Z"/>
      <path class="cls-7" d="M48.92,40.46c.08-.12,.19-.23,.33-.34,.14-.11,.3-.21,.48-.3,.18-.09,.38-.16,.6-.22,.22-.06,.45-.08,.7-.08,.47,0,.88,.09,1.23,.27,.35,.18,.63,.43,.86,.74,.23,.31,.39,.68,.5,1.1,.11,.42,.16,.87,.16,1.34v4.06c0,.16-.03,.28-.1,.36-.07,.08-.18,.12-.33,.12h-1.44c-.18,0-.3-.03-.37-.09-.07-.06-.1-.18-.1-.35v-4.1c0-.18-.03-.34-.1-.5-.07-.15-.16-.29-.28-.4-.12-.11-.25-.2-.41-.27-.16-.06-.32-.1-.5-.1-.15,0-.3,.03-.44,.09-.14,.06-.27,.14-.39,.25-.11,.11-.21,.24-.29,.39-.08,.15-.12,.32-.13,.51v4.09c0,.07-.01,.14-.04,.21-.03,.07-.07,.12-.12,.16-.05,.03-.1,.06-.15,.07-.05,.01-.1,.02-.16,.02h-1.41c-.18,0-.31-.04-.39-.13-.08-.09-.12-.2-.12-.35v-9.26c0-.14,.04-.25,.12-.34,.08-.09,.21-.13,.39-.13h1.41c.1,0,.2,.03,.32,.1,.05,.04,.09,.09,.12,.16,.03,.07,.04,.14,.04,.2v2.71Z"/>
      <path class="cls-7" d="M55.27,36.98c0-.17,.04-.3,.11-.37s.19-.11,.35-.11h1.44c.15,0,.26,.04,.35,.11s.13,.2,.13,.37v1.21s-.01,.1-.03,.16c-.02,.06-.06,.11-.1,.17-.04,.05-.09,.1-.15,.13-.06,.04-.13,.05-.2,.05h-1.44c-.31,0-.46-.17-.46-.51v-1.21Zm0,3.14c0-.13,.04-.25,.11-.34,.07-.09,.19-.14,.35-.14h1.43s.1,.01,.16,.03c.06,.02,.11,.06,.16,.1s.09,.09,.13,.15c.04,.06,.05,.12,.05,.2v6.91c0,.16-.04,.28-.13,.36-.09,.08-.21,.12-.37,.12h-1.43c-.31,0-.46-.16-.46-.48v-6.91Z"/>
      <path class="cls-7" d="M59.63,38.4c0-.13,.04-.22,.13-.29,.08-.06,.21-.12,.36-.18l1.41-.49s.04,0,.06,0h.05c.15,0,.26,.04,.31,.13,.05,.09,.08,.21,.08,.35v1.7s.85,0,.85,0c.13,0,.24,.04,.32,.12,.08,.08,.12,.2,.12,.35v1.2c0,.17-.04,.3-.12,.38s-.19,.12-.32,.12h-.85v5.23c0,.16-.04,.28-.13,.36-.09,.08-.22,.12-.38,.12h-1.41c-.32,0-.48-.16-.48-.48v-5.23h-.65c-.32,0-.48-.17-.48-.5v-1.2c0-.31,.16-.47,.48-.47h.64v-1.22Z"/>
      <path class="cls-7" d="M64.02,43.57c0-.38,.05-.75,.15-1.1,.1-.35,.23-.68,.41-.98,.18-.3,.39-.57,.64-.82,.25-.25,.52-.46,.83-.63,.3-.17,.63-.31,.98-.4,.35-.1,.72-.14,1.1-.14,.56,0,1.09,.1,1.59,.31,.5,.21,.93,.5,1.3,.86,.37,.37,.66,.8,.87,1.29,.21,.49,.32,1.03,.32,1.6,0,.38-.05,.74-.15,1.09-.1,.35-.23,.67-.41,.98-.18,.3-.39,.58-.64,.82-.25,.25-.52,.46-.83,.63-.3,.18-.63,.31-.97,.41-.35,.1-.71,.14-1.09,.14s-.75-.05-1.1-.14c-.35-.09-.68-.23-.98-.41-.3-.18-.58-.39-.83-.63-.25-.25-.46-.52-.64-.82-.18-.3-.31-.63-.41-.98-.1-.35-.15-.71-.15-1.09Zm2.27,0c0,.27,.04,.53,.13,.77,.08,.24,.21,.44,.36,.62,.16,.17,.34,.31,.57,.41,.22,.1,.47,.15,.75,.15s.51-.05,.73-.15c.22-.1,.4-.24,.55-.41s.27-.38,.35-.62c.08-.24,.12-.49,.12-.77s-.04-.52-.12-.76c-.08-.24-.2-.45-.35-.63-.15-.18-.34-.33-.55-.43-.22-.11-.46-.16-.73-.16s-.53,.05-.75,.16c-.22,.11-.41,.25-.57,.43s-.28,.39-.36,.63c-.09,.24-.13,.49-.13,.76Z"/>
    </g>
    <path class="cls-5" d="M86.69,12.54c6.91,5.48,10.35,15.34,7.23,24.36h0c-3.93,11.37-15.95,17.33-27.03,13.54"/>
    <path class="cls-4" d="M57.77,16.32c4.58-5.47,11.66-8.48,18.78-7.85"/>
    <path class="cls-3" d="M86.95,12.18c7.57,5.53,10.99,15.6,7.74,25h0c-3.99,11.54-16.52,17.72-27.99,13.79h0"/>
    <path class="cls-6" d="M57.28,15.69c4.65-5.56,11.79-8.55,19.04-7.86"/>
    <path class="cls-7" d="M84.38,15.11c3.15-2.07,1.22-5.9,.6-8.82-.06-.29-.19-.43-.37-.56-.76-.55-1.86,.87-2.73,1.33-.9,.66-2.34,.39-3.26,.25-.73-.06-1.57,.42-1.86,1.06-.12,.4-.11,.91-.08,1.39-.23-.44-.44-.89-.47-1.46,.07-1.23,1.2-2.2,2.36-2.32,.98-.09,1.64,.15,2.37-.4,.81-.62,1.36-1.5,2.58-1.87,2.47-.54,3.45,1.47,3.66,3.56,.6,2.77,.84,7.18-2.8,7.82h0Z"/>
    <path class="cls-1" d="M84.39,15.13c3.06-1.33,2.21-5.21,1.5-7.77-.15-.55-.34-1.09-.5-1.64-.15-.63-.83-1.09-1.47-.98-.83,.16-1.49,1.03-2.28,1.52-1.32,.99-3.12,.08-4.42,1.04-.96,.49-.65,1.63-.52,2.52-.18-.48-.45-.92-.51-1.47-.16-1.84,2.27-2.53,3.69-2.53,.86-.06,1.43-.69,2.24-1.43,.81-.85,2.47-1.26,3.5-.4,.52,.38,.87,.97,.98,1.6,0,.02-.05-.17-.02-.08,.16,.51,.32,1.03,.44,1.55,.7,2.74,.96,7.4-2.64,8.06h0Z"/>
    <path class="cls-7" d="M57.95,25.25c2.68-2.63,.05-5.98-1.06-8.73-.11-.26-.25-.37-.43-.46-.8-.4-1.6,1.17-2.36,1.75-1.03,1.04-2.53,.62-3.66,.92-.48,.22-1.04,.7-1.15,1.22-.05,.41,.05,.91,.16,1.38-.31-.39-.6-.79-.74-1.34-.17-1.23,.78-2.41,1.91-2.73,.94-.27,1.62-.13,2.22-.81,.68-.76,1.07-1.73,2.22-2.3,2.36-.95,3.69,.87,4.28,2.91,1.08,2.6,2.09,6.95-1.39,8.19h0Z"/>
    <path class="cls-1" d="M57.99,25.25c2.77-1.85,1.24-5.52,.09-7.91-.24-.5-.5-.98-.76-1.46-.24-.63-1.02-.99-1.65-.77-.79,.31-1.28,1.28-1.98,1.9-1.12,1.21-3.05,.63-4.17,1.81-.86,.65-.34,1.72-.06,2.57-.27-.44-.6-.82-.76-1.36-.49-1.79,1.79-2.89,3.18-3.14,.84-.21,1.28-.93,1.95-1.8,.64-.98,2.21-1.67,3.37-1.01,.58,.28,1.03,.8,1.25,1.4-.08-.17-.02-.04-.04-.08,.25,.48,.5,.96,.71,1.45,1.18,2.57,2.27,7.11-1.16,8.4h0Z"/>
    <ellipse class="cls-1" cx="75.13" cy="30.59" rx=".36" ry="1.46" transform="translate(-5.12 42.46) rotate(-30.57)"/>
    <ellipse class="cls-1" cx="76.6" cy="29.62" rx=".36" ry="1.46" transform="translate(-4.42 43.07) rotate(-30.57)"/>
  </g>
</svg>