<?xml version="1.0" encoding="UTF-8"?>
<svg id="FUNDACION" xmlns="http://www.w3.org/2000/svg" viewBox="0 0 66.69 46.5">
  <defs>
    <style>
      .cls-1 {
        fill: #cb8a2e;
      }

      .cls-2 {
        fill: #221e20;
      }

      .cls-3 {
        fill: #f8ae37;
      }
    </style>
  </defs>
  <g>
    <g>
      <g>
        <g>
          <path class="cls-2" d="M58.51,17.95c-1.33-.03-2.46-.39-3.37-1.05-.9-.65-1.59-1.52-2.07-2.57-.47-1.03-.74-2.18-.81-3.41-.07-1.22,.05-2.46,.35-3.69,.3-1.23,.8-2.39,1.47-3.43,.68-1.06,1.55-1.94,2.58-2.62C57.71,.49,58.94,.1,60.33,0c.12,0,.21,0,.31,0,1.2,0,2.24,.3,3.09,.9,.9,.63,1.61,1.5,2.09,2.59,.47,1.05,.75,2.23,.83,3.5,.08,1.26-.03,2.54-.32,3.81-.3,1.27-.79,2.46-1.45,3.53-.68,1.09-1.56,1.97-2.61,2.62-1.07,.66-2.33,1-3.75,1.01h-.02Zm1.63-12.96c-.37,.05-.68,.25-.96,.61-.33,.43-.6,.98-.79,1.64-.2,.69-.34,1.41-.39,2.17-.05,.75-.03,1.46,.08,2.1,.1,.61,.27,1.08,.51,1.42,.2,.28,.39,.31,.53,.31,.03,0,.05,0,.08,0,.28-.06,.54-.26,.79-.61,.3-.43,.55-.98,.75-1.64,.21-.68,.35-1.4,.42-2.15,.07-.74,.07-1.44,0-2.09-.07-.6-.21-1.08-.43-1.42-.19-.3-.38-.34-.55-.34-.01,0-.02,0-.03,0Z"/>
          <path class="cls-3" d="M60.71,.37c1.22-.05,2.24,.22,3.07,.8,.83,.58,1.47,1.37,1.91,2.37,.45,1,.71,2.11,.79,3.33,.08,1.22-.02,2.43-.31,3.66-.28,1.22-.75,2.35-1.39,3.37-.64,1.02-1.45,1.84-2.44,2.46-.99,.61-2.14,.92-3.47,.93-1.22-.03-2.25-.35-3.07-.95-.83-.6-1.46-1.39-1.9-2.37-.44-.98-.7-2.06-.77-3.23-.07-1.18,.04-2.35,.34-3.53,.29-1.18,.76-2.27,1.4-3.28,.64-1,1.45-1.83,2.43-2.46,.98-.64,2.11-1,3.41-1.09Zm-1.09,13.23c.43-.08,.81-.35,1.14-.83,.33-.48,.61-1.08,.82-1.79,.22-.71,.36-1.46,.44-2.25,.08-.78,.08-1.51,0-2.2-.08-.68-.25-1.23-.51-1.64-.26-.41-.62-.6-1.07-.58-.52,.06-.96,.33-1.33,.81-.37,.48-.66,1.08-.88,1.81-.22,.72-.35,1.48-.41,2.28-.06,.79-.03,1.53,.08,2.22,.11,.69,.31,1.23,.59,1.64,.28,.4,.66,.58,1.12,.53Z"/>
          <path class="cls-1" d="M58.88,16.93c-1.14-.03-2.11-.33-2.87-.88-.77-.56-1.37-1.31-1.79-2.23-.42-.94-.67-1.98-.74-3.11-.07-1.13,.04-2.29,.33-3.43,.28-1.14,.74-2.21,1.36-3.18,.61-.96,1.39-1.75,2.32-2.36,.92-.6,2.01-.95,3.25-1.03,.08,0,.17,0,.25,0,1.02,0,1.89,.25,2.59,.74,.77,.54,1.38,1.29,1.8,2.23,.43,.96,.69,2.04,.76,3.21,.08,1.18-.02,2.37-.3,3.56-.27,1.18-.73,2.28-1.34,3.26-.61,.97-1.39,1.76-2.33,2.35-.93,.58-2.03,.87-3.28,.87Zm1.64-12.96s-.06,0-.09,0h-.02c-.61,.07-1.14,.39-1.57,.95-.39,.51-.71,1.16-.94,1.92-.22,.75-.36,1.54-.42,2.35-.06,.82-.03,1.59,.09,2.3,.12,.74,.34,1.33,.65,1.78,.32,.45,.75,.69,1.25,.69,.06,0,.13,0,.19-.01h.02c.52-.1,.98-.42,1.37-.98,.35-.51,.65-1.14,.87-1.89,.22-.73,.37-1.51,.45-2.31,.08-.8,.08-1.57,0-2.27-.08-.73-.27-1.33-.56-1.78-.31-.49-.75-.74-1.29-.74Z"/>
          <path class="cls-3" d="M59.24,16.58c-1.07-.03-1.97-.3-2.67-.81-.72-.52-1.29-1.23-1.68-2.09-.41-.9-.64-1.9-.71-2.99-.06-1.1,.04-2.22,.32-3.33,.27-1.1,.72-2.14,1.31-3.07,.59-.92,1.33-1.67,2.22-2.25,.87-.57,1.9-.89,3.07-.97,.08,0,.16,0,.24,0,.96,0,1.74,.22,2.39,.67,.72,.5,1.28,1.2,1.68,2.09,.41,.92,.66,1.96,.73,3.09,.07,1.14-.02,2.31-.29,3.46-.27,1.14-.7,2.21-1.3,3.16-.58,.93-1.33,1.68-2.22,2.23-.87,.54-1.91,.82-3.09,.82Zm1.64-12.96s-.07,0-.11,0h-.02s-.02,0-.02,0c-.71,.08-1.32,.45-1.81,1.08-.42,.55-.75,1.23-.99,2.03-.23,.77-.38,1.59-.44,2.42-.06,.84-.03,1.64,.09,2.38,.13,.79,.37,1.44,.71,1.92,.49,.69,1.1,.83,1.54,.83,.08,0,.15,0,.23-.01h.02s.02,0,.02,0c.62-.11,1.15-.49,1.59-1.12,.37-.54,.68-1.2,.92-1.98,.23-.75,.38-1.55,.47-2.38,.08-.83,.08-1.62,0-2.34-.09-.78-.29-1.43-.61-1.93-.37-.59-.92-.91-1.59-.91Z"/>
        </g>
        <g>
          <path class="cls-2" d="M35.34,17.56c-.68,0-1.63,0-2.62,0-1.59,0-2.68,0-2.68,0-.89,0-1.71-.29-2.17-.77-.28-.29-.42-.63-.41-.99l.05-1.25c.03-.91,.81-2.32,1.53-3.17l4.49-5.25c.25-.3,.29-.5,.27-.54-.02-.04-.18-.13-.54-.13h-.06s-.16,0-1.24,0c0,0-.86,0-.86,0-.19,0-.44-.05-.67-.3-.39-.41-.58-1.26-.51-2.26,.1-1.38,1.33-2.51,2.76-2.51,.02,0,1.14,0,2.74,.03,1.59,.03,2.7,.03,2.71,.03,.74,0,1.43,.29,1.92,.79,.43,.45,.66,1.02,.64,1.62-.04,1.13-.65,2.82-1.39,3.84l-3.67,5.08c-.21,.3-.26,.52-.21,.62,.04,.08,.23,.17,.56,.17,.03,0,.05,0,.08,0l1.8-.08s.03,0,.05,0c.19,0,.46,.06,.71,.33,.4,.42,.6,1.25,.53,2.21-.1,1.39-1.34,2.52-2.77,2.52h-1.01Z"/>
          <path class="cls-3" d="M31.44,4.79c-.44,.02-.74-.89-.66-2.01,.08-1.12,1.09-2.03,2.24-2.02,0,0,1.11,0,2.72,.03,1.62,.03,2.72,.03,2.72,.03,1.16,0,2.07,.85,2.03,1.87-.04,1.03-.62,2.63-1.29,3.56l-3.67,5.08c-.67,.93-.28,1.66,.88,1.61,0,0,.02,0,.91-.04l.89-.04c.49-.03,.82,.86,.74,1.98-.08,1.12-1.09,2.03-2.24,2.04,0,0-1.73,0-3.64,0-1.6,0-2.69,0-2.69,0-1.16,0-2.08-.55-2.06-1.21l.02-.61,.02-.64c.03-.7,.66-1.98,1.41-2.86l4.49-5.25c.75-.87,.41-1.57-.74-1.54,0,0-.12,0-1.23,0h-.86Z"/>
          <path class="cls-1" d="M35.69,16.53c-.68,0-1.63,0-2.62,0-1.6,0-2.69,0-2.69,0-.64,0-1.25-.2-1.54-.5-.11-.12-.17-.23-.16-.35l.05-1.24c.02-.55,.56-1.75,1.32-2.64l4.49-5.25c.61-.71,.51-1.23,.4-1.47-.11-.24-.43-.64-1.34-.64-.03,0-.05,0-.08,0,0,0-.16,0-1.22,0h-.86c-.11-.04-.38-.6-.3-1.63,.07-.94,.91-1.7,1.88-1.7,.02,0,1.13,0,2.72,.03,1.6,.03,2.71,.03,2.72,.03,.5,0,.97,.19,1.29,.52,.27,.28,.41,.63,.39,.99-.04,.95-.6,2.5-1.23,3.37l-3.67,5.08c-.4,.56-.5,1.09-.28,1.52,.12,.24,.46,.64,1.34,.64,.04,0,.08,0,.12,0,0,0,1.8-.08,1.8-.08,.02,0,.05,.02,.08,.05,.18,.19,.35,.76,.3,1.56-.07,.94-.92,1.71-1.89,1.71h-1.01Z"/>
          <path class="cls-3" d="M36.04,16.19c-.68,0-1.63,0-2.62,0-1.6,0-2.69,0-2.69,0-.63,0-1.1-.2-1.29-.39-.06-.06-.07-.09-.07-.1l.05-1.24c.02-.48,.55-1.63,1.24-2.43l4.49-5.25c.74-.86,.6-1.52,.45-1.84-.15-.31-.56-.84-1.65-.84-.03,0-.06,0-.09,0-.01,0-.18,0-1.21,0h-.68c-.08-.18-.18-.61-.14-1.25,.05-.75,.76-1.38,1.54-1.38,.02,0,1.13,0,2.72,.03,1.6,.03,2.71,.03,2.72,.03,.41,0,.78,.15,1.04,.42,.14,.15,.31,.39,.3,.74-.03,.9-.57,2.35-1.16,3.18l-3.67,5.08c-.65,.9-.47,1.56-.31,1.88,.16,.31,.59,.83,1.65,.83,.04,0,.09,0,.13,0,0,0,1.66-.07,1.66-.07,.08,.16,.21,.58,.16,1.23-.05,.75-.76,1.39-1.55,1.39h-1.01Z"/>
        </g>
        <g>
          <path class="cls-2" d="M16.44,17.39c-.12,0-.23,0-.35-.02h-.08c-.71-.09-1.31-.43-1.69-.98-.38-.55-.49-1.23-.3-1.92l1.51-5.59c.3-1.11,.8-2.92,1.11-4.02l.5-1.81c.37-1.33,1.76-2.41,3.15-2.45l1.46-.04s.05,0,.07,0c1.42,0,2.62,1.09,2.75,2.49l1.01,11.36c.13,1.42-.9,2.72-2.3,2.91-.14,.02-.27,.03-.41,.03-1.26,0-2.23-.81-2.27-1.89-.02-.7-.37-1.13-.55-1.13-.22,0-.73,.47-.92,1.24-.26,1.05-1.41,1.82-2.72,1.82Z"/>
          <path class="cls-3" d="M18,3.03c.31-1.1,1.5-2.03,2.66-2.07l1.46-.04c1.16-.03,2.18,.88,2.29,2.02l1.01,11.36c.1,1.14-.73,2.2-1.84,2.35-1.12,.15-2.05-.46-2.08-1.36-.03-.9-.51-1.63-1.07-1.64s-1.2,.73-1.43,1.63c-.22,.9-1.35,1.53-2.5,1.41h-.08c-1.15-.13-1.84-1.14-1.54-2.25l1.51-5.59c.3-1.11,.8-2.91,1.1-4.02l.5-1.81Zm2.68,5.85c-.25,.8-.2,1.46,.12,1.47,.32,0,.52-.65,.46-1.46s-.33-.81-.58,0Z"/>
          <path class="cls-1" d="M16.79,16.37c-.08,0-.17,0-.25-.01h-.08c-.45-.06-.83-.27-1.06-.61-.23-.34-.3-.77-.18-1.2l1.51-5.59c.3-1.11,.8-2.91,1.1-4.02l.5-1.81c.27-.95,1.33-1.78,2.33-1.81l1.46-.04h.05c.95,0,1.79,.76,1.88,1.7l1.01,11.36c.09,.96-.61,1.85-1.54,1.98-.1,.01-.2,.02-.29,.02-.79,0-1.37-.44-1.39-1.04-.03-1.1-.66-1.97-1.42-1.97-.73,0-1.5,.83-1.77,1.89-.16,.65-.98,1.16-1.87,1.16Zm4.24-8.43c-.38,0-.56,.43-.69,.84-.09,.28-.34,1.21,0,1.68,.11,.15,.27,.24,.45,.24h0c.13,0,.3-.04,.47-.21,.28-.3,.41-.9,.35-1.62-.02-.25-.08-.93-.57-.93Z"/>
          <path class="cls-3" d="M17.14,16.02c-.07,0-.14,0-.21-.01h-.08c-.35-.05-.64-.21-.81-.46-.18-.25-.22-.58-.13-.92l1.51-5.59c.3-1.11,.8-2.91,1.1-4.01l.5-1.81c.22-.81,1.16-1.53,2-1.56l1.5-.04c.77,0,1.46,.62,1.53,1.38l1.01,11.36c.07,.77-.5,1.5-1.24,1.6-.08,.01-.16,.02-.24,.02-.59,0-1.03-.3-1.04-.71-.04-1.29-.81-2.31-1.77-2.31-1.02,0-1.85,1.11-2.11,2.16-.12,.49-.81,.9-1.53,.9Zm4.24-8.43c-.69,0-.93,.79-1.03,1.09-.16,.5-.36,1.43,.05,1.99,.17,.24,.44,.38,.73,.38h0c.28,0,.54-.11,.73-.32,.49-.53,.47-1.5,.44-1.89-.08-1.03-.55-1.25-.92-1.25Z"/>
        </g>
        <g>
          <path class="cls-2" d="M8.58,17.51c-.7,0-1.34-.28-1.79-.78-.45-.51-.65-1.17-.57-1.87l.12-1c.09-.73,.03-1.26-.04-1.48h-.88c-.11,.21-.27,.76-.28,1.57l-.02,.97c-.03,1.43-1.22,2.59-2.66,2.6h0c-.71,0-1.35-.27-1.81-.77C.19,16.24-.04,15.58,0,14.88L.83,3.12C.93,1.72,2.08,.52,3.39,.45c.04,0,.08,0,.13,0,.6,0,1.17,.24,1.58,.68,.46,.48,.69,1.14,.64,1.85l-.16,2.66c-.05,.79,.06,1.34,.15,1.56,.13,0,.29,0,.45,0,.18,0,.35,0,.5,0,.13-.18,.35-.77,.42-1.63l.22-2.66c.11-1.37,1.21-2.45,2.5-2.45,.04,0,.08,0,.13,0,.61,.03,1.18,.31,1.6,.79,.46,.52,.7,1.23,.64,1.95l-.86,11.76c-.1,1.41-1.34,2.55-2.76,2.55h0Z"/>
          <path class="cls-3" d="M7.17,7.55c.35-.01,.71-.96,.81-2.1l.22-2.66c.09-1.14,1.03-2.03,2.08-1.97s1.84,1.04,1.75,2.18l-.86,11.76c-.08,1.14-1.09,2.07-2.24,2.07-1.15,0-1.97-.94-1.83-2.07l.12-1c.14-1.14-.02-2.07-.36-2.07h-1.23c-.34,0-.63,.94-.66,2.08l-.02,.97c-.02,1.15-.98,2.09-2.13,2.09-1.15,0-2.02-.93-1.94-2.07L1.7,3c.08-1.14,1.01-2.13,2.07-2.18,1.06-.06,1.86,.83,1.8,1.97l-.16,2.66c-.07,1.14,.16,2.09,.5,2.1,.34,.01,.91,.01,1.26,0Z"/>
          <path class="cls-1" d="M8.93,16.48c-.45,0-.85-.18-1.13-.49-.28-.32-.41-.74-.35-1.2l.12-1c.1-.82,.08-1.85-.29-2.26-.11-.13-.27-.2-.42-.2h-1.23c-.93,0-1,2.17-1.01,2.42l-.02,.97c-.02,.96-.82,1.75-1.78,1.75h0c-.46,0-.87-.17-1.17-.49-.3-.32-.45-.75-.42-1.21L2.05,3.02c.07-.96,.86-1.81,1.74-1.86,.03,0,.05,0,.08,0,.36,0,.7,.14,.94,.4,.29,.31,.43,.73,.41,1.21l-.16,2.66c-.05,.82,.03,1.84,.42,2.26,.15,.16,.31,.2,.42,.21,.17,0,.4,.01,.64,.01s.47,0,.65-.01c.92-.03,1.12-2.17,1.14-2.42l.22-2.67c.08-.91,.81-1.65,1.63-1.65,.03,0,.05,0,.08,0,.38,.02,.73,.2,1,.49,.31,.35,.46,.83,.43,1.32l-.86,11.76c-.07,.96-.92,1.75-1.88,1.75h0Z"/>
          <path class="cls-3" d="M9.28,16.13c-.35,0-.66-.13-.87-.37-.22-.24-.31-.57-.27-.92l.12-1c.07-.56,.17-1.92-.37-2.53-.18-.2-.43-.32-.69-.32h-1.23c-1.2,0-1.34,2.11-1.36,2.76l-.02,.97c-.02,.77-.66,1.41-1.43,1.41-.36,0-.68-.14-.91-.38-.24-.25-.35-.59-.33-.95L2.75,3.05c.06-.79,.7-1.5,1.41-1.54,.02,0,.04,0,.06,0,.34,0,.56,.16,.69,.29,.22,.24,.33,.57,.31,.95l-.16,2.66c-.03,.43-.07,1.89,.51,2.52,.18,.2,.42,.31,.66,.32,.18,0,.41,.01,.66,.01s.48,0,.66-.01c1.17-.04,1.43-2.11,1.48-2.74l.22-2.66c.06-.74,.64-1.34,1.28-1.34,.02,0,.04,0,.06,0,.28,.02,.55,.15,.75,.38,.25,.28,.37,.66,.34,1.06l-.86,11.76c-.06,.77-.76,1.43-1.53,1.43h0Z"/>
        </g>
        <g>
          <path class="cls-2" d="M44.58,17.72c-.7,0-1.35-.27-1.81-.77-.47-.5-.69-1.15-.64-1.85l.92-12.31c.11-1.41,1.35-2.55,2.76-2.55,.71,0,1.35,.28,1.81,.78,.46,.5,.67,1.17,.6,1.87l-.89,8.64c-.04,.4,.08,.78,.34,1.07,.26,.28,.62,.44,1.03,.45h.83c.76,.01,1.46,.31,1.92,.81,.4,.43,.59,.99,.54,1.56-.11,1.24-1.36,2.26-2.78,2.27l-4.63,.04Z"/>
          <path class="cls-3" d="M46.18,.6c1.15,0,1.99,.94,1.88,2.08l-.89,8.64c-.12,1.14,.73,2.08,1.89,2.09h.83c1.16,.01,2.03,.82,1.94,1.8-.09,.98-1.11,1.79-2.26,1.8l-4.61,.04c-1.16,0-2.03-.92-1.95-2.06l.92-12.31c.09-1.14,1.1-2.07,2.25-2.07Z"/>
          <path class="cls-1" d="M44.93,16.69c-.46,0-.87-.18-1.17-.49-.3-.32-.44-.74-.41-1.19l.92-12.31c.07-.96,.92-1.75,1.89-1.75,.46,0,.87,.18,1.16,.49,.29,.32,.43,.75,.38,1.2l-.89,8.64c-.07,.65,.13,1.27,.55,1.73,.42,.47,1.02,.73,1.68,.73h.83c.51,0,.98,.2,1.28,.53,.23,.26,.34,.57,.31,.9-.07,.8-.95,1.47-1.92,1.48l-4.62,.04Z"/>
          <path class="cls-3" d="M45.29,16.35c-.36,0-.68-.14-.91-.38-.23-.25-.34-.58-.32-.93l.92-12.31c.06-.77,.76-1.43,1.54-1.43,.36,0,.67,.14,.9,.38,.22,.25,.33,.58,.29,.93l-.89,8.64c-.08,.75,.15,1.46,.64,2,.49,.54,1.18,.84,1.94,.85h.83c.42,0,.79,.16,1.02,.41,.12,.13,.25,.34,.22,.63-.06,.63-.78,1.16-1.57,1.17l-4.62,.04Z"/>
        </g>
      </g>
      <g>
        <g>
          <path class="cls-2" d="M43.25,46.41c-1.33-.03-2.46-.39-3.37-1.05-.9-.65-1.59-1.52-2.07-2.57-.47-1.03-.74-2.18-.81-3.41-.07-1.22,.05-2.46,.35-3.69,.3-1.23,.8-2.39,1.47-3.43,.68-1.06,1.55-1.94,2.58-2.62,1.05-.68,2.28-1.08,3.67-1.17,.12,0,.21,0,.31,0,1.2,0,2.24,.3,3.09,.9,.9,.63,1.61,1.5,2.09,2.59,.47,1.05,.75,2.23,.83,3.5,.08,1.26-.03,2.54-.32,3.81-.3,1.27-.79,2.46-1.45,3.53-.68,1.09-1.56,1.97-2.61,2.62-1.07,.66-2.33,1-3.75,1.01h-.02Zm1.63-12.96c-.37,.05-.68,.25-.96,.61-.33,.43-.6,.98-.79,1.64-.2,.69-.34,1.41-.39,2.17-.05,.75-.03,1.46,.08,2.1,.1,.61,.27,1.08,.51,1.42,.2,.28,.39,.31,.53,.31,.03,0,.05,0,.08,0,.28-.06,.54-.26,.79-.61,.3-.43,.55-.98,.75-1.64,.21-.68,.35-1.4,.42-2.15,.07-.74,.07-1.44,0-2.09-.07-.6-.21-1.08-.43-1.42-.19-.3-.38-.34-.55-.34-.01,0-.02,0-.03,0Z"/>
          <path class="cls-3" d="M45.45,28.82c1.22-.05,2.24,.22,3.07,.8,.83,.58,1.47,1.37,1.91,2.37,.45,1,.71,2.11,.79,3.33,.08,1.22-.02,2.43-.31,3.66-.28,1.22-.75,2.35-1.39,3.37-.64,1.02-1.45,1.84-2.44,2.46-.99,.61-2.14,.92-3.47,.93-1.22-.03-2.25-.35-3.07-.95-.83-.6-1.46-1.39-1.9-2.37-.44-.98-.7-2.06-.77-3.23-.07-1.18,.04-2.35,.34-3.53,.29-1.18,.76-2.27,1.4-3.28,.64-1,1.45-1.83,2.43-2.46,.98-.64,2.11-1,3.41-1.09Zm-1.09,13.23c.43-.08,.81-.35,1.14-.83,.33-.48,.61-1.08,.82-1.79,.22-.71,.36-1.46,.44-2.25,.08-.78,.08-1.51,0-2.2-.08-.68-.25-1.23-.51-1.64-.26-.41-.62-.6-1.07-.58-.52,.06-.96,.33-1.33,.81-.37,.48-.66,1.08-.88,1.81-.22,.72-.35,1.48-.41,2.28-.06,.79-.03,1.53,.08,2.22,.11,.69,.31,1.23,.59,1.64,.28,.4,.66,.58,1.12,.53Z"/>
          <path class="cls-1" d="M43.62,45.38c-1.14-.03-2.11-.33-2.87-.88-.77-.56-1.37-1.31-1.79-2.23-.42-.94-.67-1.98-.74-3.11-.07-1.13,.04-2.29,.33-3.43,.28-1.14,.74-2.21,1.36-3.18,.61-.96,1.39-1.75,2.32-2.36,.92-.6,2.01-.95,3.25-1.03,.08,0,.17,0,.25,0,1.02,0,1.89,.25,2.59,.74,.77,.54,1.38,1.29,1.8,2.23,.43,.96,.69,2.04,.76,3.21,.08,1.18-.02,2.37-.3,3.56-.27,1.18-.73,2.28-1.34,3.26-.61,.97-1.39,1.76-2.33,2.35-.93,.58-2.03,.87-3.28,.87Zm1.64-12.96s-.06,0-.09,0h-.02c-.61,.07-1.14,.39-1.57,.95-.39,.51-.71,1.16-.94,1.92-.22,.75-.36,1.54-.42,2.35-.06,.82-.03,1.59,.09,2.3,.12,.74,.34,1.33,.65,1.78,.32,.45,.75,.69,1.25,.69,.06,0,.13,0,.19-.01h.02c.52-.1,.98-.42,1.37-.98,.35-.51,.65-1.14,.87-1.89,.22-.73,.37-1.51,.45-2.31,.08-.8,.08-1.57,0-2.27-.08-.73-.27-1.33-.56-1.78-.31-.49-.75-.74-1.29-.74Z"/>
          <path class="cls-3" d="M43.97,45.03c-1.07-.03-1.97-.3-2.67-.81-.72-.52-1.29-1.23-1.68-2.09-.41-.9-.64-1.9-.71-2.99-.06-1.1,.04-2.22,.32-3.33,.27-1.1,.72-2.14,1.31-3.07,.59-.92,1.33-1.67,2.22-2.25,.87-.57,1.9-.89,3.07-.97,.08,0,.16,0,.24,0,.96,0,1.74,.22,2.39,.67,.72,.5,1.28,1.2,1.68,2.09,.41,.92,.66,1.96,.73,3.09,.07,1.14-.02,2.31-.29,3.46-.27,1.14-.7,2.21-1.3,3.16-.58,.93-1.33,1.68-2.22,2.23-.87,.54-1.91,.82-3.09,.82Zm1.64-12.96s-.07,0-.11,0h-.02s-.02,0-.02,0c-.71,.08-1.32,.45-1.81,1.08-.42,.55-.75,1.23-.99,2.03-.23,.77-.38,1.59-.44,2.42-.06,.84-.03,1.64,.09,2.38,.13,.79,.37,1.44,.71,1.92,.49,.69,1.1,.83,1.54,.83,.08,0,.15,0,.23-.01h.02s.02,0,.02,0c.62-.11,1.15-.49,1.59-1.12,.37-.54,.68-1.2,.92-1.98,.23-.75,.38-1.55,.47-2.38,.08-.83,.08-1.62,0-2.34-.09-.78-.29-1.43-.61-1.93-.37-.59-.92-.91-1.59-.91Z"/>
        </g>
        <g>
          <path class="cls-2" d="M57.07,46.5c-.74,0-1.45-.15-2.11-.43-.6-.27-1.11-.59-1.51-.95l-.4-.36-.03-.04c-.55-.71-.16-2,.9-3l.27-.25c.42-.39,.8-.75,1.08-1.01q.6-.56,.81-.56h.3l.14,.25,.32,.47,.15,.18c.13,.16,.32,.32,.56,.48,.17,.1,.33,.16,.48,.16,.02,0,.03,0,.05,0,.14-.01,.18-.05,.19-.07h0s0-.06-.08-.2c-.07-.12-.27-.38-.92-.78-.53-.3-1.06-.65-1.58-1.01-.54-.38-1.03-.83-1.45-1.34-.44-.53-.76-1.18-.96-1.91-.2-.73-.24-1.61-.11-2.61v-.02s0-.02,0-.02c.24-1.11,.73-2.07,1.43-2.86,.7-.78,1.52-1.36,2.45-1.75,.8-.33,1.62-.5,2.43-.5,.13,0,.27,0,.4,.01,.97,.06,1.85,.4,2.61,.98h.02s.02,.03,.02,.03c.53,.48,.91,1.02,1.14,1.6,.22,.56,.34,1.17,.35,1.81v.62s0,.04,0,.04c-.13,1.04-1.42,1.93-2.57,2.24l-.15,.04c-.71,.19-1.36,.31-1.78,.32,.09,.05,.14,.09,.16,.1,.02,0,.62,.37,1.34,.8l.07,.04,.5,.54c.49,.53,.85,1.11,1.08,1.72,.22,.6,.33,1.21,.33,1.8-.01,1.06-.29,2-.83,2.79-.53,.77-1.21,1.4-2.04,1.85-.82,.45-1.69,.71-2.6,.79-.17,.01-.33,.02-.49,.02Zm.99-11.84c.18,.27,.44,.59,.62,.79,0-.02,0-.03,0-.05l.03-.24c.04-.31,.07-.64,.08-.97,0-.27-.03-.49-.1-.65,0-.01-.04-.02-.09-.02-.01,0-.02,0-.03,0-.09,.02-.21,.06-.34,.24-.12,.18-.18,.4-.17,.66v.23Z"/>
          <path class="cls-3" d="M62.55,29.61c.47,.43,.81,.9,1.01,1.41,.2,.51,.31,1.05,.32,1.63v.58c-.07,.69-1.05,1.5-2.17,1.8l-.15,.04c-1.12,.3-2.02,.39-2.01,.21l.02-.22c.04-.32,.07-.66,.08-1.01,.01-.35-.04-.65-.15-.88-.11-.24-.33-.34-.66-.32-.29,.04-.53,.2-.72,.47-.18,.27-.27,.6-.26,.97v.37c.25,.38,.64,.87,.88,1.09l.25,.17,.25,.17c.29,.18,.53,.32,.53,.33,0,0,.62,.37,1.34,.8l.45,.48c.45,.48,.77,1,.97,1.55,.2,.55,.3,1.09,.3,1.63-.01,.96-.26,1.79-.74,2.5-.48,.71-1.1,1.27-1.85,1.68-.76,.41-1.55,.66-2.39,.73-.84,.07-1.62-.05-2.35-.37-.55-.25-1-.53-1.37-.86l-.36-.32c-.37-.48,0-1.52,.85-2.31l.27-.25c.84-.79,1.53-1.43,1.53-1.43,0,0,.16,.24,.35,.51l.17,.2c.17,.2,.39,.39,.67,.58,.3,.19,.59,.27,.87,.25,.27-.02,.47-.13,.59-.32,.12-.19,.09-.43-.07-.72-.16-.29-.53-.62-1.1-.97-.53-.3-1.04-.63-1.55-.99-.51-.36-.96-.77-1.35-1.25-.39-.48-.68-1.05-.86-1.72-.18-.67-.21-1.47-.1-2.41,.23-1.03,.66-1.9,1.31-2.62,.65-.72,1.4-1.26,2.26-1.61,.86-.35,1.73-.5,2.6-.44,.87,.06,1.64,.35,2.32,.87Z"/>
          <path class="cls-1" d="M57.42,45.48c-.62,0-1.21-.12-1.76-.36-.51-.23-.94-.5-1.27-.8l-.33-.3c-.17-.28,.05-1.1,.82-1.83l.27-.25c.53-.5,.96-.9,1.23-1.15l.13,.19,.18,.21c.19,.22,.44,.44,.75,.64,.33,.21,.66,.31,.97,.31,.04,0,.08,0,.12,0,.48-.04,.73-.28,.85-.48,.13-.21,.22-.56-.06-1.07-.19-.35-.59-.71-1.23-1.1-.52-.3-1.03-.63-1.53-.98-.48-.34-.91-.74-1.28-1.19-.36-.44-.63-.97-.79-1.59-.17-.62-.2-1.38-.09-2.26,.21-.96,.63-1.78,1.22-2.45,.61-.68,1.33-1.19,2.13-1.52,.69-.29,1.4-.43,2.09-.43,.11,0,.23,0,.34,.01,.79,.05,1.5,.32,2.11,.79,.43,.39,.73,.82,.91,1.27,.18,.47,.28,.98,.29,1.51v.55c-.07,.48-.86,1.2-1.91,1.48l-.15,.04c-.71,.19-1.24,.27-1.53,.29,.04-.3,.06-.63,.07-.96,.01-.4-.05-.75-.18-1.04-.16-.34-.47-.52-.89-.52-.04,0-.07,0-.11,0h-.02c-.4,.06-.72,.27-.96,.63-.22,.33-.33,.73-.32,1.17l.02,.46,.05,.08c.25,.4,.66,.92,.92,1.16l.02,.02,.53,.36c.3,.19,.55,.34,.55,.34,0,0,.59,.35,1.3,.77l.41,.45c.41,.45,.72,.93,.9,1.43,.19,.51,.28,1.02,.28,1.51-.01,.88-.24,1.66-.68,2.3-.45,.66-1.03,1.19-1.73,1.57-.71,.39-1.47,.62-2.25,.68-.14,.01-.28,.02-.42,.02Z"/>
          <path class="cls-3" d="M57.77,45.13c-.57,0-1.11-.11-1.62-.33-.47-.21-.87-.46-1.18-.74l-.28-.25c-.03-.16,.14-.77,.78-1.36l.27-.25c.37-.35,.69-.65,.94-.88l.09,.1c.21,.25,.48,.48,.82,.71h.02c.38,.25,.77,.37,1.14,.37,.05,0,.1,0,.16,0,.63-.05,.96-.38,1.12-.64,.18-.28,.32-.76-.05-1.42-.22-.41-.66-.81-1.35-1.23h-.02c-.51-.3-1.01-.62-1.5-.97-.45-.32-.86-.7-1.21-1.12-.33-.4-.57-.89-.73-1.46-.16-.57-.18-1.28-.08-2.11,.2-.89,.58-1.66,1.14-2.28,.57-.64,1.25-1.12,2.01-1.43,.65-.27,1.31-.4,1.96-.4,.11,0,.21,0,.32,.01,.72,.05,1.35,.28,1.91,.71,.38,.35,.65,.73,.81,1.13,.17,.43,.26,.9,.27,1.4v.52c-.07,.32-.74,.93-1.65,1.17l-.15,.04c-.42,.11-.78,.19-1.05,.23,.01-.18,.02-.37,.03-.55,.01-.46-.06-.86-.22-1.2-.22-.46-.66-.72-1.2-.72-.05,0-.09,0-.14,0h-.02s-.02,0-.02,0c-.49,.07-.91,.34-1.21,.78-.27,.4-.39,.86-.37,1.37l.02,.56,.1,.16c.27,.43,.7,.97,.98,1.23l.04,.04,.57,.39s.55,.34,.56,.35c0,0,.57,.33,1.25,.74l.38,.41c.38,.41,.66,.86,.83,1.32,.17,.47,.26,.94,.26,1.39-.01,.82-.21,1.51-.62,2.11-.42,.61-.96,1.11-1.61,1.46-.66,.36-1.37,.58-2.11,.64-.13,.01-.26,.02-.39,.02Z"/>
        </g>
        <g>
          <path class="cls-2" d="M9.1,46.13s-.08,0-.12,0l-3.83-.18c-1.44-.07-2.57-1.29-2.52-2.72l.44-11.57c.05-1.41,1.25-2.62,2.67-2.69l4.42-.24s.1,0,.14,0c1.4,0,2.53,1.09,2.57,2.48v.02c.02,.69-.24,1.35-.72,1.85-.49,.5-1.14,.77-1.84,.77h-.92c-.95,0-1.64,.53-1.67,1.01-.02,.24,.06,.46,.21,.62,.16,.17,.38,.26,.63,.26,0,0,.08,0,.11,0,1.12,0,2.03,1.11,2.07,2.53v.02c.02,.77-.24,1.49-.73,1.99-.4,.4-.91,.63-1.45,.63-.23,0-.44,.02-.62,.04,.25,.04,.57,.07,.94,.07h.86c.72,0,1.35,.28,1.78,.79,.43,.51,.6,1.17,.48,1.87v.07c-.25,1.34-1.51,2.39-2.89,2.39h0Z"/>
          <path class="cls-3" d="M12.7,31.08c.03,1.15-.89,2.08-2.04,2.08h-.92c-1.16,0-2.14,.68-2.2,1.5-.05,.82,.59,1.47,1.43,1.43,.84-.03,1.55,.88,1.59,2.02v.02c.03,1.15-.71,2.08-1.66,2.08-.94,0-1.73,.26-1.75,.57-.02,.32,.91,.58,2.07,.58h.86c1.16,0,1.94,.93,1.74,2.06v.08c-.21,1.13-1.31,2.01-2.47,1.96l-3.83-.18c-1.15-.05-2.06-1.03-2.02-2.18l.44-11.57c.04-1.14,1.02-2.13,2.18-2.19l4.42-.24c1.15-.06,2.13,.82,2.16,1.97v.02Z"/>
          <path class="cls-1" d="M9.45,45.11s-.06,0-.08,0l-3.83-.18c-.97-.04-1.72-.86-1.69-1.82l.44-11.57c.04-.97,.87-1.81,1.85-1.86l4.42-.24s.06,0,.09,0c.92,0,1.67,.72,1.69,1.64,.01,.48-.16,.91-.48,1.24-.32,.33-.75,.51-1.22,.51h-.92c-1.34,0-2.48,.82-2.55,1.82-.03,.48,.13,.93,.45,1.27,.32,.34,.77,.53,1.27,.53,.03,0,.11,0,.11,0,.63,0,1.17,.76,1.19,1.69v.02c.02,.53-.16,1.03-.49,1.36-.16,.17-.44,.36-.82,.36-1.03,0-2.07,.28-2.1,.9,0,.1,.02,.26,.16,.41,.37,.39,1.41,.53,2.26,.53h.86c.45,0,.85,.17,1.11,.48,.26,.31,.37,.72,.29,1.17v.08c-.17,.92-1.07,1.67-2.02,1.67Z"/>
          <path class="cls-3" d="M9.73,44.76l-3.83-.18c-.77-.04-1.38-.69-1.35-1.46l.44-11.57c.03-.79,.72-1.48,1.52-1.53l4.42-.24s.05,0,.08,0c.73,0,1.32,.57,1.34,1.3,.01,.38-.12,.72-.38,.98-.25,.26-.6,.4-.96,.4h-.92c-1.55,0-2.82,.94-2.9,2.15-.04,.58,.16,1.12,.54,1.53,.39,.41,.93,.64,1.52,.64,.03,0,.06,0,.09,0h0c.4,0,.84,.55,.86,1.35v.02c.01,.43-.13,.84-.39,1.1-.12,.12-.31,.26-.57,.26-1.16,0-2.4,.32-2.45,1.23-.01,.24,.08,.48,.26,.67,.55,.58,1.94,.64,2.51,.64h.86c.35,0,.65,.13,.84,.36,.2,.23,.27,.54,.21,.89v.08c-.15,.76-.89,1.38-1.68,1.38-.02,0-.04,0-.07,0Z"/>
        </g>
        <g>
          <path class="cls-2" d="M28.82,46.17c-.7,0-1.35-.27-1.81-.77-.47-.5-.69-1.15-.64-1.85l.92-12.31c.11-1.41,1.35-2.55,2.76-2.55,.71,0,1.35,.28,1.81,.78,.46,.5,.67,1.17,.6,1.87l-.89,8.64c-.04,.4,.08,.78,.34,1.07,.26,.28,.62,.44,1.03,.45h.83c.76,.01,1.46,.31,1.92,.81,.4,.43,.59,.99,.54,1.56-.11,1.24-1.36,2.26-2.78,2.27l-4.63,.04Z"/>
          <path class="cls-3" d="M30.41,29.05c1.15,0,1.99,.94,1.88,2.08l-.89,8.64c-.12,1.14,.73,2.08,1.89,2.09h.83c1.16,.01,2.03,.82,1.94,1.8-.09,.98-1.11,1.79-2.26,1.8l-4.61,.04c-1.16,0-2.03-.92-1.95-2.06l.92-12.31c.09-1.14,1.1-2.07,2.25-2.07Z"/>
          <path class="cls-1" d="M29.17,45.14c-.46,0-.87-.18-1.17-.49-.3-.32-.44-.74-.41-1.19l.92-12.31c.07-.96,.92-1.75,1.89-1.75,.46,0,.87,.18,1.16,.49,.29,.32,.43,.75,.38,1.2l-.89,8.64c-.07,.65,.13,1.27,.55,1.73s1.02,.73,1.68,.73h.83c.51,0,.98,.2,1.28,.53,.23,.26,.34,.57,.31,.9-.07,.8-.95,1.47-1.92,1.48l-4.62,.04Z"/>
          <path class="cls-3" d="M29.52,44.8c-.36,0-.68-.14-.91-.38-.23-.25-.34-.58-.32-.93l.92-12.31c.06-.77,.76-1.43,1.54-1.43,.36,0,.67,.14,.9,.38,.22,.25,.33,.58,.29,.93l-.89,8.64c-.08,.75,.15,1.46,.64,2,.49,.54,1.18,.84,1.94,.85h.83c.42,0,.79,.16,1.02,.41,.12,.13,.25,.34,.22,.63-.06,.63-.78,1.16-1.57,1.17l-4.62,.04Z"/>
        </g>
        <g>
          <path class="cls-2" d="M16.61,46.17c-.7,0-1.35-.27-1.81-.77-.47-.5-.69-1.15-.64-1.85l.92-12.31c.11-1.41,1.35-2.55,2.76-2.55,.71,0,1.35,.28,1.81,.78,.46,.5,.67,1.17,.6,1.87l-.89,8.64c-.04,.4,.08,.78,.34,1.07,.26,.28,.62,.44,1.03,.45h.83c.76,.01,1.46,.31,1.92,.81,.4,.43,.59,.99,.54,1.56-.11,1.24-1.36,2.26-2.78,2.27l-4.63,.04Z"/>
          <path class="cls-3" d="M18.2,29.05c1.15,0,1.99,.94,1.88,2.08l-.89,8.64c-.12,1.14,.73,2.08,1.89,2.09h.83c1.16,.01,2.03,.82,1.94,1.8-.09,.98-1.11,1.79-2.26,1.8l-4.61,.04c-1.16,0-2.03-.92-1.95-2.06l.92-12.31c.09-1.14,1.1-2.07,2.25-2.07Z"/>
          <path class="cls-1" d="M16.96,45.14c-.46,0-.87-.18-1.17-.49-.3-.32-.44-.74-.41-1.19l.92-12.31c.07-.96,.92-1.75,1.89-1.75,.46,0,.87,.18,1.16,.49,.29,.32,.43,.75,.38,1.2l-.89,8.64c-.07,.65,.13,1.27,.55,1.73s1.02,.73,1.68,.73h.83c.51,0,.98,.2,1.28,.53,.23,.26,.34,.57,.31,.9-.07,.8-.95,1.47-1.92,1.48l-4.62,.04Z"/>
          <path class="cls-3" d="M17.31,44.8c-.36,0-.68-.14-.91-.38-.23-.25-.34-.58-.32-.93l.92-12.31c.06-.77,.76-1.43,1.54-1.43,.36,0,.67,.14,.9,.38,.22,.25,.33,.58,.29,.93l-.89,8.64c-.08,.75,.15,1.46,.64,2,.49,.54,1.18,.84,1.94,.85h.83c.42,0,.79,.16,1.02,.41,.12,.13,.25,.34,.22,.63-.06,.63-.78,1.16-1.57,1.17l-4.62,.04Z"/>
        </g>
      </g>
    </g>
    <g>
      <path class="cls-2" d="M50.09,31.96c-.02,1.39-.58,2.51-1.55,3.07-.97,.56-2.23,.49-3.45-.19l-7.67-4.25c-1.65-.91-4.51-1.06-6.25-.31l-8.65,3.73c-1.26,.54-2.56,.5-3.58-.1-1.02-.61-1.67-1.73-1.78-3.08l-.06-.69c-.01-.14-.02-.28-.02-.42,0-2.5,1.75-5.04,4.07-5.9l1.14-.42c.56-.21,.81-.42,.89-.52-.07-.1-.31-.32-.87-.55l-1.5-.62c-2.38-.99-4.25-3.78-4.25-6.34v-.69c.02-1.38,.58-2.51,1.56-3.11,.97-.59,2.25-.58,3.5,.03l9.06,4.44c1.7,.83,4.59,.86,6.31,.06l7.16-3.34c1.24-.58,2.54-.58,3.56,0,1.02,.59,1.67,1.7,1.78,3.06l.06,.7c.01,.14,.02,.29,.02,.43,0,2.5-1.75,5.03-4.08,5.87l-1.01,.36c-.6,.22-.84,.44-.91,.53,.05,.07,.28,.31,.87,.57l1.43,.62c2.36,1.02,4.21,3.82,4.21,6.38v.7Z"/>
      <path class="cls-3" d="M21.38,20.48c-2.02-.84-3.66-3.3-3.64-5.47v-.64c.03-2.17,1.65-3.16,3.61-2.2l9.06,4.44c1.96,.96,5.19,.99,7.17,.07l7.16-3.34c1.98-.92,3.75,.09,3.93,2.26l.06,.7c.18,2.16-1.36,4.54-3.41,5.29l-1.01,.36c-2.06,.75-2.1,2.06-.09,2.93l1.43,.62c2.01,.87,3.63,3.35,3.61,5.52v.64c-.03,2.17-1.61,3.08-3.53,2.02l-7.67-4.25c-1.91-1.06-5.12-1.22-7.13-.35l-8.65,3.73c-2.01,.87-3.8-.2-3.97-2.36l-.06-.69c-.18-2.16,1.36-4.56,3.41-5.32l1.14-.42c2.05-.76,2.08-2.07,.06-2.91l-1.5-.62Z"/>
      <path class="cls-1" d="M48.6,31.66c0,.81-.26,1.4-.72,1.66-.46,.26-1.1,.19-1.81-.21l-7.67-4.25c-2.11-1.17-5.5-1.34-7.72-.38l-8.65,3.73c-.77,.33-1.5,.33-2.07,0-.56-.34-.91-.98-.98-1.81l-.06-.69c0-.1-.01-.19-.01-.29,0-1.82,1.31-3.74,2.99-4.36l1.14-.42c1.73-.64,1.99-1.56,1.99-2.06h0c0-.48-.25-1.39-1.91-2.08l-1.5-.62c-1.75-.73-3.23-2.94-3.23-4.83v-.68c.01-.82,.28-1.43,.77-1.72,.48-.29,1.15-.26,1.89,.1l9.06,4.44c2.16,1.06,5.57,1.09,7.75,.07l7.16-3.34c.76-.35,1.48-.37,2.03-.06,.55,.32,.89,.94,.96,1.77l.06,.7c0,.1,.01,.2,.01,.29,0,1.82-1.31,3.72-2.99,4.32l-1,.36c-1.75,.63-2.01,1.56-2.01,2.06s.24,1.38,1.88,2.09l1.43,.62c1.74,.75,3.21,2.98,3.21,4.87v.68Z"/>
      <path class="cls-3" d="M47.94,30.99c0,.54-.15,.96-.39,1.1-.23,.13-.68,.05-1.15-.21l-7.67-4.25c-2.27-1.26-5.92-1.44-8.31-.41l-8.65,3.73c-.57,.24-1.09,.26-1.46,.03-.38-.22-.61-.68-.66-1.29l-.06-.69c0-.08,0-.16,0-.24,0-1.54,1.15-3.22,2.56-3.74l1.14-.42c2.1-.78,2.42-2.01,2.42-2.67h0c0-.64-.3-1.85-2.31-2.68l-1.5-.62c-1.5-.62-2.82-2.6-2.82-4.22v-.67c.01-.57,.17-1,.45-1.17,.28-.17,.73-.12,1.25,.13l9.06,4.44c2.32,1.14,5.98,1.17,8.33,.08l7.16-3.34c.55-.26,1.05-.29,1.41-.08,.36,.2,.58,.65,.63,1.25l.06,.7c0,.08,0,.16,0,.24,0,1.53-1.15,3.19-2.56,3.71l-1,.36c-2.12,.77-2.44,2.01-2.44,2.68s.3,1.84,2.28,2.69l1.43,.62c1.5,.65,2.81,2.64,2.81,4.27v.67Z"/>
    </g>
  </g>
  <circle class="cls-2" cx="27.1" cy="22.41" r=".42"/>
  <circle class="cls-2" cx="40.15" cy="22.41" r=".42"/>
</svg>