<?xml version="1.0" encoding="UTF-8"?>
<svg id="FUNDACION" xmlns="http://www.w3.org/2000/svg" viewBox="0 0 82.98 44.69">
  <defs>
    <style>
      .cls-1 {
        fill: #fff;
      }

      .cls-2 {
        fill: #e42921;
      }

      .cls-3 {
        fill: #244c9a;
      }

      .cls-4 {
        fill: #f2e626;
      }

      .cls-5 {
        fill: #1d1d1b;
      }
    </style>
  </defs>
  <path class="cls-2" d="M6.63,44.69c-4.32,.04-6.52-2.66-6.56-6.98L0,30.01c-.04-4.32,2.12-7.06,6.44-7.1l16.21-.14c4.32-.04,6.52,2.66,6.56,6.98l.07,7.69c.04,4.32-2.11,7.06-6.44,7.1l-16.21,.14"/>
  <g>
    <path class="cls-1" d="M8.64,27.32v.89c.01,.25-.18,.45-.44,.45h-1.26s.1,11.6,.1,11.6c0,.22-.19,.45-.44,.45h-.89c-.25,0-.45-.21-.45-.43l-.1-11.59h-1.26c-.25,.01-.45-.18-.45-.43v-.89c-.01-.25,.18-.45,.44-.45l4.3-.04c.25,0,.45,.19,.45,.44Z"/>
    <path class="cls-1" d="M17,31.36c0,.92-.35,1.76-.96,2.35,.62,.58,.99,1.39,1,2.31l.04,4.16c0,.22-.19,.45-.44,.45h-.89c-.25,.01-.45-.21-.45-.43l-.04-4.16c0-.78-.66-1.42-1.44-1.41h-1.42s.05,5.6,.05,5.6c0,.22-.22,.45-.44,.45h-.89c-.25,0-.45-.21-.45-.44l-.11-12.49c0-.5,.38-.9,.89-.9l2.32-.02c1.79-.02,3.22,1.43,3.24,3.18v1.34Zm-1.79-1.33c0-.78-.66-1.42-1.44-1.41h-1.42s.04,4.23,.04,4.23h1.42c.78-.02,1.42-.67,1.41-1.48v-1.34Z"/>
    <path class="cls-1" d="M25.74,27.18l.09,10.14c.02,1.79-1.42,3.25-3.18,3.27-1.79,.02-3.25-1.42-3.27-3.21l-.09-10.14c0-.25,.22-.45,.44-.45h.89c.25-.01,.45,.18,.45,.44l.09,10.14c0,.81,.65,1.45,1.47,1.44,.78,0,1.42-.65,1.41-1.47l-.09-10.14c0-.25,.19-.45,.44-.45h.89c.25-.01,.45,.18,.45,.44Z"/>
  </g>
  <path class="cls-4" d="M52.46,33.64c.05,5.97-4.74,10.85-10.71,10.9-5.97,.05-10.85-4.74-10.9-10.71-.05-5.97,4.74-10.85,10.71-10.9,5.97-.05,10.85,4.75,10.9,10.71Z"/>
  <path class="cls-1" d="M41.58,25.74c-4.41,.04-7.96,3.65-7.92,8.06,.04,4.41,3.65,7.96,8.06,7.92,4.41-.04,7.96-3.65,7.92-8.06-.04-4.41-3.64-7.96-8.06-7.92Z"/>
  <path class="cls-5" d="M41.26,29.09l.03,3.56,2.05-.02c.21,0,.38,.16,.38,.37v.75c0,.21-.16,.38-.37,.38l-2.05,.02,.03,3.58,2.05-.02c.21,0,.38,.16,.38,.37v.75c0,.21-.15,.38-.37,.38l-2.8,.02c-.42,0-.76-.35-.76-.75l-.09-10.16c0-.42,.32-.76,.75-.76l2.8-.02c.21,0,.38,.16,.38,.37v.75c0,.21-.16,.38-.37,.38l-2.05,.02Z"/>
  <rect class="cls-3" x="53.74" y="22.84" width="29.21" height="21.78" rx="6.5" ry="6.5" transform="translate(-.29 .59) rotate(-.5)"/>
  <g>
    <path class="cls-1" d="M63.62,30.08l.06,7.37c.01,1.45-.95,2.72-2.29,3.12v1.45c.01,.25-.18,.45-.43,.45h-.89c-.25,.01-.45-.18-.45-.43v-1.45c-1.36-.38-2.35-1.63-2.36-3.08l-.06-7.37c-.02-1.79,1.4-3.23,3.18-3.24,1.76-.02,3.22,1.4,3.24,3.18Zm-1.79,.02c0-.78-.65-1.42-1.44-1.41-.78,0-1.42,.65-1.41,1.44l.06,7.37c0,.78,.65,1.42,1.44,1.41,.78,0,1.42-.66,1.41-1.44l-.06-7.37Z"/>
    <path class="cls-1" d="M72.39,27.24l.09,10.14c.02,1.79-1.43,3.25-3.18,3.27-1.79,.02-3.25-1.42-3.27-3.21l-.09-10.14c0-.25,.22-.45,.44-.45h.89c.25,0,.45,.18,.45,.44l.09,10.14c0,.81,.66,1.45,1.47,1.44,.78,0,1.42-.65,1.41-1.47l-.09-10.14c0-.25,.19-.45,.44-.45h.89c.25-.01,.45,.18,.45,.44Z"/>
    <path class="cls-1" d="M76.51,28.54l.04,4.22,2.43-.02c.25,0,.45,.19,.45,.44v.89c.01,.25-.18,.45-.44,.45l-2.43,.02,.04,4.25,2.43-.02c.25,0,.45,.19,.45,.44v.89c.01,.25-.18,.45-.44,.45l-3.32,.03c-.5,0-.9-.41-.9-.89l-.1-12.04c0-.5,.38-.9,.89-.9l3.32-.03c.25,0,.45,.19,.45,.44v.89c.01,.25-.18,.45-.44,.45l-2.43,.02Z"/>
  </g>
  <rect class="cls-4" x="15.65" width="51.68" height="20.67" rx="3.48" ry="3.48"/>
  <g>
    <g>
      <path class="cls-5" d="M26.78,3.84v.9c0,.25-.2,.45-.45,.45h-1.26v11.64c0,.22-.2,.45-.45,.45h-.9c-.25,0-.45-.22-.45-.45V5.19h-1.26c-.25,0-.45-.2-.45-.45v-.9c0-.25,.2-.45,.45-.45h4.32c.25,0,.45,.2,.45,.45Z"/>
      <path class="cls-5" d="M35.13,7.96c0,.93-.36,1.77-.98,2.36,.62,.59,.98,1.4,.98,2.33v4.18c0,.22-.2,.45-.45,.45h-.9c-.25,0-.45-.22-.45-.45v-4.18c0-.79-.65-1.43-1.43-1.43h-1.43v5.61c0,.22-.22,.45-.45,.45h-.9c-.25,0-.45-.22-.45-.45V4.29c0-.5,.39-.9,.9-.9h2.33c1.79,0,3.23,1.46,3.23,3.23v1.35Zm-1.79-1.35c0-.79-.65-1.43-1.43-1.43h-1.43v4.23h1.43c.79,0,1.43-.64,1.43-1.46v-1.35Z"/>
      <path class="cls-5" d="M39.25,16.83c0,.25-.2,.45-.45,.45h-.9c-.25,0-.45-.2-.45-.45V3.84c0-.25,.2-.45,.45-.45h.9c.22,0,.45,.2,.45,.45v12.98Z"/>
    </g>
    <g>
      <path class="cls-1" d="M48.46,6.62v7.4c0,1.46-.98,2.72-2.33,3.11v1.46c0,.25-.2,.45-.45,.45h-.9c-.25,0-.45-.2-.45-.45v-1.46c-1.35-.39-2.33-1.65-2.33-3.11V6.62c0-1.8,1.79-4.3,3.23-3.23,2.27,1.71,4.11,4.43,3.22,3.23Zm-1.79,0c0-.79-.64-1.43-1.43-1.43s-1.43,.64-1.43,1.43v7.4c0,.79,.65,1.43,1.43,1.43s1.43-.64,1.43-1.43V6.62Z"/>
      <path class="cls-1" d="M57.29,3.84V14.02c0,1.79-1.46,3.25-3.22,3.25s-3.25-1.46-3.25-3.25V3.84c0-.25,.22-.45,.45-.45h.9c.25,0,.45,.2,.45,.45V14.02c0,.81,.64,1.46,1.46,1.46s1.43-.64,1.43-1.46V3.84c0-.25,.2-.45,.45-.45h.9c.25,0,.45,.2,.45,.45Z"/>
      <path class="cls-1" d="M61.41,16.83c0,.25-.2,.45-.45,.45h-.9c-.25,0-.45-.2-.45-.45V3.84c0-.25,.2-.45,.45-.45h.9c.22,0,.45,.2,.45,.45v12.98Z"/>
    </g>
  </g>
</svg>