<?xml version="1.0" encoding="UTF-8"?>
<svg id="FUNDACION" xmlns="http://www.w3.org/2000/svg" viewBox="0 0 109.93 58.12">
  <defs>
    <style>
      .cls-1 {
        fill: #850337;
      }

      .cls-2 {
        fill: #fff;
      }

      .cls-3, .cls-4 {
        fill: #ec6780;
      }

      .cls-5 {
        letter-spacing: -.04em;
      }

      .cls-6 {
        letter-spacing: -.02em;
      }

      .cls-4 {
        font-family: Cocogoose, Cocogoose;
        font-size: 14.65px;
      }

      .cls-7 {
        stroke-width: 1.61px;
      }

      .cls-7, .cls-8, .cls-9, .cls-10 {
        fill: none;
        stroke-miterlimit: 10;
      }

      .cls-7, .cls-9 {
        stroke: #850337;
      }

      .cls-8 {
        stroke-width: 2.05px;
      }

      .cls-8, .cls-10 {
        stroke: #ec6780;
      }

      .cls-11 {
        letter-spacing: -.03em;
      }

      .cls-12 {
        letter-spacing: -.03em;
      }

      .cls-9 {
        stroke-width: 1.32px;
      }

      .cls-13 {
        letter-spacing: 0em;
      }

      .cls-10 {
        stroke-width: .79px;
      }

      .cls-14 {
        letter-spacing: -.01em;
      }
    </style>
  </defs>
  <path class="cls-2" d="M49.76,20.55s0,.02,0,.04c0,0,0,0,0,0,0,0,0-.02,0-.03Z"/>
  <g>
    <path class="cls-1" d="M83.79,37.88c2.67-.88,5.11-2.3,7.13-4.1,.97-.9,1.94-1.98,2.19-3.04,.16-.58-.22-.95-.48-1.39-3.8-5.22-12.32-2.94-14.1,3.08,.68-7.34,11.01-10.14,15.26-3.89,0,0,.3,.49,.3,.49,.41,.56,.51,1.4,.33,2.01-1.52,4.02-6.74,6.3-10.64,6.84h0Z"/>
    <path class="cls-3" d="M83.69,37.9c2.19-.72,10.76-5.39,8.71-8.16-3.51-5.14-11.47-3.42-13.73,2.13,1.7-6.41,10.82-8.47,14.57-2.67,2.64,3.91-6.57,8.22-9.55,8.7h0Z"/>
    <text class="cls-4" transform="translate(0 36.94)"><tspan x="0" y="0">p</tspan><tspan class="cls-14" x="11.18" y="0">r</tspan><tspan class="cls-11" x="19.4" y="0">o</tspan><tspan class="cls-12" x="29.75" y="0">y</tspan><tspan x="39.71" y="0">e</tspan><tspan class="cls-5" x="50.09" y="0">c</tspan><tspan class="cls-6" x="58.56" y="0">t</tspan><tspan class="cls-13" x="64.57" y="0">o</tspan></text>
    <text class="cls-4" transform="translate(0 51.97)"><tspan x="0" y="0">chanchi</tspan><tspan class="cls-6" x="65.15" y="0">t</tspan><tspan x="71.17" y="0">o</tspan></text>
    <path class="cls-8" d="M98.42,10.66c8.13,6.47,12.17,18.12,8.5,28.79h0c-4.62,13.44-18.76,20.48-31.79,15.99"/>
    <path class="cls-10" d="M64.41,15.13c5.39-6.47,13.72-10.02,22.09-9.27"/>
    <path class="cls-9" d="M98.73,10.23c8.91,6.54,12.92,18.43,9.1,29.53h0c-4.69,13.64-19.43,20.93-32.92,16.29h0"/>
    <path class="cls-7" d="M63.83,14.39c5.46-6.56,13.86-10.11,22.39-9.28"/>
    <path class="cls-3" d="M95.7,13.7c3.71-2.45,1.43-6.97,.71-10.41-.08-.34-.22-.52-.43-.67-.45-.27-.84-.24-1.71,.46-.66,.51-1.56,1.32-2.53,1.54-1.18,.33-2.36-.29-3.39-.1-.62,.17-1.37,.63-1.6,1.22-.14,.47-.13,1.07-.09,1.64-1.02-1.62-.5-3.23,1.15-4.15,.83-.48,2.06-.28,2.81-.36,1.02-.12,1.42-.77,2.22-1.48,.97-1.09,3.07-1.77,4.46-.73,1.35,.88,1.45,2.39,1.72,3.8,.69,3.29,1.02,8.43-3.3,9.23h0Z"/>
    <path class="cls-1" d="M95.72,13.72c3.6-1.58,2.59-6.15,1.77-9.17-.17-.63-.38-1.24-.57-1.86-.14-.78-.96-1.37-1.74-1.24-.97,.19-1.75,1.22-2.69,1.8-1.02,.84-2.57,.54-3.7,.67-2.25,.46-2.58,1.37-2.12,3.54-.21-.56-.52-1.08-.6-1.74-.2-1.43,1.28-2.37,2.49-2.74,1.18-.35,2.25,0,3.19-.79,.66-.49,1.32-1.29,2.11-1.74,.97-.64,2.4-.59,3.32,.14,.6,.45,1.01,1.14,1.14,1.88,0,.02-.05-.2-.02-.09,.19,.61,.38,1.22,.51,1.84,.8,3.23,1.15,8.73-3.11,9.51h0Z"/>
    <path class="cls-3" d="M64.62,25.68c3.15-3.1,.07-7.07-1.24-10.31-.14-.32-.29-.45-.51-.55-.93-.48-1.89,1.37-2.77,2.06-.9,.97-2.67,.97-3.75,.97-.84,.07-1.7,.79-1.91,1.57-.06,.48,.06,1.07,.18,1.63-.37-.46-.7-.93-.87-1.59-.2-1.45,.91-2.85,2.24-3.23,1.12-.31,1.9-.16,2.62-.95,.8-.9,1.25-2.05,2.62-2.73,1.65-.83,3.86,.2,4.41,1.87,.2,.49,.43,1.05,.62,1.58,1.25,3.11,2.48,8.15-1.64,9.67h0Z"/>
    <path class="cls-1" d="M64.67,25.68c3.26-2.19,1.46-6.51,.11-9.34-.28-.59-.59-1.16-.89-1.73-.28-.74-1.19-1.18-1.93-.91-.92,.36-1.5,1.51-2.32,2.24-.85,1-2.44,.99-3.52,1.32-2.13,.86-2.29,1.81-1.46,3.86-.31-.51-.71-.97-.89-1.61-.45-1.37,.84-2.56,1.97-3.14,1.1-.55,2.21-.41,3-1.34,1.26-1.62,2.65-3.69,5.06-2.54,.67,.34,1.2,.94,1.45,1.65,.01,.02-.09-.19-.04-.09,.3,.56,.59,1.13,.83,1.72,1.36,3.04,2.68,8.39-1.37,9.91h0Z"/>
    <ellipse class="cls-1" cx="84.82" cy="31.99" rx=".42" ry="1.73" transform="translate(-4.52 47.38) rotate(-30.44)"/>
    <ellipse class="cls-1" cx="86.55" cy="30.84" rx=".42" ry="1.73" transform="translate(-3.69 48.1) rotate(-30.44)"/>
  </g>
</svg>