<?xml version="1.0" encoding="UTF-8"?>
<svg id="FUNDACION" xmlns="http://www.w3.org/2000/svg" viewBox="0 0 133.67 34.1">
  <defs>
    <style>
      .cls-1 {
        opacity: .18;
      }

      .cls-2 {
        fill: #fff;
      }

      .cls-3 {
        opacity: .05;
      }

      .cls-4 {
        fill: #e4172b;
      }
    </style>
  </defs>
  <g>
    <path class="cls-2" d="M0,6.72H7.83c7.25,0,11.45,4.15,11.45,9.98v.06c0,5.82-4.26,10.15-11.56,10.15H0V6.72Zm7.91,15.22c3.36,0,5.59-1.85,5.59-5.1v-.06c0-3.23-2.23-5.1-5.59-5.1h-2.29v10.26h2.29Z"/>
    <path class="cls-2" d="M46.26,6.72h5.25l8.35,10.67V6.72h5.56V26.9h-4.93l-8.67-11.07v11.07h-5.56V6.72Z"/>
    <path class="cls-2" d="M76.02,6.58h5.42l8.64,20.33h-6.03l-1.48-3.6h-7.83l-1.45,3.6h-5.91l8.64-20.33Zm4.93,12.37l-2.26-5.74-2.29,5.74h4.55Z"/>
    <path class="cls-4" d="M92.05,6.72h5.94l4.84,7.81,4.84-7.81h5.94V26.9h-5.59V15.31l-5.19,7.9h-.12l-5.16-7.84v11.53h-5.51V6.72Z"/>
    <path class="cls-4" d="M117.2,6.72h16.32v4.76h-10.75v3.06h9.74v4.41h-9.74v3.2h10.9v4.76h-16.46V6.72Z"/>
  </g>
  <g>
    <g>
      <path class="cls-4" d="M22.05,20.12l-7.04,.7c1.44,6.36,6.46,11.37,12.84,12.84l.8-6.98c-3.13-.99-5.6-3.45-6.6-6.56Z"/>
      <path class="cls-4" d="M41.39,13.92l7.03-.78c-1.48-6.27-6.44-11.21-12.74-12.69l-.56,7.07c2.96,1.04,5.29,3.42,6.27,6.4Z"/>
      <path class="cls-4" d="M28.34,7.53l-.55-7.07c-6.27,1.47-11.22,6.37-12.72,12.61l7.05,.72c1-2.91,3.3-5.23,6.22-6.25Z"/>
      <path class="cls-4" d="M34.79,26.69l.81,6.98c6.38-1.47,11.39-6.47,12.84-12.83l-7.01-.8c-.98,3.16-3.48,5.66-6.65,6.65Z"/>
      <path class="cls-2" d="M31.73,27.15c-1.07,0-2.11-.17-3.08-.47l-.8,6.98c1.25,.29,2.54,.44,3.88,.44s2.63-.15,3.87-.44l-.81-6.98c-.97,.3-1.99,.47-3.06,.47Z"/>
      <path class="cls-2" d="M31.73,6.95c1.19,0,2.33,.2,3.39,.58l.56-7.07c-1.27-.3-2.59-.46-3.95-.46s-2.68,.16-3.95,.46l.55,7.07c1.06-.37,2.21-.58,3.4-.58Z"/>
      <path class="cls-2" d="M48.42,13.14l-7.03,.78c.32,.99,.5,2.04,.5,3.13s-.16,2.04-.45,2.99l7.01,.8c.28-1.22,.43-2.49,.43-3.79s-.16-2.65-.45-3.91Z"/>
      <path class="cls-2" d="M21.58,17.05c0-1.14,.19-2.24,.54-3.27l-7.05-.72c-.31,1.28-.47,2.61-.47,3.99,0,1.3,.15,2.56,.42,3.77l7.04-.7c-.31-.97-.48-2-.48-3.07Z"/>
    </g>
    <path class="cls-1" d="M41.44,20.04l7.01,.8s-.04,.23-.1,.45l-6.95-1.1,.05-.15Z"/>
    <path class="cls-1" d="M28.65,26.67l-.8,6.97s-.23-.04-.45-.1l1.11-6.92,.15,.05Z"/>
    <path class="cls-1" d="M22.13,13.79l-7.06-.7s.04-.23,.1-.46l7.01,1.01-.04,.15Z"/>
    <path class="cls-1" d="M35.12,7.52l.57-7.07s.23,.06,.46,.12l-.89,7-.14-.05Z"/>
    <g class="cls-3">
      <path d="M31.73,3.45c-7.48,0-13.54,6.03-13.54,13.47s6.06,13.47,13.54,13.47,13.54-6.03,13.54-13.47S39.21,3.45,31.73,3.45Zm10.16,13.47c0,1.04-.16,2.04-.45,2.99-.98,3.16-3.48,5.66-6.65,6.65-.97,.3-1.99,.47-3.06,.47s-2.11-.17-3.08-.47c0,0,0,0,0,0h0s-.15-.06-.15-.06h0c-3.06-1.01-5.46-3.44-6.44-6.5-.31-.97-.48-2-.48-3.07,0-1.14,.19-2.24,.54-3.26h0s.04-.13,.04-.13c1.02-2.85,3.3-5.12,6.17-6.13,1.06-.37,2.21-.58,3.4-.58s2.33,.2,3.39,.58c2.96,1.04,5.29,3.42,6.27,6.4,.32,.99,.5,2.04,.5,3.13Z"/>
    </g>
  </g>
</svg>