<?xml version="1.0" encoding="UTF-8"?>
<svg id="FUNDACION" xmlns="http://www.w3.org/2000/svg" viewBox="0 0 135.86 27.12">
  <defs>
    <style>
      .cls-1 {
        fill: #fff;
      }

      .cls-2 {
        fill: #cececd;
      }

      .cls-3 {
        fill: #ec6d2b;
      }

      .cls-4 {
        fill: #dd1c67;
      }

      .cls-5 {
        fill: #1a1617;
      }

      .cls-6 {
        fill: #f1a2bc;
      }

      .cls-7 {
        fill: #69bda3;
      }
    </style>
  </defs>
  <polygon class="cls-2" points="83.56 16.07 83.35 19.08 87.21 18.73 91.18 18.5 94.29 20.01 97.73 18.62 97.73 14.91 91.82 14.68 86.14 13.87 83.56 16.07"/>
  <polygon class="cls-6" points="83.56 13.49 83.35 16.5 87.21 16.15 91.18 15.92 94.29 17.43 97.73 16.04 97.73 12.33 91.82 12.1 86.14 11.29 83.56 13.49"/>
  <polygon class="cls-2" points="99.52 25.19 100.46 27.12 104.89 26.81 106.9 19.16 103.5 5.21 96.02 5.72 97.35 26.33 99.52 25.19"/>
  <polygon class="cls-7" points="104.22 23.81 99.78 24.12 98.84 22.19 96.67 23.33 95.34 2.72 103.84 2.2 106.22 16.16 104.22 23.81"/>
  <path class="cls-4" d="M97.97,20.84l-.98-15.16,3.31-.23c.84-.06,1.47,.04,1.88,.3s.71,.67,.87,1.23c.16,.56,.27,1.28,.32,2.14,.06,.94,0,1.69-.15,2.25-.16,.56-.52,.95-1.08,1.15,.29,.03,.54,.13,.74,.3s.37,.46,.5,.86c.13,.39,.24,.93,.33,1.6s.17,1.52,.23,2.54c0,.1,.02,.24,.03,.42,.01,.18,.03,.38,.05,.6,.02,.22,.04,.43,.06,.64,.02,.21,.05,.4,.08,.56,.03,.16,.06,.28,.09,.35l-1.85,.13c-.03-.05-.06-.16-.09-.34-.03-.18-.06-.41-.09-.7s-.06-.64-.09-1.04c-.03-.4-.06-.86-.1-1.36-.03-.5-.07-1.05-.11-1.65-.04-.57-.09-1.01-.16-1.31-.07-.3-.2-.5-.4-.6-.2-.1-.5-.15-.92-.15l-1.11,.02,.47,7.32-1.86,.13Zm1.3-8.76l1.18-.08c.34-.02,.6-.11,.77-.25,.17-.14,.28-.41,.32-.8,.04-.39,.04-.98-.01-1.75v-.1c-.05-.64-.11-1.13-.2-1.45s-.22-.54-.41-.64c-.19-.1-.46-.14-.83-.12l-1.17,.08,.33,5.12Z"/>
  <g>
    <polygon class="cls-2" points="108.47 7.02 106.87 13.38 108.86 16.71 108.49 21.8 110.19 24.01 120.85 22.56 120.11 19.13 121.35 14.81 120.35 7 117.4 7.36 114.82 5.32 108.47 7.02"/>
    <g>
      <polygon class="cls-1" points="119.71 19.9 109.06 21.35 107.36 19.14 107.72 14.04 105.74 10.72 107.34 4.35 113.69 2.66 116.26 4.7 119.21 4.34 120.22 12.15 118.97 16.47 119.71 19.9"/>
      <path class="cls-5" d="M113.88,10.93c0,.28,0,.63,.03,1.04l.02,.55,.31,6.37,2.55-.34,1.81-.25c.3-.04,.45,.05,.46,.27,0,.18-.06,.29-.21,.34-.03,.01-.24,.04-.63,.09l-8.56,1.05v-.48s-.13-3.09-.13-3.09l-.1-3.31-.29-5.73,7.99-.98c.36-.04,.56-.06,.61-.05,.12,.02,.18,.12,.19,.29,0,.21-.1,.33-.32,.36h-.05s-3.78,.41-3.78,.41l.08,2.87,.82-.09,2.64-.38,.58-.08c.21-.03,.35-.02,.42,.01,.07,.04,.11,.12,.11,.25,0,.24-.15,.39-.48,.43l-.6,.05-3.47,.39Z"/>
    </g>
  </g>
  <g>
    <polygon class="cls-2" points="27.91 7.54 19.83 3.66 13.8 12.05 15.69 23.09 21.59 24.75 27.77 21.88 27.91 7.54"/>
    <g>
      <polygon class="cls-1" points="20.49 22.07 14.59 20.41 12.71 9.37 18.74 .99 26.81 4.86 26.67 19.2 20.49 22.07"/>
      <path class="cls-5" d="M19.65,6.28l.19,6.2,.24,5.26c.25,0,.45,0,.62-.02,.47-.06,.94-.22,1.42-.49,.48-.27,.91-.6,1.27-.99,.23-.26,.47-.59,.72-1,.25-.41,.44-.81,.58-1.19,.08-.22,.18-.34,.28-.35,.16-.02,.24,.05,.24,.22,0,.17-.1,.49-.32,.93-.22,.45-.47,.85-.73,1.22-.58,.79-1.28,1.38-2.1,1.77-.49,.23-.96,.38-1.42,.43-.67,.08-1.34,0-2.03-.27-1.1-.42-1.95-1.19-2.56-2.32-.5-.94-.78-1.97-.82-3.09-.04-1.14,.16-2.25,.61-3.33,.48-1.14,1.18-2.06,2.11-2.75,.68-.49,1.41-.79,2.22-.89,1.37-.17,2.58,.25,3.62,1.26,.5,.48,.75,.84,.76,1.08,0,.06-.02,.13-.06,.18-.05,.06-.1,.09-.15,.1-.1,.01-.21-.09-.36-.3-.43-.64-1-1.12-1.68-1.45-.69-.32-1.4-.43-2.15-.34-.18,.02-.34,.06-.5,.12Z"/>
    </g>
  </g>
  <g>
    <polygon class="cls-2" points="43.15 8.92 35.69 3.95 28.55 11.42 28.88 22.61 34.48 25.08 41 23.1 43.15 8.92"/>
    <g>
      <polygon class="cls-3" points="33.77 22.27 28.16 19.81 27.84 8.61 34.98 1.15 42.43 6.11 40.29 20.3 33.77 22.27"/>
      <path class="cls-7" d="M35.14,6.51l-.68,6.17-.5,5.24c.25,.04,.45,.07,.61,.07,.47,0,.96-.09,1.48-.28,.52-.2,.98-.46,1.4-.81,.27-.22,.55-.52,.85-.89,.3-.37,.55-.74,.74-1.1,.11-.21,.22-.31,.33-.31,.16,0,.23,.08,.21,.25-.02,.17-.17,.47-.45,.88-.28,.41-.58,.78-.9,1.11-.69,.7-1.46,1.19-2.32,1.45-.52,.16-1.01,.24-1.47,.23-.67-.01-1.33-.19-1.97-.55-1.03-.57-1.76-1.45-2.21-2.66-.37-1-.49-2.06-.38-3.17,.12-1.14,.47-2.21,1.07-3.21,.63-1.07,1.46-1.87,2.47-2.43,.74-.4,1.51-.59,2.32-.57,1.38,.02,2.52,.61,3.41,1.75,.42,.55,.62,.94,.6,1.18,0,.06-.04,.12-.09,.17-.05,.05-.11,.08-.17,.08-.1,0-.2-.12-.31-.34-.34-.7-.83-1.25-1.46-1.67-.63-.41-1.33-.63-2.08-.64-.18,0-.35,.01-.51,.05Z"/>
    </g>
  </g>
  <g>
    <polygon class="cls-2" points="50.79 6.61 49.58 8.24 45.38 7.12 43.44 15.93 44.45 17.18 42.68 24.74 44.45 26.2 46.88 24.49 49.58 25.27 53.31 22.65 51.36 17.85 55.52 7.3 50.79 6.61"/>
    <g>
      <polygon class="cls-4" points="48.13 22.76 45.44 21.98 43.01 23.69 41.23 22.23 43.01 14.67 42 13.43 43.94 4.61 48.13 5.73 49.35 4.11 54.08 4.79 49.91 15.35 51.86 20.15 48.13 22.76"/>
      <path class="cls-6" d="M45.53,9.22l-.02,.02s-.02-.09-.03-.27c-.01-.18-.02-.42-.02-.73,0-.06,.02-.14,.07-.24,.05-.1,.12-.21,.23-.32,.11-.11,.25-.23,.42-.34,.17-.11,.39-.22,.66-.31,.26-.09,.58-.17,.93-.22,.36-.06,.77-.08,1.24-.08,.41,0,.72,.02,.95,.07,.23,.05,.4,.11,.51,.19,.11,.08,.19,.17,.21,.28,.03,.11,.04,.21,.04,.32s-.01,.22-.03,.33c-.02,.11-.07,.2-.16,.29-.09,.08-.22,.15-.39,.2-.17,.05-.41,.08-.71,.08-.14,0-.27,0-.41-.02-.11,.54-.21,1.03-.3,1.48-.08,.45-.16,.86-.23,1.24-.07,.38-.14,.73-.2,1.06-.06,.33-.12,.66-.19,1-.06,.34-.13,.69-.2,1.06-.07,.37-.15,.77-.23,1.19-.09,.43-.19,.9-.29,1.43-.11,.53-.23,1.13-.37,1.81,.02,0,.08,0,.17,.02,.09,0,.19,.03,.3,.05,.11,.02,.24,.06,.37,.1,.13,.04,.25,.09,.35,.15,.11,.06,.19,.13,.26,.21,.07,.08,.1,.17,.1,.28,0,.21-.15,.42-.44,.62h-1.93c-.3,0-.6,0-.9,0-.3,0-.59,0-.87,0-.28,0-.53,0-.74,0-.21,0-.38,0-.51-.01-.13,0-.19-.01-.19-.02,0-.02,.02-.04,.06-.07,.04-.03,.08-.08,.13-.14,.05-.06,.1-.13,.14-.21,.05-.09,.07-.19,.09-.32,0-.09,.08-.17,.21-.24,.13-.08,.29-.15,.47-.21,.18-.06,.38-.11,.59-.15,.21-.04,.39-.07,.55-.08,.14-.67,.28-1.33,.41-1.99,.14-.66,.26-1.33,.38-2.01,.12-.67,.24-1.3,.37-1.89,.13-.58,.25-1.13,.37-1.65,.12-.51,.22-.99,.31-1.42,.09-.43,.18-.81,.28-1.12-.15,.02-.29,.04-.4,.06-.11,.02-.22,.04-.31,.07-.09,.03-.18,.05-.26,.08-.08,.03-.16,.06-.25,.1-.09,.04-.18,.08-.28,.13-.1,.05-.22,.1-.35,.16Z"/>
    </g>
  </g>
  <g>
    <polygon class="cls-2" points="135.86 6.57 127.79 2.68 121.75 11.06 123.62 22.1 129.51 23.77 135.69 20.91 135.86 6.57"/>
    <g>
      <polygon class="cls-4" points="128.42 21.09 122.52 19.42 120.66 8.38 126.7 0 134.77 3.89 134.6 18.23 128.42 21.09"/>
      <path class="cls-6" d="M127.6,5.29l.17,6.21,.23,5.26c.25,.01,.45,0,.62-.01,.47-.06,.94-.22,1.42-.48,.48-.26,.91-.6,1.27-.99,.23-.26,.48-.59,.72-1s.44-.81,.59-1.19c.08-.22,.18-.34,.28-.35,.16-.02,.24,.05,.24,.22,0,.17-.1,.49-.32,.93s-.47,.85-.74,1.22c-.59,.79-1.29,1.38-2.1,1.76-.49,.23-.96,.37-1.42,.43-.67,.08-1.34,0-2.03-.28-1.1-.42-1.95-1.2-2.55-2.33-.5-.94-.77-1.97-.81-3.09-.04-1.14,.17-2.25,.62-3.33,.48-1.14,1.19-2.06,2.12-2.75,.68-.49,1.42-.79,2.22-.89,1.37-.17,2.58,.25,3.62,1.26,.5,.48,.75,.84,.76,1.08,0,.06-.02,.13-.07,.18-.05,.06-.1,.09-.15,.1-.1,.01-.21-.09-.35-.3-.43-.64-.99-1.13-1.68-1.45s-1.4-.44-2.15-.34c-.18,.02-.34,.06-.5,.12Z"/>
    </g>
  </g>
  <g>
    <polygon class="cls-2" points="1.6 25.1 8.43 26.42 14.34 26.42 16.62 19.73 14.34 16.66 14.34 10.63 9.99 7.62 4.45 9.24 2.45 13.68 3.57 17.77 1.6 19.73 1.6 25.1"/>
    <g>
      <polygon class="cls-7" points="6.83 23.64 0 22.32 0 16.95 1.97 14.99 .85 10.9 2.84 6.46 8.39 4.84 12.74 7.85 12.74 13.88 15.01 16.95 12.74 23.64 6.83 23.64"/>
      <path class="cls-6" d="M12.72,21.01H7.12v-2.27h1.33l-.29-1.18h-2.87l-.29,1.18h1.09v2.27H1.64v-2.27h.95l1.89-7.6h-.57v-2.23h5.37l2.47,9.83h.98v2.27Zm-6.92-5.52h1.83l-.92-3.74-.91,3.74Z"/>
      <path class="cls-4" d="M12.06,20.24H6.46v-2.27h1.33l-.29-1.18h-2.87l-.29,1.18h1.09v2.27H.98v-2.27h.95l1.89-7.6h-.57v-2.23h5.37l2.47,9.83h.98v2.27Zm-6.92-5.52h1.83l-.92-3.74-.91,3.74Z"/>
    </g>
  </g>
  <g>
    <polygon class="cls-2" points="64.43 25.26 69.07 16.03 67.57 12.57 67.57 7.66 63.37 5.15 56.27 9.44 53.64 22.43 55.76 22.58 55.76 25.26 64.43 25.26"/>
    <g>
      <polygon class="cls-7" points="62.94 22.67 54.27 22.67 54.27 20 52.15 19.85 54.78 6.86 64.05 1.58 65.77 3.3 63.44 5.76 66.88 8.22 67.12 12.4 62.94 22.67"/>
      <path class="cls-5" d="M59.55,21.13c-.62,0-1.17-.15-1.67-.46-.49-.31-.92-.74-1.26-1.3-.35-.56-.61-1.22-.8-1.99-.19-.77-.28-1.61-.28-2.53,0-.49,.03-1,.09-1.52,.06-.52,.15-1.04,.26-1.56,.12-.52,.26-1.03,.44-1.52,.18-.5,.38-.97,.61-1.41s.5-.85,.79-1.23,.61-.7,.96-.97,.73-.48,1.13-.63c.4-.15,.84-.23,1.3-.23,.62,0,1.18,.14,1.67,.42,.49,.28,.9,.67,1.24,1.17,.34,.5,.6,1.1,.78,1.79s.27,1.46,.27,2.29c0,.68-.05,1.4-.16,2.14-.11,.74-.27,1.47-.48,2.19-.21,.72-.47,1.4-.79,2.05-.31,.65-.68,1.22-1.09,1.71-.41,.49-.87,.88-1.37,1.17-.5,.29-1.05,.43-1.64,.43Zm.15-1.78c.33,0,.64-.08,.92-.24,.29-.16,.55-.38,.79-.66,.24-.28,.46-.61,.65-.98,.2-.37,.37-.78,.52-1.2,.15-.43,.29-.87,.4-1.33,.11-.46,.21-.91,.28-1.36,.07-.45,.13-.88,.16-1.3,.04-.42,.05-.79,.05-1.13,0-.5-.04-.96-.13-1.4s-.22-.82-.39-1.14-.4-.58-.66-.76c-.27-.19-.58-.28-.93-.28-.38,0-.75,.11-1.1,.34-.36,.23-.69,.54-1.01,.93-.31,.39-.6,.84-.86,1.36-.26,.51-.48,1.05-.67,1.62-.19,.57-.33,1.15-.43,1.73-.1,.59-.16,1.15-.16,1.69,0,.58,.06,1.13,.18,1.63,.12,.5,.29,.94,.51,1.3,.22,.37,.49,.65,.81,.86s.68,.31,1.08,.31Z"/>
      <path class="cls-4" d="M58.37,20.84c-.62,0-1.17-.15-1.67-.46-.49-.31-.92-.74-1.26-1.3-.35-.56-.61-1.22-.8-1.99-.19-.77-.28-1.61-.28-2.53,0-.49,.03-1,.09-1.52,.06-.52,.15-1.04,.26-1.56,.12-.52,.26-1.03,.44-1.52,.18-.5,.38-.97,.61-1.41,.23-.44,.5-.85,.79-1.23,.29-.37,.61-.7,.96-.97,.35-.27,.73-.48,1.13-.63,.4-.15,.84-.23,1.3-.23,.62,0,1.18,.14,1.67,.42,.49,.28,.9,.67,1.24,1.17,.34,.5,.6,1.1,.78,1.79,.18,.69,.27,1.46,.27,2.29,0,.68-.05,1.4-.16,2.14-.11,.74-.27,1.47-.48,2.19-.21,.72-.47,1.4-.79,2.05-.31,.65-.68,1.22-1.09,1.71-.41,.49-.87,.88-1.37,1.17-.5,.29-1.05,.43-1.64,.43Zm.15-1.78c.33,0,.64-.08,.92-.24,.29-.16,.55-.38,.79-.66,.24-.28,.46-.61,.65-.98,.2-.37,.37-.78,.52-1.2,.15-.43,.29-.87,.4-1.33,.11-.46,.21-.91,.28-1.36,.07-.45,.13-.88,.16-1.3,.04-.42,.05-.79,.05-1.13,0-.5-.04-.96-.13-1.4s-.22-.82-.39-1.14-.4-.58-.66-.76c-.27-.19-.58-.28-.93-.28-.38,0-.75,.11-1.1,.34s-.69,.54-1.01,.93c-.31,.39-.6,.84-.86,1.36-.26,.51-.48,1.05-.67,1.62-.19,.57-.33,1.15-.43,1.73s-.16,1.15-.16,1.69c0,.58,.06,1.13,.18,1.63,.12,.5,.29,.94,.51,1.3,.22,.37,.49,.65,.81,.86,.32,.21,.68,.31,1.08,.31Z"/>
    </g>
  </g>
  <g>
    <polygon class="cls-2" points="76.83 22.42 77.48 24.31 83.71 23.4 86.3 10.83 80.49 3.14 78.79 8.49 75.35 5.57 70.79 5.36 69.3 15.6 73.18 24.31 76.83 22.42"/>
    <g>
      <polygon class="cls-3" points="82.22 20.82 75.99 21.73 75.34 19.84 71.69 21.73 67.81 13.02 69.31 2.78 73.86 2.98 77.3 5.91 79 .56 84.81 8.25 82.22 20.82"/>
      <path class="cls-7" d="M80.19,11.79v-3.83s-.02-1.07-.02-1.07v-.67c0-.32,.08-.48,.26-.48,.1,0,.18,.04,.22,.11,.04,.07,.06,.21,.06,.42v.12c0,.12,0,.33,0,.61l-.03,2.98-.02,2.74,.02,2.88,.02,2.89c-.98-.76-2.42-1.81-4.31-3.16-1.89-1.34-3.43-2.4-4.6-3.17v.43s.08,4.57,.08,4.57v.61c0,.25-.09,.38-.28,.38s-.29-.16-.29-.47v-.62s.01-1,.01-1l.03-4.54-.06-6.12c1.93,1.48,4.91,3.61,8.92,6.38Z"/>
    </g>
  </g>
  <path class="cls-5" d="M88.03,13.45l.06,1.57,6.06-.24-.07-1.68s-6.1,.41-6.05,.36Z"/>
  <path d="M61.59,4.97l.63,.74,2.87-2.42-.67-.8s-2.83,2.52-2.82,2.48Z"/>
  <path class="cls-4" d="M61.22,4.6l.63,.74,2.87-2.42-.67-.8s-2.83,2.52-2.82,2.48Z"/>
</svg>