<?xml version="1.0" encoding="UTF-8"?>
<svg id="FUNDACION" xmlns="http://www.w3.org/2000/svg" viewBox="0 0 53.9 53.73">
  <defs>
    <style>
      .cls-1 {
        fill: #fff;
      }

      .cls-2 {
        fill: #f3961e;
      }
    </style>
  </defs>
  <rect x="5.63" y="33.35" width="47.82" height="19.19" transform="translate(-2.12 1.54) rotate(-2.88)"/>
  <polygon class="cls-2" points="9.49 37.25 13.16 37.07 13.41 42.02 18.12 41.78 17.87 36.83 21.53 36.65 22.2 49.88 18.53 50.06 18.28 45.04 13.57 45.27 13.83 50.3 10.16 50.49 9.49 37.25"/>
  <path class="cls-2" d="M28.45,36.2l3.54-.18,6.31,13.05-3.93,.2-1.08-2.31-5.1,.26-.83,2.41-3.86,.19,4.96-13.61Zm3.62,7.95l-1.66-3.69-1.3,3.84,2.97-.15Z"/>
  <polygon class="cls-2" points="41.07 43.96 35.62 35.94 39.8 35.72 42.77 40.41 45.26 35.45 49.37 35.24 44.75 43.72 45 48.73 41.32 48.92 41.07 43.96"/>
  <path class="cls-1" d="M7.16,7.84v-.04C7.16,3.43,10.52,0,15.06,0c3.06,0,5.03,1.28,6.36,3.13l-3.13,2.42c-.86-1.07-1.84-1.76-3.28-1.76-2.1,0-3.58,1.78-3.58,3.96v.04c0,2.25,1.48,4,3.58,4,1.56,0,2.48-.73,3.38-1.82l3.13,2.23c-1.41,1.95-3.32,3.38-6.64,3.38-4.28,0-7.73-3.28-7.73-7.75"/>
  <path class="cls-1" d="M28.36,.19h4l6.38,15.1h-4.45l-1.09-2.68h-5.78l-1.07,2.68h-4.37L28.36,.19Zm3.64,9.19l-1.67-4.26-1.69,4.26h3.36Z"/>
  <path class="cls-1" d="M39.43,8.72V.3h4.22V8.63c0,2.16,1.09,3.19,2.76,3.19s2.76-.99,2.76-3.08V.3h4.22V8.61c0,4.84-2.76,6.96-7.02,6.96s-6.94-2.16-6.94-6.85"/>
  <rect class="cls-1" y="24.99" width="21.58" height="3.58"/>
  <rect class="cls-1" y="24.99" width="21.58" height="3.58"/>
  <path class="cls-1" d="M22.63,31.25l2.31-2.76c1.48,1.18,3.13,1.8,4.86,1.8,1.11,0,1.71-.39,1.71-1.03v-.04c0-.62-.49-.96-2.53-1.43-3.19-.73-5.65-1.63-5.65-4.71v-.04c0-2.78,2.21-4.8,5.8-4.8,2.55,0,4.54,.69,6.17,1.99l-2.08,2.93c-1.37-.96-2.87-1.48-4.2-1.48-1.01,0-1.5,.43-1.5,.96v.04c0,.69,.51,.99,2.59,1.46,3.45,.75,5.59,1.86,5.59,4.67v.04c0,3.06-2.42,4.88-6.06,4.88-2.66,0-5.18-.84-7.02-2.48"/>
  <path class="cls-1" d="M22.63,31.25l2.31-2.76c1.48,1.18,3.13,1.8,4.86,1.8,1.11,0,1.71-.39,1.71-1.03v-.04c0-.62-.49-.96-2.53-1.43-3.19-.73-5.65-1.63-5.65-4.71v-.04c0-2.78,2.21-4.8,5.8-4.8,2.55,0,4.54,.69,6.17,1.99l-2.08,2.93c-1.37-.96-2.87-1.48-4.2-1.48-1.01,0-1.5,.43-1.5,.96v.04c0,.69,.51,.99,2.59,1.46,3.45,.75,5.59,1.86,5.59,4.67v.04c0,3.06-2.42,4.88-6.06,4.88-2.66,0-5.18-.84-7.02-2.48Z"/>
  <path class="cls-1" d="M42.59,18.38h4l6.38,15.1h-4.45l-1.09-2.68h-5.78l-1.07,2.68h-4.37l6.38-15.1Zm3.64,9.19l-1.67-4.26-1.69,4.26h3.36Z"/>
  <path class="cls-1" d="M42.59,18.38h4l6.38,15.1h-4.45l-1.09-2.68h-5.78l-1.07,2.68h-4.37l6.38-15.1Zm3.64,9.19l-1.67-4.26-1.69,4.26h3.36Z"/>
</svg>