<?xml version="1.0" encoding="UTF-8"?>
<svg id="SANA_SANA" data-name="SANA SANA" xmlns="http://www.w3.org/2000/svg" viewBox="0 0 339.7 363.63">
  <defs>
    <style>
      .cls-1 {
        fill: #cc5194;
      }

      .cls-2 {
        fill: none;
        stroke: #fff;
        stroke-dasharray: 0 12;
        stroke-miterlimit: 10;
      }
    </style>
  </defs>
  <path class="cls-1" d="M46.4,282.54C19.7,262.12,1.14,237.19,1.3,202.15c.12-24.57,10.72-45.47,24.84-64.88,25.95-35.66,60.07-63.31,93.14-91.97,14.26-12.36,29.62-23.18,46.59-31.69,45.34-22.75,104.92-16.57,140.31,15.95,21.02,19.32,33.64,43.31,33.43,72.61-.1,13.74-4.43,25.78-13.63,36.3-6.58,7.53-14.35,14.25-18.87,23.35-8.95,18.03-8.65,36.22,.77,53.89,14.11,26.44,21.57,54.09,21.19,84.32-.54,42.31-22.51,64.55-65.62,63.67-39.49-.81-76.64-11.97-112.77-26.38-36.62-14.6-72.52-30.83-104.28-54.78Z"/>
  <path class="cls-2" d="M59.03,275.74c-24.71-18.9-41.89-41.98-41.74-74.41,.11-22.74,9.92-42.08,22.99-60.05,24.02-33.01,55.6-58.6,86.2-85.13,13.2-11.44,27.41-21.45,43.12-29.33,41.96-21.06,97.11-15.34,129.86,14.76,19.45,17.88,31.14,40.09,30.94,67.21-.09,12.71-4.1,23.86-12.61,33.6-6.09,6.97-13.29,13.19-17.47,21.61-8.29,16.69-8.01,33.53,.72,49.88,13.06,24.48,19.97,50.06,19.61,78.04-.5,39.16-20.83,59.75-60.73,58.93-36.55-.75-70.93-11.08-104.38-24.41-33.89-13.51-67.12-28.54-96.52-50.7Z"/>
</svg>