<?xml version="1.0" encoding="UTF-8"?>
<svg id="Capa_2" data-name="Capa 2" xmlns="http://www.w3.org/2000/svg" viewBox="0 0 90.2 451.91">
  <defs>
    <style>
      .cls-1 {
        fill: #fff;
      }

      .cls-2 {
        fill: #cececd;
      }

      .cls-3 {
        fill: #ec6d2b;
      }

      .cls-4 {
        fill: #dd1c67;
      }

      .cls-5 {
        fill: #1a1617;
      }

      .cls-6 {
        fill: #f1a2bc;
      }

      .cls-7 {
        fill: #69bda3;
      }
    </style>
  </defs>
  <g id="ACCION_TEC" data-name="ACCION TEC">
    <g>
      <polygon class="cls-2" points="53.46 173.96 63.47 174.67 62.31 161.82 61.54 148.62 66.55 138.27 61.93 126.84 49.61 126.84 48.84 146.47 46.15 165.39 53.46 173.96"/>
      <polygon class="cls-6" points="44.87 173.96 54.88 174.67 53.73 161.82 52.96 148.62 57.96 138.27 53.34 126.84 41.03 126.84 40.26 146.47 37.56 165.39 44.87 173.96"/>
      <polygon class="cls-2" points="83.8 120.88 90.2 117.75 89.19 103 63.73 96.32 17.31 107.65 19.02 132.53 87.6 128.09 83.8 120.88"/>
      <polygon class="cls-7" points="79.21 105.26 80.22 120 73.81 123.14 77.62 130.34 9.04 134.78 7.33 106.52 53.75 98.57 79.21 105.26"/>
      <path class="cls-4" d="M69.33,126.04l-50.42,3.26-.75-11.01c-.19-2.79,.14-4.88,1-6.27s2.22-2.36,4.09-2.89c1.87-.53,4.25-.89,7.13-1.08,3.11-.2,5.61-.03,7.49,.51,1.88,.54,3.15,1.73,3.81,3.59,.09-.96,.42-1.78,1.01-2.45s1.54-1.22,2.85-1.67c1.31-.44,3.09-.81,5.32-1.11s5.05-.55,8.45-.77c.32-.02,.79-.05,1.4-.09,.61-.04,1.28-.09,2-.16,.72-.07,1.44-.14,2.14-.21,.7-.08,1.33-.16,1.87-.26,.54-.09,.93-.2,1.17-.32l.42,6.15c-.17,.09-.54,.19-1.13,.28-.59,.1-1.37,.2-2.34,.3-.97,.1-2.13,.21-3.47,.31-1.35,.11-2.85,.21-4.52,.32-1.67,.11-3.5,.23-5.49,.35-1.91,.12-3.36,.3-4.35,.54-.99,.23-1.66,.68-2.01,1.33-.35,.65-.51,1.67-.5,3.04l.05,3.68,24.35-1.57,.42,6.18Zm-29.13-4.32l-.27-3.94c-.08-1.13-.35-1.99-.82-2.57-.47-.58-1.36-.94-2.66-1.07-1.3-.14-3.25-.12-5.82,.05l-.34,.02c-2.14,.14-3.75,.35-4.83,.63-1.08,.28-1.8,.73-2.14,1.35-.34,.62-.47,1.54-.39,2.75l.27,3.88,17.02-1.1Z"/>
      <g>
        <polygon class="cls-2" points="23.34 91.1 44.5 96.41 55.57 89.82 72.52 91.03 79.87 85.37 75.04 49.94 63.64 52.39 49.26 48.25 23.28 51.6 24.48 61.4 17.69 69.97 23.34 91.1"/>
        <g>
          <polygon class="cls-1" points="66.19 53.71 71.01 89.15 63.67 94.8 46.71 93.6 35.65 100.19 14.48 94.88 8.84 73.75 15.63 65.18 14.43 55.37 40.4 52.03 54.79 56.17 66.19 53.71"/>
          <path class="cls-5" d="M36.34,73.1c.95,0,2.1-.03,3.45-.09l1.84-.07,21.18-1.02-1.15-8.5-.82-6.02c-.12-.99,.18-1.49,.91-1.52,.61-.02,.98,.21,1.12,.71,.03,.12,.14,.81,.32,2.08l3.49,28.49-1.6,.04-10.27,.38-11.01,.34-19.06,.96-3.26-26.58c-.15-1.19-.2-1.87-.16-2.03,.07-.39,.39-.6,.96-.62,.71-.03,1.11,.33,1.2,1.06l.02,.18,1.36,12.57,9.54-.28-.3-2.73-1.26-8.77-.27-1.93c-.09-.7-.07-1.17,.05-1.4,.12-.23,.39-.36,.83-.37,.81-.03,1.28,.5,1.42,1.61l.17,1.98,1.3,11.54Z"/>
        </g>
      </g>
      <g>
        <polygon class="cls-2" points="25.08 359.08 12.19 385.94 40.09 405.99 76.81 399.72 82.33 380.11 72.79 359.55 25.08 359.08"/>
        <g>
          <polygon class="cls-1" points="73.42 383.75 67.9 403.36 31.18 409.64 3.28 389.58 16.17 362.72 63.88 363.2 73.42 383.75"/>
          <path class="cls-5" d="M20.88,386.56l20.64-.62,17.49-.79c.03-.83,.02-1.51-.05-2.05-.19-1.55-.73-3.13-1.62-4.74-.88-1.61-1.98-3.01-3.3-4.22-.86-.78-1.97-1.58-3.34-2.39-1.37-.82-2.69-1.46-3.95-1.94-.74-.28-1.13-.59-1.17-.94-.07-.52,.17-.79,.72-.81,.58-.02,1.61,.33,3.1,1.07,1.48,.73,2.84,1.55,4.06,2.44,2.64,1.94,4.6,4.27,5.87,6.98,.77,1.63,1.25,3.2,1.44,4.73,.28,2.22-.02,4.47-.91,6.75-1.39,3.65-3.97,6.49-7.73,8.5-3.12,1.68-6.54,2.58-10.27,2.72-3.8,.14-7.49-.54-11.07-2.03-3.8-1.6-6.85-3.94-9.15-7.02-1.65-2.25-2.64-4.71-2.97-7.37-.57-4.57,.82-8.58,4.19-12.05,1.6-1.65,2.8-2.49,3.6-2.52,.21,0,.42,.06,.61,.22,.19,.15,.3,.32,.33,.51,.04,.32-.29,.71-.99,1.18-2.14,1.45-3.74,3.31-4.81,5.59-1.07,2.28-1.45,4.67-1.13,7.15,.07,.59,.21,1.14,.41,1.65Z"/>
        </g>
      </g>
      <g>
        <polygon class="cls-2" points="29.67 308.39 13.15 333.19 37.97 356.94 75.21 355.86 83.41 337.21 76.84 315.53 29.67 308.39"/>
        <g>
          <polygon class="cls-3" points="74.08 339.58 65.88 358.22 28.64 359.31 3.82 335.55 20.33 310.76 67.51 317.89 74.08 339.58"/>
          <path class="cls-7" d="M21.67,335.02l20.52,2.27,17.43,1.66c.15-.82,.23-1.49,.23-2.04,.02-1.56-.29-3.2-.94-4.92-.65-1.71-1.54-3.26-2.68-4.64-.74-.89-1.73-1.84-2.97-2.84-1.24-1-2.46-1.82-3.64-2.48-.69-.38-1.03-.74-1.03-1.09,0-.53,.28-.76,.82-.71,.58,.06,1.55,.56,2.92,1.49,1.37,.93,2.59,1.93,3.68,2.99,2.34,2.29,3.96,4.87,4.84,7.73,.53,1.72,.79,3.35,.77,4.88-.03,2.24-.65,4.42-1.84,6.55-1.89,3.42-4.84,5.87-8.84,7.34-3.32,1.22-6.84,1.64-10.54,1.26-3.78-.39-7.34-1.58-10.67-3.56-3.54-2.11-6.24-4.86-8.08-8.23-1.32-2.46-1.95-5.03-1.91-7.71,.07-4.6,2.01-8.38,5.83-11.35,1.82-1.41,3.12-2.08,3.92-1.99,.21,.02,.4,.12,.58,.3,.17,.18,.26,.36,.25,.55,0,.32-.39,.66-1.15,1.03-2.32,1.13-4.16,2.76-5.54,4.87-1.38,2.11-2.08,4.42-2.12,6.92,0,.59,.05,1.16,.18,1.7Z"/>
        </g>
      </g>
      <g>
        <polygon class="cls-2" points="21.99 282.96 27.41 286.99 23.68 300.95 53 307.4 57.14 304.04 82.28 309.95 87.15 304.04 81.45 295.97 84.05 286.99 75.35 274.59 59.39 281.07 24.27 267.23 21.99 282.96"/>
        <g>
          <polygon class="cls-4" points="75.71 291.8 73.11 300.78 78.82 308.85 73.95 314.76 48.8 308.85 44.66 312.21 15.34 305.76 19.07 291.8 13.65 287.77 15.93 272.04 51.05 285.88 67.01 279.4 75.71 291.8"/>
          <path class="cls-6" d="M30.65,300.46l.05,.08s-.3,.08-.9,.11c-.6,.03-1.41,.05-2.43,.05-.21,0-.48-.07-.81-.23-.33-.15-.69-.4-1.07-.76-.38-.36-.75-.82-1.13-1.4-.38-.58-.72-1.31-1.03-2.19-.31-.88-.56-1.92-.75-3.11-.19-1.19-.28-2.57-.28-4.14,0-1.35,.08-2.41,.24-3.17,.16-.76,.38-1.33,.64-1.71,.27-.38,.57-.62,.92-.71,.35-.09,.71-.13,1.07-.13s.74,.03,1.1,.1c.36,.07,.68,.25,.96,.53,.28,.29,.51,.72,.68,1.29,.17,.57,.26,1.36,.26,2.36,0,.45-.03,.9-.08,1.35,1.79,.38,3.43,.71,4.92,.99,1.49,.28,2.86,.53,4.11,.77,1.25,.23,2.43,.45,3.53,.66,1.1,.21,2.21,.41,3.33,.62,1.12,.21,2.29,.43,3.52,.65,1.23,.23,2.55,.49,3.97,.78,1.42,.29,3.01,.62,4.77,.98,1.76,.36,3.77,.77,6.03,1.23,0-.08,.02-.27,.05-.56,.03-.29,.09-.63,.17-1.01,.08-.38,.19-.79,.32-1.22,.13-.43,.3-.82,.5-1.18,.2-.35,.43-.65,.7-.88,.27-.23,.57-.35,.92-.35,.7,0,1.38,.49,2.05,1.48v6.4c0,.99,0,1.99,.01,2.98,0,.99,0,1.96,0,2.9,0,.94-.02,1.76-.02,2.47,0,.71-.02,1.28-.04,1.71-.02,.43-.04,.65-.07,.65-.05,0-.13-.06-.24-.19-.11-.13-.26-.28-.45-.44-.19-.16-.43-.32-.71-.47-.28-.15-.63-.25-1.05-.29-.28-.03-.55-.26-.81-.7-.26-.44-.49-.96-.7-1.58-.21-.61-.38-1.27-.51-1.96-.13-.69-.22-1.3-.27-1.83-2.21-.46-4.42-.92-6.63-1.37-2.21-.46-4.43-.88-6.67-1.27-2.24-.39-4.33-.8-6.27-1.23-1.94-.43-3.76-.84-5.47-1.24-1.71-.4-3.28-.75-4.73-1.05-1.44-.3-2.69-.6-3.73-.92,.07,.5,.14,.95,.2,1.33,.07,.38,.14,.72,.23,1.02,.08,.3,.18,.58,.28,.85,.1,.27,.22,.54,.34,.83,.13,.29,.27,.6,.43,.93,.16,.34,.34,.73,.55,1.18Z"/>
        </g>
      </g>
      <g>
        <polygon class="cls-2" points="21.85 0 8.92 26.84 36.78 46.94 73.51 40.73 79.06 21.13 69.56 .56 21.85 0"/>
        <g>
          <polygon class="cls-4" points="70.15 24.76 64.59 44.36 27.87 50.57 0 30.47 12.94 3.63 60.65 4.19 70.15 24.76"/>
          <path class="cls-6" d="M17.61,27.47l20.64-.58,17.49-.76c.03-.83,.02-1.51-.05-2.05-.19-1.55-.73-3.13-1.61-4.74-.88-1.61-1.98-3.02-3.3-4.23-.86-.78-1.97-1.58-3.33-2.4-1.37-.82-2.68-1.47-3.95-1.95-.74-.28-1.12-.59-1.17-.94-.06-.52,.17-.79,.72-.81,.58-.02,1.61,.34,3.1,1.07,1.48,.74,2.84,1.55,4.06,2.45,2.64,1.95,4.59,4.27,5.86,6.99,.77,1.63,1.24,3.21,1.43,4.73,.27,2.22-.03,4.47-.92,6.75-1.4,3.65-3.98,6.48-7.74,8.49-3.12,1.67-6.55,2.57-10.27,2.7-3.8,.13-7.49-.55-11.06-2.05-3.8-1.6-6.85-3.95-9.14-7.04-1.64-2.25-2.63-4.71-2.96-7.37-.56-4.57,.84-8.58,4.21-12.05,1.61-1.65,2.81-2.49,3.6-2.52,.21,0,.42,.07,.61,.22,.19,.15,.3,.32,.33,.51,.04,.32-.29,.71-.99,1.18-2.14,1.44-3.74,3.3-4.82,5.58-1.07,2.28-1.45,4.66-1.15,7.15,.07,.59,.21,1.14,.41,1.66Z"/>
        </g>
      </g>
      <g>
        <polygon class="cls-2" points="83.49 446.58 87.88 423.87 87.88 404.2 65.63 396.64 55.43 404.2 35.34 404.2 25.36 418.66 30.73 437.12 45.49 443.76 59.11 440.03 65.63 446.58 83.49 446.58"/>
        <g>
          <polygon class="cls-7" points="78.64 429.2 74.25 451.91 56.39 451.91 49.86 445.36 36.25 449.09 21.49 442.45 16.11 424 26.1 409.53 46.19 409.53 56.39 401.97 78.64 409.53 78.64 429.2"/>
          <path class="cls-6" d="M69.87,409.59v18.65h-7.54v-4.42l-3.91,.98v9.53l3.91,.98v-3.63h7.54v14.79h-7.54v-3.16l-25.27-6.28v1.91h-7.43v-17.86l32.7-8.23v-3.26h7.54Zm-18.36,23.02v-6.09l-12.43,3.07,12.43,3.02Z"/>
          <path class="cls-4" d="M67.33,411.78v18.65h-7.54v-4.42l-3.91,.98v9.53l3.91,.98v-3.63h7.54v14.79h-7.54v-3.16l-25.27-6.28v1.91h-7.43v-17.86l32.7-8.23v-3.26h7.54Zm-18.36,23.02v-6.09l-12.43,3.07,12.43,3.02Z"/>
        </g>
      </g>
      <g>
        <polygon class="cls-2" points="84.01 237.59 53.33 222.15 41.8 227.15 25.47 227.15 17.12 241.13 31.4 264.73 74.61 273.5 75.11 266.43 84.01 266.43 84.01 237.59"/>
        <g>
          <polygon class="cls-7" points="75.42 242.55 75.42 271.38 66.52 271.38 66.02 278.45 22.81 269.68 5.27 238.85 10.99 233.13 19.17 240.89 27.34 229.45 41.24 228.63 75.42 242.55"/>
          <path class="cls-5" d="M70.27,253.83c0,2.05-.52,3.9-1.54,5.54-1.03,1.64-2.47,3.05-4.32,4.2-1.85,1.16-4.05,2.04-6.61,2.66-2.56,.62-5.36,.93-8.42,.93-1.65,0-3.33-.1-5.07-.29-1.73-.19-3.46-.49-5.18-.88-1.72-.39-3.41-.88-5.07-1.47-1.65-.58-3.22-1.27-4.69-2.04-1.47-.78-2.83-1.65-4.08-2.61s-2.31-2.03-3.21-3.19-1.6-2.42-2.11-3.76c-.51-1.34-.76-2.78-.76-4.32,0-2.06,.46-3.91,1.39-5.54,.92-1.63,2.22-3.01,3.88-4.13,1.66-1.12,3.64-1.98,5.95-2.58,2.3-.6,4.84-.9,7.62-.9,2.28,0,4.65,.18,7.12,.55,2.47,.36,4.9,.9,7.29,1.6,2.39,.7,4.66,1.58,6.81,2.62,2.16,1.05,4.05,2.25,5.68,3.61,1.63,1.36,2.92,2.88,3.88,4.55,.96,1.67,1.44,3.49,1.44,5.44Zm-5.93-.5c0-1.1-.27-2.13-.8-3.08-.53-.95-1.26-1.82-2.19-2.61-.93-.79-2.01-1.51-3.26-2.17-1.24-.65-2.58-1.24-4-1.74-1.43-.51-2.9-.95-4.43-1.33-1.53-.38-3.04-.69-4.53-.94-1.49-.25-2.93-.43-4.31-.55-1.38-.12-2.64-.18-3.77-.18-1.65,0-3.2,.14-4.65,.43-1.45,.29-2.71,.73-3.79,1.31-1.07,.58-1.92,1.32-2.54,2.21-.62,.89-.93,1.92-.93,3.11,0,1.27,.38,2.49,1.15,3.67,.76,1.18,1.79,2.3,3.09,3.34,1.3,1.05,2.8,2,4.51,2.87,1.71,.87,3.51,1.61,5.4,2.23,1.89,.62,3.81,1.1,5.77,1.45,1.96,.34,3.83,.52,5.61,.52,1.94,0,3.75-.2,5.42-.59,1.67-.39,3.12-.96,4.34-1.69,1.22-.74,2.18-1.63,2.87-2.68s1.04-2.25,1.04-3.58Z"/>
          <path class="cls-4" d="M69.32,257.75c0,2.05-.52,3.9-1.54,5.54-1.03,1.64-2.47,3.05-4.32,4.2-1.85,1.16-4.05,2.04-6.61,2.66-2.56,.62-5.36,.93-8.42,.93-1.65,0-3.33-.1-5.07-.29-1.73-.19-3.46-.49-5.18-.88-1.72-.39-3.41-.88-5.07-1.47-1.65-.58-3.22-1.27-4.69-2.04-1.47-.78-2.83-1.65-4.08-2.61-1.24-.96-2.31-2.03-3.21-3.19-.9-1.16-1.6-2.42-2.11-3.76-.51-1.34-.76-2.78-.76-4.32,0-2.06,.46-3.91,1.39-5.54,.92-1.63,2.22-3.01,3.88-4.13,1.66-1.12,3.64-1.98,5.95-2.58,2.3-.6,4.84-.9,7.62-.9,2.28,0,4.65,.18,7.12,.55,2.47,.36,4.9,.9,7.29,1.6,2.39,.7,4.66,1.58,6.81,2.62,2.16,1.05,4.05,2.25,5.68,3.61,1.63,1.36,2.92,2.88,3.88,4.55,.96,1.67,1.44,3.49,1.44,5.44Zm-5.93-.5c0-1.1-.27-2.13-.8-3.08-.53-.95-1.26-1.82-2.19-2.61-.93-.79-2.01-1.51-3.26-2.17-1.24-.65-2.58-1.24-4-1.74-1.43-.51-2.9-.95-4.43-1.33-1.53-.38-3.04-.69-4.53-.94-1.49-.25-2.93-.43-4.31-.55-1.38-.12-2.64-.18-3.77-.18-1.65,0-3.2,.14-4.65,.43s-2.71,.73-3.79,1.31c-1.07,.58-1.92,1.32-2.54,2.21-.62,.89-.93,1.92-.93,3.11,0,1.27,.38,2.49,1.15,3.67,.76,1.18,1.79,2.3,3.09,3.34,1.3,1.05,2.8,2,4.51,2.87,1.71,.87,3.51,1.61,5.4,2.23,1.89,.62,3.81,1.1,5.77,1.45s3.83,.52,5.61,.52c1.94,0,3.75-.2,5.42-.59,1.67-.39,3.12-.96,4.34-1.69,1.22-.74,2.18-1.63,2.87-2.68,.7-1.05,1.04-2.25,1.04-3.58Z"/>
        </g>
      </g>
      <g>
        <polygon class="cls-2" points="74.58 196.35 80.88 194.19 77.84 173.45 36.03 164.86 10.45 184.19 28.23 189.84 18.52 201.27 17.83 216.42 51.88 221.41 80.88 208.51 74.58 196.35"/>
        <g>
          <polygon class="cls-3" points="69.25 178.41 72.29 199.15 65.99 201.3 72.29 213.46 43.3 226.37 9.24 221.38 9.93 206.23 19.64 194.79 1.86 189.15 27.44 169.82 69.25 178.41"/>
          <path class="cls-7" d="M39.22,185.17h-4.92l-7.81,.05-3.57,.02-2.24,.02c-1.06,0-1.59-.29-1.59-.88,0-.35,.12-.59,.37-.73,.25-.13,.71-.2,1.4-.2h.41c.41,.02,1.09,.02,2.03,.02l9.93,.1,9.1,.07,9.57-.06,9.6-.08c-2.53,3.27-6.04,8.05-10.5,14.35-4.47,6.3-7.98,11.4-10.53,15.3l1.44-.02,15.2-.24,2.03-.02c.85,0,1.27,.32,1.27,.95s-.52,.98-1.56,.98l-2.06-.02-3.33-.02-15.11-.1-20.35,.19c4.93-6.43,12.01-16.32,21.23-29.67Z"/>
        </g>
      </g>
      <path class="cls-5" d="M44.74,159.09l5.22-.21-.81-20.14-5.6,.23s1.37,20.3,1.18,20.13Z"/>
      <path d="M16.53,247.04l2.47-2.09-8.06-9.54-2.65,2.24s8.39,9.4,8.24,9.39Z"/>
      <path class="cls-4" d="M15.3,248.27l2.47-2.09-8.06-9.54-2.65,2.24s8.39,9.4,8.24,9.39Z"/>
    </g>
  </g>
</svg>