<?xml version="1.0" encoding="UTF-8"?>
<svg id="Capa_2" data-name="Capa 2" xmlns="http://www.w3.org/2000/svg" viewBox="0 0 236.75 133.66">
  <defs>
    <style>
      .cls-1 {
        letter-spacing: -.03em;
      }

      .cls-2 {
        letter-spacing: -.04em;
      }

      .cls-3 {
        fill: #850337;
      }

      .cls-4 {
        letter-spacing: -.02em;
      }

      .cls-5 {
        fill: #fff;
      }

      .cls-6 {
        font-family: Cocogoose, Cocogoose;
        font-size: 29.49px;
      }

      .cls-6, .cls-7 {
        fill: #ec6780;
      }

      .cls-8 {
        stroke-width: 4.12px;
      }

      .cls-8, .cls-9, .cls-10, .cls-11 {
        fill: none;
        stroke-miterlimit: 10;
      }

      .cls-8, .cls-10 {
        stroke: #ec6780;
      }

      .cls-9 {
        stroke-width: 2.65px;
      }

      .cls-9, .cls-11 {
        stroke: #850337;
      }

      .cls-10 {
        stroke-width: 1.6px;
      }

      .cls-12 {
        letter-spacing: -.02em;
      }

      .cls-13 {
        letter-spacing: -.03em;
      }

      .cls-14 {
        letter-spacing: 0em;
      }

      .cls-15 {
        letter-spacing: -.02em;
      }

      .cls-11 {
        stroke-width: 3.24px;
      }
    </style>
  </defs>
  <g id="PROYECTO_CHANCHITO" data-name="PROYECTO CHANCHITO">
    <g>
      <g>
        <path class="cls-5" d="M107.29,49.72s.01,.05,.02,.07c0,0,0-.01,0-.02,0-.02,0-.04-.01-.05Z"/>
        <path class="cls-5" d="M233.82,52.33c-3.41-10.76-9.81-20.53-18.24-27.91-.07-4.32-.95-8.54-1.65-11.88l-.17-.82c-.03-.15-.06-.29-.1-.44-.82-3.13-2.7-5.92-5.31-7.91-3.24-2.71-7.39-3.86-11.46-3.16-4.35,.7-7.22,3.33-9.12,5.07-.14,.12-.27,.25-.41,.37-1.01,.08-2.3,.19-3.71,.56-.78,.16-1.51,.37-2.22,.63-.11,.04-.21,.08-.32,.13-.96,.41-1.89,.93-2.78,1.56-8.36-.35-16.82,1.02-24.65,4.02-7.18,2.75-13.86,6.87-19.59,12.05-2.02-.18-4.07,.07-6.01,.78-4.15,1.46-6.51,4.56-8.07,6.61-.11,.15-.23,.3-.33,.44-.62,.16-1.34,.36-2.12,.63-3.05,.83-5.83,2.78-7.75,5.42-2.53,3-3.49,6.88-2.64,10.72v.03c.03,.11,.05,.22,.08,.32,.02,.09,.05,.19,.08,.29,.66,2.47,1.86,4.31,2.91,5.67,.01,.02,.03,.04,.04,.06,.35,.52,.75,.97,1.19,1.39-.6,.27-1.18,.55-1.74,.88-.58,.34-1.14,.72-1.68,1.12-.56-.43-1.15-.82-1.76-1.18-1.28-.74-2.65-1.33-4.1-1.74-3.1-.87-6.5-.83-9.52,.05-.61,.18-1.21,.4-1.79,.64-.1-.05-.19-.1-.29-.15-1.27-.6-2.68-.9-4.18-.9h-3.79c-1.9,0-3.7,.52-5.21,1.5-.01,0-.02,.01-.03,.02-1.49-.99-3.24-1.52-5.08-1.52h-3.64c-1.67,0-3.24,.39-4.6,1.11-2.19-.92-4.54-1.39-6.97-1.39-1.64,0-3.25,.21-4.79,.63-1.33,.36-2.61,.88-3.8,1.52-.68-.41-1.39-.77-2.11-1.07-.89-.36-1.83-.64-2.79-.82-.92-.17-1.92-.26-2.96-.26-1.27,0-2.5,.18-3.65,.54-.69-.16-1.41-.25-2.14-.25h-2.23c-.97,0-1.95,.15-2.88,.44-.89,.27-1.71,.68-2.47,1.18-.33-.17-.65-.33-.99-.48-2.19-.96-4.56-1.44-7.06-1.44-1.5,0-2.91,.2-4.2,.6-.86-.25-1.75-.38-2.68-.38h-2.23c-.72,0-1.44,.08-2.13,.23-1.48,.31-2.88,1-4.05,2-.17,.15-.34,.3-.5,.46-.62,.62-1.15,1.31-1.6,2.08-.8,1.39-1.22,2.99-1.22,4.64v22.4c0,1.65,.44,3.27,1.28,4.7,.33,.55,.71,1.06,1.13,1.53-.19,.29-.38,.59-.56,.89-.77,1.32-1.37,2.76-1.79,4.27-.43,1.55-.65,3.18-.65,4.83s.22,3.28,.65,4.83c.42,1.5,1.01,2.93,1.77,4.24,.78,1.36,1.75,2.61,2.86,3.71,1.08,1.07,2.28,2,3.57,2.76,1.34,.79,2.79,1.4,4.32,1.82,1.54,.42,3.14,.64,4.77,.64,2.02,0,3.97-.33,5.82-.99,.17-.06,.33-.13,.5-.2,1.23,.55,2.6,.84,4.04,.84h3.33c.86,0,1.7-.11,2.5-.31,.53-.14,1.05-.32,1.55-.56,1.1,.5,2.49,.87,4.18,.87h3.41c1.96,0,3.83-.59,5.37-1.65,1.09,.56,2.25,1.02,3.46,1.35,1.54,.42,3.15,.64,4.78,.64,1.21,0,2.42-.15,3.57-.46,.14-.04,.28-.08,.42-.12,.7,.16,1.43,.24,2.17,.24h2.9c.66,0,1.34-.07,2.02-.21,.3-.06,.6-.14,.9-.23,.94,.29,1.93,.44,2.97,.44h3.33c.86,0,1.7-.11,2.5-.31,.63-.17,1.25-.4,1.85-.7,1.15,.58,2.63,1.01,4.47,1.01h3.41c1.96,0,3.83-.59,5.37-1.65,1.09,.56,2.25,1.02,3.45,1.35,1.54,.42,3.14,.64,4.77,.64,2.02,0,3.97-.33,5.82-.99,.17-.06,.33-.13,.5-.2,1.23,.55,2.6,.84,4.04,.84h3.33c.86,0,1.7-.11,2.5-.31,.53-.14,1.05-.32,1.55-.56,1.1,.5,2.49,.87,4.18,.87h3.41c.96,0,1.89-.14,2.78-.41,.89,.27,1.85,.41,2.85,.41h3.38c1.22,0,2.4-.22,3.49-.63,1.08,.41,2.26,.63,3.51,.63h3.33c1.3,0,2.56-.25,3.73-.72-.43,1.85-.21,3.8,.63,5.53,.97,1.98,2.68,3.5,4.77,4.22,6.42,2.21,13.1,3.33,19.85,3.33,26.43,0,50.02-16.92,58.68-42.1,4.41-12.82,4.59-26.38,.52-39.22Z"/>
      </g>
      <g>
        <path class="cls-3" d="M175.79,84.61c6.39-2.12,16.57-7.77,18.78-14.38,.19-.84-.03-1.38-.44-2-.82-1.36-1.9-2.57-3.15-3.55-8.75-6.95-22.5-1.71-25.75,8.96,1.18-12.84,17.65-19.38,27.57-11.24,1.51,1.22,2.79,2.71,3.77,4.39,.8,1.15,1.02,2.82,.64,4.06-2.55,7.65-13.93,12.93-21.41,13.77h0Z"/>
        <path class="cls-7" d="M175.6,84.64c6.02-2.43,15.38-7.52,18.08-13.58,.42-1.09,.1-2-.54-2.86-.66-1.03-1.49-1.94-2.42-2.73-8.6-7-20.86-2.84-25.23,7.03,3.18-11.3,17.31-16.29,26.56-8.59,2.09,1.89,4.71,4.8,3.47,7.79-3.05,6.68-13.07,11.43-19.92,12.93h0Z"/>
        <text class="cls-6" transform="translate(7.13 82.72)"><tspan x="0" y="0">p</tspan><tspan class="cls-12" x="22.51" y="0">r</tspan><tspan class="cls-13" x="39.04" y="0">o</tspan><tspan class="cls-1" x="59.88" y="0">y</tspan><tspan x="79.94" y="0">e</tspan><tspan class="cls-2" x="100.82" y="0">c</tspan><tspan class="cls-4" x="117.88" y="0">t</tspan><tspan x="129.98" y="0">o</tspan></text>
        <text class="cls-6" transform="translate(7.13 112.98)"><tspan x="0" y="0">chanchi</tspan><tspan class="cls-15" x="131.15" y="0">t</tspan><tspan class="cls-14" x="143.25" y="0">o</tspan></text>
        <path class="cls-8" d="M205.24,29.83c16.36,13.03,24.51,36.48,17.12,57.94h0c-9.31,27.05-37.76,41.22-63.99,32.19"/>
        <path class="cls-10" d="M136.77,38.81c10.85-13.01,27.61-20.16,44.46-18.66"/>
        <path class="cls-9" d="M205.86,28.96c17.93,13.16,26.01,37.09,18.32,59.45h0c-9.45,27.46-39.12,42.14-66.27,32.79h0"/>
        <path class="cls-11" d="M135.61,37.32c11-13.21,27.91-20.34,45.07-18.69"/>
        <path class="cls-7" d="M199.77,35.93c3.92-2.62,4.83-6.69,3.8-11.16-.56-3.06-1.6-6.68-2.37-9.8-.14-.65-.39-1-.86-1.35-1.8-1.34-4.38,2.08-6.44,3.15-1.18,.76-3,1.2-4.37,1.05-1.34-.08-2.52-.41-3.38-.46-1.73-.12-3.72,1-4.41,2.53-.28,.94-.24,2.16-.19,3.31-.55-1.05-1.03-2.11-1.11-3.46,.11-2.83,2.86-5.29,5.58-5.51,2.01-.23,4.01,.37,5.62-.96,1.73-1.38,3.68-3.84,6.13-4.44,2.61-.73,5.62,.44,7.03,2.76,1.12,1.8,1.16,3.73,1.61,5.74,1.33,6.79,2.2,16.75-6.66,18.59h0Z"/>
        <path class="cls-3" d="M199.8,35.98c2.32-.8,3.72-2.86,4.51-4.95,1.56-4.33,.08-9.17-.95-13.51-.34-1.17-.67-2.34-1.07-3.48-.24-1.68-1.86-3.04-3.57-2.76-2.78,.7-4.41,3.7-7.31,4.56-1.8,.61-3.91,.1-5.54,.41-1.06,.17-2.11,.55-3.04,1.14-2.29,1.17-1.52,3.92-1.23,5.99-.69-1.67-1.76-3.62-.92-5.52,1.47-3.02,5.53-3.94,8.47-3.99,1.08-.12,1.83-.47,2.7-1.09,1.33-.98,2.66-2.59,4.25-3.51,1.95-1.28,4.83-1.18,6.67,.28,1.21,.91,2.03,2.29,2.29,3.78,.01,.05-.1-.39-.05-.2,.39,1.23,.77,2.47,1.04,3.73,.92,4.83,2.03,10.2-.45,14.79-1.2,2.14-3.26,4.2-5.8,4.35h0Z"/>
        <path class="cls-7" d="M137.2,60.06c3.33-3.3,3.42-7.41,1.6-11.59-1.11-2.88-2.79-6.26-4.1-9.17-.25-.59-.51-.87-1.02-1.11-1.89-.97-3.78,2.79-5.57,4.15-1.04,.97-2.79,1.74-4.17,1.83-1.35,.15-2.56,.02-3.39,.12-1.69,.16-3.41,1.59-3.84,3.16-.12,.97,.13,2.16,.37,3.28-.74-.92-1.42-1.88-1.75-3.19-.46-2.83,1.84-5.8,4.51-6.5,1.91-.58,3.94-.34,5.26-1.92,1.6-1.82,2.54-4.12,5.28-5.48,2.51-1.17,5.72-.5,7.53,1.59,1.41,1.6,1.79,3.46,2.6,5.37,2.5,6.42,5.12,16.17-3.31,19.46h0Z"/>
        <path class="cls-3" d="M137.3,60.06c6.58-4.4,2.93-13.12,.23-18.8-.54-1.09-1.07-2.18-1.68-3.24-.53-1.61-2.37-2.66-4-2.09-2.61,1.19-3.68,4.42-6.39,5.78-1.66,.92-3.83,.8-5.38,1.38-1.01,.35-1.97,.92-2.79,1.66-2.04,1.56-.8,4.12-.14,6.11-.97-1.52-2.38-3.25-1.88-5.27,.91-3.23,4.74-4.85,7.62-5.44,1.04-.31,1.72-.78,2.46-1.55,1.13-1.2,2.15-3.02,3.56-4.21,1.69-1.61,4.54-2.02,6.62-.91,1.36,.68,2.41,1.9,2.93,3.32,.02,.05-.17-.37-.08-.19,.6,1.14,1.19,2.29,1.69,3.48,1.77,4.59,3.8,9.67,2.18,14.63-.8,2.32-2.46,4.71-4.94,5.31h0Z"/>
        <ellipse class="cls-3" cx="177.86" cy="72.75" rx=".85" ry="3.47" transform="translate(-12.34 100.14) rotate(-30.44)"/>
        <ellipse class="cls-3" cx="181.35" cy="70.44" rx=".85" ry="3.47" transform="translate(-10.69 101.58) rotate(-30.44)"/>
      </g>
    </g>
  </g>
</svg>