<?xml version="1.0" encoding="UTF-8"?>
<svg id="Capa_2" data-name="Capa 2" xmlns="http://www.w3.org/2000/svg" xmlns:xlink="http://www.w3.org/1999/xlink" viewBox="0 0 1218 1110.86">
  <defs>
    <style>
      .cls-1 {
        fill: #f299a8;
      }

      .cls-2 {
        fill: #cc7b87;
        opacity: .8;
      }

      .cls-3 {
        fill: url(#Degradado_sin_nombre_30);
      }

      .cls-4 {
        clip-path: url(#clippath);
      }

      .cls-5 {
        fill: none;
      }
    </style>
    <linearGradient id="Degradado_sin_nombre_30" data-name="Degradado sin nombre 30" x1="326.74" y1="938.1" x2="1095.72" y2="144.33" gradientUnits="userSpaceOnUse">
      <stop offset=".02" stop-color="#fff"/>
      <stop offset=".03" stop-color="#fefafa" stop-opacity=".95"/>
      <stop offset=".11" stop-color="#fbe5e9" stop-opacity=".76"/>
      <stop offset=".19" stop-color="#f9d3d9" stop-opacity=".58"/>
      <stop offset=".27" stop-color="#f6c3cc" stop-opacity=".42"/>
      <stop offset=".35" stop-color="#f5b5c0" stop-opacity=".29"/>
      <stop offset=".45" stop-color="#f3aab7" stop-opacity=".18"/>
      <stop offset=".55" stop-color="#f2a2af" stop-opacity=".1"/>
      <stop offset=".66" stop-color="#f19caa" stop-opacity=".04"/>
      <stop offset=".79" stop-color="#f199a7" stop-opacity=".01"/>
      <stop offset="1" stop-color="#f198a7" stop-opacity="0"/>
    </linearGradient>
    <clipPath id="clippath">
      <rect class="cls-5" y="275.52" width="1218" height="600"/>
    </clipPath>
  </defs>
  <g id="Fondos">
    <rect class="cls-1" x="138" y="275.52" width="1080" height="600"/>
  </g>
  <g id="PROYECTO_CHANCHITO" data-name="PROYECTO CHANCHITO">
    <rect class="cls-3" x="138" y="275.52" width="1080" height="600"/>
    <g class="cls-4">
      <path class="cls-2" d="M1090.24,223.24c.57-1.46,1.05-2.92,1.43-4.39,3-11.48,1.22-22.94-1.43-33.75-3.51-14.33-8.5-28.15-14.9-41.24l-4.57-15.15c-8.69-2.5-19.35-.42-27.43,5.35-8.91,6.36-14.63,16.63-23.54,22.5-43.23-28.31-94.96-44.67-150.5-44.36-38.03,.21-74.19,8.22-106.99,22.48-14.84,6.04-28.97,13.35-42.25,21.78-.4-.2-.8-.39-1.18-.61-10.83-6.22-15.54-19.19-24.93-27.49-7.45-6.58-17.83-9.75-26.73-8.16l-6.12,14.6c-7.72,12.36-14.12,25.59-19.09,39.48-3.75,10.48-6.71,21.69-4.91,33.42,1.06,6.91,4.11,14.04,8.8,19.84-15.8,22.88-27.77,48.37-35.03,75.63-8.18,26.17-12.54,54.02-12.38,82.9,.83,150.42,130.38,186.99,280.78,186.16,150.4-.83,264.71-38.76,263.88-189.17-.33-59.83-19.95-115.04-52.9-159.8Z"/>
      <path class="cls-2" d="M422.9,65.09c-.38-1.31-.81-2.59-1.3-3.84-3.81-9.79-10.27-17.88-16.91-25.17-8.8-9.67-18.18-18.44-28-26.15l-9.79-9.92c-6.04,1.14-11,6.45-12.75,13.68-1.93,7.95-.22,17.77-2.39,25.36-37.64-6.39-74.32-.71-105.16,18.98-21.12,13.48-37.47,32.24-48.97,54.57-5.4,9.79-9.79,20.3-13.18,31.37-.32-.01-.63-.02-.95-.05-9.01-.93-17.83-9.15-27.04-12.18-7.3-2.4-14.6-1.17-18.81,3.16l3.55,13.25c1.59,12.1,4.34,24.41,8.2,36.71,2.91,9.28,6.61,18.85,13.22,27.14,3.89,4.89,9,9.24,14.38,12.01,2.11,22.93,7.6,46.51,16.56,69.8,7.93,22.77,18.79,45.48,32.67,67.39,72.28,114.12,162.03,96.56,245.56,43.24,83.53-53.32,129.21-122.2,56.92-236.32-28.75-45.39-66.06-80.52-105.82-103.02Z"/>
      <path class="cls-2" d="M533.11,1043.24c.07,1.35,.21,2.68,.42,3.97,1.69,10.11,7.15,18.51,13.06,26.09,7.83,10.05,16.65,19.18,26.32,27.23l8.96,10.32c7.73-1.1,15.4-6.51,19.73-13.91,4.77-8.16,5.65-18.28,10.59-26.05,44.07,7.03,90.63,1.63,134.29-18.25,29.89-13.61,55.56-32.7,76.36-55.54,9.56-10.01,18.11-20.76,25.6-32.1,.38,.02,.76,.03,1.15,.06,10.73,1.07,19.03,9.63,29.36,12.85,8.19,2.55,17.5,1.38,23.95-3.02l-.34-13.67c1.72-12.47,2.08-25.16,1.09-37.86-.75-9.58-2.38-19.47-7.94-28.08-3.28-5.07-8.21-9.61-13.95-12.52,4.36-23.61,4.78-47.93,.87-71.99-2.8-23.51-9.21-47-19.55-69.71-53.83-118.24-168.85-101.27-287.08-47.44-118.23,53.83-194.9,124.12-141.07,242.37,21.41,47.04,56.39,83.61,98.18,107.23Z"/>
    </g>
  </g>
</svg>