<?xml version="1.0" encoding="UTF-8"?>
<svg id="Capa_2" data-name="Capa 2" xmlns="http://www.w3.org/2000/svg" viewBox="0 0 37.89 35.88">
  <defs>
    <style>
      .cls-1 {
        fill: #f7e36d;
      }

      .cls-2 {
        fill: #fcd127;
      }

      .cls-3 {
        opacity: .44;
      }

      .cls-3, .cls-4 {
        fill: #3c3c3b;
      }

      .cls-5 {
        opacity: .6;
      }

      .cls-6 {
        fill: #ec6780;
      }

      .cls-7 {
        fill: #f29db0;
      }

      .cls-8 {
        fill: #c2a229;
      }

      .cls-9 {
        fill: #d29a1b;
      }

      .cls-10 {
        fill: #b9303b;
      }
    </style>
  </defs>
  <g id="PROYECTO_CHANCHITO" data-name="PROYECTO CHANCHITO">
    <g>
      <g class="cls-5">
        <g>
          <path class="cls-4" d="M20.12,8.35c1.23,.66,1.73,1.8,1.58,3.07-.25,2.06,.58,3.25,2.49,3.81,2.39,1.53,2.89,2.85,2.2,5.82-.56,2.45-2.27,3.9-5.12,4.14-3.22,.27-6.2-.55-8.96-2.24-1.47-.9-1.95-2.31-2.11-3.85-.26-2.39,.15-4.71,.87-7,.81-2.57,2.72-3.93,5.06-4.86,1.33,.33,2.37,1.76,3.98,1.11Z"/>
          <path class="cls-4" d="M16.37,7.65c-1.98,.23-3.33,1.32-4.18,3.07-.27,.55-.54,1.1-.72,1.68-2.77,9.06,1.52,12.09,10.11,12.12,2.02,0,3.83-.93,4.51-3.23,.74-2.49,.24-4.51-1.89-6.06,3.34,1.38,3.86,6.22,.93,8.71-1.44,1.23-3.07,1.99-5.01,1.93-2-.06-3.95-.27-5.83-1.07-4.54-1.92-5.08-2.06-4.59-8.01,.31-3.7,1.1-7.34,5.01-9.21,.77-.37,1.46-.87,2.36-.49-.06,.41-.28,.61-.7,.55Z"/>
          <path class="cls-3" d="M35.03,18.43s0,0,0,0c0,0,0,0,0,0,.36-5.05-1.12-9.43-4.71-13.05C27.2,1.87,23.32,.04,18.6,.07c0,0,0,0,0,0C12.03-.61,4.78,3.89,2.05,10.35c-.3,.43-.71,.82-.88,1.3-1.91,5.52-1.56,10.87,1.64,15.81,6.94,10.69,21.68,11.12,29.56,.36,1.97-2.69,3.27-5.85,2.65-9.4Z"/>
        </g>
        <g>
          <path class="cls-2" d="M22.25,.48c5.07,.59,8.96,3.1,11.83,7.26,5.09,6.63,4.07,15.51-1.21,21.51-4.68,5.32-13.61,7.79-21.18,3.59-4.45-2.47-7-6.15-8.42-10.84-1.89-6.76,.97-14.8,6.53-18.37,4.25-.66,8.46-1.48,12.46-3.15Z"/>
          <path class="cls-8" d="M3.26,22c2.24,5.61,5.83,9.83,11.87,11.55,8.88,2.52,19.17-2.96,21.26-12.8,1.03-4.82-.21-8.91-2.32-13,2.71,2.39,3.66,5.67,3.8,9,.54,13.33-11.24,22.18-23.34,18.15-5.59-1.86-9.2-5.83-11.15-11.34-.17-.48-.09-1.04-.13-1.57Z"/>
          <path class="cls-1" d="M22.25,.48c-1.01,1.48-2.39,2.12-4.2,2.33-1.88,.21-3.73,.8-5.55,1.38-1.08,.34-1.93,.2-2.71-.56C13.45,.67,17.63-.32,22.25,.48Z"/>
          <path class="cls-9" d="M15.85,29.91c-7.49-2.43-10.86-9.34-8.64-16.93,1.92-6.54,9.78-10.83,16.6-8.43,7.58,2.67,10.97,9.18,8.5,17.12-2.06,6.64-9.84,10.7-16.46,8.23Z"/>
          <path class="cls-6" d="M16.14,9.16c1.37-.25,2.48,.33,3.15,1.41,1.09,1.76,2.48,2.18,4.33,1.43,2.82-.3,4.04,.42,5.36,3.18,1.09,2.27,.66,4.47-1.42,6.43-2.35,2.22-5.19,3.43-8.4,3.83-1.71,.21-2.96-.59-4.05-1.69-1.69-1.7-2.82-3.78-3.68-6.01-.97-2.51-.33-4.77,.92-6.96,1.25-.57,2.95-.1,3.8-1.61Z"/>
          <path class="cls-10" d="M12.77,10.96c-1.41,1.41-1.78,3.11-1.36,5.01,.13,.6,.27,1.2,.49,1.76,3.48,8.81,8.73,8.51,15.47,3.17,1.59-1.26,2.41-3.11,1.51-5.34-.98-2.41-2.63-3.68-5.26-3.56,3.47-1,6.9,2.46,6.16,6.23-.36,1.86-1.16,3.47-2.71,4.64-1.6,1.2-3.26,2.25-5.22,2.8-4.75,1.32-5.26,1.56-8.58-3.4-2.06-3.08-3.72-6.43-1.83-10.32,.37-.77,.6-1.59,1.54-1.85,.21,.35,.16,.65-.2,.87Z"/>
          <path class="cls-7" d="M12.77,10.96c.07-.29,.13-.58,.2-.87,.91-.82,1.94-1.19,3.17-.93,.84,.39,1.09,.86,.12,1.39-1.1,.6-2.25,.9-3.49,.41Z"/>
        </g>
      </g>
      <g class="cls-5">
        <g>
          <path class="cls-4" d="M20.12,8.35c1.23,.66,1.73,1.8,1.58,3.07-.25,2.06,.58,3.25,2.49,3.81,2.39,1.53,2.89,2.85,2.2,5.82-.56,2.45-2.27,3.9-5.12,4.14-3.22,.27-6.2-.55-8.96-2.24-1.47-.9-1.95-2.31-2.11-3.85-.26-2.39,.15-4.71,.87-7,.81-2.57,2.72-3.93,5.06-4.86,1.33,.33,2.37,1.76,3.98,1.11Z"/>
          <path class="cls-4" d="M16.37,7.65c-1.98,.23-3.33,1.32-4.18,3.07-.27,.55-.54,1.1-.72,1.68-2.77,9.06,1.52,12.09,10.11,12.12,2.02,0,3.83-.93,4.51-3.23,.74-2.49,.24-4.51-1.89-6.06,3.34,1.38,3.86,6.22,.93,8.71-1.44,1.23-3.07,1.99-5.01,1.93-2-.06-3.95-.27-5.83-1.07-4.54-1.92-5.08-2.06-4.59-8.01,.31-3.7,1.1-7.34,5.01-9.21,.77-.37,1.46-.87,2.36-.49-.06,.41-.28,.61-.7,.55Z"/>
          <path class="cls-3" d="M35.03,18.43s0,0,0,0c0,0,0,0,0,0,.36-5.05-1.12-9.43-4.71-13.05C27.2,1.87,23.32,.04,18.6,.07c0,0,0,0,0,0C12.03-.61,4.78,3.89,2.05,10.35c-.3,.43-.71,.82-.88,1.3-1.91,5.52-1.56,10.87,1.64,15.81,6.94,10.69,21.68,11.12,29.56,.36,1.97-2.69,3.27-5.85,2.65-9.4Z"/>
        </g>
        <g>
          <path class="cls-2" d="M22.25,.48c5.07,.59,8.96,3.1,11.83,7.26,5.09,6.63,4.07,15.51-1.21,21.51-4.68,5.32-13.61,7.79-21.18,3.59-4.45-2.47-7-6.15-8.42-10.84-1.89-6.76,.97-14.8,6.53-18.37,4.25-.66,8.46-1.48,12.46-3.15Z"/>
          <path class="cls-8" d="M3.26,22c2.24,5.61,5.83,9.83,11.87,11.55,8.88,2.52,19.17-2.96,21.26-12.8,1.03-4.82-.21-8.91-2.32-13,2.71,2.39,3.66,5.67,3.8,9,.54,13.33-11.24,22.18-23.34,18.15-5.59-1.86-9.2-5.83-11.15-11.34-.17-.48-.09-1.04-.13-1.57Z"/>
          <path class="cls-1" d="M22.25,.48c-1.01,1.48-2.39,2.12-4.2,2.33-1.88,.21-3.73,.8-5.55,1.38-1.08,.34-1.93,.2-2.71-.56C13.45,.67,17.63-.32,22.25,.48Z"/>
          <path class="cls-9" d="M15.85,29.91c-7.49-2.43-10.86-9.34-8.64-16.93,1.92-6.54,9.78-10.83,16.6-8.43,7.58,2.67,10.97,9.18,8.5,17.12-2.06,6.64-9.84,10.7-16.46,8.23Z"/>
          <path class="cls-6" d="M16.14,9.16c1.37-.25,2.48,.33,3.15,1.41,1.09,1.76,2.48,2.18,4.33,1.43,2.82-.3,4.04,.42,5.36,3.18,1.09,2.27,.66,4.47-1.42,6.43-2.35,2.22-5.19,3.43-8.4,3.83-1.71,.21-2.96-.59-4.05-1.69-1.69-1.7-2.82-3.78-3.68-6.01-.97-2.51-.33-4.77,.92-6.96,1.25-.57,2.95-.1,3.8-1.61Z"/>
          <path class="cls-10" d="M12.77,10.96c-1.41,1.41-1.78,3.11-1.36,5.01,.13,.6,.27,1.2,.49,1.76,3.48,8.81,8.73,8.51,15.47,3.17,1.59-1.26,2.41-3.11,1.51-5.34-.98-2.41-2.63-3.68-5.26-3.56,3.47-1,6.9,2.46,6.16,6.23-.36,1.86-1.16,3.47-2.71,4.64-1.6,1.2-3.26,2.25-5.22,2.8-4.75,1.32-5.26,1.56-8.58-3.4-2.06-3.08-3.72-6.43-1.83-10.32,.37-.77,.6-1.59,1.54-1.85,.21,.35,.16,.65-.2,.87Z"/>
          <path class="cls-7" d="M12.77,10.96c.07-.29,.13-.58,.2-.87,.91-.82,1.94-1.19,3.17-.93,.84,.39,1.09,.86,.12,1.39-1.1,.6-2.25,.9-3.49,.41Z"/>
        </g>
      </g>
    </g>
  </g>
</svg>