<?xml version="1.0" encoding="utf-8"?>
<!-- Generator: Adobe Illustrator 27.0.0, SVG Export Plug-In . SVG Version: 6.00 Build 0)  -->
<svg version="1.1" id="Capa_1" xmlns="http://www.w3.org/2000/svg" xmlns:xlink="http://www.w3.org/1999/xlink" x="0px" y="0px"
	 viewBox="0 0 100 100" style="enable-background:new 0 0 100 100;" xml:space="preserve">
<style type="text/css">
	.st0{fill:#FFFFFF;}
</style>
<g>
	<polygon class="st0" points="10.3,66.7 13.3,66.5 11.2,68.6 	"/>
	<path class="st0" d="M63.5,87.9c-0.1-0.4-0.3-0.7-0.6-0.8c-0.3-0.2-0.7-0.1-1.2,0l-1.3,0.4l0.8,2.5l1.3-0.4c0.5-0.2,0.8-0.4,1-0.7
		C63.6,88.6,63.6,88.3,63.5,87.9z M72.8,82.7l0.7,2.9l1.8-1.2L72.8,82.7z M72.8,82.7l0.7,2.9l1.8-1.2L72.8,82.7z M63.5,87.9
		c-0.1-0.4-0.3-0.7-0.6-0.8c-0.3-0.2-0.7-0.1-1.2,0l-1.3,0.4l0.8,2.5l1.3-0.4c0.5-0.2,0.8-0.4,1-0.7C63.6,88.6,63.6,88.3,63.5,87.9z
		 M82.5,55.5C79.8,70.7,66.3,82.3,50,82.3c-16.5,0-30.1-11.8-32.5-27.3L0,59.9C4.7,82.8,25.3,100,50,100c24.7,0,45.3-17.2,50-40.1
		L82.5,55.5z M50.5,83.5h2.9l-2.6,2.1h-2L50.5,83.5z M7.7,72.2l1.5-1.5l-1.8-3.8L5.2,67l-1.6-3.4l12.3-0.2l1.6,3.3l-8.2,9L7.7,72.2z
		 M15.9,82.8c-0.8-0.4-1.5-1-2.3-1.8c-0.6-0.7-1.1-1.4-1.6-2.2c-0.4-0.8-0.7-1.5-0.8-2.1l2.9-0.9c0.1,0.6,0.3,1.2,0.6,1.8
		c0.3,0.6,0.6,1.1,1.1,1.6c0.2,0.3,0.4,0.5,0.6,0.6s0.3,0.2,0.5,0.2c0.1,0,0.2,0,0.3-0.1c0.2-0.1,0.2-0.3,0.1-0.6
		c-0.1-0.2-0.2-0.5-0.4-0.9c-0.2-0.3-0.4-0.7-0.6-1.1c-0.2-0.4-0.4-0.8-0.6-1.2c-0.2-0.4-0.3-0.9-0.3-1.3c-0.1-0.4,0-0.9,0.1-1.3
		c0.2-0.4,0.5-0.8,0.9-1.2c0.5-0.5,1.1-0.7,1.8-0.8c0.7-0.1,1.4,0.1,2.2,0.4c0.8,0.4,1.5,1,2.3,1.8c0.5,0.6,0.9,1.2,1.3,1.8
		c0.4,0.7,0.6,1.3,0.8,2L22,78.5c-0.2-0.6-0.4-1.1-0.6-1.6c-0.2-0.5-0.5-0.9-0.8-1.3c-0.2-0.3-0.5-0.5-0.6-0.6
		c-0.2-0.1-0.4-0.2-0.5-0.2c-0.1,0-0.3,0-0.4,0.1c-0.1,0.1-0.2,0.3-0.1,0.6c0.1,0.2,0.2,0.5,0.4,0.8c0.2,0.3,0.4,0.7,0.6,1.1
		c0.2,0.4,0.4,0.8,0.6,1.2c0.2,0.4,0.3,0.8,0.3,1.3c0.1,0.4,0,0.9-0.1,1.3c-0.2,0.4-0.4,0.8-0.9,1.2c-0.5,0.4-1.1,0.7-1.8,0.8
		C17.4,83.2,16.7,83.1,15.9,82.8z M29,87.6l-4-2.6l-0.8,1.2l4.7,3.1l-1.6,2.3l-7.8-5.1l6.3-9.2l7.6,5l-1.6,2.3l-4.5-3l-0.7,1.1
		l4,2.6L29,87.6z M35.4,91.1c0.2,0.3,0.4,0.6,0.6,0.8c0.3,0.2,0.6,0.4,1,0.5c0.4,0.1,0.8,0.2,1.3,0.2c0,0,0.1,0,0.1,0l0.9-2.7l3.1,1
		L41,95.3c-0.8,0.2-1.6,0.3-2.6,0.3c-0.9,0-1.8-0.2-2.5-0.4c-0.9-0.3-1.6-0.7-2.3-1.1c-0.6-0.5-1.2-1.1-1.5-1.7
		c-0.4-0.7-0.6-1.4-0.7-2.1c-0.1-0.8,0-1.6,0.3-2.4c0.3-0.8,0.7-1.5,1.2-2.1c0.5-0.6,1.1-1,1.8-1.4c0.7-0.3,1.5-0.5,2.3-0.5
		c0.8,0,1.7,0.1,2.6,0.4c1.1,0.3,2,0.8,2.7,1.4c0.7,0.6,1.2,1.3,1.6,2.1l-3,1.3c-0.2-0.5-0.5-0.9-0.8-1.2c-0.3-0.3-0.7-0.6-1.2-0.7
		C38.4,87,38,86.9,37.7,87c-0.4,0-0.7,0.1-1,0.3c-0.3,0.2-0.6,0.4-0.8,0.7c-0.2,0.3-0.4,0.6-0.5,1c-0.1,0.4-0.2,0.8-0.2,1.1
		C35.2,90.4,35.3,90.8,35.4,91.1z M55.3,92c0,1.7-0.5,2.9-1.5,3.8c-1,0.9-2.3,1.4-4,1.4c-1.7,0-3.1-0.5-4-1.4
		c-1-0.9-1.4-2.2-1.4-3.9l0-6.1l3.8,0l0,6c0,0.8,0.2,1.4,0.5,1.8c0.3,0.4,0.7,0.5,1.2,0.5c0.5,0,1-0.2,1.3-0.5
		c0.3-0.4,0.5-1,0.5-1.8l0-6l3.7,0L55.3,92z M65.6,94.5l-2.7-2.1l-1,0.3l0.8,2.6l-3.6,1.1l-3.3-10.5l5.2-1.6c1-0.3,1.9-0.4,2.8-0.3
		c0.8,0.1,1.5,0.4,2.1,0.9c0.6,0.5,1,1.1,1.3,1.9c0.3,0.8,0.3,1.6,0.1,2.3c-0.2,0.6-0.5,1.2-1,1.7l3.3,2.6L65.6,94.5z M79.4,87.2
		L77.7,86l-3.5,2.4l0.5,2l-3.2,2.1l-2.3-11.8l3.1-2.1L82.7,85L79.4,87.2z M83.7,71l-2.1,2.5l6.4,5.2l-2.4,2.8l-6.4-5.2L77,78.9
		L74.8,77l6.6-7.8l-0.1,0l3.9-8.1l2.6,1.2l-2.3,4.8l1.2,0.6l2-4.2l2.5,1.1l-2,4.2l1.3,0.6l2.4-5l2.6,1.2l-4,8.3l-9.9-4.5L83.7,71z
		 M75.3,84.4l-2.5-1.7l0.7,2.9L75.3,84.4z M62.9,87.1c-0.3-0.2-0.7-0.1-1.2,0l-1.3,0.4l0.8,2.5l1.3-0.4c0.5-0.2,0.8-0.4,1-0.7
		c0.2-0.3,0.2-0.6,0.1-1C63.4,87.5,63.2,87.2,62.9,87.1z M63.5,87.9c-0.1-0.4-0.3-0.7-0.6-0.8c-0.3-0.2-0.7-0.1-1.2,0l-1.3,0.4
		l0.8,2.5l1.3-0.4c0.5-0.2,0.8-0.4,1-0.7C63.6,88.6,63.6,88.3,63.5,87.9z M63.5,87.9c-0.1-0.4-0.3-0.7-0.6-0.8
		c-0.3-0.2-0.7-0.1-1.2,0l-1.3,0.4l0.8,2.5l1.3-0.4c0.5-0.2,0.8-0.4,1-0.7C63.6,88.6,63.6,88.3,63.5,87.9z"/>
	<polygon class="st0" points="10.4,32.6 13.3,32.8 12.5,34.7 	"/>
	<path class="st0" d="M65.5,9.8c-0.2-0.3-0.5-0.5-1-0.7l-1.3-0.4L62.4,11l1.3,0.4c0.5,0.2,0.9,0.2,1.2,0.1c0.3-0.1,0.5-0.4,0.7-0.8
		C65.7,10.4,65.7,10.1,65.5,9.8z M73.7,17.6l1.7,1.3l0.8-2.8L73.7,17.6z M73.7,17.6l1.7,1.3l0.8-2.8L73.7,17.6z M64.6,9.1l-1.3-0.4
		L62.4,11l1.3,0.4c0.5,0.2,0.9,0.2,1.2,0.1c0.3-0.1,0.5-0.4,0.7-0.8c0.1-0.4,0.1-0.7,0-1C65.4,9.5,65,9.2,64.6,9.1z M50,0
		C25.3,0,4.7,17.2,0,40.1l17.5,4.4C20.2,29.3,33.7,17.7,50,17.7c16.5,0,30.1,11.8,32.5,27.3l17.5-4.9C95.3,17.2,74.7,0,50,0z
		 M51.4,1.3h2.9l-2.6,2.1h-2L51.4,1.3z M24.4,24.6c-0.2,0.8-0.7,1.6-1.5,2.4c-0.6,0.7-1.3,1.3-2,1.8c-0.5,0.4-1,0.6-1.4,0.8l0.3,0
		L18.2,33l-2.1-0.1l-1.7,3.7l1.5,1.4l-1.5,3.4l-8.1-8.7l1.5-3.3l11,0.1l-1.1-2.4c0.6-0.2,1.1-0.5,1.7-0.8c0.6-0.4,1-0.8,1.4-1.2
		c0.2-0.3,0.4-0.5,0.5-0.7c0.1-0.2,0.1-0.3,0.1-0.5c0-0.1-0.1-0.2-0.1-0.3c-0.2-0.1-0.3-0.2-0.6-0.1c-0.2,0.1-0.5,0.2-0.8,0.5
		c-0.3,0.2-0.6,0.5-1,0.7c-0.4,0.3-0.7,0.5-1.1,0.7c-0.4,0.2-0.8,0.4-1.2,0.5c-0.4,0.1-0.8,0.1-1.3,0c-0.4-0.1-0.9-0.3-1.3-0.7
		c-0.5-0.4-0.8-1-1-1.6c-0.2-0.6-0.1-1.4,0.1-2.1c0.2-0.8,0.7-1.6,1.5-2.4c0.5-0.6,1-1,1.6-1.5c0.6-0.4,1.2-0.8,1.8-1l1.3,2.6
		c-0.6,0.2-1.1,0.5-1.5,0.8c-0.4,0.3-0.8,0.6-1.1,1c-0.2,0.3-0.4,0.5-0.5,0.7c-0.1,0.2-0.1,0.4-0.1,0.5c0,0.1,0.1,0.2,0.2,0.3
		c0.1,0.1,0.3,0.1,0.6,0c0.2-0.1,0.5-0.2,0.8-0.5c0.3-0.2,0.6-0.5,1-0.7c0.4-0.3,0.7-0.5,1.1-0.7c0.4-0.2,0.8-0.4,1.2-0.5
		c0.4-0.1,0.8-0.1,1.3,0c0.4,0.1,0.9,0.3,1.3,0.7c0.5,0.4,0.8,1,1,1.6C24.7,23.1,24.6,23.8,24.4,24.6z M26.5,22.9l-6-9L27.9,9
		l1.5,2.3L25,14.2l0.7,1.1l3.9-2.5l1.5,2.2l-3.9,2.5l0.8,1.2l4.6-3l1.5,2.3L26.5,22.9z M42.6,15.2c-0.8,0.5-1.5,0.8-2.3,1
		c-0.9,0.3-1.7,0.4-2.5,0.3c-0.8-0.1-1.5-0.2-2.2-0.6c-0.7-0.3-1.3-0.8-1.7-1.3c-0.5-0.6-0.9-1.3-1.1-2.1c-0.2-0.8-0.3-1.6-0.2-2.3
		c0.1-0.7,0.3-1.4,0.7-2.1c0.4-0.6,0.9-1.2,1.5-1.7C35.4,6,36.2,5.6,37,5.4c1-0.3,2-0.4,2.9-0.3c0.9,0.1,1.7,0.4,2.5,0.9l-1.7,2.6
		c-0.4-0.3-0.9-0.5-1.3-0.5C39,8,38.5,8,38.1,8.1c-0.4,0.1-0.7,0.3-1,0.5c-0.3,0.2-0.5,0.5-0.6,0.8c-0.2,0.3-0.2,0.6-0.3,1
		c0,0.4,0,0.7,0.1,1.1c0.1,0.4,0.3,0.7,0.5,1c0.2,0.3,0.5,0.5,0.8,0.7c0.3,0.2,0.6,0.3,1,0.3c0.3,0,0.7,0,1.1-0.1
		c0.4-0.1,0.8-0.3,1.1-0.5c0,0,0.1-0.1,0.1-0.1L40,10.1l3.1-0.9l1.3,4.4C43.9,14.1,43.3,14.7,42.6,15.2z M56.3,9.9
		c0,1.6-0.5,2.8-1.5,3.7c-1,0.9-2.3,1.3-4,1.2c-1.7,0-3-0.5-3.9-1.4c-0.9-0.9-1.4-2.2-1.3-3.8l0.1-5.9l3.7,0.1l-0.1,5.8
		c0,0.8,0.1,1.4,0.4,1.8c0.3,0.4,0.7,0.5,1.2,0.5c0.5,0,0.9-0.2,1.2-0.5c0.3-0.3,0.5-0.9,0.5-1.7l0.1-5.8L56.5,4L56.3,9.9z M74,23.4
		l0.6-1.9L71.2,19l-1.7,1.1l-2.4-1.8l0,0.1l-3.7-1.3l-0.9-3.2l-1-0.3l-0.9,2.6L57.1,15l3.6-10.2l5,1.7c1,0.3,1.8,0.8,2.4,1.3
		c0.6,0.6,1,1.2,1.2,1.9c0.2,0.7,0.1,1.5-0.1,2.2c-0.3,0.8-0.7,1.4-1.3,1.8c-0.5,0.4-1.1,0.6-1.8,0.7l0.9,3.2l10.1-5.5l2.9,2.2
		L77,25.7L74,23.4z M77.8,27.4l6.5-4.8l-1.9-2.5l2.3-1.7l6.1,8l-2.3,1.7l-1.9-2.5L80,30.3L77.8,27.4z M91.4,38.2l-2.5,1l-1.7-4.2
		l-1.3,0.5l2,5l-2.6,1L82,33.1l10.2-3.9l3.3,8.2l-2.6,1l-1.9-4.8L89.8,34L91.4,38.2z M75.4,18.8l0.8-2.8l-2.5,1.5L75.4,18.8z
		 M64.6,9.1l-1.3-0.4L62.4,11l1.3,0.4c0.5,0.2,0.9,0.2,1.2,0.1c0.3-0.1,0.5-0.4,0.7-0.8c0.1-0.4,0.1-0.7,0-1
		C65.4,9.5,65,9.2,64.6,9.1z M65.5,9.8c-0.2-0.3-0.5-0.5-1-0.7l-1.3-0.4L62.4,11l1.3,0.4c0.5,0.2,0.9,0.2,1.2,0.1
		c0.3-0.1,0.5-0.4,0.7-0.8C65.7,10.4,65.7,10.1,65.5,9.8z M73.7,17.6l1.7,1.3l0.8-2.8L73.7,17.6z M73.7,17.6l1.7,1.3l0.8-2.8
		L73.7,17.6z M65.5,9.8c-0.2-0.3-0.5-0.5-1-0.7l-1.3-0.4L62.4,11l1.3,0.4c0.5,0.2,0.9,0.2,1.2,0.1c0.3-0.1,0.5-0.4,0.7-0.8
		C65.7,10.4,65.7,10.1,65.5,9.8z"/>
	<path class="st0" d="M73.6,40.4c-0.6-7.3-5.4-12.4-14.7-14.2c-2.6-0.5-5.5-0.8-8.8-0.8c-3.8,0-7.2,0.4-10.1,1
		c-8.1,1.9-12.5,6.5-13.5,12.9c-0.1,0.9-0.2,1.8-0.2,2.8v15.6c0,0.6,0,1.2,0.1,1.8c0.6,7.4,5.4,12.3,14.6,14.2
		c2.6,0.5,5.6,0.8,9,0.8c3.7,0,7-0.3,9.8-1c8.2-1.9,12.6-6.4,13.5-12.9c0.1-0.9,0.2-1.9,0.2-2.8V42.2C73.6,41.6,73.6,41,73.6,40.4z
		 M64.3,53.8c-2.3,1.5-9,1.3-9.1,1.3l0,0h0c0,0-0.4,6.6-0.2,8.8c0,0.3,0.2,1.4,0.2,1.4s-7.1,1.6-9.1-1.2c-1.5-2.2-1.3-8.8-1.3-8.9
		l0,0v0c0,0-6.7-0.4-9-0.2c-0.4,0-1.4,0.2-1.4,0.2s-1.6-7,1.2-8.9c2.3-1.5,9-1.3,9.1-1.3l0,0c0,0,0.4-6.6,0.2-8.8
		c0-0.4-0.2-1.4-0.2-1.4s7.1-1.6,9.1,1.2c1.5,2.2,1.3,8.8,1.3,8.9c0,0,6.7,0.4,9,0.2c0.3,0,1.4-0.2,1.4-0.2S67.2,51.9,64.3,53.8z"/>
</g>
</svg>
