<?xml version="1.0" encoding="utf-8"?>
<!-- Generator: Adobe Illustrator 27.0.0, SVG Export Plug-In . SVG Version: 6.00 Build 0)  -->
<svg version="1.1" id="Capa_1" xmlns="http://www.w3.org/2000/svg" xmlns:xlink="http://www.w3.org/1999/xlink" x="0px" y="0px"
	 viewBox="0 0 100 100" style="enable-background:new 0 0 100 100;" xml:space="preserve">
<style type="text/css">
	.st0{fill:#FFFFFF;}
	.st1{fill:#231F20;}
	.st2{fill-rule:evenodd;clip-rule:evenodd;fill:#F48120;}
	.st3{fill-rule:evenodd;clip-rule:evenodd;fill:#1FB4E9;}
	.st4{fill-rule:evenodd;clip-rule:evenodd;fill:#DC1C8C;}
	.st5{fill:#1FB4E9;}
	.st6{fill:#DC1C8C;}
	.st7{fill:#FBB036;}
	.st8{fill:#ABD050;}
	.st9{fill:#169084;}
	.st10{fill:#F2736E;}
</style>
<g>
	<path class="st0" d="M100,50c0-27.61-22.39-50-50-50S0,22.39,0,50c0,24.96,18.28,45.64,42.19,49.39V64.45h-12.7V50h12.7V38.98
		c0-12.53,7.46-19.45,18.89-19.45c5.47,0,11.19,0.98,11.19,0.98v12.3h-6.3c-6.21,0-8.15,3.85-8.15,7.81V50h13.87l-2.22,14.45H57.81
		v34.94C81.72,95.64,100,74.96,100,50z"/>
	<path class="st5" d="M69.46,64.45L71.68,50H57.81v-9.38c0-3.95,1.94-7.81,8.15-7.81h6.3v-12.3c0,0-5.72-0.98-11.19-0.98
		c-11.42,0-18.89,6.92-18.89,19.45V50h-12.7v14.45h12.7v34.94c2.55,0.4,5.15,0.61,7.81,0.61c2.66,0,5.27-0.21,7.81-0.61V64.45H69.46
		z"/>
</g>
</svg>
