<?xml version="1.0" encoding="utf-8"?>
<!-- Generator: Adobe Illustrator 27.0.0, SVG Export Plug-In . SVG Version: 6.00 Build 0)  -->
<svg version="1.1" id="Capa_1" xmlns="http://www.w3.org/2000/svg" xmlns:xlink="http://www.w3.org/1999/xlink" x="0px" y="0px"
	 viewBox="0 0 100 100" style="enable-background:new 0 0 100 100;" xml:space="preserve">
<style type="text/css">
	.st0{fill:#FFFFFF;}
	.st1{fill:#231F20;}
	.st2{fill-rule:evenodd;clip-rule:evenodd;fill:#F48120;}
	.st3{fill-rule:evenodd;clip-rule:evenodd;fill:#1FB4E9;}
	.st4{fill-rule:evenodd;clip-rule:evenodd;fill:#DC1C8C;}
	.st5{fill:#1FB4E9;}
	.st6{fill:#DC1C8C;}
	.st7{fill:#FBB036;}
	.st8{fill:#ABD050;}
	.st9{fill:#169084;}
	.st10{fill:#F2736E;}
</style>
<g>
	<circle class="st7" cx="50" cy="50" r="50"/>
	<g>
		<g>
			<g>
				<path class="st0" d="M50,24.19c8.41,0,9.4,0.03,12.72,0.18c3.07,0.14,4.74,0.65,5.85,1.08c1.47,0.57,2.52,1.25,3.62,2.35
					c1.1,1.1,1.78,2.15,2.35,3.62c0.43,1.11,0.94,2.78,1.08,5.85c0.15,3.32,0.18,4.32,0.18,12.72s-0.03,9.4-0.18,12.72
					c-0.14,3.07-0.65,4.74-1.08,5.85c-0.57,1.47-1.25,2.52-2.35,3.62c-1.1,1.1-2.15,1.78-3.62,2.35c-1.11,0.43-2.78,0.94-5.85,1.08
					c-3.32,0.15-4.31,0.18-12.72,0.18c-8.41,0-9.4-0.03-12.72-0.18c-3.07-0.14-4.74-0.65-5.85-1.08c-1.47-0.57-2.52-1.25-3.62-2.35
					c-1.1-1.1-1.78-2.15-2.35-3.62c-0.43-1.11-0.94-2.78-1.08-5.85c-0.15-3.32-0.18-4.32-0.18-12.72s0.03-9.4,0.18-12.72
					c0.14-3.07,0.65-4.74,1.08-5.85c0.57-1.47,1.25-2.52,2.35-3.62c1.1-1.1,2.15-1.78,3.62-2.35c1.11-0.43,2.78-0.94,5.85-1.08
					C40.6,24.22,41.59,24.19,50,24.19 M50,18.52c-8.55,0-9.62,0.04-12.98,0.19c-3.35,0.15-5.64,0.69-7.64,1.46
					c-2.07,0.8-3.83,1.88-5.58,3.63c-1.75,1.75-2.83,3.51-3.63,5.58c-0.78,2-1.31,4.29-1.46,7.64c-0.15,3.36-0.19,4.43-0.19,12.98
					c0,8.55,0.04,9.62,0.19,12.98c0.15,3.35,0.69,5.64,1.46,7.64c0.8,2.07,1.88,3.83,3.63,5.58c1.75,1.75,3.51,2.83,5.58,3.63
					c2,0.78,4.29,1.31,7.64,1.46c3.36,0.15,4.43,0.19,12.98,0.19c8.55,0,9.62-0.04,12.98-0.19c3.35-0.15,5.64-0.69,7.64-1.46
					c2.07-0.8,3.83-1.88,5.58-3.63c1.75-1.75,2.83-3.51,3.63-5.58c0.78-2,1.31-4.29,1.46-7.64c0.15-3.36,0.19-4.43,0.19-12.98
					s-0.04-9.62-0.19-12.98c-0.15-3.35-0.69-5.64-1.46-7.64c-0.8-2.07-1.88-3.83-3.63-5.58c-1.75-1.75-3.51-2.83-5.58-3.63
					c-2-0.78-4.29-1.31-7.64-1.46C59.62,18.55,58.55,18.52,50,18.52L50,18.52z"/>
				<path class="st0" d="M50,33.83c-8.93,0-16.17,7.24-16.17,16.17S41.07,66.17,50,66.17c8.93,0,16.17-7.24,16.17-16.17
					S58.93,33.83,50,33.83z M50,60.49c-5.8,0-10.49-4.7-10.49-10.49S44.2,39.51,50,39.51S60.49,44.2,60.49,50S55.8,60.49,50,60.49z"
					/>
				<circle class="st0" cx="66.8" cy="33.2" r="3.78"/>
			</g>
		</g>
	</g>
</g>
</svg>
