<?xml version="1.0" encoding="utf-8"?>
<!-- Generator: Adobe Illustrator 27.0.0, SVG Export Plug-In . SVG Version: 6.00 Build 0)  -->
<svg version="1.1" id="Capa_1" xmlns="http://www.w3.org/2000/svg" xmlns:xlink="http://www.w3.org/1999/xlink" x="0px" y="0px"
	 viewBox="0 0 100 100" style="enable-background:new 0 0 100 100;" xml:space="preserve">
<style type="text/css">
	.st0{fill:#FFFFFF;}
	.st1{fill:#231F20;}
	.st2{fill-rule:evenodd;clip-rule:evenodd;fill:#F48120;}
	.st3{fill-rule:evenodd;clip-rule:evenodd;fill:#1FB4E9;}
	.st4{fill-rule:evenodd;clip-rule:evenodd;fill:#DC1C8C;}
	.st5{fill:#1FB4E9;}
	.st6{fill:#DC1C8C;}
	.st7{fill:#FBB036;}
	.st8{fill:#ABD050;}
	.st9{fill:#169084;}
	.st10{fill:#F2736E;}
</style>
<g>
	<g id="XMLID_00000138573929731756569150000014715204739197802658_">
		<path id="XMLID_00000005254462073220792590000008617072038588841379_" class="st0" d="M50,100L50,100C22.39,100,0,77.61,0,50v0
			C0,22.39,22.39,0,50,0h0c27.61,0,50,22.39,50,50v0C100,77.61,77.61,100,50,100z"/>
	</g>
	<g id="XMLID_00000080889443396312636120000010792285557093016249_">
		<g id="XMLID_00000031191822686103595110000003504210240056582799_">
			
				<rect id="XMLID_00000072240813947997371310000003980421090582157453_" x="26.52" y="41.85" class="st5" width="10.09" height="32.61"/>
			<path id="XMLID_00000099643538778123877630000011167503788512182710_" class="st5" d="M31.52,37.58c3.3,0,5.97-2.7,5.97-6.02
				s-2.67-6.02-5.97-6.02c-3.3,0-5.97,2.69-5.97,6.02S28.22,37.58,31.52,37.58z"/>
		</g>
		<path id="XMLID_00000164488285631304953250000015145812428811997608_" class="st5" d="M52.75,57.34c0-4.58,2.11-7.32,6.15-7.32
			c3.71,0,5.5,2.62,5.5,7.32c0,4.7,0,17.12,0,17.12h10.05c0,0,0-11.91,0-20.65c0-8.73-4.95-12.96-11.86-12.96
			c-6.92,0-9.83,5.39-9.83,5.39v-4.39h-9.68v32.61h9.68C52.75,74.46,52.75,62.36,52.75,57.34z"/>
	</g>
</g>
</svg>
