<?xml version="1.0" encoding="utf-8"?>
<!-- Generator: Adobe Illustrator 27.0.0, SVG Export Plug-In . SVG Version: 6.00 Build 0)  -->
<svg version="1.1" id="Capa_1" xmlns="http://www.w3.org/2000/svg" xmlns:xlink="http://www.w3.org/1999/xlink" x="0px" y="0px"
	 viewBox="0 0 100 100" style="enable-background:new 0 0 100 100;" xml:space="preserve">
<style type="text/css">
	.st0{fill:#FFFFFF;}
	.st1{fill:#231F20;}
	.st2{fill-rule:evenodd;clip-rule:evenodd;fill:#F48120;}
	.st3{fill-rule:evenodd;clip-rule:evenodd;fill:#1FB4E9;}
	.st4{fill-rule:evenodd;clip-rule:evenodd;fill:#DC1C8C;}
	.st5{fill:#1FB4E9;}
	.st6{fill:#DC1C8C;}
	.st7{fill:#FBB036;}
	.st8{fill:#ABD050;}
	.st9{fill:#169084;}
	.st10{fill:#F2736E;}
</style>
<g>
	<g>
		<circle class="st8" cx="50" cy="50" r="50"/>
	</g>
	<path class="st0" d="M78.02,33.48c0-0.29-0.01-0.3-0.31-0.3c-0.73,0.01-1.46-0.08-2.18-0.19c-2.62-0.39-11.1-4.85-12.54-12.13
		c-0.03-0.14-0.35-1.95-0.34-2.72c0-0.34,0-0.34-0.34-0.35c-0.08,0-0.16,0-0.24,0c-3.32,0-6.64,0-9.96,0
		c-0.67,0-0.57-0.08-0.57,0.59c0,14.4,0,28.8,0,43.2c0,0.54-0.02,1.07-0.11,1.6c-0.5,2.79-1.93,4.97-4.34,6.46
		c-2.09,1.29-4.36,1.66-6.78,1.18c-0.76-0.15-1.47-0.44-2.19-0.72c-0.06-0.05-0.12-0.11-0.17-0.16c-0.24-0.2-0.5-0.37-0.76-0.55
		c-3.07-2.13-4.53-5.08-4.09-8.78c0.45-3.75,2.61-6.29,6.16-7.6c1.06-0.39,2.18-0.55,3.31-0.49c0.73,0.04,1.46,0.13,2.16,0.33
		c0.25,0.07,0.38-0.02,0.39-0.28c0-0.09,0.01-0.18,0.01-0.27c0-2.59-0.1-8.23-0.11-8.24c0.01-0.74,0-1.49,0.02-2.23
		c0-0.21-0.1-0.25-0.28-0.27c-1.34-0.16-2.68-0.19-4.03-0.09c-1.86,0.14-3.67,0.52-5.42,1.15c-2.8,1.01-5.25,2.56-7.37,4.64
		c-1.82,1.78-3.25,3.84-4.3,6.17c-1,2.22-1.58,4.56-1.74,6.99c-0.07,1.05-0.06,2.11,0.04,3.17c0.13,1.46,0.41,2.89,0.86,4.29
		c1.28,4.01,3.6,7.3,6.89,9.92c0.33,0.27,0.66,0.56,1.06,0.73c0,0,0,0,0,0c0.17,0.15,0.34,0.3,0.5,0.45c0.53,0.4,1.1,0.75,1.7,1.04
		c3.69,1.82,7.58,2.56,11.68,2.06c5.32-0.65,9.75-3.01,13.23-7.06c3.28-3.82,4.88-8.31,4.91-13.32c0.04-7.17,0.01-14.34,0.01-21.52
		c0-0.17-0.1-0.41,0.09-0.5c0.15-0.07,0.3,0.13,0.43,0.22c2.67,1.75,5.55,3.02,8.66,3.73c1.81,0.41,3.65,0.67,5.51,0.66
		c0.59,0,0.67-0.03,0.67-0.61C78.15,41.12,78.02,34.15,78.02,33.48z"/>
</g>
</svg>
