<?xml version="1.0" encoding="utf-8"?>
<!-- Generator: Adobe Illustrator 27.0.0, SVG Export Plug-In . SVG Version: 6.00 Build 0)  -->
<svg version="1.1" id="Capa_1" xmlns="http://www.w3.org/2000/svg" xmlns:xlink="http://www.w3.org/1999/xlink" x="0px" y="0px"
	 viewBox="0 0 100 100" style="enable-background:new 0 0 100 100;" xml:space="preserve">
<style type="text/css">
	.st0{fill:#FFFFFF;}
	.st1{fill:#231F20;}
	.st2{fill-rule:evenodd;clip-rule:evenodd;fill:#F48120;}
	.st3{fill-rule:evenodd;clip-rule:evenodd;fill:#1FB4E9;}
	.st4{fill-rule:evenodd;clip-rule:evenodd;fill:#DC1C8C;}
	.st5{fill:#1FB4E9;}
	.st6{fill:#DC1C8C;}
	.st7{fill:#FBB036;}
	.st8{fill:#ABD050;}
	.st9{fill:#169084;}
	.st10{fill:#F2736E;}
</style>
<g>
	<circle class="st0" cx="50" cy="50" r="50"/>
	<path class="st5" d="M81.94,33.95c-0.77-2.87-3.03-5.13-5.89-5.89C70.85,26.67,50,26.67,50,26.67s-20.85,0-26.05,1.39
		c-2.87,0.77-5.13,3.03-5.89,5.89C16.67,39.15,16.67,50,16.67,50s0,10.85,1.39,16.05c0.77,2.87,3.03,5.13,5.89,5.89
		C29.15,73.33,50,73.33,50,73.33s20.85,0,26.05-1.39c2.87-0.77,5.13-3.03,5.89-5.89C83.33,60.85,83.33,50,83.33,50
		S83.33,39.15,81.94,33.95z M43.33,60V40l17.32,10L43.33,60z"/>
</g>
</svg>
