<?xml version="1.0" encoding="utf-8"?>
<!-- Generator: Adobe Illustrator 27.0.0, SVG Export Plug-In . SVG Version: 6.00 Build 0)  -->
<svg version="1.1" id="Capa_1" xmlns="http://www.w3.org/2000/svg" xmlns:xlink="http://www.w3.org/1999/xlink" x="0px" y="0px"
	 viewBox="0 0 242 100" style="enable-background:new 0 0 242 100;" xml:space="preserve">
<style type="text/css">
	.st0{fill:#EFD911;}
	.st1{fill:#10C640;}
	.st2{fill:#231F20;}
	.st3{fill-rule:evenodd;clip-rule:evenodd;fill:#F48120;}
	.st4{fill:#FFFFFF;}
</style>
<g>
	<path class="st2" d="M235.63,68.9c0.52,0.35,1.05,0.48,1.54,0.39c0.51-0.09,0.89-0.36,1.17-0.8c0.29-0.47,0.37-0.94,0.24-1.44
		c-0.13-0.49-0.47-0.93-1.05-1.3c-0.37-0.24-0.71-0.39-1.06-0.44c-0.37-0.05-0.7-0.01-1,0.13c-0.31,0.14-0.54,0.36-0.74,0.66
		c-0.28,0.42-0.36,0.88-0.28,1.38C234.57,67.98,234.95,68.45,235.63,68.9 M235.21,69.5c-0.74-0.48-1.19-1.07-1.35-1.74
		c-0.16-0.68-0.03-1.35,0.37-1.99c0.27-0.41,0.61-0.73,1.03-0.93c0.41-0.21,0.86-0.29,1.32-0.24c0.47,0.07,0.93,0.24,1.38,0.53
		c0.45,0.3,0.8,0.66,1.03,1.09c0.24,0.41,0.35,0.86,0.31,1.31c-0.03,0.46-0.17,0.89-0.43,1.29c-0.27,0.44-0.62,0.75-1.04,0.94
		c-0.42,0.21-0.85,0.28-1.33,0.23C236.03,69.93,235.61,69.76,235.21,69.5 M0,27.43h5.09v22.02c0,1.96,0.72,3.58,2.14,4.84
		c1.44,1.26,3.33,1.91,5.7,1.91c2.49,0,4.45-0.61,5.88-1.84c1.44-1.24,2.15-2.91,2.15-5.01V27.43h5.09v22.38
		c0,3.25-1.17,5.78-3.52,7.62c-2.34,1.82-5.52,2.72-9.57,2.72c-4.15,0-7.35-0.89-9.59-2.66C1.12,55.69,0,53.12,0,49.78V27.43z
		 M57.71,60.07L38.5,36.52v23.09h-4.83V27.43h2.02L54.38,49.7V27.43h4.83v32.64H57.71z M67.63,27.43h5.08v32.17h-5.08V27.43z
		 M86.31,31.39v8.92h13.03v3.73H86.31v15.56h-5.08V27.43h22.94v3.96H86.31z M129.02,59.61l-9.89-13.81c-1.14,0-2.92-0.07-5.38-0.22
		v14.03h-5.08V27.4c0.19,0,1.5-0.05,3.95-0.17c2.44-0.1,4.22-0.15,5.34-0.15c8.92,0,13.38,3.08,13.38,9.24
		c0,2.03-0.71,3.85-2.15,5.47c-1.44,1.62-3.14,2.63-5.12,3.01l10.76,14.81H129.02z M113.76,31.34v10.49
		c1.23,0.15,2.4,0.22,3.55,0.22c3.03,0,5.24-0.42,6.63-1.29c1.39-0.84,2.08-2.36,2.08-4.56c0-1.81-0.75-3.11-2.23-3.89
		c-1.5-0.8-3.84-1.19-7.03-1.19C116.23,31.12,115.25,31.19,113.76,31.34 M159.78,59.61l-2.55-6.79h-13.88l-2.76,6.79h-5.66
		l15.1-32.63h1.36l14.01,32.63H159.78z M150.47,35.44l-5.79,14.13h11.08L150.47,35.44z M193.3,60.07l-19.21-23.56v23.09h-4.83V27.43
		h2.03l18.68,22.27V27.43h4.83v32.64H193.3z M201.1,59.61v-1.1l15.93-27.12l-15.93,0v-3.96l22.89-0.01v1.11L208,55.66h16.57v3.95
		H201.1z M170.99,6.85l0.59-0.37l1.6,2.58c0.27,0.45,0.45,0.85,0.5,1.17c0.07,0.33,0.02,0.65-0.13,0.99
		c-0.15,0.33-0.44,0.63-0.87,0.9c-0.41,0.27-0.8,0.4-1.15,0.42c-0.35,0.02-0.67-0.07-0.95-0.28c-0.29-0.2-0.58-0.54-0.86-1.01
		l-1.6-2.58l0.59-0.37l1.59,2.59c0.24,0.39,0.47,0.65,0.65,0.79c0.19,0.15,0.39,0.21,0.63,0.2c0.23-0.02,0.47-0.1,0.73-0.25
		c0.42-0.27,0.67-0.56,0.73-0.88c0.06-0.31-0.09-0.75-0.43-1.3L170.99,6.85z M175.43,10.29l-2.2-4.79l0.63-0.3l4.21,2.6l-1.74-3.75
		l0.61-0.29l2.2,4.78l-0.63,0.3l-4.22-2.59l1.75,3.75L175.43,10.29z M180.53,7.87l-1.8-4.96l0.66-0.23l1.78,4.96L180.53,7.87z
		 M183.88,6.97l-3.38-4.52l0.72-0.21l2.35,3.3c0.18,0.27,0.35,0.52,0.5,0.75c0-0.3,0-0.6,0.03-0.9l0.29-4.07l0.67-0.2l-0.5,5.63
		L183.88,6.97z M187.26,6.01l-0.82-5.21l3.71-0.59l0.1,0.61l-3.03,0.48l0.26,1.6l2.83-0.45l0.1,0.61l-2.83,0.45l0.27,1.78L191,4.8
		l0.09,0.6L187.26,6.01z M192.34,5.34l-0.19-5.26L194.44,0c0.47,0,0.83,0.02,1.08,0.11c0.23,0.09,0.44,0.25,0.59,0.48
		c0.16,0.24,0.23,0.5,0.24,0.79c0,0.38-0.1,0.7-0.32,0.97c-0.23,0.25-0.59,0.43-1.08,0.51c0.18,0.08,0.32,0.17,0.41,0.25
		c0.23,0.19,0.42,0.42,0.6,0.69l0.96,1.4l-0.86,0.03l-0.74-1.07c-0.2-0.31-0.38-0.55-0.51-0.71c-0.13-0.16-0.25-0.27-0.36-0.34
		c-0.1-0.07-0.2-0.11-0.31-0.13c-0.09-0.02-0.21-0.02-0.4-0.02l-0.8,0.03l0.09,2.34L192.34,5.34z M192.92,2.38l1.48-0.05
		c0.32-0.01,0.55-0.04,0.73-0.13c0.18-0.06,0.31-0.18,0.4-0.32c0.08-0.15,0.12-0.31,0.12-0.48c-0.01-0.25-0.11-0.45-0.29-0.61
		c-0.19-0.15-0.47-0.22-0.86-0.21l-1.63,0.06L192.92,2.38z M197.39,3.53l0.65-0.01c0.01,0.26,0.07,0.48,0.17,0.66
		c0.1,0.18,0.27,0.33,0.5,0.46c0.23,0.12,0.49,0.2,0.77,0.21c0.27,0.02,0.5,0,0.71-0.06c0.2-0.06,0.37-0.16,0.47-0.29
		c0.1-0.13,0.17-0.27,0.17-0.44c0.03-0.16-0.02-0.31-0.11-0.44c-0.09-0.13-0.23-0.24-0.45-0.35c-0.14-0.06-0.43-0.17-0.91-0.33
		c-0.47-0.14-0.8-0.28-0.98-0.4c-0.24-0.14-0.41-0.33-0.52-0.52c-0.11-0.2-0.16-0.42-0.14-0.67c0.02-0.27,0.11-0.51,0.27-0.73
		c0.16-0.22,0.39-0.38,0.69-0.48c0.29-0.1,0.62-0.13,0.97-0.11c0.39,0.03,0.72,0.11,1,0.26c0.29,0.15,0.5,0.36,0.64,0.61
		c0.15,0.26,0.2,0.53,0.2,0.84h-0.67c-0.01-0.33-0.11-0.58-0.31-0.77c-0.19-0.19-0.48-0.29-0.89-0.32
		c-0.42-0.03-0.73,0.02-0.93,0.16c-0.2,0.15-0.31,0.32-0.32,0.54c-0.01,0.18,0.03,0.34,0.17,0.48c0.12,0.13,0.46,0.28,1.01,0.45
		c0.55,0.17,0.93,0.31,1.12,0.43c0.3,0.15,0.5,0.36,0.63,0.59c0.13,0.22,0.19,0.48,0.18,0.76c-0.02,0.28-0.12,0.53-0.3,0.78
		c-0.17,0.23-0.42,0.41-0.71,0.52c-0.31,0.12-0.64,0.16-1.01,0.14c-0.47-0.04-0.86-0.14-1.18-0.3c-0.3-0.17-0.53-0.39-0.69-0.68
		C197.45,4.21,197.38,3.9,197.39,3.53 M202.81,5.86l0.89-5.19l0.67,0.13l-0.89,5.19L202.81,5.86z M204.8,6.2l1.25-5.11l1.75,0.45
		c0.39,0.1,0.68,0.2,0.89,0.3c0.26,0.14,0.48,0.32,0.65,0.55c0.2,0.29,0.34,0.64,0.38,1.03c0.04,0.39,0.01,0.81-0.1,1.27
		c-0.1,0.38-0.22,0.71-0.39,0.99c-0.15,0.28-0.33,0.51-0.52,0.66c-0.19,0.16-0.38,0.28-0.58,0.35c-0.19,0.07-0.41,0.1-0.66,0.1
		c-0.25,0-0.52-0.03-0.84-0.11L204.8,6.2z M205.62,5.78l1.08,0.27c0.33,0.08,0.6,0.12,0.81,0.11c0.21-0.02,0.36-0.07,0.51-0.14
		c0.2-0.12,0.38-0.31,0.54-0.56c0.15-0.25,0.27-0.57,0.36-0.95c0.13-0.54,0.15-0.97,0.04-1.3c-0.1-0.33-0.26-0.58-0.5-0.74
		c-0.15-0.11-0.43-0.22-0.83-0.32l-1.06-0.28L205.62,5.78z M209.6,7.37l3.8-4.12l0.69,0.29l0.03,5.69l-0.72-0.3l0.03-1.7l-2.03-0.84
		l-1.11,1.27L209.6,7.37z M211.78,5.93l1.66,0.68l0.02-1.57c0.03-0.48,0.04-0.86,0.07-1.15c-0.19,0.29-0.4,0.56-0.64,0.83
		L211.78,5.93z M214.61,9.62l2.58-4.55l1.56,0.91c0.35,0.2,0.61,0.38,0.76,0.54c0.23,0.21,0.39,0.44,0.48,0.7
		c0.13,0.35,0.16,0.71,0.08,1.1c-0.05,0.39-0.2,0.78-0.42,1.18c-0.2,0.35-0.41,0.62-0.66,0.84c-0.23,0.23-0.46,0.38-0.68,0.49
		c-0.22,0.11-0.45,0.17-0.65,0.17c-0.2,0.02-0.43,0-0.67-0.08c-0.24-0.07-0.5-0.19-0.78-0.34L214.61,9.62z M215.51,9.44l0.96,0.56
		c0.29,0.18,0.55,0.29,0.75,0.33c0.2,0.05,0.37,0.05,0.53,0c0.23-0.06,0.44-0.18,0.66-0.37c0.23-0.2,0.43-0.47,0.63-0.81
		c0.27-0.48,0.39-0.9,0.39-1.25c-0.01-0.34-0.1-0.62-0.28-0.84c-0.12-0.16-0.36-0.34-0.72-0.55l-0.94-0.56L215.51,9.44z
		 M221.06,13.69l3.27-4.09l1.53,1.25c0.26,0.22,0.46,0.4,0.59,0.55c0.17,0.19,0.28,0.39,0.35,0.6c0.06,0.21,0.06,0.43,0,0.66
		c-0.05,0.24-0.16,0.45-0.31,0.66c-0.3,0.34-0.62,0.55-1.04,0.61c-0.4,0.06-0.9-0.14-1.47-0.61l-1.04-0.87l-1.33,1.67L221.06,13.69z
		 M223.31,11.98l1.05,0.85c0.35,0.29,0.65,0.42,0.9,0.42c0.24-0.01,0.46-0.14,0.65-0.37c0.15-0.17,0.22-0.34,0.23-0.55
		c0.02-0.19-0.03-0.36-0.13-0.52c-0.09-0.09-0.24-0.25-0.5-0.45l-1.04-0.85L223.31,11.98z M224.76,16.89l3.81-3.59l1.58,1.71
		c0.31,0.35,0.52,0.64,0.61,0.89c0.1,0.23,0.11,0.49,0.04,0.77c-0.08,0.27-0.23,0.51-0.44,0.7c-0.27,0.25-0.57,0.38-0.91,0.38
		c-0.35-0.02-0.72-0.17-1.12-0.49c0.07,0.2,0.1,0.35,0.1,0.48c0,0.29-0.04,0.59-0.12,0.91l-0.43,1.64l-0.58-0.63l0.32-1.26
		c0.08-0.37,0.13-0.66,0.18-0.86c0.03-0.21,0.03-0.38,0.01-0.5c-0.02-0.12-0.06-0.22-0.12-0.32c-0.03-0.07-0.11-0.18-0.24-0.3
		l-0.54-0.59l-1.69,1.59L224.76,16.89z M227.37,15.41l1.01,1.09c0.22,0.24,0.41,0.39,0.58,0.47c0.16,0.09,0.32,0.12,0.5,0.09
		c0.16-0.03,0.31-0.1,0.43-0.22c0.18-0.17,0.27-0.38,0.26-0.61c0-0.24-0.14-0.5-0.4-0.79l-1.13-1.22L227.37,15.41z M228.45,20.98
		l4.04-3.31l0.43,0.54l-4.04,3.3L228.45,20.98z M230.64,24l3.26-4.58l0.41,0.64l-2.44,3.21c-0.19,0.27-0.38,0.51-0.56,0.72
		c0.29-0.09,0.57-0.16,0.88-0.23l3.93-0.89l0.38,0.6l-5.46,1.13L230.64,24z M231.93,26.1l5.53-0.58l0.35,0.68l-3.68,4.3l-0.35-0.72
		l1.13-1.25l-1-1.99l-1.66,0.21L231.93,26.1z M234.51,26.48l0.81,1.6l1.04-1.15c0.31-0.34,0.57-0.63,0.79-0.84
		c-0.33,0.1-0.66,0.16-1.01,0.21L234.51,26.48z M234.55,31.04l4.89-1.79l0.61,1.71c0.15,0.38,0.23,0.69,0.25,0.91
		c0.04,0.31,0,0.6-0.09,0.86c-0.13,0.34-0.33,0.63-0.62,0.89c-0.28,0.25-0.65,0.47-1.09,0.63c-0.37,0.14-0.72,0.21-1.05,0.23
		c-0.3,0.01-0.59,0-0.83-0.07c-0.23-0.07-0.44-0.17-0.6-0.29c-0.17-0.13-0.33-0.29-0.45-0.51c-0.15-0.2-0.27-0.46-0.38-0.76
		L234.55,31.04z M235.37,31.5l0.38,1.06c0.11,0.33,0.23,0.57,0.36,0.73c0.12,0.17,0.27,0.29,0.41,0.36
		c0.21,0.09,0.46,0.14,0.75,0.13c0.29-0.01,0.62-0.08,0.99-0.21c0.52-0.18,0.89-0.42,1.09-0.69c0.21-0.26,0.32-0.54,0.33-0.81
		c0.01-0.2-0.07-0.49-0.2-0.89l-0.38-1.04L235.37,31.5z M236.27,35.58l5.53,0.7l0.19,0.75l-4.54,3.36l-0.18-0.78l1.38-0.97
		l-0.53-2.16l-1.66-0.17L236.27,35.58z M238.71,36.53l0.44,1.75l1.26-0.89c0.39-0.25,0.71-0.47,0.97-0.62
		c-0.35,0.01-0.7-0.01-1.04-0.04L238.71,36.53z M189.75,92.53l1.48-5.21l3.46,1.01l-0.18,0.61l-2.79-0.8l-0.46,1.61l2.41,0.71
		l-0.17,0.59l-2.41-0.69l-0.67,2.35L189.75,92.53z M194.53,93.8l0.65-5.38l2.36,0.29c0.47,0.07,0.82,0.17,1.06,0.29
		c0.22,0.12,0.4,0.31,0.52,0.57c0.11,0.27,0.16,0.55,0.13,0.85c-0.05,0.37-0.21,0.66-0.5,0.9c-0.27,0.25-0.67,0.37-1.17,0.37
		c0.17,0.11,0.3,0.23,0.38,0.32c0.18,0.22,0.35,0.48,0.5,0.8l0.74,1.57l-0.89-0.1l-0.55-1.21c-0.18-0.34-0.3-0.62-0.41-0.8
		c-0.12-0.21-0.22-0.32-0.32-0.41c-0.09-0.08-0.2-0.15-0.3-0.19c-0.08-0.01-0.2-0.05-0.39-0.06l-0.81-0.12l-0.29,2.38L194.53,93.8z
		 M195.6,90.89l1.51,0.19c0.33,0.03,0.58,0.03,0.77,0c0.18-0.07,0.34-0.15,0.44-0.29c0.12-0.13,0.18-0.29,0.2-0.47
		c0.04-0.24-0.03-0.45-0.2-0.65c-0.15-0.18-0.43-0.29-0.82-0.35l-1.67-0.21L195.6,90.89z M199.57,94.34l1.86-5.48l0.77-0.03
		l2.37,5.32l-0.81,0.03l-0.67-1.61l-2.25,0.08l-0.52,1.66L199.57,94.34z M201.04,92.06l1.82-0.07l-0.61-1.47
		c-0.18-0.45-0.32-0.82-0.43-1.12c-0.07,0.35-0.14,0.69-0.25,1.04L201.04,92.06z M205.46,93.92l-1.02-5.3l0.71-0.15l3.54,3.62
		l-0.8-4.17l0.67-0.13l1.02,5.31l-0.7,0.15l-3.54-3.64l0.78,4.18L205.46,93.92z M210.82,92.96l-0.22-0.6l1.4-4.22
		c0.1-0.3,0.21-0.56,0.3-0.79l-2.8,1.02l-0.21-0.59l3.58-1.34l0.21,0.61l-1.55,4.57l-0.17,0.46l3.22-1.18l0.2,0.6L210.82,92.96z
		 M220.63,88.26l-2.5-4.05l-1.49,0.95l-0.33-0.53l3.59-2.27l0.33,0.53l-1.49,0.95l2.5,4.06L220.63,88.26z M222.54,86.94l-1.59-5.57
		l0.63-0.48l4.94,3l-0.64,0.49l-1.47-0.92l-1.79,1.36l0.5,1.67L222.54,86.94z M222.44,84.23l1.45-1.11l-1.33-0.87
		c-0.41-0.26-0.73-0.48-0.97-0.67c0.13,0.34,0.27,0.67,0.38,1.02L222.44,84.23z M227.08,83.28l-3.7-3.89l0.76-0.75l3.54,1.86
		l0.73,0.39l-0.4-0.82l-1.66-3.6l0.68-0.67l3.71,3.89l-0.49,0.47l-3.1-3.25l1.98,4.35l-0.46,0.46l-4.27-2.24l3.17,3.33L227.08,83.28
		z M231.27,79.04l-2.78-5.05l0.5-0.6l5.5,1.79l-0.53,0.62l-1.63-0.58l-1.45,1.75l0.87,1.5L231.27,79.04z M230.57,76.43l1.19-1.41
		l-1.49-0.54c-0.46-0.16-0.82-0.31-1.1-0.42c0.23,0.29,0.43,0.59,0.61,0.88L230.57,76.43z M235.46,73.76l-1.8-1.37l-3.69-0.22
		l0.5-0.68l1.93,0.13c0.35,0.01,0.71,0.05,1.05,0.11c-0.12-0.3-0.25-0.64-0.4-1.05l-0.64-1.79l0.5-0.67l1.18,3.61l1.81,1.37
		L235.46,73.76z"/>
	<path class="st3" d="M19.09,90.87c-1.41,0.55-2.33,0.39-3.85,0.39c-0.99,0-1.63,0.03-2.52-0.39c-0.82-0.38-1.11-1.18-2.03-1.18
		c-1.22,0-1.51,1.22-2.41,2.04c-0.58,0.55-1.36,0.24-1.94,0.79c-0.84,0.79-1.09,1.61-1.09,2.76c0,1.09,0.15,1.99,1,2.61
		c0.63,0.42,1.26,0.11,1.96,0.47c0.46,0.24,0.4,0.77,0.84,1.02c1.29,0.74,2.28,0.48,3.76,0.48h2.38c0.3,0,0.44,0.15,0.73,0.15h1.85
		l4.9-1.27c0,0,9.06-2.77,31.13-11.16c20.7-7.89,68.81-21.43,83.43-17.96c0,0-35.61,6.37-49.18,13.7c-9.03,4.87,2.96,4.87,9.34,1.58
		c0,0,17.13-5.21,18.84-5.04c0,0,2.63,1.88,7.31,0.15c4.67-1.74,20.86-1.91,20.86-1.91s21.01-1.42,28.17-1.42
		c0.15,0,34.56-5.03,41.56-4.09c0,0,3.89,0.16,5.6,0.48c1.71,0.31,7.01-0.8,0.94-2.21c0,0-26.61-3.78-58.68,0.47
		c0,0-27.24,4.4-30.66,4.26c0,0-4.68-0.32,0.46-1.27c5.13-0.94,19.15-3.14,20.54-8.5c0,0-18.67,0.94-20.08,1.1
		c-1.39,0.15-4.83,1.1-7.78,1.41c-2.96,0.32-23.04,2.52-66.62,12.29c0,0-32.38,9.29-34.87,9.6C20.49,90.55,19.09,90.87,19.09,90.87"
		/>
</g>
</svg>
