<?xml version="1.0" encoding="utf-8"?>
<!-- Generator: Adobe Illustrator 27.0.0, SVG Export Plug-In . SVG Version: 6.00 Build 0)  -->
<svg version="1.1" id="Capa_1" xmlns="http://www.w3.org/2000/svg" xmlns:xlink="http://www.w3.org/1999/xlink" x="0px" y="0px"
	 viewBox="0 0 100 100" style="enable-background:new 0 0 100 100;" xml:space="preserve">
<style type="text/css">
	.st0{fill:#EFD911;}
	.st1{fill:#10C640;}
	.st2{fill:#231F20;}
	.st3{fill-rule:evenodd;clip-rule:evenodd;fill:#F48120;}
	.st4{fill:#FFFFFF;}
</style>
<g id="mQDEt2_00000157999463116930615810000000054643642338242438_">
	<g>
		<g>
			<path class="st4" d="M67.2,0c1.82,0.62,3.7,1.21,5.08,2.6c1.16,1.17,2.28,2.44,3.11,3.85c1.76,2.98,3.33,6.08,5.04,9.24
				c2.35-1.22,4.66-2.42,6.96-3.62c0.04,0.04,0.08,0.08,0.12,0.12c-1.44,2.38-2.88,4.76-4.32,7.15c-2.43,4.02-4.85,8.05-7.32,12.06
				c-0.2,0.33-0.69,0.68-1.04,0.68c-7.19-0.03-14.39-0.11-21.58-0.18c-0.12,0-0.23-0.03-0.59-0.07c2.2-1.43,4.19-2.72,6.25-4.06
				c-1.22-2.26-2.4-4.46-3.6-6.65c-2.12-3.86-4.17-7.76-6.41-11.55c-2.5-4.24-5.85-7.59-10.64-9.4c0.7,0,1.39,0.02,2.09,0
				C42.09,0.12,43.85,0.06,45.6,0C52.8,0,60,0,67.2,0z"/>
		</g>
		<g>
			<path class="st4" d="M0,52.56c2.36-4.74,4.72-9.47,7.12-14.3c-2.09-1.65-4.24-3.34-6.39-5.04c0.02-0.08,0.05-0.15,0.07-0.23
				c0.92,0,1.84,0.01,2.76,0c6.53-0.05,13.06-0.08,19.58-0.16c0.76-0.01,1.17,0.2,1.54,0.9c3.56,6.68,7.16,13.34,10.75,20
				c0.08,0.14,0.13,0.3,0.31,0.69c-2.31-1.25-4.42-2.38-6.65-3.58c-0.78,1.26-1.54,2.5-2.3,3.74c-2.03,3.33-4.08,6.65-6.08,10
				c-0.35,0.59-0.74,0.82-1.43,0.8c-3.36-0.1-6.75-0.04-10-1.04c-4.48-1.37-7.63-4.22-9.11-8.76C0.15,55.5,0.06,55.44,0,55.37
				C0,54.43,0,53.49,0,52.56z"/>
		</g>
		<g>
			<path class="st4" d="M100,55.57c-0.7,2.2-1.8,4.13-3.7,5.53c-2.9,2.14-6.22,3.19-9.72,3.65c-2.2,0.3-4.44,0.32-6.67,0.38
				c-0.36,0.01-0.91-0.29-1.08-0.61c-3.34-6.12-6.64-12.27-9.94-18.41c-0.06-0.11-0.09-0.24-0.17-0.46
				c7.11-4.35,14.2-8.69,21.4-13.1c0.62,1.22,1.21,2.37,1.79,3.51c2.4,4.73,4.81,9.46,7.2,14.2c0.34,0.68,0.59,1.4,0.89,2.09
				C100,53.43,100,54.5,100,55.57z"/>
		</g>
		<g>
			<path class="st4" d="M63.87,59.35c0.12,2.3,0.27,4.36,0.31,6.42c0.02,0.9,0.27,1.19,1.2,1.18c5.57-0.05,11.13,0.05,16.7-0.06
				c2.45-0.05,4.92-0.32,7.33-0.8c3.15-0.62,5.94-2.13,8.43-4.55c-0.09,0.35-0.1,0.5-0.17,0.62c-4.34,8.13-8.61,16.29-13.04,24.36
				c-1.96,3.57-5.29,5.32-9.29,5.52c-3.36,0.17-6.73,0.04-10.1,0.04c-0.33,0-0.66,0-1.25,0c0,2.69,0,5.29,0,7.89
				c-0.12,0.01-0.23,0.02-0.35,0.04c-1.18-2.16-2.36-4.32-3.54-6.48c-2.4-4.39-4.8-8.78-7.17-13.19c-0.18-0.34-0.24-0.93-0.07-1.24
				c3.52-6.44,7.08-12.87,10.63-19.29C63.55,59.71,63.62,59.65,63.87,59.35z"/>
		</g>
		<g>
			<path class="st4" d="M45,92.08c-0.26,0.02-0.45,0.05-0.64,0.05c-6.03-0.02-12.06,0.06-18.09-0.1c-3.5-0.09-6.88-0.9-9.56-3.44
				c-0.36-0.34-0.71-0.72-0.94-1.15c-4.6-8.47-9.17-16.96-13.75-25.44c-0.07-0.13-0.13-0.28-0.07-0.15
				c1.71,1.06,3.52,2.35,5.47,3.36c2.09,1.09,4.42,1.45,6.77,1.46c9.69,0.06,19.39,0.1,29.08,0.16c0.56,0,1.12,0.08,1.73,0.13
				C45,75.34,45,83.65,45,92.08z"/>
		</g>
		<g>
			<path class="st4" d="M38.62,34.12c-7.21-4.28-14.33-8.52-21.57-12.82c0.6-0.94,1.17-1.83,1.75-2.72
				c3.01-4.65,6.09-9.25,8.99-13.97c1.71-2.78,5.82-4.39,9.3-3.21c3.07,1.04,5.56,2.97,7.51,5.45c1.93,2.44,3.52,5.17,5.22,7.79
				c0.19,0.29,0.23,0.87,0.07,1.15c-3.61,5.97-7.26,11.91-10.9,17.85C38.89,33.79,38.77,33.92,38.62,34.12z"/>
		</g>
	</g>
</g>
</svg>
