<?xml version="1.0" encoding="UTF-8"?>
<svg id="Capa_2" data-name="Capa 2" xmlns="http://www.w3.org/2000/svg" viewBox="0 0 107.24 147.92">
  <defs>
    <style>
      .cls-1 {
        fill: #fbd7c7;
      }

      .cls-2 {
        fill: #c2634d;
      }

      .cls-3 {
        fill: #b29b4e;
      }

      .cls-4 {
        fill: #fbd5a7;
      }

      .cls-5 {
        fill: #ea987c;
      }

      .cls-6 {
        fill: #c2604c;
      }

      .cls-7 {
        fill: #de943d;
      }

      .cls-8 {
        fill: #5db13b;
      }

      .cls-9 {
        fill: #f7b48a;
      }

      .cls-10 {
        fill: #4ba98a;
      }

      .cls-11 {
        fill: #148b80;
        opacity: .9;
      }

      .cls-12 {
        fill: #5bb03b;
      }

      .cls-13 {
        fill: #90bd7a;
      }

      .cls-14 {
        fill: #c2604d;
      }

      .cls-15 {
        fill: #dc9339;
      }

      .cls-16 {
        fill: #f7b48b;
      }

      .cls-17 {
        opacity: .44;
      }

      .cls-18 {
        fill: #de953a;
      }

      .cls-19 {
        fill: #3c3c3b;
      }

      .cls-20 {
        fill: #d37a3e;
      }

      .cls-21 {
        fill: #d4824c;
      }

      .cls-22 {
        fill: #f6ba6b;
      }

      .cls-23 {
        fill: #5db03a;
      }

      .cls-24 {
        fill: #ec9a7d;
      }

      .cls-25 {
        fill: #c58757;
      }

      .cls-26 {
        fill: #5db03b;
      }

      .cls-27 {
        fill: #f4be7d;
      }

      .cls-28 {
        fill: #f9be71;
      }

      .cls-29 {
        fill: #d27a3d;
      }
    </style>
  </defs>
  <g id="ACCION_TEC" data-name="ACCION TEC">
    <g>
      <g class="cls-17">
        <path class="cls-19" d="M101.68,103.77c1.08,.26,1.98,.78,2.49,1.83,.16,.38-.12,.34-.31,.29-2.6-.74-4.73,.41-6.83,1.7-.28,.17-.5,.41-.72,.64-.59,.64-.57,1.17-.02,1.84,.23,.27,.7,.44,.49,.95-6.44,4-12.87,7.99-19.15,12.24-.78,.53-1.58,1.05-2.27,1.72-1.01,.98-2.31,1.22-3.63,1.36-4.47,.48-8.94,.77-13.43,1-3.19,.16-6.38,.37-9.57,.55-3.7,.2-7.4,.37-11.1,.57-.76,.04-1.52,.16-2.27,.26-.41,.05-.72,.26-.97,.61-1.12,1.55-1.97,3.25-2.79,4.96-2.05,4.33-4,8.71-5.84,13.14-.12,.29-.26,.5-.65,.5-4.31-.02-8.63-.03-12.94-.03-.17-.2-.07-.38,.04-.57,1.37-2.36,2.68-4.76,4.07-7.11,2.48-4.19,5-8.35,7.72-12.38,1.37-2.04,2.76-4.05,4.25-6.01,.9-1.18,1.86-2.31,2.84-3.41,.66-.74,1.44-1.36,2.29-1.91,.99-.64,2.08-.55,3.17-.46,1.78,.15,3.55,.25,5.33,.37,1.75,.11,3.51,.26,5.26,.37,1.69,.11,3.37,.2,5.06,.32,2.82,.21,5.64,.27,8.46,.39,1.37,.06,2.74,0,4.1,.04,.09,0,.18,.02,.27,.05,.07,.02,.13,.06,.19,.11,.15,.21,.12,.49,.26,.7,.1,.31,.33,.6,.06,.93-.6,.2-1.24,.21-1.85,.22-1.32,.02-2.63,.23-3.95,.18-2.43-.08-4.85,.19-7.28,.16-1.26-.02-2.22,.72-3.12,1.51-.4,.35-.76,.75-1.13,1.15-.06,.04,.08,.12,.02,.05-.02-.02,0-.03,.03-.05,.17-.13,.36-.2,.58-.2,.48,.08,.96,.04,1.45,0,1.5-.15,3-.26,4.5-.36,1.85-.12,3.69-.26,5.54-.37,.97-.06,1.94-.09,2.91-.15,1.87-.13,3.74-.23,5.62-.17,1.67,.06,3.2-.44,4.65-1.21,2.05-1.09,3.96-2.39,5.82-3.79,1.58-1.19,3.23-2.25,4.98-3.17,.08-.04-.03-.01,.06-.03,1.87-.37,3.1-1.78,4.54-2.84,1.9-1.41,3.82-2.8,5.88-3.96,1.72-.98,3.52-1.85,5.44-2.43,.48-.14,.95-.2,1.43-.07Z"/>
        <path class="cls-19" d="M65.21,117.7c-1.75,0-3.51,.04-5.26-.02-2.79-.1-5.58-.22-8.36-.42-2.07-.14-4.14-.28-6.21-.41-2.32-.14-4.64-.4-6.96-.51-1.22-.06-2.44-.29-3.67-.16-.96,.1-1.68,.72-2.39,1.31-1.3,1.09-2.39,2.37-3.41,3.71-1.63,2.13-3.24,4.27-4.65,6.56-1.1,1.79-2.33,3.49-3.44,5.28-1.1,1.78-2.13,3.62-3.25,5.39-1.47,2.32-2.68,4.79-4.17,7.1-.47,.73-.91,1.53-1.25,2.35-3.34,0-6.68,.02-10.01,.02-.47-.07-.32-.32-.17-.58,.85-1.46,1.79-2.87,2.65-4.33,1.3-2.22,2.65-4.4,4.01-6.59,1.27-2.05,2.56-4.08,3.81-6.14,2.11-3.46,4.31-6.87,6.54-10.26,1.9-2.9,3.72-5.87,5.96-8.54,.16-.2,.31-.44,.54-.53,1.53-.58,2.77-1.78,4.44-2.08,1.42-.26,2.82-.43,4.27-.3,5.03,.45,9.72,2.08,14.36,3.93,.67,.27,1.38,.34,2.09,.46,1.82,.31,3.65,.25,5.47,.35,2.31,.12,4.63,.14,6.93-.27,.8-.14,1.58-.35,2.37-.49,2.05-.05,4.07,.23,6.06,.68,.6,.24,1.18,.22,1.82,0,4.05-1.33,8.14-2.54,12.23-3.73,.5-.14,.95-.35,1.39-.63,3.01-1.93,6.19-3.54,9.45-5.01,.9-.4,1.85-.58,2.83-.67,.52-.05,1.02,.01,1.46,.32,.35,.03,.69,.08,1,.26-1.09,.02-2.08,.45-3.05,.86-2.62,1.09-5.06,2.52-7.38,4.17-1.29,.92-2.61,1.82-3.81,2.84-.89,.76-1.9,1.12-2.92,1.6-1.4,.67-2.74,1.48-4.01,2.42-1.77,1.31-3.55,2.64-5.43,3.78-1.5,.91-3.08,1.77-4.89,1.96-.11,.01-.23,.06-.34,.05-2.73-.05-5.45,.12-8.17,.27-2.76,.16-5.52,.33-8.28,.54-1.19,.09-2.39,.18-3.58,.29-.3,.03-.65,.14-.91-.16,.13-.46,.56-.53,.91-.65,1.64-.56,3.35-.71,5.05-.9,2.94-.34,5.9-.54,8.86-.73,2.33-.15,4.65-.31,6.9-.25-.45-.06-.99,.03-1.52-.04,.03-.49,.43-.36,.7-.38,.88-.07,1.78,.08,2.65-.15,1.2-.11,1.77-.95,2.21-1.93,.08-.18,.05-.36,0-.54-.06-.18,.05-.5-.22-.5-.27,0-.5,.21-.57,.51-.06,.27,0,.55-.08,.81-.08,.12-.13,.29-.33,.13-.17-.27-.13-.58-.15-.88-.06-.72-.32-1.1-1.02-1.19-1.99-.25-3.99-.36-6-.32-.47,0-.59,.34-.74,.7-.22,.51-.02,1.12-.37,1.59Z"/>
        <path class="cls-19" d="M46.32,101.15c.8-2.55,2.01-4.91,3.35-7.21,.24-.29,.58-.26,.9-.26,5.7,0,11.39,0,17.09,0,.32,0,.66-.04,.89,.27,1.76,2.96,3.19,6.06,3.99,9.43,.02,.09,.01,.18,.02,.27,.05,.62-.22,.8-.85,.76-2.39-.16-4.53,.76-6.66,1.68-2.74,1.19-5.39,2.57-8.12,3.77-2.02,.89-4.08,1.64-6.33,1.69-.93-.16-1.79-.46-2.56-1.02-1.42-1.71-2.05-3.67-1.97-5.89,.04-1.17,0-2.34,.25-3.5Z"/>
        <path class="cls-19" d="M67.16,44.42c-.69,.6-1.1,1.42-1.64,2.14-1.57,2.11-3.32,3.98-5.87,4.91-.08,.12-.14,.25-.14,.39,0,1.6-.06,3.19,.03,4.79,.03,.48,.07,.97-.03,1.45-.08,.42-.32,.49-.64,.25-.63-.46-1.09-.93-1.07-1.86,.07-2.94-.03-5.88,.04-8.82,.08-2.85,.02-5.69,.05-8.54,0-.2,.09-.42-.09-.59-1.26-.65-2.31-1.62-3.46-2.44-.36-.25-.73-.49-1.09-.74-.17,.03-.27-.04-.31-.2-1.28-1.01-2.64-1.91-4.02-2.78-.17-.05-.36-.07-.41-.29-1.54-1.04-3.09-2.09-4.63-3.13-.1-.07-.2-.11-.32-.05-.06,0-.09-.01-.09-.05,0-.04,.01-.06,.03-.06-.73-.68-1.62-1.13-2.44-1.69-1.2-.81-2.41-1.6-3.59-2.45,1.61,.4,3.05,1.18,4.53,1.87,.58-.03,.89,.41,1.29,.71,1.32,.71,2.64,1.41,3.97,2.12,.22,.12,.46,.21,.69,.32,.34,0,.52,.22,.69,.46,1.77,.99,3.54,1.98,5.31,2.97h-.01c1.04,.67,2.04,1.43,3.39,1.43,.45,0,.63-.11,.64-.62,.06-4.01,.15-8.02,.25-12.03,.01-.52-.09-.83-.6-1.08-1.11-.54-1.94-1.44-2.61-2.45-1.4-2.11-3.35-3.63-5.37-5.09-.45-.32-.89-.64-1.51-1.08,1.07,.24,1.77,.8,2.56,1.16,.5,.06,.9,.3,1.2,.7,1.32,.98,2.64,1.95,3.95,2.93,.45,.09,.85,.28,1.16,.64,.2,.06,.39,.14,.59,.18,.54,.11,.77-.05,.78-.67,.02-2.27,.13-4.54,.42-6.79,.02-.13,0-.28,.26-.43,0,.62,0,1.16,0,1.69,.05,4.08,.11,8.16,.14,12.24,0,.62,.24,.77,.78,.68,.7-.11,1.35-.32,1.86-.85,.05-.18,.2-.23,.34-.3,.24-.07,.42-.23,.55-.43,.04-.05,.08-.09,.13-.13,.43-.3,.82-.68,1.33-.86,.32-.2,.58-.47,.95-.57,.62-.39,1.31-.69,1.78-1.3,.14-.16,.3-.27,.49-.36,.23-.08,.44-.23,.68-.3,.15-.04,.34-.12,.43,.05,.1,.17-.09,.27-.19,.38-.06,.06-.15,.1-.2,.18h0c-.23,.09-.4,.26-.57,.43-.34,.31-.68,.62-1.02,.93-.02,.16-.1,.25-.27,.27-.91,.6-1.63,1.41-2.31,2.23-.42,.51-.76,1.09-1.14,1.64,0,.13-.02,.24-.18,.27-.97,.93-1.9,1.9-3.18,2.41-.37,.15-.21,.48-.2,.73,.06,4.61,.14,9.22,.21,13.82,.01,.79,.04,1.58,.01,2.36-.02,.44,.19,.57,.56,.6,.47,.04,.93-.03,1.37-.18,1.64-.53,3-1.52,4.21-2.72,.85-.91,1.92-1.52,2.94-2.21,.34-.22,.66-.46,1.05-.58,.88-.62,1.87-1.07,2.68-1.79,.65-.69,1.55-.99,2.3-1.52,.29-.14,.61-.21,.93-.28,.62-.31,1.26-.59,2-.61-.86,.58-1.71,1.16-2.56,1.76-.22,.15-.5,.26-.59,.56-.33,.46-.82,.67-1.3,.92-1.43,.87-2.65,2-3.85,3.15-.47,.46-.91,.96-1.29,1.5-.25,.24-.38,.61-.78,.69Z"/>
        <path class="cls-19" d="M60.07,84.3c.87-.24,1.69-.61,2.59-.76,.89-.15,1.68-.04,2.25,.72,.74,.99,1.64,1.09,2.69,.59,.48-.23,.97-.44,1.47-.63,1.67-.64,2.6,.03,2.41,1.82-.19,1.79-1.07,3.28-2.32,4.55-.16,.16-.32,.33-.49,.49-.2,.26-.49,.24-.76,.24-5.85,0-11.7,0-17.55,0-.3,0-.61,.03-.81-.27-1.29-1.04-2.46-2.17-2.91-3.85-.14-.53-.14-1.06-.04-1.58,.16-.85,.71-1.31,1.48-.99,1.74,.71,3.31,.57,4.92-.41,.73-.45,1.59-.29,2.37,.19,.65,.4,1.37,.68,2.17,.56,.11-.07,.23-.14,.37-.15,.13-.02,.26-.05,.39-.1,.6-.13,1.15-.43,1.78-.42Z"/>
        <path class="cls-19" d="M48.09,110.47c.82,.34,1.62,.76,2.51,.93,.93-.03,1.84,.12,2.75,.28,3.59,.61,7.2,.9,10.84,.8,.4-.01,.84-.12,1.18,.24-1.78,.48-3.59,.74-5.44,.81-2.46,.09-4.91-.08-7.36-.19-1.91-.09-3.79-.47-5.6-1.3-2.07-.95-4.29-1.56-6.51-2.14-1.58-.42-3.17-.85-4.79-1.04-2.87-.33-5.72-.36-8.27,1.32-.45,.29-.88,.57-1.4,.72-.78,.23-1.09,.97-1.54,1.53-1.89,2.36-3.48,4.94-5.15,7.45-1.99,3-3.88,6.07-5.81,9.11-1.52,2.4-2.99,4.83-4.51,7.23-.94,1.5-1.85,3.03-2.73,4.56-1.14,1.98-2.38,3.9-3.59,5.84-.19,.31-.29,.67-.6,.92-.21,.17-.01,.27,.13,.36-.64,0-1.27,.02-1.91-.01-.47-.02-.22-.27-.1-.46,1-1.64,2-3.28,2.99-4.92,2.31-3.81,4.61-7.64,6.94-11.44,1.71-2.8,3.48-5.56,5.21-8.35,1.98-3.18,4-6.33,6.04-9.47,1.93-2.96,4.58-4.86,8-5.65,2.28-.52,4.59-.46,6.9-.24,2.94,.28,5.77,1.05,8.55,2,.5,.17,.33-.2,.4-.39,.64,.61,1.48,.79,2.26,1.1,.23,.09,.46,.19,.64,.38Z"/>
        <path class="cls-19" d="M65.36,112.72c-.88-.03-1.76-.11-2.64-.08-4.1,.16-8.12-.47-12.13-1.24,.68-.1,1.36-.19,2.04-.29,1.85-.29,3.54-1.08,5.2-1.86,2.84-1.33,5.64-2.74,8.54-3.93,1.7-.7,3.47-1.33,5.38-1.11,.49,.06,.75-.07,.8-.56,.4,1.64,.55,3.3,.45,4.98-.06,1.07-.32,2.1-.59,3.12,0,.68-.17,1.28-.8,1.66-1.81-.39-3.65-.6-5.5-.71-.25-.01-.51,0-.76,.01Z"/>
        <path class="cls-19" d="M71.62,113.41c.37-.5,.55-1.09,.8-1.66,.11,.05,.21,.04,.33-.02,3.96-1.93,8.2-3.02,12.42-4.17,1.06-.29,1.88-.84,2.7-1.46,3.22-2.44,6.89-3.42,10.86-3.4,.72,0,1.5,.06,1.95,.8-2.22-.47-4.12,.44-6.03,1.36-2.69,1.3-5.34,2.67-7.84,4.31-.96,.63-2.13,.77-3.21,1.09-3.59,1.05-7.18,2.12-10.73,3.32-.47,.16-.85-.05-1.26-.18Z"/>
        <path class="cls-19" d="M43.3,27.22c-.54-.04-.81-.56-1.29-.71,0-.29-.24-.43-.41-.62-2.08-2.29-3.39-4.9-3.23-8.08,.06-1.27,.31-2.52,.94-3.66,.24-.34,.48-.15,.72,0,2.64,1.84,3.9,4.42,4.07,7.59,.1,1.88-.31,3.67-.8,5.46Z"/>
        <path class="cls-19" d="M48.64,30.12c-.28-.08-.47-.29-.69-.46-.43-.89-1.05-1.67-1.44-2.6-1.14-2.7-1.03-5.31,.49-7.85,.27-.45,.45-.52,.85-.1,2.38,2.49,2.71,5.4,1.8,8.58-.24,.85-.63,1.64-1.01,2.43Z"/>
        <path class="cls-19" d="M66.3,21.66c.09-.09,.18-.18,.27-.27,1.77-.05,3.47,.24,4.95,1.28,1.84,1.3,3.02,3.07,3.75,5.21-3.96,.17-7.96-1.97-8.97-6.23Z"/>
        <path class="cls-19" d="M55.61,16.26c-1.27-1.46-2.21-3.08-2.44-5.05-.16-1.35,.07-2.63,.55-3.88,.18-.48,.38-.58,.83-.24,2.31,1.78,3.26,4.13,3.1,6.99-.06,1.12-.32,2.2-.65,3.26-.4,.18-.58-.17-.77-.37-.22-.22-.44-.46-.62-.72Z"/>
        <path class="cls-19" d="M73.08,39.07c.32-.46,.81-.68,1.3-.92,3.57-1.34,6.55-.15,9.26,2.19,.24,.21,.26,.34-.05,.48-3.62,1.7-7.85,1.48-10.5-1.75Z"/>
        <path class="cls-19" d="M67.43,19.86c-.14,.1-.28,.21-.42,.31-.09,.06-.18,.07-.28,0-.96-2.87-1.05-5.67,.67-8.31,.47-.72,1.11-1.29,1.78-1.83,.43-.35,.64-.26,.83,.23,.96,2.45,.75,4.79-.54,7.06-.4,.71-.93,1.32-1.4,1.97-.05,.38-.43,.37-.65,.56Z"/>
        <path class="cls-19" d="M62.66,25.8c.06-.09,.12-.18,.18-.27,1.38-.02,2.73,.07,4,.69,2.32,1.14,3.71,3.07,4.64,5.4,.11,.28,.15,.49-.27,.47-3.95-.19-7.55-2.1-8.55-6.29Z"/>
        <path class="cls-19" d="M51.9,14.05c-.45-.16-.82-.44-1.2-.7-.8-1.07-1.67-2.09-2.14-3.38-.71-1.93-.7-3.84,.04-5.77,.24-.62,.46-.59,.93-.23,2.52,1.93,3.28,4.55,2.96,7.58-.09,.85-.27,1.69-.59,2.49Z"/>
        <path class="cls-19" d="M62.27,23.47c-.14,.07-.28,.13-.42,.2-1.03-2.96-1.14-5.85,.73-8.56,.45-.65,1.03-1.18,1.65-1.68,.43-.34,.64-.3,.84,.23,1.02,2.67,.71,5.18-.85,7.55-.06,.09-.1,.2-.15,.3-.22,.63-.74,1.01-1.21,1.43h-.02c-.16,.21-.31,.42-.57,.53Z"/>
        <path class="cls-19" d="M67.16,44.42c.18-.31,.43-.58,.7-.81,.81-.68,1.83-.76,2.79-1.04,1.96-.34,3.87-.28,5.63,.79,.45,.27,.86,.61,1.3,.92,.36,.25,.36,.46,0,.73-1.09,.8-2.29,1.3-3.63,1.45-2.55,.29-4.78-.55-6.8-2.04Z"/>
        <path class="cls-19" d="M74.6,36.85c-.69,.58-1.49,1-2.3,1.4-1.06-2.9-.37-5.46,1.52-7.77,.64-.77,1.39-1.42,2.19-2.02,.44-.33,.6-.22,.68,.3,.29,1.84,.25,3.65-.38,5.42-.07,.32-.21,.6-.39,.87h0c-.13,.24-.16,.54-.41,.7h0c-.21,.45-.48,.85-.92,1.11Z"/>
        <path class="cls-19" d="M68.67,40.73c-1.04,.66-1.96,1.5-3.04,2.11-.79-3.61,.58-7.37,3.41-9.12,1.59-.98,1.49-.95,1.71,.85,.17,1.41-.12,2.77-.7,4.06-.19,.33-.27,.72-.57,.98-.04,.05-.07,.1-.11,.16-.1,.42-.44,.66-.7,.97Z"/>
        <path class="cls-19" d="M52.95,35.15c.1,.07,.21,.13,.31,.2-1.09,1.91-2.43,3.55-4.54,4.41-1.3,.53-2.64,.64-4.02,.43-.49-.07-.61-.24-.38-.73,1.23-2.71,3.45-3.95,6.27-4.27,.78-.09,1.57-.03,2.36-.04Z"/>
        <path class="cls-19" d="M48.52,32.08c.17,.04,.33,.12,.41,.29-.89,1.42-1.84,2.77-3.3,3.69-1.64,1.05-3.4,1.38-5.31,1.08-.49-.08-.55-.25-.35-.69,1.27-2.78,3.54-4.04,6.46-4.33,.69-.07,1.39-.03,2.08-.04Z"/>
        <path class="cls-19" d="M53.95,33.09c-2.4-2.79-3.29-6.25-1.59-9.4,.53-.99,.62-1,1.33-.15,2.11,2.53,2.07,5.32,.97,8.22-.18,.47-.32,.97-.72,1.32,0,0,.01,.01,.01,.01Z"/>
        <path class="cls-19" d="M43.51,28.79s.03,.08,.06,.11c-1.21,2.33-2.91,4.1-5.55,4.79-1.03,.27-2.06,.23-3.1,.08-.47-.07-.48-.29-.31-.67,1.22-2.61,3.32-3.96,6.11-4.3,.92-.11,1.85-.1,2.77,0Z"/>
        <path class="cls-19" d="M60.07,84.3c-.57,.27-1.17,.49-1.81,.56-.12,.02-.18-.03-.13-.14,.08-.18,.26-.25,.43-.32,1.01-.43,1.01-.43,1-1.57,0-1.6,.05-3.2-.01-4.8-.18-4.8-.11-9.59-.13-14.39,0-.6-.18-1.14-.44-1.66,.3,.71,.14,1.34-.37,1.88-.28,.3-.43,.58-.21,.99,.13,.25,.07,.51-.1,.72-.38,.44-.4,.96-.4,1.51,0,5.57,0,11.13,0,16.7,0,.39,.05,.79,.05,1.18-.14,0-.28,.02-.42,.03,.02-6.42,.02-12.84,.05-19.26,.03-5.98,.08-11.96,.16-17.94,.04-3.08,.12-6.16,.06-9.24,.29,.2,.16,.51,.16,.77,0,5.77,0,11.55,0,17.32,0,.51,.7,1.56,1.14,1.72,.2,.07,.22-.08,.27-.21,.18-.42,.16-.88,.09-1.3-.24-1.62-.05-3.24-.11-4.85,0-.22,.05-.41,.28-.51,.02,2.94,.02,5.88,.05,8.82,.03,3.54,.08,7.08,.13,10.62,.07,4.47,.16,8.93,.24,13.4Z"/>
        <path class="cls-19" d="M68.84,91.96c.02,.24,.34,.41,.14,.69-.27,.05-.55,.07-.83,.07-5.94,0-11.87,0-17.81,0-.34,0-.7,.06-.99-.21,.05-.18,.09-.37,.14-.55,.22-.24,.5-.2,.78-.21,5.93,0,11.86,0,17.8,0,.28,0,.56-.03,.78,.21Z"/>
        <path class="cls-19" d="M68.55,93.94c-.14-.01-.28-.04-.41-.04-5.99,0-11.99,0-17.98,0-.16,0-.32,.02-.48,.03-.18-.15-.4-.29-.3-.59,.24-.24,.55-.21,.85-.21,5.96,0,11.93,0,17.89,0,.3,0,.61-.03,.85,.21,.14,.39-.14,.48-.41,.6Z"/>
        <path class="cls-19" d="M48.09,110.47c-.74-.25-1.48-.53-2.23-.75-.41-.12-.6-.35-.67-.74-.17-2.69,.23-5.3,1.12-7.84,.29,.43-.06,.84-.05,1.28,.04,1.18-.12,2.38,.05,3.54,.19,1.28,.32,2.64,1.4,3.63,.2,.19,.17,.64,.54,.78,0,.02-.01,.05-.03,.06-.04,.02-.09,.03-.13,.04Z"/>
        <path class="cls-19" d="M49.55,91.06c.16,.02,.32,.06,.48,.06,6.1,0,12.2,0,18.3,0,.12,0,.23-.01,.35-.02,.22,.06,.34,.2,.29,.44-.24,.24-.55,.21-.85,.21-5.97,0-11.94,0-17.91,0-.3,0-.61,.02-.85-.21,.07-.16,.13-.32,.2-.48Z"/>
        <path class="cls-19" d="M49.35,91.54c6.54,0,13.07,0,19.61,0,.05,.17,.04,.32-.12,.43-6.45,0-12.9,0-19.35,0-.11-.12-.21-.24-.14-.42Z"/>
        <path class="cls-19" d="M49.35,92.51c6.26,0,12.51,0,18.77,0,.29,0,.61-.11,.86,.14-.06,.09-.11,.18-.17,.26-.21,.24-.5,.22-.77,.22-5.91,0-11.83,0-17.74,0-.28,0-.56,.03-.77-.21-.1-.12-.24-.22-.17-.41Z"/>
        <path class="cls-19" d="M49.52,92.92c6.43,0,12.86,0,19.29,0,.09,.13,.18,.26,.14,.43-6.53,0-13.06,0-19.59,0-.04-.18,.09-.29,.16-.43Z"/>
        <path class="cls-19" d="M67.43,19.86c.22-.19,.43-.37,.65-.56,.71-.17,1.26-.67,1.93-.92,.26-.1,.51-.19,.84-.17-.9,.61-1.79,1.22-2.69,1.82,.11-.17,.21-.33,.34-.54-.44-.06-.67,.41-1.06,.37Z"/>
        <path class="cls-19" d="M66.74,20.17c.09,0,.18,0,.28,0-.53,.54-1.12,.98-1.85,1.21,.53-.4,1.05-.8,1.58-1.21Z"/>
        <path class="cls-19" d="M40.03,14.17c-.24-.03-.48-.18-.72,0,.24-.47,.25-.47,.72,0Z"/>
        <path class="cls-19" d="M67.59,20.46c.1-.27,.25-.45,.57-.44-.14,.21-.32,.36-.57,.44Z"/>
        <path class="cls-19" d="M65.21,117.7c-.03-.75,.03-1.47,.37-2.16,.12-.25,.26-.33,.52-.34,2.08-.02,4.15,.08,6.22,.29,.83,.08,1.22,.55,1.25,1.38,0,.32,0,.65,.01,.97,.16,.71-.11,1.2-.83,1.55-.66,.38-1.38,.2-2.08,.26-.52,.04-1.05-.12-1.55,.11-.17,.16-.38,.16-.58,.16-.71,.01-1.43,0-2.14,.05-.46,.03-.91-.08-.78-.74-.09-.28-.17-.57-.26-.85-.16-.21,.03-.48-.13-.69h0Z"/>
        <path class="cls-19" d="M95.45,108.9c.04-.28,3.99-3.67,6.94-4.21,.82-.18,1.34,.14,1.62,.92,.11,.3,.11,.31,.21,.61,.37,.63-.41,1.05-.99,1.61-.51,.57-2.85,2.19-3.05,2.26-.67,.24-2.73,.64-3.39,.91-.42,.17-1.44-1.35-1.34-2.11Z"/>
        <path class="cls-19" d="M65.6,119.24c.06,.42,.3,.56,.72,.55,.93-.03,1.85-.02,2.78-.03,.64,0,1.29,0,1.93,0-.81,.23-1.64,.2-2.46,.26-2.49,.2-4.99,.27-7.48,.48-3.52,.29-7.06,.48-10.52,1.24-.59,.13-1.17,.3-1.67,.66-.46,.07-.71,.51-1.22,.68,.28-.62,.72-1.03,1.14-1.46,1.27-1.33,2.74-2.06,4.66-2.01,2.54,.07,5.08-.05,7.62-.12,1.5-.04,2.99-.16,4.49-.25Z"/>
        <path class="cls-19" d="M65.21,117.7c.21,.2,.1,.46,.13,.69-.22-.2-.11-.46-.13-.69Z"/>
        <path class="cls-19" d="M72.74,119.39c.49-.41,.76-.93,.83-1.55,.05-.08,.1-.16,.15-.25,.57-.46,.74-.48,1.11-.17-.27,.95-.93,1.56-1.79,1.99-.11,.05-.21,.11-.3-.02Z"/>
        <path class="cls-19" d="M74.83,117.42c-.42-.27-.73,.22-1.11,.17-.13-.68-.05-1.26,.71-1.54,.15-.05,.36-.21,.34,.04-.03,.45,.33,.88,.06,1.32Z"/>
        <path class="cls-19" d="M62.27,23.47c.15-.22,.32-.42,.57-.53-.03,.35-.23,.52-.57,.53Z"/>
        <path class="cls-19" d="M57.95,84.94c-.27-.15-.26-.4-.26-.66,0-5.93,0-11.86,0-17.79,0-.16-.03-.36,.05-.47,.37-.51,.77-.97,.24-1.63-.13-.16,.1-.35,.28-.48,.79-.61,.88-1.28,.35-2.15-.08-.12-.26-.29-.08-.42,.19-.14,.34,.05,.43,.21,.36,.69,.71,1.35,.69,2.2-.05,2.85-.04,5.7,0,8.55,.04,3.65,.19,7.29,.14,10.94,0,.16,0,.33,.06,.48,.16,.44-.07,.58-.44,.68-.39,.11-.78,.24-1.17,.37-.01,0-.02,.04-.01,.06,0,.02,.03,.04,.04,.05-.09,.1-.19,.11-.31,.08Z"/>
      </g>
      <g>
        <path class="cls-24" d="M104.61,100.05c1.08,.26,1.98,.78,2.49,1.83,.16,.38-.12,.34-.31,.29-2.6-.74-4.73,.41-6.83,1.7-.28,.17-.5,.41-.72,.64-.59,.64-.57,1.17-.02,1.84,.23,.27,.7,.44,.49,.95-6.44,4-12.87,7.99-19.15,12.24-.78,.53-1.58,1.05-2.27,1.72-1.01,.98-2.31,1.22-3.63,1.36-4.47,.48-8.94,.77-13.43,1-3.19,.16-6.38,.37-9.57,.55-3.7,.2-7.4,.37-11.1,.57-.76,.04-1.52,.16-2.27,.26-.41,.05-.72,.26-.97,.61-1.12,1.55-1.97,3.25-2.79,4.96-2.05,4.33-4,8.71-5.84,13.14-.12,.29-.26,.5-.65,.5-4.31-.02-8.63-.03-12.94-.03-.17-.2-.07-.38,.04-.57,1.37-2.36,2.68-4.76,4.07-7.11,2.48-4.19,5-8.35,7.72-12.38,1.37-2.04,2.76-4.05,4.25-6.01,.9-1.18,1.86-2.31,2.84-3.41,.66-.74,1.44-1.36,2.29-1.91,.99-.64,2.08-.55,3.17-.46,1.78,.15,3.55,.25,5.33,.37,1.75,.11,3.51,.26,5.26,.37,1.69,.11,3.37,.2,5.06,.32,2.82,.21,5.64,.27,8.46,.39,1.37,.06,2.74,0,4.1,.04,.09,0,.18,.02,.27,.05,.07,.02,.13,.06,.19,.11,.15,.21,.12,.49,.26,.7,.1,.31,.33,.6,.06,.93-.6,.2-1.24,.21-1.85,.22-1.32,.02-2.63,.23-3.95,.18-2.43-.08-4.85,.19-7.28,.16-1.26-.02-2.22,.72-3.12,1.51-.4,.35-.76,.75-1.13,1.15-.06,.04,.08,.12,.02,.05-.02-.02,0-.03,.03-.05,.17-.13,.36-.2,.58-.2,.48,.08,.96,.04,1.45,0,1.5-.15,3-.26,4.5-.36,1.85-.12,3.69-.26,5.54-.37,.97-.06,1.94-.09,2.91-.15,1.87-.13,3.74-.23,5.62-.17,1.67,.06,3.2-.44,4.65-1.21,2.05-1.09,3.96-2.39,5.82-3.79,1.58-1.19,3.23-2.25,4.98-3.17,.08-.04-.03-.01,.06-.03,1.87-.37,3.1-1.78,4.54-2.84,1.9-1.41,3.82-2.8,5.88-3.96,1.72-.98,3.52-1.85,5.44-2.43,.48-.14,.95-.2,1.43-.07Z"/>
        <path class="cls-16" d="M68.14,113.98c-1.75,0-3.51,.04-5.26-.02-2.79-.1-5.58-.22-8.36-.42-2.07-.14-4.14-.28-6.21-.41-2.32-.14-4.64-.4-6.96-.51-1.22-.06-2.44-.29-3.67-.16-.96,.1-1.68,.72-2.39,1.31-1.3,1.09-2.39,2.37-3.41,3.71-1.63,2.13-3.24,4.27-4.65,6.56-1.1,1.79-2.33,3.49-3.44,5.28-1.1,1.78-2.13,3.62-3.25,5.39-1.47,2.32-2.68,4.79-4.17,7.1-.47,.73-.91,1.53-1.25,2.35-3.34,0-6.68,.02-10.01,.02-.47-.07-.32-.32-.17-.58,.85-1.46,1.79-2.87,2.65-4.33,1.3-2.22,2.65-4.4,4.01-6.59,1.27-2.05,2.56-4.08,3.81-6.14,2.11-3.46,4.31-6.87,6.54-10.26,1.9-2.9,3.72-5.87,5.96-8.54,.16-.2,.31-.44,.54-.53,1.53-.58,2.77-1.78,4.44-2.08,1.42-.26,2.82-.43,4.27-.3,5.03,.45,9.72,2.08,14.36,3.93,.67,.27,1.38,.34,2.09,.46,1.82,.31,3.65,.25,5.47,.35,2.31,.12,4.63,.14,6.93-.27,.8-.14,1.58-.35,2.37-.49,2.05-.05,4.07,.23,6.06,.68,.6,.24,1.18,.22,1.82,0,4.05-1.33,8.14-2.54,12.23-3.73,.5-.14,.95-.35,1.39-.63,3.01-1.93,6.19-3.54,9.45-5.01,.9-.4,1.85-.58,2.83-.67,.52-.05,1.02,.01,1.46,.32,.35,.03,.69,.08,1,.26-1.09,.02-2.08,.45-3.05,.86-2.62,1.09-5.06,2.52-7.38,4.17-1.29,.92-2.61,1.82-3.81,2.84-.89,.76-1.9,1.12-2.92,1.6-1.4,.67-2.74,1.48-4.01,2.42-1.77,1.31-3.55,2.64-5.43,3.78-1.5,.91-3.08,1.77-4.89,1.96-.11,.01-.23,.06-.34,.05-2.73-.05-5.45,.12-8.17,.27-2.76,.16-5.52,.33-8.28,.54-1.19,.09-2.39,.18-3.58,.29-.3,.03-.65,.14-.91-.16,.13-.46,.56-.53,.91-.65,1.64-.56,3.35-.71,5.05-.9,2.94-.34,5.9-.54,8.86-.73,2.33-.15,4.65-.31,6.9-.25-.45-.06-.99,.03-1.52-.04,.03-.49,.43-.36,.7-.38,.88-.07,1.78,.08,2.65-.15,1.2-.11,1.77-.95,2.21-1.93,.08-.18,.05-.36,0-.54-.06-.18,.05-.5-.22-.5-.27,0-.5,.21-.57,.51-.06,.27,0,.55-.08,.81-.08,.12-.13,.29-.33,.13-.17-.27-.13-.58-.15-.88-.06-.72-.32-1.1-1.02-1.19-1.99-.25-3.99-.36-6-.32-.47,0-.59,.34-.74,.7-.22,.51-.02,1.12-.37,1.59Z"/>
        <path class="cls-10" d="M49.25,97.43c.8-2.55,2.01-4.91,3.35-7.21,.24-.29,.58-.26,.9-.26,5.7,0,11.39,0,17.09,0,.32,0,.66-.04,.89,.27,1.76,2.96,3.19,6.06,3.99,9.43,.02,.09,.01,.18,.02,.27,.05,.62-.22,.8-.85,.76-2.39-.16-4.53,.76-6.66,1.68-2.74,1.19-5.39,2.57-8.12,3.77-2.02,.89-4.08,1.64-6.33,1.69-.93-.16-1.79-.46-2.56-1.02-1.42-1.71-2.05-3.67-1.97-5.89,.04-1.17,0-2.34,.25-3.5Z"/>
        <path class="cls-20" d="M70.08,40.7c-.69,.6-1.1,1.42-1.64,2.14-1.57,2.11-3.32,3.98-5.87,4.91-.08,.12-.14,.25-.14,.39,0,1.6-.06,3.19,.03,4.79,.03,.48,.07,.97-.03,1.45-.08,.42-.32,.49-.64,.25-.63-.46-1.09-.93-1.07-1.86,.07-2.94-.03-5.88,.04-8.82,.08-2.85,.02-5.69,.05-8.54,0-.2,.09-.42-.09-.59-1.26-.65-2.31-1.62-3.46-2.44-.36-.25-.73-.49-1.09-.74-.17,.03-.27-.04-.31-.2-1.28-1.01-2.64-1.91-4.02-2.78-.17-.05-.36-.07-.41-.29-1.54-1.04-3.09-2.09-4.63-3.13-.1-.07-.2-.11-.32-.05-.06,0-.09-.01-.09-.05,0-.04,.01-.06,.03-.06-.73-.68-1.62-1.13-2.44-1.69-1.2-.81-2.41-1.6-3.59-2.45,1.61,.4,3.05,1.18,4.53,1.87,.58-.03,.89,.41,1.29,.71,1.32,.71,2.64,1.41,3.97,2.12,.22,.12,.46,.21,.69,.32,.34,0,.52,.22,.69,.46,1.77,.99,3.54,1.98,5.31,2.97h-.01c1.04,.67,2.04,1.43,3.39,1.43,.45,0,.63-.11,.64-.62,.06-4.01,.15-8.02,.25-12.03,.01-.52-.09-.83-.6-1.08-1.11-.54-1.94-1.44-2.61-2.45-1.4-2.11-3.35-3.63-5.37-5.09-.45-.32-.89-.64-1.51-1.08,1.07,.24,1.77,.8,2.56,1.16,.5,.06,.9,.3,1.2,.7,1.32,.98,2.64,1.95,3.95,2.93,.45,.09,.85,.28,1.16,.64,.2,.06,.39,.14,.59,.18,.54,.11,.77-.05,.78-.67,.02-2.27,.13-4.54,.42-6.79,.02-.13,0-.28,.26-.43,0,.62,0,1.16,0,1.69,.05,4.08,.11,8.16,.14,12.24,0,.62,.24,.77,.78,.68,.7-.11,1.35-.32,1.86-.85,.05-.18,.2-.23,.34-.3,.24-.07,.42-.23,.55-.43,.04-.05,.08-.09,.13-.13,.43-.3,.82-.68,1.33-.86,.32-.2,.58-.47,.95-.57,.62-.39,1.31-.69,1.78-1.3,.14-.16,.3-.27,.49-.36,.23-.08,.44-.23,.68-.3,.15-.04,.34-.12,.43,.05,.1,.17-.09,.27-.19,.38-.06,.06-.15,.1-.2,.18h0c-.23,.09-.4,.26-.57,.43-.34,.31-.68,.62-1.02,.93-.02,.16-.1,.25-.27,.27-.91,.6-1.63,1.41-2.31,2.23-.42,.51-.76,1.09-1.14,1.64,0,.13-.02,.24-.18,.27-.97,.93-1.9,1.9-3.18,2.41-.37,.15-.21,.48-.2,.73,.06,4.61,.14,9.22,.21,13.82,.01,.79,.04,1.58,.01,2.36-.02,.44,.19,.57,.56,.6,.47,.04,.93-.03,1.37-.18,1.64-.53,3-1.52,4.21-2.72,.85-.91,1.92-1.52,2.94-2.21,.34-.22,.66-.46,1.05-.58,.88-.62,1.87-1.07,2.68-1.79,.65-.69,1.55-.99,2.3-1.52,.29-.14,.61-.21,.93-.28,.62-.31,1.26-.59,2-.61-.86,.58-1.71,1.16-2.56,1.76-.22,.15-.5,.26-.59,.56-.33,.46-.82,.67-1.3,.92-1.43,.87-2.65,2-3.85,3.15-.47,.46-.91,.96-1.29,1.5-.25,.24-.38,.61-.78,.69Z"/>
        <path class="cls-10" d="M63,80.58c.87-.24,1.69-.61,2.59-.76,.89-.15,1.68-.04,2.25,.72,.74,.99,1.64,1.09,2.69,.59,.48-.23,.97-.44,1.47-.63,1.67-.64,2.6,.03,2.41,1.82-.19,1.79-1.07,3.28-2.32,4.55-.16,.16-.32,.33-.49,.49-.2,.26-.49,.24-.76,.24-5.85,0-11.7,0-17.55,0-.3,0-.61,.03-.81-.27-1.29-1.04-2.46-2.17-2.91-3.85-.14-.53-.14-1.06-.04-1.58,.16-.85,.71-1.31,1.48-.99,1.74,.71,3.31,.57,4.92-.41,.73-.45,1.59-.29,2.37,.19,.65,.4,1.37,.68,2.17,.56,.11-.07,.23-.14,.37-.15,.13-.02,.26-.05,.39-.1,.6-.13,1.15-.43,1.78-.42Z"/>
        <path class="cls-4" d="M51.02,106.75c.82,.34,1.62,.76,2.51,.93,.93-.03,1.84,.12,2.75,.28,3.59,.61,7.2,.9,10.84,.8,.4-.01,.84-.12,1.18,.24-1.78,.48-3.59,.74-5.44,.81-2.46,.09-4.91-.08-7.36-.19-1.91-.09-3.79-.47-5.6-1.3-2.07-.95-4.29-1.56-6.51-2.14-1.58-.42-3.17-.85-4.79-1.04-2.87-.33-5.72-.36-8.27,1.32-.45,.29-.88,.57-1.4,.72-.78,.23-1.09,.97-1.54,1.53-1.89,2.36-3.48,4.94-5.15,7.45-1.99,3-3.88,6.07-5.81,9.11-1.52,2.4-2.99,4.83-4.51,7.23-.94,1.5-1.85,3.03-2.73,4.56-1.14,1.98-2.38,3.9-3.59,5.84-.19,.31-.29,.67-.6,.92-.21,.17-.01,.27,.13,.36-.64,0-1.27,.02-1.91-.01-.47-.02-.22-.27-.1-.46,1-1.64,2-3.28,2.99-4.92,2.31-3.81,4.61-7.64,6.94-11.44,1.71-2.8,3.48-5.56,5.21-8.35,1.98-3.18,4-6.33,6.04-9.47,1.93-2.96,4.58-4.86,8-5.65,2.28-.52,4.59-.46,6.9-.24,2.94,.28,5.77,1.05,8.55,2,.5,.17,.33-.2,.4-.39,.64,.61,1.48,.79,2.26,1.1,.23,.09,.46,.19,.64,.38Z"/>
        <path class="cls-11" d="M68.29,109c-.88-.03-1.76-.11-2.64-.08-4.1,.16-8.12-.47-12.13-1.24,.68-.1,1.36-.19,2.04-.29,1.85-.29,3.54-1.08,5.2-1.86,2.84-1.33,5.64-2.74,8.54-3.93,1.7-.7,3.47-1.33,5.38-1.11,.49,.06,.75-.07,.8-.56,.4,1.64,.55,3.3,.45,4.98-.06,1.07-.32,2.1-.59,3.12,0,.68-.17,1.28-.8,1.66-1.81-.39-3.65-.6-5.5-.71-.25-.01-.51,0-.76,.01Z"/>
        <path class="cls-14" d="M74.55,109.69c.37-.5,.55-1.09,.8-1.66,.11,.05,.21,.04,.33-.02,3.96-1.93,8.2-3.02,12.42-4.17,1.06-.29,1.88-.84,2.7-1.46,3.22-2.44,6.89-3.42,10.86-3.4,.72,0,1.5,.06,1.95,.8-2.22-.47-4.12,.44-6.03,1.36-2.69,1.3-5.34,2.67-7.84,4.31-.96,.63-2.13,.77-3.21,1.09-3.59,1.05-7.18,2.12-10.73,3.32-.47,.16-.85-.05-1.26-.18Z"/>
        <path class="cls-23" d="M46.22,23.5c-.54-.04-.81-.56-1.29-.71,0-.29-.24-.43-.41-.62-2.08-2.29-3.39-4.9-3.23-8.08,.06-1.27,.31-2.52,.94-3.66,.24-.34,.48-.15,.72,0,2.64,1.84,3.9,4.42,4.07,7.59,.1,1.88-.31,3.67-.8,5.46Z"/>
        <path class="cls-23" d="M51.56,26.41c-.28-.08-.47-.29-.69-.46-.43-.89-1.05-1.67-1.44-2.6-1.14-2.7-1.03-5.31,.49-7.85,.27-.45,.45-.52,.85-.1,2.38,2.49,2.71,5.4,1.8,8.58-.24,.85-.63,1.64-1.01,2.43Z"/>
        <path class="cls-23" d="M69.22,17.94c.09-.09,.18-.18,.27-.27,1.77-.05,3.47,.24,4.95,1.28,1.84,1.3,3.02,3.07,3.75,5.21-3.96,.17-7.96-1.97-8.97-6.23Z"/>
        <path class="cls-23" d="M58.53,12.55c-1.27-1.46-2.21-3.08-2.44-5.05-.16-1.35,.07-2.63,.55-3.88,.18-.48,.38-.58,.83-.24,2.31,1.78,3.26,4.13,3.1,6.99-.06,1.12-.32,2.2-.65,3.26-.4,.18-.58-.17-.77-.37-.22-.22-.44-.46-.62-.72Z"/>
        <path class="cls-23" d="M76,35.36c.32-.46,.81-.68,1.3-.92,3.57-1.34,6.55-.15,9.26,2.19,.24,.21,.26,.34-.05,.48-3.62,1.7-7.85,1.48-10.5-1.75Z"/>
        <path class="cls-23" d="M70.35,16.14c-.14,.1-.28,.21-.42,.31-.09,.06-.18,.07-.28,0-.96-2.87-1.05-5.67,.67-8.31,.47-.72,1.11-1.29,1.78-1.83,.43-.35,.64-.26,.83,.23,.96,2.45,.75,4.79-.54,7.06-.4,.71-.93,1.32-1.4,1.97-.05,.38-.43,.37-.65,.56Z"/>
        <path class="cls-23" d="M65.59,22.08c.06-.09,.12-.18,.18-.27,1.38-.02,2.73,.07,4,.69,2.32,1.14,3.71,3.07,4.64,5.4,.11,.28,.15,.49-.27,.47-3.95-.19-7.55-2.1-8.55-6.29Z"/>
        <path class="cls-23" d="M54.83,10.33c-.45-.16-.82-.44-1.2-.7-.8-1.07-1.67-2.09-2.14-3.38-.71-1.93-.7-3.84,.04-5.77,.24-.62,.46-.59,.93-.23,2.52,1.93,3.28,4.55,2.96,7.58-.09,.85-.27,1.69-.59,2.49Z"/>
        <path class="cls-23" d="M65.2,19.76c-.14,.07-.28,.13-.42,.2-1.03-2.96-1.14-5.85,.73-8.56,.45-.65,1.03-1.18,1.65-1.68,.43-.34,.64-.3,.84,.23,1.02,2.67,.71,5.18-.85,7.55-.06,.09-.1,.2-.15,.3-.22,.63-.74,1.01-1.21,1.43h-.02c-.16,.21-.31,.42-.57,.53Z"/>
        <path class="cls-23" d="M70.08,40.7c.18-.31,.43-.58,.7-.81,.81-.68,1.83-.76,2.79-1.04,1.96-.34,3.87-.28,5.63,.79,.45,.27,.86,.61,1.3,.92,.36,.25,.36,.46,0,.73-1.09,.8-2.29,1.3-3.63,1.45-2.55,.29-4.78-.55-6.8-2.04Z"/>
        <path class="cls-23" d="M77.52,33.14c-.69,.58-1.49,1-2.3,1.4-1.06-2.9-.37-5.46,1.52-7.77,.64-.77,1.39-1.42,2.19-2.02,.44-.33,.6-.22,.68,.3,.29,1.84,.25,3.65-.38,5.42-.07,.32-.21,.6-.39,.87h0c-.13,.24-.16,.54-.41,.7h0c-.21,.45-.48,.85-.92,1.11Z"/>
        <path class="cls-8" d="M71.6,37.01c-1.04,.66-1.96,1.5-3.04,2.11-.79-3.61,.58-7.37,3.41-9.12,1.59-.98,1.49-.95,1.71,.85,.17,1.41-.12,2.77-.7,4.06-.19,.33-.27,.72-.57,.98-.04,.05-.07,.1-.11,.16-.1,.42-.44,.66-.7,.97Z"/>
        <path class="cls-23" d="M55.87,31.43c.1,.07,.21,.13,.31,.2-1.09,1.91-2.43,3.55-4.54,4.41-1.3,.53-2.64,.64-4.02,.43-.49-.07-.61-.24-.38-.73,1.23-2.71,3.45-3.95,6.27-4.27,.78-.09,1.57-.03,2.36-.04Z"/>
        <path class="cls-23" d="M51.44,28.36c.17,.04,.33,.12,.41,.29-.89,1.42-1.84,2.77-3.3,3.69-1.64,1.05-3.4,1.38-5.31,1.08-.49-.08-.55-.25-.35-.69,1.27-2.78,3.54-4.04,6.46-4.33,.69-.07,1.39-.03,2.08-.04Z"/>
        <path class="cls-26" d="M56.87,29.37c-2.4-2.79-3.29-6.25-1.59-9.4,.53-.99,.62-1,1.33-.15,2.11,2.53,2.07,5.32,.97,8.22-.18,.47-.32,.97-.72,1.32,0,0,.01,.01,.01,.01Z"/>
        <path class="cls-12" d="M46.43,25.07s.03,.08,.06,.11c-1.21,2.33-2.91,4.1-5.55,4.79-1.03,.27-2.06,.23-3.1,.08-.47-.07-.48-.29-.31-.67,1.22-2.61,3.32-3.96,6.11-4.3,.92-.11,1.85-.1,2.77,0Z"/>
        <path class="cls-21" d="M63,80.58c-.57,.27-1.17,.49-1.81,.56-.12,.02-.18-.03-.13-.14,.08-.18,.26-.25,.43-.32,1.01-.43,1.01-.43,1-1.57,0-1.6,.05-3.2-.01-4.8-.18-4.8-.11-9.59-.13-14.39,0-.6-.18-1.14-.44-1.66,.3,.71,.14,1.34-.37,1.88-.28,.3-.43,.58-.21,.99,.13,.25,.07,.51-.1,.72-.38,.44-.4,.96-.4,1.51,0,5.57,0,11.13,0,16.7,0,.39,.05,.79,.05,1.18-.14,0-.28,.02-.42,.03,.02-6.42,.02-12.84,.05-19.26,.03-5.98,.08-11.96,.16-17.94,.04-3.08,.12-6.16,.06-9.24,.29,.2,.16,.51,.16,.77,0,5.77,0,11.55,0,17.32,0,.51,.7,1.56,1.14,1.72,.2,.07,.22-.08,.27-.21,.18-.42,.16-.88,.09-1.3-.24-1.62-.05-3.24-.11-4.85,0-.22,.05-.41,.28-.51,.02,2.94,.02,5.88,.05,8.82,.03,3.54,.08,7.08,.13,10.62,.07,4.47,.16,8.93,.24,13.4Z"/>
        <path class="cls-22" d="M71.77,88.25c.02,.24,.34,.41,.14,.69-.27,.05-.55,.07-.83,.07-5.94,0-11.87,0-17.81,0-.34,0-.7,.06-.99-.21,.05-.18,.09-.37,.14-.55,.22-.24,.5-.2,.78-.21,5.93,0,11.86,0,17.8,0,.28,0,.56-.03,.78,.21Z"/>
        <path class="cls-7" d="M71.47,90.23c-.14-.01-.28-.04-.41-.04-5.99,0-11.99,0-17.98,0-.16,0-.32,.02-.48,.03-.18-.15-.4-.29-.3-.59,.24-.24,.55-.21,.85-.21,5.96,0,11.93,0,17.89,0,.3,0,.61-.03,.85,.21,.14,.39-.14,.48-.41,.6Z"/>
        <path class="cls-11" d="M51.02,106.75c-.74-.25-1.48-.53-2.23-.75-.41-.12-.6-.35-.67-.74-.17-2.69,.23-5.3,1.12-7.84,.29,.43-.06,.84-.05,1.28,.04,1.18-.12,2.38,.05,3.54,.19,1.28,.32,2.64,1.4,3.63,.2,.19,.17,.64,.54,.78,0,.02-.01,.05-.03,.06-.04,.02-.09,.03-.13,.04Z"/>
        <path class="cls-27" d="M52.48,87.34c.16,.02,.32,.06,.48,.06,6.1,0,12.2,0,18.3,0,.12,0,.23-.01,.35-.02,.22,.06,.34,.2,.29,.44-.24,.24-.55,.21-.85,.21-5.97,0-11.94,0-17.91,0-.3,0-.61,.02-.85-.21,.07-.16,.13-.32,.2-.48Z"/>
        <path class="cls-15" d="M52.28,87.82c6.54,0,13.07,0,19.61,0,.05,.17,.04,.32-.12,.43-6.45,0-12.9,0-19.35,0-.11-.12-.21-.24-.14-.42Z"/>
        <path class="cls-18" d="M52.28,88.79c6.26,0,12.51,0,18.77,0,.29,0,.61-.11,.86,.14-.06,.09-.11,.18-.17,.26-.21,.24-.5,.22-.77,.22-5.91,0-11.83,0-17.74,0-.28,0-.56,.03-.77-.21-.1-.12-.24-.22-.17-.41Z"/>
        <path class="cls-28" d="M52.45,89.2c6.43,0,12.86,0,19.29,0,.09,.13,.18,.26,.14,.43-6.53,0-13.06,0-19.59,0-.04-.18,.09-.29,.16-.43Z"/>
        <path class="cls-25" d="M70.35,16.14c.22-.19,.43-.37,.65-.56,.71-.17,1.26-.67,1.93-.92,.26-.1,.51-.19,.84-.17-.9,.61-1.79,1.22-2.69,1.82,.11-.17,.21-.33,.34-.54-.44-.06-.67,.41-1.06,.37Z"/>
        <path class="cls-25" d="M69.66,16.45c.09,0,.18,0,.28,0-.53,.54-1.12,.98-1.85,1.21,.53-.4,1.05-.8,1.58-1.21Z"/>
        <path class="cls-13" d="M42.95,10.45c-.24-.03-.48-.18-.72,0,.24-.47,.25-.47,.72,0Z"/>
        <path class="cls-25" d="M70.51,16.75c.1-.27,.25-.45,.57-.44-.14,.21-.32,.36-.57,.44Z"/>
        <path class="cls-1" d="M68.14,113.98c-.03-.75,.03-1.47,.37-2.16,.12-.25,.26-.33,.52-.34,2.08-.02,4.15,.08,6.22,.29,.83,.08,1.22,.55,1.25,1.38,0,.32,0,.65,.01,.97,.16,.71-.11,1.2-.83,1.55-.66,.38-1.38,.2-2.08,.26-.52,.04-1.05-.12-1.55,.11-.17,.16-.38,.16-.58,.16-.71,.01-1.43,0-2.14,.05-.46,.03-.91-.08-.78-.74-.09-.28-.17-.57-.26-.85-.16-.21,.03-.48-.13-.69h0Z"/>
        <path class="cls-1" d="M98.37,105.18c.04-.28,3.99-3.67,6.94-4.21,.82-.18,1.34,.14,1.62,.92,.11,.3,.11,.31,.21,.61,.37,.63-.41,1.05-.99,1.61-.51,.57-2.85,2.19-3.05,2.26-.67,.24-2.73,.64-3.39,.91-.42,.17-1.44-1.35-1.34-2.11Z"/>
        <path class="cls-6" d="M68.53,115.52c.06,.42,.3,.56,.72,.55,.93-.03,1.85-.02,2.78-.03,.64,0,1.29,0,1.93,0-.81,.23-1.64,.2-2.46,.26-2.49,.2-4.99,.27-7.48,.48-3.52,.29-7.06,.48-10.52,1.24-.59,.13-1.17,.3-1.67,.66-.46,.07-.71,.51-1.22,.68,.28-.62,.72-1.03,1.14-1.46,1.27-1.33,2.74-2.06,4.66-2.01,2.54,.07,5.08-.05,7.62-.12,1.5-.04,2.99-.16,4.49-.25Z"/>
        <path class="cls-9" d="M68.14,113.98c.21,.2,.1,.46,.13,.69-.22-.2-.11-.46-.13-.69Z"/>
        <path class="cls-2" d="M75.67,115.67c.49-.41,.76-.93,.83-1.55,.05-.08,.1-.16,.15-.25,.57-.46,.74-.48,1.11-.17-.27,.95-.93,1.56-1.79,1.99-.11,.05-.21,.11-.3-.02Z"/>
        <path class="cls-5" d="M77.76,113.7c-.42-.27-.73,.22-1.11,.17-.13-.68-.05-1.26,.71-1.54,.15-.05,.36-.21,.34,.04-.03,.45,.33,.88,.06,1.32Z"/>
        <path class="cls-3" d="M65.2,19.76c.15-.22,.32-.42,.57-.53-.03,.35-.23,.52-.57,.53Z"/>
        <path class="cls-29" d="M60.88,81.22c-.27-.15-.26-.4-.26-.66,0-5.93,0-11.86,0-17.79,0-.16-.03-.36,.05-.47,.37-.51,.77-.97,.24-1.63-.13-.16,.1-.35,.28-.48,.79-.61,.88-1.28,.35-2.15-.08-.12-.26-.29-.08-.42,.19-.14,.34,.05,.43,.21,.36,.69,.71,1.35,.69,2.2-.05,2.85-.04,5.7,0,8.55,.04,3.65,.19,7.29,.14,10.94,0,.16,0,.33,.06,.48,.16,.44-.07,.58-.44,.68-.39,.11-.78,.24-1.17,.37-.01,0-.02,.04-.01,.06,0,.02,.03,.04,.04,.05-.09,.1-.19,.11-.31,.08Z"/>
      </g>
    </g>
  </g>
</svg>