<?xml version="1.0" encoding="UTF-8"?>
<svg id="PROYECTO_CHANCHITO" data-name="PROYECTO CHANCHITO" xmlns="http://www.w3.org/2000/svg" xmlns:xlink="http://www.w3.org/1999/xlink" viewBox="0 0 229.17 245.94">
  <defs>
    <style>
      .cls-1, .cls-2, .cls-3 {
        fill: #fff;
      }

      .cls-4 {
        opacity: .8;
      }

      .cls-4, .cls-5 {
        fill: #cc7b87;
      }

      .cls-6 {
        fill: #e88da0;
      }

      .cls-2 {
        fill-rule: evenodd;
      }

      .cls-7 {
        fill: #e06181;
      }

      .cls-8 {
        fill: #f8c9cb;
        stroke-width: .41px;
      }

      .cls-8, .cls-3, .cls-9, .cls-10, .cls-11, .cls-5, .cls-12 {
        stroke-miterlimit: 10;
      }

      .cls-8, .cls-10, .cls-11, .cls-5, .cls-12 {
        stroke: #824d58;
      }

      .cls-13 {
        fill: #824d58;
      }

      .cls-14 {
        clip-path: url(#clippath-1);
      }

      .cls-15 {
        fill: #f8c9c9;
      }

      .cls-16 {
        fill: #f7c8cd;
      }

      .cls-17 {
        fill: #eb7b90;
      }

      .cls-3, .cls-9 {
        stroke: #1d1d1b;
        stroke-width: .6px;
      }

      .cls-18 {
        clip-path: url(#clippath);
      }

      .cls-19 {
        fill: #1d70b7;
      }

      .cls-20 {
        fill: none;
      }

      .cls-21 {
        opacity: .41;
      }

      .cls-22 {
        opacity: .21;
      }

      .cls-9, .cls-23 {
        fill: #1d1d1b;
      }

      .cls-10 {
        fill: #ad6978;
        stroke-width: .91px;
      }

      .cls-24 {
        fill: #422918;
      }

      .cls-11 {
        fill: #dc8390;
        stroke-width: .34px;
      }

      .cls-25 {
        fill: #f198a7;
      }

      .cls-5 {
        stroke-width: .5px;
      }

      .cls-26 {
        fill: #36b3e8;
      }

      .cls-12 {
        fill: #bc7281;
        stroke-width: .45px;
      }
    </style>
    <clipPath id="clippath">
      <rect class="cls-20" x="-193.14" y="-774.55" width="1218" height="600"/>
    </clipPath>
    <clipPath id="clippath-1">
      <rect class="cls-20" width="229.17" height="245.94"/>
    </clipPath>
  </defs>
  <g class="cls-18">
    <path class="cls-4" d="M339.96-6.83c.07,1.35,.21,2.68,.42,3.97,1.69,10.11,7.15,18.51,13.06,26.09,7.83,10.05,16.65,19.18,26.32,27.23l8.96,10.32c7.73-1.1,15.4-6.51,19.73-13.91,4.77-8.16,5.65-18.28,10.59-26.05,44.07,7.03,90.63,1.63,134.29-18.25,29.89-13.61,55.56-32.7,76.36-55.54,9.56-10.01,18.11-20.76,25.6-32.1,.38,.02,.76,.03,1.15,.06,10.73,1.07,19.03,9.63,29.36,12.85,8.19,2.55,17.5,1.38,23.95-3.02l-.34-13.67c1.72-12.47,2.08-25.16,1.09-37.86-.75-9.58-2.38-19.47-7.94-28.08-3.28-5.07-8.21-9.61-13.95-12.52,4.36-23.61,4.78-47.93,.87-71.99-2.8-23.51-9.21-47-19.55-69.71-53.83-118.24-168.85-101.27-287.08-47.44-118.23,53.83-194.9,124.12-141.07,242.37,21.41,47.04,56.39,83.61,98.18,107.23Z"/>
  </g>
  <g class="cls-14">
    <g>
      <g>
        <path class="cls-11" d="M6.26,268.9c-1.83-13.9,2.36-28.78,6.59-42.18,9.89-31.37,34.17-57.09,65.93-69.78,9.59-3.83,18.9-7.12,26.8-9.13,52.09-13.27,64.33,22.21,77.91,75.53,13.58,53.32-17.64,107.3-69.73,120.56-1.01,.26-2.29,.54-3.81,.86-49.24,10.12-96.96-24.87-103.69-75.86Z"/>
        <path class="cls-25" d="M12.88,265.04c-1.84-13.63,2.07-28.18,6.02-41.29,9.25-30.68,32.3-55.72,62.57-67.95,9.14-3.69,18.02-6.85,25.57-8.77,49.71-12.66,61.65,22.19,74.98,74.52,13.33,52.34-16.17,105.03-65.88,117.69-.96,.25-2.19,.52-3.64,.81-47,9.6-92.85-25-99.62-75.01Z"/>
      </g>
      <path class="cls-10" d="M141.77,125.34c-1.71,16.58-58.17,10.77-56.47-5.81,1.71-16.58,15.73-28.72,31.32-27.11s26.85,16.34,25.14,32.92Z"/>
      <path class="cls-6" d="M140.92,125.46c-1.53,14.83-55.99,9.23-54.47-5.6,1.53-14.83,14.96-25.6,30-24.05,15.04,1.55,26,14.83,24.47,29.66Z"/>
      <g>
        <ellipse class="cls-23" cx="109.74" cy="113.16" rx="7.62" ry="1.86" transform="translate(-14.06 210.74) rotate(-84.13)"/>
        <ellipse class="cls-23" cx="119.15" cy="114.13" rx="7.62" ry="1.86" transform="translate(-6.58 220.98) rotate(-84.13)"/>
      </g>
      <path class="cls-12" d="M80.3,35.44c-6.52,4.23-13.64,7.65-21.2,10.18-4.63,1.55-10.08,2.68-14.86,0-4.32-2.42-6.86-7.44-7.2-12.04s1.14-8.85,2.9-12.8c2.34-5.23,5.22-10.16,8.58-14.72l2.81-5.47c3.5-.35,7.42,1.19,10.11,3.96,3.39,3.5,4.82,8.66,8.83,11.39,2.02,1.38,4.4,1.91,6.59,2.93,2.64,1.23,5,3.22,6.7,5.62,1.34,1.9,2.25,4.41,1.18,6.11l-4.44,4.83Z"/>
      <path class="cls-6" d="M77.53,33.13c-6.09,4.08-12.72,7.43-19.71,9.96-4.29,1.55-9.31,2.74-13.62,.41-3.89-2.11-6.08-6.67-6.27-10.89-.19-4.23,1.29-8.19,3.02-11.87,2.29-4.88,5.06-9.51,8.27-13.79l2.72-5.12c3.21-.42,6.77,.89,9.16,3.37,3.01,3.13,4.18,7.85,7.78,10.25,1.82,1.21,3.98,1.64,5.96,2.52,2.38,1.06,4.5,2.83,5.99,4.99,1.18,1.71,1.94,4,.91,5.59l-4.2,4.58Z"/>
      <path class="cls-12" d="M170.47,42.27c5.22,5.76,11.24,10.88,17.9,15.26,4.08,2.68,9.06,5.16,14.37,3.8,4.79-1.23,8.53-5.45,10.04-9.8,1.51-4.36,1.16-8.85,.46-13.12-.93-5.65-2.45-11.16-4.53-16.42l-1.32-6.01c-3.29-1.23-7.48-.74-10.79,1.25-4.17,2.51-6.87,7.14-11.45,8.76-2.31,.82-4.75,.72-7.12,1.15-2.86,.52-5.66,1.84-7.91,3.72-1.78,1.49-3.31,3.69-2.7,5.6l3.06,5.81Z"/>
      <path class="cls-6" d="M173.95,40.61c4.77,5.09,10.24,9.61,16.28,13.44,3.7,2.35,8.21,4.5,12.96,3.2,4.29-1.18,7.59-5.01,8.89-8.95,1.3-3.93,.92-7.96,.24-11.78-.91-5.06-2.35-9.98-4.3-14.68l-1.27-5.37c-2.97-1.06-6.73-.56-9.67,1.28-3.71,2.32-6.08,6.51-10.17,8.03-2.06,.77-4.25,.71-6.38,1.14-2.57,.51-5.06,1.73-7.06,3.45-1.58,1.36-2.92,3.36-2.35,5.07l2.83,5.17Z"/>
      <path class="cls-9" d="M76.88,125.2c2.38,6.81,7.95,12.42,14.75,14.84"/>
      <path class="cls-3" d="M71.97,131.76l2.89,3.1"/>
      <ellipse class="cls-7" cx="170.53" cy="128.41" rx="22.73" ry="16.87" transform="translate(-13.02 19.42) rotate(-6.28)"/>
      <ellipse class="cls-7" cx="58.28" cy="106.56" rx="16.87" ry="22.73" transform="translate(-61.76 125.06) rotate(-70.08)"/>
      <path class="cls-23" d="M66.43,45.65c13.84,7.11,30.72,6.68,44.2-1.1-3.08,2.38-6.6,4.23-10.33,5.46-11.13,3.71-24.17,2.38-33.86-4.36h0Z"/>
      <path class="cls-23" d="M146.72,43.78c8.19-8.73,18.73-.16,27.23,3.06,2.96,1.06,6.19,1.64,9.35,.7-1.44,.78-3.12,1.1-4.78,1.17-10.9,.21-21.28-13.04-31.8-4.93h0Z"/>
      <path class="cls-13" d="M68.03,14.67c-5.08,3.67-9.94,7.83-14.41,12.21,2.51-5.97,8.11-10.71,14.41-12.21h0Z"/>
      <path class="cls-13" d="M188.84,25.19c5.63,2.27,9.85,8.06,10.27,14.12-2.85-5.2-6.19-9.81-10.27-14.12h0Z"/>
      <g class="cls-21">
        <path class="cls-13" d="M91.16,121c10.37,5.41,22.05,7.87,33.67,6.81,3.85-.35,7.68-1.09,11.53-2.12-13.79,8.15-33.38,6.12-45.2-4.68h0Z"/>
      </g>
      <path class="cls-5" d="M16.74,101.51C20.92,43.22,71.56-.64,129.84,3.55c58.28,4.18,102.13,54.83,97.95,113.11-4.18,58.29-49.59,69.55-107.87,65.37-58.28-4.18-107.36-22.23-103.18-80.52Z"/>
      <path class="cls-15" d="M19,93.99C22.84,40.45,71.45,.32,127.57,4.35c56.12,4.03,98.49,50.69,94.65,104.23-3.84,53.53-47.29,62.3-103.4,58.27-56.12-4.03-103.66-19.33-99.82-72.86Z"/>
      <path class="cls-25" d="M23.78,97.22C27.48,45.64,75.22,7.03,130.41,10.99c55.19,3.96,96.92,48.99,93.22,100.57-3.7,51.58-46.41,59.97-101.6,56.01-55.19-3.96-101.96-18.77-98.26-70.36Z"/>
      <path class="cls-10" d="M141.77,125.34c-1.71,16.58-58.17,10.77-56.47-5.81,1.71-16.58,15.73-28.72,31.32-27.11s26.85,16.34,25.14,32.92Z"/>
      <path class="cls-6" d="M140.92,125.46c-1.53,14.83-55.99,9.23-54.47-5.6,1.53-14.83,14.96-25.6,30-24.05,15.04,1.55,26,14.83,24.47,29.66Z"/>
      <g>
        <ellipse class="cls-23" cx="109.74" cy="113.16" rx="7.62" ry="1.86" transform="translate(-14.06 210.74) rotate(-84.13)"/>
        <ellipse class="cls-23" cx="119.15" cy="114.13" rx="7.62" ry="1.86" transform="translate(-6.58 220.98) rotate(-84.13)"/>
      </g>
      <path class="cls-12" d="M80.3,35.44c-6.52,4.23-13.64,7.65-21.2,10.18-4.63,1.55-10.08,2.68-14.86,0-4.32-2.42-6.86-7.44-7.2-12.04s1.14-8.85,2.9-12.8c2.34-5.23,5.22-10.16,8.58-14.72l2.81-5.47c3.5-.35,7.42,1.19,10.11,3.96,3.39,3.5,4.82,8.66,8.83,11.39,2.02,1.38,4.4,1.91,6.59,2.93,2.64,1.23,5,3.22,6.7,5.62,1.34,1.9,2.25,4.41,1.18,6.11l-4.44,4.83Z"/>
      <path class="cls-16" d="M77.53,33.13c-6.09,4.08-12.72,7.43-19.71,9.96-4.29,1.55-9.31,2.74-13.62,.41-3.89-2.11-6.08-6.67-6.27-10.89-.19-4.23,1.29-8.19,3.02-11.87,2.29-4.88,5.06-9.51,8.27-13.79l2.72-5.12c3.21-.42,6.77,.89,9.16,3.37,3.01,3.13,4.18,7.85,7.78,10.25,1.82,1.21,3.98,1.64,5.96,2.52,2.38,1.06,4.5,2.83,5.99,4.99,1.18,1.71,1.94,4,.91,5.59l-4.2,4.58Z"/>
      <path class="cls-6" d="M77.53,33.13c-6.02,4.14-12.54,7.59-19.39,10.26-4.2,1.64-9.1,2.94-13.21,.79-3.71-1.94-5.7-6.32-5.77-10.43-.06-4.11,1.48-8.01,3.26-11.65,2.36-4.82,5.18-9.4,8.4-13.67l2.79-5.06c3.13-.5,6.54,.68,8.78,3.02,2.83,2.96,3.83,7.52,7.25,9.76,1.73,1.13,3.82,1.48,5.71,2.28,2.28,.97,4.28,2.63,5.66,4.69,1.09,1.63,1.77,3.84,.72,5.42l-4.2,4.58Z"/>
      <path class="cls-12" d="M170.47,42.27c5.22,5.76,11.24,10.88,17.9,15.26,4.08,2.68,9.06,5.16,14.37,3.8,4.79-1.23,8.53-5.45,10.04-9.8,1.51-4.36,1.16-8.85,.46-13.12-.93-5.65-2.45-11.16-4.53-16.42l-1.32-6.01c-3.29-1.23-7.48-.74-10.79,1.25-4.17,2.51-6.87,7.14-11.45,8.76-2.31,.82-4.75,.72-7.12,1.15-2.86,.52-5.66,1.84-7.91,3.72-1.78,1.49-3.31,3.69-2.7,5.6l3.06,5.81Z"/>
      <path class="cls-16" d="M173.95,40.61c4.77,5.09,10.24,9.61,16.28,13.44,3.7,2.35,8.21,4.5,12.96,3.2,4.29-1.18,7.59-5.01,8.89-8.95,1.3-3.93,.92-7.96,.24-11.78-.91-5.06-2.35-9.98-4.3-14.68l-1.27-5.37c-2.97-1.06-6.73-.56-9.67,1.28-3.71,2.32-6.08,6.51-10.17,8.03-2.06,.77-4.25,.71-6.38,1.14-2.57,.51-5.06,1.73-7.06,3.45-1.58,1.36-2.92,3.36-2.35,5.07l2.83,5.17Z"/>
      <path class="cls-6" d="M173.94,40.6c4.68,5.14,10.02,9.72,15.88,13.64,3.59,2.4,7.95,4.64,12.46,3.47,4.07-1.06,7.13-4.76,8.28-8.61,1.14-3.85,.69-7.83-.06-11.61-.99-5.01-2.48-9.9-4.45-14.57l-1.34-5.33c-2.87-1.11-6.44-.71-9.21,1.03-3.49,2.2-5.65,6.28-9.52,7.68-1.95,.71-4.05,.6-6.07,.97-2.44,.44-4.79,1.58-6.66,3.24-1.48,1.31-2.71,3.25-2.12,4.94l2.82,5.16Z"/>
      <ellipse class="cls-7" cx="171.22" cy="123.64" rx="22.73" ry="16.87" transform="translate(-12.5 19.47) rotate(-6.28)"/>
      <ellipse class="cls-7" cx="58.28" cy="106.56" rx="16.87" ry="22.73" transform="translate(-61.76 125.06) rotate(-70.08)"/>
      <path class="cls-13" d="M68.03,14.67c-5.08,3.67-9.94,7.83-14.41,12.21,2.51-5.97,8.11-10.71,14.41-12.21h0Z"/>
      <path class="cls-13" d="M188.84,25.19c5.63,2.27,9.85,8.06,10.27,14.12-2.85-5.2-6.19-9.81-10.27-14.12h0Z"/>
      <g class="cls-21">
        <path class="cls-13" d="M91.16,121c10.37,5.41,22.05,7.87,33.67,6.81,3.85-.35,7.68-1.09,11.53-2.12-13.79,8.15-33.38,6.12-45.2-4.68h0Z"/>
      </g>
      <path class="cls-23" d="M102.33,51.95c-.19,.44-6.97-4.39-16.93-4.46-14.42-.1-24.3,9.84-24.84,9.05-.51-.75,7.46-11.01,19.78-12.27,12.31-1.27,22.22,7.13,21.98,7.68Z"/>
      <path class="cls-23" d="M181.44,72.25c-.37,.31-4.32-7.01-13.22-11.47-12.89-6.45-26.15-1.9-26.28-2.84-.13-.89,11.56-6.58,23.17-2.28,11.6,4.3,16.79,16.21,16.33,16.59Z"/>
      <path class="cls-1" d="M128.37,94.65s5.15-20.8,18.6-25.46c13.46-4.66,23.75-.32,30.33,11.52,6.59,11.83,4.91,18.98,3.21,22.01-1.71,3.03-6.45,8.28-16.84,9.44-9.41,1.05-28.53,.45-35.31-17.5Z"/>
      <path class="cls-24" d="M128.7,96.31c-.51-1.03-.43-2.26,.19-3.22,3.17-4.96,13.59-19.99,22.83-18.98,11.06,1.2,17.24,7.98,18.74,13.55,1.5,5.57,1.48,24.25-6.79,24.5-8.02,.24-26.24,1.7-34.97-15.85Z"/>
      <path class="cls-23" d="M129.32,97.1c-.51-.96-.44-2.1,.17-2.99,3.09-4.58,13.23-18.47,22.33-17.49,10.88,1.18,16.99,7.51,18.5,12.69,1.51,5.18,1.59,22.53-6.53,22.71-7.88,.18-25.78,1.42-34.47-14.92Z"/>
      <circle class="cls-1" cx="162.67" cy="93.37" r="3.15"/>
      <path class="cls-1" d="M107.73,92.01s2.13-21.32-8.99-30.22c-11.12-8.9-22.27-8.26-32.44,.68-10.17,8.94-10.99,16.23-10.4,19.66,.59,3.43,3.3,9.96,12.7,14.54,8.51,4.14,26.73,10,39.13-4.65Z"/>
      <path class="cls-24" d="M106.86,93.47c.83-.8,1.16-1.98,.9-3.1-1.32-5.73-6.1-23.39-15.14-25.54-10.82-2.58-18.92,1.74-22.2,6.48-3.28,4.75-9.52,22.35-1.82,25.36,7.48,2.92,24.15,10.4,38.26-3.2Z"/>
      <path class="cls-23" d="M106,94c.8-.73,1.11-1.83,.85-2.88-1.37-5.35-6.27-21.84-15.17-23.96-10.64-2.54-18.53,1.38-21.69,5.75-3.16,4.38-9.06,20.69-1.46,23.58,7.37,2.81,23.81,9.98,37.47-2.5Z"/>
      <circle class="cls-1" cx="73.26" cy="80.81" r="3.15"/>
      <circle class="cls-1" cx="84.49" cy="73.83" r="5.34"/>
      <circle class="cls-1" cx="155.15" cy="83.76" r="5.34"/>
      <g>
        <path class="cls-19" d="M193.09,168.63c-.28,.22-3.73,5.79-6.53,7.81-1.21,.88-2.51,1.69-4.03,2.32-.18,.07-.29,.14-.22,.31,1.94,4.58-.41,8.38-4.28,11.88-1.82,1.65-3.96,3.09-6.23,4.43-.24,.14-.44,.26-.37,.53,.78,3.32-.49,6.33-2.69,9.2-2.76,3.61-6.58,6.65-10.7,9.52-7.05,4.92-14.9,9.21-22.71,13.52-5.09,2.81-10.19,5.61-15,8.65-3.28,2.08-6.48,4.23-9.04,6.78-1.29,1.29-2.36,2.66-2.55,4.28h-.14c-1.05-1.02-2.3-1.92-3.5-2.85-5.28-4.11-10.82-8.06-15.93-12.27-3.53-2.92-6.91-5.91-9.46-9.3-1.64-2.17-2.88-4.44-3.03-6.91-.05-.8-.03-1.6,.24-2.37,.11-.31,0-.54-.2-.79-1.78-2.18-3.94-4.19-6.15-6.17-5.52-4.93-11.42-9.64-17.07-14.5-1.57-1.35-3.2-2.67-4.15-4.31-1.67-2.86-2.36-5.81-1.42-8.82,.25-.81,0-1.13-.87-1.58-5.45-2.8-9-6.56-11.31-10.93-.22-.42-.3-1.01-.74-1.21-.44-.2-1.18,.17-1.79,.28-4.57,.82-9.21,.83-13.89,.42-1.73-.15-3.44-.37-5.17-.53-1.91-.19-3.62,.21-5.24,.83-2.65,1.01-4.79,2.44-6.86,3.94-.14,.1-.29,.2-.49,.35-.74-1.32-1.18-2.63-1.48-3.97-.06-.27,.03-.56-.25-.8l.08-3.38c.31-.48,.28-1.02,.46-1.52,1.26-3.57,3.86-6.5,8.34-8.49,2.67-1.19,5.64-1.91,8.72-2.43,7.76-1.3,15.67-1.38,23.61-1.09,1.87,.07,3.53-.24,5.25-.55l3.15,.07c.06,.13,.23,.09,.36,.11,2.42,.35,4.72,.87,6.46,2.2,.16,.12,.32,.12,.51,.13,1.51,.06,2.98,.27,4.43,.57,5.97,1.24,11.14,3.44,15.61,6.45,2.63,1.77,4.79,3.78,5.91,6.25,.11,.25,.37,.28,.64,.33,5.12,.99,10.09,2.29,14.89,3.88,3.88,1.28,7.71,2.62,11.06,4.54,.25,.14,.47,.12,.73,.09,4.85-.59,9.76-.82,14.66-1.14,6.2-.41,12.39-.87,18.48-1.79,5.35-.81,10.55-1.91,15.23-3.93,6.79-2.93,18.32-1.27,23.25-3.41,9.03-3.92,10.48,2.92,15.8-.76,2.76-.9,1.44-2.7,2.76-.9,.55,.74-7.14,6.25-7.16,7.05Zm-43.33,9.97c-.15,.04-.29,.08-.44,.11-4.97,1.02-10.05,1.66-15.26,1.8-4.88,.13-9.71-.22-14.46-1.11-2.89-.54-5.71-1.23-8.45-2.07-.8-.25-1.68-.43-2.35-.84-1.11-.69-2.33-1.28-3.56-1.85-4.15-1.91-8.56-3.48-13.2-4.72-1.02-.27-2.03-.61-3.16-.61-.89,0-1.14,.22-.95,.84,.17,.52,.5,1,.8,1.5,.47,.78,1.05,1.54,1.15,2.4,.03,.23,.09,.52-.25,.62-.29,.09-.47-.17-.67-.3-.18-.11-.36-.23-.47-.38-.91-1.1-1.82-2.2-2.68-3.31-.66-.85-1.4-1.67-2.25-2.43-.14-.13-.29-.32-.55-.25-.22,.06-.13,.26-.12,.4,0,.56-.01,1.12-.11,1.68-.21,1.14-.9,2.21-1.05,3.33-.21,1.54-1.05,2.84-2.36,4.01-1.18,1.05-2.59,1.91-4.62,2.1-.44,.04-.72-.01-.82-.37-.18-.64-.69-1.16-1.34-1.62-1.81-1.27-3.84-2.36-5.78-3.53-1.68-1.02-3.1-2.17-4.17-3.53-1.04-1.33-1.91-2.73-3.13-3.99-1.05-1.09-2.3-2.04-3.94-2.73-.41-.17-.77-.21-1.2-.08-1.63,.51-3.37,.48-5.12,.4-1.46-.07-2.88-.27-4.29-.53-.43-.08-.82-.09-.9,.32-.34,1.77-.67,3.54-.72,5.33-.05,2.32,1.1,4.23,3.76,5.71,1.52,.85,3.12,1.62,4.76,2.33,4.05,1.75,8.16,3.43,12.08,5.32,1.99,.96,3.97,1.92,5.86,2.97,2.19,1.21,4.37,2.45,6.38,3.8,1.72,1.16,3.41,2.35,4.89,3.67,1.48,1.32,2.77,2.71,4.05,4.12,1.27,1.41,2.46,2.85,3.74,4.25,1.96,2.15,3.97,4.24,6.94,5.81,2.43,1.28,5.15,1.89,8.13,1.92,3.02,.03,5.95-.37,8.84-.95,1.17-.23,2.26-.64,3.54-.79-.06,.1-.09,.17-.14,.22-.08,.08-.19,.15-.28,.22-1.2,.89-2.79,1.34-4.37,1.76-3.54,.93-7.23,1.32-11.05,1.13-.8-.04-1.54-.2-2.26-.45-2.78-.97-4.62-2.64-6.47-4.27-1.61-1.43-3.07-2.93-4.43-4.49-1.4-1.61-2.93-3.17-4.27-4.8-1.93-2.35-4.47-4.31-7.39-6.08-1.77-1.07-3.6-2.1-5.4-3.14-2.12-1.23-4.34-2.35-6.63-3.42-2.2-1.03-4.45-2.01-6.92-2.7-1.05-.29-2.1-.57-3.26-.51-1.06,.06-1.76,.44-2.02,1.16-.13,.37-.21,.75-.18,1.13,.16,1.92,1.2,3.64,2.46,5.32,1.07,1.42,2.64,2.61,4.05,3.86,1.9,1.69,3.94,3.31,5.9,4.97,3.11,2.64,6.3,5.24,9.39,7.9,2.25,1.93,4.44,3.88,6.45,5.93,1.13,1.16,2.09,2.39,3.24,3.54,2.38,2.38,4.9,4.69,7.6,6.89,2.4,1.95,4.94,3.82,7.5,5.67,1.13,.82,2.4,1.54,3.46,2.49-1.56-.55-2.89-1.23-4.23-1.9-1.44-.72-2.84-1.47-4.14-2.3-1.45-.92-2.85-1.88-4.2-2.87-1.9-1.4-3.63-2.89-5.3-4.41-.74-.67-1.41-1.39-2.13-2.08-.1-.1-.21-.26-.44-.2-.2,.05-.23,.2-.24,.33,0,.1,0,.2,0,.3,.03,2.31,1.3,4.38,2.9,6.35,1.42,1.76,3.26,3.33,5.13,4.85,2.9,2.35,5.98,4.6,8.96,6.9,1.67,1.3,3.34,2.6,4.94,3.94,1.48,1.24,2.86,2.54,4.29,3.82,.11,.1,.18,.26,.42,.23,.28-.03,.24-.21,.3-.35,.21-.54,.43-1.07,.82-1.57,.61-.78,1.37-1.48,2.18-2.16,1.44-1.22,3.05-2.33,4.75-3.37,1.61-.98,3.24-1.95,4.93-2.87,1.67-.91,3.26-1.88,4.94-2.78,1.98-1.06,4.02-2.05,6.01-3.1,1.75-.91,3.45-1.87,5.2-2.78,2.98-1.55,5.86-3.19,8.77-4.81,1.54-.86,3.02-1.77,4.5-2.69,1.36-.84,2.72-1.67,4-2.56,2.5-1.74,4.97-3.49,7.14-5.44,1.01-.91,2.01-1.83,2.88-2.8,1.47-1.63,2.68-3.35,3.46-5.22,.52-1.25,.79-2.51,.8-3.81,0-.63-.22-.72-1.08-.5-2.7,.69-5.41,1.38-8.1,2.09-1.99,.52-3.97,1.07-5.94,1.62-3.2,.9-6.4,1.8-9.58,2.75-2.45,.73-4.9,1.48-7.27,2.32-1.99,.7-3.98,1.42-5.93,2.19-2.45,.97-4.78,2.04-6.87,3.35-2.55,1.59-4.62,3.49-6.55,5.45-1.7,1.72-3.13,3.56-4.48,5.43-.55,.76-1.1,1.53-1.64,2.3-.1,.14-.19,.3-.44,.26-.3-.06-.14-.24-.13-.38,.02-.13,.04-.26,.08-.39,1.31-5,4.58-9.24,9.79-12.76,2.27-1.53,4.8-2.8,7.51-3.92,2.34-.97,4.76-1.82,7.23-2.6,3.04-.96,6.13-1.83,9.25-2.65,3.08-.81,6.17-1.59,9.24-2.41,3.36-.9,6.7-1.82,10.04-2.75,3.33-.94,6.68-1.82,9.36-3.59,3.31-2.19,5.77-4.72,6.85-7.84,.47-1.35,.47-2.73-.35-4.05-.34-.55-.5-.57-1.16-.2-1.14,.64-2.22,1.34-3.42,1.92-2.95,1.41-6.09,2.58-9.42,3.51-.83,.23-1.67,.48-2.78,.6,1.08-.71,2.15-1.19,3.19-1.69,1.47-.71,2.98-1.37,4.45-2.08,1.62-.79,3.26-1.56,4.88-2.35,3.14-1.53,6.21-3.11,8.95-4.97,1.91-1.3,3.68-2.69,4.76-4.43,1.27-2.04,1.14-4-.71-5.9-1.05-1.08-6.77-.06-7.86,.93-.59,.53-1.16,1.11-2.19,1.43,.07-.25,.12-.44,.18-.63,.53-1.49-12.46,.42-17.35,2.63-3.15,1.42-6.6,2.4-10.19,3.18-5.25,1.13-10.63,1.81-16.08,2.29-5.61,.5-11.26,.74-16.88,1.16-1.3,.1-2.58,.26-3.87,.41-.49,.05-.54,.23-.2,.46,.13,.09,.29,.17,.46,.24,1.37,.56,2.81,1,4.31,1.34,3.23,.75,6.56,1.03,9.92,1.17,2.5,.1,5,.07,7.5,0,2.95-.09,5.88-.27,8.81-.46,1.83-.12,3.66-.28,5.54-.23ZM15.54,157.14c.49-.09,.84-.16,1.21-.21,4.59-.71,9.26-.85,13.95-.87,2.64-.02,5.29,.09,7.92,.33,.59,.05,.77-.11,.82-.52,.16-1.36,.63-2.64,2.2-3.57,.15-.09,.42-.17,.32-.34-.1-.18-.38-.1-.58-.1-1.55,.01-3.09,.05-4.64,.05-5.14,.01-10.28-.02-15.37,.55-3.9,.44-7.64,1.19-10.93,2.73-1.84,.86-3.33,1.96-4.51,3.28-1.27,1.42-1.95,2.98-2.36,4.62-.32,1.29-.35,2.6-.27,3.91,0,.14,0,.29,.21,.34,.19,.05,.29-.08,.38-.17,.5-.52,1.19-.93,1.8-1.39,1.08-.82,2.37-1.45,3.86-1.86,2.35-.64,4.72-.42,7.05,.16,3.99,.99,7.96,1.04,11.98,.19,3.15-.67,6.14-1.61,9.17-2.48,.57-.16,1.13-.34,1.69-.51,.15-.05,.34-.1,.29-.24-.06-.15-.28-.1-.43-.09-.45,.02-.9,.05-1.35,.07-2.8,.15-5.59,.31-8.37,.52-1.15,.09-2.3,.23-3.55,.14,.29-.23,.57-.34,.89-.41,2.34-.48,4.73-.81,7.12-1.16,1.34-.2,2.7-.37,3.97-.76,.81-.25,.98-.65,.47-1.15-.51-.51-1.29-.74-2.1-.87-2.18-.36-4.37-.18-6.53,.01-3.64,.32-7.29,.48-10.96,.25-1.07-.07-2.17-.06-3.32-.42Zm56.63,8.02c2.19,.44,4.28,1.73,5.43,2.83,.69,.65,1.12,1.39,1.37,2.18,.04,.11,.03,.26,.25,.25,.2,0,.23-.14,.26-.26,.02-.07,.03-.13,.04-.2,.45-2.87-.62-5.49-2.93-7.89-2.1-2.19-4.84-3.88-8.08-5.24-3.48-1.47-7.19-2.39-11.16-2.85-.35-.04-.55,.04-.4,.29,.52,.84,.71,1.72,.84,2.61,.04,.26,.25,.33,.57,.37,2.1,.24,4.18,.53,6.22,.95,2.93,.62,5.57,1.59,7.8,3.08,.35,.23,.78,.47,.94,.84-.29,.08-.47-.05-.61-.13-1.49-.86-3.12-1.54-4.9-2.05-2.95-.85-6.04-1.25-9.21-1.32-.39,0-.67,.05-.69,.41-.03,.68-.16,1.35-.7,1.94-.34,.37-.13,.64,.43,.83,.71,.24,1.36,.55,1.95,.93,1.88,1.19,2.94,2.74,3.97,4.3,.83,1.24,1.69,2.48,3,3.5,1.48,1.16,3.23,2.14,4.86,3.19,1.38,.89,2.84,1.76,3.66,2.98,.23,.35,.47,.31,.82,.14,1.45-.71,2.01-1.76,2.13-2.94,.21-2.1-.87-3.98-2.38-5.76-.93-1.09-2.16-2.02-3.48-2.98Zm-19.22-8.26c-.87-.47-1.42-1.04-2.09-1.53-1.17-.88-2.12-1.9-3.51-2.63-.91-.48-1.86-.35-2.4,.33-.33,.41-.5,.86-.48,1.33,.1,2.55,1.21,4.87,3.33,6.99,1.13,1.13,2.67,1.1,3.95,.69,.52-.17,.99-.38,1.43-.63,1.48-.85,2.41-1.9,2.26-3.29-.2-1.84-1.25-3.46-2.84-4.93-.7-.65-1.63-1.07-2.69-1.36-.34-.09-.72-.11-.97,.13-.25,.24-.04,.44,.17,.63,.31,.27,.65,.53,.97,.8,1.23,1.03,2.44,2.06,2.88,3.48Zm-10.61,6.88c.04-.3-.18-.43-.72-.23-.99,.36-2.04,.61-3.06,.91-.53,.16-.64,.36-.45,.73,.83,1.67,1.71,3.32,2.76,4.93,.07,.11,.08,.3,.33,.29,.28-.01,.27-.2,.28-.34,.2-2.06,.26-4.13,.85-6.28Zm1.15-10.55c-.77,.35-1.13,.81-1.34,1.35-.6,1.53-.14,2.98,.7,4.4,.55,.92,1.3,1.76,2.39,2.46-.54-2.72-1.52-5.4-1.75-8.21Z"/>
        <path class="cls-26" d="M149.76,178.6c-1.88-.06-3.71,.11-5.54,.23-2.93,.19-5.87,.37-8.81,.46-2.5,.08-5,.11-7.5,0-3.36-.14-6.69-.42-9.92-1.17-1.5-.35-2.94-.79-4.31-1.34-.16-.07-.32-.15-.46-.24-.33-.24-.28-.41,.2-.46,1.29-.14,2.58-.31,3.87-.41,5.62-.42,11.27-.66,16.88-1.16,5.44-.48,10.83-1.16,16.08-2.29,3.59-.78,7.05-1.76,10.19-3.18,4.9-2.21,17.89-4.12,17.35-2.63,1.34,4.73-10.35,7.95-10.43,8.2,1.03-.32,11.84-8.47,12.43-9,1.09-.98,6.8-2.01,7.86-.93,1.85,1.91,1.98,3.87,.71,5.9-1.08,1.74-2.85,3.12-4.76,4.43-2.74,1.87-5.81,3.44-8.95,4.97-1.62,.79-3.26,1.56-4.88,2.35-1.47,.71-2.98,1.37-4.45,2.08-1.04,.5-2.11,.98-3.19,1.69,1.11-.12,1.95-.37,2.78-.6,3.33-.93,6.48-2.1,9.42-3.51,1.2-.58,2.28-1.28,3.42-1.92,.66-.37,.81-.35,1.16,.2,.82,1.32,.82,2.7,.35,4.05-1.08,3.13-3.54,5.65-6.85,7.84-2.68,1.78-6.04,2.66-9.36,3.59-3.33,.94-6.68,1.85-10.04,2.75-3.07,.82-6.16,1.6-9.24,2.41-3.12,.82-6.21,1.69-9.25,2.65-2.48,.78-4.9,1.63-7.23,2.6-2.71,1.12-5.25,2.4-7.51,3.92-5.21,3.51-8.48,7.76-9.79,12.76-.03,.13-.06,.26-.08,.39-.02,.14-.18,.32,.13,.38,.25,.05,.34-.12,.44-.26,.54-.77,1.09-1.53,1.64-2.3,1.35-1.87,2.78-3.71,4.48-5.43,1.93-1.96,4-3.86,6.55-5.45,2.09-1.3,4.42-2.38,6.87-3.35,1.95-.77,3.94-1.49,5.93-2.19,2.37-.84,4.82-1.59,7.27-2.32,3.17-.95,6.38-1.84,9.58-2.75,1.97-.56,3.95-1.1,5.94-1.62,2.69-.71,5.4-1.39,8.1-2.09,.86-.22,1.09-.13,1.08,.5,0,1.3-.28,2.56-.8,3.81-.78,1.87-2,3.59-3.46,5.22-.87,.97-1.87,1.89-2.88,2.8-2.17,1.95-4.64,3.7-7.14,5.44-1.28,.89-2.64,1.73-4,2.56-1.48,.91-2.96,1.83-4.5,2.69-2.91,1.62-5.78,3.26-8.77,4.81-1.75,.91-3.45,1.87-5.2,2.78-1.99,1.04-4.03,2.04-6.01,3.1-1.68,.9-3.28,1.87-4.94,2.78-1.69,.92-3.32,1.89-4.93,2.87-1.7,1.04-3.31,2.15-4.75,3.37-.81,.68-1.57,1.38-2.18,2.16-.39,.5-.6,1.03-.82,1.57-.06,.14-.02,.32-.3,.35-.24,.03-.31-.13-.42-.23-1.43-1.27-2.81-2.57-4.29-3.82-1.6-1.34-3.27-2.64-4.94-3.94-2.98-2.31-6.06-4.55-8.96-6.9-1.88-1.52-3.71-3.1-5.13-4.85-1.6-1.97-2.87-4.04-2.9-6.35,0-.1,0-.2,0-.3,0-.14,.03-.28,.24-.33,.23-.06,.34,.1,.44,.2,.71,.69,1.38,1.4,2.13,2.08,1.68,1.52,3.4,3.01,5.3,4.41,1.35,1,2.76,1.95,4.2,2.87,1.3,.83,2.71,1.59,4.14,2.3,1.34,.67,2.67,1.35,4.23,1.9-1.06-.95-2.33-1.67-3.46-2.49-2.55-1.85-5.1-3.72-7.5-5.67-2.71-2.21-5.23-4.51-7.6-6.89-1.15-1.15-2.11-2.39-3.24-3.54-2.01-2.05-4.2-4-6.45-5.93-3.09-2.65-6.28-5.25-9.39-7.9-1.96-1.66-3.99-3.28-5.9-4.97-1.41-1.25-2.98-2.44-4.05-3.86-1.26-1.68-2.31-3.41-2.46-5.32-.03-.39,.04-.76,.18-1.13,.25-.72,.96-1.1,2.02-1.16,1.16-.06,2.21,.21,3.26,.51,2.47,.69,4.72,1.68,6.92,2.7,2.28,1.06,4.51,2.19,6.63,3.42,1.8,1.05,3.63,2.07,5.4,3.14,2.92,1.76,5.46,3.73,7.39,6.08,1.34,1.63,2.87,3.19,4.27,4.8,1.35,1.56,2.82,3.06,4.43,4.49,1.85,1.64,3.69,3.3,6.47,4.27,.72,.25,1.46,.41,2.26,.45,3.82,.19,7.5-.2,11.05-1.13,1.58-.42,3.17-.87,4.37-1.76,.1-.07,.2-.14,.28-.22,.05-.05,.08-.12,.14-.22-1.27,.15-2.36,.56-3.54,.79-2.89,.58-5.82,.97-8.84,.95-2.98-.03-5.7-.64-8.13-1.92-2.97-1.57-4.99-3.66-6.94-5.81-1.28-1.4-2.47-2.85-3.74-4.25-1.28-1.41-2.57-2.8-4.05-4.12-1.48-1.32-3.17-2.51-4.89-3.67-2.02-1.36-4.19-2.59-6.38-3.8-1.89-1.05-3.87-2.01-5.86-2.97-3.92-1.89-8.03-3.57-12.08-5.32-1.64-.71-3.24-1.48-4.76-2.33-2.66-1.48-3.82-3.39-3.76-5.71,.04-1.79,.37-3.56,.72-5.33,.08-.41,.47-.4,.9-.32,1.41,.26,2.84,.46,4.29,.53,1.75,.08,3.48,.11,5.12-.4,.43-.13,.79-.09,1.2,.08,1.64,.68,2.89,1.64,3.94,2.73,1.22,1.26,2.09,2.66,3.13,3.99,1.06,1.36,2.49,2.51,4.17,3.53,1.93,1.17,3.97,2.26,5.78,3.53,.66,.46,1.16,.98,1.34,1.62,.1,.36,.38,.41,.82,.37,2.03-.19,3.44-1.05,4.62-2.1,1.31-1.17,2.16-2.47,2.36-4.01,.15-1.12,.84-2.19,1.05-3.33,.1-.56,.12-1.12,.11-1.68,0-.14-.1-.34,.12-.4,.26-.07,.41,.12,.55,.25,.86,.76,1.59,1.58,2.25,2.43,.87,1.11,1.78,2.21,2.68,3.31,.12,.14,.3,.26,.47,.38,.2,.13,.38,.39,.67,.3,.34-.11,.28-.39,.25-.62-.11-.86-.68-1.62-1.15-2.4-.3-.49-.64-.97-.8-1.5-.19-.62,.06-.84,.95-.84,1.13,0,2.14,.34,3.16,.61,4.64,1.24,9.05,2.81,13.2,4.72,1.23,.57,2.45,1.16,3.56,1.85,.67,.42,1.55,.6,2.35,.84,2.74,.84,5.56,1.53,8.45,2.07,4.75,.89,9.57,1.24,14.46,1.11,5.21-.14,10.28-.78,15.26-1.8,.15-.03,.29-.07,.44-.11Zm8.81,1.81c-.34,.19-.65,.34-.9,.52-2.83,1.97-5.39,4.11-7.87,6.3-2.2,1.94-4.65,3.7-7.42,5.25-2.91,1.62-5.94,3.11-9.26,4.32-3.73,1.36-7.64,2.36-11.82,2.86-3.44,.41-6.87,.39-10.27-.24-3.38-.63-6.46-1.75-9.31-3.15-3.33-1.63-6.37-3.52-9.35-5.45-2.66-1.73-5.31-3.46-8.08-5.11-3.59-2.14-7.38-4.04-11.65-5.45-.92-.3-1.86-.59-3.03-.82,1.13,.88,2.34,1.48,3.46,2.15,2.64,1.6,5.23,3.23,7.8,4.89,3.79,2.45,7.49,4.97,11.43,7.3,3.09,1.83,6.32,3.51,9.93,4.82,3.44,1.24,7.07,2.08,10.9,2.32,5.78,.36,11.45-.02,16.95-1.29,2.8-.65,5.44-1.51,7.9-2.63,2.38-1.08,4.5-2.37,6.5-3.77,2.2-1.54,4.14-3.23,6.02-4.96,1.39-1.28,2.7-2.61,4.04-3.91,1.34-1.3,2.67-2.61,4.04-3.95Z"/>
        <path class="cls-26" d="M15.54,157.14c1.15,.36,2.25,.35,3.32,.42,3.67,.22,7.32,.07,10.96-.25,2.17-.19,4.35-.37,6.53-.01,.81,.13,1.6,.36,2.1,.87,.51,.51,.34,.9-.47,1.15-1.26,.39-2.62,.56-3.97,.76-2.39,.35-4.78,.68-7.12,1.16-.32,.07-.6,.18-.89,.41,1.25,.09,2.4-.06,3.55-.14,2.79-.21,5.58-.37,8.37-.52,.45-.02,.9-.06,1.35-.07,.15,0,.37-.05,.43,.09,.06,.14-.14,.2-.29,.24-.56,.18-1.12,.35-1.69,.51-3.03,.87-6.02,1.81-9.17,2.48-4.02,.86-7.99,.81-11.98-.19-2.33-.58-4.7-.81-7.05-.16-1.49,.41-2.78,1.04-3.86,1.86-.6,.46-1.29,.87-1.8,1.39-.09,.1-.19,.22-.38,.17-.21-.05-.2-.2-.21-.34-.08-1.31-.06-2.62,.27-3.91,.41-1.64,1.08-3.2,2.36-4.62,1.18-1.32,2.68-2.42,4.51-3.28,3.3-1.54,7.03-2.29,10.93-2.73,5.09-.57,10.23-.54,15.37-.55,1.55,0,3.09-.04,4.64-.05,.2,0,.47-.07,.58,.1,.1,.18-.17,.25-.32,.34-1.57,.93-2.05,2.21-2.2,3.57-.05,.41-.23,.58-.82,.52-2.63-.24-5.27-.35-7.92-.33-4.69,.03-9.37,.17-13.95,.87-.36,.06-.72,.13-1.21,.21Z"/>
        <path class="cls-26" d="M72.17,165.16c1.31,.97,2.55,1.89,3.48,2.98,1.52,1.78,2.6,3.65,2.38,5.76-.12,1.18-.67,2.23-2.13,2.94-.34,.17-.59,.21-.82-.14-.82-1.23-2.28-2.09-3.66-2.98-1.63-1.06-3.38-2.03-4.86-3.19-1.31-1.02-2.17-2.26-3-3.5-1.03-1.56-2.09-3.11-3.97-4.3-.59-.37-1.24-.68-1.95-.93-.56-.19-.77-.46-.43-.83,.55-.59,.67-1.26,.7-1.94,.02-.35,.3-.42,.69-.41,3.17,.07,6.25,.46,9.21,1.32,1.78,.51,3.41,1.2,4.9,2.05,.15,.08,.33,.21,.61,.13-.16-.36-.59-.6-.94-.84-2.23-1.49-4.87-2.46-7.8-3.08-2.04-.43-4.12-.71-6.22-.95-.31-.04-.53-.11-.57-.37-.13-.89-.32-1.77-.84-2.61-.15-.25,.05-.33,.4-.29,3.97,.46,7.68,1.38,11.16,2.85,3.24,1.37,5.98,3.06,8.08,5.24,2.31,2.4,3.38,5.02,2.93,7.89-.01,.07-.02,.13-.04,.2-.03,.12-.06,.25-.26,.26-.23,0-.22-.14-.25-.25-.26-.79-.69-1.53-1.37-2.18-1.16-1.1-3.24-2.39-5.43-2.83Z"/>
        <path class="cls-26" d="M52.95,156.91c-.44-1.41-1.66-2.45-2.88-3.48-.32-.27-.66-.53-.97-.8-.21-.18-.42-.39-.17-.63,.25-.24,.63-.22,.97-.13,1.06,.29,1.99,.71,2.69,1.36,1.6,1.47,2.64,3.09,2.84,4.93,.15,1.39-.78,2.44-2.26,3.29-.44,.25-.91,.46-1.43,.63-1.28,.41-2.81,.44-3.95-.69-2.12-2.12-3.22-4.44-3.33-6.99-.02-.47,.16-.92,.48-1.33,.54-.68,1.5-.8,2.4-.33,1.4,.73,2.34,1.76,3.51,2.63,.66,.5,1.22,1.06,2.09,1.53Z"/>
        <path class="cls-19" d="M42.34,163.78c-.59,2.15-.66,4.22-.85,6.28-.01,.15,0,.33-.28,.34-.25,.01-.26-.17-.33-.29-1.05-1.61-1.94-3.26-2.76-4.93-.19-.37-.08-.57,.45-.73,1.02-.3,2.07-.56,3.06-.91,.54-.19,.75-.06,.72,.23Z"/>
        <path class="cls-19" d="M43.49,153.23c.23,2.81,1.21,5.48,1.75,8.21-1.09-.69-1.84-1.54-2.39-2.46-.85-1.42-1.31-2.88-.7-4.4,.21-.54,.57-.99,1.34-1.35Z"/>
        <path class="cls-26" d="M158.57,180.4c-1.37,1.34-2.7,2.64-4.04,3.95-1.34,1.31-2.64,2.64-4.04,3.91-1.88,1.72-3.82,3.42-6.02,4.96-2,1.4-4.12,2.69-6.5,3.77-2.46,1.11-5.1,1.98-7.9,2.63-5.5,1.27-11.17,1.66-16.95,1.29-3.83-.24-7.46-1.07-10.9-2.32-3.61-1.31-6.84-2.98-9.93-4.82-3.94-2.34-7.64-4.85-11.43-7.3-2.56-1.66-5.16-3.29-7.8-4.89-1.11-.67-2.33-1.27-3.46-2.15,1.17,.23,2.1,.51,3.03,.82,4.27,1.41,8.06,3.31,11.65,5.45,2.77,1.65,5.42,3.38,8.08,5.11,2.98,1.93,6.01,3.82,9.35,5.45,2.86,1.4,5.93,2.52,9.31,3.15,3.4,.63,6.83,.65,10.27,.24,4.18-.5,8.08-1.5,11.82-2.86,3.31-1.21,6.35-2.7,9.26-4.32,2.77-1.55,5.22-3.31,7.42-5.25,2.48-2.19,5.04-4.32,7.87-6.3,.26-.18,.56-.33,.9-.52Z"/>
      </g>
      <g>
        <g>
          <path class="cls-2" d="M80.74,180.51c.22-.17,.44-.35,.66-.52,.67-.52,1.32-1.05,1.98-1.57,.37-.29,.96-.22,1.29,.1,.41,.4,.49,.87,.13,1.26-.37,.41-.8,.76-1.2,1.14-.92,.87-1.85,1.72-2.79,2.57-.5,.45-.4,1.09,.32,1.78,.57,.54,1.25,.96,2.01,1.2,.79,.25,1.46,.15,1.82-.44,.63-1.03,1.22-2.08,1.82-3.13,.09-.15,.16-.31,.23-.47,.23-.49,.62-.63,1.16-.43,.61,.22,.9,.64,.75,1.16-.11,.4-.26,.8-.45,1.17-.68,1.32-1.54,2.55-2.46,3.73-.51,.66-1.34,.83-2.34,.62-1.31-.28-2.5-.93-3.54-1.83-.57-.49-1.03-1.04-1.36-1.66-.55-1.06-.44-1.97,.16-2.73,.13-.17,.24-.34,.36-.52,.48-.48,.96-.96,1.43-1.44Z"/>
          <path class="cls-2" d="M101.07,184.2c.75,.83,.8,1.81,.03,2.52-.39,.36-.87,.53-1.44,.33-.56-.2-.82-.63-.85-1.14-.05-.71,.24-1.26,.85-1.66,.27-.18,.58-.21,.89-.23,.17,.06,.35,.13,.52,.19Z"/>
          <path class="cls-2" d="M141.29,185.57c-.77,.36-1.5,.67-2.22,1-1.11,.51-2.21,1.02-3.34,1.46-.51,.2-.89,.1-1.09-.24-.17-.28-.07-.74,.29-1.02,.31-.25,.67-.48,1.03-.65,.85-.39,1.71-.77,2.57-1.15,1.16-.52,2.33-1.08,3.49-1.65,.36-.17,.78-.25,1.16-.3,.53-.07,.73,.11,.74,.59,0,.54-.17,1.08-.43,1.62-.81,1.67-1.73,3.33-2.74,4.95-.42,.67-.86,1.34-1.36,2.08,.26-.1,.45-.16,.62-.25,1.5-.71,2.97-1.48,4.43-2.32,.36-.2,.71-.42,1.08-.58,.45-.2,.67-.13,.84,.18,.25,.44,.11,.99-.4,1.45-.14,.13-.33,.23-.5,.32-1.79,.94-3.51,1.96-5.28,2.88-.69,.36-1.39,.71-2.1,1.03-.18,.08-.4,.13-.59,.14-.97,.08-1.32-.17-1.28-.88,.03-.54,.28-1.05,.65-1.54,1.54-2.12,2.92-4.3,4.12-6.51,.1-.19,.19-.38,.31-.6"/>
          <path class="cls-2" d="M123.18,192.31c-.08-.36-.16-.77-.25-1.17-.04-.19-.24-.16-.38-.12-.45,.16-.92,.32-1.34,.53-.58,.28-1.13,.61-1.71,.9-.27,.14-.48,.14-.7-.02-.49-.34-.51-1.15,.07-1.49,1.45-.85,2.92-1.44,4.66-1.48,.59-.01,.87,.13,1.05,.59,.1,.25,.19,.51,.22,.78,.05,.56,.28,1.07,.45,1.6,.25,.75,.47,1.51,.68,2.27,.2,.74,.35,1.48,.53,2.22,.06,.24-.07,.48-.35,.65-.29,.17-.65,.21-.91,.1-.37-.16-.58-.13-.92,.12-.55,.41-1.22,.63-1.93,.73-.86,.12-1.7,.07-2.51-.1-1.26-.27-1.86-.98-2.04-1.92-.1-.5-.02-1.01,.17-1.51,.35-.93,1.08-1.58,2.2-1.91,.96-.28,1.95-.48,3-.79m.9,2.93s.02,0,.03,0c-.07-.33-.14-.67-.23-1-.05-.22-.23-.32-.53-.3-.65,.04-1.29,.11-1.92,.3-.75,.23-1.29,.61-1.53,1.24-.27,.69,.19,1.34,1.11,1.42,.53,.05,1.09,.04,1.63-.04,.98-.14,1.47-.66,1.44-1.39,0-.07,0-.15,0-.22"/>
          <path class="cls-2" d="M104.51,190.02c-.08,.6-.15,1.19-.23,1.79,.16,.03,.36,.04,.56,.09,1.15,.25,2.31,.47,3.48,.66,.02,0,.03,0,.05,0,.32,.09,.43,.36,.31,.82-.09,.34-.31,.49-.65,.46-1.36-.12-2.72-.29-4.07-.51-.16-.03-.23,0-.27,.13-.23,.76-.49,1.51-.73,2.27-.04,.12-.02,.25-.02,.37-.03,.51-.41,.76-1.08,.67-.45-.06-.79-.29-.81-.66-.01-.36,.05-.73,.17-1.08,.22-.66,.48-1.31,.73-1.97,.05-.14,.07-.24-.06-.39-.33-.37-.25-.73,.21-1.03,.18-.11,.27-.25,.3-.42,.09-.47,.18-.95,.27-1.41-.23-.09-.45-.16-.64-.26-.33-.17-.53-.41-.49-.75,.04-.36,.27-.58,.66-.67,.53-.11,1.06-.08,1.6,0,1.36,.18,2.66,.56,3.97,.94,.43,.12,.86,.26,1.29,.38,.02,0,.05,.01,.07,.02,.49,.16,.75,.47,.63,.8-.18,.51-.59,.74-1.14,.58-1.16-.32-2.34-.54-3.53-.75-.21-.03-.42-.06-.58-.09"/>
          <path class="cls-2" d="M113.79,194.31c.52,.43,1.03,.84,1.56,1.25,.25,.19,.49,.39,.74,.58,.35,.28,.35,.62-.02,.89-.42,.31-.79,.28-1.18,0-1.05-.76-2.09-1.53-3.09-2.33-.06-.05-.15-.08-.27-.13,.08,.58-.1,1.09-.25,1.61-.1,.35-.3,.5-.66,.5-.51,0-.91-.23-.93-.58-.01-.28,.06-.57,.1-.85,.03-.17,.06-.35,.1-.52,.05-.22,.07-.44-.04-.66-.12-.24-.04-.46,.2-.64,.07-.05,.13-.14,.14-.22,.2-1.02,.38-2.04,.55-3.06,.05-.3,.04-.32,.38-.29,1.26,.12,2.52,.2,3.79,.24,.49,.01,.96,.08,1.4,.27,.6,.26,.91,.69,.96,1.27,.03,.43-.06,.86-.3,1.25-.12,.19-.33,.37-.54,.5-.71,.43-1.54,.66-2.37,.86-.09,.02-.17,.04-.28,.07m-1.95-1.18c.18,0,.32,0,.47,0,.76-.07,1.53-.13,2.27-.29,.38-.09,.74-.32,1.05-.55,.26-.2,.28-.49,.14-.76-.13-.25-.41-.28-.7-.28-.21,0-.43,0-.65,0-.69,.02-1.38,.02-2.07,.02-.11,0-.23,0-.24,.13-.08,.57-.17,1.13-.26,1.72"/>
          <path class="cls-2" d="M90.67,187.63c-.22,.42-.42,.79-.6,1.16-.3,.62-.59,1.25-.88,1.87-.05,.1-.1,.2-.17,.28-.12,.15-.28,.27-.55,.21-.27-.07-.49-.24-.54-.45-.05-.25-.09-.53,0-.73,.37-.8,.79-1.58,1.21-2.36,.23-.44,.5-.87,.74-1.29-.11-.16-.24-.3-.3-.45-.17-.49,.21-.81,.76-.67,.13,.03,.22,.06,.32-.06,.18-.21,.37-.23,.62-.13,.28,.12,.45,.33,.42,.58-.01,.14-.06,.27-.12,.39-.06,.13-.15,.25-.22,.38,1.02,1.24,1.74,2.61,2.55,4.01,.05-.1,.1-.17,.13-.25,.32-.93,.64-1.87,.96-2.8,.04-.11,.09-.22,.17-.31,.18-.22,.47-.28,.77-.16,.27,.1,.43,.33,.37,.61-.06,.29-.19,.55-.27,.84-.38,1.36-.75,2.73-1.14,4.1-.04,.15-.1,.31-.2,.44-.14,.19-.39,.25-.68,.21-.28-.04-.43-.22-.51-.42-.12-.27-.19-.55-.32-.82-.65-1.25-1.47-2.45-2.2-3.66-.09-.15-.18-.29-.32-.51"/>
          <path class="cls-2" d="M128.82,191.31c0,.24,0,.49,.03,.73,.08,.95,.16,1.9,.23,2.85,0,.08,0,.16,0,.25-.03,.21-.11,.4-.4,.5-.29,.1-.57,.07-.72-.1-.17-.18-.35-.4-.38-.64-.11-1.08-.19-2.17-.3-3.26-.05-.52-.12-1.05-.18-1.57-.01-.09,0-.18,.01-.27,.07-.43,.33-.63,.81-.56,.26,.04,.56,.14,.72,.3,.82,.79,1.91,1.28,3.04,1.73,.46,.18,.94,.33,1.42,.49,.04,.01,.1,.02,.18,.03-.05-.24-.08-.46-.14-.66-.24-.79-.5-1.58-.76-2.36-.04-.12-.08-.25-.1-.38-.04-.32,.16-.6,.51-.73,.35-.12,.62-.05,.77,.25,.09,.18,.11,.39,.17,.59,.4,1.29,.8,2.58,1.19,3.87,.12,.39,.25,.78,.34,1.18,.03,.11-.03,.26-.08,.39-.13,.32-.37,.45-.72,.36-.26-.06-.52-.16-.69-.32-.63-.56-1.42-.95-2.21-1.34-.9-.44-1.8-.88-2.67-1.35-.03,.01-.05,.03-.08,.04"/>
          <path class="cls-2" d="M99.78,191.64c-.29,.74-.58,1.48-.89,2.22-.21,.53-.7,.8-1.41,.84-.37,.02-.83-.26-1.01-.62-.22-.43-.2-.86-.03-1.25,.42-1,.88-1.99,1.32-2.99,.18-.41,.4-.82,.6-1.23,.33-.68,1.13-.83,1.84-.36,.44,.29,.61,.72,.44,1.16-.28,.74-.56,1.48-.85,2.22"/>
        </g>
        <g>
          <path class="cls-2" d="M119.04,201.1c-.03,.46-.07,.92-.11,1.37-.02,.26-.05,.52-.09,.78-.02,.21-.18,.39-.49,.34-.16-.02-.35-.22-.34-.34,.1-.94,.22-1.88,.36-2.82,.02-.14,.16-.34,.3-.38,.14-.04,.41,.04,.53,.14,.83,.63,1.66,1.25,2.52,1.86,.14,.1,.27,.2,.4,.29,.05,0,.09-.02,.14-.03-.02-.75-.04-1.5-.08-2.24-.01-.22,.02-.43,.37-.43,.15,0,.39,.17,.4,.29,.07,.68,.09,1.38,.1,2.07,0,.33,0,.66-.09,.99-.04,.16-.22,.36-.4,.44-.12,.05-.41-.09-.55-.19-.96-.7-1.87-1.43-2.75-2.18-.07,.01-.14,.04-.21,.05"/>
          <path class="cls-2" d="M124.27,202.66c0-.83,0-1.66,0-2.49-.24,.06-.43,.13-.6,.12-.17,0-.41-.08-.44-.17-.03-.09,.13-.32,.26-.36,1.11-.31,2.24-.55,3.35-.35,1.49,.25,1.86,1.67,.58,2.66-1.01,.77-2.3,1.08-3.6,1.24-.14,.02-.29-.13-.44-.2,.13-.12,.23-.27,.4-.35,.14-.07,.34-.08,.5-.11m.87-.23c1.44-.27,2.38-1.09,2.2-1.78-.17-.65-1.18-.91-2.23-.63,.02,.8,.03,1.6,.03,2.4Z"/>
          <path class="cls-2" d="M147.59,195.33c-.2-.58-.38-1.07-.56-1.55-.09-.21-.21-.4-.31-.6-.09-.17-.08-.38,.21-.5,.17-.06,.47-.03,.52,.07,.42,.95,.81,1.93,1.16,2.92,.04,.12-.08,.42-.2,.5-.18,.1-.47,.13-.63,.08-1.11-.29-2.18-.62-3.24-.98-.03,.03-.07,.05-.1,.08,.15,.59,.3,1.18,.45,1.78,.03,.11,.12,.22,.08,.33-.05,.16-.16,.4-.33,.49-.28,.17-.43,.02-.49-.16-.05-.18-.08-.36-.12-.54-.19-.76-.39-1.51-.57-2.27-.03-.13,.04-.36,.16-.47,.09-.08,.39-.11,.53-.07,.94,.26,1.88,.52,2.85,.75,.16,.04,.32,.08,.59,.15"/>
          <path class="cls-2" d="M143.12,196.59c.29,.97-.48,2.19-1.76,2.72-1.57,.64-3.01,0-2.98-1.22,.03-1.19,1.11-2.28,2.51-2.54,1.06-.2,1.98,.22,2.23,1.05m-3.92,1.52c.18,.64,.88,.95,1.74,.73,.71-.18,1.39-.87,1.39-1.5,0-.32-.12-.64-.32-.88-.33-.39-.99-.42-1.6-.18-.57,.23-1.05,.72-1.17,1.24-.04,.19-.03,.38-.04,.58"/>
          <path class="cls-2" d="M131.35,200.02c-.2-.27-.36-.52-.56-.74-.05-.05-.27-.07-.36-.02-.39,.19-.78,.39-1.14,.62-.24,.15-.45,.28-.67,.15-.24-.15-.12-.34,.1-.52,.6-.48,1.26-.87,2.11-.91,.22,0,.48,.07,.59,.19,.71,.73,1.12,1.57,1,2.6-.04,.28-.1,.53-.64,.56-.11,0-.23,.12-.34,.15-.52,.16-1.05,.39-1.56,.43-.93,.08-1.57-.45-1.47-1.05,.12-.67,.97-1.29,1.93-1.41,.3-.04,.59-.03,1.02-.05m-.98,2.03c.71-.13,1.25-.59,1.22-1-.03-.42-.61-.64-1.31-.51-.71,.13-1.27,.58-1.25,1,.03,.4,.64,.65,1.34,.52"/>
          <path class="cls-2" d="M110.51,200.98c.62,.09,1.2,.16,1.78,.26,.32,.06,.83,.08,.68,.45-.15,.37-.57,.16-.88,.12-.54-.07-1.08-.14-1.65-.22-.11,.51-.21,.96-.3,1.41-.04,.21-.1,.4-.47,.37-.37-.03-.4-.23-.35-.44,.06-.3,.12-.6,.17-.9,.04-.2,.12-.39-.19-.55-.08-.04-.06-.33,0-.35,.68-.21,.35-.67,.58-1.06-.19,.04-.3,.08-.39,.06-.18-.04-.35-.11-.53-.17,.09-.13,.14-.34,.27-.37,.34-.07,.73-.12,1.08-.08,.88,.1,1.75,.23,2.63,.33,.28,.03,.47,.13,.4,.36-.07,.23-.31,.25-.58,.21-.7-.1-1.39-.19-2.13-.31-.05,.33-.08,.61-.12,.88"/>
          <path class="cls-2" d="M132.47,200.3c-.07-.64,.12-1.2,.5-1.74,.69-.96,2.36-1.34,3.15-.7,.09,.08,.02,.29,.02,.44-.21,.03-.48,.12-.63,.06-.69-.27-1.14-.24-1.63,.17-.58,.49-.81,1.53-.39,1.95,.56,.57,2.12,.29,2.65-.49,.16-.22,.34-.37,.62-.32,.29,.05,.25,.25,.12,.46-.31,.52-.8,.91-1.52,1.1-1.39,.36-2.87,.12-2.9-.94"/>
          <path class="cls-2" d="M117.25,201.83c-.11,.31-.18,.64-.36,.94-.3,.53-.95,.81-1.7,.8-.91-.01-1.53-.31-1.75-.86-.32-.8-.06-1.59,.31-2.36,.04-.09,.38-.2,.46-.17,.14,.06,.28,.24,.26,.36-.05,.32-.23,.64-.28,.96-.05,.29-.05,.59,.01,.87,.09,.41,.46,.61,1.02,.61,.49,0,.9-.19,1-.59,.12-.45,.12-.92,.15-1.38,0-.12-.09-.25-.04-.36,.06-.14,.17-.33,.32-.38,.26-.08,.44,.06,.46,.25,.06,.42,.09,.85,.14,1.3"/>
          <path class="cls-2" d="M138.01,198.95c.05,.26,.15,.5,.14,.77,0,.12-.01,.33-.31,.43-.34,.04-.43-.08-.46-.18-.14-.5-.23-1.01-.29-1.54-.01-.11,.17-.35,.32-.42,.27-.12,.42,0,.46,.2,.04,.25,.1,.49,.15,.74"/>
          <path class="cls-2" d="M141.22,194.37c.06,.24-1.11,1.35-1.44,1.36-.29,.02-.4-.24-.18-.47,.3-.31,.63-.63,.97-.92,.25-.22,.59-.19,.64,.02"/>
        </g>
        <path class="cls-2" d="M136.6,197.49c0-.22,.09-.46,.47-.59,.3-.11,.62,.05,.64,.31,.02,.25-.1,.49-.48,.62-.3,.09-.58-.06-.62-.34"/>
      </g>
      <g>
        <g class="cls-22">
          <path class="cls-13" d="M165.11,226.18c7.37-2.99,16.58,.52,20.17,7.64,3.91,7.12,2.64,16.01-1.14,22.86-6.69,12.07-18.49,19.58-30.29,25.84-.83,.4-2.96,1.6-3.83,1.94-.22,.07-.58,.09-.72-.19-.05-.16,.07-.28,.16-.34,.09-.08,.3-.08,.27,.08,0-.16-.17-.12-.25-.04-.08,.07-.15,.19-.1,.26,.47,.44,1.27-.51,1.73-.73,0,0,2.36-1.59,2.36-1.59l4.7-3.19c9.12-6.3,18.31-13.39,23.69-23.25,3.5-6.28,4.77-14.1,1.62-20.73-3.05-6.8-11.22-10.33-18.38-8.55h0Z"/>
        </g>
        <path class="cls-8" d="M191.45,245.64c.6-7.01-2.17-14.17-8.08-18.98-9.59-7.79-23.8-6.42-31.73,3.06-3.02,3.6-4.69,7.86-5.08,12.19-1.98,1.18-3.96,2.47-5.92,3.87-19.71,14.01-29.92,33.22-22.81,42.89,7.11,9.67,28.86,6.15,48.57-7.86,15.31-10.89,24.89-24.91,25.07-35.16Z"/>
        <path class="cls-17" d="M190.18,246.7c.59-6.86-2.14-13.87-7.96-18.57-9.44-7.63-23.42-6.29-31.22,2.98-2.97,3.53-4.61,7.69-4.99,11.92-1.95,1.16-3.9,2.42-5.83,3.78-19.38,13.7-29.42,32.48-22.42,41.95,7,9.47,28.39,6.03,47.78-7.67,15.06-10.65,24.48-24.36,24.64-34.38Z"/>
        <g class="cls-22">
          <path class="cls-13" d="M164.22,228.15c7.37-2.99,16.58,.52,20.17,7.64,3.91,7.12,2.64,16.01-1.14,22.86-6.69,12.07-18.49,19.58-30.29,25.84-.83,.4-2.96,1.6-3.83,1.94-.22,.07-.58,.09-.72-.19-.05-.16,.07-.28,.16-.34,.09-.08,.3-.08,.27,.08,0-.16-.17-.12-.25-.04-.08,.07-.15,.19-.1,.26,.47,.44,1.27-.51,1.73-.73,0,0,2.36-1.59,2.36-1.59l4.7-3.19c9.12-6.3,18.31-13.39,23.69-23.25,3.5-6.28,4.77-14.1,1.62-20.73-3.05-6.8-11.22-10.32-18.38-8.55h0Z"/>
        </g>
      </g>
      <g>
        <g class="cls-22">
          <path class="cls-13" d="M40.65,204.2c-11.97-5.44-23.81,2.68-24.98,15.38-1.09,11.84,5.63,22.78,12.82,31.7,4.3,5.24,9.53,10.47,14.29,15.34,.48,.38,1.04,1.45,1.65,1.12,.06-.07,.02-.21-.05-.3-.06-.1-.23-.17-.26,0,0-.06,.05-.14,.13-.12,.19,.06,.37,.25,.27,.48-.63,.59-1.48-.6-1.99-.89-2.27-1.87-4.72-3.89-6.91-5.84-11.78-10.54-24.04-24.81-22.35-41.78,.82-6.23,4.14-12.38,9.72-15.55,5.42-3.03,12.49-2.96,17.67,.46h0Z"/>
        </g>
        <path class="cls-8" d="M9.16,218.69c.89-7.39,5.3-14.22,12.47-17.92,11.62-6,26.04-1.52,32.22,10.01,2.35,4.39,3.17,9.16,2.64,13.72,1.8,1.65,3.58,3.42,5.31,5.28,17.4,18.77,23.85,40.87,14.39,49.36-9.45,8.49-31.23,.15-48.63-18.62-13.52-14.58-20.43-31.18-18.4-41.83Z"/>
        <path class="cls-17" d="M10.25,220.06c.87-7.23,5.21-13.91,12.26-17.53,11.42-5.87,25.62-1.48,31.71,9.81,2.31,4.29,3.12,8.96,2.6,13.43,1.77,1.62,3.52,3.34,5.22,5.17,17.13,18.37,23.48,40,14.19,48.3-9.3,8.3-30.72,.13-47.85-18.24-13.31-14.28-20.11-30.51-18.12-40.94Z"/>
        <g class="cls-22">
          <path class="cls-13" d="M41.15,206.44c-11.97-5.44-23.81,2.68-24.98,15.38-1.09,11.84,5.63,22.78,12.82,31.7,4.3,5.24,9.53,10.47,14.29,15.34,.48,.38,1.04,1.45,1.65,1.12,.06-.07,.02-.21-.05-.3-.06-.1-.23-.17-.26,0,0-.06,.05-.14,.13-.12,.19,.06,.37,.25,.27,.48-.63,.59-1.48-.6-1.99-.89-2.27-1.87-4.72-3.89-6.91-5.84-11.78-10.54-24.04-24.81-22.35-41.78,.82-6.23,4.14-12.38,9.72-15.55,5.42-3.03,12.49-2.96,17.67,.46h0Z"/>
        </g>
      </g>
      <path class="cls-23" d="M111.81,150.04c.6,1.8-11.42,4.85-22.08-1.36-10.68-6.21-13.91-18.16-12.16-18.48,1.28-.24,4.58,5.78,13.64,11.46,10.91,6.84,20.1,6.86,20.6,8.38Z"/>
    </g>
  </g>
</svg>