<?xml version="1.0" encoding="UTF-8"?>
<svg id="PROYECTO_CHANCHITO" data-name="PROYECTO CHANCHITO" xmlns="http://www.w3.org/2000/svg" viewBox="0 0 398.45 47.99">
  <defs>
    <style>
      .cls-1 {
        opacity: .18;
      }

      .cls-2 {
        fill: #cb8a2e;
      }

      .cls-3 {
        fill: #fff;
      }

      .cls-4 {
        fill: #cececd;
      }

      .cls-5 {
        fill: #ec6d2b;
      }

      .cls-6 {
        opacity: .05;
      }

      .cls-7 {
        fill: #dd1c67;
      }

      .cls-8 {
        fill: #221e20;
      }

      .cls-9 {
        fill: #1a1617;
      }

      .cls-10 {
        fill: #e4172b;
      }

      .cls-11 {
        fill: #f8ae37;
      }

      .cls-12 {
        fill: #f1a2bc;
      }

      .cls-13 {
        fill: #69bda3;
      }

      .cls-14 {
        fill: #f3961e;
      }
    </style>
  </defs>
  <g>
    <polygon class="cls-4" points="146.76 26.28 146.57 28.96 150.01 28.65 153.55 28.44 156.33 29.78 159.39 28.55 159.39 25.25 154.13 25.04 149.06 24.32 146.76 26.28"/>
    <polygon class="cls-12" points="146.76 23.98 146.57 26.66 150.01 26.35 153.55 26.14 156.33 27.48 159.39 26.25 159.39 22.95 154.13 22.74 149.06 22.02 146.76 23.98"/>
    <polygon class="cls-4" points="160.98 34.41 161.83 36.12 165.78 35.85 167.57 29.03 164.53 16.59 157.86 17.05 159.05 35.43 160.98 34.41"/>
    <polygon class="cls-13" points="165.17 33.18 161.22 33.45 160.38 31.73 158.45 32.75 157.26 14.37 164.83 13.91 166.96 26.35 165.17 33.18"/>
    <path class="cls-7" d="M159.6,30.53l-.87-13.51,2.95-.2c.75-.05,1.31,.04,1.68,.27s.63,.59,.77,1.1c.14,.5,.24,1.14,.29,1.91,.05,.83,0,1.5-.14,2.01-.14,.5-.46,.84-.96,1.02,.26,.02,.48,.11,.66,.27s.33,.41,.45,.76c.12,.35,.22,.83,.3,1.43,.08,.6,.15,1.35,.21,2.26,0,.09,.01,.21,.02,.38,.01,.16,.02,.34,.04,.54,.02,.19,.04,.39,.06,.57,.02,.19,.04,.36,.07,.5,.03,.14,.05,.25,.08,.31l-1.65,.11s-.05-.15-.08-.3c-.03-.16-.05-.37-.08-.63s-.06-.57-.08-.93c-.03-.36-.06-.76-.09-1.21-.03-.45-.06-.94-.1-1.47-.03-.51-.08-.9-.14-1.17-.06-.27-.18-.45-.36-.54-.17-.09-.45-.14-.82-.13h-.99s.42,6.54,.42,6.54l-1.66,.11Zm1.16-7.81l1.06-.07c.3-.02,.53-.09,.69-.22,.16-.13,.25-.36,.29-.71,.04-.35,.03-.87-.01-1.56v-.09c-.04-.57-.1-1.01-.17-1.3s-.2-.48-.36-.57c-.17-.09-.41-.13-.74-.1l-1.04,.07,.29,4.56Z"/>
    <g>
      <polygon class="cls-4" points="168.97 18.2 167.54 23.88 169.31 26.84 168.99 31.39 170.5 33.36 180 32.06 179.34 29.01 180.45 25.15 179.55 18.19 176.93 18.51 174.63 16.69 168.97 18.2"/>
      <g>
        <polygon class="cls-3" points="178.99 29.69 169.49 30.98 167.97 29.01 168.3 24.47 166.53 21.5 167.96 15.83 173.62 14.32 175.92 16.14 178.54 15.82 179.44 22.78 178.33 26.63 178.99 29.69"/>
        <path class="cls-9" d="M173.79,21.69c0,.25,0,.56,.02,.92l.02,.49,.27,5.68,2.28-.31,1.61-.22c.26-.03,.4,.05,.41,.24,0,.16-.06,.26-.19,.3-.03,0-.22,.04-.56,.08l-7.64,.94v-.43s-.11-2.75-.11-2.75l-.09-2.95-.26-5.11,7.12-.87c.32-.04,.5-.05,.55-.04,.1,.02,.16,.11,.17,.26,0,.19-.09,.3-.28,.32h-.05s-3.37,.37-3.37,.37l.07,2.56,.73-.08,2.35-.34,.52-.07c.19-.02,.31-.02,.38,.01,.06,.03,.1,.11,.1,.22,0,.22-.13,.34-.43,.38l-.53,.05-3.09,.35Z"/>
      </g>
    </g>
    <g>
      <polygon class="cls-4" points="97.15 18.67 89.95 15.22 84.57 22.69 86.25 32.54 91.51 34.01 97.02 31.46 97.15 18.67"/>
      <g>
        <polygon class="cls-3" points="90.53 31.63 85.28 30.15 83.6 20.31 88.97 12.83 96.17 16.28 96.04 29.07 90.53 31.63"/>
        <path class="cls-9" d="M89.78,17.55l.17,5.53,.21,4.69c.22,0,.4,0,.55-.01,.42-.05,.84-.2,1.27-.43,.43-.24,.81-.53,1.13-.89,.21-.23,.42-.53,.64-.89,.22-.37,.39-.72,.52-1.06,.07-.2,.16-.3,.25-.31,.14-.02,.21,.05,.22,.19,0,.16-.09,.43-.29,.83-.2,.4-.41,.76-.65,1.09-.52,.71-1.14,1.23-1.87,1.57-.44,.21-.86,.33-1.27,.39-.59,.07-1.2,0-1.81-.24-.98-.37-1.74-1.06-2.28-2.07-.45-.84-.69-1.75-.73-2.75-.04-1.02,.14-2.01,.54-2.97,.43-1.02,1.06-1.84,1.88-2.45,.6-.44,1.26-.71,1.98-.8,1.22-.15,2.3,.22,3.23,1.12,.44,.43,.67,.75,.68,.96,0,.06-.02,.11-.06,.16-.04,.05-.09,.08-.14,.09-.08,.01-.19-.08-.32-.27-.39-.57-.89-1-1.5-1.29-.61-.29-1.25-.39-1.92-.3-.16,.02-.3,.06-.44,.11Z"/>
      </g>
    </g>
    <g>
      <polygon class="cls-4" points="110.73 19.9 104.09 15.47 97.72 22.13 98.01 32.11 103.01 34.31 108.82 32.54 110.73 19.9"/>
      <g>
        <polygon class="cls-5" points="102.37 31.8 97.37 29.61 97.08 19.63 103.45 12.97 110.1 17.4 108.18 30.04 102.37 31.8"/>
        <path class="cls-13" d="M103.59,17.76l-.61,5.5-.45,4.67c.22,.04,.4,.06,.55,.06,.42,0,.86-.08,1.32-.25,.46-.17,.87-.41,1.24-.72,.24-.2,.49-.46,.76-.8,.27-.33,.49-.66,.66-.98,.1-.18,.2-.28,.29-.28,.14,0,.2,.08,.19,.22-.02,.16-.15,.42-.4,.78-.25,.37-.52,.7-.8,.99-.61,.63-1.3,1.06-2.07,1.3-.46,.14-.9,.21-1.31,.21-.6,0-1.19-.17-1.76-.49-.92-.51-1.57-1.3-1.97-2.37-.33-.89-.44-1.83-.34-2.83,.11-1.01,.42-1.97,.95-2.86,.57-.95,1.3-1.67,2.21-2.17,.66-.35,1.35-.52,2.07-.51,1.23,.02,2.25,.54,3.04,1.56,.38,.49,.56,.84,.53,1.05,0,.06-.03,.11-.08,.15-.05,.05-.1,.07-.15,.07-.09,0-.18-.1-.28-.31-.3-.62-.74-1.12-1.3-1.48-.57-.37-1.18-.56-1.86-.57-.16,0-.31,.01-.45,.05Z"/>
      </g>
    </g>
    <g>
      <polygon class="cls-4" points="117.55 17.84 116.47 19.3 112.72 18.3 111 26.15 111.9 27.26 110.31 34 111.9 35.31 114.06 33.78 116.47 34.48 119.79 32.14 118.05 27.87 121.76 18.45 117.55 17.84"/>
      <g>
        <polygon class="cls-7" points="115.18 32.24 112.77 31.54 110.61 33.07 109.02 31.77 110.61 25.03 109.71 23.92 111.43 16.06 115.18 17.06 116.26 15.61 120.47 16.22 116.76 25.63 118.5 29.91 115.18 32.24"/>
        <path class="cls-12" d="M112.86,20.17h-.02s-.02-.07-.03-.23c0-.16-.01-.38-.01-.65,0-.06,.02-.13,.06-.22,.04-.09,.11-.18,.2-.29,.1-.1,.22-.2,.38-.3,.16-.1,.35-.19,.59-.28,.24-.08,.51-.15,.83-.2,.32-.05,.69-.08,1.11-.08,.36,0,.65,.02,.85,.07,.2,.04,.36,.1,.46,.17,.1,.07,.17,.15,.19,.25,.02,.09,.04,.19,.04,.29s0,.2-.03,.3c-.02,.1-.07,.18-.14,.26-.08,.08-.19,.14-.35,.18-.15,.05-.36,.07-.63,.07-.12,0-.24,0-.36-.02-.1,.48-.19,.92-.27,1.32-.07,.4-.14,.77-.21,1.1-.06,.34-.12,.65-.18,.95-.06,.3-.11,.59-.17,.89-.06,.3-.11,.61-.17,.94-.06,.33-.13,.68-.21,1.06-.08,.38-.17,.81-.26,1.28-.1,.47-.21,1.01-.33,1.62,.02,0,.07,0,.15,.01,.08,0,.17,.02,.27,.05,.1,.02,.21,.05,.33,.09,.12,.04,.22,.08,.32,.13,.1,.05,.17,.12,.24,.19,.06,.07,.09,.15,.09,.25,0,.19-.13,.37-.4,.55h-1.72c-.27,0-.53,0-.8,0-.27,0-.53,0-.78,0-.25,0-.47,0-.66,0-.19,0-.34,0-.46-.01-.12,0-.17-.01-.17-.02,0-.01,.02-.03,.05-.06,.03-.03,.07-.07,.12-.12,.04-.05,.09-.11,.13-.19,.04-.08,.07-.17,.08-.28,0-.08,.07-.15,.19-.22,.12-.07,.26-.13,.42-.19,.16-.06,.34-.1,.52-.14,.18-.04,.35-.06,.49-.07,.12-.59,.25-1.19,.37-1.78,.12-.59,.24-1.19,.34-1.79,.1-.6,.21-1.16,.33-1.68,.11-.52,.23-1.01,.33-1.47,.11-.46,.2-.88,.28-1.27,.08-.39,.16-.72,.25-1-.14,.02-.25,.04-.36,.05-.1,.02-.19,.04-.27,.06-.08,.02-.16,.05-.23,.07-.07,.03-.15,.06-.22,.09-.08,.03-.16,.07-.25,.12-.09,.04-.19,.09-.32,.15Z"/>
      </g>
    </g>
    <g>
      <polygon class="cls-4" points="193.38 17.81 186.19 14.34 180.8 21.81 182.47 31.65 187.72 33.14 193.23 30.59 193.38 17.81"/>
      <g>
        <polygon class="cls-7" points="186.75 30.75 181.49 29.26 179.83 19.42 185.22 11.95 192.41 15.42 192.26 28.2 186.75 30.75"/>
        <path class="cls-12" d="M186.02,16.67l.16,5.53,.2,4.69c.22,0,.4,0,.55-.01,.42-.05,.84-.2,1.27-.43,.43-.24,.81-.53,1.13-.88,.21-.23,.42-.53,.64-.89s.39-.72,.52-1.06c.07-.2,.16-.3,.25-.31,.14-.02,.21,.05,.22,.19,0,.16-.09,.43-.29,.83s-.42,.76-.66,1.09c-.52,.71-1.15,1.23-1.87,1.57-.44,.21-.86,.33-1.27,.38-.6,.07-1.2,0-1.81-.25-.98-.37-1.74-1.07-2.28-2.08-.45-.84-.69-1.75-.72-2.75-.04-1.02,.15-2.01,.55-2.96,.43-1.02,1.06-1.84,1.89-2.45,.6-.44,1.26-.7,1.98-.79,1.22-.15,2.3,.22,3.23,1.13,.44,.43,.67,.75,.67,.97,0,.06-.02,.11-.06,.16-.04,.05-.09,.08-.14,.09-.09,.01-.19-.08-.32-.27-.39-.57-.89-1-1.5-1.29s-1.25-.39-1.92-.31c-.16,.02-.3,.06-.44,.11Z"/>
      </g>
    </g>
    <g>
      <polygon class="cls-4" points="73.7 34.33 79.78 35.5 85.05 35.5 87.08 29.54 85.05 26.8 85.05 21.42 81.18 18.75 76.23 20.19 74.45 24.14 75.45 27.79 73.7 29.54 73.7 34.33"/>
      <g>
        <polygon class="cls-13" points="78.35 33.03 72.27 31.85 72.27 27.06 74.02 25.31 73.02 21.67 74.8 17.71 79.75 16.27 83.62 18.95 83.62 24.33 85.65 27.06 83.62 33.03 78.35 33.03"/>
        <path class="cls-12" d="M83.61,30.68h-5v-2.02h1.18l-.26-1.05h-2.56l-.26,1.05h.97v2.02h-3.96v-2.02h.85l1.68-6.77h-.51v-1.99h4.79l2.21,8.76h.87v2.02Zm-6.17-4.92h1.63l-.82-3.33-.81,3.33Z"/>
        <path class="cls-7" d="M83.02,30h-5v-2.02h1.18l-.26-1.05h-2.56l-.26,1.05h.97v2.02h-3.96v-2.02h.85l1.68-6.77h-.51v-1.99h4.79l2.21,8.76h.87v2.02Zm-6.17-4.92h1.63l-.82-3.33-.81,3.33Z"/>
      </g>
    </g>
    <g>
      <polygon class="cls-4" points="129.71 34.47 133.84 26.24 132.5 23.15 132.5 18.78 128.76 16.54 122.43 20.37 120.08 31.95 121.98 32.08 121.98 34.47 129.71 34.47"/>
      <g>
        <polygon class="cls-13" points="128.38 32.16 120.65 32.16 120.65 29.78 118.75 29.64 121.1 18.06 129.37 13.36 130.9 14.9 128.82 17.09 131.89 19.28 132.11 23 128.38 32.16"/>
        <path class="cls-9" d="M125.35,30.78c-.55,0-1.04-.14-1.49-.41-.44-.28-.82-.66-1.13-1.16-.31-.5-.55-1.09-.71-1.77-.17-.69-.25-1.44-.25-2.26,0-.44,.03-.89,.08-1.36,.05-.46,.13-.93,.24-1.39,.11-.46,.24-.91,.39-1.36,.16-.44,.34-.86,.55-1.26s.44-.76,.7-1.09,.54-.62,.85-.86,.65-.43,1.01-.57c.36-.14,.75-.2,1.16-.2,.55,0,1.05,.12,1.49,.37,.44,.25,.81,.59,1.11,1.04,.3,.45,.53,.98,.69,1.59s.24,1.3,.24,2.04c0,.61-.05,1.25-.15,1.91-.1,.66-.24,1.31-.43,1.95-.19,.64-.42,1.25-.7,1.83-.28,.58-.6,1.09-.97,1.52-.37,.44-.77,.78-1.22,1.04-.45,.26-.93,.39-1.46,.39Zm.13-1.59c.3,0,.57-.07,.82-.21,.25-.14,.49-.34,.7-.59,.21-.25,.41-.54,.58-.87,.18-.33,.33-.69,.47-1.07,.14-.38,.26-.78,.36-1.19,.1-.41,.19-.81,.25-1.21,.07-.4,.12-.79,.15-1.16,.03-.37,.05-.71,.05-1.01,0-.44-.04-.86-.12-1.25s-.19-.73-.35-1.01-.35-.51-.59-.68c-.24-.17-.52-.25-.83-.25-.34,0-.67,.1-.98,.31-.32,.2-.62,.48-.9,.83-.28,.35-.54,.75-.77,1.21s-.43,.94-.6,1.45c-.17,.51-.3,1.02-.39,1.55-.09,.52-.14,1.03-.14,1.5,0,.52,.05,1,.16,1.45,.11,.45,.26,.84,.45,1.16,.2,.33,.44,.58,.72,.77s.6,.28,.96,.28Z"/>
        <path class="cls-7" d="M124.3,30.53c-.55,0-1.04-.14-1.49-.41-.44-.28-.82-.66-1.13-1.16-.31-.5-.55-1.09-.71-1.77-.17-.69-.25-1.44-.25-2.26,0-.44,.03-.89,.08-1.36,.05-.46,.13-.93,.24-1.39,.11-.46,.24-.91,.39-1.36,.16-.44,.34-.86,.55-1.26,.21-.4,.44-.76,.7-1.09,.26-.33,.54-.62,.85-.86,.31-.24,.65-.43,1.01-.57,.36-.14,.75-.2,1.16-.2,.55,0,1.05,.12,1.49,.37,.44,.25,.81,.59,1.11,1.04,.3,.45,.53,.98,.69,1.59,.16,.62,.24,1.3,.24,2.04,0,.61-.05,1.25-.15,1.91-.1,.66-.24,1.31-.43,1.95-.19,.64-.42,1.25-.7,1.83-.28,.58-.6,1.09-.97,1.52-.37,.44-.77,.78-1.22,1.04-.45,.26-.93,.39-1.46,.39Zm.13-1.59c.3,0,.57-.07,.82-.21,.25-.14,.49-.34,.7-.59,.21-.25,.41-.54,.58-.87,.18-.33,.33-.69,.47-1.07,.14-.38,.26-.78,.36-1.19,.1-.41,.19-.81,.25-1.21,.07-.4,.12-.79,.15-1.16,.03-.37,.05-.71,.05-1.01,0-.44-.04-.86-.12-1.25s-.19-.73-.35-1.01-.35-.51-.59-.68c-.24-.17-.52-.25-.83-.25-.34,0-.67,.1-.98,.31s-.62,.48-.9,.83c-.28,.35-.54,.75-.77,1.21-.23,.46-.43,.94-.6,1.45-.17,.51-.3,1.02-.39,1.55s-.14,1.03-.14,1.5c0,.52,.05,1,.16,1.45,.11,.45,.26,.84,.45,1.16,.2,.33,.44,.58,.72,.77,.28,.19,.6,.28,.96,.28Z"/>
      </g>
    </g>
    <g>
      <polygon class="cls-4" points="140.76 31.94 141.34 33.63 146.9 32.81 149.2 21.61 144.02 14.75 142.5 19.52 139.44 16.91 135.38 16.73 134.04 25.86 137.5 33.63 140.76 31.94"/>
      <g>
        <polygon class="cls-5" points="145.57 30.51 140.01 31.32 139.43 29.63 136.17 31.32 132.71 23.55 134.05 14.43 138.11 14.61 141.18 17.21 142.69 12.45 147.87 19.3 145.57 30.51"/>
        <path class="cls-13" d="M143.75,22.46v-3.41s-.02-.96-.02-.96v-.6c0-.28,.07-.43,.23-.43,.09,0,.16,.03,.19,.1,.04,.07,.05,.19,.05,.37v.11c0,.11,0,.29,0,.54l-.03,2.66-.02,2.44,.02,2.57,.02,2.57c-.88-.68-2.16-1.62-3.85-2.82-1.69-1.2-3.05-2.14-4.1-2.82v.39s.07,4.07,.07,4.07v.54c0,.23-.08,.34-.25,.34s-.26-.14-.26-.42v-.55s.01-.89,.01-.89l.03-4.05-.05-5.45c1.72,1.32,4.37,3.22,7.95,5.69Z"/>
      </g>
    </g>
    <path class="cls-9" d="M150.75,23.94l.06,1.4,5.4-.22-.06-1.5s-5.44,.37-5.39,.32Z"/>
    <path d="M127.17,16.38l.56,.66,2.56-2.16-.6-.71s-2.52,2.25-2.52,2.21Z"/>
    <path class="cls-7" d="M126.84,16.05l.56,.66,2.56-2.16-.6-.71s-2.52,2.25-2.52,2.21Z"/>
  </g>
  <g>
    <g>
      <path class="cls-3" d="M279.48,14.83h6.98c6.46,0,10.21,3.7,10.21,8.89v.05c0,5.19-3.8,9.05-10.31,9.05h-6.87V14.83Zm7.05,13.57c3,0,4.99-1.64,4.99-4.55v-.05c0-2.88-1.99-4.55-4.99-4.55h-2.04v9.15h2.04Z"/>
      <path class="cls-3" d="M320.72,14.83h4.68l7.44,9.51V14.83h4.96v17.99h-4.39l-7.73-9.87v9.87h-4.96V14.83Z"/>
      <path class="cls-3" d="M347.25,14.7h4.83l7.7,18.12h-5.37l-1.32-3.21h-6.98l-1.29,3.21h-5.27l7.7-18.12Zm4.39,11.03l-2.02-5.11-2.04,5.11h4.06Z"/>
      <path class="cls-10" d="M361.54,14.83h5.3l4.31,6.97,4.31-6.97h5.3v17.99h-4.99v-10.33l-4.62,7.04h-.1l-4.6-6.99v10.28h-4.91V14.83Z"/>
      <path class="cls-10" d="M383.97,14.83h14.55v4.24h-9.59v2.72h8.68v3.93h-8.68v2.85h9.72v4.24h-14.68V14.83Z"/>
    </g>
    <g>
      <g>
        <path class="cls-10" d="M299.14,26.78l-6.28,.62c1.29,5.67,5.76,10.14,11.45,11.45l.71-6.22c-2.79-.88-4.99-3.07-5.88-5.85Z"/>
        <path class="cls-10" d="M316.38,21.25l6.27-.69c-1.32-5.59-5.74-9.99-11.36-11.31l-.5,6.3c2.64,.93,4.72,3.04,5.59,5.7Z"/>
        <path class="cls-10" d="M304.74,15.55l-.49-6.3c-5.59,1.31-10,5.68-11.34,11.24l6.29,.64c.89-2.6,2.94-4.66,5.54-5.58Z"/>
        <path class="cls-10" d="M310.5,32.63l.72,6.22c5.69-1.31,10.16-5.77,11.45-11.43l-6.25-.71c-.87,2.82-3.1,5.04-5.92,5.93Z"/>
        <path class="cls-3" d="M307.77,33.04c-.96,0-1.88-.15-2.74-.42l-.71,6.22c1.11,.26,2.27,.39,3.46,.39s2.34-.13,3.45-.39l-.72-6.22c-.86,.27-1.78,.42-2.73,.42Z"/>
        <path class="cls-3" d="M307.77,15.03c1.06,0,2.08,.18,3.02,.51l.5-6.3c-1.13-.27-2.31-.41-3.52-.41s-2.39,.14-3.52,.41l.49,6.3c.95-.33,1.97-.52,3.03-.52Z"/>
        <path class="cls-3" d="M322.65,20.55l-6.27,.69c.29,.88,.44,1.82,.44,2.79s-.14,1.82-.4,2.66l6.25,.71c.25-1.09,.38-2.22,.38-3.38s-.14-2.37-.4-3.48Z"/>
        <path class="cls-3" d="M298.72,24.04c0-1.02,.17-2,.48-2.92l-6.29-.64c-.27,1.14-.42,2.33-.42,3.55,0,1.15,.13,2.28,.38,3.36l6.28-.62c-.28-.86-.43-1.78-.43-2.74Z"/>
      </g>
      <path class="cls-1" d="M316.42,26.7l6.25,.71s-.04,.2-.09,.4l-6.2-.98,.04-.13Z"/>
      <path class="cls-1" d="M305.02,32.61l-.71,6.22s-.2-.03-.4-.09l.99-6.17,.13,.04Z"/>
      <path class="cls-1" d="M299.21,21.13l-6.29-.62s.03-.21,.09-.41l6.25,.9-.04,.13Z"/>
      <path class="cls-1" d="M310.79,15.54l.51-6.3s.21,.06,.41,.11l-.79,6.24-.13-.05Z"/>
      <g class="cls-6">
        <path d="M307.77,11.92c-6.67,0-12.07,5.38-12.07,12.01s5.4,12.01,12.07,12.01,12.07-5.38,12.07-12.01-5.4-12.01-12.07-12.01Zm9.05,12.01c0,.93-.14,1.82-.4,2.66-.87,2.82-3.1,5.04-5.92,5.93-.86,.27-1.78,.42-2.73,.42s-1.88-.15-2.74-.42c0,0,0,0,0,0h0s-.13-.05-.13-.05h0c-2.72-.9-4.87-3.06-5.74-5.79-.28-.86-.43-1.78-.43-2.74,0-1.02,.17-2,.48-2.91h0s.03-.12,.03-.12c.91-2.55,2.94-4.56,5.5-5.47,.95-.33,1.97-.52,3.03-.52s2.08,.18,3.02,.51c2.64,.93,4.72,3.04,5.59,5.7,.29,.88,.44,1.82,.44,2.79Z"/>
      </g>
    </g>
  </g>
  <g>
    <rect x="216.94" y="29.82" width="42.63" height="17.11" transform="translate(-1.63 12.04) rotate(-2.88)"/>
    <polygon class="cls-14" points="220.38 33.3 223.65 33.13 223.87 37.55 228.07 37.34 227.85 32.92 231.12 32.76 231.71 44.56 228.44 44.72 228.22 40.24 224.02 40.45 224.24 44.93 220.97 45.1 220.38 33.3"/>
    <path class="cls-14" d="M237.28,32.36l3.15-.16,5.62,11.63-3.51,.18-.97-2.06-4.55,.23-.74,2.15-3.44,.17,4.42-12.14Zm3.23,7.09l-1.48-3.29-1.16,3.42,2.65-.13Z"/>
    <polygon class="cls-14" points="248.53 39.28 243.67 32.12 247.4 31.94 250.04 36.11 252.27 31.69 255.93 31.51 251.81 39.06 252.04 43.53 248.75 43.7 248.53 39.28"/>
    <path class="cls-3" d="M218.3,7.08v-.04c0-3.89,3-6.95,7.04-6.95,2.73,0,4.49,1.15,5.67,2.79l-2.79,2.16c-.76-.95-1.64-1.57-2.92-1.57-1.87,0-3.19,1.58-3.19,3.53v.04c0,2,1.32,3.57,3.19,3.57,1.39,0,2.21-.65,3.02-1.62l2.79,1.99c-1.26,1.74-2.96,3.02-5.92,3.02-3.82,0-6.89-2.92-6.89-6.91"/>
    <path class="cls-3" d="M237.2,.26h3.57l5.69,13.46h-3.97l-.97-2.39h-5.15l-.95,2.39h-3.89L237.2,.26Zm3.25,8.19l-1.49-3.8-1.51,3.8h3Z"/>
    <path class="cls-3" d="M247.07,7.86V.36h3.76V7.78c0,1.93,.97,2.84,2.46,2.84s2.46-.88,2.46-2.75V.36h3.76V7.76c0,4.31-2.46,6.2-6.26,6.2s-6.19-1.93-6.19-6.11"/>
    <rect class="cls-3" x="211.92" y="22.37" width="19.24" height="3.19"/>
    <rect class="cls-3" x="211.92" y="22.37" width="19.24" height="3.19"/>
    <path class="cls-3" d="M232.09,27.95l2.06-2.46c1.32,1.05,2.79,1.6,4.33,1.6,.99,0,1.53-.34,1.53-.92v-.04c0-.55-.44-.86-2.25-1.28-2.84-.65-5.04-1.45-5.04-4.2v-.04c0-2.48,1.97-4.28,5.17-4.28,2.27,0,4.05,.61,5.5,1.78l-1.85,2.62c-1.22-.86-2.56-1.32-3.74-1.32-.9,0-1.34,.38-1.34,.86v.04c0,.61,.46,.88,2.31,1.3,3.07,.67,4.98,1.66,4.98,4.16v.04c0,2.73-2.16,4.35-5.4,4.35-2.37,0-4.62-.74-6.26-2.21"/>
    <path class="cls-3" d="M232.09,27.95l2.06-2.46c1.32,1.05,2.79,1.6,4.33,1.6,.99,0,1.53-.34,1.53-.92v-.04c0-.55-.44-.86-2.25-1.28-2.84-.65-5.04-1.45-5.04-4.2v-.04c0-2.48,1.97-4.28,5.17-4.28,2.27,0,4.05,.61,5.5,1.78l-1.85,2.62c-1.22-.86-2.56-1.32-3.74-1.32-.9,0-1.34,.38-1.34,.86v.04c0,.61,.46,.88,2.31,1.3,3.07,.67,4.98,1.66,4.98,4.16v.04c0,2.73-2.16,4.35-5.4,4.35-2.37,0-4.62-.74-6.26-2.21Z"/>
    <path class="cls-3" d="M249.88,16.47h3.57l5.69,13.46h-3.97l-.97-2.39h-5.15l-.95,2.39h-3.89l5.69-13.46Zm3.25,8.19l-1.49-3.8-1.51,3.8h3Z"/>
    <path class="cls-3" d="M249.88,16.47h3.57l5.69,13.46h-3.97l-.97-2.39h-5.15l-.95,2.39h-3.89l5.69-13.46Zm3.25,8.19l-1.49-3.8-1.51,3.8h3Z"/>
  </g>
  <g>
    <g>
      <g>
        <g>
          <g>
            <path class="cls-8" d="M51.04,19.55c-1.12-.03-2.09-.33-2.86-.89-.76-.55-1.35-1.28-1.76-2.18-.4-.88-.63-1.85-.69-2.89-.06-1.04,.04-2.09,.3-3.13,.26-1.04,.68-2.02,1.25-2.91,.58-.9,1.31-1.65,2.19-2.22,.89-.58,1.93-.91,3.11-.99,.1,0,.18,0,.26,0,1.02,0,1.9,.26,2.62,.76,.77,.54,1.36,1.27,1.77,2.19,.4,.89,.64,1.89,.71,2.97,.07,1.07-.02,2.15-.27,3.23-.25,1.08-.67,2.08-1.23,2.99-.58,.92-1.32,1.67-2.21,2.22-.9,.56-1.97,.85-3.18,.85h-.01Zm1.38-10.98c-.31,.04-.58,.21-.81,.51-.28,.36-.5,.83-.67,1.39-.17,.58-.28,1.2-.33,1.84-.05,.64-.02,1.23,.06,1.78,.08,.51,.23,.92,.43,1.2,.17,.24,.33,.27,.45,.27,.02,0,.04,0,.07,0,.24-.05,.46-.22,.67-.52,.25-.37,.47-.83,.64-1.39,.17-.58,.29-1.19,.36-1.82,.06-.63,.06-1.22,0-1.77-.06-.51-.18-.91-.36-1.2-.16-.25-.33-.29-.47-.29,0,0-.02,0-.03,0Z"/>
            <path class="cls-11" d="M52.91,4.64c1.03-.04,1.9,.18,2.6,.67,.7,.49,1.24,1.16,1.62,2.01,.38,.85,.6,1.79,.67,2.82,.07,1.03-.02,2.06-.26,3.1-.24,1.04-.63,1.99-1.18,2.86-.54,.87-1.23,1.56-2.07,2.08-.84,.52-1.82,.78-2.94,.79-1.04-.03-1.91-.29-2.61-.8-.7-.51-1.24-1.18-1.61-2.01-.37-.83-.59-1.74-.65-2.74-.06-1,.04-1.99,.29-3,.25-1,.64-1.93,1.19-2.78,.54-.85,1.23-1.55,2.06-2.09,.83-.54,1.79-.85,2.89-.92Zm-.92,11.21c.36-.06,.69-.3,.97-.71,.28-.41,.52-.91,.7-1.52,.18-.61,.31-1.24,.37-1.9,.06-.66,.06-1.28,0-1.86-.07-.58-.21-1.04-.43-1.39-.22-.35-.52-.51-.91-.49-.44,.05-.81,.28-1.13,.69-.31,.41-.56,.92-.74,1.53-.18,.61-.3,1.26-.35,1.93-.05,.67-.02,1.3,.07,1.88,.09,.58,.26,1.04,.5,1.39,.24,.34,.56,.49,.95,.45Z"/>
            <path class="cls-2" d="M51.35,18.68c-.97-.03-1.79-.28-2.43-.75-.65-.47-1.16-1.11-1.52-1.89-.36-.79-.57-1.68-.62-2.64-.06-.96,.04-1.94,.28-2.91,.24-.97,.63-1.87,1.15-2.69,.52-.81,1.18-1.48,1.97-2,.78-.51,1.71-.8,2.75-.87,.07,0,.14,0,.21,0,.86,0,1.6,.21,2.19,.63,.65,.46,1.17,1.09,1.52,1.89,.36,.81,.58,1.73,.65,2.72,.06,1-.02,2.01-.25,3.02-.23,1-.62,1.93-1.14,2.77-.52,.82-1.18,1.49-1.98,1.99-.78,.49-1.72,.74-2.78,.74Zm1.39-10.98s-.05,0-.08,0h-.02c-.52,.06-.97,.33-1.33,.8-.33,.43-.6,.98-.79,1.63-.19,.63-.31,1.3-.36,1.99-.05,.69-.02,1.35,.07,1.95,.1,.62,.29,1.13,.55,1.51,.27,.38,.63,.58,1.06,.58,.05,0,.11,0,.16,0h.02c.44-.08,.83-.36,1.16-.83,.3-.43,.55-.97,.74-1.6,.19-.62,.32-1.28,.38-1.96,.07-.68,.07-1.33,0-1.92-.07-.62-.23-1.13-.47-1.51-.26-.41-.64-.63-1.1-.63Z"/>
            <path class="cls-11" d="M51.65,18.39c-.91-.03-1.67-.26-2.26-.69-.61-.44-1.09-1.04-1.42-1.77-.34-.76-.55-1.61-.6-2.53-.05-.93,.04-1.88,.27-2.82,.23-.93,.61-1.81,1.11-2.61,.5-.78,1.13-1.42,1.88-1.91,.73-.48,1.61-.76,2.6-.83,.07,0,.14,0,.2,0,.81,0,1.47,.19,2.02,.57,.61,.43,1.09,1.02,1.42,1.77,.35,.78,.56,1.66,.62,2.62,.06,.97-.02,1.95-.25,2.93-.23,.97-.6,1.87-1.1,2.68-.49,.79-1.12,1.42-1.88,1.89-.74,.46-1.62,.69-2.62,.7Zm1.39-10.98s-.06,0-.09,0h-.02s-.02,0-.02,0c-.6,.07-1.12,.38-1.53,.91-.36,.46-.64,1.04-.84,1.72-.19,.65-.32,1.34-.37,2.05-.05,.71-.03,1.39,.08,2.02,.11,.67,.31,1.22,.6,1.63,.41,.58,.94,.71,1.3,.71,.06,0,.13,0,.2-.01h.02s.02,0,.02,0c.52-.09,.98-.41,1.35-.95,.32-.45,.58-1.02,.78-1.68,.19-.64,.33-1.32,.39-2.02,.07-.7,.07-1.37,0-1.98-.08-.66-.25-1.21-.52-1.63-.32-.5-.78-.77-1.35-.77Z"/>
          </g>
          <g>
            <path class="cls-8" d="M31.4,19.21c-.58,0-1.38,0-2.22,0-1.35,0-2.28,0-2.28,0-.76,0-1.45-.24-1.84-.65-.24-.24-.36-.53-.35-.84l.04-1.06c.03-.77,.68-1.97,1.3-2.69l3.8-4.45c.21-.25,.25-.42,.23-.46-.02-.04-.16-.11-.46-.11h-.05s-.13,0-1.05,0c0,0-.73,0-.73,0-.16,0-.37-.04-.57-.25-.33-.35-.49-1.07-.43-1.92,.08-1.17,1.13-2.13,2.34-2.13,.02,0,.97,0,2.32,.03,1.35,.02,2.29,.03,2.3,.03,.62,0,1.22,.25,1.63,.67,.37,.38,.56,.87,.54,1.38-.04,.96-.55,2.39-1.18,3.26l-3.11,4.3c-.18,.25-.22,.44-.18,.52,.04,.07,.2,.14,.47,.14,.02,0,.05,0,.07,0l1.52-.07s.02,0,.04,0c.16,0,.39,.05,.6,.28,.34,.36,.51,1.06,.45,1.87-.08,1.18-1.13,2.13-2.35,2.14h-.86Z"/>
            <path class="cls-11" d="M28.09,8.39c-.37,.01-.62-.75-.56-1.7s.92-1.72,1.9-1.72c0,0,.94,0,2.31,.03,1.37,.02,2.3,.03,2.3,.03,.98,0,1.75,.72,1.72,1.59-.03,.87-.53,2.23-1.1,3.02l-3.11,4.3c-.57,.79-.24,1.4,.74,1.36,0,0,.02,0,.77-.03l.75-.03c.41-.03,.7,.73,.63,1.68-.07,.95-.92,1.72-1.9,1.73,0,0-1.47,0-3.08,0-1.35,0-2.28,0-2.28,0-.98,0-1.76-.46-1.74-1.03l.02-.52,.02-.54c.02-.59,.56-1.68,1.19-2.42l3.8-4.45c.63-.74,.35-1.33-.63-1.3,0,0-.1,0-1.04,0h-.73Z"/>
            <path class="cls-2" d="M31.69,18.34c-.57,0-1.38,0-2.22,0-1.35,0-2.28,0-2.28,0-.54,0-1.06-.17-1.31-.42-.1-.1-.14-.2-.14-.3l.04-1.05c.02-.47,.47-1.48,1.12-2.24l3.8-4.45c.52-.6,.43-1.04,.34-1.25-.09-.2-.37-.54-1.13-.54-.02,0-.04,0-.07,0,0,0-.13,0-1.03,0h-.73c-.09-.03-.32-.51-.26-1.38,.06-.79,.77-1.44,1.6-1.44,.02,0,.96,0,2.31,.03,1.36,.02,2.3,.03,2.31,.03,.42,0,.82,.16,1.09,.44,.23,.23,.34,.53,.33,.84-.03,.81-.51,2.12-1.04,2.86l-3.11,4.3c-.34,.47-.42,.93-.24,1.29,.1,.2,.39,.54,1.13,.54,.03,0,.07,0,.1,0,0,0,1.53-.07,1.53-.07,.02,0,.04,.02,.07,.04,.15,.16,.3,.65,.25,1.32-.06,.8-.78,1.45-1.61,1.45h-.86Z"/>
            <path class="cls-11" d="M31.99,18.05c-.57,0-1.38,0-2.22,0-1.35,0-2.28,0-2.28,0-.53,0-.93-.17-1.1-.33-.05-.05-.06-.08-.06-.08l.04-1.05c.02-.41,.47-1.38,1.05-2.06l3.8-4.45c.62-.73,.5-1.29,.38-1.56-.12-.27-.47-.71-1.4-.71-.02,0-.05,0-.07,0-.01,0-.15,0-1.03,0h-.58c-.07-.15-.15-.52-.12-1.06,.04-.63,.64-1.17,1.3-1.17,.01,0,.96,0,2.3,.03,1.36,.02,2.3,.03,2.31,.03,.34,0,.66,.13,.88,.35,.12,.12,.26,.33,.25,.63-.03,.76-.48,1.99-.99,2.69l-3.11,4.3c-.55,.76-.4,1.33-.26,1.59,.14,.26,.5,.7,1.4,.7,.04,0,.07,0,.11,0,0,0,1.4-.06,1.4-.06,.07,.14,.18,.49,.14,1.04-.04,.64-.64,1.18-1.31,1.18h-.86Z"/>
          </g>
          <g>
            <path class="cls-8" d="M15.38,19.07c-.1,0-.2,0-.29-.02h-.07c-.6-.07-1.11-.37-1.43-.83-.32-.47-.41-1.04-.26-1.62l1.28-4.74c.26-.94,.68-2.47,.94-3.41l.43-1.53c.32-1.13,1.49-2.04,2.67-2.07l1.24-.03s.04,0,.06,0c1.2,0,2.22,.93,2.33,2.11l.86,9.63c.11,1.2-.77,2.31-1.95,2.47-.12,.02-.23,.02-.35,.02-1.07,0-1.89-.69-1.92-1.6-.02-.59-.31-.96-.46-.96-.18,0-.62,.4-.78,1.05-.22,.89-1.19,1.54-2.3,1.54Z"/>
            <path class="cls-11" d="M16.7,6.9c.26-.94,1.28-1.72,2.25-1.75l1.24-.03c.98-.03,1.85,.74,1.94,1.71l.86,9.63c.09,.97-.62,1.86-1.56,1.99-.95,.13-1.74-.39-1.76-1.15-.02-.76-.43-1.39-.91-1.39s-1.02,.62-1.21,1.38c-.19,.76-1.14,1.3-2.12,1.19h-.07c-.97-.11-1.56-.97-1.31-1.9l1.28-4.74c.25-.94,.68-2.47,.94-3.41l.43-1.53Zm2.27,4.96c-.21,.68-.17,1.24,.1,1.24,.27,0,.44-.55,.39-1.24s-.28-.69-.49,0Z"/>
            <path class="cls-2" d="M15.67,18.2c-.07,0-.14,0-.21-.01h-.07c-.38-.05-.7-.23-.9-.52-.2-.29-.25-.65-.15-1.02l1.28-4.74c.26-.94,.68-2.47,.94-3.4l.43-1.53c.23-.81,1.13-1.51,1.98-1.53l1.24-.03h.04c.81,0,1.52,.65,1.59,1.44l.86,9.63c.07,.82-.51,1.57-1.31,1.68-.08,.01-.17,.02-.25,.02-.67,0-1.16-.37-1.18-.88-.03-.94-.56-1.67-1.2-1.67-.62,0-1.28,.71-1.5,1.61-.14,.55-.83,.98-1.58,.98Zm3.6-7.15c-.32,0-.48,.36-.59,.72-.07,.23-.29,1.03,0,1.42,.09,.13,.23,.2,.38,.2h0c.11,0,.26-.03,.39-.18,.23-.25,.34-.77,.29-1.38-.02-.21-.06-.79-.48-.79Z"/>
            <path class="cls-11" d="M15.97,17.91c-.06,0-.12,0-.18,0h-.07c-.3-.04-.54-.18-.69-.39-.15-.22-.19-.49-.11-.78l1.28-4.74c.26-.94,.68-2.47,.94-3.4l.43-1.53c.19-.68,.98-1.3,1.7-1.32l1.27-.03c.66,0,1.24,.53,1.3,1.17l.86,9.63c.06,.65-.42,1.27-1.05,1.36-.07,0-.14,.01-.21,.01-.5,0-.87-.25-.88-.6-.03-1.1-.69-1.96-1.5-1.96-.87,0-1.57,.94-1.79,1.83-.1,.42-.69,.76-1.29,.76Zm3.6-7.15c-.58,0-.79,.67-.87,.92-.13,.43-.3,1.21,.04,1.68,.15,.2,.37,.32,.62,.32h0c.24,0,.45-.1,.62-.27,.42-.45,.4-1.27,.37-1.6-.07-.87-.46-1.06-.78-1.06Z"/>
          </g>
          <g>
            <path class="cls-8" d="M8.71,19.17c-.6,0-1.14-.24-1.51-.66-.38-.43-.55-.99-.48-1.59l.1-.85c.08-.62,.03-1.06-.03-1.26h-.74c-.09,.17-.23,.65-.24,1.33l-.02,.82c-.03,1.21-1.04,2.2-2.25,2.2h0c-.6,0-1.14-.23-1.54-.65-.4-.42-.6-.98-.55-1.58l.7-9.97c.08-1.19,1.06-2.2,2.17-2.26,.04,0,.07,0,.11,0,.51,0,.99,.2,1.34,.57,.39,.41,.58,.97,.54,1.57l-.14,2.25c-.04,.67,.05,1.14,.13,1.32,.11,0,.25,0,.38,0,.15,0,.3,0,.42,0,.11-.16,.3-.65,.36-1.38l.19-2.26c.1-1.17,1.03-2.08,2.12-2.08,.04,0,.07,0,.11,0,.52,.03,1,.27,1.36,.67,.39,.44,.59,1.04,.55,1.66l-.73,9.97c-.09,1.19-1.14,2.17-2.34,2.17h0Z"/>
            <path class="cls-11" d="M7.52,10.73c.3-.01,.6-.81,.68-1.78l.19-2.26c.08-.97,.87-1.72,1.76-1.67s1.56,.88,1.49,1.85l-.73,9.97c-.07,.97-.92,1.76-1.9,1.76-.97,0-1.67-.79-1.55-1.76l.1-.85c.12-.96-.02-1.75-.31-1.75h-1.04c-.29,0-.54,.79-.56,1.77l-.02,.82c-.02,.97-.83,1.77-1.81,1.77-.97,0-1.71-.79-1.65-1.76l.7-9.97c.07-.97,.86-1.8,1.75-1.85,.9-.05,1.58,.7,1.52,1.67l-.14,2.25c-.06,.97,.13,1.77,.42,1.78,.29,.01,.77,.01,1.07,0Z"/>
            <path class="cls-2" d="M9.01,18.3c-.38,0-.72-.15-.96-.41-.24-.27-.35-.63-.3-1.01l.1-.85c.09-.7,.07-1.57-.24-1.91-.1-.11-.22-.17-.36-.17h-1.04c-.79,0-.85,1.84-.85,2.05l-.02,.82c-.02,.81-.7,1.48-1.51,1.48h0c-.39,0-.74-.15-.99-.42-.26-.27-.38-.64-.36-1.02l.7-9.97c.06-.81,.73-1.54,1.47-1.58,.02,0,.04,0,.07,0,.31,0,.59,.12,.8,.34,.25,.26,.37,.62,.34,1.02l-.14,2.25c-.04,.69,.03,1.56,.35,1.92,.13,.14,.26,.17,.36,.18,.15,0,.34,0,.55,0s.4,0,.55,0c.78-.03,.95-1.84,.97-2.05l.19-2.26c.06-.77,.68-1.4,1.38-1.4,.02,0,.04,0,.07,0,.32,.02,.62,.17,.84,.42,.26,.29,.39,.7,.36,1.12l-.73,9.97c-.06,.82-.78,1.48-1.6,1.48h0Z"/>
            <path class="cls-11" d="M9.31,18.01c-.3,0-.56-.11-.74-.32-.18-.21-.26-.48-.23-.78l.1-.85c.06-.47,.14-1.63-.31-2.14-.15-.17-.36-.27-.58-.27h-1.04c-1.02,0-1.14,1.79-1.15,2.34l-.02,.82c-.01,.66-.56,1.19-1.21,1.19-.3,0-.58-.12-.78-.32-.2-.21-.3-.5-.28-.8l.7-9.97c.05-.67,.59-1.27,1.19-1.3,.02,0,.03,0,.05,0,.29,0,.47,.14,.58,.25,.19,.2,.28,.48,.26,.8l-.14,2.25c-.02,.37-.06,1.6,.43,2.13,.15,.17,.35,.26,.56,.27,.15,0,.35,0,.56,0s.41,0,.56,0c.99-.04,1.21-1.79,1.25-2.32l.19-2.26c.05-.62,.54-1.13,1.09-1.13,.02,0,.03,0,.05,0,.24,.01,.47,.13,.64,.32,.21,.24,.31,.56,.29,.9l-.73,9.97c-.05,.66-.64,1.21-1.3,1.21h0Z"/>
          </g>
          <g>
            <path class="cls-8" d="M39.23,19.35c-.6,0-1.14-.23-1.53-.65-.39-.42-.59-.98-.54-1.57l.78-10.43c.09-1.19,1.14-2.16,2.34-2.16,.6,0,1.14,.24,1.53,.66,.39,.43,.57,.99,.51,1.59l-.75,7.32c-.04,.34,.07,.66,.28,.9,.22,.24,.53,.38,.88,.38h.7c.64,0,1.24,.26,1.63,.69,.34,.37,.5,.84,.46,1.32-.09,1.05-1.15,1.92-2.36,1.93l-3.92,.03Z"/>
            <path class="cls-11" d="M40.58,4.84c.97,0,1.69,.8,1.59,1.76l-.75,7.32c-.1,.97,.62,1.76,1.6,1.77h.7c.98,.01,1.72,.7,1.64,1.53-.07,.83-.94,1.52-1.92,1.52l-3.91,.03c-.98,0-1.72-.78-1.65-1.75l.78-10.43c.07-.97,.93-1.76,1.9-1.76Z"/>
            <path class="cls-2" d="M39.53,18.48c-.39,0-.74-.15-.99-.42-.25-.27-.38-.63-.35-1.01l.78-10.43c.06-.82,.78-1.48,1.6-1.48,.39,0,.74,.15,.98,.42,.25,.27,.36,.63,.32,1.02l-.75,7.32c-.06,.55,.11,1.07,.47,1.47,.36,.4,.87,.62,1.42,.62h.7c.44,0,.83,.17,1.09,.45,.2,.22,.29,.48,.27,.76-.06,.67-.8,1.25-1.62,1.26l-3.92,.03Z"/>
            <path class="cls-11" d="M39.83,18.18c-.3,0-.58-.11-.77-.32-.2-.21-.29-.49-.27-.79l.78-10.43c.05-.66,.65-1.21,1.31-1.21,.3,0,.57,.12,.76,.32,.19,.21,.28,.49,.25,.79l-.75,7.32c-.07,.63,.13,1.24,.54,1.7,.42,.46,1,.72,1.64,.72h.7c.35,0,.67,.13,.87,.35,.1,.11,.21,.29,.19,.54-.05,.53-.66,.98-1.33,.99l-3.92,.03Z"/>
          </g>
        </g>
        <g>
          <g>
            <path class="cls-8" d="M38.1,43.66c-1.12-.03-2.09-.33-2.86-.89-.76-.55-1.35-1.28-1.76-2.18-.4-.88-.63-1.85-.69-2.89-.06-1.04,.04-2.09,.3-3.13,.26-1.04,.68-2.02,1.25-2.91,.58-.9,1.31-1.65,2.19-2.22,.89-.58,1.93-.91,3.11-.99,.1,0,.18,0,.26,0,1.02,0,1.9,.26,2.62,.76,.77,.54,1.36,1.27,1.77,2.19,.4,.89,.64,1.89,.71,2.97,.07,1.07-.02,2.15-.27,3.23-.25,1.08-.67,2.08-1.23,2.99-.58,.92-1.32,1.67-2.21,2.22-.9,.56-1.97,.85-3.18,.85h-.01Zm1.38-10.98c-.31,.04-.58,.21-.81,.51-.28,.36-.5,.83-.67,1.39-.17,.58-.28,1.2-.33,1.84-.05,.64-.02,1.23,.06,1.78,.08,.51,.23,.92,.43,1.2,.17,.24,.33,.27,.45,.27,.02,0,.04,0,.07,0,.24-.05,.46-.22,.67-.52,.25-.37,.47-.83,.64-1.39,.17-.58,.29-1.19,.36-1.82,.06-.63,.06-1.22,0-1.77-.06-.51-.18-.91-.36-1.2-.16-.25-.33-.29-.47-.29,0,0-.02,0-.03,0Z"/>
            <path class="cls-11" d="M39.97,28.76c1.03-.04,1.9,.18,2.6,.67,.7,.49,1.24,1.16,1.62,2.01,.38,.85,.6,1.79,.67,2.82,.07,1.03-.02,2.06-.26,3.1-.24,1.04-.63,1.99-1.18,2.86-.54,.87-1.23,1.56-2.07,2.08-.84,.52-1.82,.78-2.94,.79-1.04-.03-1.91-.29-2.61-.8-.7-.51-1.24-1.18-1.61-2.01-.37-.83-.59-1.74-.65-2.74-.06-1,.04-1.99,.29-3,.25-1,.64-1.93,1.19-2.78,.54-.85,1.23-1.55,2.06-2.09,.83-.54,1.79-.85,2.89-.92Zm-.92,11.21c.36-.06,.69-.3,.97-.71,.28-.41,.52-.91,.7-1.52,.18-.61,.31-1.24,.37-1.9,.07-.66,.06-1.28,0-1.86-.07-.58-.21-1.04-.43-1.39-.22-.35-.52-.51-.91-.49-.44,.05-.81,.28-1.13,.69-.31,.41-.56,.92-.74,1.53-.18,.61-.3,1.26-.35,1.93-.05,.67-.02,1.3,.07,1.88,.09,.58,.26,1.04,.5,1.39,.24,.34,.56,.49,.95,.45Z"/>
            <path class="cls-2" d="M38.41,42.8c-.97-.03-1.79-.28-2.43-.75-.65-.47-1.16-1.11-1.52-1.89-.36-.79-.57-1.68-.62-2.64-.06-.96,.04-1.94,.28-2.91,.24-.97,.63-1.87,1.15-2.69,.52-.81,1.18-1.48,1.97-2,.78-.51,1.71-.8,2.75-.87,.07,0,.14,0,.21,0,.86,0,1.6,.21,2.19,.63,.65,.46,1.17,1.09,1.52,1.89,.36,.81,.58,1.73,.65,2.72,.06,1-.02,2.01-.25,3.02-.23,1-.62,1.93-1.14,2.77-.52,.82-1.18,1.49-1.98,1.99-.78,.49-1.72,.74-2.78,.74Zm1.39-10.98s-.05,0-.08,0h-.02c-.52,.06-.97,.33-1.33,.8-.33,.43-.6,.98-.79,1.63-.19,.63-.31,1.3-.36,1.99-.05,.69-.02,1.35,.07,1.95,.1,.62,.29,1.13,.55,1.51,.27,.38,.63,.58,1.06,.58,.05,0,.11,0,.16,0h.02c.44-.08,.83-.36,1.16-.83,.3-.43,.55-.97,.74-1.6,.19-.62,.32-1.28,.38-1.96,.07-.68,.07-1.33,0-1.92-.07-.62-.23-1.13-.47-1.51-.26-.41-.64-.63-1.1-.63Z"/>
            <path class="cls-11" d="M38.72,42.5c-.91-.03-1.67-.26-2.26-.69-.61-.44-1.09-1.04-1.42-1.77-.34-.76-.55-1.61-.6-2.53-.05-.93,.04-1.88,.27-2.82,.23-.93,.61-1.81,1.11-2.61,.5-.78,1.13-1.42,1.88-1.91,.73-.48,1.61-.76,2.6-.83,.07,0,.14,0,.2,0,.81,0,1.47,.19,2.02,.57,.61,.43,1.09,1.02,1.42,1.77,.35,.78,.56,1.66,.62,2.62,.06,.97-.02,1.95-.25,2.93-.23,.97-.6,1.87-1.1,2.68-.49,.79-1.12,1.42-1.88,1.89-.74,.46-1.62,.69-2.62,.7Zm1.39-10.98s-.06,0-.09,0h-.02s-.02,0-.02,0c-.6,.07-1.12,.38-1.53,.91-.36,.46-.64,1.04-.84,1.72-.19,.65-.32,1.34-.37,2.05-.05,.71-.03,1.39,.08,2.02,.11,.67,.31,1.22,.6,1.63,.41,.58,.94,.71,1.3,.71,.06,0,.13,0,.2-.01h.02s.02,0,.02,0c.52-.09,.98-.41,1.35-.95,.32-.45,.58-1.02,.78-1.68,.19-.64,.33-1.32,.39-2.02,.07-.7,.07-1.37,0-1.98-.08-.66-.25-1.21-.52-1.63-.32-.5-.78-.77-1.35-.77Z"/>
          </g>
          <g>
            <path class="cls-8" d="M49.82,43.74c-.63,0-1.23-.12-1.79-.37-.51-.23-.94-.5-1.28-.8l-.34-.3-.02-.03c-.47-.6-.14-1.7,.77-2.55l.23-.21c.36-.33,.68-.64,.91-.85q.51-.47,.69-.47h.26l.12,.21,.28,.4,.13,.15c.11,.13,.27,.27,.48,.41,.14,.09,.28,.14,.41,.14,.01,0,.03,0,.04,0,.12-.01,.15-.05,.16-.06h0s0-.05-.07-.17c-.06-.1-.23-.32-.78-.66-.45-.26-.9-.55-1.34-.86-.46-.32-.87-.71-1.23-1.14-.37-.45-.64-1-.81-1.62-.17-.62-.2-1.37-.09-2.21v-.02s0-.02,0-.02c.21-.94,.61-1.76,1.21-2.42,.59-.66,1.29-1.16,2.08-1.48,.68-.28,1.37-.42,2.06-.42,.11,0,.23,0,.34,.01,.83,.06,1.57,.34,2.21,.83h.01s.01,.02,.01,.02c.45,.41,.77,.87,.97,1.36,.19,.48,.29,.99,.3,1.54v.52s0,.03,0,.03c-.11,.88-1.2,1.64-2.18,1.9l-.12,.03c-.6,.16-1.16,.26-1.51,.27,.07,.05,.12,.08,.13,.08,.01,0,.53,.31,1.14,.68l.06,.03,.42,.46c.42,.45,.72,.94,.91,1.46,.19,.51,.28,1.03,.28,1.53-.01,.9-.25,1.69-.7,2.36-.45,.66-1.03,1.18-1.73,1.57-.69,.38-1.43,.61-2.2,.67-.14,.01-.28,.02-.42,.02Zm.84-10.04c.16,.23,.37,.5,.53,.67,0-.01,0-.03,0-.04l.02-.2c.04-.27,.06-.54,.07-.82,0-.23-.02-.41-.09-.55,0-.01-.03-.02-.08-.02,0,0-.02,0-.03,0-.08,.01-.18,.05-.28,.2-.1,.16-.15,.34-.14,.56v.19Z"/>
            <path class="cls-11" d="M54.46,29.43c.4,.37,.69,.77,.86,1.2,.17,.43,.26,.89,.27,1.38v.49c-.06,.59-.89,1.27-1.84,1.52l-.12,.03c-.95,.25-1.71,.33-1.7,.18l.02-.19c.04-.27,.06-.56,.07-.86,0-.3-.03-.55-.13-.75-.09-.2-.28-.29-.56-.27-.25,.03-.45,.17-.61,.4-.16,.23-.23,.51-.22,.82v.31c.21,.32,.54,.74,.74,.93l.22,.15,.22,.15c.24,.15,.45,.28,.45,.28,0,0,.52,.31,1.14,.68l.38,.41c.38,.41,.65,.85,.82,1.31,.17,.46,.25,.92,.25,1.38-.01,.81-.22,1.52-.63,2.12-.41,.6-.93,1.08-1.57,1.43-.64,.35-1.32,.56-2.03,.62-.71,.06-1.37-.05-1.99-.31-.47-.21-.85-.45-1.16-.73l-.31-.27c-.32-.41,0-1.29,.72-1.96l.23-.21c.71-.67,1.29-1.21,1.3-1.21,0,0,.14,.2,.3,.43l.14,.17c.14,.17,.33,.33,.57,.49,.26,.16,.5,.23,.73,.21,.23-.02,.4-.11,.5-.27,.1-.16,.08-.36-.06-.61-.14-.25-.45-.52-.93-.82-.45-.26-.88-.54-1.31-.84-.43-.3-.81-.65-1.14-1.06-.33-.4-.58-.89-.73-1.46-.15-.57-.18-1.25-.08-2.04,.19-.87,.56-1.61,1.11-2.22,.55-.61,1.19-1.07,1.92-1.37,.73-.3,1.46-.43,2.2-.38,.74,.05,1.39,.3,1.96,.74Z"/>
            <path class="cls-2" d="M50.12,42.88c-.52,0-1.02-.1-1.49-.3-.43-.2-.8-.42-1.08-.68l-.28-.25c-.15-.24,.04-.93,.7-1.55l.23-.21c.45-.42,.82-.77,1.04-.97l.11,.16,.15,.18c.16,.19,.37,.37,.63,.54,.28,.18,.56,.26,.82,.26,.04,0,.07,0,.11,0,.41-.04,.62-.24,.72-.4,.11-.17,.19-.47-.05-.91-.16-.3-.5-.6-1.04-.93-.44-.26-.88-.53-1.3-.83-.41-.29-.77-.62-1.08-1-.3-.37-.53-.82-.67-1.35-.14-.53-.17-1.17-.08-1.92,.18-.81,.53-1.51,1.04-2.08,.52-.57,1.12-1.01,1.81-1.29,.59-.24,1.18-.36,1.78-.36,.1,0,.19,0,.29,0,.67,.04,1.27,.27,1.79,.67,.36,.33,.62,.7,.77,1.08,.16,.4,.24,.83,.25,1.28v.47c-.06,.41-.73,1.02-1.62,1.26l-.12,.03c-.61,.16-1.05,.23-1.3,.24,.03-.25,.05-.53,.06-.81,0-.34-.04-.64-.16-.88-.13-.29-.4-.44-.75-.44-.03,0-.06,0-.1,0h-.02c-.34,.05-.61,.23-.82,.53-.19,.28-.28,.62-.27,.99v.39s.06,.07,.06,.07c.22,.34,.56,.78,.78,.99l.02,.02,.45,.31c.26,.16,.46,.29,.47,.29,0,0,.5,.3,1.1,.65l.35,.38c.35,.38,.61,.79,.76,1.22,.16,.43,.24,.86,.24,1.28,0,.75-.2,1.4-.58,1.95-.38,.56-.87,1.01-1.47,1.33-.6,.33-1.24,.52-1.91,.58-.12,0-.24,.02-.36,.02Z"/>
            <path class="cls-11" d="M50.41,42.58c-.48,0-.94-.09-1.37-.28-.4-.18-.74-.39-1-.63l-.24-.21c-.02-.14,.12-.65,.66-1.16l.23-.21c.31-.29,.58-.55,.8-.75l.07,.09c.18,.21,.41,.41,.69,.6h.02c.32,.21,.65,.31,.97,.31,.04,0,.09,0,.13,0,.53-.05,.81-.32,.95-.54,.15-.24,.27-.65-.04-1.2-.19-.34-.56-.68-1.14-1.04h-.01c-.43-.26-.86-.53-1.27-.82-.38-.27-.73-.59-1.03-.95-.28-.34-.48-.75-.62-1.24-.13-.49-.16-1.09-.07-1.79,.17-.76,.5-1.41,.97-1.93,.49-.54,1.06-.95,1.7-1.21,.55-.23,1.11-.34,1.66-.34,.09,0,.18,0,.27,0,.61,.04,1.14,.24,1.62,.6,.32,.3,.55,.62,.69,.96,.14,.36,.22,.76,.23,1.18v.44c-.06,.28-.62,.79-1.4,1l-.12,.03c-.36,.1-.66,.16-.89,.19,.01-.15,.02-.31,.03-.47,.01-.39-.05-.73-.18-1.01-.18-.39-.56-.61-1.02-.61-.04,0-.08,0-.12,0h-.02s-.02,0-.02,0c-.42,.06-.77,.28-1.02,.66-.22,.34-.33,.73-.32,1.16l.02,.47,.08,.13c.23,.36,.59,.82,.83,1.04l.03,.03,.48,.33s.47,.29,.48,.29c0,0,.48,.28,1.06,.63l.32,.35c.32,.35,.56,.73,.7,1.12,.15,.4,.22,.8,.22,1.18,0,.69-.18,1.28-.53,1.79-.35,.52-.81,.94-1.37,1.24-.56,.31-1.17,.49-1.79,.54-.11,0-.22,.01-.33,.01Z"/>
          </g>
          <g>
            <path class="cls-8" d="M9.16,43.43s-.07,0-.11,0l-3.25-.15c-1.22-.06-2.18-1.09-2.14-2.3l.37-9.81c.05-1.19,1.06-2.22,2.27-2.28l3.75-.2s.08,0,.12,0c1.19,0,2.14,.92,2.18,2.1h0c.02,.6-.2,1.16-.61,1.58-.41,.42-.97,.65-1.56,.65h-.78c-.8,0-1.39,.45-1.42,.86-.01,.2,.05,.39,.18,.53,.13,.14,.32,.22,.53,.22,0,0,.07,0,.09,0,.95,0,1.72,.94,1.75,2.14v.02c.02,.65-.21,1.26-.62,1.69-.34,.34-.77,.53-1.23,.53-.2,0-.38,.01-.53,.04,.21,.03,.48,.06,.79,.06h.73c.61,0,1.14,.24,1.51,.67,.37,.43,.51,1,.41,1.59v.06c-.21,1.14-1.28,2.03-2.45,2.03h0Z"/>
            <path class="cls-11" d="M12.21,30.67c.03,.97-.75,1.77-1.73,1.77h-.78c-.98,0-1.82,.57-1.86,1.27-.05,.7,.5,1.24,1.21,1.21,.71-.03,1.32,.74,1.35,1.71v.02c.03,.97-.6,1.76-1.4,1.76-.8,0-1.47,.22-1.48,.49-.02,.27,.77,.49,1.75,.49h.73c.98,0,1.64,.79,1.48,1.74v.06c-.18,.96-1.11,1.7-2.09,1.66l-3.25-.15c-.98-.05-1.75-.88-1.71-1.85l.37-9.81c.04-.97,.87-1.81,1.85-1.86l3.75-.2c.98-.05,1.8,.7,1.83,1.67h0Z"/>
            <path class="cls-2" d="M9.45,42.56s-.05,0-.07,0l-3.25-.15c-.82-.04-1.46-.73-1.43-1.54l.37-9.81c.03-.82,.73-1.53,1.57-1.58l3.75-.2s.05,0,.08,0c.78,0,1.41,.61,1.44,1.39,.01,.4-.13,.77-.4,1.05-.27,.28-.64,.43-1.03,.43h-.78c-1.14,0-2.1,.69-2.16,1.54-.03,.41,.11,.79,.38,1.08,.28,.29,.66,.45,1.07,.45,.02,0,.09,0,.09,0,.53,0,.99,.64,1.01,1.43v.02c.01,.45-.14,.87-.41,1.15-.14,.14-.37,.31-.69,.31-.87,0-1.75,.24-1.78,.76,0,.09,.01,.22,.14,.35,.32,.33,1.2,.45,1.91,.45h.73c.38,0,.72,.15,.94,.41,.22,.26,.31,.61,.24,.99v.06c-.15,.78-.91,1.41-1.72,1.41Z"/>
            <path class="cls-11" d="M9.69,42.27l-3.25-.15c-.66-.03-1.17-.59-1.15-1.24l.37-9.81c.03-.67,.61-1.26,1.28-1.29l3.75-.2s.04,0,.06,0c.62,0,1.12,.48,1.14,1.1,0,.32-.1,.61-.32,.83-.22,.22-.51,.34-.82,.34h-.78c-1.31,0-2.39,.8-2.45,1.82-.03,.49,.13,.95,.46,1.3,.33,.35,.79,.54,1.29,.54,.03,0,.05,0,.08,0h0c.34,0,.71,.47,.73,1.14v.02c.01,.36-.11,.72-.33,.94-.1,.1-.26,.22-.48,.22-.98,0-2.03,.27-2.08,1.04-.01,.21,.07,.41,.22,.57,.47,.49,1.64,.55,2.13,.55h.73c.3,0,.55,.11,.72,.3,.17,.19,.23,.46,.18,.75v.06c-.12,.65-.76,1.17-1.42,1.17-.02,0-.04,0-.06,0Z"/>
          </g>
          <g>
            <path class="cls-8" d="M25.87,43.46c-.6,0-1.14-.23-1.53-.65-.39-.42-.59-.98-.54-1.57l.78-10.43c.09-1.19,1.14-2.16,2.34-2.16,.6,0,1.14,.24,1.53,.66,.39,.43,.57,.99,.51,1.59l-.75,7.32c-.04,.34,.07,.66,.28,.9,.22,.24,.53,.38,.88,.38h.7c.64,0,1.24,.26,1.63,.69,.34,.37,.5,.84,.46,1.32-.09,1.05-1.15,1.92-2.36,1.93l-3.92,.03Z"/>
            <path class="cls-11" d="M27.22,28.96c.97,0,1.69,.8,1.59,1.76l-.75,7.32c-.1,.97,.62,1.76,1.6,1.77h.7c.98,.01,1.72,.7,1.64,1.53-.07,.83-.94,1.52-1.92,1.52l-3.91,.03c-.98,0-1.72-.78-1.65-1.75l.78-10.43c.07-.97,.93-1.76,1.9-1.76Z"/>
            <path class="cls-2" d="M26.17,42.6c-.39,0-.74-.15-.99-.42-.25-.27-.38-.63-.35-1.01l.78-10.43c.06-.82,.78-1.48,1.6-1.48,.39,0,.74,.15,.98,.42,.25,.27,.36,.63,.32,1.02l-.75,7.32c-.06,.55,.11,1.07,.47,1.47s.87,.62,1.42,.62h.7c.44,0,.83,.17,1.09,.45,.2,.22,.29,.48,.27,.76-.06,.67-.8,1.25-1.62,1.26l-3.92,.03Z"/>
            <path class="cls-11" d="M26.47,42.3c-.3,0-.58-.11-.77-.32-.2-.21-.29-.49-.27-.79l.78-10.43c.05-.66,.65-1.21,1.31-1.21,.3,0,.57,.12,.76,.32,.19,.21,.28,.49,.25,.79l-.75,7.32c-.07,.63,.13,1.24,.54,1.7,.42,.46,1,.72,1.64,.72h.7c.35,0,.67,.13,.87,.35,.1,.11,.21,.29,.19,.54-.05,.53-.66,.98-1.33,.99l-3.92,.03Z"/>
          </g>
          <g>
            <path class="cls-8" d="M15.52,43.46c-.6,0-1.14-.23-1.53-.65-.39-.42-.59-.98-.54-1.57l.78-10.43c.09-1.19,1.14-2.16,2.34-2.16,.6,0,1.14,.24,1.53,.66,.39,.43,.57,.99,.51,1.59l-.75,7.32c-.04,.34,.07,.66,.28,.9,.22,.24,.53,.38,.88,.38h.7c.64,0,1.24,.26,1.63,.69,.34,.37,.5,.84,.46,1.32-.09,1.05-1.15,1.92-2.36,1.93l-3.92,.03Z"/>
            <path class="cls-11" d="M16.87,28.96c.97,0,1.69,.8,1.59,1.76l-.75,7.32c-.1,.97,.62,1.76,1.6,1.77h.7c.98,.01,1.72,.7,1.64,1.53-.07,.83-.94,1.52-1.92,1.52l-3.91,.03c-.98,0-1.72-.78-1.65-1.75l.78-10.43c.07-.97,.93-1.76,1.9-1.76Z"/>
            <path class="cls-2" d="M15.82,42.6c-.39,0-.74-.15-.99-.42-.25-.27-.38-.63-.35-1.01l.78-10.43c.06-.82,.78-1.48,1.6-1.48,.39,0,.74,.15,.98,.42,.25,.27,.36,.63,.32,1.02l-.75,7.32c-.06,.55,.11,1.07,.47,1.47s.87,.62,1.42,.62h.7c.44,0,.83,.17,1.09,.45,.2,.22,.29,.48,.27,.76-.06,.67-.8,1.25-1.62,1.26l-3.92,.03Z"/>
            <path class="cls-11" d="M16.11,42.3c-.3,0-.58-.11-.77-.32-.2-.21-.29-.49-.27-.79l.78-10.43c.05-.66,.65-1.21,1.31-1.21,.3,0,.57,.12,.76,.32,.19,.21,.28,.49,.25,.79l-.75,7.32c-.07,.63,.13,1.24,.54,1.7,.42,.46,1,.72,1.64,.72h.7c.35,0,.67,.13,.87,.35,.1,.11,.21,.29,.19,.54-.05,.53-.66,.98-1.33,.99l-3.92,.03Z"/>
          </g>
        </g>
      </g>
      <g>
        <path class="cls-8" d="M43.9,31.42c-.01,1.18-.49,2.13-1.31,2.6-.82,.47-1.89,.41-2.93-.16l-6.5-3.6c-1.4-.78-3.82-.9-5.29-.26l-7.33,3.16c-1.06,.46-2.17,.43-3.04-.09-.87-.51-1.42-1.47-1.51-2.61l-.05-.59c0-.12-.01-.24-.01-.36,0-2.12,1.48-4.27,3.45-5l.97-.36c.48-.18,.69-.36,.75-.44-.06-.09-.27-.27-.74-.47l-1.27-.53c-2.02-.84-3.6-3.2-3.6-5.38v-.59c.02-1.17,.5-2.13,1.32-2.63,.82-.5,1.9-.49,2.96,.03l7.68,3.76c1.44,.71,3.89,.73,5.35,.05l6.07-2.83c1.05-.49,2.16-.49,3.02,0,.86,.5,1.42,1.44,1.51,2.59l.05,.6c.01,.12,.01,.24,.01,.36,0,2.12-1.49,4.26-3.46,4.97l-.85,.31c-.51,.18-.71,.37-.77,.45,.04,.06,.24,.26,.74,.48l1.21,.52c2,.86,3.57,3.24,3.57,5.41v.59Z"/>
        <path class="cls-11" d="M19.57,21.69c-1.71-.71-3.1-2.8-3.08-4.64v-.54c.02-1.84,1.4-2.68,3.06-1.86l7.68,3.76c1.66,.82,4.4,.84,6.08,.06l6.07-2.83c1.68-.78,3.18,.08,3.33,1.91l.05,.6c.15,1.83-1.15,3.85-2.89,4.48l-.85,.31c-1.74,.63-1.78,1.75-.08,2.48l1.21,.52c1.7,.73,3.08,2.84,3.06,4.68v.54c-.03,1.84-1.37,2.61-2.99,1.71l-6.5-3.6c-1.62-.9-4.34-1.03-6.04-.3l-7.33,3.16c-1.7,.73-3.22-.17-3.37-2l-.05-.59c-.15-1.83,1.15-3.86,2.89-4.51l.97-.36c1.74-.64,1.76-1.75,.05-2.47l-1.27-.53Z"/>
        <path class="cls-2" d="M42.64,31.16c0,.69-.22,1.18-.61,1.41-.39,.22-.93,.16-1.53-.17l-6.5-3.6c-1.79-.99-4.66-1.13-6.54-.32l-7.33,3.16c-.65,.28-1.27,.28-1.75,0-.48-.28-.77-.83-.83-1.53l-.05-.59c0-.08-.01-.16-.01-.25,0-1.54,1.11-3.17,2.54-3.69l.97-.36c1.47-.54,1.68-1.33,1.68-1.74h0c0-.41-.21-1.17-1.61-1.76l-1.27-.53c-1.48-.62-2.74-2.49-2.74-4.09v-.57c.01-.69,.24-1.21,.65-1.46,.41-.25,.98-.22,1.6,.09l7.68,3.76c1.83,.9,4.72,.93,6.57,.06l6.07-2.83c.64-.3,1.25-.32,1.72-.05,.47,.27,.76,.8,.81,1.5l.05,.6c0,.08,.01,.17,.01,.25,0,1.54-1.11,3.15-2.54,3.66l-.85,.31c-1.48,.54-1.7,1.33-1.7,1.75s.21,1.17,1.59,1.77l1.21,.52c1.47,.64,2.72,2.53,2.72,4.13v.58Z"/>
        <path class="cls-11" d="M42.08,30.6c0,.46-.13,.82-.33,.93-.2,.11-.57,.05-.98-.18l-6.5-3.6c-1.92-1.07-5.02-1.22-7.04-.35l-7.33,3.16c-.48,.21-.92,.22-1.24,.03-.32-.19-.52-.58-.56-1.1l-.05-.59c0-.07,0-.13,0-.2,0-1.3,.97-2.73,2.17-3.17l.97-.36c1.78-.66,2.05-1.7,2.05-2.27h0c0-.54-.25-1.56-1.96-2.27l-1.27-.53c-1.27-.53-2.39-2.2-2.39-3.58v-.57c0-.49,.15-.85,.38-.99,.23-.14,.62-.1,1.06,.11l7.68,3.76c1.97,.96,5.07,.99,7.06,.07l6.07-2.83c.47-.22,.89-.24,1.2-.07,.3,.17,.49,.55,.54,1.06l.05,.6c0,.07,0,.14,0,.2,0,1.3-.97,2.71-2.17,3.14l-.85,.31c-1.8,.65-2.07,1.7-2.07,2.27s.25,1.56,1.93,2.28l1.21,.52c1.27,.55,2.38,2.24,2.38,3.62v.57Z"/>
      </g>
    </g>
    <circle class="cls-8" cx="24.41" cy="23.33" r=".36"/>
    <circle class="cls-8" cx="35.48" cy="23.33" r=".36"/>
  </g>
</svg>