<?xml version="1.0" encoding="UTF-8"?>
<svg id="Capa_2" data-name="Capa 2" xmlns="http://www.w3.org/2000/svg" viewBox="0 0 365.92 93.35">
  <defs>
    <style>
      .cls-1 {
        opacity: .18;
      }

      .cls-2 {
        fill: #fff;
      }

      .cls-3 {
        opacity: .05;
      }

      .cls-4 {
        fill: #e4172b;
      }
      
    </style>
  </defs>
  <g id="DONAME">
    <g>
      <g>
        <path class="cls-2" d="M0,18.4H21.42c19.84,0,31.34,11.37,31.34,27.31v.16c0,15.94-11.66,27.78-31.66,27.78H0V18.4ZM21.66,60.07c9.2,0,15.31-5.05,15.31-13.97v-.16c0-8.84-6.11-13.97-15.31-13.97h-6.27v28.1h6.27Z"/>
        <path class="cls-2" d="M126.63,18.4h14.36l22.85,29.2V18.4h15.23v55.25h-13.49l-23.72-30.31v30.31h-15.23V18.4Z"/>
        <path class="cls-2" d="M208.11,18.01h14.84l23.64,55.64h-16.5l-4.05-9.87h-21.42l-3.97,9.87h-16.19l23.64-55.64Zm13.49,33.86l-6.19-15.71-6.27,15.71h12.46Z"/>
        <path class="cls-4" d="M251.98,18.4h16.27l13.25,21.39,13.25-21.39h16.27v55.25h-15.31v-31.73l-14.2,21.63h-.32l-14.12-21.47v31.57h-15.07V18.4Z"/>
        <path class="cls-4" d="M320.85,18.4h44.67v13.02h-29.44v8.37h26.66v12.08h-26.66v8.76h29.83v13.02h-45.07V18.4Z"/>
      </g>
      <g>
        <g>
          <path class="cls-4" d="M60.38,55.09l-19.27,1.91c3.95,17.41,17.68,31.14,35.16,35.16l2.18-19.11c-8.57-2.71-15.33-9.43-18.07-17.95Z"/>
          <path class="cls-4" d="M113.31,38.11l19.24-2.13c-4.05-17.17-17.62-30.68-34.87-34.73l-1.53,19.35c8.11,2.86,14.49,9.35,17.17,17.51Z"/>
          <path class="cls-4" d="M77.57,20.6l-1.52-19.35c-17.18,4.03-30.7,17.45-34.81,34.51l19.31,1.96c2.74-7.98,9.04-14.31,17.02-17.12Z"/>
          <path class="cls-4" d="M95.25,73.06l2.22,19.1c17.46-4.01,31.19-17.72,35.16-35.11l-19.19-2.19c-2.69,8.65-9.52,15.48-18.19,18.21Z"/>
          <path class="cls-2" d="M86.87,74.34c-2.94,0-5.77-.45-8.43-1.3l-2.18,19.11c3.41,.78,6.96,1.2,10.61,1.2s7.19-.41,10.6-1.2l-2.22-19.1c-2.64,.83-5.46,1.28-8.38,1.28Z"/>
          <path class="cls-2" d="M86.87,19.02c3.25,0,6.38,.56,9.28,1.58l1.53-19.35c-3.47-.81-7.09-1.25-10.81-1.25s-7.34,.43-10.81,1.25l1.52,19.35c2.91-1.03,6.04-1.59,9.3-1.59Z"/>
          <path class="cls-2" d="M132.55,35.98l-19.24,2.13c.88,2.7,1.36,5.58,1.36,8.57s-.43,5.59-1.23,8.17l19.19,2.19c.76-3.34,1.16-6.81,1.16-10.37s-.43-7.26-1.24-10.7Z"/>
          <path class="cls-2" d="M59.06,46.68c0-3.13,.52-6.14,1.49-8.95l-19.31-1.96c-.84,3.5-1.29,7.16-1.29,10.92,0,3.55,.4,7,1.15,10.32l19.27-1.91c-.85-2.65-1.31-5.48-1.31-8.41Z"/>
        </g>
        <path class="cls-1" d="M113.44,54.85l19.19,2.19s-.11,.62-.28,1.23l-19.03-3.02,.13-.4Z"/>
        <path class="cls-1" d="M78.42,73l-2.19,19.09s-.63-.11-1.24-.28l3.03-18.93,.4,.13Z"/>
        <path class="cls-1" d="M60.57,37.74l-19.32-1.92s.1-.64,.26-1.27l19.18,2.77-.12,.41Z"/>
        <path class="cls-1" d="M96.15,20.6l1.56-19.35s.64,.18,1.27,.33l-2.44,19.17-.39-.14Z"/>
        <g class="cls-3">
          <path d="M86.86,9.46c-20.47,0-37.06,16.51-37.06,36.87s16.59,36.87,37.06,36.87,37.06-16.51,37.06-36.87S107.33,9.46,86.86,9.46Zm27.81,36.87c0,2.85-.43,5.59-1.23,8.17-2.69,8.65-9.52,15.48-18.19,18.21-2.64,.83-5.46,1.28-8.38,1.28s-5.77-.45-8.43-1.3c0,0-.02,0-.02,0v-.03s-.4-.13-.4-.13v.03c-8.37-2.79-14.96-9.43-17.64-17.81-.85-2.65-1.31-5.48-1.31-8.41,0-3.13,.52-6.13,1.48-8.93h.02s.1-.35,.1-.35c2.8-7.82,9.03-14.01,16.9-16.78,2.91-1.03,6.04-1.59,9.3-1.59s6.38,.56,9.28,1.58c8.11,2.86,14.49,9.35,17.17,17.51,.88,2.7,1.36,5.58,1.36,8.57Z"/>
        </g>
      </g>
    </g>
  </g>
</svg>