<?xml version="1.0" encoding="UTF-8"?>
<svg id="SANA_SANA" data-name="SANA SANA" xmlns="http://www.w3.org/2000/svg" xmlns:xlink="http://www.w3.org/1999/xlink" viewBox="0 0 284.27 300.24">
  <defs>
    <style>
      .cls-1 {
        fill: #fff;
      }

      .cls-2 {
        fill: #6fc1ba;
      }

      .cls-3 {
        fill: #6dc5df;
      }

      .cls-4 {
        fill: #50a233;
      }

      .cls-5 {
        fill: #f4e73f;
      }

      .cls-6 {
        fill: #60b78a;
      }

      .cls-7 {
        fill: #f29a90;
      }

      .cls-8 {
        fill: #e4312b;
      }

      .cls-9 {
        fill: #47b38e;
      }

      .cls-10 {
        fill: #edebeb;
      }

      .cls-11 {
        fill: #a7c723;
      }

      .cls-12 {
        fill: #63c0c5;
      }

      .cls-13 {
        clip-path: url(#clippath-1);
      }

      .cls-14 {
        fill: #34bbaf;
      }

      .cls-15 {
        fill: #8fbe23;
      }

      .cls-16 {
        fill: #553115;
      }

      .cls-17 {
        fill: #ede766;
      }

      .cls-18 {
        fill: #e7e8e8;
      }

      .cls-19 {
        fill: #3ba6de;
      }

      .cls-20 {
        fill: #f39327;
      }

      .cls-21 {
        fill: #e96611;
      }

      .cls-22 {
        fill: #ef8161;
      }

      .cls-23 {
        fill: #3b7ec0;
      }

      .cls-24 {
        fill: #61bdac;
      }

      .cls-25 {
        fill: #ff5e3d;
      }

      .cls-26 {
        clip-path: url(#clippath);
      }

      .cls-27 {
        fill: #911919;
      }

      .cls-28 {
        fill: #2cab68;
      }

      .cls-29 {
        fill: none;
      }

      .cls-30 {
        fill: #c0d129;
      }

      .cls-31 {
        fill: #d7dc5d;
      }

      .cls-32 {
        fill: #f9b63f;
      }

      .cls-33 {
        fill: #e52254;
      }

      .cls-34 {
        fill: #21a755;
      }

      .cls-35 {
        fill: #1a9e80;
      }

      .cls-36 {
        fill: #773e13;
      }

      .cls-37 {
        fill: #da0844;
      }

      .cls-38 {
        fill: #78b62b;
      }
    </style>
    <clipPath id="clippath">
      <path class="cls-29" d="M268.97-40.22c-8.84,2.18-18.8,3.18-29.88,2.95-49.33-1.01-95.73-14.95-140.86-32.95C64.42-83.69,31.09-98.29-.01-117.07l23.54-57.91,14.01-6.47,12.93-14.01,37.72,3.23,22.63,2.16,7.54,18.32,14.01-14.01,9.7-10.78,17.24,6.47,8.62-4.31h8.62l9.7,8.62,15.09,15.09,16.16,25.86,22.63-1.08,17.24,20.47,14.01,18.32,9.7,18.32-2.16,31.25-9.95,17.3Z"/>
    </clipPath>
    <clipPath id="clippath-1">
      <path class="cls-29" d="M289.25,109.11c-16.39,2.06-32.49,6.76-47.25,14.17-19.22,9.65-36.62,21.9-52.76,35.89-37.45,32.46-76.09,63.77-105.48,104.16-8.93,12.27-16.62,25.07-21.69,38.82L.8,189.77l56.97-47.93-.9-46.12,75.06-33.46-6.33-17.18L194.32-8.28l18.99,.9,75.94,116.48Z"/>
    </clipPath>
  </defs>
  <g class="cls-26">
    <g>
      <path class="cls-15" d="M266.56,32.66c-1.97-21.39,2.49-61.17,2.49-61.17-6.6-5.18-12.37-17.64-12.37-17.64-.07-.11-.14-.23-.21-.34,4.57-6.22,8.2-13.64,10.44-21.92,7.77-28.7-4.09-56.89-26.5-62.95-22.4-6.06-46.86,12.29-54.63,41-2.27,8.4-2.86,16.74-2,24.51-.14,.1-.77,.52-1.73,1.14,.19,.74,.3,1.47,.28,2.15-.07,2.64,.05,5.26,.4,7.86,.08,.39,.17,.78,.26,1.17,.03,.05,.06,.09,.09,.14,1.68,1.83,3.5,3.5,5.02,5.51,.07,.09,.13,.18,.2,.27,.2-.07,.41-.14,.61-.2,2.73,5.56,6.41,10.33,10.9,13.97,0,5.28-1.51,13-8.38,20.8-4.73,5.37-9.2,10.33-12.48,14.66,.2-.61,.4-1.24,.6-1.89-.86,1.34-1.82,2.66-2.88,4.02-.93,1.2-1.91,2.37-2.87,3.55-.32,1.41-.56,2.83-.79,4.26,.22,.02,.44,.04,.67,.06-.25,2.07,.47,3.73,2.47,4.92,6.05,3.59,17.87,6.7,22.27,7.78,4.35,1.29,16.12,4.56,23.15,4.51,2.34-.02,3.81-1.1,4.63-3.04,19.83,9.71,40.55,12.41,40.38,6.86Zm-39.83-17.48c-.61-5.51-2.03-12.29-3.46-19.59-2.02-10.28,.63-17.75,3.31-22.3,5.67-.92,11.23-3.21,16.35-6.65,2.38,2.42,4.32,6.12,3.21,11.5-12.37,11.93-17.39,27.14-19.42,37.03Z"/>
      <path class="cls-30" d="M202.63-29.41c-.18,2.34-.65,4.65-1.25,6.93-.61,2.27-1.4,4.51-2.36,6.68-.95,2.18-2.11,4.28-3.48,6.26l-.51,.75c-.18,.24-.37,.48-.56,.72l-.56,.71c-.19,.24-.37,.48-.57,.7-.77,.9-1.56,1.77-2.35,2.63-.8,.85-1.61,1.7-2.42,2.53l-2.43,2.47c-1.6,1.64-3.18,3.28-4.54,5.03-.67,.87-1.28,1.78-1.76,2.73-.47,.95-.81,1.95-.9,2.99-.08,1.04,.09,2.11,.49,3.15,.4,1.04,.99,2.04,1.66,3-.91-.73-1.76-1.58-2.42-2.61-.66-1.02-1.11-2.24-1.23-3.53-.11-1.29,.13-2.58,.54-3.77,.41-1.19,1-2.29,1.64-3.33,.65-1.03,1.36-2.01,2.1-2.94,.74-.93,1.52-1.82,2.29-2.7,.78-.88,1.58-1.72,2.36-2.58l2.36-2.53c.78-.84,1.56-1.68,2.31-2.53,.2-.21,.37-.42,.55-.64l.53-.64c.18-.21,.36-.42,.53-.64l.5-.67c.69-.88,1.3-1.82,1.94-2.75l.89-1.44c.3-.48,.57-.98,.86-1.47,1.12-1.97,2.14-4.02,3.09-6.11,.95-2.09,1.84-4.23,2.66-6.43Z"/>
      <path class="cls-30" d="M248.04-34.1c.69,.94,1.3,1.93,1.84,2.97,.55,1.04,1.03,2.11,1.42,3.24,.38,1.13,.68,2.32,.76,3.59,.05,.63,.02,1.29-.11,1.96-.13,.67-.36,1.36-.75,1.99l-.16,.23c-.05,.07-.11,.17-.15,.21l-.26,.35-.52,.69-1.03,1.37c-.68,.92-1.36,1.83-2.02,2.75-.66,.92-1.33,1.84-1.97,2.78-.65,.93-1.29,1.86-1.91,2.81-2.5,3.78-4.84,7.64-6.89,11.68-2.06,4.03-3.81,8.21-5.22,12.63,.06-2.32,.42-4.64,.94-6.92,.53-2.28,1.25-4.51,2.1-6.69,1.71-4.36,3.96-8.5,6.54-12.38,.66-.97,1.31-1.93,2-2.87,.7-.94,1.39-1.87,2.12-2.78,.73-.91,1.47-1.81,2.23-2.68,.38-.44,.76-.88,1.15-1.31l.58-.64,.29-.32c.06-.06,.07-.09,.11-.13l.1-.12c.5-.64,.78-1.58,.84-2.62,.07-1.03-.03-2.13-.21-3.22-.37-2.2-1.04-4.4-1.82-6.58Z"/>
      <path class="cls-4" d="M269.04-27.44s-11.48-15.35-12.38-19.42c0,0-1.55,2.79-3.76,5.59,0,0,14.03,11.8,13.48,16.5s-13.76,41.87-9.98,49.44c3.77,7.57-14.28,7.05-22.64,4.79,0,0,27.33,11.03,32.82,3.3,0,0-1-39.32,2.47-60.2Z"/>
      <path class="cls-4" d="M226.5-27.07c-1.33,3.6-2.41,7.33-3.17,11.09-.35,1.74-.64,3.52-.69,5.3-.09,3.05,.44,5.67,1.1,8.62,.53,2.38,1.53,5.09,2.03,7.59,1.02,5.08,1.63,10.4,1.24,15.59-.13,1.72-.31,3.55-1.12,5.09-1.69,3.21-3.5,2.72-6.59,2.54-2.42-.14-5.18-.42-7.69-.94-5.2-1.07-10.24-2.74-15.39-4.01-1.81-.45-3.84-.96-5.65-1.43,0,0,31.32,4.35,28.57-6.09-2.75-10.45-1.09-31.82,7.37-43.36Z"/>
      <path class="cls-4" d="M173.64,13.19c-.09-.4-.11-.8-.11-1.21,0-.2,.01-.4,.03-.61l.06-.6c.11-.8,.3-1.59,.54-2.35,.49-1.53,1.18-2.98,2.01-4.33,.21-.34,.41-.68,.64-1,.23-.32,.45-.65,.69-.97,.23-.32,.49-.62,.74-.93,.25-.3,.51-.6,.77-.9,.55-.57,1.1-1.13,1.69-1.66,.6-.51,1.22-1.01,1.89-1.46-.32,.74-.7,1.43-1.08,2.11-.37,.68-.76,1.35-1.16,2-.38,.67-.79,1.31-1.18,1.96-.19,.33-.39,.65-.59,.97-.21,.32-.4,.64-.59,.97-.79,1.28-1.56,2.57-2.29,3.89-.37,.66-.72,1.32-1.07,2-.34,.68-.68,1.37-.96,2.12Z"/>
      <path class="cls-4" d="M224.49,26.95c.13-.8,.22-1.56,.3-2.33l.06-.57c.01-.19,.03-.38,.05-.57,.04-.38,.05-.76,.08-1.13,.09-1.51,.12-3,.11-4.51-.01-.75-.01-1.5-.05-2.26-.01-.38,0-.76-.03-1.14-.02-.38-.04-.76-.05-1.14,0-.38-.03-.76-.05-1.15-.02-.38-.03-.77-.04-1.16-.03-.78-.07-1.56-.03-2.38,.2,.35,.39,.71,.56,1.07,.17,.36,.34,.73,.48,1.1,.13,.37,.26,.75,.39,1.13,.12,.38,.25,.76,.33,1.15,.18,.78,.35,1.56,.43,2.36,.03,.2,.05,.4,.07,.6,.02,.2,.05,.4,.05,.6l.04,1.21c0,1.61-.18,3.23-.59,4.79-.11,.39-.21,.78-.36,1.16-.07,.19-.14,.38-.21,.57-.08,.19-.16,.37-.25,.56-.35,.73-.75,1.45-1.29,2.05Z"/>
    </g>
  </g>
  <g class="cls-13">
    <g>
      <path class="cls-20" d="M115.42,139.93s-2.38,4.62-.92,7.85c0,0-8.65,1.68-12.03,10.72,0,0,9.3-2.21,10.49,3.41-.29-.81-6.48,4.15-6.79,4.61-1.6,2.31-2.43,4.62-2.69,6.91-.69,5.96,2.46,11.78,5.77,17.25,.65,1.07,1.3,2.13,1.94,3.18,6.68,10.98,10.38,23.38,12.17,36.06,0,0,.72,5.05,1.94,12.65,.99,6.09,2.3,13.82,3.84,21.93,2.49,13.12,5.58,27.19,8.81,36.8l18.44-.89-1.2,20.51s-16.94-.06-35.11,8.54c-4.73,2.24-19.09-45.45-19.09-45.45,0,0-.02-.11-.06-.31-1.36,.71-2.78,1.34-4.25,1.87-1.47,.53-2.96,.95-4.46,1.28,.1,.18,.15,.28,.15,.28,0,0,19.61,46.58,14.41,47.15-18.88,2.05-32.87,16.05-32.87,16.05l-14.47-13.76,15.59-12.5c-8.75-22.58-34.46-64.18-34.46-64.19-3.72-5.55-6.91-11.79-9.37-18.59-4.37-12.08-5.85-24.27-4.79-35.31,0,0,2.02-33.12,28.63-59.52,0,0-1.2,10.27,6.45,6.63,7.65-3.64,6.67-11.96-1.11-6.25,0,0-1.04-3.67,3.29-6.11,4.33-2.43,12.94,1.39,12.94,1.39,0,0,6.27-10.66,5.72-15.38,0,0,4.06,4.03,3.89,10.74,0,0,8.99-11.93,25.54-14.16,0,0-1.96,13.6-8.65,18.14,.92-.6,8.3-5.23,12.34-1.54Z"/>
      <path class="cls-14" d="M68.73,254.75c2.53,6.99-1.09,14.71-8.08,17.24-6.99,2.53-14.71-1.09-17.24-8.08-2.53-6.99,1.09-14.71,8.08-17.24,6.99-2.53,14.71,1.09,17.24,8.08Z"/>
      <path class="cls-9" d="M125.29,242.58c.99,6.09,2.3,13.82,3.84,21.93-5.46,1.34-11.17-1.63-13.13-7.04-2.1-5.79,.9-12.19,6.69-14.28,.86-.31,1.73-.51,2.6-.6Z"/>
      <path class="cls-5" d="M85.67,303.15c1.58,4.38-.68,9.21-5.06,10.8-4.38,1.58-9.21-.68-10.8-5.06-1.58-4.38,.68-9.21,5.06-10.8,4.38-1.58,9.21,.68,10.8,5.06Z"/>
      <path class="cls-9" d="M109.25,190.69c-4.09,.3-8.05-2.12-9.51-6.17-1.52-4.2,.14-8.77,3.74-11.09-.69,5.96,2.46,11.78,5.77,17.25Z"/>
      <path class="cls-32" d="M51.26,154.47c-.64,.88-1.26,1.78-1.86,2.69-.6,.91-1.19,1.82-1.76,2.74-.56,.93-1.13,1.85-1.68,2.79-.55,.94-1.07,1.88-1.59,2.83-2.07,3.8-3.94,7.69-5.58,11.66-3.28,7.94-5.64,16.23-6.82,24.68-1.17,8.45-1.15,17.06,.13,25.53,.34,2.11,.7,4.23,1.18,6.33,.21,1.06,.5,2.09,.74,3.14,.13,.52,.28,1.04,.42,1.56,.14,.52,.28,1.04,.44,1.56,1.19,4.15,2.69,8.23,4.32,12.29-2.33-3.7-4.28-7.65-5.96-11.72-.22-.51-.4-1.03-.6-1.54-.19-.52-.4-1.03-.58-1.55-.35-1.04-.72-2.09-1.03-3.15-.16-.53-.33-1.06-.48-1.59l-.43-1.6c-.15-.53-.27-1.07-.4-1.61-.13-.54-.26-1.08-.37-1.62-1.85-8.67-2.13-17.71-.9-26.51,1.23-8.81,3.94-17.38,7.79-25.33,1.93-3.97,4.15-7.8,6.63-11.43,1.26-1.8,2.55-3.58,3.94-5.28,.7-.85,1.4-1.69,2.13-2.5,.74-.81,1.48-1.61,2.28-2.36Z"/>
      <path class="cls-32" d="M53.11,274.72c.31,.14,.61,.31,.91,.48,.3,.17,.58,.35,.86,.55,.57,.37,1.1,.8,1.64,1.22,1.04,.87,2.02,1.82,2.92,2.83,1.8,2.03,3.37,4.29,4.59,6.72,1.22,2.43,2.22,4.98,2.78,7.64,.33,1.31,.49,2.67,.63,4.01,.08,.67,.07,1.35,.07,2.03,0,.68-.03,1.36-.09,2.03-.33-.61-.61-1.22-.87-1.83-.28-.61-.49-1.22-.79-1.82-.56-1.19-1.01-2.4-1.58-3.56l-.39-.88c-.13-.29-.24-.59-.39-.88-.29-.57-.56-1.15-.82-1.73-.25-.58-.56-1.14-.84-1.71-.29-.57-.54-1.15-.85-1.7-.3-.56-.58-1.13-.87-1.69-.31-.55-.62-1.11-.91-1.67-.62-1.11-1.24-2.23-1.89-3.33-.64-1.12-1.32-2.21-1.99-3.33l-2.1-3.39Z"/>
      <path class="cls-32" d="M106.83,282.48c1.32,3.7,2.45,7.39,3.61,11.06,1.15,3.67,2.27,7.32,3.46,10.94,.28,.91,.6,1.81,.9,2.71,.3,.9,.61,1.8,.93,2.69,.3,.9,.65,1.78,.96,2.68,.34,.89,.66,1.78,1.02,2.66,1.37,3.55,2.92,7,4.76,10.49-1.51-1.26-2.83-2.75-4.04-4.32-1.21-1.57-2.26-3.25-3.23-4.97-.97-1.72-1.82-3.51-2.59-5.32-.39-.9-.74-1.82-1.1-2.74-.33-.92-.67-1.85-.97-2.78-1.23-3.73-2.14-7.54-2.8-11.4-.32-1.93-.58-3.87-.74-5.82-.16-1.95-.26-3.91-.17-5.88Z"/>
      <path class="cls-32" d="M76.06,283.78c3.27-.41,6.42-.82,9.53-1.37,3.1-.54,6.14-1.24,9.08-2.14,1.47-.45,2.91-.98,4.33-1.56,1.42-.57,2.79-1.26,4.15-1.99,1.36-.72,2.65-1.59,3.94-2.49,1.3-.9,2.49-1.96,3.77-3.02-.16,.38-.34,.75-.52,1.12-.09,.19-.19,.37-.28,.56l-.32,.53c-.22,.35-.44,.71-.67,1.06l-.76,1c-1.06,1.3-2.25,2.52-3.59,3.55-2.66,2.1-5.76,3.62-8.97,4.62-1.61,.49-3.25,.87-4.9,1.12l-1.24,.17c-.41,.05-.83,.08-1.24,.12-.83,.07-1.66,.11-2.49,.12-1.66,.02-3.32-.07-4.95-.29-.82-.12-1.63-.24-2.44-.43-.81-.18-1.61-.38-2.39-.67Z"/>
      <path class="cls-32" d="M67.31,142.88c.85,.2,1.61,.62,2.31,1.14,.69,.53,1.32,1.2,1.8,2.03,.47,.83,.79,1.85,.77,2.94-.01,1.09-.39,2.17-.95,3.02-.56,.86-1.28,1.52-2.02,2.06-.76,.5-1.54,.91-2.35,1.19-.4,.14-.81,.27-1.22,.36-.21,.04-.41,.09-.62,.13-.21,.04-.41,.06-.62,.09-.83,.1-1.67,.11-2.53,0,1.25-1.2,2.52-2.09,3.65-3.03,.58-.45,1.09-.92,1.58-1.36,.46-.46,.86-.92,1.16-1.36,.3-.45,.48-.88,.58-1.35,.1-.47,.1-1.02,0-1.65-.1-.62-.32-1.29-.58-1.99-.27-.7-.6-1.42-.95-2.21Z"/>
      <path class="cls-32" d="M83.06,146.44c.52-1.37,1.2-2.65,1.94-3.89,.74-1.24,1.56-2.42,2.43-3.57,1.75-2.29,3.74-4.4,5.95-6.29,1.11-.94,2.26-1.83,3.47-2.64,.3-.21,.61-.4,.92-.59l.47-.29,.48-.27c.32-.18,.63-.37,.96-.53l.98-.49c1.33-.62,2.7-1.16,4.12-1.54,1.42-.37,2.88-.61,4.34-.6-1.27,.74-2.47,1.44-3.64,2.2-1.17,.75-2.29,1.54-3.4,2.34-2.21,1.62-4.32,3.34-6.41,5.11-2.08,1.78-4.14,3.62-6.21,5.48-2.08,1.86-4.16,3.74-6.41,5.58Z"/>
      <path class="cls-12" d="M55.65,269.75c-.6,.06-1.19,.01-1.78-.07-.58-.08-1.15-.21-1.72-.39-1.12-.35-2.21-.85-3.22-1.55-1.01-.69-1.95-1.57-2.71-2.67-.77-1.09-1.34-2.4-1.58-3.8-.24-1.4-.14-2.86,.27-4.14,.08-.33,.22-.63,.34-.94,.06-.15,.12-.31,.19-.46,.07-.15,.15-.29,.23-.43,.16-.28,.31-.56,.48-.83,.18-.25,.36-.51,.55-.75,.09-.12,.18-.25,.28-.36l.31-.33c.21-.22,.42-.43,.63-.64,.44-.4,.91-.76,1.38-1.1,.5-.31,.99-.62,1.51-.88,.53-.25,1.08-.47,1.65-.64-.18,.59-.39,1.12-.6,1.63-.2,.52-.4,1.03-.6,1.51-.1,.24-.19,.49-.28,.73-.09,.24-.19,.47-.28,.7-.08,.24-.16,.47-.24,.69l-.13,.34-.1,.34c-.06,.22-.13,.44-.2,.66-.05,.22-.09,.43-.15,.64-.02,.1-.06,.21-.08,.31-.01,.1-.03,.2-.05,.31l-.05,.3s-.02,.1-.03,.15v.15c-.11,.78-.08,1.49,.04,2.19,.12,.7,.34,1.4,.67,2.13,.34,.73,.79,1.48,1.32,2.26,.53,.77,1.14,1.56,1.8,2.37,.33,.41,.68,.82,1.02,1.25,.35,.43,.72,.86,1.09,1.33Z"/>
      <path class="cls-17" d="M74.41,310.41c-.57-.23-1.05-.59-1.48-.98-.43-.4-.81-.87-1.12-1.39-.31-.52-.56-1.11-.7-1.75-.14-.64-.17-1.33-.05-2.02,.12-.69,.41-1.36,.81-1.93,.2-.29,.43-.53,.67-.76,.25-.21,.51-.42,.79-.57,1.1-.64,2.29-.89,3.49-.72-.2,.24-.4,.45-.59,.64-.19,.21-.38,.4-.56,.59-.35,.39-.69,.74-.95,1.12-.07,.09-.14,.18-.19,.27l-.18,.26c-.05,.09-.1,.18-.15,.26-.05,.08-.08,.18-.13,.26-.16,.35-.26,.69-.33,1.05-.14,.72-.09,1.57,.06,2.52,.15,.96,.4,1.96,.62,3.15Z"/>
      <path class="cls-24" d="M119.69,260.47c-.3-.25-.56-.54-.79-.83-.24-.3-.44-.6-.64-.92-.38-.64-.68-1.32-.92-2.03-.46-1.42-.64-2.97-.4-4.55,.12-.79,.34-1.58,.71-2.33,.37-.75,.87-1.44,1.48-2.01,1.24-1.14,2.88-1.68,4.41-1.45-.5,.62-.97,1.1-1.33,1.64-.36,.53-.68,1.02-.9,1.53-.23,.51-.4,1.01-.55,1.53-.15,.52-.25,1.06-.34,1.62-.18,1.12-.26,2.34-.35,3.62-.1,1.3-.16,2.64-.4,4.17Z"/>
      <path class="cls-28" d="M103.54,173.45s-2.31,7.2,5.95,17.23c0,0-1.95,1-6.67-1.64,0,0,4.56-.2,1.61-4.34-2.94-4.14-.89-11.25-.89-11.25Z"/>
      <path class="cls-21" d="M109.74,190.59s14,22.71,15.6,51.92c0,0-9.44,1.1-9.82,9.63,0,0-2.15-9.93,.58-14.38,2.73-4.46,4.18-28.42-6.36-47.17Z"/>
      <path class="cls-21" d="M129.26,264.53s6.22,31.59,8.68,36.78l-6.1,3.94s4.38-3.9,.9-8.71c-3.48-4.82-2.77-27.64-7.55-29.67s-4.57-3.84-4.57-3.84c0,0,3.95,2.91,8.64,1.5Z"/>
      <path class="cls-21" d="M74.13,343.21s32.71-7.94,32.49-11.75c-.22-3.81-4.87-24.67-14.66-45.33,0,0,16.03,38.71,6.27,45.3-9.76,6.59-24.09,11.78-24.09,11.78Z"/>
      <path class="cls-35" d="M66.97,251.48s5.22,5.63,.81,15.04c-2.45,5.23-11.03,6.3-11.03,6.3,0,0,12.86-5.23,10.21-21.34Z"/>
      <path class="cls-21" d="M115.42,139.93s-2.29,4.88-.92,7.85c0,0-8.04,1.75-12.03,10.72,0,0,3.41-8.18,8.39-12,4.98-3.83,.66-4.58,4.57-6.57Z"/>
      <path class="cls-21" d="M112.79,161.43s-8.65,4.87-9.25,12.02c0,0-2.63,1.53-3.03,2.83,0,0-.63-11.34,12.27-14.85Z"/>
      <path class="cls-28" d="M126.78,251.68l2.4,13.02s-6.09,.76-8.64-1.5c0,0,7.85,.92,6.25-11.52Z"/>
      <path class="cls-32" d="M110.74,141.77c-1.09,.86-2.09,1.47-3.08,2.05-.99,.57-1.95,1.06-2.9,1.55l-2.85,1.44c-.49,.24-.98,.5-1.51,.77-.54,.26-1.06,.57-1.71,.87,0-1.4,.58-2.68,1.4-3.74,.82-1.06,1.9-1.89,3.07-2.48,1.17-.59,2.43-.95,3.71-1.06,.64-.05,1.29-.04,1.94,.05,.65,.1,1.3,.24,1.93,.56Z"/>
      <path class="cls-21" d="M81.88,286.29c2.5-.38,4.91-.77,7.28-1.26,2.37-.49,4.68-1.07,6.93-1.83,1.13-.37,2.23-.79,3.31-1.26,.55-.22,1.07-.49,1.62-.73l.79-.4c.27-.13,.53-.27,.79-.42,2.1-1.12,4.05-2.52,6.05-4.08-1.11,2.28-2.83,4.29-4.87,5.87-.5,.41-1.04,.76-1.58,1.13-.55,.34-1.11,.67-1.68,.97-.57,.31-1.16,.56-1.75,.83-.6,.24-1.2,.48-1.81,.68-2.44,.82-4.99,1.26-7.54,1.36-1.27,.05-2.54,.02-3.81-.11-.63-.07-1.26-.15-1.88-.28-.62-.12-1.24-.27-1.85-.47Z"/>
      <path class="cls-7" d="M66.18,230.92s9.87,4.38,19.91-11.13c10.02-15.47,2.99-25.91,2.99-25.91,0,0,18.23,11.28,6.67,33.24,0,0-9.9,17.88-29.57,3.79Z"/>
      <path class="cls-37" d="M99.15,217.5c-2.51-.02-4.77,2.22-4.12,4.8,.12,.49,.34,.93,.63,1.31-4.31,.36-5.35,5.94-5.46,9.53,0,0,2.44-2.07,2.44-2.07,.7-1.02,1.53-1.9,2.83-1.31,2.42,1.09,1.89,3.26,2.23,5.38,.49,3.04,2.71,5.42,5.55,5.65,3.97,.32,6.61-3.55,6.82-7.14,.24-4.13-.89-8.71-3.4-12.04-1.45-1.93-4.71-4.08-7.52-4.1Z"/>
      <path class="cls-18" d="M75.69,200.08c-4.75,4.84-6.79,10.88-7.67,14.9-1.54,.8-3.25,1.33-5.07,1.53-7.94,.87-15.08-4.86-15.95-12.81-.07-.62-.09-1.24-.08-1.84h0c.02-1.31,.22-2.58,.58-3.8,0,0,0,0,0,0,.52-.81,1.1-1.57,1.75-2.27,.21-.24,.43-.47,.66-.69,.23-.22,.44-.46,.68-.67l.69-.65,.71-.62c1.92-1.65,4-3.07,6.19-4.27,.77-.42,1.56-.81,2.35-1.18,.39-.02,.77-.03,1.16-.02,7.01,.14,13.02,5.34,14.02,12.42Z"/>
      <path class="cls-36" d="M52.65,176.4l2.06,3.78s-16.98,11.62-19.15,24.17c0,0,.53-18.61,17.09-27.94Z"/>
      <path class="cls-18" d="M90.25,211.16s3.63,3.7,6.4,4.14c0,0,4.8-13.15-5.49-15.58,0,0,.85,6.66-.91,11.44Z"/>
      <path class="cls-18" d="M78.97,227.9s5.08,2.96,7.3,5.91c0,0-11.93,5.33-14.36-2.54,0,0,5.37-1.76,7.06-3.37Z"/>
      <path class="cls-18" d="M86.43,219.44s1.83,1.07,3.39,4.56c1.55,3.49-4.54,7.43-11.25,4.07,0,0,4.48-3.21,7.87-8.63Z"/>
      <path class="cls-18" d="M90.75,209.48s4.89,3.44,3.32,9.5c-1.57,6.06-7.9,.55-7.9,.55,0,0,3.01-3.26,4.58-10.05Z"/>
      <path class="cls-21" d="M78.52,197.61c-.73,.77-1.45,1.53-2.12,2.33-.67,.8-1.29,1.62-1.9,2.45-1.18,1.68-2.23,3.44-3.11,5.28-.46,.92-.86,1.86-1.25,2.81-.39,.95-.74,1.92-1.07,2.9-.66,1.96-1.22,3.96-1.7,6.03-.2-2.13,.03-4.27,.46-6.37,.22-1.05,.51-2.08,.86-3.1,.17-.51,.37-1.01,.57-1.51,.21-.49,.43-.99,.67-1.47,.93-1.94,2.15-3.76,3.58-5.37,.73-.79,1.5-1.54,2.34-2.22,.84-.66,1.72-1.27,2.67-1.76Z"/>
      <path class="cls-36" d="M65.07,186.07c-1.16,.48-2.29,1.01-3.4,1.6-1.07,.57-2.12,1.18-3.14,1.84-2.08,1.31-4.03,2.81-5.77,4.5-.88,.85-1.68,1.76-2.42,2.71-.75,.94-1.44,1.93-2.1,2.92-.16,.25-.33,.5-.49,.75-.15,.26-.3,.52-.46,.78-.14,.22-.26,.45-.38,.69h0s-.04,.07-.05,.1c-.14,.27-.29,.53-.42,.81-.55,1.08-.99,2.22-1.46,3.38l-.14-.03c.1-2.52,.9-5.02,2.16-7.24,.16-.28,.32-.55,.49-.82,0,0,0,0,0,0,.52-.81,1.1-1.57,1.75-2.27,.21-.24,.43-.47,.66-.69,.23-.22,.44-.46,.68-.67l.69-.65,.71-.62c1.92-1.65,4-3.07,6.19-4.27,.77-.42,1.56-.81,2.35-1.18,.34-.16,.67-.31,1.01-.46,1.15-.5,2.3-.94,3.5-1.3l.04,.14Z"/>
      <path class="cls-27" d="M95.35,223.57c.53-.45,1.27-.65,1.98-.64,.73,0,1.45,.24,2.07,.6l.45,.3c.14,.12,.27,.23,.4,.35l.19,.18,.17,.2c.11,.13,.22,.27,.33,.41,.19,.29,.36,.59,.52,.89,.12,.32,.25,.64,.33,.98-.28-.21-.52-.44-.76-.66-.25-.21-.49-.42-.72-.63-.12-.1-.25-.19-.36-.29l-.18-.15-.19-.13-.36-.27-.38-.23c-.51-.3-1.04-.54-1.61-.69-.58-.15-1.19-.23-1.88-.2Z"/>
      <path class="cls-36" d="M88.96,193.78c.53,.24,1.02,.55,1.49,.87,.48,.32,.93,.67,1.37,1.05,.88,.75,1.7,1.56,2.4,2.48,.7,.92,1.27,1.92,1.86,2.9,.58,.98,1.16,1.97,1.7,2.99,1.07,2.04,1.72,4.31,1.97,6.61,.19,2.31-.02,4.65-.68,6.84h-.08c.14-2.29,.15-4.54-.1-6.75-.13-1.11-.3-2.21-.56-3.3-.27-1.08-.58-2.16-.96-3.22-.39-1.06-.89-2.08-1.51-3.02-.62-.95-1.4-1.78-2.16-2.61-.76-.83-1.51-1.65-2.31-2.45-.79-.8-1.62-1.56-2.48-2.31l.04-.07Z"/>
      <path class="cls-36" d="M88.96,193.79h0s0,0,0,0h0c.62,.9,1.07,1.9,1.46,2.92,.39,1.02,.66,2.09,.87,3.16,.39,2.16,.45,4.38,.18,6.56-.25,2.18-.82,4.32-1.62,6.36-.8,2.04-1.84,3.97-3,5.8-1.17,1.83-2.43,3.61-3.82,5.28-.36,.41-.7,.83-1.07,1.23l-.55,.6-.58,.58c-.38,.39-.79,.75-1.19,1.12-.21,.18-.42,.35-.63,.53l-.32,.26-.33,.25c-1.73,1.34-3.71,2.39-5.86,2.95-1.07,.29-2.19,.42-3.31,.42-.56,0-1.12-.05-1.67-.14-.28-.04-.55-.1-.83-.17-.28-.07-.54-.14-.84-.26l.41-.71,1.35,.89,.67,.44,.7,.4c.47,.27,.93,.54,1.4,.8l1.44,.71c1.94,.9,3.98,1.59,6.09,1.93,2.11,.34,4.27,.28,6.36-.18,2.1-.46,4.08-1.4,5.89-2.59l.05,.07c-1.72,1.34-3.68,2.44-5.82,3-2.13,.6-4.39,.72-6.59,.44-2.21-.28-4.33-.97-6.35-1.87l-1.49-.73c-.48-.27-.95-.55-1.43-.83-.24-.14-.48-.27-.71-.42l-.68-.47-1.36-.93,.41-.71c.2,.09,.46,.17,.71,.23,.25,.07,.5,.12,.76,.17,.51,.09,1.03,.14,1.56,.16,1.05,.02,2.1-.09,3.13-.32,1.03-.23,2.03-.6,3-1.04,.97-.44,1.9-.98,2.77-1.6,1.77-1.22,3.33-2.72,4.73-4.36,1.4-1.64,2.62-3.43,3.69-5.31,1.06-1.87,1.99-3.83,2.69-5.85,.71-2.02,1.28-4.09,1.55-6.21,.29-2.11,.3-4.27,0-6.39-.3-2.11-.87-4.22-1.89-6.12h0s0,0,0,0l.06-.05Z"/>
      <path class="cls-1" d="M62.69,212.87c-1.43,.31-2.9,.35-4.38,.19-.74-.09-1.49-.24-2.23-.47-.73-.24-1.45-.55-2.15-.96-.68-.41-1.39-.84-2-1.41-.61-.57-1.1-1.27-1.4-2.05-.13-.39-.27-.78-.32-1.19-.03-.2-.06-.4-.08-.6-.01-.2-.01-.4-.01-.6,0-.4,.06-.8,.13-1.19,.03-.19,.1-.39,.17-.58,.07-.19,.14-.38,.23-.57l.3-.02c.27,.33,.45,.65,.66,.95,.21,.3,.37,.6,.57,.88,.09,.14,.18,.28,.26,.42,.1,.13,.18,.26,.27,.4,.05,.06,.08,.13,.12,.2l.14,.19c.09,.12,.16,.25,.25,.37,.35,.48,.66,.95,.96,1.45,.31,.5,.68,.99,1.14,1.4,.46,.41,.98,.77,1.55,1.09,.56,.33,1.16,.61,1.79,.84,1.26,.48,2.62,.8,4.01,.97l.02,.3Z"/>
      <path class="cls-32" d="M78.97,200.35c-.9,1.6-1.82,3.1-2.7,4.6-.88,1.5-1.72,2.99-2.48,4.5-.19,.38-.38,.75-.55,1.14-.19,.38-.34,.77-.52,1.15-.33,.77-.62,1.56-.89,2.36-.26,.8-.48,1.62-.67,2.46-.18,.84-.3,1.71-.43,2.63-.4-.83-.64-1.74-.77-2.67-.11-.93-.11-1.88,0-2.82,.11-.94,.32-1.86,.59-2.75,.14-.44,.3-.89,.48-1.32,.09-.22,.18-.43,.28-.64,.1-.21,.19-.43,.3-.63,.83-1.66,1.9-3.18,3.12-4.54,.62-.68,1.27-1.32,1.98-1.9,.71-.58,1.44-1.13,2.27-1.56Z"/>
      <path class="cls-33" d="M93,227.83c.54-.68,1.28-1.15,2.11-1.45,.83-.29,1.79-.38,2.72-.09,.46,.14,.9,.38,1.28,.68,.38,.3,.68,.68,.9,1.07,.44,.8,.62,1.67,.52,2.53-.55-.67-1.02-1.28-1.54-1.75-.51-.48-1.05-.79-1.64-.97-.59-.19-1.27-.24-2-.22-.73,.02-1.5,.11-2.35,.2Z"/>
      <path class="cls-33" d="M96.72,221.27c.79-.55,1.76-.79,2.73-.82,.98-.03,1.99,.2,2.88,.69,.89,.48,1.64,1.23,2.13,2.07,.49,.85,.77,1.79,.76,2.75-.63-.72-1.18-1.4-1.78-1.97-.3-.28-.6-.56-.92-.79-.32-.24-.64-.46-.98-.64-.68-.37-1.42-.65-2.23-.85-.81-.2-1.66-.34-2.61-.45Z"/>
      <g>
        <path class="cls-14" d="M68.53,197c1.19,3.79-.92,7.84-4.71,9.03-3.79,1.19-7.84-.92-9.03-4.71s.92-7.84,4.71-9.03c3.79-1.19,7.84,.92,9.03,4.71Z"/>
        <path class="cls-16" d="M60.24,201.49c.21,.68-.16,1.4-.84,1.61s-1.4-.16-1.61-.84c-.21-.68,.16-1.4,.84-1.61,.68-.21,1.4,.16,1.61,.84Z"/>
        <path class="cls-16" d="M66.18,196.39c.21,.68-.16,1.4-.84,1.61-.68,.21-1.4-.16-1.61-.84-.21-.68,.16-1.4,.84-1.61,.68-.21,1.4,.16,1.61,.84Z"/>
        <path class="cls-36" d="M59.12,201.93c.06-.34,.19-.66,.34-.97,.15-.31,.34-.6,.54-.88,.4-.56,.89-1.05,1.42-1.49l.41-.31c.14-.1,.28-.19,.42-.29,.28-.19,.59-.35,.89-.5,.3-.15,.62-.27,.94-.4,.32-.11,.65-.2,.99-.26-.26,.23-.53,.43-.79,.63-.26,.21-.53,.4-.79,.6-.26,.2-.52,.39-.77,.59-.26,.19-.51,.4-.76,.6-.5,.41-.98,.82-1.45,1.27-.47,.44-.93,.9-1.38,1.41Z"/>
        <path class="cls-35" d="M67.8,198.67c.13,.35,.18,.71,.2,1.07,0,.18,0,.36-.01,.54-.02,.18-.04,.36-.07,.54-.13,.72-.41,1.41-.81,2.03l-.15,.23-.17,.22c-.12,.14-.23,.29-.36,.42-.27,.26-.53,.51-.84,.71-.6,.42-1.3,.69-2.02,.77,.11-.15,.22-.29,.34-.42,.11-.13,.23-.25,.33-.39,.11-.13,.21-.26,.32-.38,.11-.12,.2-.26,.3-.38l.15-.18,.08-.09,.07-.1c.09-.13,.19-.25,.28-.38,.09-.12,.18-.26,.26-.38l.14-.19,.12-.2c.34-.52,.65-1.06,.94-1.63,.3-.57,.58-1.17,.9-1.82Z"/>
        <path class="cls-12" d="M55.46,200.57c-.14-.36-.19-.73-.23-1.11-.03-.37-.02-.75,.02-1.12,.08-.75,.3-1.48,.66-2.17,.36-.68,.87-1.31,1.51-1.77,.64-.46,1.4-.73,2.17-.7-.56,.52-1.04,.98-1.43,1.49-.4,.51-.73,1.05-1.03,1.61-.3,.57-.57,1.17-.83,1.8-.27,.63-.52,1.27-.84,1.96Z"/>
      </g>
      <path class="cls-1" d="M84.76,233.62c-.91,.48-1.87,.83-2.86,1.13-.5,.14-1.01,.26-1.52,.36-.52,.09-1.05,.15-1.58,.18-.54,.03-1.09,.08-1.66,.06-.57-.02-1.14-.16-1.66-.44-.52-.28-1.01-.64-1.38-1.12-.37-.48-.64-1.03-.69-1.65l.19-.15c.58,.16,1.04,.28,1.49,.38,.44,.1,.85,.17,1.26,.25,.41,.08,.8,.19,1.22,.34,.41,.15,.85,.31,1.31,.37,.46,.07,.93,.12,1.4,.15,.48,.04,.96,.05,1.45,.05,.98,0,1.97-.05,2.96-.15l.08,.23Z"/>
      <path class="cls-1" d="M89.5,225.83c-.52,.61-1.12,1.12-1.77,1.6-.16,.12-.33,.23-.5,.34-.17,.11-.34,.22-.52,.32-.18,.09-.35,.2-.54,.29l-.56,.26c-.39,.14-.77,.36-1.19,.49-.41,.16-.86,.18-1.3,.13-.45-.08-.88-.21-1.28-.46-.4-.22-.75-.58-1.01-1.01l.08-.23c.48-.24,.84-.32,1.2-.47,.34-.1,.67-.23,.98-.28,.16-.04,.32-.08,.47-.08,.16,0,.32,0,.49,0,.33,.04,.69,.05,1.03,.02,.34-.05,.7-.1,1.05-.18,.18-.03,.36-.07,.53-.11,.18-.04,.36-.08,.53-.13,.72-.18,1.44-.42,2.15-.69l.15,.2Z"/>
      <path class="cls-1" d="M91.97,220.88c-.41,.18-.84,.26-1.3,.29-.46,.02-.95-.04-1.44-.24-.24-.11-.52-.19-.78-.36-.13-.07-.24-.18-.33-.31-.09-.12-.17-.26-.2-.41-.03-.15-.06-.31-.06-.46,.02-.15,.04-.31,.09-.45,.03-.07,.05-.15,.09-.22,.05-.07,.09-.14,.14-.2,.11-.13,.23-.25,.4-.36h.24c.71,.34,1,.46,1.24,.53,.04,.03,.09,.04,.11,.08,.02,.03,.02,.08,.03,.14,0,.06,0,.13,.02,.2,.02,.06,.04,.13,.08,.19,.16,.22,.39,.46,.67,.69,.28,.23,.62,.44,.98,.64v.24Z"/>
      <path class="cls-1" d="M96.16,214.29c-.27-.85-.52-1.7-.79-2.53-.13-.42-.26-.83-.4-1.25-.13-.41-.26-.82-.41-1.23-.14-.4-.34-.79-.52-1.17-.18-.38-.31-.76-.37-1.16-.06-.4-.1-.8-.13-1.21-.03-.42-.02-.83-.09-1.37l.16-.18c.59,.05,1.08,.39,1.46,.74,.38,.36,.68,.77,.91,1.2,.23,.43,.36,.88,.41,1.35,.04,.47,.05,.94,.09,1.39,.04,.45,.07,.91,.1,1.36,.01,.45,.01,.9,.01,1.35-.02,.9-.06,1.79-.18,2.69l-.24,.02Z"/>
    </g>
    <g>
      <path class="cls-19" d="M174.31,64.25c-23.93-15.67-31.13-3.31-31.13-3.31,14.1-1.2,27.63,17.8,27.6,25.03-.03,7.23-12.9,15.59-12.9,15.59,0,.03,0,.06-.02,.09-9.61-2.26-22.11-.48-34.07,5.68-11.9,6.12-20.59,15.21-24.36,24.3-1.64,.62-14.49,5.28-20.01,1.38-5.9-4.18-13.5-26.23-4.34-37.01,0,0-14.24-1.32-15.4,27.26-1.16,28.58,16.27,37.21,24.98,36.19,7.87-.92,15.28,.48,17.47,3.22,.99,3.56,2.36,7.09,4.12,10.52,3.58,6.96,8.43,12.81,14.03,17.35,4.92,5.93,14.76,21.66,8.55,47.43,1.74,11.22,15.21,25.06,15.21,25.06,0,0,37.22-15.12,40.22-23.88,0,0-24.3-27.99-18.49-40.34,1.4-.54,2.79-1.16,4.15-1.86,1.39-.71,2.71-1.49,3.99-2.34,13.44,2.43,22.1,38.49,22.1,38.49,8.87,2.65,42.8-18.86,42.8-18.86,0,0-3.44-19-11.56-26.94-25.08-10.12-31.95-27.75-33.75-34.95-.5-7.05-2.43-14.22-5.94-21.04-1.55-3.01-3.34-5.82-5.32-8.4,0-.09-.03-.19-.1-.28-2.05-2.87,1.2-10.55,7.09-17.04,5.89-6.49,8.99-25.69-14.94-41.36Z"/>
      <path class="cls-18" d="M160.15,132.32c1.61,3.12,2.27,6.47,2.1,9.74-7.02,5.33-10.49,12.14-12.15,16.82-9.01,3.52-19.4-.27-23.93-9.06-1.18-2.29-1.85-4.7-2.05-7.11,.66-1.32,1.59-3.12,2.79-5.18,.49-.84,1.03-1.73,1.6-2.65,.3-.48,.61-.97,.94-1.47,1.01-1.54,2.13-3.15,3.35-4.75,.64-.84,1.31-1.68,2-2.5,.96-1.14,1.97-2.27,3.03-3.35,.04-.04,.08-.09,.13-.13,8.58-2.44,17.96,1.41,22.2,9.64Z"/>
      <path class="cls-38" d="M153.53,130.1c3.57,6.93,.84,15.43-6.09,19-6.93,3.57-15.43,.84-19-6.09-.91-1.76-1.41-3.63-1.54-5.49,.49-.84,1.03-1.73,1.6-2.65,.3-.48,.61-.97,.94-1.47,1.01-1.54,2.13-3.15,3.35-4.75,.64-.84,1.31-1.68,2-2.5,.96-1.14,1.97-2.27,3.03-3.35,6.14-1.42,12.69,1.44,15.71,7.3Z"/>
      <path class="cls-7" d="M156.72,167.12s14.69-9.01,11.06-25.6c0,0,14.26,22.09-11.06,25.6Z"/>
      <path class="cls-36" d="M113.48,129.08s1.87,2.5,4.16,2.48c0,0,6.25-5.24,10.76-12.17,4.51-6.94,9.84-11.7,11.56-12.3,1.71-.59,8.48-.9,9.74-.69,0,0-7.71-2.09-11.93,.37-3.44,2.01-6.01,6.17-8.47,9.19-2.25,2.76-4.59,5.77-7.34,8.19-.71,.62-7.66,6.04-8.48,4.94Z"/>
      <path class="cls-3" d="M107.26,127.09c.07,3.39,.21,6.63,.45,9.84,.23,3.2,.58,6.35,1.03,9.43,.46,3.08,1.05,6.11,1.79,9.06,.74,2.95,1.65,5.84,2.72,8.64,2.16,5.61,5.05,10.88,8.66,15.86,1.83,2.47,3.79,4.91,5.94,7.28l.81,.89c.27,.3,.55,.58,.82,.88,.28,.29,.55,.6,.83,.89,.29,.29,.57,.58,.85,.88l.43,.45c.15,.14,.29,.29,.44,.44l.87,.89c.58,.6,1.18,1.18,1.76,1.81-.83-.2-1.64-.43-2.45-.69-.79-.28-1.61-.54-2.39-.88-.39-.16-.79-.32-1.18-.49-.39-.17-.77-.36-1.16-.54-.39-.18-.77-.36-1.15-.56l-1.13-.61c-.76-.41-1.48-.86-2.22-1.31l-1.08-.71-.54-.36-.52-.38c-1.41-1-2.74-2.12-4.04-3.28-5.14-4.71-9.2-10.75-11.71-17.34-1.26-3.29-2.16-6.71-2.68-10.16-.53-3.45-.7-6.93-.52-10.37,.17-3.44,.69-6.84,1.55-10.14,.43-1.65,.95-3.27,1.57-4.85,.62-1.58,1.32-3.13,2.22-4.58Z"/>
      <path class="cls-3" d="M131.55,202.87c.58,.6,1.06,1.25,1.52,1.92,.46,.67,.87,1.35,1.26,2.05,.77,1.4,1.41,2.86,1.94,4.35,.54,1.49,.95,3.03,1.27,4.59,.31,1.56,.53,3.14,.61,4.75,.08,1.6,.06,3.22-.11,4.83-.18,1.61-.48,3.22-.95,4.79-.48,1.57-1.13,3.09-1.96,4.51-.45,.7-.88,1.39-1.42,2.02-.5,.64-1.11,1.22-1.74,1.75,.02-.84,.12-1.61,.15-2.39,.02-.39,.07-.76,.07-1.14l.06-1.12c.05-1.49,.06-2.93,.06-4.36-.02-1.43-.05-2.85-.1-4.27-.05-1.42-.13-2.84-.2-4.27-.15-2.86-.34-5.75-.47-8.72-.06-1.48-.11-2.99-.12-4.52,0-.77,0-1.54,.02-2.33,.02-.79,.05-1.58,.11-2.41Z"/>
      <path class="cls-3" d="M146.9,259.02c-.55,.05-1.08,0-1.61-.09-.53-.08-1.04-.22-1.54-.37-1-.32-1.97-.77-2.86-1.31-1.8-1.09-3.35-2.56-4.6-4.25-.62-.85-1.17-1.74-1.62-2.69l-.17-.35-.15-.36c-.1-.24-.2-.48-.29-.72-.17-.49-.35-.98-.47-1.49-.07-.25-.12-.5-.18-.76-.05-.25-.09-.51-.13-.77-.09-.51-.12-1.03-.16-1.55-.04-1.04,.01-2.09,.26-3.14,.38,.4,.69,.81,.99,1.22,.16,.2,.31,.4,.46,.6,.15,.2,.28,.4,.44,.59l.84,1.17,.8,1.14c1.05,1.51,2.07,2.95,3.1,4.38,1.04,1.42,2.11,2.81,3.24,4.24l1.75,2.18,1.9,2.34Z"/>
      <path class="cls-3" d="M182.5,193.67c.88,.28,1.7,.69,2.49,1.12,.79,.44,1.54,.93,2.27,1.45,1.45,1.05,2.79,2.24,4.02,3.53,2.46,2.58,4.46,5.58,6,8.81,.77,1.61,1.39,3.3,1.9,5.01,.5,1.72,.85,3.48,1.06,5.26,.18,1.78,.25,3.57,.08,5.36l-.06,.67c-.02,.22-.04,.44-.08,.67-.07,.45-.14,.89-.23,1.33-.07,.44-.2,.88-.31,1.32-.13,.44-.25,.87-.42,1.3-.23-.41-.43-.81-.63-1.21l-.56-1.2c-.38-.79-.7-1.57-1.07-2.34-.67-1.54-1.36-3.04-1.99-4.52l-1.96-4.38c-.67-1.44-1.31-2.88-1.99-4.31l-2.05-4.29-2.12-4.34c-.72-1.46-1.43-2.95-2.16-4.47-.36-.77-.73-1.53-1.09-2.32-.37-.79-.73-1.59-1.09-2.44Z"/>
      <path class="cls-3" d="M71.46,97.34c-1.17,3.29-2.16,6.43-2.74,9.62l-.23,1.18-.18,1.19c-.07,.39-.12,.79-.16,1.18l-.15,1.18c-.06,.79-.17,1.57-.19,2.36-.02,.39-.06,.78-.07,1.17,0,.39-.02,.78-.04,1.17-.02,.39-.01,.78-.01,1.17,0,.39-.01,.78,0,1.17,.03,.78,.02,1.55,.08,2.33,.06,1.55,.24,3.08,.41,4.63,.4,3.14,.93,6.26,1.64,9.26,.09,.38,.18,.75,.27,1.12,.1,.37,.19,.74,.3,1.11,.2,.74,.41,1.47,.65,2.18,.46,1.43,.99,2.81,1.59,4.12,1.2,2.62,2.73,4.9,4.7,6.53l.38,.3c.12,.1,.28,.19,.41,.29l.43,.29c.15,.09,.3,.18,.45,.27l.46,.28,.48,.25c.16,.08,.32,.17,.49,.25l.5,.23c1.35,.62,2.82,1.14,4.35,1.57,1.53,.43,3.13,.79,4.77,1.08,1.64,.29,3.32,.51,5.05,.74-1.58,.74-3.25,1.29-4.97,1.69-1.72,.41-3.49,.67-5.3,.76-1.81,.09-3.66,0-5.53-.33l-.7-.13c-.24-.04-.47-.11-.7-.17l-.7-.18-.7-.22c-.23-.08-.47-.15-.7-.23l-.7-.28c-.23-.1-.46-.18-.7-.3l-.7-.35c-1.85-.97-3.5-2.28-4.88-3.75-1.38-1.47-2.54-3.08-3.49-4.74-.96-1.66-1.75-3.39-2.39-5.12-.16-.43-.32-.87-.46-1.31-.15-.44-.28-.87-.42-1.31-.26-.88-.49-1.76-.7-2.64-.83-3.53-1.27-7.08-1.39-10.64-.05-1.81-.03-3.64,.15-5.44,.07-.9,.2-1.8,.32-2.7,.07-.45,.16-.89,.24-1.34,.08-.45,.16-.89,.27-1.33l.31-1.32c.11-.44,.24-.87,.37-1.31,.24-.87,.56-1.72,.86-2.57,.16-.42,.34-.84,.51-1.25,.17-.42,.34-.83,.54-1.23l.58-1.21c.21-.4,.43-.79,.64-1.18l.33-.58c.11-.19,.23-.38,.35-.57,.24-.38,.48-.75,.72-1.12l.78-1.08c.13-.18,.26-.36,.39-.53l.43-.51c.29-.34,.56-.68,.85-1.01l.92-.95,.46-.46c.16-.15,.32-.3,.49-.44,.33-.29,.66-.57,1-.85Z"/>
      <path class="cls-3" d="M150.18,59.7c1.29-.13,2.59-.07,3.88,.09,1.29,.16,2.56,.44,3.81,.81,2.5,.75,4.9,1.85,7.14,3.26,2.24,1.4,4.31,3.11,6.15,5.09,1.84,1.98,3.45,4.24,4.69,6.78,1.23,2.53,2.09,5.37,2.26,8.37,.17,2.98-.41,6.12-1.81,8.78-.69,1.33-1.55,2.53-2.53,3.58-.98,1.04-2.07,1.93-3.21,2.66-1.15,.73-2.35,1.31-3.58,1.75-1.23,.44-2.49,.75-3.78,.9,.83-1.01,1.64-1.94,2.38-2.89,.75-.94,1.41-1.9,2-2.84,1.18-1.89,1.96-3.8,2.33-5.63,.36-1.84,.32-3.63-.02-5.44-.34-1.81-1-3.63-1.87-5.43-.87-1.8-1.96-3.58-3.2-5.31-1.24-1.73-2.63-3.42-4.12-5.07-1.5-1.64-3.11-3.25-4.85-4.81-.87-.78-1.77-1.56-2.71-2.33-.94-.77-1.92-1.52-2.94-2.32Z"/>
      <path class="cls-3" d="M139.36,117.72c-1.05,.76-2.08,1.55-3.08,2.36-1.01,.81-2,1.63-2.95,2.48-.96,.85-1.9,1.72-2.8,2.6-.91,.88-1.79,1.79-2.63,2.72-.43,.46-.81,.96-1.19,1.45-.37,.51-.73,1-1.08,1.52-.7,1.01-1.43,1.97-2.18,2.9-.75,.94-1.53,1.86-2.27,2.85-.75,.98-1.48,2-2.32,3.14l-.4-.08c-.31-1.4-.22-2.85,.08-4.24,.29-1.39,.84-2.71,1.5-3.94,.17-.3,.34-.61,.53-.9,.19-.29,.39-.57,.6-.85,.43-.54,.88-1.06,1.38-1.53,.99-.96,2.05-1.81,3.07-2.68,2.04-1.75,4.24-3.26,6.5-4.62,2.28-1.34,4.6-2.57,7.05-3.54l.19,.36Z"/>
      <path class="cls-23" d="M167.04,59.96s36.86,16.95,23.25,45.16c-7.46,4.85-8.53,15.93-8.53,15.93l-6.63-7.84s14.55-11.53,13.3-20.12c-1.25-8.59-6.36-24.13-21.39-33.13Z"/>
      <path class="cls-23" d="M191.76,142.16s1.5,5.43,1.84,10.38c.22,3.11,2.29,6.49,3.83,9.15,1.95,3.37,4.39,6.42,6.91,9.37,3.61,4.23,7.59,8.47,12.45,11.18,3.75,2.1,6.76,3.72,10.79,5.11,0,0,6.31,4.69,11.86,27.8l-29.08,14.68s35.01-18.31,12.04-29.86c-22.97-11.55-20.4-37.39-26.51-30.21,0,0,.63-4.94-1.7-7.78-2.33-2.84-6.21-10.94-2.41-19.82Z"/>
      <path class="cls-23" d="M166.38,198.79s-9.03,7.39,17.91,40.4c0,0-.22,5.45-25.15,17.28,0,0,21.27-15.28,13.61-23.45-7.67-8.17-18.45-27.43-11.29-33.14l4.92-1.09Z"/>
      <path class="cls-23" d="M75.66,94.31s-12.98,17.94,3.78,38.73c11.53,5.03,20.75-1.74,20.75-1.74,0,0-5.73,10.16-2.87,19.08,0,0-3.37-13.27-16.64-9.9-13.27,3.37-16.02-35.61-5.02-46.18Z"/>
      <path class="cls-1" d="M148.61,155.38c-1.37,.75-2.89,1.15-4.46,1.36-1.57,.2-3.2,.17-4.8-.14-.2-.02-.4-.07-.6-.11l-.61-.11-.62-.1c-.2-.04-.4-.1-.6-.15-.4-.11-.79-.24-1.17-.42-.36-.2-.7-.43-1.02-.69-.16-.13-.32-.26-.47-.4-.15-.15-.29-.3-.42-.46-.27-.32-.53-.65-.76-1-.12-.17-.22-.36-.31-.56-.09-.19-.18-.39-.26-.6-.08-.21-.15-.41-.21-.63l-.09-.33c-.02-.12-.05-.23-.06-.35l.29-.32c.13,0,.24,0,.36,0l.34,.02c.22,.01,.43,.04,.63,.07,.2,.03,.4,.06,.59,.11,.1,.02,.19,.04,.28,.06,.09,.02,.19,.03,.28,.05,.37,.07,.72,.16,1.05,.26,.17,.05,.33,.11,.49,.16,.16,.05,.33,.09,.48,.15,.31,.11,.61,.24,.89,.41,.29,.14,.56,.31,.83,.51l.4,.31,.42,.27c.28,.17,.57,.37,.87,.5l.92,.4c.31,.12,.63,.23,.95,.34l.24,.09,.24,.07,.49,.14c.33,.11,.67,.18,1.01,.26,1.36,.31,2.8,.46,4.25,.4l.14,.41Z"/>
      <path class="cls-11" d="M145.39,143.98c-.77,.74-1.61,1.38-2.5,1.97-.45,.29-.91,.57-1.39,.83-.48,.25-.99,.48-1.51,.68-.53,.2-1.07,.43-1.65,.59-.59,.16-1.24,.19-1.89,0-.65-.18-1.3-.52-1.79-1.05-.48-.52-.77-1.21-.7-1.9l.26-.17c1.28,.33,1.89,.13,2.63,.07,.36-.04,.74-.04,1.17,.02,.43,.05,.9,.11,1.37,.05,.93-.11,1.9-.29,2.88-.52,.98-.22,1.97-.52,2.96-.83l.16,.26Z"/>
      <path class="cls-23" d="M104.74,122.47c-1.1,1.7-1.98,3.48-2.74,5.29-.75,1.81-1.39,3.66-1.86,5.53-.48,1.88-.83,3.77-1.04,5.68-.09,.96-.19,1.91-.21,2.87l-.04,.72v.72s0,.72,0,.72c0,.24,0,.48,.01,.72l.04,1.44c.03,.48,.07,.96,.11,1.44,.02,.24,.03,.48,.05,.72l.08,.72,.17,1.44c.16,.96,.28,1.92,.48,2.88l.28,1.44,.33,1.43c.88,3.82,2.11,7.6,3.4,11.44-2.44-3.25-4.33-6.89-5.72-10.75l-.5-1.46c-.15-.49-.28-.99-.42-1.48-.31-.99-.48-2-.71-3.01-.36-2.04-.62-4.1-.65-6.18-.01-.26-.01-.52,0-.78v-.78s.03-.78,.03-.78l.06-.78c.07-1.04,.2-2.07,.36-3.1,.34-2.06,.88-4.08,1.63-6.02,.74-1.94,1.7-3.79,2.83-5.51,.58-.85,1.19-1.68,1.87-2.45,.67-.77,1.4-1.5,2.2-2.12Z"/>
      <path class="cls-23" d="M149.63,100.66c1.91-.2,3.83-.03,5.73,.26,1.9,.31,3.77,.79,5.6,1.42,1.83,.63,3.61,1.42,5.32,2.34,.86,.45,1.68,.96,2.51,1.47l1.21,.81c.4,.27,.79,.57,1.18,.86,.19,.15,.39,.29,.58,.44l.56,.46c.37,.31,.76,.61,1.12,.94l1.07,.98c.36,.33,.69,.68,1.03,1.02,.34,.35,.68,.69,1,1.06,.32,.36,.64,.72,.96,1.09,.31,.37,.61,.75,.91,1.13l.44,.57c.15,.19,.28,.39,.42,.59,2.24,3.14,4.05,6.56,5.2,10.19-2.3-3.04-4.58-5.97-7.08-8.66-.15-.17-.3-.34-.46-.51l-.48-.49-.95-.99c-.67-.62-1.29-1.29-1.98-1.88-.34-.3-.66-.62-1.01-.92l-1.04-.88c-.34-.3-.71-.57-1.06-.86l-.53-.43-.55-.41c-1.44-1.11-2.94-2.12-4.49-3.07-1.55-.95-3.15-1.83-4.79-2.63-3.29-1.6-6.74-2.95-10.41-3.91Z"/>
      <path class="cls-23" d="M152.29,200.56c1.42-.48,2.78-.94,4.12-1.42,1.34-.47,2.65-.96,3.94-1.47,2.59-1.01,5.08-2.11,7.51-3.34,1.22-.61,2.4-1.27,3.59-1.95,1.18-.68,2.34-1.41,3.5-2.16,2.32-1.51,4.55-3.2,6.99-4.93-.54,1.4-1.24,2.72-2.09,3.95-.21,.31-.42,.62-.65,.92-.23,.3-.46,.58-.7,.88-.23,.3-.48,.57-.73,.85-.26,.27-.5,.56-.77,.82-1.06,1.06-2.21,2.05-3.43,2.93-1.23,.87-2.51,1.67-3.86,2.35-2.69,1.35-5.58,2.32-8.53,2.79-1.48,.23-2.97,.36-4.46,.34-.75,0-1.49-.05-2.23-.14-.74-.09-1.48-.21-2.2-.43Z"/>
      <path class="cls-23" d="M168.88,138.07c-2.3,1.85-4.5,3.6-6.49,5.55-.51,.47-.98,.98-1.48,1.46-.25,.24-.47,.51-.71,.75-.23,.25-.47,.5-.7,.76l-.68,.77-.66,.79c-.22,.26-.43,.53-.65,.8-.21,.27-.43,.53-.63,.81-.84,1.08-1.61,2.22-2.36,3.37-.38,.57-.74,1.16-1.1,1.75-.35,.59-.7,1.19-1.04,1.8-1.35,2.44-2.58,4.97-3.74,7.68-.08-.74-.07-1.48-.02-2.22,.04-.74,.13-1.48,.25-2.21,.24-1.46,.62-2.9,1.11-4.31,.99-2.81,2.42-5.49,4.25-7.88,1.82-2.39,4.03-4.5,6.52-6.16,1.23-.84,2.55-1.56,3.9-2.16,1.36-.59,2.76-1.07,4.22-1.35Z"/>
      <path class="cls-36" d="M165.22,164.98c-2.26,1.16-5.09,1.98-8.46,2.45l-.61,.08,.52-.32s3.7-2.29,6.86-6.55c2.92-3.92,6-10.39,4.14-18.91l-.15-.69,.39,.6c.06,.1,6.45,10.15,2.97,17.74-1.08,2.35-2.97,4.22-5.66,5.61Zm-7.93,2.12c6.97-1.07,11.47-3.7,13.36-7.83,2.92-6.36-1.24-14.52-2.57-16.85,1.56,8.25-1.47,14.53-4.34,18.38-2.52,3.38-5.35,5.52-6.45,6.29Z"/>
      <g>
        <path class="cls-11" d="M144.84,130.47c2.22,4.24,.58,9.48-3.66,11.7-4.24,2.22-9.48,.58-11.7-3.66-.61-1.16-.93-2.4-.98-3.63,.3-.48,.61-.97,.94-1.47,1.01-1.54,2.13-3.15,3.35-4.75,.64-.84,1.31-1.68,2-2.5,3.87-1.11,8.11,.61,10.05,4.32Z"/>
        <path class="cls-16" d="M135.97,137.56c.4,.76,.1,1.69-.65,2.09-.76,.4-1.69,.1-2.09-.65-.4-.76-.1-1.69,.65-2.09,.76-.4,1.69-.1,2.09,.65Z"/>
        <path class="cls-16" d="M141.93,130.25c.4,.76,.1,1.69-.65,2.09-.76,.4-1.69,.1-2.09-.65-.4-.76-.1-1.69,.65-2.09,.76-.4,1.69-.1,2.09,.65Z"/>
        <path class="cls-36" d="M134.74,138.32c0-.42,.09-.83,.2-1.23,.11-.4,.27-.78,.45-1.16,.36-.75,.83-1.43,1.36-2.06l.41-.46c.14-.15,.29-.29,.44-.43,.3-.29,.62-.54,.95-.79,.33-.25,.68-.46,1.03-.67,.36-.19,.73-.37,1.12-.52-.25,.33-.53,.62-.8,.92-.26,.31-.54,.58-.8,.88-.26,.29-.54,.57-.79,.87-.27,.28-.52,.58-.77,.87-.5,.59-.99,1.19-1.45,1.81-.46,.63-.91,1.26-1.34,1.97Z"/>
        <path class="cls-38" d="M144.33,132.6c.23,.38,.36,.81,.46,1.23,.05,.21,.08,.43,.1,.65,.02,.22,.03,.44,.03,.66,0,.88-.18,1.76-.52,2.58l-.13,.31-.15,.3c-.11,.19-.21,.39-.34,.57-.26,.36-.52,.72-.85,1.02-.62,.63-1.39,1.09-2.23,1.34,.1-.2,.2-.39,.31-.57,.1-.18,.22-.34,.31-.53,.1-.18,.2-.35,.3-.52,.11-.16,.18-.35,.28-.51l.14-.25,.07-.12,.06-.13c.08-.17,.17-.34,.25-.51,.08-.17,.15-.34,.23-.51l.12-.25,.1-.26c.29-.69,.54-1.39,.77-2.13,.24-.74,.44-1.5,.68-2.35Z"/>
        <path class="cls-31" d="M133.54,128.47c-.56,.73-1.02,1.38-1.38,2.07-.36,.69-.64,1.4-.88,2.13-.23,.74-.43,1.51-.6,2.3-.18,.8-.35,1.62-.57,2.5-.24-.4-.39-.83-.5-1.26-.12-.44-.18-.88-.21-1.34-.03-.49-.02-.99,.05-1.48,1.01-1.54,2.13-3.15,3.35-4.75,.24-.09,.49-.16,.75-.19Z"/>
      </g>
      <path class="cls-36" d="M122.83,145.04c1.06-2.95,2.33-5.83,3.77-8.62l1.1-2.09c.39-.69,.77-1.38,1.16-2.06,.81-1.36,1.66-2.69,2.55-4,.22-.33,.45-.65,.68-.98l.68-.98,.68-.99c.23-.33,.47-.65,.71-.97,.48-.64,.99-1.26,1.54-1.84,.14-.15,.27-.29,.42-.44,.14-.14,.28-.29,.41-.41l.24-.23,.22-.2,.44-.4c1.22-1.05,2.53-2.01,3.93-2.83,1.4-.81,2.89-1.49,4.48-1.88l.17,.29c-1.08,1.2-2.15,2.32-3.19,3.44-1.04,1.12-2.05,2.24-3.06,3.36l-.75,.82-.78,.84c-.52,.55-1.05,1.09-1.58,1.63-.54,.53-1.06,1.09-1.58,1.65-.52,.56-1.04,1.12-1.53,1.71-.98,1.18-1.92,2.39-2.84,3.63-.47,.61-.91,1.24-1.36,1.86l-1.31,1.91c-1.77,2.54-3.37,5.2-4.9,7.91l-.31-.13Z"/>
    </g>
    <g>
      <path class="cls-25" d="M280.18,105.74c-4.94-2.96-11.72,1.42-17.17,6.39-11.4,2.69-13.61-6.97-16.91-22.33-3.47-16.13-13.99-23.88-13.99-23.88-12.84-17.43-9.29-35.78-9.3-35.79,3.71-5.21,4.45-12.26,1.32-18.33-4.47-8.65-15.1-12.04-23.75-7.57-8.65,4.47-12.04,15.1-7.57,23.75,2.07,4,5.71,6.95,8.04,10.83,2.36,3.93,4.11,8.24,5.25,12.68,2.52,9.8,6.08,26.58-7.98,29.49-6.98,1.44-13.49-5.85-17.97-10.19-3.84-3.73-7.2-8.23-9.64-13.1-2.45-4.91-3.08-10.51-5.56-15.32-4.47-8.65-15.1-12.04-23.75-7.57-8.65,4.47-12.04,15.1-7.57,23.75,3.14,6.07,9.31,9.55,15.71,9.54,0,0,17.02,7.73,23.79,28.29,0,0,.22,13.07,11.37,25.23,10.61,11.58,17.2,18.97,8.41,26.72-7.21,1.56-14.71,4.56-15.15,10.3-.87,11.2,12.63,24.45,12.63,24.45,.99,.97,9.89-2.71,10.99-3.09,7.32-2.59,14.21-6.26,19.62-11.93,.99-1.03,1.91-2.08,2.82-3.12,.11-.12,12.36-13.05,34.86-18,1.37-.13,2.76-.28,4.17-.49,7.75-1.13,14.73-4.63,21.08-9.1,.95-.67,9.1-5.8,8.88-7.17,0,0-2.99-18.68-12.63-24.45Z"/>
      <path class="cls-10" d="M231.23,95.63c4.84,9.37,1.17,20.9-8.21,25.74-9.37,4.84-20.9,1.17-25.74-8.21-1.03-2-1.68-4.09-1.96-6.2,1.23-1.54,3.05-3.54,5.5-5.63,3.38-2.87,7.96-5.89,13.92-8.06,1.08-.39,2.21-.76,3.39-1.09,.59-.17,1.19-.32,1.81-.47,2.3-.56,4.77-.98,7.42-1.24,1.54,1.44,2.86,3.17,3.88,5.15Z"/>
      <path class="cls-10" d="M156.35,38.41c1.41,1.11,2.61,2.53,3.49,4.23,3.29,6.36,.79,14.18-5.57,17.47-6.28,3.24-13.99,.85-17.34-5.34l19.43-16.36Z"/>
      <path class="cls-10" d="M219.86,11.65c3.29,6.36,.79,14.18-5.57,17.47-6.36,3.29-14.18,.79-17.47-5.57-1.08-2.1-1.54-4.36-1.43-6.55,1.22-1.01,2.45-1.87,3.7-2.6,4.43-2.61,8.92-3.58,12.75-3.8h0c.39-.02,.78-.04,1.16-.05,.42,0,.83,0,1.23,0,2.14,.04,3.98,.29,5.34,.55,.11,.18,.21,.37,.31,.56Z"/>
      <path class="cls-22" d="M155.27,66.51c.36,.08,.71,.19,1.06,.32,.35,.12,.69,.26,1.02,.41,.34,.14,.67,.3,.99,.47,.33,.17,.66,.33,.97,.52l.94,.56c.16,.09,.31,.19,.46,.3l.45,.31c.3,.21,.6,.42,.9,.63,.29,.23,.57,.45,.86,.68,2.27,1.84,4.27,4,5.99,6.35,.42,.59,.82,1.2,1.22,1.81,.19,.31,.4,.61,.59,.92,.18,.32,.36,.63,.53,.95,.35,.64,.69,1.28,1.01,1.93,.3,.66,.58,1.33,.86,2l.4,1.01c.12,.34,.23,.69,.34,1.04,.22,.69,.41,1.39,.6,2.09,.04,.18,.09,.35,.13,.53,.04,.18,.07,.36,.1,.54,.06,.36,.13,.72,.19,1.08,.11,.72,.21,1.44,.26,2.17-.96-1.14-1.71-2.34-2.52-3.49-.41-.58-.81-1.15-1.19-1.73-.19-.29-.37-.58-.57-.87l-.6-.85c-.39-.57-.77-1.14-1.14-1.71-.39-.56-.79-1.11-1.18-1.68-.19-.28-.38-.56-.57-.85l-.6-.82-1.17-1.66c-1.6-2.19-3.24-4.34-4.95-6.48-.22-.27-.43-.54-.64-.81l-.66-.79c-.43-.54-.88-1.07-1.32-1.61-.9-1.07-1.81-2.14-2.77-3.25Z"/>
      <path class="cls-22" d="M176.06,93.4c.16,2.52,.89,4.74,1.82,6.87,.46,1.06,.99,2.12,1.54,3.13,.28,.5,.56,1,.85,1.5,.3,.49,.61,.98,.92,1.46,1.25,1.92,2.63,3.77,4.1,5.56,1.47,1.8,3.01,3.53,4.62,5.22,.4,.43,.81,.85,1.22,1.27l.61,.63,.63,.64c.87,.89,1.74,1.8,2.57,2.76,1.67,1.92,3.24,4.02,4.48,6.37,.15,.3,.31,.59,.45,.89,.14,.31,.28,.6,.41,.92,.26,.62,.51,1.24,.7,1.9,.4,1.29,.66,2.64,.72,3.99,.12,2.71-.61,5.41-2.1,7.45,.13-1.26,.14-2.47,.02-3.62-.13-1.16-.39-2.26-.77-3.3-.76-2.08-1.94-3.95-3.33-5.71-1.4-1.75-2.98-3.4-4.65-5.03-.84-.81-1.69-1.62-2.57-2.43l-.67-.64-.68-.66c-.45-.45-.89-.9-1.33-1.36-1.74-1.84-3.37-3.82-4.81-5.94-1.45-2.11-2.73-4.37-3.73-6.77-.26-.6-.47-1.21-.69-1.82l-.3-.93c-.09-.31-.18-.62-.27-.94-.16-.63-.32-1.25-.44-1.89-.11-.64-.23-1.27-.3-1.92-.14-1.29-.18-2.6-.04-3.9,.13-1.29,.45-2.57,1.01-3.7Z"/>
      <path class="cls-22" d="M199.2,151.59c-.91,.33-1.79,.64-2.66,.95-.87,.31-1.72,.62-2.56,.94-1.67,.63-3.28,1.3-4.73,2.06-1.45,.75-2.73,1.63-3.58,2.56-.42,.47-.73,.94-.94,1.41-.04,.12-.09,.24-.14,.36-.04,.12-.06,.25-.1,.37-.02,.06-.03,.13-.04,.2l-.03,.21c-.03,.13-.03,.28-.05,.43,0,.07-.01,.15-.02,.22,0,.08,0,.15,0,.23,0,.16-.01,.31,.01,.47,.01,.16,.02,.33,.04,.49,.03,.17,.05,.34,.07,.51,.12,.69,.3,1.42,.53,2.17,.24,.74,.52,1.5,.83,2.27,.32,.77,.67,1.54,1.03,2.32,.37,.78,.76,1.56,1.16,2.35l1.24,2.38,1.28,2.44c.43,.82,.86,1.65,1.28,2.53-.88-.4-1.71-.89-2.5-1.42-.8-.52-1.56-1.09-2.3-1.7-1.47-1.21-2.84-2.56-4.07-4.07-.62-.75-1.19-1.55-1.73-2.39-.53-.85-1.02-1.74-1.45-2.69-.42-.96-.77-1.98-1.02-3.07-.24-1.09-.35-2.28-.27-3.51,.03-.31,.05-.61,.11-.93l.09-.47,.05-.23c.02-.08,.04-.16,.07-.23,.1-.31,.19-.63,.3-.93,.13-.3,.26-.6,.4-.9,.6-1.16,1.43-2.15,2.34-2.92,.91-.78,1.89-1.36,2.87-1.83,.98-.46,1.98-.78,2.97-1.02,1.98-.48,3.94-.62,5.87-.55,.96,.04,1.92,.13,2.87,.29,.94,.16,1.88,.36,2.8,.68Z"/>
      <path class="cls-22" d="M254.2,125.74c.17-.74,.42-1.44,.69-2.11,.27-.68,.57-1.33,.9-1.98,.65-1.28,1.39-2.5,2.22-3.66,1.65-2.32,3.6-4.42,5.86-6.24,1.13-.91,2.35-1.74,3.66-2.47,1.32-.72,2.72-1.34,4.26-1.72,.77-.19,1.56-.33,2.38-.37,.82-.04,1.66,0,2.48,.19,.82,.19,1.62,.51,2.28,.99,.67,.47,1.2,1.08,1.52,1.78-.74-.18-1.42-.25-2.05-.21-.63,.04-1.21,.16-1.75,.35-1.09,.37-2.1,.95-3.1,1.59-2,1.31-3.96,2.89-5.98,4.49-2.01,1.61-4.06,3.27-6.24,4.87-1.09,.8-2.21,1.59-3.38,2.35-.59,.38-1.18,.76-1.81,1.12-.62,.36-1.25,.72-1.94,1.05Z"/>
      <path class="cls-22" d="M200.91,32.95c.69,.51,1.31,1.09,1.91,1.69,.6,.6,1.16,1.24,1.7,1.89,1.08,1.31,2.05,2.7,2.93,4.15,1.75,2.9,3.15,6.03,4.15,9.27,1.01,3.24,1.61,6.62,1.8,10.01,.02,.42,.03,.85,.03,1.27v.63c.01,.21,0,.42,0,.64-.01,.42-.02,.85-.04,1.27-.03,.42-.06,.85-.1,1.27-.15,1.68-.44,3.36-.91,4.99-.23-.83-.38-1.65-.57-2.46-.19-.81-.34-1.62-.53-2.42l-.26-1.2c-.1-.4-.18-.79-.27-1.19-.16-.79-.38-1.58-.54-2.36-.76-3.13-1.58-6.2-2.52-9.25-.93-3.04-1.98-6.06-3.12-9.07-1.14-3.02-2.35-6.02-3.66-9.14Z"/>
      <path class="cls-22" d="M222.12,89.11c-2.74,.85-5.42,1.85-7.98,3.01-1.29,.57-2.54,1.19-3.77,1.84-.31,.16-.61,.32-.91,.49-.3,.17-.61,.33-.9,.51-.3,.17-.6,.34-.89,.52l-.87,.54c-1.15,.73-2.19,1.62-3.19,2.49-.49,.45-1,.86-1.5,1.27-.52,.39-1.03,.78-1.58,1.14-1.07,.74-2.15,1.47-3.29,2.24-1.14,.77-2.27,1.6-3.67,2.46l-.5-.26c0-.41,.01-.82,.06-1.23,.03-.41,.12-.8,.21-1.2,.17-.8,.46-1.54,.78-2.29,.68-1.45,1.58-2.8,2.65-3.97,1.07-1.17,2.34-2.12,3.73-2.84,1.4-.7,2.84-1.26,4.23-1.85,2.79-1.17,5.67-2.01,8.58-2.56,2.91-.54,5.82-.89,8.76-.86l.07,.56Z"/>
      <path class="cls-22" d="M142.15,36.16c-1.49,1.84-2.78,3.68-3.84,5.61-1.05,1.92-1.82,3.93-2.22,5.99-.38,2.06-.39,4.19-.03,6.33,.05,.27,.1,.54,.14,.81,.04,.27,.13,.53,.18,.81,.11,.54,.28,1.08,.43,1.62,.04,.14,.07,.28,.12,.41l.14,.4c.09,.27,.18,.54,.26,.82,.09,.28,.2,.54,.29,.82,.09,.28,.19,.56,.28,.84-1.74-1.62-3.07-3.68-3.91-5.99-.82-2.31-1.05-4.91-.57-7.38,.48-2.47,1.6-4.78,3.13-6.67,.76-.95,1.62-1.81,2.56-2.56,.47-.37,.95-.72,1.46-1.04,.51-.31,1.03-.6,1.59-.82Z"/>
      <path class="cls-22" d="M204.08,3.41c-1.83,1.7-3.48,3.43-4.92,5.28-1.43,1.85-2.63,3.81-3.46,5.9-.41,1.05-.74,2.12-.97,3.23-.24,1.1-.34,2.24-.4,3.39,0,.57-.04,1.16,.01,1.74l.04,.88,.08,.89,.04,.45,.06,.45c.04,.3,.08,.6,.12,.9,.01,.15,.04,.3,.07,.45l.08,.45c.04,.31,.1,.61,.13,.93-1.46-2.04-2.4-4.47-2.76-7.04-.04-.32-.06-.65-.09-.97-.01-.16-.02-.33-.03-.49v-.49c0-.33,0-.66,.02-.98l.09-.98c.18-1.3,.5-2.59,.99-3.82,.98-2.45,2.55-4.61,4.43-6.35,.94-.87,1.97-1.63,3.05-2.29,.55-.32,1.1-.62,1.67-.88,.57-.26,1.16-.49,1.77-.66Z"/>
      <path class="cls-8" d="M160.68,36.84s5.7,3.84,7.83,15.67c0,0,11.34,27.42,29.67,28.71,0,0-6.89,2.02-19.44-8.39-12.55-10.42-13.9-32.12-18.07-35.98Z"/>
      <path class="cls-8" d="M222.26,8.87s8.48,10.47-.13,21.57c0,0-1.08,18.73,7.12,31.14,0,0-9.33-5.68-9.71-26.73,.28-9.36,7.06-12.6,2.71-25.98Z"/>
      <path class="cls-8" d="M198.57,181.1s18.74-6.35,23.72-14.55c4.98-8.2,28.45-18.27,36.47-19.6,0,0-19.47-3-35.05,10.94-15.59,13.94-6.84,14.03-25.13,23.22Z"/>
      <path class="cls-8" d="M285.39,110.54c.71,1.37,8.56,13.68,7.43,19.59-.76,3.98-22.57,16.77-32.33,16.7,0,0,38.27-10.42,24.91-36.29Z"/>
      <path class="cls-8" d="M240.53,75.98c.98,1.9,2.07,3.68,2.89,5.68,1.24,2.99,2.28,6.06,3.23,9.15,.85,2.75,1.52,5.56,2.21,8.36,.61,2.47,1.04,5.04,2.12,7.36,.93,2,2.69,3.64,4.54,4.81,1.93,1.23,6.44,1.74,8.57,.34,0,0-11.9,7.68-15.36,0-3.46-7.69-2.98-25.6-8.2-35.7Z"/>
      <path class="cls-22" d="M153.04,38.31c-1.73,.59-3.39,1.35-4.93,2.24-.77,.44-1.51,.92-2.21,1.43-.71,.5-1.38,1.04-2,1.61-.62,.57-1.15,1.24-1.62,1.91-.13,.16-.24,.33-.36,.49-.12,.16-.26,.31-.37,.47-.12,.16-.26,.31-.39,.45-.13,.15-.27,.3-.41,.45l-1.76,1.82c-.64,.62-1.25,1.31-2.09,2.01l-.39-.11c-.29-1.05-.31-2.11-.13-3.14,.07-.52,.23-1.01,.38-1.51,.08-.25,.19-.48,.29-.72l.16-.36,.19-.34c.49-.92,1.19-1.71,2-2.35,.81-.65,1.7-1.16,2.54-1.69,1.69-1.06,3.53-1.81,5.39-2.31,1.87-.49,3.75-.79,5.65-.75l.05,.41Z"/>
      <path class="cls-22" d="M219.15,9.46c-1.79-.39-3.6-.6-5.38-.63-.89-.02-1.77,.01-2.63,.08-.86,.06-1.72,.18-2.54,.35-.83,.17-1.62,.47-2.37,.8-.19,.07-.38,.16-.56,.23-.19,.08-.38,.13-.56,.21-.19,.07-.38,.13-.57,.19-.19,.06-.38,.12-.58,.17l-2.44,.65c-.87,.2-1.75,.47-2.83,.64l-.28-.3c.3-1.05,.83-1.97,1.51-2.75,.33-.41,.72-.75,1.11-1.09,.2-.17,.41-.31,.62-.47l.32-.22,.34-.2c.89-.54,1.9-.85,2.93-.98,1.03-.13,2.05-.11,3.05-.13,2-.04,3.96,.27,5.81,.81,1.85,.55,3.62,1.26,5.23,2.28l-.17,.37Z"/>
      <path class="cls-8" d="M222.31,39.44s-.11-8.14,.59-9.26c0,0,3.37-4.86,3.07-9.41l-1.25,.54-3.34,8.89,.93,9.24Z"/>
      <g>
        <path class="cls-6" d="M155.94,43.9c1.96,4.27,.09,9.32-4.17,11.28-4.08,1.88-8.88,.25-11-3.63-.1-.18-.19-.36-.27-.54-.22-.48-.39-.96-.52-1.45,.23-.32,.47-.64,.72-.96,.41-.53,.84-1.05,1.32-1.58,2.41-2.7,5.67-5.36,10-7.18,.54,.27,1.04,.59,1.51,.96,1.01,.8,1.85,1.84,2.42,3.09Z"/>
        <path class="cls-16" d="M146.89,50.4c.35,.76,.02,1.66-.75,2.01-.76,.35-1.66,.02-2.01-.75-.35-.76-.02-1.66,.75-2.01,.76-.35,1.66-.02,2.01,.75Z"/>
        <path class="cls-16" d="M153.1,43.53c.35,.76,.02,1.66-.75,2.01-.76,.35-1.66,.02-2.01-.75s-.02-1.66,.75-2.01c.76-.35,1.66-.02,2.01,.74Z"/>
        <path class="cls-36" d="M145.65,51.08c.02-.41,.13-.8,.25-1.19,.13-.39,.3-.75,.5-1.11,.39-.71,.89-1.36,1.44-1.95l.43-.43c.15-.14,.3-.27,.45-.4,.3-.27,.63-.5,.97-.72,.33-.23,.69-.41,1.04-.6,.36-.17,.74-.33,1.12-.45-.27,.31-.55,.58-.83,.86-.27,.29-.56,.54-.83,.82-.27,.28-.55,.53-.82,.81-.27,.27-.53,.54-.8,.82-.52,.55-1.03,1.11-1.52,1.7-.48,.59-.96,1.19-1.41,1.86Z"/>
        <path class="cls-34" d="M155.33,45.96c.21,.39,.32,.81,.39,1.23,.03,.21,.05,.42,.07,.64,0,.21,0,.43,0,.64-.04,.86-.26,1.71-.64,2.5l-.14,.29-.17,.28c-.12,.18-.22,.37-.36,.55-.27,.34-.54,.68-.88,.96-.64,.58-1.42,1-2.25,1.21,.11-.2,.22-.38,.33-.55,.11-.17,.24-.33,.33-.5,.11-.17,.21-.33,.32-.49,.12-.15,.19-.33,.3-.49l.15-.24,.08-.12,.07-.12c.09-.17,.18-.32,.27-.48,.09-.16,.17-.33,.25-.49l.13-.24,.11-.25c.32-.66,.6-1.34,.86-2.05,.27-.72,.5-1.45,.79-2.27Z"/>
        <path class="cls-2" d="M142.01,47.02c-.06,.19-.11,.39-.17,.58-.22,.78-.42,1.57-.69,2.43-.21-.4-.34-.83-.43-1.26-.01-.06-.02-.11-.03-.17,.41-.53,.84-1.05,1.32-1.58Z"/>
      </g>
      <g>
        <path class="cls-6" d="M212.32,22.72c-3.86,2.68-9.16,1.72-11.83-2.14-1.3-1.88-1.74-4.09-1.41-6.18,4.43-2.61,8.92-3.58,12.75-3.8h0c.39-.02,.78-.04,1.16-.05,.42,0,.83,0,1.23,0,.09,.11,.17,.23,.25,.35,2.67,3.86,1.71,9.16-2.15,11.83Z"/>
        <path class="cls-16" d="M210.69,16.09c.48,.69,1.42,.86,2.11,.38,.69-.48,.86-1.42,.38-2.11-.48-.69-1.42-.86-2.11-.38-.69,.48-.86,1.42-.38,2.11Z"/>
        <path class="cls-16" d="M201.62,17.94c.48,.69,1.42,.86,2.11,.38s.86-1.42,.38-2.11c-.48-.69-1.42-.86-2.11-.38-.69,.48-.86,1.42-.38,2.11Z"/>
        <path class="cls-36" d="M211.91,15.37c-.36-.2-.76-.3-1.15-.39-.4-.09-.8-.12-1.21-.14-.81-.03-1.62,.07-2.41,.24l-.59,.15c-.19,.05-.38,.12-.57,.19-.38,.13-.75,.29-1.11,.47-.36,.17-.71,.38-1.05,.59-.33,.23-.66,.47-.96,.73,.4-.07,.78-.18,1.16-.28,.38-.09,.75-.21,1.13-.3,.37-.09,.74-.21,1.11-.29,.37-.1,.74-.18,1.11-.27,.74-.17,1.48-.32,2.23-.44,.75-.12,1.51-.22,2.32-.27Z"/>
        <path class="cls-34" d="M202.58,21.1c.23,.37,.53,.68,.86,.96,.16,.14,.34,.26,.52,.38,.18,.11,.36,.23,.56,.33,.76,.4,1.61,.64,2.48,.72l.33,.03h.33c.22,0,.44,0,.65-.03,.43-.06,.86-.12,1.27-.27,.83-.25,1.58-.71,2.18-1.33-.22,0-.43,0-.64,0-.21,0-.4,.04-.6,.03-.2,0-.39,.01-.59,.02-.19,.02-.39,0-.57,0h-.28s-.14,.01-.14,.01h-.14c-.19-.02-.37-.02-.55-.02-.18,0-.37-.02-.55-.03h-.27s-.27-.04-.27-.04c-.73-.06-1.46-.16-2.2-.3-.75-.13-1.51-.3-2.35-.48Z"/>
        <path class="cls-2" d="M213.29,10.96c-.51-.12-.99-.25-1.46-.38,.39-.02,.78-.04,1.16-.04,.11,.13,.21,.27,.3,.42Z"/>
      </g>
      <g>
        <path class="cls-6" d="M222.39,110.39c-4.57,5.09-12.41,5.5-17.49,.93-2.92-2.63-4.3-6.34-4.08-9.98,3.38-2.87,7.96-5.89,13.92-8.06,1.08-.39,2.21-.76,3.39-1.09,.59-.17,1.19-.32,1.81-.47,.53,.35,1.05,.74,1.53,1.18,5.09,4.57,5.5,12.41,.93,17.49Z"/>
        <path class="cls-16" d="M217.85,101.55c.91,.82,2.31,.74,3.12-.17,.82-.91,.74-2.31-.17-3.12-.91-.82-2.31-.74-3.12,.17-.82,.91-.74,2.31,.17,3.12Z"/>
        <path class="cls-16" d="M205.62,107.21c.91,.82,2.31,.74,3.12-.17,.82-.91,.74-2.31-.17-3.12-.91-.82-2.31-.74-3.12,.17-.82,.91-.74,2.31,.17,3.12Z"/>
        <path class="cls-36" d="M219.34,100.11c-.58-.16-1.17-.17-1.77-.16-.59,.01-1.18,.1-1.76,.21-1.16,.24-2.28,.64-3.34,1.16l-.78,.41c-.26,.14-.5,.3-.75,.46-.5,.31-.97,.67-1.42,1.03-.46,.36-.87,.78-1.29,1.19-.4,.43-.77,.88-1.12,1.36,.55-.24,1.05-.51,1.55-.79,.52-.25,1-.55,1.5-.8,.5-.26,.98-.54,1.48-.79,.49-.27,.99-.51,1.48-.76,.99-.48,1.99-.95,3.02-1.37,1.03-.42,2.07-.82,3.2-1.15Z"/>
        <path class="cls-34" d="M208.03,111.36c.45,.46,.99,.79,1.54,1.07,.28,.14,.57,.26,.86,.37,.29,.1,.59,.2,.9,.28,1.21,.31,2.5,.37,3.76,.19l.47-.07,.46-.11c.31-.09,.62-.15,.91-.26,.59-.23,1.18-.46,1.71-.82,1.09-.63,2-1.54,2.65-2.61-.32,.06-.62,.14-.9,.23-.29,.08-.56,.19-.85,.25-.28,.07-.56,.15-.82,.23-.26,.09-.55,.13-.81,.2l-.4,.1-.2,.06-.2,.04c-.27,.05-.53,.11-.79,.17-.26,.06-.53,.09-.79,.14l-.39,.08-.4,.05c-1.05,.16-2.12,.26-3.23,.31-1.11,.06-2.24,.07-3.5,.11Z"/>
        <path class="cls-2" d="M219.82,93.4c-1.31,0-2.5-.06-3.67-.09-.48-.02-.94-.02-1.41-.03,1.08-.39,2.21-.76,3.39-1.09,.04,.02,.08,.04,.12,.07,.56,.32,1.1,.67,1.57,1.14Z"/>
      </g>
      <path class="cls-36" d="M231.26,90.24c-3.69,.58-7.3,1.26-10.8,2.27-3.51,.99-6.9,2.29-10.13,3.91-3.23,1.62-6.3,3.55-9.16,5.8-1.43,1.12-2.81,2.32-4.13,3.59-1.32,1.27-2.6,2.6-3.77,4.05,.37-.86,.83-1.68,1.33-2.48,.49-.8,1.04-1.57,1.61-2.32,1.15-1.5,2.42-2.9,3.8-4.2,2.76-2.6,5.91-4.78,9.31-6.48,3.4-1.7,7.03-2.92,10.74-3.61,3.71-.7,7.5-.9,11.21-.54Z"/>
      <path class="cls-36" d="M135.92,57.3c.15-1.22,.51-2.42,.93-3.58,.43-1.16,.95-2.29,1.55-3.38,.3-.54,.62-1.08,.97-1.6l.53-.78c.19-.25,.38-.5,.57-.74,.75-1,1.58-1.94,2.49-2.81,1.81-1.75,3.9-3.21,6.16-4.29,2.26-1.09,4.69-1.79,7.15-2.05h.14s.04,0,.04,0h0s-.19,0-.19,0c.37-.03,.73-.05,1.09-.07,.36-.01,.73-.03,1.09-.03-.34,.14-.68,.27-1.01,.4-.34,.13-.67,.25-1.01,.37l-.05,.02-.14-.02h0s.19,0,.19,0c-2.25,.88-4.38,1.89-6.37,3.11-1.99,1.22-3.85,2.61-5.55,4.2-.43,.4-.84,.8-1.25,1.22-.41,.42-.79,.86-1.18,1.29-.19,.22-.39,.43-.59,.65l-.56,.67c-.38,.45-.74,.91-1.1,1.38-1.43,1.88-2.73,3.88-3.91,6.03Z"/>
      <path class="cls-36" d="M193.29,18.91c1-1.46,2.22-2.76,3.58-3.91,.68-.57,1.4-1.11,2.15-1.6,.75-.5,1.53-.93,2.34-1.34,1.61-.8,3.32-1.41,5.08-1.83,1.75-.41,3.55-.64,5.34-.67l-.41,.11h0s.24-.12,.24-.12h.17c.45,0,.89,0,1.34,.02,.45,.02,.89,.05,1.33,.08,.89,.08,1.77,.2,2.64,.38,.87,.18,1.73,.39,2.57,.67,.84,.28,1.66,.6,2.44,1.02-.87-.11-1.73-.17-2.59-.22-.86-.05-1.71-.08-2.56-.09-.85-.01-1.69,0-2.53,.04-.42,.02-.84,.05-1.26,.07-.42,.03-.83,.07-1.25,.11l.41-.11h0s-.15,.09-.15,.09l-.26,.03c-1.67,.17-3.32,.43-4.93,.82-1.62,.38-3.21,.88-4.76,1.5-.78,.31-1.54,.64-2.3,1.01-.76,.36-1.51,.75-2.24,1.17-1.48,.83-2.91,1.78-4.36,2.78Z"/>
      <path class="cls-8" d="M202.9,146.86c-1.8,.41-3.58,.76-5.36,1.12-1.78,.36-3.55,.72-5.31,1.11-1.76,.39-3.51,.81-5.23,1.32-.86,.25-1.72,.53-2.56,.84-.85,.31-1.68,.66-2.51,1.07,.66-.65,1.43-1.19,2.22-1.67,.8-.48,1.64-.89,2.49-1.25,1.71-.72,3.5-1.24,5.3-1.64,1.8-.4,3.63-.67,5.46-.83,1.83-.15,3.67-.22,5.52-.06Z"/>
      <path class="cls-8" d="M256.66,119.21c.94-1.59,2.06-3.06,3.25-4.46,1.19-1.4,2.47-2.73,3.84-3.97,1.37-1.24,2.83-2.39,4.41-3.37,.79-.49,1.61-.94,2.46-1.31,.86-.37,1.74-.69,2.65-.84-.81,.44-1.58,.91-2.32,1.43-.74,.51-1.47,1.04-2.17,1.6-1.41,1.11-2.77,2.3-4.11,3.5-1.34,1.21-2.66,2.45-3.98,3.69-1.32,1.24-2.65,2.5-4.02,3.72Z"/>
      <path class="cls-36" d="M216.81,128.67c1.63-.18,3.19-.47,4.72-.88,1.52-.41,2.99-.95,4.38-1.64,.69-.35,1.37-.73,2.02-1.15,.65-.43,1.27-.89,1.88-1.39,1.21-1,2.3-2.16,3.36-3.4-.58,1.54-1.49,2.96-2.63,4.18-.57,.61-1.21,1.16-1.88,1.67-.68,.49-1.4,.93-2.15,1.31-1.51,.74-3.13,1.23-4.78,1.46-.82,.11-1.65,.16-2.48,.14-.83-.03-1.65-.1-2.45-.31Z"/>
    </g>
  </g>
</svg>