<?xml version="1.0" encoding="UTF-8"?>
<svg id="SANA_SANA" data-name="SANA SANA" xmlns="http://www.w3.org/2000/svg" xmlns:xlink="http://www.w3.org/1999/xlink" viewBox="0 0 282.1 160.5">
  <defs>
    <style>
      .cls-1 {
        fill: #fff;
      }

      .cls-2 {
        fill: #e65d0d;
      }

      .cls-3 {
        fill: #50a233;
      }

      .cls-4 {
        fill: #3677bb;
      }

      .cls-5 {
        fill: #f4e73f;
      }

      .cls-6 {
        fill: #f29a90;
      }

      .cls-7 {
        fill: #553114;
      }

      .cls-8 {
        fill: #773e12;
      }

      .cls-9 {
        fill: #6ec8ea;
      }

      .cls-10 {
        fill: #f9e112;
      }

      .cls-11 {
        fill: #d06714;
      }

      .cls-12 {
        fill: #dfac0d;
      }

      .cls-13 {
        fill: #fcc406;
      }

      .cls-14 {
        fill: #edebeb;
      }

      .cls-15 {
        fill: #db0743;
      }

      .cls-16 {
        fill: #8fbe23;
      }

      .cls-17 {
        fill: #178036;
      }

      .cls-18 {
        fill: #553115;
      }

      .cls-19 {
        fill: #e7e8e8;
      }

      .cls-20 {
        fill: #68b66b;
      }

      .cls-21 {
        fill: #48b0e4;
      }

      .cls-22 {
        clip-path: url(#clippath);
      }

      .cls-23 {
        fill: #ca8b0d;
      }

      .cls-24 {
        fill: #c01718;
      }

      .cls-25 {
        fill: none;
      }

      .cls-26 {
        fill: #c0d129;
      }

      .cls-27 {
        fill: #3ea937;
      }

      .cls-28 {
        fill: #f9b634;
      }

      .cls-29 {
        fill: #fded5f;
      }

      .cls-30 {
        fill: #f19809;
      }

      .cls-31 {
        fill: #f29b91;
      }

      .cls-32 {
        fill: #ef8124;
      }

      .cls-33 {
        fill: #773e13;
      }

      .cls-34 {
        fill: #e7e9e9;
      }

      .cls-35 {
        fill: #e62380;
      }
    </style>
    <clipPath id="clippath">
      <path class="cls-25" d="M268.97,157.01c-8.84,2.18-18.8,3.18-29.88,2.95-49.33-1.01-95.73-14.95-140.86-32.95C64.42,113.54,31.09,98.94-.01,80.16L23.52,22.25l14.01-6.47L50.46,1.77l37.72,3.23,22.63,2.16,7.54,18.32,14.01-14.01L142.06,.7l17.24,6.47,8.62-4.31h8.62l9.7,8.62,15.09,15.09,16.16,25.86,22.63-1.08,17.24,20.47,14.01,18.32,9.7,18.32-2.16,31.25-9.95,17.3Z"/>
    </clipPath>
  </defs>
  <g class="cls-22">
    <g>
      <path class="cls-16" d="M181.35,122.5c1.27,4.49,3.94,6.89,6.69,8.15-.18,5.28-1.51,10.59-2.19,15.87-.5,.16-1,.35-1.52,.57-.71,.31-1.41,.68-2.06,1.12-2.82-2.05-11.38-7.95-18.16-9.22,0,0-14.41-37.34-26.04-55.41-2.71-4.83,16.79-11.97,38.78-12.55-.02-.23-.02-.45-.01-.66,.31,.1,.61,.19,.92,.27,.27,1.76,1.18,3.39,2.07,4.94,.68,1.17,1.34,2.32,1.79,3.6,0,.01,0,.02,0,.03,.05,.16,.1,.32,.15,.48,.11,.38,.23,.76,.34,1.14,.2,.69,.41,1.37,.63,2.05-.39-.54-.77-1.08-1.13-1.61,2.7,9.75,5.07,25.27-.28,41.24Z"/>
      <g>
        <path class="cls-16" d="M266.56,229.89c-1.97-21.39,2.49-61.17,2.49-61.17-6.6-5.18-12.37-17.64-12.37-17.64-.07-.11-.14-.23-.21-.34,4.57-6.22,8.2-13.64,10.44-21.92,7.77-28.7-4.09-56.89-26.5-62.95-22.4-6.06-46.86,12.29-54.63,41-2.27,8.4-2.86,16.74-2,24.51-.14,.1-.77,.52-1.73,1.14,.19,.74,.3,1.47,.28,2.15-.07,2.64,.05,5.26,.4,7.86,.08,.39,.17,.78,.26,1.17,.03,.05,.06,.09,.09,.14,1.68,1.83,3.5,3.5,5.02,5.51,.07,.09,.13,.18,.2,.27,.2-.07,.41-.14,.61-.2,2.73,5.56,6.41,10.33,10.9,13.97,0,5.28-1.51,13-8.38,20.8-4.73,5.37-9.2,10.33-12.48,14.66,.2-.61,.4-1.24,.6-1.89-.86,1.34-1.82,2.66-2.88,4.02-.93,1.2-1.91,2.37-2.87,3.55-.32,1.41-.56,2.83-.79,4.26,.22,.02,.44,.04,.67,.06-.25,2.07,.47,3.73,2.47,4.92,6.05,3.59,17.87,6.7,22.27,7.78,4.35,1.29,16.12,4.56,23.15,4.51,2.34-.02,3.81-1.1,4.63-3.04,19.83,9.71,40.55,12.41,40.38,6.86Zm-39.83-17.48c-.61-5.51-2.03-12.29-3.46-19.59-2.02-10.28,.63-17.75,3.31-22.3,5.67-.92,11.23-3.21,16.35-6.65,2.38,2.42,4.32,6.12,3.21,11.5-12.37,11.93-17.39,27.14-19.42,37.03Z"/>
        <path class="cls-19" d="M247.63,108.21c-1.08,4.01-3.35,7.38-6.32,9.85-1,.84-2.09,1.57-3.23,2.19l-4.2-.49c-1.43-.17-2.89-.3-4.35-.28-1.46,.02-2.93,.1-4.39,.25-1.47,.14-2.93,.34-4.39,.59-.24,.04-.47,.08-.71,.13-.58-.29-1.13-.61-1.67-.95-6.95-4.45-10.53-13.05-8.26-21.43,2.8-10.36,13.47-16.48,23.83-13.68,10.36,2.8,16.48,13.47,13.68,23.83Z"/>
        <circle class="cls-2" cx="232.29" cy="98.12" r="13.23" transform="translate(68.01 289.42) rotate(-72.24)"/>
        <path class="cls-6" d="M213.11,137.19s16.77,7.93,33.29-9.18c0,0-11.44,30.62-33.29,9.18Z"/>
        <path class="cls-33" d="M231.64,68.72l1.43,8.15s-30.44,5.83-32.03,11.7c0,0,1.28-4.75,11.58-8.75,10.3-4,18.21-1.86,19.01-11.1Z"/>
        <path class="cls-26" d="M181.37,141.99c-.32-.7-.73-1.31-1.16-1.9-.44-.58-.91-1.12-1.42-1.64-1.01-1.02-2.13-1.92-3.34-2.68-1.22-.76-2.51-1.41-3.93-1.83-.35-.11-.71-.2-1.07-.27-.36-.08-.72-.15-1.1-.18-.38-.03-.74-.07-1.12-.05-.38,.02-.76,.06-1.13,.13,1.21,.94,2.28,1.73,3.39,2.52,1.1,.77,2.2,1.54,3.35,2.25,1.15,.71,2.31,1.4,3.55,2.03,1.24,.62,2.52,1.2,3.99,1.61Z"/>
        <path class="cls-26" d="M139.32,81.64c2.63,3.94,5.21,7.84,7.68,11.8,2.48,3.95,4.84,7.96,7.04,12.03,.54,1.02,1.09,2.04,1.6,3.08,.54,1.02,1.02,2.07,1.54,3.11,1,2.09,1.92,4.21,2.8,6.35,.86,2.15,1.65,4.33,2.37,6.54,.7,2.22,1.3,4.48,1.86,6.78,.1-2.37-.08-4.76-.41-7.12-.37-2.36-.9-4.69-1.57-6.99-.36-1.14-.7-2.29-1.13-3.4-.39-1.13-.85-2.23-1.3-3.34-.23-.55-.48-1.09-.72-1.64-.24-.55-.49-1.09-.75-1.62-.51-1.08-1.07-2.13-1.62-3.19-2.27-4.19-4.87-8.19-7.76-11.96-1.45-1.88-2.97-3.7-4.56-5.46-.8-.87-1.62-1.74-2.46-2.57-.84-.83-1.71-1.65-2.61-2.41Z"/>
        <path class="cls-3" d="M264.05,86.95s17.6,33.99-11.65,69.48c0,0,19.32-34.18,11.65-69.48Z"/>
        <path class="cls-3" d="M269.04,169.79s-11.48-15.35-12.38-19.42c0,0-1.55,2.79-3.76,5.59,0,0,14.03,11.8,13.48,16.5s-13.76,41.87-9.98,49.44c3.77,7.57-14.28,7.05-22.64,4.79,0,0,27.33,11.03,32.82,3.3,0,0-1-39.32,2.47-60.2Z"/>
        <path class="cls-3" d="M189.87,130.69s-6.64-1.91-7.99-8.69c.74-2.67,6.7-14.98,.74-40.28l-4.95-11.26s-18.12,.93-25.65,3.76c0,0,21.2-1.12,22.85,7.63,1.65,8.74,1.02,37.87,3.99,42.73,2.97,4.87,7.17,5.99,11.03,6.12Z"/>
        <path class="cls-1" d="M220.66,115.24c-.88-.36-1.67-.83-2.45-1.38-.77-.54-1.49-1.17-2.17-1.86-.67-.69-1.29-1.46-1.84-2.28-.54-.83-1-1.72-1.37-2.66-.37-.93-.79-1.89-1.05-2.89-.15-.5-.2-1.01-.24-1.53,0-.26,0-.51,.03-.77,.02-.26,.05-.51,.11-.76,.06-.25,.11-.5,.18-.75,.07-.25,.16-.49,.25-.72,.17-.48,.42-.93,.69-1.37,.13-.22,.28-.43,.44-.64,.16-.21,.33-.41,.5-.6,.18-.19,.38-.38,.59-.55,.21-.18,.43-.34,.68-.5l.49,.16c.24,.54,.38,1.02,.52,1.49,.07,.23,.14,.46,.19,.69,.03,.11,.05,.22,.08,.33,.02,.11,.06,.22,.08,.33,.11,.43,.17,.84,.26,1.24,.04,.2,.06,.4,.1,.59,.04,.19,.07,.39,.09,.58,.12,.76,.11,1.49,.03,2.24-.05,.38-.08,.76-.11,1.15,0,.38-.01,.78,.05,1.16,.21,1.53,.66,3.07,1.35,4.58,.34,.76,.75,1.5,1.22,2.22,.23,.36,.48,.71,.74,1.06,.26,.35,.54,.69,.83,1.01l-.28,.43Z"/>
        <path class="cls-32" d="M229.61,107.44c-1.47-.35-2.84-.98-4.16-1.8-.65-.42-1.28-.89-1.88-1.43-.59-.54-1.13-1.16-1.61-1.84-.48-.68-1-1.38-1.39-2.18-.39-.79-.59-1.69-.51-2.57,.07-.88,.3-1.75,.73-2.51,.41-.77,1-1.44,1.82-1.94l.42,.14c.22,.44,.35,.82,.5,1.19,.15,.37,.25,.71,.38,1.03,.21,.65,.43,1.22,.59,1.75,.05,.13,.08,.27,.11,.4,.04,.13,.07,.26,.09,.4,.01,.13,.04,.27,.05,.4,.01,.14,.01,.28,.03,.42,.02,.57,.08,1.18,.29,1.74,.42,1.13,1.07,2.26,1.87,3.34,.8,1.09,1.78,2.11,2.86,3.04l-.19,.4Z"/>
        <path class="cls-26" d="M242.62,84.46c-.83-.38-1.69-.7-2.55-1-.86-.3-1.74-.56-2.62-.8-1.76-.46-3.55-.8-5.34-.97-1.79-.18-3.58-.2-5.34-.01-1.76,.17-3.48,.53-5.11,1.13-1.63,.6-3.13,1.47-4.49,2.5-1.38,1-2.62,2.18-3.85,3.38l-.91,.93c-.3,.32-.57,.66-.86,.99-.6,.64-1.11,1.37-1.68,2.07-.29,.34-.53,.72-.8,1.09-.26,.37-.54,.73-.81,1.1-.52,.75-1.03,1.52-1.61,2.27l-.28-.11c.08-.47,.18-.93,.29-1.39,.11-.46,.22-.93,.35-1.38,.15-.45,.31-.9,.47-1.34,.17-.45,.32-.9,.54-1.33,.42-.86,.81-1.74,1.35-2.55l.39-.62c.13-.2,.25-.42,.4-.61l.9-1.16c1.25-1.5,2.73-2.87,4.45-3.86,1.71-1.01,3.54-1.76,5.42-2.31,1.88-.53,3.82-.79,5.74-.83,1.92-.03,3.82,.17,5.68,.53,1.85,.37,3.66,.9,5.41,1.57,1.74,.68,3.43,1.46,5.02,2.44l-.15,.27Z"/>
        <path class="cls-3" d="M187.44,146.01c.99,1.76,1.99,3.45,3.04,5.09,1.05,1.64,2.14,3.23,3.31,4.76,.14,.19,.28,.39,.43,.58l.46,.56c.3,.37,.59,.76,.9,1.13,.31,.37,.63,.73,.94,1.1l.23,.28c.08,.09,.17,.18,.25,.27l.49,.54c.33,.35,.63,.74,.98,1.08,.34,.35,.68,.7,1.02,1.07,.33,.38,.69,.71,1.04,1.06,.35,.35,.7,.72,1.04,1.1-1.87-.77-3.64-1.81-5.21-3.11-.81-.62-1.53-1.34-2.26-2.06-.19-.17-.35-.37-.52-.56l-.5-.58-.5-.58c-.16-.2-.31-.4-.46-.61-1.24-1.62-2.28-3.39-3.09-5.26-.8-1.86-1.43-3.83-1.58-5.86Z"/>
        <path class="cls-3" d="M246.98,121.47l-.14,.27c-.78-.11-1.49-.32-2.24-.44-.37-.07-.72-.15-1.09-.22-.37-.06-.73-.13-1.08-.19-1.44-.24-2.85-.47-4.28-.62h-.07s-4.2-.5-4.2-.5c-1.43-.17-2.89-.3-4.35-.28-1.46,.02-2.93,.1-4.39,.25-1.47,.14-2.93,.34-4.39,.59-.24,.04-.47,.08-.71,.13-2.68,.49-5.35,1.16-7.95,2.04l-.12-.28c2.05-1.08,4.2-1.96,6.41-2.71,.67-.23,1.35-.45,2.03-.65,1.46-.43,2.94-.8,4.44-1.12,1.5-.29,3.02-.52,4.55-.67,1.53-.16,3.08-.28,4.64-.3,1.56-.03,3.13,.15,4.65,.51,.89,.21,1.77,.48,2.63,.8,2.09,.78,4.04,1.89,5.67,3.4Z"/>
        <path class="cls-33" d="M212.88,137.48s.04,0,.06,0c.03,0,.04,.01,.05,.02l.07,.03,.13,.05,.27,.1c.18,.06,.36,.12,.54,.18,.36,.12,.73,.22,1.1,.32,.74,.19,1.48,.34,2.23,.48,1.5,.25,3.01,.4,4.53,.41,3.03,.05,6.06-.39,8.96-1.25,.37-.09,.72-.23,1.08-.34l.54-.18,.53-.2c.35-.14,.71-.26,1.06-.4l1.04-.45c.35-.14,.69-.32,1.03-.49,.34-.17,.69-.33,1.02-.52,.66-.37,1.33-.73,1.97-1.15,2.58-1.63,4.92-3.62,7.01-5.85l.47-.5-.24,.64c-.64,1.71-1.43,3.35-2.3,4.95-.87,1.6-1.88,3.13-3,4.58-1.13,1.44-2.39,2.79-3.82,3.96-1.42,1.17-3.02,2.16-4.77,2.8-1.74,.66-3.64,.91-5.49,.78-1.86-.13-3.66-.66-5.34-1.4-1.69-.74-3.23-1.75-4.68-2.85-.36-.27-.71-.57-1.07-.85l-1.02-.9-.99-.94c-.35-.34-.65-.71-.96-1.01Zm.06,.04l2.05,1.73,1.07,.84c.36,.27,.72,.54,1.09,.8,1.48,1.03,3.04,1.94,4.69,2.63,1.65,.68,3.39,1.14,5.16,1.22,1.76,.11,3.53-.17,5.19-.78,1.66-.61,3.2-1.53,4.59-2.64,1.39-1.11,2.64-2.41,3.77-3.8,1.14-1.39,2.15-2.88,3.08-4.43,.92-1.55,1.76-3.16,2.45-4.82l.23,.14c-2.16,2.18-4.51,4.17-7.04,5.9-.62,.45-1.29,.84-1.94,1.24-.32,.21-.67,.38-1.01,.57-.34,.18-.67,.38-1.02,.54-1.37,.7-2.81,1.27-4.29,1.74-1.47,.47-3,.78-4.53,.98-1.53,.2-3.08,.26-4.62,.21-1.54-.07-3.08-.26-4.58-.59-.75-.17-1.49-.37-2.23-.61-.37-.12-.73-.25-1.09-.39-.18-.07-.36-.14-.53-.22l-.26-.12-.13-.06-.06-.03s-.02,0-.02-.01c0,0,0-.02,0-.03Z"/>
        <g>
          <circle class="cls-30" cx="235.15" cy="95.03" r="8.81" transform="translate(-18.39 101.71) rotate(-23.51)"/>
          <path class="cls-18" d="M232.53,97.11c-.04,.87-.78,1.54-1.64,1.5s-1.54-.78-1.5-1.64c.04-.87,.78-1.54,1.64-1.5s1.54,.78,1.5,1.64Z"/>
          <path class="cls-18" d="M241.51,93.74c-.04,.87-.78,1.54-1.64,1.5-.87-.04-1.54-.78-1.5-1.64,.04-.87,.78-1.54,1.64-1.5s1.54,.78,1.5,1.64Z"/>
          <path class="cls-33" d="M231.06,97.15c.21-.37,.5-.68,.8-.98,.3-.29,.64-.55,.99-.79,.7-.47,1.46-.83,2.25-1.11l.6-.19c.2-.06,.41-.1,.61-.15,.41-.1,.82-.16,1.23-.21,.41-.05,.83-.05,1.25-.06,.42,.01,.83,.05,1.25,.12-.39,.16-.79,.28-1.17,.39-.39,.14-.77,.23-1.15,.36-.38,.13-.76,.23-1.14,.36-.38,.11-.75,.25-1.12,.37-.74,.26-1.48,.54-2.2,.85-.73,.31-1.45,.64-2.18,1.04Z"/>
          <path class="cls-11" d="M242.41,97.04c0,.45-.09,.89-.22,1.32-.07,.21-.15,.42-.24,.62-.1,.2-.2,.4-.31,.59-.45,.77-1.06,1.45-1.78,2l-.27,.2-.29,.18c-.2,.11-.38,.24-.59,.33-.41,.18-.82,.37-1.27,.46-.86,.23-1.78,.25-2.65,.04,.19-.13,.38-.24,.57-.35,.19-.11,.37-.19,.55-.3,.18-.11,.35-.21,.53-.3,.18-.08,.34-.21,.51-.31l.25-.15,.13-.07,.12-.08c.16-.11,.32-.21,.48-.32,.16-.1,.31-.22,.46-.33l.23-.16,.22-.18c.6-.45,1.19-.95,1.77-1.48,.59-.53,1.15-1.1,1.8-1.71Z"/>
          <path class="cls-28" d="M227.42,94.04c0-.47,.09-.92,.2-1.37,.12-.44,.29-.87,.5-1.28,.41-.82,.97-1.58,1.67-2.22,.7-.63,1.55-1.14,2.48-1.4,.92-.26,1.92-.25,2.79,.1-.87,.36-1.6,.69-2.27,1.12-.67,.41-1.27,.9-1.86,1.42-.58,.53-1.15,1.1-1.71,1.72-.57,.61-1.13,1.25-1.79,1.91Z"/>
        </g>
        <path class="cls-26" d="M201.23,81.59c-.44,1.49-.88,2.95-1.33,4.4l-1.32,4.34c-.44,1.44-.87,2.88-1.29,4.31l-1.24,4.29c-1.61,5.71-3.05,11.39-4.09,17.11-1.03,5.71-1.66,11.44-1.54,17.18,.06,2.87,.31,5.75,.81,8.63,.25,1.44,.57,2.88,.94,4.33,.39,1.44,.84,2.89,1.32,4.37-1.1-1.09-2.08-2.31-2.98-3.6-.89-1.3-1.65-2.68-2.34-4.11-.68-1.43-1.25-2.92-1.73-4.44-.49-1.52-.86-3.07-1.15-4.64-.16-.78-.26-1.57-.37-2.36-.09-.79-.18-1.58-.24-2.37-.12-1.59-.17-3.18-.13-4.76,.06-3.17,.41-6.31,.96-9.4,.57-3.09,1.34-6.12,2.31-9.08,.96-2.96,2.11-5.85,3.42-8.65,.66-1.4,1.35-2.78,2.09-4.14,.74-1.36,1.52-2.69,2.34-3.99,.83-1.3,1.69-2.58,2.61-3.82,.92-1.24,1.88-2.45,2.95-3.58Z"/>
      </g>
    </g>
    <g>
      <circle class="cls-13" cx="70.79" cy="54.64" r="47.95" transform="translate(-17.9 66.06) rotate(-45)"/>
      <path class="cls-13" d="M72.25,97.63c.25-11.92-6.62-21.38-19.03-21.6-5.1-.09-10.37,1.11-14.57,4.09-1.95,1.39-2.87,2.75-3.31,4.16-.88,2.84,.2,5.88-1.23,9.69-1.25,3.35-3.55,6.34-6.15,8.78-4.64,4.34-12.73,8.13-16.49,.67-2.9-5.75,2.45-20.06,9.45-20.96,6.06-.77-3.66-11.6-16.86-.05-8.27,7.24-11.78,19.81-12.2,30.41-.83,20.9,15.11,37.56,36.11,37.62,27.34,.08,43.76-28.31,44.27-52.83Z"/>
      <path class="cls-13" d="M69.86,97.62c-.19-11.92,6.74-21.34,19.15-21.49,5.1-.06,10.36,1.16,14.55,4.17,1.94,1.4,2.85,2.77,3.28,4.18,.86,2.84-.23,5.88,1.17,9.7,1.23,3.36,3.52,6.36,6.1,8.81,4.61,4.37,12.69,8.2,16.48,.77,2.93-5.74-2.34-20.08-9.33-21.01-6.06-.81,3.72-11.58,16.86,.05,8.23,7.29,11.67,19.87,12.03,30.48,.71,20.9-15.32,37.48-36.32,37.42-27.34-.08-43.6-28.56-43.98-53.08Z"/>
      <path class="cls-14" d="M65.25,56.07c-.02,5.61-2.62,10.6-6.69,13.85-10.59-5.25-20.56-3.95-25.07-2.91-2.39-3.04-3.81-6.87-3.8-11.04,.03-9.82,8.01-17.76,17.83-17.73,9.82,.03,17.76,8.01,17.73,17.83Z"/>
      <path class="cls-14" d="M112.94,56.2c-.01,4.03-1.36,7.74-3.63,10.72-5.16-.99-14.69-1.66-24.65,3.58-4.43-3.24-7.3-8.49-7.28-14.4,.03-9.82,8.01-17.76,17.83-17.73,9.82,.03,17.76,8.01,17.73,17.83Z"/>
      <ellipse class="cls-14" cx="71.14" cy="23.68" rx="10.93" ry="17.39" transform="translate(47.26 94.76) rotate(-89.84)"/>
      <path class="cls-33" d="M112.45,41.31s-5.51-8.97-21.83-11.39v3.69s7.11-1.82,21.83,7.7Z"/>
      <path class="cls-6" d="M61.77,75.95s8.94,4.77,18.18,.05c0,0-8.2,12.36-18.18-.05Z"/>
      <path class="cls-29" d="M45.87,17.42c-2.43,2.7-4.63,5.49-6.64,8.37-2.01,2.87-3.8,5.84-5.31,8.9-1.5,3.06-2.72,6.21-3.57,9.42-.85,3.21-1.31,6.48-1.38,9.77v1.23c0,.41,.03,.82,.04,1.23,0,.41,.04,.82,.07,1.23,.03,.41,.06,.82,.11,1.23,.16,1.64,.44,3.28,.8,4.9,.16,.82,.39,1.62,.6,2.43l.36,1.21c.06,.2,.11,.4,.18,.61l.2,.6c.14,.4,.26,.8,.4,1.2l.44,1.19c.14,.4,.3,.79,.46,1.19,.16,.39,.31,.79,.49,1.19,1.35,3.15,2.96,6.24,4.73,9.28,.44,.77,.91,1.51,1.36,2.28,.47,.76,.95,1.5,1.41,2.27,.49,.74,.97,1.5,1.46,2.27,.5,.75,1,1.5,1.47,2.29-.74-.53-1.46-1.08-2.18-1.64-.7-.58-1.4-1.17-2.09-1.76-.68-.61-1.34-1.24-2.01-1.87-.64-.65-1.29-1.3-1.92-1.97-2.49-2.7-4.74-5.67-6.66-8.88-.93-1.62-1.84-3.28-2.58-5.02l-.29-.65c-.09-.22-.18-.44-.26-.66-.17-.44-.35-.88-.51-1.33-.31-.9-.63-1.8-.87-2.73-1.07-3.68-1.58-7.55-1.53-11.42,.08-3.87,.75-7.73,1.96-11.37,1.2-3.65,2.93-7.08,5.02-10.2,2.1-3.12,4.55-5.96,7.27-8.45,1.36-1.25,2.79-2.41,4.28-3.48,1.49-1.06,3.04-2.05,4.68-2.84Z"/>
      <path class="cls-29" d="M19.08,80.05c-2.42,1.51-4.62,3.15-6.66,4.91-2.04,1.75-3.87,3.65-5.48,5.66-1.61,2.02-2.98,4.16-4.08,6.41-1.1,2.25-1.94,4.62-2.54,7.06l-.41,1.85-.3,1.88-.08,.47c-.02,.16-.03,.32-.05,.48l-.09,.96-.1,.96c-.02,.16-.03,.32-.03,.48l-.02,.48c-.02,.65-.05,1.29-.09,1.94,0,.65,.02,1.3,.02,1.96v.98c0,.33,.04,.66,.05,.99l.11,1.99c.08,1.33,.26,2.66,.36,4.01,.09,.67,.19,1.34,.28,2.02,.09,.68,.16,1.36,.26,2.04,.11,.68,.23,1.35,.33,2.04,.11,.68,.19,1.38,.31,2.07,.25,1.37,.49,2.76,.65,4.19-.82-1.16-1.58-2.37-2.32-3.6-.7-1.24-1.32-2.52-1.96-3.81-.58-1.31-1.1-2.65-1.61-3.99-.23-.68-.43-1.38-.64-2.07l-.31-1.04c-.05-.17-.11-.35-.15-.52l-.12-.53c-.3-1.42-.67-2.84-.82-4.31-.09-.73-.2-1.46-.26-2.2-.04-.74-.07-1.48-.1-2.22-.05-.74,0-1.49,.02-2.24l.05-1.12c.01-.19,.02-.37,.03-.56l.07-.56,.29-2.24c.15-.74,.31-1.48,.47-2.22,.73-2.95,1.87-5.82,3.43-8.44,1.55-2.62,3.52-4.99,5.76-6.97,2.25-1.98,4.74-3.63,7.4-4.84,1.32-.61,2.69-1.12,4.08-1.52,1.39-.39,2.8-.7,4.24-.78Z"/>
      <path class="cls-29" d="M73.81,105.75c1.06,1.94,2.06,3.8,3.09,5.63,1.02,1.83,2.05,3.61,3.1,5.36,2.1,3.49,4.31,6.82,6.7,10,1.21,1.58,2.45,3.12,3.74,4.64,.67,.73,1.3,1.51,2,2.22,.34,.36,.67,.75,1.02,1.1,.35,.36,.7,.72,1.05,1.08,1.43,1.42,2.88,2.86,4.43,4.24,.39,.35,.76,.72,1.16,1.06,.39,.35,.8,.69,1.19,1.05,.39,.37,.8,.71,1.21,1.06,.41,.36,.82,.72,1.22,1.11-2.19-.27-4.35-.82-6.4-1.63-2.08-.78-4.05-1.82-5.93-3.01-.47-.31-.93-.62-1.39-.94-.23-.15-.45-.33-.67-.5l-.66-.51c-.44-.34-.89-.69-1.3-1.06-.42-.37-.84-.74-1.25-1.12-1.62-1.54-3.12-3.22-4.47-5-2.67-3.58-4.78-7.56-6.17-11.76-.7-2.1-1.2-4.25-1.52-6.43-.15-1.09-.26-2.19-.29-3.29-.04-1.1-.02-2.21,.14-3.31Z"/>
      <path class="cls-29" d="M123.93,80.34c.78-.03,1.54,.07,2.29,.22,.75,.15,1.48,.38,2.2,.65,1.43,.55,2.79,1.32,4.03,2.3,1.24,.97,2.36,2.16,3.28,3.53,.92,1.36,1.62,2.91,2.05,4.54,.43,1.62,.59,3.32,.45,4.96-.02,.2-.02,.41-.05,.61l-.1,.6c-.07,.4-.12,.8-.23,1.19-.1,.39-.21,.77-.32,1.15l-.09,.29-.11,.28c-.07,.18-.15,.37-.22,.55-.57,1.47-1.39,2.78-2.31,3.99-.48,.59-1,1.15-1.53,1.68-.57,.51-1.15,.99-1.79,1.42,.03-.79,.12-1.52,.22-2.23,.03-.37,.07-.72,.11-1.07,.04-.35,.11-.69,.13-1.03,.13-1.37,.29-2.66,.32-3.91,.05-.62,.03-1.23,.04-1.83,0-.15,0-.3-.01-.44-.01-.15-.01-.29-.02-.44v-.44c-.02-.14-.04-.29-.06-.43-.08-1.14-.28-2.23-.56-3.29-.55-2.12-1.5-4.17-2.83-6.28-.66-1.05-1.41-2.11-2.23-3.19-.82-1.09-1.71-2.17-2.67-3.38Z"/>
      <path class="cls-29" d="M37.23,91.69c.26,.63,.41,1.28,.52,1.93,.11,.65,.16,1.29,.18,1.94,.03,1.3-.1,2.59-.39,3.86-.57,2.54-1.78,5.01-3.6,7.09-.9,1.04-2,1.96-3.2,2.7-.3,.18-.6,.37-.93,.52-.32,.16-.64,.31-.96,.45-.33,.12-.67,.24-1,.35-.33,.11-.68,.18-1.02,.26-.17,.04-.34,.08-.51,.11-.17,.03-.35,.05-.52,.07-.35,.03-.69,.08-1.03,.09-.69,0-1.37,0-2.04-.13l-.5-.09c-.16-.03-.33-.05-.49-.11-.32-.1-.64-.18-.96-.3-.31-.09-.62-.25-.92-.39-.3-.15-.59-.31-.88-.49,2.41-1.23,4.36-2.18,5.98-3.38,.1-.07,.2-.15,.3-.22s.2-.14,.29-.22c.19-.15,.38-.3,.57-.45,.36-.32,.73-.61,1.07-.94,.69-.64,1.36-1.3,2-2.03,1.28-1.45,2.5-3.07,3.77-4.85l1.98-2.77c.35-.48,.7-.97,1.07-1.47,.37-.5,.75-1.01,1.18-1.53Z"/>
      <path class="cls-1" d="M47.38,41.14c-1.05,.66-2.02,1.26-2.95,1.88-.93,.62-1.82,1.25-2.65,1.89-1.67,1.29-3.12,2.66-4.35,4.19-.62,.76-1.16,1.58-1.68,2.42-.52,.85-.96,1.76-1.39,2.71-.1,.24-.21,.48-.31,.73-.11,.24-.19,.5-.29,.75-.21,.5-.38,1.02-.57,1.55-.11,.26-.18,.53-.27,.8-.09,.27-.18,.55-.28,.82-.18,.56-.35,1.12-.58,1.71-1.07-2.23-1.38-4.73-1.1-7.25,.3-2.51,1.35-5.02,2.99-7.05,1.64-2.03,3.82-3.58,6.16-4.47,1.17-.45,2.39-.74,3.61-.87,.61-.06,1.23-.09,1.84-.07,.61,.03,1.23,.09,1.83,.25Z"/>
      <path class="cls-1" d="M97.43,41.28c-1.16,.41-2.23,.79-3.25,1.22-1.02,.42-1.99,.86-2.9,1.35-.91,.49-1.76,1.01-2.55,1.58-.79,.57-1.52,1.2-2.19,1.87-1.35,1.35-2.49,2.93-3.52,4.76-.53,.9-1,1.87-1.5,2.88-.13,.25-.23,.51-.36,.77-.13,.26-.24,.52-.38,.78-.24,.53-.49,1.07-.79,1.61-.19-.58-.33-1.18-.44-1.78-.08-.6-.15-1.2-.18-1.81,0-.61-.02-1.23,.06-1.84,.03-.31,.07-.61,.11-.92,.04-.31,.12-.61,.18-.92,.26-1.23,.72-2.43,1.33-3.57,.6-1.15,1.41-2.2,2.33-3.13,.93-.93,2-1.72,3.15-2.33,1.15-.61,2.38-1.03,3.62-1.28,1.24-.25,2.5-.3,3.73-.19,.61,.06,1.22,.16,1.82,.31,.59,.15,1.18,.35,1.73,.64Z"/>
      <path class="cls-1" d="M70.9,14.33c-.9,.63-1.77,1.14-2.62,1.65l-2.5,1.45c-1.61,.94-3.14,1.85-4.41,2.84-.62,.5-1.17,1.01-1.62,1.56-.45,.55-.81,1.12-1.08,1.81-.05,.17-.14,.35-.18,.54-.04,.19-.09,.38-.15,.58-.04,.2-.05,.41-.09,.62-.01,.11-.04,.22-.05,.33,0,.11,0,.22-.01,.34-.01,.23-.04,.46-.03,.7,0,.24,.01,.48,0,.73,0,.25,.02,.5,.03,.76,0,.26,.02,.53,.02,.81-.87-.65-1.62-1.46-2.15-2.47-.29-.49-.47-1.05-.65-1.61-.07-.29-.12-.59-.18-.89-.04-.3-.04-.62-.05-.93,0-1.26,.39-2.56,1.02-3.65,.63-1.1,1.48-2.01,2.39-2.73,.92-.72,1.91-1.27,2.91-1.7,1.01-.43,2.04-.74,3.08-.93,1.04-.2,2.1-.28,3.15-.27,.53,.02,1.05,.05,1.58,.12,.53,.07,1.05,.17,1.58,.35Z"/>
      <path class="cls-29" d="M58.29,72.19c-2.12-.33-4.24-.65-6.35-.9-2.11-.25-4.21-.47-6.28-.61-1.04-.08-2.08-.02-3.1,.03-1.02,.04-2.01,.01-2.99-.1-.98-.11-1.96-.25-2.95-.37-1-.12-1.98-.23-3.17-.24l-.22-.36c.16-.26,.35-.52,.57-.75,.22-.22,.45-.44,.7-.63,.25-.18,.51-.36,.77-.52,.27-.15,.54-.29,.82-.42,1.11-.5,2.28-.77,3.43-.91,1.15-.14,2.3-.08,3.4,.16,1.11,.23,2.18,.54,3.25,.8,2.15,.5,4.23,1.15,6.27,1.9,2.04,.76,4.04,1.57,5.99,2.55l-.13,.4Z"/>
      <path class="cls-29" d="M110.17,69.99c-2.04,.19-4.07,.37-6.09,.62-2.01,.24-4.01,.5-5.97,.81-.98,.15-1.94,.43-2.89,.68-.95,.25-1.88,.42-2.83,.5-.95,.08-1.9,.12-2.85,.17-.97,.05-1.92,.08-3.06,.22l-.27-.32c.11-.28,.25-.55,.41-.81,.17-.24,.35-.49,.55-.71,.2-.21,.41-.43,.63-.62,.22-.19,.45-.38,.69-.54,.95-.67,1.97-1.15,3.01-1.5,1.04-.35,2.12-.52,3.19-.52,1.07,0,2.14,.08,3.18,.09,2.09,.02,4.17,.18,6.22,.44,2.05,.27,4.09,.59,6.11,1.07l-.03,.42Z"/>
      <path class="cls-23" d="M115.1,35.53s12.3,27.43-8.05,51.08c-.99,1.16,.04,5.16,.39,6.35,1.6,5.35,7.01,10.76,11.79,13.57,1.93,1.13,4.24,2.11,6.51,1.55,1.7-.42,5.52-3.27,5.23-5.33,0,0,1.55,11.07-12.4,8.13-13.95-2.94-21.3-13.5-22.35-16.66-.96-2.9,7.76-10.07,9.37-11.93,10.82-12.54,14.38-30.84,9.5-46.76Z"/>
      <path class="cls-23" d="M70.64,108.11s-7.23,42.92-43.85,42.29c0,0-14.49-.83-21.05-7.44,0,0,41.83,18.82,64.9-34.86Z"/>
      <path class="cls-23" d="M150.19,111.5s1.76,30.3-26.45,37.86c0,0-15.82,4.7-28.97-3.77,0,0,44.48,15.67,55.42-34.09Z"/>
      <path class="cls-23" d="M61,71.23c-.66-.16-1.29-.34-1.91-.54-.31-.09-.61-.21-.93-.29l-.93-.26-.92-.27-.93-.24c-.31-.08-.61-.16-.92-.24-.3-.09-.62-.13-.92-.21-2.45-.58-4.9-1.01-7.36-1.29-2.47-.28-4.96-.44-7.48-.44-1.26-.02-2.53,.01-3.81,.06-1.28,.04-2.58,.11-3.91,.21,1.12-.75,2.36-1.28,3.62-1.73,1.26-.44,2.57-.78,3.89-1.01,2.65-.48,5.37-.53,8.05-.23,2.68,.31,5.33,1.01,7.79,2.08,.62,.25,1.22,.57,1.81,.88,.29,.16,.59,.31,.88,.48l.85,.54,.83,.56c.27,.19,.53,.41,.79,.62,.52,.42,1.02,.86,1.51,1.31Z"/>
      <path class="cls-23" d="M83.23,71.29c1.92-1.86,4.22-3.3,6.69-4.37,2.47-1.06,5.12-1.74,7.81-2.03,1.34-.17,2.7-.18,4.04-.16,.34,.01,.67,.04,1.01,.06,.34,.02,.67,.05,1.01,.09l1,.12,.99,.17c1.32,.25,2.62,.58,3.88,1.03,.63,.23,1.25,.48,1.86,.77,.6,.29,1.2,.61,1.75,.99-2.65-.21-5.2-.31-7.72-.31-1.26,0-2.51,.04-3.76,.09-.62,.05-1.25,.05-1.86,.13l-.93,.07c-.31,.03-.62,.07-.93,.1-2.47,.27-4.92,.68-7.37,1.24-.61,.15-1.22,.31-1.84,.45-.61,.16-1.22,.34-1.85,.5-.62,.17-1.23,.37-1.87,.53-.32,.08-.63,.18-.94,.28-.32,.09-.64,.18-.97,.26Z"/>
      <path class="cls-23" d="M53.67,99.51c2.94,.69,5.8,1.2,8.67,1.55,2.86,.36,5.71,.55,8.57,.54,1.43,0,2.85-.04,4.28-.14,1.43-.07,2.85-.25,4.29-.4,2.87-.36,5.73-.91,8.71-1.45-2.47,1.77-5.28,3.01-8.2,3.89-.74,.2-1.47,.41-2.22,.55-.37,.08-.75,.16-1.13,.22-.38,.06-.76,.12-1.14,.17-.19,.03-.38,.06-.57,.08l-.57,.06c-.38,.04-.76,.08-1.15,.11l-1.15,.06c-.38,.02-.77,.01-1.15,.02-3.07,0-6.14-.43-9.07-1.27-1.47-.43-2.9-.96-4.28-1.61-1.37-.66-2.71-1.4-3.89-2.37Z"/>
      <g>
        <path class="cls-27" d="M59.61,51.26c-.15,4.51-3.92,8.05-8.44,7.9-4.51-.15-8.05-3.92-7.9-8.44,.15-4.51,3.92-8.05,8.44-7.9,4.51,.15,8.05,3.92,7.9,8.44Z"/>
        <path class="cls-18" d="M49.04,52.96c-.03,.81-.7,1.44-1.51,1.41-.81-.03-1.44-.7-1.41-1.51,.03-.81,.7-1.44,1.51-1.41,.81,.03,1.44,.7,1.41,1.51Z"/>
        <path class="cls-18" d="M57.32,49.73c-.03,.81-.7,1.44-1.51,1.41s-1.44-.7-1.41-1.51c.03-.81,.7-1.44,1.51-1.41,.81,.03,1.44,.7,1.41,1.51Z"/>
        <path class="cls-33" d="M47.67,53.02c.19-.35,.46-.64,.73-.92,.28-.28,.59-.52,.91-.74,.64-.44,1.35-.79,2.08-1.06l.55-.18c.19-.06,.37-.1,.56-.15,.38-.1,.76-.15,1.14-.21,.38-.05,.77-.06,1.16-.07,.39,0,.77,.04,1.16,.09-.36,.15-.73,.27-1.08,.38-.36,.13-.72,.23-1.07,.35-.35,.12-.71,.22-1.05,.35-.35,.11-.69,.24-1.04,.36-.68,.25-1.36,.51-2.03,.81-.67,.3-1.34,.61-2.01,.99Z"/>
        <path class="cls-17" d="M58.19,52.77c.01,.42-.07,.83-.19,1.22-.06,.2-.14,.39-.22,.58-.09,.19-.18,.37-.28,.55-.41,.72-.97,1.36-1.63,1.87l-.25,.19-.26,.17c-.18,.1-.35,.23-.54,.31-.38,.17-.76,.35-1.17,.44-.8,.23-1.65,.25-2.45,.07,.18-.12,.35-.23,.52-.33,.17-.1,.34-.18,.5-.29,.16-.1,.32-.2,.49-.29,.16-.08,.31-.2,.47-.29l.23-.14,.12-.07,.11-.08c.14-.11,.29-.2,.44-.3,.15-.1,.28-.21,.43-.31l.22-.15,.2-.17c.56-.43,1.09-.89,1.62-1.4,.54-.5,1.06-1.03,1.65-1.61Z"/>
        <path class="cls-20" d="M44.26,50.18c-.01-.44,.07-.86,.17-1.27,.11-.41,.26-.81,.44-1.19,.37-.77,.88-1.48,1.52-2.08,.64-.6,1.42-1.08,2.28-1.33,.85-.25,1.78-.26,2.59,.06-.8,.34-1.48,.66-2.1,1.06-.62,.39-1.17,.85-1.71,1.34-.53,.5-1.05,1.04-1.57,1.61-.52,.57-1.04,1.17-1.63,1.79Z"/>
      </g>
      <g>
        <circle class="cls-27" cx="91.45" cy="50.81" r="8.17" transform="translate(20.43 127.63) rotate(-76.3)"/>
        <path class="cls-18" d="M88.36,51.11c-.47,.66-1.38,.81-2.04,.34-.66-.47-.81-1.38-.34-2.04s1.38-.81,2.04-.34,.81,1.38,.34,2.04Z"/>
        <path class="cls-18" d="M97.05,53.03c-.47,.66-1.38,.81-2.04,.34-.66-.47-.81-1.38-.34-2.04s1.38-.81,2.04-.34c.66,.47,.81,1.38,.34,2.04Z"/>
        <path class="cls-33" d="M87.2,50.4c.35-.18,.73-.28,1.12-.36,.38-.08,.78-.11,1.17-.12,.78-.01,1.56,.09,2.32,.27l.56,.15c.19,.05,.37,.12,.55,.19,.37,.13,.72,.29,1.06,.46,.35,.17,.67,.38,1,.58,.32,.22,.62,.46,.91,.72-.39-.07-.75-.18-1.11-.29-.37-.09-.72-.21-1.08-.31-.36-.09-.71-.21-1.07-.3-.35-.1-.71-.19-1.06-.28-.71-.17-1.42-.33-2.14-.46-.72-.12-1.45-.23-2.22-.29Z"/>
        <path class="cls-17" d="M96.08,56.04c-.22,.36-.52,.65-.84,.91-.16,.13-.33,.25-.5,.36-.18,.11-.35,.21-.54,.31-.74,.37-1.56,.6-2.39,.65l-.31,.02h-.31c-.21-.02-.42-.01-.63-.04-.41-.07-.83-.13-1.22-.28-.79-.25-1.51-.71-2.08-1.31,.21,0,.42,0,.61,.02,.2,.01,.38,.04,.58,.04,.19,0,.38,.02,.56,.03,.18,.02,.37,0,.55,.02h.27s.13,.02,.13,.02h.13c.18-.01,.36,0,.53,0,.18,0,.35-.02,.53-.02h.26s.26-.03,.26-.03c.7-.05,1.4-.14,2.12-.26,.73-.12,1.45-.27,2.27-.42Z"/>
        <path class="cls-20" d="M85.94,46.14c.23-.37,.53-.68,.85-.96,.32-.28,.67-.53,1.03-.75,.73-.43,1.55-.74,2.42-.88,.86-.14,1.78-.11,2.63,.16,.85,.27,1.62,.77,2.12,1.49-.85-.16-1.6-.28-2.33-.28-.73-.02-1.45,.05-2.17,.17-.72,.12-1.45,.28-2.2,.47-.75,.19-1.51,.4-2.35,.58Z"/>
      </g>
      <g>
        <path class="cls-27" d="M78.52,28.21c-.34,3.41-3.92,5.85-7.99,5.44-4.07-.41-7.09-3.5-6.75-6.92,.34-3.41,3.92-5.85,7.99-5.44,4.07,.41,7.09,3.5,6.75,6.92Z"/>
        <path class="cls-18" d="M68.89,28.81c-.06,.61-.7,1.04-1.43,.97-.73-.07-1.27-.63-1.21-1.24,.06-.61,.7-1.04,1.43-.97,.73,.07,1.27,.63,1.21,1.24Z"/>
        <path class="cls-18" d="M76.52,26.89c-.06,.61-.7,1.04-1.43,.97-.73-.07-1.27-.63-1.21-1.24,.06-.61,.7-1.04,1.43-.97,.73,.07,1.27,.63,1.21,1.24Z"/>
        <path class="cls-33" d="M67.65,28.76c.19-.25,.44-.45,.7-.65,.26-.19,.55-.35,.85-.5,.6-.3,1.25-.51,1.93-.67l.51-.1c.17-.03,.34-.05,.52-.08,.34-.05,.69-.07,1.04-.08,.35-.01,.7,0,1.05,.02,.35,.03,.7,.08,1.04,.15-.34,.09-.67,.15-1,.22-.33,.08-.66,.12-.98,.19-.32,.07-.65,.12-.97,.19-.32,.06-.64,.13-.95,.2-.63,.15-1.26,.3-1.87,.48-.62,.18-1.24,.38-1.86,.62Z"/>
        <path class="cls-17" d="M77.17,29.26c0,.32-.11,.63-.23,.92-.06,.15-.14,.29-.22,.43-.09,.14-.18,.27-.28,.4-.4,.52-.93,.97-1.56,1.32l-.23,.13-.25,.11c-.17,.07-.33,.15-.51,.2-.35,.11-.7,.22-1.08,.26-.73,.12-1.5,.08-2.22-.11,.16-.08,.33-.15,.49-.21,.16-.07,.32-.11,.47-.19,.15-.07,.3-.13,.45-.19,.15-.05,.29-.13,.43-.19l.21-.09,.11-.04,.1-.05c.14-.07,.28-.13,.41-.2,.14-.06,.27-.14,.4-.21l.2-.1,.19-.11c.52-.29,1.03-.61,1.53-.95,.51-.34,1-.71,1.57-1.11Z"/>
        <path class="cls-20" d="M64.7,26.38c.01-.33,.1-.65,.21-.95,.12-.3,.27-.6,.46-.88,.37-.56,.87-1.06,1.47-1.48,.61-.41,1.33-.72,2.12-.86,.78-.13,1.62-.08,2.33,.21-.74,.21-1.37,.4-1.94,.67-.58,.26-1.1,.57-1.61,.91-.5,.34-1,.72-1.49,1.12-.5,.4-.99,.82-1.56,1.25Z"/>
      </g>
      <path class="cls-33" d="M60.91,75.85s.03-.01,.06-.01c.02,0,.04,.01,.04,.01l.03,.02,.07,.03,.13,.06,.27,.12c.18,.08,.36,.15,.54,.22,.36,.14,.73,.27,1.11,.39,.74,.24,1.5,.44,2.26,.6,1.53,.32,3.08,.48,4.63,.48,.78,0,1.55-.05,2.32-.14,.77-.1,1.53-.23,2.28-.41,1.5-.36,2.94-.93,4.3-1.64l1.39-.73-.88,1.3c-.54,.8-1.15,1.5-1.81,2.18-.66,.67-1.38,1.29-2.17,1.83-.78,.54-1.64,1-2.56,1.31-.92,.32-1.9,.48-2.88,.46-.98-.02-1.95-.21-2.85-.57-.23-.07-.44-.19-.66-.29-.22-.1-.44-.2-.64-.33l-.62-.36c-.2-.13-.39-.27-.58-.41l-.29-.21c-.09-.07-.18-.15-.27-.23l-.54-.46c-.35-.32-.66-.66-.99-.99-.3-.36-.6-.7-.9-1.07-.15-.2-.3-.42-.44-.63-.13-.21-.25-.39-.37-.56Zm.08,.07c.17,.18,.35,.35,.52,.49,.17,.14,.31,.28,.46,.42l1,.91c.35,.28,.7,.58,1.06,.85l.55,.39c.09,.06,.18,.13,.27,.19l.29,.17c1.51,.94,3.2,1.55,4.92,1.52,.85,0,1.7-.15,2.53-.41,.82-.26,1.61-.65,2.36-1.12,.75-.47,1.45-1.02,2.09-1.63,.64-.61,1.26-1.29,1.76-1.99l.51,.57c-1.44,.7-2.96,1.23-4.52,1.56-.78,.17-1.57,.28-2.36,.35-.79,.06-1.59,.09-2.38,.06-1.59-.06-3.16-.29-4.69-.68-.77-.19-1.52-.43-2.26-.7-.37-.13-.74-.28-1.1-.44-.18-.08-.36-.16-.54-.24l-.27-.13-.13-.07-.07-.03-.03-.02s0,0,0,0c.01,0,.02-.02,.02-.03Z"/>
      <path class="cls-33" d="M29.6,41.02s5.56-8.94,21.9-11.27v3.69s-7.12-1.86-21.9,7.58Z"/>
    </g>
    <g>
      <path class="cls-12" d="M198.4,108.26s3.74,6.76,5.66,9.45c2.67,3.74,4.95,14.01-2.59,16.35-9.16,2.83-16.22,1.19-16.22,1.19,0,0,13.79-3.28,13.74-8.79s-2.49-15.54-.58-18.2Z"/>
      <g>
        <path class="cls-10" d="M203.05,117.72c-4.57-5.16-8.81-19.45-8.81-19.45-.14-.02-.27-.03-.41-.04,1.26-6.16,1.58-11.71,.46-15.73h0s15.91-48.63-16.68-70.72c0,0-11.77,17.8-8.83,53.1-4.12-1.13-7.94-1.88-10.77-2.35v-.17s-.89-.1-2.44-.2c-1.54-.21-2.44-.3-2.44-.3l-.02,.17c-2.87-.12-6.77-.16-11.03,.12,10.03-33.97,2.1-53.79,2.1-53.79-36.39,15.03-30.66,65.88-30.66,65.88h0c-1.91,3.71-2.72,9.21-2.74,15.5-.14-.01-.27-.03-.41-.04,0,0-7.05,13.14-12.57,17.26-5.52,4.12-7.78,14.29-1.77,17.35,6.01,3.06,19.63,8.09,20.36,.64,2.85,9.44,6.31,16.54,9.18,17.47,5.7,1.85,15.79,2.4,21.52,2.57,5.65,1,15.64,2.49,21.59,1.84,3-.33,7.82-6.58,12.53-15.25-.8,7.44,13.56,5.28,20.06,3.5,6.5-1.78,6.34-12.19,1.77-17.35Z"/>
        <path class="cls-34" d="M146.76,90.63c-.46,4.54-3.46,8.22-7.44,9.77-4.55-2.94-10.37-4.18-14.21-4.7-1.35-2.14-2.02-4.74-1.74-7.46,.66-6.46,6.44-11.16,12.9-10.5,6.46,.66,11.16,6.44,10.5,12.9Z"/>
        <path class="cls-8" d="M141.58,69.56l-.23,2.22s-17.55,.24-23.38,7.39c0,0,7.55-12.07,23.61-9.61Z"/>
        <path class="cls-8" d="M169.92,72.46l-.23,2.22s17.14,3.79,21.4,11.97c0,0-4.95-13.35-21.17-14.19Z"/>
        <path class="cls-34" d="M183.88,94.43c-.28,2.72-1.46,5.12-3.22,6.95-3.86-.27-9.83-.24-14.9,1.71-3.57-2.33-5.74-6.52-5.28-11.06,.66-6.46,6.44-11.16,12.9-10.5,6.46,.66,11.16,6.44,10.5,12.9Z"/>
        <path class="cls-31" d="M154.48,130.17c2.87,.14,5.9-.3,8.98-1.55,.15-.06,.3-.13,.45-.19,.1-.04,.19-.08,.29-.13,12.82-5.8,9.81-20.65,9.64-21.42,0-.02,0-.03,0-.03-4.35,3.74-8.55,6.37-12.48,8.2-.53,.25-1.05,.48-1.57,.7-13.51,5.69-23.44,1.93-24.6,1.45h0c-.07-.03-.11-.05-.11-.05,.47,1.99,2.18,4.53,4.77,6.84"/>
        <path class="cls-34" d="M163.38,114.05s3.73,4.75-.09,10.27c0,0,13.21-4.09,8.08-15.45,0,0-5.77,4.1-7.98,5.18Z"/>
        <path class="cls-34" d="M145.74,118.86s-.69,4.41,1.25,5.43c1.93,1.01-6.81,4.81-11.91-7.13,0,0,5.75,2.22,10.66,1.7Z"/>
        <path class="cls-15" d="M155.24,125.33c-2.42-1.34-4.39-1.33-5.59-1.11-1.73-1.49-4.76-3.3-8-1.51-3.86,2.14-4.66,5.81-4.82,7.34,0,.04-.01,.07-.01,.11-.02,.15-.02,.31-.03,.46,0,.09,0,.14,0,.14,0,3.44,3.1,6.45,7.21,6.87,4.11,.42,7.75-1.9,8.45-5.26h.03s.51-2.97,4.1-2.2c0,0,2.71-2.59-1.34-4.84Z"/>
        <path class="cls-5" d="M115.89,75.65c.52,5.5,.92,10.94,1.39,16.36,.46,5.42,.96,10.83,1.6,16.2,.08,.67,.15,1.34,.24,2.01l.27,2.01c.08,.67,.19,1.34,.28,2.01l.14,1,.16,1c.1,.67,.19,1.34,.31,2,.12,.66,.23,1.33,.34,2,.11,.67,.25,1.32,.37,1.99,.06,.33,.12,.67,.18,1l.2,.99,.2,.99,.1,.5,.11,.49c.15,.66,.3,1.31,.44,1.98,.33,1.3,.64,2.62,1.02,3.92,.73,2.61,1.58,5.18,2.6,7.76-.42-.55-.81-1.12-1.22-1.68-.21-.28-.38-.58-.56-.87l-.55-.89c-.38-.59-.68-1.21-1.02-1.82l-.49-.93-.44-.94-.44-.95-.22-.48-.2-.48-.78-1.94c-.47-1.31-.95-2.62-1.34-3.95-.82-2.66-1.49-5.36-2.03-8.08-.07-.34-.14-.68-.21-1.02l-.18-1.02c-.12-.68-.25-1.36-.35-2.05l-.3-2.06c-.1-.69-.18-1.37-.26-2.06-.65-5.49-.91-11.02-.84-16.53,.04-2.76,.17-5.51,.4-8.26,.24-2.75,.55-5.49,1.07-8.2Z"/>
        <path class="cls-5" d="M108.92,95.93c-.14,.77-.34,1.52-.56,2.26-.22,.74-.46,1.48-.73,2.2-.53,1.45-1.14,2.87-1.84,4.26-.7,1.39-1.48,2.74-2.39,4.05-.46,.66-.94,1.3-1.49,1.92-.55,.62-1.15,1.23-1.88,1.79-.19,.14-.36,.28-.58,.41-.21,.13-.41,.26-.67,.38l-.5,.24c-.1,.03-.17,.1-.26,.14-.33,.21-.61,.55-.85,.98-.24,.44-.38,1-.47,1.59l-.03,.22v.23c-.03,.15-.03,.31-.03,.47,0,.31,.01,.63,.05,.95,.14,1.29,.55,2.59,1.24,3.76,.35,.59,.78,1.14,1.3,1.63,.52,.49,1.13,.91,1.84,1.26-1.57,.11-3.24-.59-4.5-1.72-1.27-1.14-2.19-2.65-2.69-4.33-.12-.42-.22-.85-.29-1.29-.03-.22-.06-.44-.08-.67l-.02-.34c0-.11,0-.23,0-.34,0-.92,.13-1.87,.51-2.82,.37-.94,1.02-1.88,1.93-2.54,.23-.16,.46-.32,.71-.44l.37-.18s.1-.05,.15-.08c.1-.04,.21-.12,.32-.19,.11-.06,.23-.16,.34-.24,.47-.36,.95-.82,1.43-1.31,.48-.49,.93-1.04,1.4-1.58,.46-.55,.9-1.13,1.36-1.7l.67-.88c.23-.29,.45-.59,.67-.89,1.8-2.38,3.56-4.83,5.56-7.22Z"/>
        <path class="cls-5" d="M143.11,10.77c-2.15,1.81-4.09,3.79-5.94,5.83-1.84,2.05-3.56,4.18-5.16,6.4-3.2,4.42-5.9,9.16-8.13,14.1-.15,.31-.28,.62-.41,.93l-.4,.94-.4,.94-.36,.95c-.24,.63-.5,1.26-.74,1.9-.22,.64-.44,1.29-.67,1.93-.24,.64-.43,1.29-.63,1.94-.1,.33-.2,.65-.31,.98-.1,.33-.22,.65-.3,.98l-.55,1.98c-.09,.33-.2,.66-.27,.99l-.24,1c-.16,.67-.33,1.33-.5,2-.14,.67-.28,1.34-.43,2.02-.15,.67-.3,1.35-.42,2.03l-.38,2.04c-.15,.68-.24,1.36-.35,2.05-.11,.69-.22,1.37-.34,2.06-.07,.34-.1,.69-.15,1.03l-.15,1.04c-.11,.69-.21,1.39-.33,2.08-.16-1.39-.31-2.8-.39-4.21-.03-.7-.04-1.41-.07-2.11-.02-.71-.04-1.41,0-2.12,.05-1.41,.06-2.83,.21-4.24,.06-.71,.13-1.41,.19-2.12,.09-.7,.19-1.41,.29-2.11,.18-1.41,.49-2.8,.76-4.2,.14-.7,.33-1.39,.5-2.08,.18-.69,.34-1.39,.56-2.07,.78-2.75,1.81-5.42,2.95-8.04,2.35-5.22,5.45-10.11,9.22-14.4,1.89-2.14,3.95-4.12,6.16-5.91,1.11-.88,2.25-1.73,3.45-2.49,1.19-.77,2.42-1.47,3.71-2.04Z"/>
        <path class="cls-5" d="M178.25,13.95c-.51,4.39-1.21,8.68-1.89,12.96-.69,4.28-1.39,8.53-1.99,12.78-.59,4.25-1.13,8.49-1.31,12.73-.08,2.12-.08,4.23,.15,6.32,.24,2.09,.7,4.16,1.88,6.04-.89-.66-1.63-1.55-2.22-2.53-.6-.98-1.05-2.04-1.41-3.11-.72-2.17-1.07-4.41-1.27-6.65l-.06-.84-.05-.84c-.02-.56-.04-1.12-.04-1.68-.02-1.12,.02-2.23,.07-3.34,.05-1.11,.15-2.22,.25-3.32,.11-1.1,.25-2.2,.4-3.3,.63-4.38,1.59-8.68,2.82-12.9,.62-2.11,1.3-4.2,2.07-6.26,.39-1.03,.79-2.05,1.22-3.07,.43-1.01,.89-2.02,1.39-3.01Z"/>
        <path class="cls-1" d="M127.67,92.8c-.42-.92-.69-1.89-.91-2.9-.1-.5-.18-1.01-.23-1.53-.04-.52-.05-1.04-.03-1.58,.03-.53,.03-1.08,.13-1.64,.09-.56,.29-1.11,.64-1.58,.34-.48,.78-.9,1.29-1.2,.52-.3,1.09-.48,1.7-.45l.13,.21c-.22,.55-.41,.99-.56,1.41-.15,.42-.28,.81-.41,1.19-.13,.38-.28,.75-.47,1.13-.2,.38-.39,.79-.5,1.22-.12,.43-.21,.89-.28,1.35-.08,.46-.14,.93-.17,1.41-.09,.95-.1,1.93-.07,2.91l-.24,.06Z"/>
        <path class="cls-1" d="M166.94,100.15c-.74-.19-1.43-.52-2.1-.91-.66-.4-1.28-.9-1.82-1.49-.14-.15-.29-.28-.42-.44-.14-.15-.29-.3-.42-.45-.25-.32-.46-.69-.54-1.1-.04-.2-.08-.41-.09-.62,0-.21,0-.42,.03-.63,.02-.21,.08-.42,.16-.64,.09-.21,.17-.42,.32-.63l.24-.04c.22,.15,.37,.29,.53,.43,.15,.14,.27,.28,.41,.41,.13,.13,.24,.26,.34,.4,.05,.07,.1,.13,.16,.19,.05,.06,.1,.13,.15,.19,.17,.27,.32,.53,.39,.85,.1,.3,.16,.64,.32,.92,.3,.58,.64,1.16,1.05,1.72,.4,.56,.88,1.1,1.39,1.6l-.11,.22Z"/>
        <path class="cls-5" d="M139.48,103.48c-1.39-.45-2.78-.88-4.17-1.27-1.39-.39-2.77-.75-4.15-1.06-.69-.16-1.39-.22-2.08-.29-.69-.07-1.34-.18-1.98-.36-.64-.17-1.27-.36-1.9-.53-.65-.17-1.28-.34-2.09-.42l-.14-.27c.12-.18,.26-.35,.42-.5,.16-.14,.33-.29,.51-.41,.18-.11,.38-.23,.57-.31,.1-.04,.2-.08,.3-.12,.1-.04,.2-.09,.3-.11,.81-.27,1.64-.35,2.44-.34,.8,.02,1.57,.17,2.29,.45,.72,.28,1.41,.61,2.11,.89,.69,.29,1.37,.6,2.04,.93,.67,.33,1.32,.69,1.96,1.05,1.28,.74,2.53,1.52,3.72,2.4l-.14,.27Z"/>
        <path class="cls-5" d="M182.32,103.8c-1.38,.19-2.75,.35-4.11,.56-1.36,.2-2.71,.4-4.04,.62-.67,.11-1.32,.3-1.96,.48-.64,.18-1.28,.29-1.91,.33-.64,.04-1.27,.06-1.89,.08-.31,.01-.62,.02-.93,.05-.16,.01-.3,.04-.47,.07-.16,.04-.31,.08-.49,.17l-.27-.14c-.02-.22,.04-.45,.12-.66,.08-.21,.2-.41,.33-.59,.26-.36,.58-.65,.9-.9,.66-.49,1.36-.83,2.07-1.07,.71-.24,1.44-.35,2.16-.34,.73,0,1.44,.07,2.15,.08,1.42,.02,2.82,.12,4.21,.28,1.39,.17,2.77,.37,4.15,.66v.3Z"/>
        <path class="cls-12" d="M146.7,19.49s2.03,19.98-4.29,41.96l-10.3,3.02s13.28-2.31,14.59-44.98Z"/>
        <path class="cls-12" d="M193.1,30.15s10.33,16.55,1.15,52.5c0,0,2.26,4.82-.72,17.05-.49-8.71,.41-15.44-6.31-22.05-1.85-1.82,14.97-18.85,5.88-47.5Z"/>
        <path class="cls-12" d="M186.3,118.52s-6.92,22.83-17.17,28.41c0,0-10.54,.45-20.82-1.72,2.9,.35,8.94-1.43,11.68-2.22,7.91-2.28,13.35-5.51,18.19-12.12,2.91-3.97,5.61-8.12,8.12-12.35Z"/>
        <path class="cls-12" d="M113.66,113.33l2.68,11.69s.08,7.14-13.08,2.33c0,0,12.25-.17,10.4-14.02Z"/>
        <path class="cls-1" d="M166.6,120.57c-.11-.63-.21-1.24-.34-1.84-.13-.59-.27-1.17-.42-1.71-.08-.27-.23-.52-.36-.76-.13-.24-.2-.47-.2-.72,0-.25,.03-.51,.07-.8,.05-.3,.11-.63,.17-1.1l.19-.19c.49-.04,.92,.14,1.26,.37,.35,.24,.62,.55,.81,.88,.19,.33,.28,.7,.26,1.06-.02,.37-.08,.72-.11,1.06-.05,.68-.17,1.33-.36,1.96-.19,.63-.41,1.24-.72,1.82l-.26-.05Z"/>
        <path class="cls-1" d="M137.9,119.48c.5-.08,.89-.02,1.25,.08,.35,.11,.66,.28,.92,.49,.27,.21,.5,.47,.68,.79,.18,.33,.32,.69,.35,1.2-.51,.08-.89,.02-1.25-.08-.35-.11-.66-.28-.92-.49-.27-.22-.5-.48-.68-.8-.18-.33-.32-.69-.35-1.2Z"/>
        <path class="cls-12" d="M110.76,87.89c.64,3.42,1.18,6.84,1.7,10.26l1.52,10.23c.12,.85,.26,1.7,.39,2.55,.13,.85,.25,1.7,.39,2.55,.14,.85,.28,1.7,.4,2.55,.15,.85,.29,1.69,.43,2.54,.59,3.39,1.22,6.77,1.99,10.17-.19-.39-.37-.79-.55-1.18l-.53-1.2c-.19-.4-.32-.81-.48-1.22l-.45-1.23-.22-.62c-.08-.21-.14-.41-.21-.62l-.38-1.25c-.25-.84-.51-1.67-.71-2.52-.22-.84-.43-1.69-.63-2.54-.19-.85-.36-1.7-.54-2.55-.19-.85-.32-1.71-.48-2.57-.15-.86-.29-1.71-.42-2.58-.52-3.44-.87-6.9-1.1-10.36-.21-3.47-.31-6.94-.12-10.43Z"/>
        <path class="cls-12" d="M194.03,96.41c-.51,3.45-1.32,6.83-2.22,10.19-.92,3.35-1.97,6.67-3.18,9.93-.29,.82-.61,1.63-.93,2.44-.33,.81-.63,1.62-.99,2.42-.35,.8-.69,1.6-1.05,2.39-.37,.79-.75,1.57-1.13,2.36-.37,.79-.79,1.55-1.21,2.32l-.63,1.15c-.1,.19-.21,.38-.33,.57l-.34,.56-.69,1.11c-.24,.37-.45,.74-.72,1.09l-.76,1.06c-.26,.35-.52,.7-.78,1.05,1.44-3.17,2.74-6.35,4-9.55,.31-.8,.62-1.6,.94-2.4,.3-.81,.61-1.61,.91-2.42,.31-.8,.6-1.61,.9-2.42,.3-.81,.61-1.61,.9-2.42l3.56-9.71c1.2-3.24,2.41-6.48,3.74-9.7Z"/>
        <path class="cls-12" d="M132.11,64.47c.85-.37,1.72-.69,2.61-.97,.88-.29,1.77-.54,2.67-.77,1.8-.46,3.62-.81,5.45-1.08,3.67-.54,7.41-.71,11.14-.49,.93,.08,1.87,.14,2.8,.26,.93,.11,1.86,.26,2.78,.42,1.84,.35,3.67,.82,5.45,1.42,1.78,.62,3.5,1.38,5.15,2.29,1.63,.94,3.16,2.02,4.52,3.29-1.72-.71-3.4-1.37-5.12-1.92-1.72-.53-3.45-.98-5.19-1.35-1.75-.35-3.5-.65-5.26-.87-.89-.09-1.76-.22-2.65-.28-.88-.1-1.78-.15-2.66-.21-3.56-.21-7.15-.26-10.75-.17-3.61,.07-7.23,.26-10.93,.45Z"/>
        <path class="cls-8" d="M154.62,130.09c2.95-.02,5.86-.62,8.54-1.73,2.67-1.12,5.13-2.77,6.93-5.01,1.81-2.22,3.03-4.92,3.62-7.77,.6-2.85,.64-5.86,.07-8.72l.25,.09c-1.33,1.14-2.69,2.25-4.09,3.32-1.41,1.06-2.85,2.06-4.35,2.99-1.5,.93-3.06,1.77-4.67,2.5-.4,.18-.8,.37-1.21,.54-.2,.09-.41,.17-.62,.25l-.62,.23c-.83,.31-1.65,.65-2.51,.88-3.38,1.07-6.92,1.67-10.48,1.69-3.56-.03-7.12-.51-10.45-1.91l.48-.4,.02,.09-.3-.26h0s.25,.03,.25,.03l.05,.23c.15,.64,.4,1.27,.7,1.87,.3,.61,.66,1.19,1.05,1.76,.39,.57,.81,1.11,1.26,1.63,.45,.52,.93,1.03,1.42,1.52l-.07,.08c-1.08-.88-2.08-1.87-2.97-2.96-.44-.55-.84-1.13-1.2-1.75-.36-.62-.65-1.27-.86-1.98l.3,.26h0s-.23-.02-.23-.02l-.07-.24-.02-.09-.18-.65,.65,.25c.38,.15,.8,.28,1.21,.4,.21,.06,.41,.12,.62,.17l.63,.15c.42,.11,.84,.17,1.27,.26,.42,.08,.85,.13,1.28,.2,1.71,.24,3.44,.31,5.16,.3l1.29-.06,.65-.03,.64-.07,1.29-.13c.43-.05,.85-.13,1.28-.19l.64-.1c.21-.04,.43-.06,.64-.11l1.27-.27c.85-.16,1.68-.42,2.51-.65,3.32-.98,6.51-2.37,9.56-4.06,3.05-1.68,5.94-3.67,8.6-5.94l.2-.17,.05,.26c.29,1.47,.41,2.95,.46,4.43,.01,.74,0,1.49-.04,2.23-.05,.74-.11,1.49-.23,2.23-.23,1.48-.59,2.95-1.17,4.34-.15,.35-.29,.7-.47,1.03l-.26,.51c-.09,.17-.19,.33-.28,.49-.1,.16-.19,.33-.29,.49l-.32,.47c-.11,.15-.21,.32-.33,.46l-.36,.45c-.96,1.18-2.11,2.2-3.35,3.05-.16,.11-.31,.22-.47,.32l-.49,.29-.49,.28c-.16,.1-.34,.17-.5,.26-.34,.16-.67,.34-1.02,.49-.35,.15-.7,.29-1.05,.42-2.81,1.04-5.85,1.47-8.8,1.17v-.1Z"/>
        <path class="cls-24" d="M149.94,124.28c-.98,.49-1.87,.92-2.67,1.42-.81,.49-1.51,1.02-2.11,1.64-.59,.62-1.08,1.32-1.48,2.15-.4,.83-.71,1.76-1.08,2.81-.48-1-.61-2.12-.45-3.26,.05-.28,.11-.57,.2-.84,.05-.14,.09-.28,.14-.41l.18-.4c.26-.53,.61-1.02,1.02-1.45,.83-.85,1.89-1.42,2.97-1.7,.54-.14,1.1-.21,1.65-.21,.55,0,1.1,.07,1.62,.26Z"/>
        <path class="cls-35" d="M143.38,123.71c-.77,.63-1.46,1.28-2.08,1.99-.62,.7-1.15,1.46-1.55,2.28-.2,.41-.36,.83-.5,1.26-.13,.44-.22,.88-.29,1.34-.12,.92-.1,1.87-.04,2.86-.47-.88-.73-1.88-.76-2.91,0-.51,.04-1.03,.16-1.54,.12-.51,.29-1,.52-1.47,.46-.93,1.13-1.75,1.91-2.4,.78-.64,1.67-1.16,2.64-1.42Z"/>
        <path class="cls-35" d="M151.66,126.39c-.82,.42-1.57,.86-2.27,1.36-.7,.5-1.34,1.06-1.87,1.69-.27,.32-.51,.66-.72,1.01-.21,.36-.39,.73-.55,1.12-.31,.79-.51,1.64-.67,2.54-.26-.88-.29-1.84-.1-2.77,.1-.47,.26-.92,.47-1.35,.22-.43,.49-.83,.79-1.2,.62-.74,1.4-1.31,2.24-1.72,.84-.4,1.75-.67,2.68-.68Z"/>
        <path class="cls-12" d="M141.33,101.89c-1.65-.85-3.26-1.57-4.91-2.2-.83-.31-1.65-.61-2.49-.88-.83-.28-1.68-.53-2.52-.78-1.69-.49-3.41-.93-5.14-1.37-1.73-.44-3.48-.85-5.27-1.35,.91-.19,1.84-.26,2.76-.29,.92-.03,1.84,0,2.76,.07,1.84,.15,3.67,.47,5.45,.99,1.78,.52,3.52,1.23,5.14,2.17,.4,.24,.8,.48,1.18,.76,.19,.14,.39,.26,.57,.41l.55,.44c.72,.6,1.38,1.27,1.92,2.02Z"/>
        <path class="cls-12" d="M163.46,104.15c.69-.63,1.47-1.15,2.29-1.59,.41-.21,.83-.43,1.26-.61,.43-.19,.87-.35,1.31-.5,1.77-.6,3.62-.94,5.47-1.08,1.85-.15,3.71-.1,5.54,.13,.91,.11,1.82,.28,2.72,.49,.9,.22,1.79,.48,2.64,.85-1.85,.13-3.64,.18-5.43,.26-1.78,.07-3.55,.16-5.31,.3-.88,.07-1.75,.15-2.63,.25-.44,.04-.87,.11-1.31,.16-.22,.02-.43,.07-.65,.1-.22,.03-.44,.06-.65,.1-1.74,.28-3.47,.65-5.25,1.16Z"/>
        <g>
          <path class="cls-15" d="M144.49,92.73c-2.59,3.11-7.21,3.53-10.32,.93-3.11-2.59-3.53-7.21-.93-10.32,2.59-3.11,7.21-3.53,10.32-.93,3.11,2.59,3.53,7.21,.93,10.32Z"/>
          <path class="cls-7" d="M136.08,88.1c-.46,.56-1.29,.63-1.84,.17-.56-.46-.63-1.29-.17-1.84,.46-.56,1.29-.63,1.84-.17s.63,1.29,.17,1.84Z"/>
          <path class="cls-7" d="M143.72,90.38c-.46,.56-1.29,.63-1.84,.17s-.63-1.29-.17-1.84c.46-.56,1.29-.63,1.84-.17,.56,.46,.63,1.29,.17,1.84Z"/>
          <path class="cls-8" d="M135.08,87.39c.32-.14,.67-.2,1.02-.24,.35-.04,.7-.04,1.05-.03,.7,.04,1.39,.18,2.05,.4l.49,.18c.16,.06,.32,.14,.48,.21,.32,.14,.62,.31,.92,.48,.3,.17,.58,.38,.86,.59,.27,.22,.53,.45,.77,.7-.34-.09-.66-.21-.98-.33-.32-.1-.63-.24-.95-.34-.31-.11-.62-.23-.93-.34-.31-.12-.62-.21-.93-.32-.62-.2-1.25-.39-1.88-.55-.64-.16-1.28-.31-1.97-.41Z"/>
          <path class="cls-24" d="M142.65,93.02c-.22,.3-.51,.55-.81,.76-.15,.11-.31,.2-.47,.29-.16,.08-.33,.17-.5,.24-.68,.28-1.43,.43-2.18,.43h-.28s-.28-.03-.28-.03c-.19-.03-.37-.04-.56-.08-.37-.09-.73-.17-1.07-.33-.69-.28-1.3-.73-1.77-1.31,.19,.01,.37,.03,.55,.06,.18,.02,.34,.06,.52,.07,.17,.02,.34,.04,.5,.07,.16,.03,.33,.03,.49,.05l.24,.03,.12,.02h.12c.16,0,.32,.03,.48,.04,.16,.01,.32,0,.47,.01h.24s.24,0,.24,0c.63,0,1.26-.03,1.92-.09,.66-.06,1.32-.15,2.06-.23Z"/>
          <path class="cls-35" d="M134.23,83.5c.23-.32,.52-.57,.82-.8,.3-.23,.63-.43,.97-.6,.68-.34,1.44-.56,2.22-.63,.78-.07,1.6,.02,2.34,.32,.74,.29,1.4,.8,1.8,1.47-.75-.2-1.41-.35-2.07-.4-.65-.06-1.3-.05-1.95,0-.65,.06-1.31,.16-2,.28-.68,.12-1.38,.26-2.14,.36Z"/>
        </g>
        <g>
          <path class="cls-21" d="M176.51,93.06c-1.27,3.84-5.42,5.92-9.26,4.65-3.84-1.27-5.92-5.42-4.65-9.26,1.27-3.84,5.42-5.92,9.26-4.65,3.84,1.27,5.92,5.42,4.65,9.26Z"/>
          <path class="cls-7" d="M166.99,91.83c-.23,.69-.97,1.06-1.65,.83-.69-.23-1.06-.97-.83-1.65,.23-.69,.97-1.06,1.65-.83,.69,.23,1.06,.97,.83,1.65Z"/>
          <path class="cls-7" d="M174.94,91.16c-.23,.69-.97,1.06-1.65,.83-.69-.23-1.06-.97-.83-1.65,.23-.69,.97-1.06,1.65-.83,.69,.23,1.06,.97,.83,1.65Z"/>
          <path class="cls-8" d="M165.8,91.53c.25-.25,.55-.43,.86-.6,.31-.17,.64-.3,.97-.41,.67-.22,1.36-.34,2.06-.38l.52-.02c.17,0,.35,0,.52,.02,.35,.01,.69,.06,1.03,.11,.34,.05,.68,.15,1.01,.23,.33,.11,.66,.23,.97,.37-.35,.04-.69,.04-1.03,.05-.34,.02-.67,.01-1.01,.03-.33,.01-.66,0-.99,.03-.33,0-.66,.03-.98,.04-.65,.04-1.3,.1-1.95,.18-.65,.09-1.3,.18-1.98,.34Z"/>
          <path class="cls-4" d="M174.91,94c-.1,.37-.28,.7-.48,1-.1,.15-.22,.3-.33,.44-.12,.14-.25,.28-.38,.4-.53,.51-1.18,.92-1.87,1.2l-.26,.1-.27,.08c-.18,.04-.36,.1-.55,.13-.37,.05-.74,.11-1.12,.08-.74,0-1.48-.2-2.13-.57,.18-.06,.36-.11,.53-.15,.17-.04,.34-.07,.51-.12,.17-.05,.33-.09,.49-.12,.16-.03,.32-.09,.48-.13l.23-.06,.12-.03,.11-.04c.15-.05,.3-.1,.46-.14,.15-.05,.3-.11,.45-.16l.22-.07,.22-.09c.59-.23,1.17-.49,1.75-.79,.59-.29,1.17-.62,1.83-.97Z"/>
          <path class="cls-9" d="M163.59,88.22c.1-.38,.28-.72,.47-1.05,.2-.33,.43-.63,.69-.91,.51-.57,1.14-1.04,1.84-1.4,.7-.35,1.5-.57,2.3-.56,.8,0,1.6,.23,2.21,.71-.77,.09-1.44,.19-2.07,.38-.63,.18-1.22,.43-1.81,.72-.59,.29-1.17,.63-1.76,.99-.59,.36-1.19,.74-1.86,1.12Z"/>
        </g>
      </g>
    </g>
  </g>
</svg>