<?xml version="1.0" encoding="UTF-8"?>
<svg id="Capa_2" data-name="Capa 2" xmlns="http://www.w3.org/2000/svg" viewBox="0 0 303.78 269.95">
  <defs>
    <style>
      .cls-1 {
        fill: #78afd5;
      }

      .cls-2 {
        fill: #cc5194;
      }

      .cls-3 {
        fill: #fff;
      }

      .cls-4 {
        fill: #f5da53;
      }

      .cls-5 {
        fill: #a5a4ce;
      }

      .cls-6 {
        fill: #626260;
      }

      .cls-7 {
        fill: #6f6f71;
      }

      .cls-8 {
        fill: #dd8f5d;
      }

      .cls-9 {
        fill: #d3db58;
      }

      .cls-10 {
        fill: #4fafa4;
      }

      .cls-11 {
        fill: #d25866;
      }
    </style>
  </defs>
  <g id="SANA_SANA" data-name="SANA SANA">
    <g>
      <path class="cls-6" d="M10.83,252.65c5.12,5.59,18.18,17.3,34.34,17.3h.15c10.32,0,19.24-2.74,26.19-7.97,.16,.2,.31,.4,.48,.59,3.37,3.93,8.36,6.18,13.71,6.18h11.41c6.21,0,12.02-3.02,15.83-7.68,3.81,4.66,9.62,7.68,15.83,7.68h12.92c3.53,0,6.9-.99,9.75-2.78,3.03,1.76,6.68,2.78,10.66,2.78h10.91c4.85,0,9.29-1.81,12.66-4.79,3.77,2.99,8.49,4.79,13.33,4.79h11.62c3.55,0,6.87-.97,9.72-2.66,2.81,1.72,6.11,2.66,9.56,2.66h11.42c6.21,0,12.02-3.02,15.83-7.68,3.81,4.66,9.62,7.68,15.83,7.68h12.92c5.35,0,10.34-2.25,13.71-6.18,3.37-3.93,4.81-9.19,3.96-14.44l-16.24-101h0c-.12-.72-.28-1.43-.47-2.13,4.98-.25,9.58-2.46,12.75-6.15,3.37-3.93,4.81-9.19,3.97-14.44l-20.02-107.16L10.83,252.65Z"/>
      <path class="cls-3" d="M.21,101.39c.06,.33,.52,2.98,1.31,7.6,.34,1.96,2.33,12.07,8.83,19.4l.23,.29,.34,.34c1.04,1.13,2.26,2.29,3.67,3.44-1.37,1.11-2.67,2.31-3.88,3.62-7.1,7.75-10.7,18.17-10.7,30.98,0,7.29,1.28,13.94,3.81,19.77,2.24,5.15,5.11,9.84,8.53,13.96,.19,.23,.38,.46,.57,.68-7.33,1.28-12.92,7.72-12.92,15.44v5.37c0,.28,0,.53,0,.71,.05,3.14,1.46,6.34,3.95,8.5-1.9-1.6-3.27-3.82-3.75-6.39,.06,.33,.51,2.9,1.31,7.59,.34,1.97,2.34,12.12,8.88,19.46,.02,.02,.03,.03,.05,.05l.13,.15c.08,.09,.17,.19,.26,.28,0,0,0,0,0,.01,5.12,5.59,14.59,12.2,30.75,12.2h.15c10.32,0,19.24-2.74,26.19-7.97,.16,.2,.31,.4,.48,.59,3.37,3.93,8.36,6.18,13.71,6.18h11.41c6.21,0,12.02-3.02,15.83-7.68,3.81,4.66,9.62,7.68,15.83,7.68h12.92c3.53,0,6.9-.99,9.75-2.78,3.03,1.76,6.68,2.78,10.66,2.78h10.91c4.85,0,9.29-1.81,12.66-4.79,3.77,2.99,8.49,4.79,13.33,4.79h11.62c3.55,0,6.87-.97,9.72-2.66,2.81,1.72,6.11,2.66,9.56,2.66h11.42c6.21,0,12.02-3.02,15.83-7.68,3.81,4.66,9.62,7.68,15.83,7.68h12.92c5.35,0,10.34-2.25,13.71-6.18,3.37-3.93,4.81-9.19,3.96-14.44l-16.24-101h0c-.12-.72-.28-1.43-.47-2.13,4.98-.25,9.58-2.46,12.75-6.15,3.37-3.93,4.81-9.19,3.97-14.44l-16.24-101c-1.55-9.6-10.36-17.12-20.07-17.12h-19.53c-8.48,0-16.05,6-18.6,14.34-2.08-8.23-9.58-14.34-18.49-14.34h-10.76c-3.98,0-7.68,1.22-10.75,3.31-3.17-2.09-6.82-3.31-10.53-3.31h-18.87l-.82,.12c-8.44,1.26-14.94,8.41-15.77,17-1.55-9.6-10.36-17.13-20.07-17.13h-19.53c-9.4,0-17.68,7.36-19.25,17.13l-.95,5.93c-1.38-3.75-3.47-7.97-6.58-11.49-.04-.04-.07-.09-.11-.13l-.32-.37-.16-.16C67.43,6.54,57.97,0,41.9,0h-.15C28.84,0,18.11,4.27,10.7,12.35,3.6,20.1,0,30.52,0,43.33,0,50.63,1.28,57.28,3.81,63.11c2.24,5.15,5.11,9.84,8.53,13.96,.19,.23,.38,.46,.57,.68C5.59,79.03,0,85.47,0,93.2v5.37l.21,2.82Z"/>
      <g>
        <path class="cls-7" d="M52.65,19.62c0,.78-.63,1.41-1.41,1.41s-1.41-.63-1.41-1.41,.63-1.41,1.41-1.41,1.41,.63,1.41,1.41"/>
        <path class="cls-11" d="M145.07,120.65L128.24,15.96c-.72-4.45-4.96-8.1-9.43-8.1h-20.25c-4,0-7.85,3.65-8.57,8.1l-16.83,104.69c-.72,4.45,2.41,8.1,6.94,8.1h11.83c4.53,0,8.79-3.65,9.46-8.11l.52-3.48c.67-4.46,3.56-8.11,6.42-8.11s5.75,3.65,6.42,8.11l.52,3.48c.67,4.46,4.93,8.11,9.46,8.11h13.39c4.53,0,7.66-3.64,6.94-8.1m-35.95-54.85c-5.18,0-9.38-4.18-9.38-9.33s4.2-9.33,9.38-9.33,9.38,4.18,9.38,9.33-4.2,9.33-9.38,9.33"/>
        <path class="cls-7" d="M109.12,60.27c0,1.05-.85,1.9-1.91,1.9s-1.91-.85-1.91-1.9,.85-1.9,1.91-1.9,1.91,.85,1.91,1.9"/>
        <path class="cls-1" d="M288.98,120.65l-16.83-104.69c-.72-4.45-4.96-8.1-9.43-8.1h-20.25c-4,0-7.85,3.65-8.57,8.1l-16.84,104.69c-.72,4.45,2.41,8.1,6.94,8.1h11.83c4.53,0,8.79-3.65,9.46-8.11l.52-3.48c.67-4.46,3.56-8.11,6.42-8.11s5.75,3.65,6.42,8.11l.52,3.48c.67,4.46,4.93,8.11,9.46,8.11h13.39c4.53,0,7.66-3.64,6.94-8.1m-26.58-54.85c-5.18,0-9.38-4.18-9.38-9.33,0,5.15-4.2,9.33-9.38,9.33s-9.38-4.18-9.38-9.33,4.2-9.33,9.38-9.33,9.38,4.18,9.38,9.33c0-5.15,4.2-9.33,9.38-9.33s9.38,4.18,9.38,9.33-4.2,9.33-9.38,9.33"/>
        <path class="cls-7" d="M241.74,54.58c0,1.05-.85,1.9-1.91,1.9s-1.91-.85-1.91-1.9,.86-1.9,1.91-1.9,1.91,.85,1.91,1.9"/>
        <path class="cls-7" d="M260.5,54.58c0,1.05-.85,1.9-1.91,1.9s-1.91-.85-1.91-1.9,.85-1.9,1.91-1.9,1.91,.85,1.91,1.9"/>
        <path class="cls-7" d="M35.39,21.52c0,1.05-.85,1.9-1.91,1.9s-1.91-.85-1.91-1.9,.85-1.9,1.91-1.9,1.91,.85,1.91,1.9"/>
        <path class="cls-4" d="M205.88,7.87h-11.15c-4.53,0-8.24,3.69-8.24,8.2v8.34c0,4.51-.97,4.64-2.15,.28l-2.42-8.91c-1.18-4.35-5.34-7.92-9.25-7.92h-18.7l.02,.09c-3.74,.56-6.65,3.99-6.65,8.11V122.89c0,3.22,3.71,5.86,8.24,5.86h11.31c4.53,0,8.24-3.69,8.24-8.2v-22.08c0-4.51,.97-4.64,2.15-.28l6.15,22.65c1.18,4.35,5.86,7.92,10.39,7.92h12.04c4.53,0,8.24-3.69,8.24-8.2V16.07c0-4.51-3.71-8.2-8.24-8.2m-39.89,35.52c-5.18,0-9.38-4.18-9.38-9.33s4.2-9.33,9.38-9.33,9.38,4.18,9.38,9.33-4.2,9.33-9.38,9.33m34.75,0c-5.18,0-9.38-4.18-9.38-9.33s4.2-9.33,9.38-9.33,9.38,4.18,9.38,9.33-4.2,9.33-9.38,9.33"/>
        <path class="cls-7" d="M202.65,39.75c0,1.05-.85,1.9-1.91,1.9s-1.91-.85-1.91-1.9,.85-1.9,1.91-1.9,1.91,.85,1.91,1.9"/>
        <path class="cls-7" d="M167.9,39.75c0,1.05-.86,1.9-1.91,1.9s-1.91-.85-1.91-1.9,.86-1.9,1.91-1.9,1.91,.85,1.91,1.9"/>
        <path class="cls-9" d="M41.69,163.14s.02-.01,.04-.03c.02-.02,.45-.16,.89-.27h1.93c.44,.26,.92,.82,1.06,1.24,.14,.43,.26,5.56,.26,8.48s3.71,5.32,8.24,5.32h15.84c2.56,0,4.65-2.15,4.65-4.78v-4.92c0-.08,0-.14,0-.14,0,0-.55-3.65-1.22-8.11,0,0-1.5-10.05-6.72-15.83-.03-.04-.06-.07-.09-.11,0-.01-.02-.02-.03-.03h0s-.04-.05-.08-.09l-.03-.03c-5.41-5.95-13.28-8.97-23.42-8.97-.03,0-.05,0-.08,0-.02,0-.05,0-.08,0-10.19,0-18.15,3.05-23.66,9.06-5.36,5.85-8.08,14.06-8.08,24.39,0,5.99,1.01,11.35,3,15.94,1.89,4.34,4.29,8.28,7.15,11.72,2.68,3.22,5.6,6.23,8.68,8.97,.08,.07,.16,.15,.25,.22,2.64,2.35,5.16,4.74,7.48,7.09,.04,.04,.07,.07,.1,.11,.68,.7,1.31,1.41,1.92,2.13,1.26,1.49,2.37,3.04,3.29,4.62,1.11,1.9,1.65,4.11,1.65,6.76v3.17c-.33,.52-.6,.94-.6,.94,0,0-.02,.01-.04,.03-.02,.02-.45,.16-.9,.27h-1.93c-.44-.26-.92-.82-1.06-1.24-.14-.42-.26-5.56-.26-8.48s-3.71-5.32-8.24-5.32H15.77c-2.56,0-4.65,2.15-4.65,4.78v5.57c0,.43,0,.79,.01,.79,0,0,.63,3.64,1.39,8.08,0,0,1.54,9.03,6.53,14.56,.03,.03,.06,.07,.09,.11,0,.01,.02,.02,.03,.03h0s.04,.05,.08,.09l.03,.03c5.41,5.95,13.28,8.97,23.41,8.97,.03,0,.05,0,.08,0,.03,0,.05,0,.08,0,10.19,0,18.15-3.05,23.66-9.06,5.36-5.85,8.08-14.06,8.08-24.39,0-5.99-1.01-11.35-3-15.94-1.89-4.34-4.29-8.28-7.15-11.72-2.68-3.22-5.6-6.23-8.68-8.97-.08-.07-.16-.15-.25-.22-2.65-2.35-5.16-4.73-7.48-7.09-.04-.03-.06-.07-.1-.11-.68-.7-1.31-1.41-1.92-2.13-1.26-1.49-2.37-3.04-3.29-4.62-1.11-1.9-1.65-4.11-1.65-6.76v-3.17c.33-.52,.6-.94,.6-.94m18.46-8.27c5.18,0,9.38,4.18,9.38,9.33s-4.2,9.33-9.38,9.33-9.38-4.18-9.38-9.33,4.2-9.33,9.38-9.33"/>
        <path class="cls-7" d="M105.15,184.72c0,1.05-.86,1.9-1.91,1.9s-1.91-.85-1.91-1.9,.85-1.9,1.91-1.9,1.91,.85,1.91,1.9"/>
        <path class="cls-8" d="M288.98,248.9l-16.83-104.69c-.72-4.45-4.96-8.1-9.43-8.1h-20.25c-4,0-7.85,3.65-8.57,8.1l-16.83,104.69c-.72,4.45,2.41,8.1,6.94,8.1h11.83c4.53,0,8.79-3.65,9.46-8.11l.52-3.48c.67-4.46,3.56-8.11,6.42-8.11s5.75,3.65,6.42,8.11l.52,3.48c.67,4.46,4.93,8.11,9.46,8.11h13.39c4.53,0,7.66-3.64,6.94-8.1m-35.95-54.85c-5.18,0-9.38-4.18-9.38-9.33s4.2-9.33,9.38-9.33,9.38,4.18,9.38,9.33-4.2,9.33-9.38,9.33"/>
        <path class="cls-7" d="M251.12,180.63c0,1.05-.85,1.9-1.91,1.9s-1.91-.85-1.91-1.9,.86-1.9,1.91-1.9,1.91,.85,1.91,1.9"/>
        <path class="cls-7" d="M62.06,164.2c0,1.05-.86,1.9-1.91,1.9s-1.91-.85-1.91-1.9,.85-1.9,1.91-1.9,1.91,.85,1.91,1.9"/>
        <path class="cls-2" d="M205.88,136.11h-11.15c-4.53,0-8.24,3.69-8.24,8.2v8.34c0,4.51-.97,4.64-2.15,.28l-2.42-8.91c-1.18-4.35-5.34-7.92-9.25-7.92h-18.7l.02,.09c-3.74,.56-6.65,3.99-6.65,8.11v106.82c0,3.22,3.71,5.86,8.24,5.86h11.31c4.53,0,8.24-3.69,8.24-8.2v-22.08c0-4.51,.97-4.64,2.15-.28l6.15,22.65c1.18,4.35,5.86,7.92,10.39,7.92h12.04c4.53,0,8.24-3.69,8.24-8.2v-104.48c0-4.51-3.71-8.2-8.24-8.2m-5.14,63.64c-5.18,0-9.38-4.18-9.38-9.33s4.2-9.33,9.38-9.33,9.38,4.18,9.38,9.33-4.2,9.33-9.38,9.33"/>
        <path class="cls-7" d="M204.56,185.72c0,1.05-.86,1.9-1.91,1.9s-1.91-.85-1.91-1.9,.85-1.9,1.91-1.9,1.91,.85,1.91,1.9"/>
        <path class="cls-5" d="M145.07,248.9l-16.83-104.69c-.72-4.45-4.96-8.1-9.43-8.1h-20.25c-4,0-7.85,3.64-8.57,8.1l-16.83,104.69c-.72,4.45,2.41,8.1,6.94,8.1h11.83c4.53,0,8.79-3.65,9.46-8.11l.52-3.48c.67-4.46,3.56-8.11,6.42-8.11s5.75,3.65,6.42,8.11l.52,3.48c.67,4.46,4.93,8.11,9.46,8.11h13.39c4.53,0,7.66-3.65,6.94-8.1m-26.58-64.18c0,.91-.14,1.79-.38,2.62h-17.99c-.25-.83-.38-1.71-.38-2.62,0-1.58,.4-3.06,1.09-4.37h16.57c.7,1.3,1.09,2.79,1.09,4.37"/>
        <path class="cls-10" d="M41.69,34.89s.02-.01,.04-.03c.02-.02,.45-.15,.89-.27h1.93c.44,.26,.92,.82,1.06,1.24,.14,.43,.26,5.56,.26,8.48s3.71,5.32,8.24,5.32h15.84c2.56,0,4.65-2.15,4.65-4.78v-4.92c0-.08,0-.14,0-.14,0,0-.55-3.65-1.22-8.11,0,0-1.5-10.05-6.72-15.83-.03-.04-.06-.07-.09-.11,0,0-.02-.02-.03-.03h0s-.04-.05-.08-.09l-.03-.03c-5.41-5.95-13.28-8.97-23.41-8.97-.03,0-.05,0-.08,0-.02,0-.05,0-.08,0-10.19,0-18.15,3.05-23.66,9.06-5.36,5.85-8.08,14.06-8.08,24.39,0,5.99,1.01,11.35,3,15.94,1.89,4.34,4.29,8.28,7.15,11.72,2.68,3.22,5.6,6.23,8.68,8.97,.08,.07,.16,.15,.25,.22,2.64,2.35,5.16,4.74,7.48,7.09,.04,.03,.07,.07,.1,.11,.68,.69,1.31,1.41,1.92,2.13,1.26,1.49,2.37,3.04,3.29,4.62,1.11,1.9,1.65,4.11,1.65,6.76v3.17c-.33,.52-.6,.94-.6,.94,0,0-.02,.01-.04,.03-.02,.02-.45,.16-.9,.27h-1.93c-.44-.26-.92-.82-1.06-1.24-.14-.43-.26-5.56-.26-8.48s-3.71-5.32-8.24-5.32H15.77c-2.56,0-4.65,2.15-4.65,4.78v5.57c0,.43,0,.79,.01,.79,0,0,.63,3.64,1.39,8.08,0,0,1.54,9.03,6.53,14.56,.03,.03,.06,.07,.09,.11,0,.01,.02,.02,.03,.03h0s.04,.05,.08,.09l.03,.03c5.41,5.95,13.28,8.97,23.41,8.97,.03,0,.05,0,.08,0s.05,0,.08,0c10.19,0,18.15-3.05,23.66-9.06,5.36-5.85,8.08-14.06,8.08-24.39,0-5.99-1.01-11.35-3-15.94-1.89-4.34-4.29-8.28-7.15-11.72-2.68-3.22-5.6-6.23-8.68-8.97-.08-.07-.16-.15-.25-.22-2.65-2.35-5.16-4.74-7.48-7.09-.04-.03-.06-.07-.1-.11-.68-.7-1.31-1.41-1.92-2.13-1.26-1.49-2.37-3.04-3.29-4.62-1.11-1.9-1.65-4.11-1.65-6.76v-3.17c.33-.52,.6-.94,.6-.94m-4.27-4.91c-1.14-2.6-3.75-4.42-6.78-4.42-1.74,0-3.34,.6-4.61,1.61-1.2-1.57-1.92-3.52-1.92-5.65,0-5.16,4.2-9.33,9.38-9.33s9.38,4.18,9.38,9.33c0-3.82,3.11-6.92,6.96-6.92s6.96,3.1,6.96,6.92c0,1.51-.49,2.9-1.32,4.04-.87-.35-1.81-.55-2.81-.55-2.34,0-4.43,1.08-5.78,2.77-2.36-1.11-4-3.49-4-6.26,0,3.75-2.23,6.98-5.44,8.46"/>
      </g>
    </g>
  </g>
</svg>