<?xml version="1.0" encoding="utf-8"?>
<!-- Generator: Adobe Illustrator 27.0.0, SVG Export Plug-In . SVG Version: 6.00 Build 0)  -->
<svg version="1.1" id="Capa_1" xmlns="http://www.w3.org/2000/svg" xmlns:xlink="http://www.w3.org/1999/xlink" x="0px" y="0px"
	 viewBox="0 0 570 100" style="enable-background:new 0 0 570 100;" xml:space="preserve">
<style type="text/css">
	.st0{fill:#FFFFFF;}
	.st1{fill:#231F20;}
	.st2{fill-rule:evenodd;clip-rule:evenodd;fill:#F48120;}
	.st3{fill-rule:evenodd;clip-rule:evenodd;fill:#1FB4E9;}
	.st4{fill-rule:evenodd;clip-rule:evenodd;fill:#DC1C8C;}
	.st5{font-family:'Montserrat-SemiBold';}
	.st6{font-size:11.4378px;}
	.st7{fill:#1FB4E9;}
	.st8{fill:#DC1C8C;}
	.st9{fill:#FBB036;}
	.st10{fill:#ABD050;}
	.st11{fill:#169084;}
	.st12{fill:#F2736E;}
</style>
<g>
	<path class="st0" d="M520.04,100H49.96C22.37,100,0,77.63,0,50.04v-0.07C0,22.37,22.37,0,49.96,0l470.07,0
		C547.63,0,570,22.37,570,49.96v0.07C570,77.63,547.63,100,520.04,100z"/>
	<g>
		<g>
			<path class="st1" d="M198.82,61.36c0.32,0.21,0.63,0.29,0.93,0.24c0.3-0.05,0.54-0.22,0.71-0.48c0.17-0.28,0.22-0.56,0.15-0.86
				c-0.08-0.29-0.28-0.56-0.63-0.78c-0.22-0.14-0.43-0.23-0.64-0.27c-0.22-0.03-0.42-0.01-0.6,0.08c-0.18,0.09-0.33,0.22-0.44,0.4
				c-0.17,0.25-0.22,0.53-0.17,0.83C198.19,60.81,198.41,61.09,198.82,61.36 M198.57,61.72c-0.44-0.29-0.72-0.64-0.81-1.05
				c-0.1-0.41-0.02-0.81,0.22-1.19c0.16-0.25,0.37-0.44,0.62-0.56c0.25-0.12,0.51-0.18,0.79-0.14c0.28,0.04,0.56,0.14,0.83,0.32
				c0.27,0.18,0.48,0.39,0.62,0.65c0.14,0.25,0.21,0.52,0.19,0.79c-0.02,0.28-0.11,0.54-0.26,0.77c-0.16,0.26-0.37,0.45-0.63,0.56
				c-0.25,0.12-0.51,0.17-0.8,0.14C199.06,61.98,198.81,61.87,198.57,61.72 M57.38,36.44h3.06v13.23c0,1.18,0.43,2.15,1.29,2.91
				c0.86,0.76,2,1.15,3.42,1.15c1.49,0,2.67-0.37,3.53-1.11c0.87-0.74,1.29-1.75,1.29-3.01V36.44h3.06v13.45
				c0,1.95-0.7,3.48-2.11,4.58c-1.4,1.09-3.32,1.63-5.75,1.63c-2.49,0-4.41-0.53-5.76-1.6c-1.36-1.08-2.03-2.62-2.03-4.63V36.44z
				 M92.02,56.05L80.49,41.9v13.87h-2.9V36.44h1.21l11.22,13.38V36.44h2.9v19.61H92.02z M97.98,36.44h3.05v19.33h-3.05V36.44z
				 M109.18,38.82v5.36h7.82v2.24h-7.82v9.35h-3.05V36.44h13.77v2.38H109.18z M134.83,55.77l-5.93-8.3c-0.68,0-1.75-0.04-3.23-0.13
				v8.43h-3.05V36.42c0.11,0,0.9-0.03,2.37-0.1c1.46-0.06,2.53-0.09,3.21-0.09c5.36,0,8.03,1.85,8.03,5.55
				c0,1.22-0.42,2.31-1.29,3.29c-0.86,0.97-1.88,1.58-3.07,1.81l6.46,8.9H134.83z M125.66,38.79v6.3c0.74,0.09,1.44,0.13,2.13,0.13
				c1.82,0,3.15-0.25,3.98-0.77c0.83-0.5,1.25-1.42,1.25-2.74c0-1.09-0.45-1.87-1.34-2.34c-0.9-0.48-2.3-0.72-4.22-0.72
				C127.15,38.66,126.56,38.7,125.66,38.79 M153.29,55.77l-1.53-4.08h-8.33l-1.66,4.08h-3.39l9.06-19.6h0.81l8.41,19.6H153.29z
				 M147.7,41.25l-3.47,8.49h6.65L147.7,41.25z M173.41,56.05L161.88,41.9v13.87h-2.9V36.44h1.22l11.21,13.38V36.44h2.9v19.61
				H173.41z M178.09,55.77v-0.66l9.56-16.3l-9.56,0v-2.38l13.74,0v0.66l-9.6,16.3h9.94v2.37H178.09z M160.02,24.08l0.35-0.23
				l0.96,1.55c0.16,0.27,0.27,0.51,0.3,0.71c0.04,0.2,0.01,0.39-0.08,0.59c-0.09,0.2-0.27,0.38-0.52,0.54
				c-0.25,0.16-0.48,0.24-0.69,0.25c-0.21,0.01-0.4-0.04-0.57-0.17c-0.17-0.12-0.35-0.32-0.52-0.61l-0.96-1.55l0.35-0.22l0.95,1.55
				c0.15,0.24,0.28,0.39,0.39,0.47c0.11,0.09,0.24,0.13,0.38,0.12c0.14-0.01,0.28-0.06,0.44-0.15c0.25-0.16,0.4-0.33,0.44-0.53
				c0.03-0.19-0.06-0.45-0.26-0.78L160.02,24.08z M162.68,26.14l-1.32-2.88l0.38-0.18l2.53,1.56l-1.05-2.26l0.36-0.17l1.32,2.87
				l-0.38,0.18L162,23.72l1.05,2.25L162.68,26.14z M165.75,24.69l-1.08-2.98l0.4-0.14l1.07,2.98L165.75,24.69z M167.75,24.14
				l-2.03-2.71l0.43-0.12l1.41,1.98c0.11,0.16,0.21,0.31,0.3,0.45c0-0.18,0-0.36,0.02-0.54l0.18-2.45l0.4-0.12l-0.3,3.38
				L167.75,24.14z M169.78,23.57l-0.49-3.13l2.23-0.35l0.06,0.37l-1.82,0.29l0.16,0.96l1.7-0.27l0.06,0.37l-1.7,0.27l0.16,1.07
				l1.89-0.3l0.06,0.36L169.78,23.57z M172.83,23.17L172.72,20l1.38-0.05c0.28,0,0.5,0.01,0.65,0.07c0.14,0.06,0.26,0.15,0.35,0.29
				c0.09,0.14,0.14,0.3,0.15,0.48c0,0.23-0.06,0.42-0.19,0.58c-0.14,0.15-0.35,0.26-0.65,0.31c0.11,0.05,0.19,0.1,0.25,0.15
				c0.14,0.11,0.25,0.25,0.36,0.41l0.58,0.84l-0.52,0.02l-0.44-0.65c-0.12-0.19-0.23-0.33-0.31-0.43c-0.08-0.1-0.15-0.16-0.22-0.2
				c-0.06-0.04-0.12-0.07-0.18-0.08c-0.05-0.01-0.13-0.01-0.24-0.01l-0.48,0.02l0.06,1.41L172.83,23.17z M173.18,21.39l0.89-0.03
				c0.19,0,0.33-0.03,0.44-0.08c0.11-0.04,0.19-0.11,0.24-0.19c0.05-0.09,0.07-0.19,0.07-0.29c0-0.15-0.06-0.27-0.18-0.37
				c-0.11-0.09-0.28-0.13-0.51-0.13l-0.98,0.04L173.18,21.39z M175.87,22.08l0.39-0.01c0.01,0.16,0.04,0.29,0.1,0.4
				c0.06,0.11,0.16,0.2,0.3,0.28c0.14,0.07,0.29,0.12,0.46,0.13c0.16,0.01,0.3,0,0.43-0.04c0.12-0.04,0.22-0.1,0.28-0.18
				c0.06-0.08,0.1-0.16,0.1-0.26c0.02-0.09-0.01-0.19-0.06-0.27c-0.06-0.08-0.14-0.14-0.27-0.21c-0.08-0.04-0.26-0.1-0.55-0.2
				c-0.28-0.09-0.48-0.17-0.59-0.24c-0.14-0.09-0.25-0.2-0.31-0.31c-0.06-0.12-0.09-0.25-0.08-0.4c0.01-0.16,0.06-0.31,0.16-0.44
				c0.1-0.13,0.23-0.23,0.41-0.29c0.17-0.06,0.37-0.08,0.58-0.07c0.23,0.02,0.43,0.07,0.6,0.16c0.18,0.09,0.3,0.21,0.38,0.37
				c0.09,0.16,0.12,0.32,0.12,0.51h-0.4c0-0.2-0.07-0.35-0.18-0.47c-0.12-0.11-0.29-0.17-0.53-0.19c-0.25-0.02-0.44,0.01-0.56,0.1
				c-0.12,0.09-0.19,0.19-0.19,0.33c-0.01,0.11,0.02,0.21,0.1,0.29c0.07,0.08,0.28,0.17,0.61,0.27c0.33,0.1,0.56,0.19,0.67,0.26
				c0.18,0.09,0.3,0.21,0.38,0.35c0.08,0.13,0.12,0.29,0.11,0.45c-0.01,0.17-0.07,0.32-0.18,0.47c-0.1,0.14-0.25,0.25-0.43,0.31
				c-0.18,0.07-0.38,0.1-0.61,0.08c-0.28-0.02-0.52-0.08-0.71-0.18c-0.18-0.1-0.32-0.23-0.42-0.41
				C175.9,22.48,175.86,22.3,175.87,22.08 M179.12,23.48l0.54-3.12l0.4,0.08l-0.54,3.12L179.12,23.48z M180.31,23.68l0.75-3.07
				l1.05,0.27c0.23,0.06,0.41,0.12,0.53,0.18c0.16,0.08,0.29,0.19,0.39,0.33c0.12,0.18,0.21,0.38,0.23,0.62
				c0.02,0.23,0.01,0.49-0.06,0.76c-0.06,0.23-0.13,0.43-0.24,0.59c-0.09,0.17-0.2,0.3-0.31,0.4c-0.11,0.1-0.23,0.17-0.35,0.21
				c-0.11,0.04-0.25,0.06-0.4,0.06c-0.15,0-0.32-0.02-0.5-0.07L180.31,23.68z M180.8,23.43l0.65,0.16c0.2,0.05,0.36,0.07,0.48,0.06
				c0.12-0.01,0.22-0.04,0.31-0.09c0.12-0.07,0.23-0.19,0.32-0.34c0.09-0.15,0.16-0.34,0.22-0.57c0.08-0.32,0.09-0.58,0.03-0.78
				c-0.06-0.2-0.16-0.35-0.3-0.45c-0.09-0.07-0.26-0.13-0.5-0.19l-0.64-0.17L180.8,23.43z M183.19,24.39l2.28-2.48l0.42,0.17
				l0.02,3.42l-0.44-0.18l0.02-1.02l-1.22-0.51l-0.67,0.76L183.19,24.39z M184.5,23.52l1,0.41l0.01-0.94
				c0.02-0.29,0.03-0.52,0.04-0.69c-0.11,0.17-0.24,0.34-0.39,0.5L184.5,23.52z M186.2,25.74l1.55-2.74l0.94,0.55
				c0.21,0.12,0.36,0.23,0.46,0.33c0.14,0.13,0.23,0.26,0.29,0.42c0.08,0.21,0.09,0.43,0.05,0.66c-0.03,0.23-0.12,0.47-0.25,0.71
				c-0.12,0.21-0.25,0.37-0.39,0.51c-0.14,0.14-0.27,0.23-0.41,0.29c-0.13,0.07-0.27,0.1-0.39,0.1c-0.12,0.01-0.26,0-0.4-0.05
				c-0.14-0.04-0.3-0.11-0.47-0.21L186.2,25.74z M186.74,25.63l0.58,0.34c0.18,0.11,0.33,0.17,0.45,0.2c0.12,0.03,0.22,0.03,0.32,0
				c0.14-0.04,0.27-0.11,0.39-0.23c0.14-0.12,0.26-0.28,0.38-0.49c0.16-0.29,0.24-0.54,0.24-0.75c-0.01-0.21-0.06-0.37-0.17-0.5
				c-0.07-0.09-0.22-0.2-0.43-0.33l-0.56-0.33L186.74,25.63z M190.08,28.18l1.96-2.46l0.92,0.75c0.16,0.13,0.28,0.24,0.35,0.33
				c0.1,0.12,0.17,0.23,0.21,0.36c0.04,0.13,0.04,0.26,0,0.4c-0.03,0.14-0.09,0.27-0.19,0.4c-0.18,0.21-0.37,0.33-0.63,0.37
				c-0.24,0.03-0.54-0.09-0.88-0.37l-0.62-0.52l-0.8,1L190.08,28.18z M191.43,27.16l0.63,0.51c0.21,0.18,0.39,0.25,0.54,0.25
				c0.14-0.01,0.28-0.08,0.39-0.22c0.09-0.1,0.13-0.21,0.14-0.33c0.01-0.12-0.02-0.22-0.08-0.31c-0.06-0.06-0.14-0.15-0.3-0.27
				l-0.62-0.51L191.43,27.16z M192.29,30.11l2.29-2.15l0.95,1.03c0.19,0.21,0.31,0.38,0.37,0.53c0.06,0.14,0.07,0.3,0.03,0.46
				c-0.05,0.17-0.14,0.31-0.26,0.42c-0.16,0.15-0.34,0.23-0.55,0.23c-0.21-0.01-0.43-0.1-0.67-0.3c0.04,0.12,0.06,0.21,0.06,0.29
				c0,0.17-0.02,0.35-0.07,0.55l-0.26,0.99l-0.35-0.38l0.19-0.76c0.05-0.22,0.08-0.4,0.11-0.52c0.02-0.13,0.02-0.23,0.01-0.3
				c-0.01-0.07-0.04-0.13-0.07-0.19c-0.02-0.04-0.06-0.11-0.14-0.18l-0.32-0.36l-1.02,0.96L192.29,30.11z M193.86,29.21l0.6,0.66
				c0.13,0.14,0.25,0.24,0.35,0.28c0.09,0.05,0.19,0.07,0.3,0.05c0.1-0.02,0.19-0.06,0.26-0.13c0.11-0.1,0.16-0.23,0.16-0.37
				c0-0.15-0.08-0.3-0.24-0.48l-0.68-0.73L193.86,29.21z M194.51,32.57l2.42-1.99l0.26,0.33l-2.43,1.98L194.51,32.57z M195.82,34.38
				l1.96-2.75l0.25,0.39l-1.46,1.93c-0.11,0.16-0.23,0.31-0.34,0.43c0.17-0.05,0.34-0.1,0.53-0.14l2.36-0.53l0.23,0.36l-3.28,0.68
				L195.82,34.38z M196.6,35.64l3.32-0.35l0.21,0.41l-2.21,2.58l-0.21-0.43l0.68-0.75l-0.6-1.19l-1,0.13L196.6,35.64z M198.15,35.87
				l0.48,0.96l0.62-0.69c0.19-0.21,0.34-0.38,0.47-0.5c-0.2,0.06-0.4,0.1-0.61,0.12L198.15,35.87z M198.18,38.61l2.94-1.07
				l0.37,1.03c0.09,0.23,0.14,0.42,0.15,0.54c0.02,0.18,0,0.36-0.05,0.52c-0.08,0.21-0.2,0.38-0.37,0.53
				c-0.17,0.15-0.39,0.28-0.65,0.38c-0.22,0.08-0.43,0.12-0.63,0.14c-0.18,0.01-0.35,0-0.5-0.04c-0.14-0.04-0.27-0.1-0.36-0.17
				c-0.1-0.08-0.2-0.18-0.27-0.31c-0.09-0.12-0.16-0.28-0.23-0.46L198.18,38.61z M198.66,38.88l0.23,0.64
				c0.07,0.2,0.14,0.34,0.22,0.44c0.07,0.1,0.16,0.17,0.25,0.22c0.13,0.05,0.28,0.08,0.45,0.08c0.17,0,0.37-0.05,0.59-0.13
				c0.31-0.11,0.53-0.25,0.65-0.42c0.13-0.16,0.19-0.32,0.2-0.49c0.01-0.12-0.04-0.3-0.12-0.54l-0.23-0.62L198.66,38.88z
				 M199.21,41.33l3.32,0.42l0.12,0.45l-2.72,2.02l-0.11-0.47l0.83-0.58l-0.32-1.3l-1-0.1L199.21,41.33z M200.67,41.9l0.26,1.05
				l0.75-0.54c0.23-0.15,0.43-0.28,0.58-0.37c-0.21,0.01-0.42,0-0.63-0.02L200.67,41.9z M171.28,75.55l0.89-3.13l2.08,0.61
				l-0.11,0.37l-1.67-0.48l-0.27,0.97l1.45,0.43l-0.1,0.35l-1.45-0.41l-0.4,1.41L171.28,75.55z M174.15,76.32l0.39-3.23l1.42,0.17
				c0.28,0.04,0.49,0.1,0.64,0.17c0.13,0.07,0.24,0.19,0.31,0.34c0.07,0.16,0.1,0.33,0.08,0.51c-0.03,0.22-0.13,0.4-0.3,0.54
				c-0.16,0.15-0.4,0.22-0.71,0.22c0.1,0.07,0.18,0.14,0.23,0.19c0.11,0.13,0.21,0.29,0.3,0.48l0.45,0.94l-0.53-0.06l-0.33-0.73
				c-0.11-0.21-0.18-0.37-0.25-0.48c-0.07-0.12-0.13-0.19-0.19-0.24c-0.06-0.05-0.12-0.09-0.18-0.11c-0.05-0.01-0.12-0.03-0.23-0.04
				l-0.49-0.07l-0.17,1.43L174.15,76.32z M174.79,74.57l0.9,0.12c0.2,0.02,0.35,0.02,0.46,0c0.11-0.04,0.2-0.09,0.27-0.17
				c0.07-0.08,0.11-0.17,0.12-0.28c0.02-0.14-0.02-0.27-0.12-0.39c-0.09-0.11-0.26-0.18-0.49-0.21l-1-0.12L174.79,74.57z
				 M177.18,76.64l1.12-3.29l0.46-0.02l1.42,3.2l-0.48,0.02l-0.4-0.97l-1.35,0.05l-0.31,1L177.18,76.64z M178.06,75.27l1.09-0.04
				l-0.37-0.88c-0.11-0.27-0.19-0.49-0.26-0.67c-0.04,0.21-0.08,0.42-0.15,0.63L178.06,75.27z M180.71,76.39l-0.61-3.18l0.43-0.09
				l2.13,2.17l-0.48-2.5l0.4-0.08l0.61,3.19l-0.42,0.09l-2.13-2.19l0.47,2.51L180.71,76.39z M183.93,75.81l-0.13-0.36l0.84-2.53
				c0.06-0.18,0.12-0.34,0.18-0.48l-1.68,0.62l-0.13-0.35l2.15-0.8l0.13,0.37l-0.93,2.74l-0.11,0.28l1.93-0.71l0.12,0.36
				L183.93,75.81z M189.82,72.99l-1.5-2.44l-0.9,0.57l-0.2-0.32l2.16-1.37l0.2,0.32l-0.89,0.57l1.5,2.44L189.82,72.99z
				 M190.96,72.19l-0.95-3.34l0.38-0.29l2.97,1.8l-0.38,0.29l-0.88-0.56l-1.07,0.82l0.3,1L190.96,72.19z M190.9,70.57l0.87-0.66
				l-0.8-0.52c-0.25-0.16-0.44-0.29-0.58-0.4c0.08,0.2,0.16,0.4,0.23,0.61L190.9,70.57z M193.69,69.99l-2.22-2.34l0.46-0.45
				l2.12,1.12l0.44,0.23l-0.24-0.49l-0.99-2.17l0.41-0.4l2.23,2.34l-0.3,0.28l-1.86-1.95l1.19,2.61l-0.28,0.27l-2.57-1.34l1.9,2
				L193.69,69.99z M196.21,67.45l-1.67-3.04l0.3-0.36l3.3,1.07l-0.32,0.37l-0.98-0.35l-0.87,1.05l0.52,0.9L196.21,67.45z
				 M195.78,65.88l0.71-0.85l-0.9-0.33c-0.27-0.1-0.49-0.18-0.66-0.25c0.14,0.17,0.26,0.35,0.36,0.53L195.78,65.88z M198.72,64.28
				l-1.08-0.82l-2.22-0.13l0.3-0.41l1.16,0.08c0.21,0.01,0.43,0.03,0.63,0.06c-0.07-0.18-0.15-0.39-0.24-0.63l-0.38-1.08l0.3-0.4
				l0.71,2.17l1.09,0.82L198.72,64.28z"/>
			<path class="st2" d="M68.83,74.56c-0.85,0.33-1.4,0.23-2.31,0.23c-0.59,0-0.98,0.02-1.51-0.23c-0.49-0.23-0.67-0.71-1.22-0.71
				c-0.73,0-0.91,0.73-1.44,1.23c-0.35,0.33-0.81,0.14-1.17,0.47c-0.51,0.47-0.65,0.97-0.65,1.66c0,0.66,0.09,1.2,0.6,1.57
				c0.38,0.25,0.76,0.07,1.18,0.28c0.27,0.14,0.24,0.47,0.51,0.61c0.78,0.44,1.37,0.29,2.26,0.29h1.43c0.18,0,0.27,0.09,0.44,0.09
				h1.11l2.94-0.76c0,0,5.44-1.67,18.69-6.71c12.43-4.74,41.3-12.88,50.08-10.79c0,0-21.38,3.83-29.52,8.23
				c-5.42,2.92,1.78,2.92,5.61,0.95c0,0,10.28-3.13,11.31-3.03c0,0,1.58,1.13,4.39,0.09c2.8-1.04,12.52-1.15,12.52-1.15
				s12.61-0.85,16.91-0.85c0.09,0,20.74-3.02,24.95-2.46c0,0,2.33,0.09,3.36,0.29c1.03,0.19,4.21-0.48,0.56-1.33
				c0,0-15.98-2.27-35.23,0.28c0,0-16.35,2.65-18.4,2.56c0,0-2.81-0.19,0.28-0.76c3.08-0.56,11.49-1.89,12.33-5.11
				c0,0-11.21,0.56-12.05,0.66c-0.84,0.09-2.9,0.66-4.67,0.85c-1.78,0.19-13.83,1.52-39.99,7.39c0,0-19.44,5.58-20.93,5.77
				C69.68,74.37,68.83,74.56,68.83,74.56"/>
		</g>
		<g>
			<g>
				<path class="st3" d="M370.61,47.02c0.08-0.7,0.14-1.4,0.23-2.11c0.26-2.12,0.51-4.24,0.81-6.35c0.17-1.17,1.28-2.03,2.34-1.94
					c1.32,0.11,2.16,0.95,2.11,2.3c-0.05,1.41-0.25,2.8-0.36,4.2c-0.25,3.2-0.51,6.39-0.73,9.59c-0.11,1.71,0.92,2.79,2.92,3.04
					c1.58,0.19,3.16,0.01,4.64-0.62c1.55-0.67,2.51-1.83,2.35-3.59c-0.28-3.08-0.64-6.15-0.97-9.22c-0.05-0.45-0.13-0.89-0.22-1.33
					c-0.24-1.36,0.28-2.23,1.54-2.58c1.42-0.39,2.52,0.11,2.91,1.43c0.3,1.02,0.54,2.08,0.65,3.13c0.43,3.79,0.43,7.6,0.34,11.4
					c-0.05,2.11-1.18,3.61-2.98,4.58c-2.37,1.29-4.94,1.69-7.61,1.51c-1.45-0.1-2.85-0.44-4.14-1.13c-2.22-1.19-3.36-3.07-3.6-5.54
					c-0.05-0.54-0.15-1.07-0.23-1.6V47.02z"/>
				<path class="st3" d="M414.52,28.56c2.41,1.37,3.25,3.74,2.14,6.07c-0.56,1.18-1.44,1.99-2.81,2c-1.36,0.01-2.28-0.77-2.82-1.97
					c-0.74-1.63-0.64-3.23,0.34-4.75c0.44-0.67,1.1-1.04,1.8-1.36H414.52z"/>
				<path class="st3" d="M506.09,38.62c-1.69,0-3.28-0.05-4.87,0.01c-2.45,0.1-4.9,0.3-7.35,0.41c-1.12,0.05-1.81-0.49-2.04-1.47
					c-0.19-0.81,0.24-1.85,1.14-2.24c0.77-0.34,1.62-0.59,2.46-0.67c1.94-0.18,3.88-0.28,5.84-0.32c2.64-0.06,5.29-0.09,7.93-0.02
					c0.81,0.02,1.65,0.34,2.4,0.69c1.03,0.48,1.24,1.14,0.85,2.23c-0.43,1.21-1.19,2.22-2.07,3.12c-2.75,2.83-5.52,5.62-8.29,8.42
					c-1.15,1.16-2.3,2.3-3.59,3.59c0.52,0,0.89,0.03,1.25,0c3.04-0.26,6.08-0.53,9.13-0.78c0.74-0.06,1.5-0.14,2.23-0.07
					c0.89,0.09,1.21,0.51,1.29,1.41c0.12,1.29-0.48,2.34-1.63,2.79c-0.32,0.12-0.69,0.15-1.04,0.16c-3.59,0.09-7.12,0.67-10.66,1.22
					c-1.39,0.21-2.77,0.43-4.17,0.6c-0.36,0.04-0.76-0.02-1.11-0.14c-1.76-0.58-2.3-1.45-1.94-3.16c0.27-1.28,0.95-2.32,1.85-3.22
					c3.8-3.85,7.6-7.68,11.4-11.52C505.42,39.34,505.73,39,506.09,38.62"/>
				<path class="st3" d="M466.85,42.77c-0.13-0.95-0.27-1.99-0.41-3.04c-0.07-0.49-0.5-0.48-0.79-0.38
					c-0.98,0.31-1.97,0.61-2.88,1.07c-1.24,0.62-2.41,1.38-3.6,2.09c-0.55,0.33-1,0.31-1.48-0.1c-1.05-0.89-1.19-2.97,0.05-3.8
					c3.09-2.07,6.39-3.35,10.19-2.96c1.28,0.13,1.86,0.59,2.17,1.83c0.18,0.67,0.33,1.37,0.33,2.05c0.01,1.44,0.41,2.81,0.69,4.2
					c0.4,1.98,0.73,3.98,1.03,5.98c0.29,1.93,0.49,3.87,0.75,5.8c0.08,0.62-0.19,1.19-0.73,1.51c-0.57,0.33-1.25,0.32-1.72-0.04
					c-0.68-0.52-1.1-0.5-1.75,0.03c-1.07,0.87-2.32,1.27-3.67,1.39c-1.63,0.14-3.22-0.1-4.76-0.61c-2.43-0.8-3.68-2.59-4.17-4.99
					c-0.27-1.29-0.19-2.58,0.13-3.85c0.59-2.36,2.05-4.02,4.37-4.72C462.57,43.62,464.63,43.27,466.85,42.77 M468.43,50.45
					c0.02-0.01,0.04-0.01,0.06-0.01c-0.12-0.87-0.23-1.74-0.38-2.61c-0.09-0.56-0.43-0.86-1.04-0.9c-1.32-0.07-2.62-0.01-3.89,0.36
					c-1.53,0.45-2.6,1.38-3.04,2.95c-0.48,1.74,0.47,3.42,2.26,3.76c1.03,0.2,2.12,0.27,3.17,0.19c1.9-0.15,2.86-1.3,2.87-3.19
					V50.45"/>
				<path class="st3" d="M426.33,40.29c0.21,1.54,0.42,3.04,0.63,4.59c0.35-0.04,0.77-0.11,1.19-0.11c2.51-0.04,5.02-0.07,7.53-0.1
					c0.04,0,0.07,0,0.11,0c0.71,0.09,1.05,0.73,1.01,1.93c-0.03,0.9-0.41,1.37-1.11,1.43c-2.82,0.26-5.64,0.54-8.45,0.81
					c-0.32,0.03-0.46,0.15-0.46,0.49c0,2.03-0.01,4.05,0,6.08c0,0.31,0.12,0.62,0.19,0.93c0.26,1.29-0.3,2.12-1.59,2.35
					c-0.87,0.16-1.66-0.19-1.92-1.07c-0.26-0.89-0.4-1.84-0.42-2.76c-0.05-1.78,0.02-3.56,0.05-5.35c0.01-0.37-0.03-0.64-0.38-0.91
					c-0.9-0.67-1.01-1.62-0.29-2.68c0.27-0.4,0.37-0.79,0.32-1.25c-0.15-1.23-0.28-2.45-0.41-3.65c-0.55-0.06-1.04-0.08-1.51-0.17
					c-0.81-0.17-1.4-0.62-1.58-1.48c-0.18-0.91,0.14-1.63,0.91-2.13c1.05-0.67,2.23-0.95,3.44-1.13c3.08-0.46,6.18-0.25,9.26,0.06
					c1.01,0.1,2.01,0.25,3.01,0.38c0.05,0.01,0.11,0.01,0.17,0.02c1.15,0.19,1.84,0.9,1.72,1.77c-0.18,1.36-0.96,2.08-2.21,1.92
					c-2.64-0.33-5.28-0.28-7.92-0.11C427.16,40.2,426.7,40.25,426.33,40.29"/>
				<path class="st3" d="M447.58,47.48c1.18,1.02,2.31,1.99,3.45,2.97c0.53,0.47,1.06,0.94,1.6,1.42c0.76,0.68,0.81,1.57,0.14,2.27
					c-0.77,0.81-1.48,0.78-2.3,0.11c-2.24-1.82-4.52-3.59-6.8-5.37c-0.14-0.11-0.33-0.15-0.58-0.26c0.37,1.44,0.16,2.8,0.06,4.15
					c-0.07,0.92-0.4,1.35-1.12,1.44c-1,0.14-1.87-0.3-2.04-1.16c-0.14-0.71-0.11-1.45-0.14-2.18c-0.01-0.45-0.01-0.9,0-1.35
					c0.01-0.58-0.02-1.13-0.35-1.66c-0.35-0.55-0.26-1.14,0.15-1.68c0.12-0.16,0.21-0.4,0.21-0.6c0.01-2.65,0.01-5.29,0-7.93
					c0-0.78-0.02-0.83,0.73-0.86c2.81-0.09,5.62-0.14,8.43-0.22c1.09-0.03,2.13,0.1,3.13,0.57c1.36,0.64,2.08,1.73,2.24,3.2
					c0.12,1.1-0.02,2.19-0.48,3.19c-0.23,0.49-0.63,0.94-1.05,1.29c-1.41,1.12-3.06,1.79-4.72,2.45
					C447.95,47.32,447.79,47.39,447.58,47.48 M443.21,44.9c0.38-0.05,0.68-0.06,0.97-0.13c1.56-0.37,3.15-0.65,4.67-1.17
					c0.78-0.27,1.5-0.91,2.1-1.52c0.51-0.52,0.5-1.28,0.16-1.95c-0.32-0.64-0.93-0.69-1.55-0.64c-0.46,0.03-0.94,0.06-1.4,0.11
					c-1.49,0.14-2.98,0.3-4.47,0.45c-0.25,0.02-0.49,0.04-0.48,0.4C443.22,41.91,443.21,43.37,443.21,44.9"/>
				<path class="st3" d="M396.69,47.42c0.07,1.22,0.11,2.28,0.2,3.34c0.15,1.76,0.34,3.51,0.5,5.26c0.02,0.28,0.04,0.56,0.01,0.84
					c-0.05,0.48-0.18,0.95-0.69,1.13c-0.52,0.18-1.07,0.08-1.39-0.35c-0.35-0.49-0.73-1.06-0.8-1.63c-0.27-2.24-0.44-4.51-0.6-6.77
					c-0.09-1.27-0.12-2.54-0.17-3.78c-0.38-0.21-0.79-0.34-1.07-0.61c-0.9-0.85-0.59-2.06,0.6-2.47c0.28-0.1,0.49-0.15,0.53-0.53
					c0.08-0.69,0.43-0.99,1.02-1.07c0.68-0.08,1.24,0.19,1.47,0.78c0.13,0.32,0.19,0.68,0.22,1.03c0.04,0.37,0.01,0.74,0.01,1.13
					c3.31,1.55,6.09,3.88,8.94,6.28c0-0.29,0.02-0.5,0-0.7c-0.3-2.51-0.62-5.02-0.92-7.53c-0.04-0.29-0.04-0.6,0.02-0.89
					c0.14-0.71,0.66-1.15,1.37-1.18c0.64-0.04,1.19,0.32,1.34,1.04c0.16,0.73,0.15,1.49,0.26,2.23c0.54,3.59,1.1,7.18,1.64,10.77
					c0.07,0.4,0.1,0.83,0.04,1.22c-0.09,0.58-0.47,0.98-1.02,1.17c-0.53,0.18-0.96-0.09-1.3-0.46c-0.46-0.51-0.85-1.1-1.35-1.57
					c-2.36-2.24-5.06-4.06-7.72-5.91C397.51,47.97,397.18,47.76,396.69,47.42"/>
				<path class="st3" d="M478.64,42.41c-0.05,0.61-0.13,1.22-0.15,1.83c-0.09,2.42-0.17,4.83-0.25,7.25c0,0.21-0.03,0.41-0.06,0.61
					c-0.1,0.5-0.3,0.95-0.86,1.06c-0.56,0.11-1.1-0.09-1.36-0.57c-0.3-0.54-0.61-1.17-0.61-1.76c-0.03-2.77,0.05-5.54,0.07-8.31
					c0.01-1.34,0-2.69,0-4.03c0-0.22,0.04-0.45,0.09-0.67c0.27-1.04,0.88-1.43,1.87-1.03c0.54,0.22,1.13,0.62,1.41,1.1
					c1.46,2.4,3.52,4.22,5.59,6.05c0.84,0.74,1.73,1.43,2.6,2.14c0.08,0.06,0.18,0.11,0.34,0.19c0-0.62,0.04-1.18,0-1.73
					c-0.16-2.11-0.34-4.22-0.5-6.33c-0.02-0.33-0.04-0.68-0.02-1.01c0.05-0.82,0.6-1.38,1.39-1.43c0.77-0.05,1.29,0.33,1.44,1.18
					c0.09,0.51,0.03,1.04,0.05,1.56c0.19,3.44,0.38,6.88,0.57,10.33c0.05,1.04,0.14,2.08,0.15,3.13c0.01,0.3-0.15,0.61-0.3,0.89
					c-0.36,0.68-0.85,0.83-1.46,0.37c-0.46-0.34-0.91-0.77-1.18-1.26c-0.98-1.81-2.34-3.29-3.76-4.74
					c-1.61-1.65-3.25-3.25-4.89-4.88C478.75,42.37,478.69,42.39,478.64,42.41"/>
				<path class="st3" d="M417.79,47.61c0,2.02,0,4.05,0,6.08c0,1.45-0.7,2.49-1.94,3.2c-0.65,0.37-1.7,0.09-2.34-0.6
					c-0.76-0.83-1.08-1.87-1.11-2.94c-0.07-2.77-0.06-5.55-0.05-8.32c0-1.16,0.09-2.32,0.13-3.48c0.08-1.93,1.61-3.01,3.48-2.47
					c1.15,0.34,1.83,1.24,1.83,2.46V47.61"/>
			</g>
			<g>
				<g>
					<path class="st4" d="M459.06,64.53v3.49c0,0.66-0.01,1.33-0.04,1.99c-0.01,0.52-0.26,0.99-0.82,0.84
						c-0.29-0.07-0.66-0.57-0.66-0.88c0.02-2.39,0.08-4.78,0.19-7.18c0.02-0.35,0.24-0.86,0.5-0.97c0.25-0.11,0.77,0.13,1,0.37
						c1.62,1.65,3.19,3.34,4.78,5.02c0.25,0.26,0.49,0.54,0.74,0.81c0.08-0.01,0.16-0.03,0.24-0.05c-0.08-1.9-0.15-3.81-0.26-5.72
						c-0.03-0.55,0.02-1.09,0.67-1.03c0.29,0.03,0.72,0.52,0.75,0.82c0.15,1.75,0.2,3.51,0.24,5.27c0.02,0.83,0.01,1.68-0.11,2.5
						c-0.06,0.39-0.36,0.88-0.69,1.03c-0.2,0.09-0.73-0.29-0.99-0.58c-1.74-1.93-3.46-3.91-5.17-5.87
						C459.31,64.45,459.18,64.5,459.06,64.53"/>
					<path class="st4" d="M468.59,69.32V63c-0.44,0.08-0.78,0.21-1.09,0.15c-0.32-0.06-0.76-0.29-0.81-0.53
						c-0.05-0.24,0.23-0.78,0.47-0.84c2.06-0.54,4.16-0.79,6.18,0.12c2.72,1.22,3.16,4.95,0.83,6.93c-1.83,1.56-4.08,1.92-6.37,2.04
						c-0.25,0.01-0.52-0.4-0.78-0.61c0.22-0.27,0.4-0.63,0.69-0.8C467.94,69.32,468.31,69.36,468.59,69.32 M470.13,68.98
						c2.54-0.27,4.26-1.94,4.01-3.75c-0.24-1.69-2.06-2.74-4.01-2.35V68.98z"/>
					<path class="st4" d="M510.62,68.03c0-1.55,0.01-2.85,0-4.16c-0.02-0.57-0.1-1.15-0.14-1.73c-0.04-0.48,0.1-0.96,0.64-0.9
						c0.31,0.05,0.78,0.49,0.8,0.76c0.09,2.65,0.12,5.3,0.1,7.95c0,0.32-0.36,0.87-0.59,0.89c-0.33,0.03-0.79-0.25-1.02-0.54
						c-1.57-1.91-3.11-3.86-4.65-5.8c-0.07,0.03-0.15,0.05-0.21,0.08c-0.07,1.53-0.12,3.06-0.18,4.6c0,0.29,0.08,0.62-0.04,0.86
						c-0.17,0.32-0.45,0.75-0.75,0.81c-0.53,0.1-0.7-0.38-0.7-0.86c0-0.46,0.04-0.92,0.06-1.38c0.06-1.96,0.09-3.92,0.19-5.87
						c0.02-0.34,0.26-0.8,0.52-0.93c0.19-0.1,0.71,0.16,0.92,0.39c1.42,1.59,2.81,3.22,4.21,4.83
						C510.01,67.3,510.24,67.58,510.62,68.03"/>
					<path class="st4" d="M502.75,66.16c0,2.57-1.78,4.67-4.07,4.77c-2.8,0.13-5-2.54-4.52-5.48c0.47-2.87,2.82-4.59,5.35-3.9
						C501.41,62.07,502.74,63.97,502.75,66.16 M495.55,66.2c0.07,1.69,1.12,3.03,2.62,3.24c1.25,0.19,2.65-0.81,2.93-2.27
						c0.15-0.76,0.09-1.63-0.13-2.37c-0.36-1.22-1.47-1.93-2.61-1.9c-1.08,0.03-2.1,0.8-2.51,1.95
						C495.7,65.28,495.65,65.75,495.55,66.2"/>
					<path class="st4" d="M481.38,65.48c-0.3-0.78-0.53-1.48-0.85-2.14c-0.08-0.16-0.48-0.31-0.65-0.25
						c-0.73,0.28-1.48,0.58-2.14,0.99c-0.44,0.26-0.84,0.51-1.22,0.08c-0.42-0.47-0.18-0.91,0.24-1.26
						c1.16-0.95,2.43-1.61,3.97-1.25c0.39,0.09,0.85,0.43,1.03,0.78c1.13,2.2,1.64,4.54,1.23,7.03c-0.12,0.69-0.27,1.26-1.2,1.04
						c-0.18-0.05-0.41,0.17-0.62,0.2c-0.92,0.13-1.87,0.43-2.76,0.31c-1.61-0.23-2.69-1.83-2.45-3.27c0.28-1.64,1.89-2.84,3.61-2.66
						C480.11,65.14,480.63,65.31,481.38,65.48 M479.34,70.04c1.24,0.01,2.27-0.83,2.29-1.88c0.03-1.07-0.95-1.93-2.21-1.96
						c-1.27-0.03-2.34,0.85-2.35,1.92C477.07,69.15,478.11,70.03,479.34,70.04"/>
					<path class="st4" d="M443.41,65.16c1.16,0.07,2.25,0.09,3.33,0.22c0.61,0.07,1.53,0.03,1.38,1.01
						c-0.16,0.97-0.98,0.5-1.56,0.47c-1-0.05-1.99-0.1-3.05-0.16c0,1.32-0.01,2.49,0.01,3.66c0.01,0.53-0.03,1.04-0.68,1.07
						c-0.66,0.04-0.79-0.45-0.79-0.99c-0.01-0.77-0.03-1.56-0.05-2.32c-0.02-0.51,0.05-1.02-0.56-1.33
						c-0.17-0.09-0.25-0.81-0.14-0.89c1.14-0.75,0.36-1.82,0.64-2.86c-0.34,0.15-0.52,0.3-0.68,0.28c-0.35-0.04-0.69-0.15-1.04-0.24
						c0.11-0.35,0.12-0.91,0.35-1.02c0.6-0.3,1.31-0.55,1.96-0.55c1.67-0.01,3.34,0.12,5,0.2c0.53,0.03,0.92,0.25,0.85,0.84
						c-0.07,0.59-0.49,0.68-1.02,0.64c-1.31-0.12-2.62-0.2-4.05-0.29C443.34,63.76,443.38,64.47,443.41,65.16"/>
					<path class="st4" d="M483.29,66.81c0.02-1.64,0.47-2.91,1.29-4.02c1.48-1.98,4.61-1.76,5.76,0.41
						c0.13,0.27-0.07,0.72-0.11,1.08c-0.37-0.09-0.88-0.06-1.11-0.3c-1.13-1.15-1.93-1.38-2.92-0.68c-1.17,0.83-1.8,3.29-1.17,4.57
						c0.85,1.73,3.55,2.07,4.69,0.56c0.33-0.42,0.68-0.67,1.16-0.34c0.48,0.34,0.35,0.8,0.07,1.22c-0.68,1.04-1.61,1.65-2.88,1.62
						C485.63,70.87,483.14,69.44,483.29,66.81"/>
					<path class="st4" d="M455.9,66.36c-0.14,0.78-0.21,1.63-0.46,2.41c-0.44,1.35-1.52,2.09-2.85,2.14
						c-1.6,0.06-2.79-0.6-3.34-1.96c-0.81-1.99-0.59-4.03-0.11-6.04c0.06-0.23,0.65-0.57,0.81-0.49c0.28,0.14,0.57,0.57,0.57,0.88
						c-0.01,0.82-0.25,1.65-0.27,2.49c-0.02,0.73,0.07,1.5,0.26,2.22c0.27,1.03,0.98,1.49,1.99,1.43c0.87-0.04,1.56-0.56,1.66-1.58
						c0.12-1.16,0.01-2.35-0.02-3.52c-0.01-0.31-0.22-0.64-0.16-0.93c0.08-0.36,0.24-0.85,0.52-0.98c0.47-0.22,0.82,0.14,0.9,0.63
						C455.58,64.12,455.73,65.2,455.9,66.36"/>
					<path class="st4" d="M493.24,67.28c0,0.66,0.08,1.33-0.03,1.98c-0.05,0.29-0.13,0.8-0.66,0.8c-0.59-0.16-0.7-0.51-0.71-0.78
						c-0.07-1.32-0.07-2.64,0-3.97c0.01-0.28,0.41-0.72,0.69-0.77c0.5-0.09,0.73,0.32,0.71,0.83
						C493.23,66.01,493.24,66.65,493.24,67.28"/>
					<path class="st4" d="M500.63,59.1c-0.03,0.61-2.54,2.16-3.11,1.92c-0.51-0.22-0.59-0.92-0.1-1.27
						c0.67-0.48,1.38-0.92,2.11-1.31C500.08,58.15,500.64,58.54,500.63,59.1"/>
				</g>
				<path class="st4" d="M491.31,62.64c0.08-0.54,0.32-1.04,1.03-1.08c0.56-0.04,1.07,0.61,1,1.25c-0.06,0.63-0.36,1.11-1.06,1.12
					C491.73,63.93,491.3,63.36,491.31,62.64"/>
			</g>
		</g>
		<g>
			<text transform="matrix(1 0 0 1 226.9711 54.0028)" class="st5 st6">PROYECTOS DE RSU</text>
		</g>
	</g>
</g>
</svg>
